<svg width="332" height="1016" viewBox="0 0 332 1016" fill="none" xmlns="http://www.w3.org/2000/svg">
<path d="M135 21V410.5H274.698V729H125.183V956.5" stroke="#080403" stroke-linecap="round" stroke-dasharray="10 4"/>
<path d="M89.1363 962.971C109.094 969.984 130.958 959.49 137.971 939.533C144.984 919.575 134.49 897.711 114.533 890.698C94.5753 883.685 72.7114 894.179 65.6984 914.136C58.6853 934.094 69.1788 955.958 89.1363 962.971Z" fill="#FF9356"/>
<path d="M80.9358 926.254C80.9253 921.436 81.7843 918.063 83.5127 916.136C85.2412 914.209 87.8833 913.232 91.4392 913.205C92.8673 913.159 94.292 913.371 95.6447 913.832C96.6431 914.183 97.5568 914.74 98.3269 915.466C98.9788 916.083 99.5316 916.797 99.9657 917.583C100.397 918.406 100.723 919.28 100.938 920.185C101.42 922.119 101.662 924.104 101.66 926.097C101.678 930.695 100.909 934.064 99.3529 936.202C97.7966 938.34 95.1142 939.43 91.3056 939.471C89.5245 939.544 87.751 939.2 86.1269 938.465C84.8022 937.773 83.6838 936.744 82.8852 935.481C82.1813 934.303 81.6953 933.008 81.4505 931.658C81.0956 929.879 80.9231 928.068 80.9358 926.254ZM87.9273 926.256C87.9298 929.485 88.2343 931.673 88.7965 932.864C88.9839 933.375 89.3218 933.818 89.7659 934.133C90.2099 934.448 90.7391 934.622 91.2837 934.63C91.6285 934.634 91.9705 934.569 92.29 934.439C92.6094 934.309 92.8999 934.118 93.1446 933.875C93.7509 933.211 94.1502 932.384 94.2935 931.496C94.59 929.823 94.7118 928.123 94.6568 926.425C94.6413 923.056 94.3495 920.794 93.7814 919.639C93.5769 919.125 93.2212 918.685 92.7614 918.377C92.3016 918.069 91.7592 917.908 91.206 917.915C90.6556 917.913 90.1186 918.085 89.671 918.405C89.2235 918.725 88.8882 919.178 88.7127 919.7C88.1843 920.877 87.9225 923.063 87.9273 926.256Z" fill="#F4F4F4"/>
<path d="M111.372 920.934L104.713 919.754C105.156 917.802 106.282 916.074 107.887 914.88C109.457 913.758 111.679 913.197 114.554 913.197C117.866 913.184 120.271 913.771 121.742 915.025C122.446 915.576 123.013 916.283 123.399 917.089C123.785 917.895 123.98 918.78 123.968 919.674C123.987 920.735 123.675 921.776 123.076 922.652C122.37 923.636 121.437 924.437 120.357 924.987C121.144 925.155 121.902 925.438 122.606 925.828C123.432 926.324 124.11 927.031 124.573 927.875C125.067 928.808 125.311 929.852 125.282 930.907C125.281 932.4 124.886 933.866 124.135 935.156C123.368 936.513 122.208 937.607 120.807 938.292C119.004 939.101 117.038 939.48 115.063 939.4C113.21 939.477 111.36 939.204 109.607 938.597C108.328 938.099 107.196 937.287 106.314 936.236C105.392 935.072 104.716 933.734 104.325 932.301L111.362 931.352C111.488 932.441 111.938 933.466 112.653 934.296C113.259 934.85 114.058 935.142 114.878 935.109C115.324 935.118 115.766 935.028 116.173 934.848C116.581 934.667 116.944 934.399 117.237 934.063C117.892 933.296 118.227 932.306 118.174 931.298C118.232 930.303 117.902 929.325 117.253 928.568C116.94 928.237 116.559 927.977 116.137 927.804C115.715 927.631 115.261 927.551 114.806 927.567C114.03 927.608 113.263 927.75 112.524 927.992L112.872 922.958C113.176 923.005 113.483 923.033 113.79 923.042C114.645 923.059 115.473 922.738 116.095 922.151C116.388 921.888 116.622 921.565 116.781 921.204C116.939 920.842 117.018 920.452 117.013 920.057C117.031 919.719 116.979 919.38 116.86 919.063C116.741 918.745 116.557 918.456 116.32 918.213C116.067 917.975 115.767 917.79 115.44 917.671C115.112 917.553 114.764 917.502 114.416 917.523C114.045 917.509 113.676 917.569 113.329 917.7C112.982 917.83 112.664 918.029 112.394 918.283C111.78 919.036 111.422 919.964 111.372 920.934Z" fill="#F4F4F4"/>
<path d="M323.231 443.135C328.025 422.825 315.446 402.474 295.135 397.68C274.825 392.886 254.474 405.465 249.68 425.776C244.886 446.086 257.465 466.437 277.776 471.231C298.086 476.025 318.437 463.446 323.231 443.135Z" fill="#FF9356"/>
<path d="M264.003 433.9C264.003 429.124 264.883 425.781 266.643 423.871C268.403 421.961 271.082 421.005 274.679 421.005C276.127 420.963 277.57 421.174 278.942 421.629C279.95 421.981 280.874 422.532 281.656 423.248C282.316 423.861 282.874 424.571 283.311 425.352C283.743 426.17 284.068 427.038 284.28 427.935C284.765 429.854 285.007 431.825 285 433.803C285 438.358 284.211 441.696 282.633 443.817C281.055 445.937 278.337 446.995 274.481 446.99C272.674 447.066 270.875 446.719 269.234 445.978C267.877 445.3 266.733 444.276 265.923 443.015C265.208 441.843 264.717 440.554 264.475 439.211C264.134 437.461 263.976 435.682 264.003 433.9ZM271.087 433.9C271.087 437.101 271.363 439.286 271.915 440.457C272.101 440.96 272.437 441.396 272.88 441.71C273.323 442.023 273.852 442.198 274.398 442.214C274.746 442.217 275.091 442.153 275.413 442.025C275.736 441.897 276.029 441.708 276.277 441.469C276.896 440.813 277.304 439.994 277.452 439.113C277.757 437.455 277.884 435.771 277.833 434.087C277.833 430.741 277.543 428.496 276.964 427.352C276.758 426.84 276.399 426.402 275.933 426.094C275.468 425.786 274.918 425.624 274.357 425.627C273.794 425.62 273.244 425.787 272.785 426.104C272.326 426.421 271.981 426.872 271.799 427.392C271.344 428.582 271.087 430.752 271.087 433.925V433.9Z" fill="#F4F4F4"/>
<path d="M307.903 446H287C287.251 443.958 288.001 442.005 289.187 440.307C290.398 438.533 292.674 436.427 296.015 433.99C297.465 433.035 298.781 431.899 299.929 430.61C300.445 429.989 300.745 429.223 300.785 428.423C300.795 428.066 300.728 427.71 300.589 427.38C300.45 427.049 300.242 426.751 299.978 426.504C299.385 425.985 298.618 425.698 297.823 425.698C297.027 425.698 296.26 425.985 295.668 426.504C294.989 427.33 294.591 428.344 294.53 429.402L287.557 428.849C287.714 427.261 288.23 425.726 289.066 424.356C289.825 423.254 290.897 422.392 292.149 421.877C293.909 421.232 295.784 420.94 297.661 421.016C299.602 420.929 301.543 421.196 303.384 421.806C304.698 422.302 305.825 423.181 306.612 424.325C307.391 425.446 307.799 426.775 307.782 428.131C307.774 429.655 307.308 431.143 306.442 432.411C305.124 434.184 303.482 435.705 301.6 436.896C300.196 437.843 299.259 438.506 298.791 438.885C298.323 439.265 297.766 439.762 297.121 440.378H308L307.903 446Z" fill="#F4F4F4"/>
<path d="M142.773 48.2566C146.039 28.137 132.376 9.17932 112.257 5.91345C92.1369 2.64758 73.1793 16.3102 69.9134 36.4298C66.6475 56.5495 80.3102 75.5071 100.43 78.773C120.549 82.0389 139.507 68.3762 142.773 48.2566Z" fill="#FF9356"/>
<path d="M87.0022 41.4043C87.0022 36.812 87.7981 33.5974 89.39 31.7605C90.9819 29.9236 93.4046 29.0051 96.6582 29.0051C97.9673 28.9643 99.2728 29.1673 100.513 29.6045C101.427 29.9455 102.264 30.475 102.976 31.1612C103.571 31.7529 104.075 32.4353 104.473 33.1849C104.863 33.9715 105.157 34.8056 105.349 35.6679C105.788 37.5139 106.007 39.4092 106 41.3109C106 45.6905 105.286 48.8999 103.859 50.9392C102.432 52.9784 99.9742 53.9955 96.486 53.9903C94.8523 54.0626 93.2255 53.7291 91.7404 53.0174C90.5137 52.3657 89.4792 51.3814 88.7462 50.1686C88.0998 49.0419 87.6559 47.8023 87.4363 46.5103C87.1256 44.828 86.9801 43.1172 87.0022 41.4043ZM93.4096 41.4043C93.4096 44.4814 93.6591 46.583 94.1581 47.709C94.3262 48.1923 94.6302 48.6119 95.0307 48.9132C95.4312 49.2144 95.9096 49.3833 96.4037 49.398C97.0411 49.4026 97.6545 49.1452 98.1103 48.6819C98.6646 48.0474 99.0333 47.2617 99.1733 46.4169C99.4417 44.8216 99.5545 43.2022 99.5101 41.5833C99.5101 38.3662 99.2606 36.2075 98.7616 35.1074C98.5761 34.617 98.2524 34.1963 97.833 33.9005C97.4136 33.6047 96.918 33.4475 96.4112 33.4495C95.9016 33.4409 95.4024 33.6005 94.9855 33.9054C94.5686 34.2103 94.2553 34.6447 94.0907 35.1464C93.6366 36.2828 93.4096 38.3765 93.4096 41.4277V41.4043Z" fill="#F4F4F4"/>
<path d="M124 29V54H117.145V37.6441C116.137 38.4295 115.06 39.1198 113.926 39.7064C112.662 40.3169 111.348 40.8191 110 41.2076V35.6214C111.938 35.0592 113.758 34.1462 115.371 32.927C116.65 31.8758 117.675 30.5467 118.37 29.0395L124 29Z" fill="#F4F4F4"/>
</svg>
