<svg width="323" height="1047" viewBox="0 0 323 1047" fill="none" xmlns="http://www.w3.org/2000/svg">
<g clip-path="url(#clip0_632_2061)">
<path d="M139.817 47V436.5H279.515V755H130V982.5" stroke="#080403" stroke-linecap="round" stroke-dasharray="10 4"/>
<path d="M112.136 993.971C132.094 1000.98 153.958 990.49 160.971 970.533C167.984 950.575 157.49 928.711 137.533 921.698C117.575 914.685 95.7113 925.179 88.6982 945.136C81.6852 965.094 92.1787 986.958 112.136 993.971Z" fill="#FF9356"/>
<path d="M103.936 957.254C103.925 952.436 104.784 949.063 106.513 947.136C108.241 945.209 110.883 944.232 114.439 944.205C115.867 944.159 117.292 944.371 118.645 944.832C119.643 945.183 120.557 945.74 121.327 946.466C121.979 947.083 122.532 947.797 122.966 948.583C123.397 949.406 123.724 950.28 123.939 951.185C124.42 953.119 124.662 955.104 124.66 957.097C124.678 961.695 123.909 965.064 122.353 967.202C120.797 969.34 118.114 970.43 114.306 970.471C112.525 970.544 110.751 970.2 109.127 969.465C107.802 968.773 106.684 967.744 105.885 966.481C105.181 965.303 104.696 964.008 104.451 962.658C104.096 960.879 103.923 959.068 103.936 957.254ZM110.927 957.256C110.93 960.485 111.234 962.673 111.797 963.864C111.984 964.375 112.322 964.818 112.766 965.133C113.21 965.448 113.739 965.622 114.284 965.63C114.629 965.634 114.971 965.569 115.29 965.439C115.61 965.309 115.9 965.118 116.145 964.875C116.751 964.211 117.15 963.384 117.294 962.496C117.59 960.823 117.712 959.123 117.657 957.425C117.641 954.056 117.35 951.794 116.782 950.639C116.577 950.125 116.221 949.685 115.762 949.377C115.302 949.069 114.759 948.908 114.206 948.915C113.656 948.913 113.119 949.085 112.671 949.405C112.224 949.725 111.888 950.178 111.713 950.7C111.185 951.877 110.923 954.063 110.927 957.256Z" fill="#FAFAFA"/>
<path d="M134.372 951.934L127.713 950.754C128.156 948.802 129.282 947.074 130.887 945.88C132.457 944.758 134.679 944.197 137.554 944.197C140.865 944.184 143.271 944.771 144.742 946.025C145.446 946.576 146.013 947.283 146.399 948.089C146.785 948.895 146.98 949.78 146.968 950.674C146.987 951.735 146.675 952.776 146.076 953.652C145.37 954.636 144.437 955.437 143.357 955.987C144.144 956.155 144.902 956.438 145.606 956.828C146.432 957.324 147.11 958.031 147.573 958.875C148.067 959.808 148.311 960.852 148.282 961.907C148.281 963.4 147.886 964.866 147.135 966.156C146.368 967.513 145.207 968.607 143.807 969.292C142.004 970.101 140.038 970.48 138.063 970.4C136.21 970.477 134.359 970.204 132.607 969.597C131.328 969.099 130.196 968.287 129.314 967.236C128.392 966.072 127.716 964.734 127.325 963.301L134.362 962.352C134.488 963.441 134.938 964.466 135.653 965.296C136.259 965.85 137.058 966.142 137.878 966.109C138.324 966.118 138.766 966.028 139.173 965.848C139.581 965.667 139.944 965.399 140.237 965.063C140.892 964.296 141.227 963.306 141.173 962.298C141.231 961.303 140.902 960.325 140.253 959.568C139.94 959.237 139.559 958.977 139.137 958.804C138.715 958.631 138.261 958.551 137.806 958.567C137.03 958.608 136.263 958.75 135.524 958.992L135.872 953.958C136.176 954.005 136.483 954.033 136.79 954.042C137.645 954.059 138.473 953.738 139.095 953.151C139.388 952.888 139.622 952.565 139.781 952.204C139.939 951.842 140.018 951.452 140.012 951.057C140.031 950.719 139.979 950.38 139.86 950.063C139.741 949.745 139.557 949.456 139.32 949.213C139.067 948.975 138.767 948.79 138.44 948.671C138.112 948.553 137.764 948.502 137.416 948.523C137.045 948.509 136.676 948.569 136.329 948.7C135.981 948.83 135.664 949.029 135.394 949.283C134.78 950.036 134.422 950.964 134.372 951.934Z" fill="#FAFAFA"/>
</g>
<path d="M310.231 451.135C315.025 430.825 302.446 410.474 282.135 405.68C261.825 400.886 241.474 413.465 236.68 433.776C231.886 454.086 244.465 474.437 264.776 479.231C285.086 484.025 305.437 471.446 310.231 451.135Z" fill="#FF9356"/>
<path d="M251.003 441.9C251.003 437.124 251.883 433.781 253.643 431.871C255.403 429.96 258.082 429.005 261.679 429.005C263.127 428.963 264.57 429.174 265.942 429.628C266.95 429.981 267.874 430.532 268.656 431.247C269.316 431.861 269.874 432.571 270.311 433.352C270.743 434.17 271.068 435.037 271.28 435.934C271.765 437.854 272.007 439.825 272 441.803C272 446.358 271.211 449.695 269.633 451.816C268.055 453.937 265.337 454.995 261.481 454.989C259.674 455.066 257.875 454.719 256.234 453.978C254.877 453.3 253.733 452.276 252.923 451.015C252.208 449.843 251.717 448.554 251.475 447.21C251.134 445.46 250.976 443.681 251.003 441.9ZM258.087 441.9C258.087 445.1 258.363 447.286 258.915 448.457C259.101 448.96 259.437 449.396 259.88 449.709C260.323 450.023 260.852 450.198 261.398 450.214C261.746 450.217 262.091 450.152 262.413 450.025C262.736 449.897 263.029 449.708 263.277 449.469C263.896 448.813 264.304 447.994 264.452 447.113C264.757 445.455 264.884 443.77 264.833 442.086C264.833 438.74 264.543 436.495 263.964 435.351C263.758 434.84 263.399 434.402 262.933 434.094C262.468 433.786 261.918 433.623 261.357 433.627C260.794 433.62 260.244 433.787 259.785 434.104C259.326 434.421 258.981 434.872 258.799 435.392C258.344 436.582 258.087 438.751 258.087 441.924V441.9Z" fill="#FAFAFA"/>
<path d="M294.903 454H274C274.251 451.958 275.001 450.005 276.187 448.307C277.398 446.533 279.674 444.427 283.015 441.99C284.465 441.035 285.781 439.899 286.929 438.61C287.445 437.989 287.745 437.222 287.785 436.423C287.795 436.065 287.728 435.71 287.589 435.38C287.45 435.049 287.242 434.751 286.978 434.504C286.385 433.985 285.618 433.697 284.823 433.697C284.027 433.697 283.26 433.985 282.668 434.504C281.989 435.33 281.591 436.343 281.53 437.402L274.557 436.849C274.714 435.261 275.23 433.726 276.066 432.356C276.825 431.253 277.897 430.392 279.149 429.877C280.909 429.232 282.784 428.939 284.661 429.016C286.602 428.928 288.543 429.196 290.384 429.806C291.698 430.302 292.825 431.181 293.612 432.325C294.391 433.446 294.799 434.775 294.782 436.131C294.774 437.655 294.308 439.143 293.442 440.41C292.124 442.184 290.482 443.704 288.6 444.895C287.196 445.843 286.259 446.506 285.791 446.885C285.323 447.264 284.766 447.762 284.121 448.378H295L294.903 454Z" fill="#FAFAFA"/>
<path d="M172.773 48.2566C176.039 28.137 162.376 9.17932 142.257 5.91345C122.137 2.64758 103.179 16.3102 99.9134 36.4298C96.6475 56.5495 110.31 75.5071 130.43 78.773C150.549 82.0389 169.507 68.3762 172.773 48.2566Z" fill="#FF9356"/>
<path d="M117.002 41.4043C117.002 36.812 117.798 33.5974 119.39 31.7605C120.982 29.9236 123.405 29.0051 126.658 29.0051C127.967 28.9643 129.273 29.1673 130.513 29.6045C131.427 29.9455 132.264 30.475 132.976 31.1612C133.571 31.7529 134.075 32.4353 134.473 33.1849C134.863 33.9715 135.157 34.8056 135.349 35.6679C135.788 37.5139 136.007 39.4092 136 41.3109C136 45.6905 135.286 48.8999 133.859 50.9392C132.432 52.9784 129.974 53.9955 126.486 53.9903C124.852 54.0626 123.225 53.7291 121.74 53.0174C120.514 52.3657 119.479 51.3814 118.746 50.1686C118.1 49.0419 117.656 47.8023 117.436 46.5103C117.126 44.828 116.98 43.1172 117.002 41.4043ZM123.41 41.4043C123.41 44.4814 123.659 46.583 124.158 47.709C124.326 48.1923 124.63 48.6119 125.031 48.9132C125.431 49.2144 125.91 49.3833 126.404 49.398C127.041 49.4026 127.654 49.1452 128.11 48.6819C128.665 48.0474 129.033 47.2617 129.173 46.4169C129.442 44.8216 129.555 43.2022 129.51 41.5833C129.51 38.3662 129.261 36.2075 128.762 35.1074C128.576 34.617 128.252 34.1963 127.833 33.9005C127.414 33.6047 126.918 33.4475 126.411 33.4495C125.902 33.4409 125.402 33.6005 124.985 33.9054C124.569 34.2103 124.255 34.6447 124.091 35.1464C123.637 36.2828 123.41 38.3765 123.41 41.4277V41.4043Z" fill="#FAFAFA"/>
<path d="M154 29V54H147.145V37.6441C146.137 38.4295 145.06 39.1198 143.926 39.7064C142.662 40.3169 141.348 40.8191 140 41.2076V35.6214C141.938 35.0592 143.758 34.1462 145.371 32.927C146.65 31.8758 147.675 30.5467 148.37 29.0395L154 29Z" fill="#FAFAFA"/>
<defs>
<clipPath id="clip0_632_2061">
<rect width="323" height="1000" fill="white" transform="translate(0 47)"/>
</clipPath>
</defs>
</svg>
