<svg width="649" height="565" viewBox="0 0 649 565" fill="none" xmlns="http://www.w3.org/2000/svg">
<path d="M340 1.5C327.357 46.1094 298.5 87.5 264 128.5C231.808 166.758 183.5 202 125.5 240.5C75 269 84 264 51.5927 272.271C35.2029 273.4 13.2967 276.97 5.80318 259.199C-16.5066 206.291 65.1216 192.667 100.317 190.467C148.219 187.471 192.755 189.895 238.126 205.647C287.121 222.657 322.061 244.025 369.052 265.5C427.516 292.219 513.345 332.276 587.797 332.276C631.706 324.5 646.092 318.023 646.976 296.865C648.611 257.706 567.985 254.742 539.923 253.708C357.189 246.977 334.037 439.368 322.06 563" stroke="#FF9356" stroke-width="3" stroke-linecap="round" stroke-dasharray="6 6"/>
</svg>
