<svg width="986" height="2492" viewBox="0 0 986 2492" fill="none" xmlns="http://www.w3.org/2000/svg">
<path d="M384.5 207.5C384.5 139.705 422.493 74.1506 468.5 48.5C561 -3.07251 614 -1.44857 709.5 6.50004C779.947 12.3634 830.307 29.3432 883.897 54.9935C909.961 67.4686 916.376 76.0267 940.79 103.638C956.537 129.801 972.435 156.777 979.51 186.431C993.619 245.574 973.884 303.129 928.69 345.826C906.006 367.257 878.033 381.132 849.798 394.676C823.64 407.224 784.066 427.43 757.412 439.144C720.061 455.561 635.085 485.904 566.87 539.18C502.038 589.814 467.031 631 457.5 646.5C440.629 673.938 416.846 712.173 409.5 743.5" stroke="#FF9356" stroke-width="3" stroke-linecap="round" stroke-dasharray="6 6"/>
<path d="M407.5 749C394.857 793.609 359.5 873 325 914C292.808 952.258 244.5 987.5 186.5 1026C136 1054.5 145 1049.5 112.593 1057.77C96.2029 1058.9 74.2967 1062.47 66.8032 1044.7C44.4934 991.791 126.122 978.167 161.317 975.967C209.219 972.971 253.755 975.395 299.126 991.147C348.121 1008.16 383.061 1029.52 430.052 1051C488.516 1077.72 574.345 1117.78 648.797 1117.78C692.706 1110 707.092 1103.52 707.976 1082.37C709.611 1043.21 628.985 1040.24 600.923 1039.21C418.189 1032.48 393.977 1248.37 382 1372" stroke="#FF9356" stroke-width="3" stroke-linecap="round" stroke-dasharray="6 6"/>
<path d="M416.5 1945C404.105 1992.51 385.633 2061.09 351.283 2097.44C315.017 2135.82 275.511 2183.77 219.279 2189.85C208.27 2191.04 177.231 2189.29 185.332 2173.09C187.82 2168.11 202.163 2162.78 208.141 2162.5C221.322 2161.89 234.015 2163.03 247.069 2165.59C307.158 2177.36 365.413 2197.85 423.627 2216.32C454.55 2226.13 518.239 2247.15 552.213 2255.14C579.57 2261.57 622.78 2262.87 648.332 2247.09C661.821 2238.76 670.864 2219.78 661.83 2201.98C651.68 2181.99 614.719 2180.74 596.545 2181.69C549.853 2184.15 493.636 2202.16 459.798 2235.51C418 2268 407 2290.5 379 2342.5C362.351 2373.42 361.5 2447 361.5 2488.5" stroke="#FF9356" stroke-width="3" stroke-linecap="round" stroke-dasharray="6 6"/>
<path d="M382.003 1377.5C382.003 1409.41 374.003 1477 353.503 1526C333.028 1574.94 220.924 1639.76 171.631 1658.56C163.242 1661.76 76.5028 1693.5 41.0028 1690.5C7.00295 1690.5 -16.4977 1654.4 20.0024 1624C49.0022 1608.3 103.131 1597 171.631 1603.5C228.131 1608.86 317.208 1635.51 345.014 1650.67C380.117 1669.81 415.449 1686.72 453.65 1698.51C485.078 1708.2 545.503 1718.5 581.003 1712.5C607.664 1707.99 644.81 1694.75 641.503 1674.5C636.341 1642.88 546.97 1658.05 519.144 1670.12C480.163 1687.03 441.394 1730.11 437.444 1773.17C434.607 1804.09 431.003 1867 431.003 1867C431.003 1867 426.003 1910.5 418.003 1942" stroke="#FF9356" stroke-width="3" stroke-linecap="round" stroke-dasharray="6 6"/>
</svg>
