<svg width="1078" height="337" viewBox="0 0 1078 337" fill="none" xmlns="http://www.w3.org/2000/svg">
<g clip-path="url(#clip0_184_6057)">
<mask id="mask0_184_6057" style="mask-type:luminance" maskUnits="userSpaceOnUse" x="-85" y="0" width="1163" height="337">
<path d="M1078 0H-85V337H1078V0Z" fill="white"/>
</mask>
<g mask="url(#mask0_184_6057)">
<path d="M603.398 496.457H531.853L592.234 232.717H663.388L603.398 496.457Z" fill="#EEEEEE"/>
<path d="M603.398 235.967C608.559 274.746 618.398 347.456 625.571 400.206C642.341 336.292 669.302 235.967 669.302 235.967" fill="#AFA2A1"/>
<path d="M628.903 506.947L696.261 508.087V232.72H597.438C597.438 232.72 598.798 260.893 605.252 283.206C605.769 285.051 606.33 286.866 606.937 288.608C606.937 288.608 612.774 290.16 623.04 296.447L628.903 506.947Z" fill="#EEEEEE"/>
<path d="M599.885 255.761L603.397 278.98L613.717 284.32L608.397 257.382L615.546 292.946L604.044 286.927L623.921 297.328" stroke="black" stroke-width="1.68589" stroke-miterlimit="10"/>
<path d="M665.506 256.932L665.837 261.273C666.165 265.537 667.539 269.655 669.836 273.263C672.134 276.872 675.285 279.86 679.011 281.964L683.014 284.224" stroke="black" stroke-width="1.68589" stroke-miterlimit="10"/>
<path d="M629.819 110.043C626.837 122.304 594.493 188.268 594.756 192.367C594.756 193.348 614.32 206.379 614.794 207.973C616.741 214.263 584.642 240.832 577.61 242.409C556.958 247.068 538.918 246.105 539.287 229.167C539.865 202.596 586.621 136.79 610.569 113.564C626.312 98.2384 632.764 98.0279 629.819 110.043Z" fill="#FFC4C0"/>
<path d="M569.738 245.58L607.729 197.972C607.729 197.972 596.385 193.873 596.14 191.228C595.895 188.583 623.366 132.113 629.309 115.508C635.253 98.9032 630.642 95.4703 612.83 109.71C595.019 123.95 528.922 216.224 538.725 236.769C545.475 250.939 569.738 245.58 569.738 245.58Z" fill="#FF9356"/>
<path d="M596.122 191.544C594.437 191.964 592.799 192.55 591.231 193.296C589.64 193.996 588.062 194.715 586.497 195.45C583.394 196.887 580.308 198.375 577.31 200.022C574.312 201.668 571.402 203.419 568.544 205.277L566.511 206.535L565.704 206.815C564.564 207.217 563.425 207.655 562.338 208.163C560.215 209.155 558.16 210.284 556.185 211.543C556.044 211.631 556.185 211.841 556.325 211.771C558.381 210.612 560.52 209.605 562.724 208.758L563.6 208.443C562.443 209.214 561.321 210.02 560.234 210.878C557.32 213.125 554.55 215.553 551.942 218.147C551.819 218.27 551.942 218.445 552.135 218.323C556.834 213.768 562.777 210.476 568.437 207.271C574.098 204.066 580.043 200.37 585.969 197.094C587.722 196.148 589.349 195.255 591.087 194.397C592.855 193.63 594.58 192.771 596.256 191.822C596.292 191.799 596.316 191.763 596.325 191.722C596.334 191.681 596.326 191.638 596.303 191.603C596.284 191.575 596.255 191.554 596.223 191.543C596.19 191.533 596.154 191.533 596.122 191.544Z" fill="#263238"/>
<path d="M698.277 245.58C697.997 245.86 582.149 237.942 581.168 236.664C579.818 234.913 614.933 111.393 627.942 96.7494C630.712 93.6138 647.015 90.2861 655.729 98.5006C674.207 116.016 687.162 172.241 689.88 189.126C694.385 216.994 699.311 244.547 698.277 245.58Z" fill="#FF9356"/>
<path d="M619.295 139.732L607.154 164.925" stroke="#11141C" stroke-width="1.68589" stroke-miterlimit="10"/>
<path d="M663.338 124.143C691.529 145.162 724.278 156.495 737.812 151.205C748.33 147.072 782.394 115.911 787.969 90.7238C789.196 85.1716 746.472 80.2146 744.789 83.9454C739.862 94.6645 720.595 113.284 718.632 113.004C716.072 112.653 686.918 106.418 663.898 101.005C636.094 94.4719 647.928 112.688 663.338 124.143Z" fill="#FFC4C0"/>
<path d="M795.628 81.7215C793.401 90.7417 781.602 107.434 777.205 110.359C772.809 113.284 743.773 94.1924 743.352 88.7971C742.931 83.4018 752.819 53.5743 760.357 47.8109C767.896 42.0475 798.014 72.3682 795.628 81.7215Z" fill="#FEC5A8"/>
<path d="M744.212 83.4197C743.166 75.9816 741.04 68.7356 737.9 61.9106C733.868 53.906 726.978 42.4685 731.203 40.1387C739.885 35.3571 757.062 63.8723 757.062 63.8723C757.062 63.8723 762.62 77.6748 754.432 83.139C752.92 84.123 751.165 84.67 749.362 84.7195C747.558 84.769 745.775 84.3193 744.212 83.4197Z" fill="#FEC5A8"/>
<path d="M750.609 59.0213C754.115 62.4012 756.781 59.3012 756.781 59.3012C756.781 59.3012 751.521 67.2886 754.925 71.5624C758.329 75.8361 763.691 70.1257 764.112 69.8105C763.831 70.2309 759.203 77.6927 763.042 81.6341C766.882 85.5755 771.615 79.2167 771.913 78.7963C771.772 79.2862 770.159 85.6972 773.666 88.0098C779.854 92.0207 784.518 75.7488 789.847 73.0687C789.847 73.0687 795.422 81.5811 795.633 81.8268C795.843 82.0724 800.384 66.4306 796.369 59.4417C795.799 58.4164 794.896 57.6161 793.809 57.1734C792.722 56.7307 791.516 56.6721 790.391 57.0072C790.391 57.0072 792.477 52.2077 789.549 49.0026C788.025 47.3732 784.062 48.3366 784.062 48.3366C784.476 47.2246 784.576 46.0201 784.35 44.8554C784.124 43.6906 783.582 42.6103 782.783 41.7329C780.574 39.5957 776.945 40.8921 776.945 40.8921C776.945 40.8921 791.531 21.6256 787.166 18.1218C779.628 11.9737 754.084 53.1532 749.806 53.5035C747.766 53.5909 749.049 57.5316 750.609 59.0213Z" fill="#FEC5A8"/>
<path d="M656.09 99.0303C652.335 103.102 649.812 108.155 648.815 113.601C648.579 114.871 648.428 116.155 648.361 117.445C638.118 106.071 645.762 99.0773 656.09 99.0303Z" fill="#0ED811"/>
<path d="M631.361 113.478C637.251 114.458 647.84 104.124 651.311 96.6971C651.539 96.1893 650.45 91.0396 649.418 84.7339C648.786 80.9157 648.208 76.6241 647.945 72.684C647.945 71.8783 645.228 73.5448 645.228 73.5448L640.213 75.1213L623.576 80.3762C625.315 85.2175 626.457 90.2524 626.977 95.3697C627.022 95.9117 627.022 96.4565 626.977 96.9984V97.2632C626.592 100.305 625.663 112.514 631.361 113.478Z" fill="#FEC5A8"/>
<path d="M626.907 96.942V97.2069C627.759 97.2759 628.615 97.2759 629.467 97.2069C646.104 95.7351 646.788 74.4365 646.788 74.4365L640.232 75.1548L623.594 80.4092C625.333 85.2504 626.475 90.2853 626.995 95.4027C627.006 95.9173 626.976 96.4319 626.907 96.942Z" fill="#263238"/>
<path d="M620.771 35.0419C620.771 35.0419 612.707 38.1596 611.041 46.2165C609.376 54.2734 611.041 62.8216 611.725 63.242C612.409 63.6625 620.771 35.0419 620.771 35.0419Z" fill="#263238"/>
<path d="M653.065 47.1098C655.396 55.9903 649.769 81.1778 643.299 86.5903C633.92 94.4373 619.053 94.648 612.497 83.4899C606.15 72.6655 614.075 39.9817 621.263 35.1121C631.834 27.9457 649.611 33.9708 653.065 47.1098Z" fill="#FEC5A8"/>
<path d="M632.097 61.1401C634.885 61.4903 633.973 67.0431 631.396 66.7101C628.819 66.3771 629.766 60.8607 632.097 61.1401Z" fill="#263238"/>
<path d="M619.018 58.7584C616.284 58.1102 615.161 63.6108 617.686 64.2232C620.211 64.8356 621.297 59.2311 619.018 58.7584Z" fill="#263238"/>
<path d="M621.404 73.3063C622.09 74.5906 623.096 75.6761 624.325 76.4579C625.005 76.87 625.798 77.0555 626.59 76.9876C628.327 76.8181 628.602 75.2952 628.517 73.9624C628.467 73.2424 628.324 72.5318 628.093 71.8479C626.078 73.0391 623.733 73.5504 621.404 73.3063Z" fill="#263238"/>
<path d="M624.326 76.4605C625.006 76.8726 625.799 77.0582 626.591 76.9902C628.327 76.8207 628.602 75.2978 628.518 73.9657C627.64 73.8542 626.751 74.0393 625.991 74.4914C625.232 74.9435 624.646 75.6367 624.326 76.4605Z" fill="#FF98B9"/>
<path d="M649.014 67.5165C643.755 67.5165 644.421 44.6238 644.421 44.6238C641.368 46.0417 638.117 46.9867 634.779 47.4263C631.386 47.6344 627.981 47.4583 624.628 46.9013C623.909 46.6907 632.92 43.1876 632.92 43.1876C632.92 43.1876 610.322 47.409 609.13 43.1876C608.727 41.731 619.035 26.2503 634.638 27.4235C646.173 28.2293 652.59 40.1056 652.59 40.1056C652.59 40.1056 658.13 46.306 657.85 49.9322C657.534 54.6423 654.519 67.5165 649.014 67.5165Z" fill="#263238"/>
<path d="M646.824 67.5158C646.824 67.5158 653.047 59.6688 656.659 61.9285C660.271 64.1882 655.239 75.8183 650.768 77.1842C649.666 77.6066 648.44 77.5741 647.362 77.094C646.283 76.6139 645.439 75.7253 645.016 74.6238C644.992 74.5615 644.97 74.4981 644.95 74.4345L646.824 67.5158Z" fill="#FEC5A8"/>
<path d="M655.133 65.2734V65.3959C653.686 66.0103 652.384 66.9218 651.312 68.0714C650.239 69.221 649.421 70.5829 648.91 72.0689C649.263 71.5282 649.816 71.1495 650.448 71.0163C651.081 70.8831 651.74 71.0062 652.281 71.3585C652.398 71.4338 652.507 71.5191 652.609 71.6134C652.609 71.6134 652.609 71.7889 652.521 71.771C651.992 71.5711 651.415 71.5377 650.866 71.6755C650.318 71.8133 649.824 72.1156 649.453 72.5417C648.849 73.2689 648.321 74.0552 647.875 74.8888C647.717 75.1688 647.226 74.9762 647.35 74.6783C647.56 70.7032 650.909 65.4137 655.133 65.2734Z" fill="#263238"/>
<path d="M626.803 96.7846L632.834 111.322L650.803 92.6333L656.062 98.5012C656.062 98.5012 638.531 128.067 638.531 126.754L632.36 114.23L623.77 123.093L624.225 101.076L626.803 96.7846Z" fill="#EEEEEE"/>
<path d="M680.694 220.936H599.594V225.665H680.694V220.936Z" fill="#222831"/>
<path d="M648.892 220.936H599.594V225.665H648.892V220.936Z" fill="#263238"/>
<path d="M640.372 225.734L537.723 225.752L523.032 155.742H625.696L640.372 225.734Z" fill="#222831"/>
<path d="M587.953 190.739C588.052 191.456 588.009 192.187 587.825 192.888C587.642 193.589 587.323 194.247 586.885 194.825C586.447 195.402 585.899 195.888 585.274 196.254C584.648 196.62 583.956 196.86 583.238 196.959C582.947 196.999 582.654 197.016 582.361 197.009C580.648 196.967 579.007 196.31 577.739 195.159C576.471 194.007 575.659 192.438 575.454 190.739C575.357 190.018 575.403 189.286 575.589 188.583C575.775 187.88 576.099 187.221 576.54 186.643C576.981 186.065 577.533 185.58 578.162 185.215C578.791 184.849 579.486 184.612 580.207 184.515C580.485 184.478 580.766 184.462 581.046 184.467C582.76 184.506 584.403 185.162 585.672 186.314C586.941 187.466 587.751 189.037 587.953 190.739Z" fill="#EEEEEE"/>
<path d="M558.325 229.903C564.654 233.407 572.35 241.516 577.609 242.427C578.9 242.705 580.246 242.559 581.447 242.01C582.647 241.461 583.638 240.539 584.271 239.381C584.271 239.381 586.637 244.81 591.564 244.846C594.106 244.846 596.368 240.852 596.368 240.852C596.968 242.052 597.888 243.064 599.026 243.774C600.165 244.485 601.478 244.868 602.82 244.881C606.326 244.706 608.08 240.695 608.08 240.695C608.08 240.695 611.99 243.865 615.495 242.447C622.508 239.749 624.156 209.797 613.357 204.595C608.325 202.16 608.343 209.499 608.343 209.499C608.343 209.499 605.783 198.99 599.577 198.482C593.371 197.973 594.02 207.642 594.02 207.642C594.02 207.642 591.443 197.446 584.991 197.588C578.276 197.745 580.502 207.17 580.502 207.17C580.502 207.17 576.347 200.268 571.424 201.512C563.325 203.565 572.528 219.203 570.617 225.701H559.888L558.325 229.903Z" fill="#FEC5A8"/>
<path d="M567.44 235.754C561.165 233.04 558.149 237.506 551.662 236.665C544.369 235.719 546.736 227.171 559.551 225.648H570.649L567.44 235.754Z" fill="#FEC5A8"/>
<path d="M588.574 36.1875C594.71 44.7197 600.254 47.7342 606.295 47.2025C610.404 46.8404 614.725 44.8435 619.628 41.8171C620.919 41.0072 622.297 40.3442 623.736 39.8407C626.022 39.0302 628.465 38.7617 630.873 39.0563C633.281 39.3509 635.587 40.2007 637.609 41.5384L637.62 41.5344C637.754 41.5293 637.887 41.5115 638.018 41.4814C639.774 40.5657 641.243 40.3797 642.424 40.7485L645.543 35.9563C635.81 3.92146 620.189 21.1919 620.189 21.1919L612.975 13.5482C590.825 -7.08763 578.29 21.8825 588.574 36.1875Z" fill="#263238"/>
<path d="M617.271 55.9089C617.271 55.9089 620.929 53.9651 622.096 57.6198" stroke="black" stroke-width="1.68589" stroke-miterlimit="10"/>
<path d="M629.257 58.3968C629.257 58.3968 632.759 54.5873 635.094 58.475" stroke="black" stroke-width="1.68589" stroke-miterlimit="10"/>
<path d="M628.821 78.3846C628.821 80.2811 629.575 82.0998 630.917 83.4408C632.259 84.7817 634.08 85.535 635.978 85.535H636.188C638.086 85.535 639.906 84.7817 641.249 83.4408C642.591 82.0998 643.345 80.2811 643.345 78.3846V69.8907C643.345 69.6357 643.395 69.3832 643.493 69.1478C643.591 68.9124 643.735 68.6987 643.916 68.519C644.097 68.3393 644.312 68.1972 644.548 68.1009C644.784 68.0045 645.037 67.9557 645.292 67.9575V96.5727C645.295 98.8706 644.843 101.146 643.963 103.27C643.083 105.393 641.793 107.322 640.165 108.946C638.482 110.63 636.471 111.952 634.257 112.832C632.044 113.712 629.674 114.13 627.292 114.062C617.766 113.801 610.271 105.805 610.271 96.2846V67.8813C610.296 67.8703 610.324 67.8644 610.351 67.8641C610.618 67.8378 610.886 67.8677 611.14 67.952C611.394 68.0362 611.627 68.173 611.825 68.3532C612.022 68.5334 612.18 68.753 612.287 68.998C612.394 69.2429 612.448 69.5076 612.446 69.7748V78.3819C612.446 79.3209 612.631 80.2508 612.991 81.1183C613.35 81.9858 613.878 82.774 614.542 83.438C615.207 84.102 615.996 84.6288 616.864 84.9882C617.732 85.3475 618.663 85.5324 619.603 85.5324H619.813C621.711 85.5324 623.532 84.779 624.874 83.438C626.216 82.097 626.97 80.2783 626.97 78.3819L628.821 78.3846Z" fill="#263238"/>
<path d="M737.825 94.0878L771.758 116.793" stroke="#11141C" stroke-width="1.68589" stroke-miterlimit="10"/>
<path d="M580.501 207.168C580.501 207.168 585.904 224.49 584.27 239.379" stroke="#FF8168" stroke-width="1.68589" stroke-miterlimit="10"/>
<path d="M594.019 207.64C594.019 207.64 599.202 217.479 596.368 240.85" stroke="#FF8168" stroke-width="1.68589" stroke-miterlimit="10"/>
<path d="M608.341 209.497C608.341 209.497 612.35 223.073 608.076 240.693" stroke="#FF8168" stroke-width="1.68589" stroke-miterlimit="10"/>
<path d="M776.941 40.8921L756.779 59.3013" stroke="#FF8168" stroke-width="1.68589" stroke-miterlimit="10"/>
<path d="M764.108 69.8099C764.108 69.8099 781.183 49.6661 784.059 48.336" stroke="#FF8168" stroke-width="1.68589" stroke-miterlimit="10"/>
<path d="M771.909 78.7991C771.909 78.7991 784.15 59.7787 790.387 57.0092" stroke="#FF8168" stroke-width="1.68589" stroke-miterlimit="10"/>
<path d="M787.049 117.72C787.049 117.72 766.842 150.505 747.448 163.489L747.321 163.573C744.52 165.419 741.373 166.675 738.07 167.266C734.768 167.858 731.38 167.771 728.112 167.013L710.119 162.908L668.503 153.413C661.101 152.046 654.41 148.134 649.591 142.356C644.772 136.578 642.128 129.297 642.117 121.776C642.117 121.215 642.132 120.651 642.164 120.087C642.236 118.676 642.401 117.272 642.659 115.883C643.75 109.927 646.509 104.403 650.615 99.9499C654.307 95.9303 658.961 92.9142 664.14 91.1846C669.319 89.4551 674.853 89.0688 680.222 90.0623L730.368 101.506C735.689 95.3682 740.943 89.2003 740.943 89.2003L787.049 117.72Z" fill="#FF9356"/>
<path d="M647.049 104.976C647.049 104.976 656.106 80.3409 692.84 93.915" stroke="#11141C" stroke-width="1.68589" stroke-miterlimit="10"/>
<path d="M737.047 98.2867L776.399 121.458" stroke="#11141C" stroke-width="1.68589" stroke-miterlimit="10"/>
<path d="M722.728 151.473C722.728 151.473 733.313 155.672 739.85 150.696" stroke="#11141C" stroke-width="1.68589" stroke-miterlimit="10"/>
<path d="M680.545 149.762L663.578 140.743" stroke="#11141C" stroke-width="1.68589" stroke-miterlimit="10"/>
<path d="M677.898 194.084L670.894 207.614" stroke="#11141C" stroke-width="1.68589" stroke-miterlimit="10"/>
<path d="M671.361 195.017L664.356 208.547" stroke="#11141C" stroke-width="1.68589" stroke-miterlimit="10"/>
<path d="M1015.13 214.158C1013.82 213.645 1012.35 213.514 1010.99 213.117C1009.57 212.718 1008.18 212.227 1006.82 211.647C1004.23 210.522 1001.8 209.061 999.595 207.3C997.485 205.458 995.87 203.117 994.898 200.492C994.318 199.088 993.756 197.666 993.241 196.262C992.96 195.568 992.678 194.871 992.379 194.179C992.264 193.899 991.518 192.428 991.385 191.965C991.413 191.99 991.448 192.003 991.485 192.003C991.521 192.003 991.557 191.99 991.584 191.965L991.667 191.883V191.717C991.667 191.668 991.552 191.536 991.37 191.486C991.33 191.481 991.29 191.488 991.255 191.505C991.219 191.523 991.19 191.551 991.171 191.585C990.906 192.049 991.17 192.494 991.286 192.99C991.534 193.917 991.766 194.844 992.015 195.766C992.445 197.422 992.858 198.989 993.354 200.592C994.15 203.597 995.778 206.318 998.052 208.441C1000.44 210.454 1003.17 212.016 1006.11 213.051C1007.61 213.606 1009.16 214.032 1010.74 214.324C1012.2 214.676 1013.7 214.765 1015.19 214.589C1015.39 214.554 1015.31 214.224 1015.13 214.158Z" fill="#263238"/>
<path d="M893.046 138.638C901.415 155.163 920.089 164.797 937.19 169.589C954.623 174.547 974.868 177.042 992.615 172.217C1000.54 170.26 1007.75 166.133 1013.46 160.299C1019.39 153.938 1021.54 146.369 1018.27 138.517C1015.64 132.188 1008.16 126.487 1009.22 121.43C1010.28 116.373 1015.23 113.168 1017.39 108.623C1021.1 100.724 1017.94 93.5522 1013.31 86.942C1002.37 71.2434 1009.65 55.1481 1004.63 37.4659C1001.77 27.4022 991.809 7.87088 966.039 10.3649C956.248 11.3236 948.176 18.4132 942.585 26.3443C935.97 35.6797 936.317 49.8262 928.841 58.5512C922.473 65.9711 915.444 65.8892 909.191 73.7871C906.479 77.2081 904.626 81.4719 906.76 91.3535C907.538 94.9393 908.034 100.244 905.867 103.846C902.858 108.804 895.943 109.961 892.751 115.133C888.247 122.246 889.357 131.318 893.046 138.638Z" fill="#263238"/>
<path d="M1007.62 161.278C1016.2 161.658 1022.19 150.883 1018.17 143.894C1015.64 139.466 1010.99 136.672 1008.44 132.326C1004.24 125.056 1010.3 120.561 1014.53 115.174C1023.69 103.507 1016.78 92.8815 1009.19 82.8834C1003.43 75.2986 1003.48 68.011 1004.91 58.9054C1004.91 58.773 1005.17 58.8067 1005.15 58.9054C1004.43 65.6639 1003.96 72.3735 1007.47 78.5031C1010.31 83.4608 1014.68 87.4267 1017.39 92.5499C1021.91 101.157 1020.97 109.256 1014.95 116.742C1013.29 118.89 1010.31 121.121 1009.27 123.649C1006.79 129.598 1010.74 133.762 1014.5 137.728C1017.36 140.769 1020.55 144.14 1020.95 148.535C1021.56 155.146 1014.22 162.515 1007.72 161.838C1007.3 161.773 1007.27 161.263 1007.62 161.278Z" fill="#263238"/>
<path d="M1001.78 166.73C1007.52 164.697 1013.64 163.028 1017.76 158.219C1023.86 151.114 1019.61 143.909 1015.62 137.134C1013.97 134.225 1012.58 131.4 1013.41 127.979C1014.65 122.857 1019.28 119.306 1020.96 114.313C1024.98 102.416 1014.56 92.5306 1010.41 82.3345C1006.26 72.1385 1006.38 60.8519 1006.34 49.7475C1006.34 49.6993 1006.36 49.6531 1006.4 49.619C1006.43 49.5849 1006.48 49.5657 1006.52 49.5655C1006.57 49.5655 1006.62 49.5847 1006.65 49.6188C1006.69 49.653 1006.71 49.6992 1006.71 49.7475C1006.84 63.8598 1008.16 77.3775 1015.47 89.7545C1020.58 98.3973 1025.98 107.717 1020.73 117.6C1019.44 120.028 1017.42 122.062 1016.22 124.491C1013.77 129.333 1014.45 132.935 1017.04 137.297C1019.64 141.66 1022.54 145.874 1022.11 150.996C1021.26 160.912 1010.33 165.406 1002.03 167.521C1001.91 167.513 1001.8 167.458 1001.72 167.369C1001.64 167.28 1001.6 167.163 1001.61 167.045C1001.62 166.984 1001.63 166.924 1001.66 166.87C1001.69 166.816 1001.73 166.768 1001.78 166.73Z" fill="#263238"/>
<path d="M891.144 111.62C896.453 106.547 903.598 104.911 903.549 96.1362C903.549 90.0881 901.316 84.8147 903.698 78.8844C905.666 73.9267 909.685 70.6223 914.184 68.0772C919.89 64.7721 925.944 62.3925 930.575 57.5342C935.636 52.2468 938.844 45.471 941.921 38.9773C941.921 38.8449 942.219 38.9774 942.169 39.076C938.432 48.0327 934.246 57.1548 925.861 62.7402C921.494 65.6487 916.5 67.5323 912.166 70.4905C904.346 75.8282 902.986 83.0993 904.177 91.9725C904.722 96.0211 905.12 100.054 902.639 103.54C900.159 107.027 896.024 108.729 892.848 111.473C879.318 123.04 892.566 143.782 905.848 148.984C906.444 149.215 906.179 150.176 905.567 149.943C895.643 146.374 886.513 134.839 886.217 124.164C886.119 121.846 886.507 119.533 887.356 117.372C888.204 115.212 889.494 113.253 891.144 111.62Z" fill="#263238"/>
<path d="M890.184 119.074C891.474 112.926 895.94 110.268 899.827 106.002C905.947 99.3098 902.573 90.8822 903.548 82.7511C903.934 80.0974 904.845 77.547 906.228 75.2489C907.611 72.9507 909.438 70.9508 911.603 69.3658C917.276 64.7723 923.941 61.9962 928.937 56.4267C934.209 50.4385 937.613 43.0398 938.728 35.1426C938.728 34.9943 938.96 35.0599 938.943 35.1426C938.423 40.5199 936.781 45.7287 934.123 50.4334C931.465 55.138 927.85 59.2342 923.511 62.4582C917.92 66.5399 910.908 69.3988 906.972 75.678C902.87 82.2883 905.182 89.4104 904.772 96.6482C904.699 98.7932 904.196 100.902 903.292 102.849C902.389 104.796 901.103 106.542 899.513 107.984C897.147 110.265 894.401 112.232 892.747 115.222C890.731 119.411 890.284 124.184 891.488 128.674C894.532 142.687 906.506 153.461 918.994 157.972C919.424 158.138 919.259 158.881 918.812 158.716C913.129 156.719 907.898 153.619 903.419 149.595C898.94 145.571 895.301 140.701 892.712 135.267C890.152 130.28 889.265 124.602 890.184 119.074Z" fill="#263238"/>
<path d="M965.837 97.326C957.666 107.688 904.987 141.497 867.359 141.514C854.59 141.514 818.188 87.6259 811.273 67.0027C806.311 52.1303 837.819 44.1648 846.784 46.1815C857.983 48.6769 876.837 94.6326 884.825 95.2768C897.577 96.3183 930.557 87.7252 957.322 83.5772C971.048 81.495 972.123 89.377 965.837 97.326Z" fill="#FEC5A8"/>
<path d="M812.182 69.3497C810.049 64.9045 802.109 43.7027 801.217 37.305C800.324 30.9073 799.117 12.3351 803.946 11.1619C808.774 9.98871 809.569 15.3927 809.569 15.3927C809.569 15.3927 810.298 7.46025 815.258 6.71938C820.218 5.97851 821.196 14.4366 821.196 14.4366C821.196 14.4366 822.619 6.43861 827.581 5.97647C832.542 5.51434 832.129 14.2386 832.129 14.2386C832.129 14.2386 833.006 6.78629 837.273 8.20712C842.4 9.86233 839.225 23.4602 840.73 30.4498C841.077 32.105 849.975 62.0973 849.975 62.0973L812.182 69.3497Z" fill="#FEC5A8"/>
<path d="M856.824 66.6896C856.824 66.6896 858.048 53.9154 857.336 48.1983C856.624 42.4812 846.137 22.0891 841.607 24.0885C835.752 26.6991 838.895 40.379 841.558 46.4933C841.558 46.4933 828.606 51.7682 829.268 61.6498C829.929 71.5314 856.824 66.6896 856.824 66.6896Z" fill="#FEC5A8"/>
<path d="M871.941 74.7033L826.92 103.159C826.92 103.159 850.241 139.513 864.349 142.818C878.458 146.122 933.533 128.243 957.402 107.306C981.271 86.37 972.371 78.7705 947.081 84.1712C921.792 89.5718 888.828 94.9286 884.909 93.0774C880.99 91.2262 871.941 74.7033 871.941 74.7033Z" fill="#EEEEEE"/>
<path d="M928.474 166.07L922.073 221.577C922.073 221.577 1012.28 220.222 1034.54 217.975C1034.54 217.975 1013.19 115.189 988.348 89.8069C975.927 77.1161 961.884 78.5037 953.085 87.9066C950.885 90.2861 924.769 127.005 922.305 140.787C920.285 152.982 928.474 166.07 928.474 166.07Z" fill="#EEEEEE"/>
<path d="M973.744 88.2543C973.015 89.9095 962.563 99.6421 954.659 97.773C952.095 97.1454 954.84 82.9006 954.84 82.9006V81.8095L954.345 66.5405L973.663 58.7405L976.442 57.7474C976.442 57.7474 976.292 61.9443 976.077 67.1489V68.7513L975.978 71.1142C975.997 71.7225 975.958 72.3312 975.862 72.9323C975.747 73.56 975.862 74.1902 975.73 74.8159C975.381 79.336 974.718 83.8264 973.744 88.2543Z" fill="#FEC5A8"/>
<path d="M976.026 67.2344C973.764 71.0716 970.692 74.3704 967.024 76.9016C963.357 79.4327 959.181 81.1355 954.789 81.8916L954.293 66.6226L973.611 58.8226L976.389 57.8295C976.389 57.8295 976.241 62.0292 976.026 67.2344Z" fill="#263238"/>
<path d="M936.248 43.1083C932.56 69.6968 948.09 74.8881 953.83 75.6786C959.024 76.3891 976.853 78.1575 983.253 52.0973C989.654 26.0371 978.456 15.9244 966.631 13.6766C954.805 11.4288 939.923 16.5362 936.248 43.1083Z" fill="#FEC5A8"/>
<path d="M957.899 44.0449C960.85 43.9177 960.87 49.8129 958.15 49.9268C955.43 50.0407 955.427 44.1422 957.899 44.0449Z" fill="#263238"/>
<path d="M959.087 44.3416C959.598 44.6766 960.105 45.2612 960.73 45.3148C961.354 45.3685 961.994 44.7707 962.453 44.1795L962.551 44.1669C962.563 45.2984 962.145 46.4675 960.934 46.6384C959.722 46.8092 959.025 45.7989 958.731 44.6707C958.678 44.5277 958.854 44.2052 959.087 44.3416Z" fill="#263238"/>
<path d="M943.989 43.6187C941.047 43.428 940.883 49.329 943.606 49.4985C946.329 49.668 946.443 43.7723 943.989 43.6187Z" fill="#263238"/>
<path d="M942.733 43.9463C942.253 44.2403 941.775 44.8017 941.178 44.8276C940.581 44.8534 940.08 44.2013 939.685 43.5849L939.587 43.5975C939.53 44.723 939.88 45.8922 940.945 46.1398C942.011 46.3874 942.668 45.4202 942.98 44.3145C943.078 44.1854 942.927 43.9211 942.733 43.9463Z" fill="#263238"/>
<path d="M980.922 52.1965C974.306 51.7172 973.215 31.4411 973.099 28.9629C973.099 30.6181 972.999 38.8775 972.355 39.1589C971.65 39.1104 970.957 38.9541 970.3 38.6955C970.337 37.6964 970.293 36.696 970.168 35.7041C969.893 36.6081 969.715 37.5388 969.637 38.4803L968.445 38.1001C968.594 35.9765 968.46 33.8426 968.047 31.7541C967.881 30.9596 967.551 34.4812 966.675 37.5546C961.127 35.6968 955.392 34.4556 949.572 33.853C947.916 33.7371 946.512 33.704 945.255 33.704C945.424 32.2115 945.512 30.711 945.52 29.2091C944.974 30.6752 944.574 32.1921 944.327 33.7371H942.442C942.442 30.2499 944.278 24.7804 943.682 25.6067C941.946 28.1772 940.711 31.0526 940.044 34.0814C937.662 34.4614 936.984 34.8912 936.935 34.2801C937.915 27.4764 941.279 21.2405 946.428 16.6812C954.946 9.26125 971.42 7.95551 980.219 20.2173C980.219 20.2173 987.646 25.4729 988.489 33.4371C989.333 41.4013 984.71 52.4773 980.922 52.1965Z" fill="#263238"/>
<path d="M974.139 51.6517C974.139 51.6517 980.027 43.2903 983.831 45.3891C987.635 47.4879 983.186 59.6172 978.721 61.2532C978.176 61.4982 977.588 61.6337 976.991 61.6518C976.394 61.67 975.8 61.5704 975.241 61.3589C974.683 61.1474 974.171 60.8281 973.736 60.4191C973.301 60.0102 972.951 59.5198 972.706 58.9757C972.68 58.9201 972.656 58.8639 972.634 58.8074L974.139 51.6517Z" fill="#FEC5A8"/>
<path d="M979.037 82.9065C979.037 82.9065 1020.95 83.6275 1032.3 101.003C1043.65 118.379 1010.68 141.067 1010.68 141.067L970.584 143.963L968.651 107.522L976.924 82.3484L979.037 82.9065Z" fill="#263238"/>
<path d="M946.65 58.4373C947.585 60.1019 948.934 61.4972 950.567 62.4886C951.471 62.9945 952.506 63.217 953.538 63.1269C955.817 62.8501 956.149 60.8798 956.011 59.1035C955.912 58.1586 955.707 57.2277 955.4 56.3286C952.784 57.9482 949.717 58.6873 946.65 58.4373Z" fill="#263238"/>
<path d="M950.595 62.5172C951.499 63.023 952.534 63.2453 953.567 63.1553C955.844 62.8779 956.178 60.9043 956.039 59.1313C954.881 58.9954 953.712 59.2564 952.723 59.8716C951.734 60.4868 950.983 61.4197 950.595 62.5172Z" fill="#FF9BBC"/>
<path d="M957.442 36.1622C957.442 36.1622 961.816 35.4228 964.778 40.3996" stroke="black" stroke-width="1.68589" stroke-miterlimit="10"/>
<path d="M939.309 35.7254C939.309 35.7254 942.846 33.0485 947.773 36.0947" stroke="black" stroke-width="1.68589" stroke-miterlimit="10"/>
<path d="M948.696 45.7876C949.043 41.8229 946.548 38.3666 943.124 38.0677C939.7 37.7688 936.643 40.7406 936.297 44.7053C935.95 48.67 938.445 52.1263 941.869 52.4252C945.292 52.7241 948.349 49.7523 948.696 45.7876Z" stroke="black" stroke-width="1.68589" stroke-miterlimit="10"/>
<path d="M963.066 47.0422C963.413 43.0775 960.918 39.6212 957.494 39.3223C954.07 39.0235 951.013 41.9952 950.667 45.96C950.32 49.9247 952.815 53.381 956.239 53.6799C959.663 53.9787 962.719 51.007 963.066 47.0422Z" stroke="black" stroke-width="1.68589" stroke-miterlimit="10"/>
<path d="M948.492 46.2246L950.545 46.404" stroke="black" stroke-width="1.68589" stroke-miterlimit="10"/>
<path d="M963.066 47.0424C963.066 47.0424 972.758 45.3209 979.076 46.8649" stroke="black" stroke-width="1.68589" stroke-miterlimit="10"/>
<path d="M1032.04 212.893V342.429H894.767L924.423 212.893H1032.04Z" fill="#FF9356"/>
<path d="M932.338 236.733L935.972 260.754L946.648 266.278L941.148 238.409L948.543 275.201L936.644 268.978L957.207 279.738" stroke="black" stroke-width="1.68589" stroke-miterlimit="10"/>
<path d="M1020.38 115.483C1050.88 144.848 1033.65 165.24 1035.09 175.024C1036.75 185.798 1035.24 209.726 1034.61 240.81C1034.48 246.693 988.646 240.81 989.49 234.596C990.882 224.202 994.27 182.989 994.237 176.891C994.237 172.859 1012.32 144.333 1002.99 123.527C995.218 106.209 1006.99 102.594 1020.38 115.483Z" fill="#FEC5A8"/>
<path d="M986.694 296.498C988.015 297.051 989.472 297.188 990.873 296.893C992.274 296.597 993.551 295.882 994.535 294.843C995.878 296.875 997.891 298.371 1000.22 299.073C1004.38 300.133 1007.85 294.116 1007.85 294.116C1009.68 295.937 1012.01 297.164 1014.55 297.636C1018.63 298.247 1023.02 292.678 1023.02 292.678C1025.62 293.423 1028.4 293.2 1030.86 292.051C1037.29 288.745 1038.22 277.74 1038.87 270.75C1039.53 263.76 1034.84 243.335 1034.34 239.353L989.487 234.759C989.487 234.759 977.612 265.264 978.009 273.592C978.341 280.52 981.716 294.202 986.694 296.498Z" fill="#FEC5A8"/>
<path d="M1008.26 89.2613C1017.17 89.2613 1025.71 92.7955 1032.01 99.0864C1038.3 105.377 1041.84 113.91 1041.84 122.806V236.955H974.689V122.806C974.689 113.91 978.227 105.377 984.523 99.0864C990.82 92.7955 999.36 89.2613 1008.26 89.2613Z" fill="#EEEEEE"/>
<path d="M905.568 333.162H1017.65" stroke="black" stroke-width="1.68589" stroke-miterlimit="10"/>
<path d="M978.998 226.977H1032.62" stroke="black" stroke-width="1.68589" stroke-miterlimit="10"/>
<path d="M974.892 130.202C975.375 95.9338 1004.92 83.3045 1025.21 93.6013" stroke="black" stroke-width="1.68589" stroke-miterlimit="10"/>
<path d="M1020.3 164.232L1017.65 173.885" stroke="black" stroke-width="1.68589" stroke-miterlimit="10"/>
<path d="M1021.03 169.782L1018.37 179.436" stroke="black" stroke-width="1.68589" stroke-miterlimit="10"/>
<path d="M932.379 169.541L938.418 174.609" stroke="black" stroke-width="1.68589" stroke-miterlimit="10"/>
<path d="M830.688 105.347L871.75 79.5247" stroke="black" stroke-width="1.68589" stroke-miterlimit="10"/>
<path d="M940.832 104.543L928.916 124.814C928.916 124.814 909.753 134.468 894.938 138.812" stroke="black" stroke-width="1.68589" stroke-miterlimit="10"/>
<path d="M974.65 181.125V226.253" stroke="black" stroke-width="1.68589" stroke-miterlimit="10"/>
<path d="M994.537 294.952L995.423 272.347" stroke="#FF8168" stroke-width="1.68589" stroke-miterlimit="10"/>
<path d="M1007.85 294.119C1007.85 294.119 1004.84 277.053 1006.66 271.382" stroke="#FF8168" stroke-width="1.68589" stroke-miterlimit="10"/>
<path d="M1023.02 292.681C1023.02 292.681 1016.44 276.811 1020.18 270.898" stroke="#FF8168" stroke-width="1.68589" stroke-miterlimit="10"/>
<path d="M810.294 14.9127C810.294 14.9127 809.996 27.961 814.022 35.2009" stroke="#FF8168" stroke-width="1.68589" stroke-miterlimit="10"/>
<path d="M821.921 13.9547C821.921 13.9547 819.336 26.6739 824.005 33.9138" stroke="#FF8168" stroke-width="1.68589" stroke-miterlimit="10"/>
<path d="M832.853 13.756C832.853 13.756 829.805 26.513 834.471 32.6254" stroke="#FF8168" stroke-width="1.68589" stroke-miterlimit="10"/>
<path d="M839.625 27.3169C839.77 27.6863 841.98 42.2091 842.877 45.2851C843.813 44.2099 821.107 49.8409 832.218 64.8026" stroke="#FF8168" stroke-width="1.68589" stroke-miterlimit="10"/>
<path d="M145.268 497.525H226.068L157.879 199.678H77.5225L145.268 497.525Z" fill="#222831"/>
<path d="M145.269 198.018C139.438 243.071 128.33 327.544 120.228 388.83C101.29 314.575 70.8418 198.018 70.8418 198.018H145.269Z" fill="black"/>
<path d="M116.464 509.369L40.3955 510.656V199.676H151.998C151.998 199.676 150.464 231.492 143.174 256.691C142.59 258.774 141.955 260.825 141.272 262.791C141.272 262.791 134.681 264.544 123.087 271.643L116.464 509.369Z" fill="#222831"/>
<path d="M137.224 128.29C141.724 164.121 149.585 224.217 162.3 229.078C164.502 229.92 173.868 231.775 180.269 224.576C191.062 212.437 209.717 171.53 214.927 158.368C217.239 152.533 179.162 133.493 175.902 139.359C171.337 147.572 166.542 159.938 165.63 159.526C164.114 158.838 161.522 143.581 151.352 122.16C138.716 95.5465 135.551 114.971 137.224 128.29Z" fill="#FEC5A8"/>
<path d="M225.983 144.225C222.234 152.27 208.126 165.727 203.473 167.662C198.821 169.598 175.124 146.398 175.727 141.265C176.33 136.131 191.052 110.022 199.175 106.003C207.297 101.984 229.867 135.889 225.983 144.225Z" fill="#FEC5A8"/>
<path d="M177.452 136.378C177.452 136.378 178.234 124.862 175.493 115.068C173.189 106.834 168.834 94.8659 173.221 93.461C182.224 90.5789 193.071 120.429 193.071 120.429C193.071 120.429 195.74 134.366 187.073 138.011C181.633 140.298 177.452 136.378 177.452 136.378Z" fill="#FEC5A8"/>
<path d="M187.926 114.693C188.434 119.368 193.657 116.094 193.657 116.094C193.657 116.094 187.276 122.616 189.665 127.233C191.979 131.676 198.147 127.498 198.595 127.206C198.26 127.554 192.553 133.7 195.432 138.093C198.428 142.655 203.901 137.399 204.253 137.058C204.04 137.486 201.325 143.189 204.272 146.028C209.337 150.906 216.684 136.517 222.172 134.989C222.172 134.989 225.824 143.985 225.985 144.224C225.985 144.224 233.255 130.677 230.78 123.397C230.436 122.333 229.739 121.419 228.803 120.805C227.868 120.191 226.751 119.914 225.638 120.02C225.638 120.02 228.465 115.911 226.308 112.382C225.196 110.573 221.31 110.741 221.31 110.741C221.31 110.741 223.436 107.357 221.321 104.337C219.641 101.921 216.005 102.466 216.005 102.466C216.005 102.466 216.535 98.2697 214.017 96.3596C208.945 92.4917 186.846 104.684 187.926 114.693Z" fill="#FEC5A8"/>
<path d="M217.914 171.286L176.29 137.84C176.29 137.84 166.197 158.669 165.605 158.587C165.014 158.504 158.409 130.861 147.46 113.641C136.512 96.4205 133.867 115.107 136.195 129.327C138.523 143.546 149.478 222.283 159.322 229.503C169.167 236.723 178.419 227.688 182.401 223.852C187.887 218.565 217.914 171.286 217.914 171.286Z" fill="#FF9356"/>
<path d="M165.409 216.466C163.607 217.909 34.0487 211.348 33.5152 210.767C32.0646 209.188 40.6721 121.328 67.6789 101.677C86.3353 89.8401 137.042 101.797 140.89 104.922C143.304 106.881 148.562 119.26 152 129.499C158.882 149.994 166.977 215.198 165.409 216.466Z" fill="#FF9356"/>
<path d="M138.61 101.591C142.994 104.843 146.364 121.664 136.329 123.943C126.295 126.221 116.988 110.384 115.619 105.268C114.251 100.152 129.122 94.5528 138.61 101.591Z" fill="#0ED811"/>
<path d="M135.607 121.64C129.384 122.439 119.934 112.075 116.606 104.129C116.381 103.584 117.741 98.2367 119.087 91.6609C119.888 87.6672 120.686 83.2021 121.119 79.0747L146.367 88.0789C146.367 88.0789 142.912 96.4636 142.2 103.664C142.148 104.233 142.148 104.806 142.2 105.376C142.2 105.455 142.213 105.551 142.208 105.66C142.396 108.933 141.622 120.862 135.607 121.64Z" fill="#FEC5A8"/>
<path d="M122.313 79.5009C122.579 84.7386 124.567 103.615 139.535 105.525C140.421 105.638 141.314 105.684 142.206 105.664C142.216 105.567 142.212 105.469 142.194 105.373C142.144 104.805 142.144 104.234 142.194 103.666C142.916 96.4668 146.373 88.0789 146.373 88.0789L122.313 79.5009Z" fill="#263238"/>
<path d="M120.695 48.1421C117.013 57.063 119.338 84.0654 125.314 90.6055C133.978 100.086 149.424 102.384 157.805 91.6907C165.929 81.3258 162.275 46.1883 155.482 40.1144C145.477 31.1716 126.133 34.966 120.695 48.1421Z" fill="#FEC5A8"/>
<path d="M143.118 64.2313C140.171 64.2458 140.418 70.1345 143.149 70.1239C145.836 70.106 145.589 64.2187 143.118 64.2313Z" fill="#263238"/>
<path d="M156.228 64.4041C159.155 64.0585 159.632 69.9325 156.92 70.2523C154.252 70.5674 153.775 64.6934 156.228 64.4041Z" fill="#263238"/>
<path d="M126.1 69.6002C126.1 69.6002 120.729 60.5514 116.663 62.4026C112.598 64.2538 116.186 77.0552 120.639 79.1037C121.193 79.4056 121.802 79.5925 122.429 79.6533C123.057 79.7141 123.69 79.6474 124.291 79.4572C124.892 79.2671 125.448 78.9574 125.927 78.5469C126.405 78.1363 126.795 77.6336 127.073 77.0685L126.1 69.6002Z" fill="#FEC5A8"/>
<path d="M149.235 225.702L145.268 251.92L133.613 257.951L139.62 227.529L131.548 267.691L144.536 260.894L122.089 272.641" stroke="black" stroke-width="1.68589" stroke-miterlimit="10"/>
<path d="M210.717 174.083L176.664 147.576" stroke="black" stroke-width="1.68589" stroke-miterlimit="10"/>
<path d="M93.2773 107.517C58.6457 131.309 33.6494 168.612 31.2439 176.493C25.423 195.561 16.726 229.187 15.3861 244.29C14.8904 249.873 57.9546 248.831 58.6716 242.88C60.9168 224.247 68.939 183.705 69.1418 183.007C70.5765 178.108 82.793 156.867 95.366 133.761C107.948 110.638 107.854 97.5037 93.2773 107.517Z" fill="#FEC5A8"/>
<path d="M56.2069 303.031C51.6576 304.583 48.71 300.576 48.71 300.576C48.71 300.576 46.3732 303.618 42.7245 304.151C38.545 304.758 35.7599 298.477 35.7599 298.477C33.7852 300.07 31.3761 301.033 28.8462 301.24C24.7879 301.418 21.073 295.48 21.073 295.48C21.073 295.48 16.9596 296.34 13.462 294.083C9.6112 291.6 7.71206 279.335 7.777 272.43C7.84194 265.525 14.4992 245.998 15.3912 242.149L59.7555 242.183C59.7555 242.183 68.2822 273.235 67.0522 281.341C66.0158 288.17 61.3128 301.289 56.2069 303.031Z" fill="#FEC5A8"/>
<path d="M61.0196 232.635C59.1999 232.213 42.6806 230.694 39.0849 230.441C35.4892 230.188 31.8895 229.941 28.2911 229.699C24.5741 229.448 20.7976 229.012 17.0701 229.059C17.0393 229.062 17.0105 229.075 16.9885 229.097C16.9666 229.118 16.9529 229.147 16.9499 229.178C16.9468 229.208 16.9547 229.239 16.9719 229.265C16.9891 229.29 17.0146 229.309 17.0442 229.318C20.7121 229.966 24.506 230.144 28.2117 230.497C31.8697 230.844 35.5277 231.187 39.1857 231.526C42.8443 231.857 59.2144 233.002 61.0262 232.881C61.1799 232.87 61.1435 232.665 61.0196 232.635Z" fill="#263238"/>
<path d="M79.7031 250.156L9.81343 231.978L39.7975 116.904C40.9922 112.32 43.079 108.015 45.9389 104.236C48.7988 100.456 52.3757 97.2771 56.4653 94.8791C60.555 92.4811 65.0774 90.9113 69.7743 90.2595C74.4712 89.6076 79.2506 89.8865 83.8396 91.0801C93.1075 93.4906 101.037 99.4808 105.885 107.733C110.732 115.985 112.1 125.823 109.687 135.083L79.7031 250.156Z" fill="#FF9356"/>
<path d="M77.2542 241.242L16.9307 225.354" stroke="black" stroke-width="1.68589" stroke-miterlimit="10"/>
<path d="M48.709 300.575V280.358" stroke="#FF8168" stroke-width="1.68589" stroke-miterlimit="10"/>
<path d="M35.7598 298.473L37.4741 279.627" stroke="#FF8168" stroke-width="1.68589" stroke-miterlimit="10"/>
<path d="M21.0723 295.478L23.7548 278.531" stroke="#FF8168" stroke-width="1.68589" stroke-miterlimit="10"/>
<path d="M204.252 137.059C204.252 137.059 217.045 123.384 225.636 120.018" stroke="#FF8168" stroke-width="1.68589" stroke-miterlimit="10"/>
<path d="M198.594 127.207C198.594 127.207 215.66 111.816 221.308 110.738" stroke="#FF8168" stroke-width="1.68589" stroke-miterlimit="10"/>
<path d="M193.655 116.094C193.655 116.094 206.832 104.309 216.003 102.463" stroke="#FF8168" stroke-width="1.68589" stroke-miterlimit="10"/>
<path d="M122.307 72.9503C122.307 72.9503 120.596 66.5976 118.397 66.5976" stroke="black" stroke-width="1.68589" stroke-miterlimit="10"/>
<path d="M142.911 55.8057C142.911 55.8057 138.754 54.4008 135.085 58.7984" stroke="black" stroke-width="1.68589" stroke-miterlimit="10"/>
<path d="M160.261 55.6017C160.261 55.6017 157.006 52.6608 151.89 55.2383" stroke="black" stroke-width="1.68589" stroke-miterlimit="10"/>
<path d="M162.413 74.7419C162.413 74.7419 157.195 78 151.489 76.5342C148.161 75.644 144.644 75.7573 141.381 76.8599C141.381 76.8599 128.989 79.4659 123.12 74.7413V98.369C123.12 103.523 125.158 108.468 128.791 112.127C132.423 115.786 137.355 117.864 142.513 117.907C145.083 117.929 147.632 117.444 150.014 116.481C152.396 115.518 154.564 114.095 156.396 112.294C158.227 110.493 159.685 108.349 160.687 105.985C161.689 103.621 162.214 101.083 162.233 98.5153L162.413 74.7419Z" fill="#263238"/>
<path d="M142.219 83.8701C142.674 84.2786 143.135 84.8486 143.799 84.8764C144.478 84.8347 145.14 84.6501 145.742 84.3348C145.755 84.3302 145.768 84.3294 145.781 84.3325C145.794 84.3356 145.805 84.3425 145.814 84.3522C145.823 84.362 145.829 84.3742 145.831 84.3873C145.833 84.4004 145.831 84.4136 145.825 84.4255C145.579 84.7951 145.238 85.0914 144.837 85.2828C144.437 85.4742 143.992 85.5536 143.549 85.5127C143.173 85.4315 142.829 85.2405 142.561 84.964C142.294 84.6875 142.114 84.338 142.046 83.9594C142.014 83.8555 142.152 83.8105 142.219 83.8701Z" fill="#263238"/>
<path d="M149.366 80.5775C148.556 81.5362 147.513 82.2704 146.337 82.7094C145.689 82.9278 144.989 82.9394 144.334 82.7425C142.907 82.297 142.931 80.9709 143.248 79.85C143.423 79.2548 143.668 78.6822 143.977 78.1443C145.468 79.5091 147.356 80.3617 149.366 80.5775Z" fill="black"/>
<path d="M146.338 82.7095C145.69 82.9279 144.99 82.9395 144.335 82.7426C142.908 82.297 142.932 80.9708 143.249 79.8499C144.79 80.0789 146.275 81.1993 146.338 82.7095Z" fill="#F392B9"/>
<path d="M140.431 24.7581C139.157 24.5853 137.871 24.5215 136.587 24.5674C131.041 24.8018 126.669 28.2611 127.051 34.0596C127.348 38.5697 122.272 41.2764 122.951 45.6567C123.42 48.6831 126.733 50.9997 129.247 52.2868C131.103 53.285 133.222 53.6851 135.315 53.4321C142.604 52.3675 147.98 42.88 149.66 36.4829C150.301 34.0451 150.545 31.4404 149.217 29.1496C147.678 26.5059 143.89 25.2196 140.431 24.7581Z" fill="#263238"/>
<path d="M122.988 36.8583C121.79 36.6957 120.58 36.6359 119.372 36.6795C114.158 36.8993 110.047 40.1528 110.406 45.6044C110.685 49.8417 105.912 52.3887 106.551 56.5082C106.992 59.3552 110.106 61.5308 112.467 62.7411C114.212 63.68 116.205 64.0565 118.172 63.8189C125.024 62.8179 130.08 53.8971 131.661 47.8834C132.262 45.5912 132.492 43.1421 131.244 40.989C129.802 38.5023 126.243 37.292 122.988 36.8583Z" fill="#263238"/>
<path d="M174.872 37.4363C168.593 46.1658 162.922 49.2505 156.739 48.7062C152.539 48.3361 148.115 46.2929 143.099 43.197C141.779 42.3685 140.37 41.6903 138.898 41.175C136.56 40.3457 134.06 40.0709 131.596 40.3723C129.133 40.6737 126.774 41.543 124.704 42.9117L124.694 42.9077C124.556 42.9022 124.42 42.8838 124.286 42.8527C122.489 41.9159 120.986 41.7273 119.78 42.1033L116.59 37.2C126.547 4.42687 142.53 22.0944 142.53 22.0944L149.911 14.2739C172.569 -6.83926 185.394 22.8009 174.872 37.4363Z" fill="#263238"/>
<path d="M156.994 74.1719C160.393 74.1719 163.149 70.9812 163.149 67.0452C163.149 63.1093 160.393 59.9186 156.994 59.9186C153.595 59.9186 150.839 63.1093 150.839 67.0452C150.839 70.9812 153.595 74.1719 156.994 74.1719Z" stroke="black" stroke-width="1.68589" stroke-miterlimit="10"/>
<path d="M142.728 74.1719C146.127 74.1719 148.883 70.9812 148.883 67.0452C148.883 63.1093 146.127 59.9186 142.728 59.9186C139.329 59.9186 136.573 63.1093 136.573 67.0452C136.573 70.9812 139.329 74.1719 142.728 74.1719Z" stroke="black" stroke-width="1.68589" stroke-miterlimit="10"/>
<path d="M151.003 67.4935H148.965" stroke="black" stroke-width="1.68589" stroke-miterlimit="10"/>
<path d="M136.573 67.0452C136.573 67.0452 126.954 62.118 120.595 63.0952" stroke="black" stroke-width="1.68589" stroke-miterlimit="10"/>
<path d="M36.1279 131.442C44.7275 63.899 126.664 83.7058 105.404 150.297L88.9215 213.544" stroke="black" stroke-width="1.68589" stroke-miterlimit="10"/>
<path d="M165.636 159.528C165.636 159.528 156.526 175.556 156.127 189.578" stroke="black" stroke-width="1.68589" stroke-miterlimit="10"/>
<path d="M81.5156 157.457L72.916 166.686" stroke="black" stroke-width="1.68589" stroke-miterlimit="10"/>
<path d="M72.2783 161.275L63.6787 170.504" stroke="black" stroke-width="1.68589" stroke-miterlimit="10"/>
<path d="M349.168 488.4H277.62L338.002 224.66H409.156L349.168 488.4Z" fill="#222831"/>
<path d="M349.168 227.909C354.33 266.689 364.167 339.399 371.341 392.149C388.11 328.234 415.072 227.909 415.072 227.909" fill="black"/>
<path d="M374.672 498.887L442.03 500.027V224.66H343.207C343.207 224.66 344.566 252.833 351.021 275.146C351.538 276.991 352.099 278.806 352.705 280.548C352.705 280.548 358.542 282.099 368.808 288.387L374.672 498.887Z" fill="#222831"/>
<path d="M345.654 247.704L349.166 270.924L359.487 276.263L354.168 249.325L361.316 284.888L349.814 278.869L369.692 289.27" stroke="black" stroke-width="1.68589" stroke-miterlimit="10"/>
<path d="M411.274 248.875L411.606 253.215C411.934 257.479 413.307 261.597 415.605 265.206C417.902 268.814 421.053 271.802 424.78 273.906L428.782 276.167" stroke="black" stroke-width="1.68589" stroke-miterlimit="10"/>
<path d="M334.653 161.426C335.122 148.6 349.975 122.665 351.943 120.428C356.278 115.536 362.027 111.428 368.539 110.522C373.961 109.767 379.911 111.233 386.015 116.315C437.899 152.002 443.456 224.41 443.456 224.41C423.504 229.281 336.755 227.443 336.755 227.443C336.755 227.443 334.256 172.719 334.653 161.426Z" fill="#DDDDDD"/>
<path d="M349.543 142.734C322.771 167.968 298.385 185.329 283.291 181.564C268.197 177.799 246.37 128.267 246.199 103.223C246.199 97.7538 286.344 96.5608 287.281 102.337C289.481 115.865 297.222 139.309 300.667 142.241C304.113 145.172 326.247 130.927 350.567 120.363C374.1 110.089 358.053 134.709 349.543 142.734Z" fill="#FEC5A8"/>
<path d="M249.405 76.2858C245.125 89.1839 245.363 105.915 247.035 110.362C248.707 114.808 280.494 116.343 283.717 112.56C286.939 108.778 299.986 80.0855 297.496 71.771C295.005 63.4566 252.203 67.9197 249.405 76.2858Z" fill="#FEC5A8"/>
<path d="M289.105 70.3391C289.105 70.3391 289.668 80.3404 289.668 83.68C289.668 86.5084 289.259 92.4194 284.449 93.7496C279.64 95.0797 278.72 87.9895 278.635 87.4797C278.635 87.9431 278.02 95.9987 273.058 96.8151C268.096 97.6314 267.942 90.4259 268.028 89.9995C267.925 90.2378 270.5 73.1165 266.868 71.1044C262.759 68.8209 248.909 79.436 248.791 79.4526C248.673 79.4691 256.295 41.0994 262.195 40.3844C269.256 39.5323 264.855 64.8682 264.855 64.8682C264.855 64.8682 267.055 59.2114 270.944 58.4103C272.939 58.0183 275.361 60.8467 275.361 60.8467C275.653 59.8049 276.226 58.8631 277.016 58.124C277.807 57.3849 278.786 56.8769 279.846 56.6552C282.642 56.2467 284.638 59.1591 284.638 59.1591C284.638 59.1591 280.63 32.8525 289.463 35.0672C294.852 36.4304 296.455 64.5094 297.496 71.8525C297.496 71.8558 292.652 67.6305 289.105 70.3391Z" fill="#FEC5A8"/>
<path d="M286.019 108.232C286.019 108.232 311.598 82.8279 296.814 77.6657C292.397 76.1495 272.444 75.1266 272.155 79.1137C271.796 84.2249 280.051 86.2694 285.422 86.6951C285.422 86.6951 275.482 94.1065 278.601 102.557C279.191 104.096 280.197 105.441 281.506 106.443C282.816 107.445 284.378 108.064 286.019 108.232Z" fill="#FEC5A8"/>
<path d="M463.632 132.16C458.806 143.576 454.951 159.557 455.017 165.572C455.017 170.394 491.699 181.435 495.519 178.266C497.905 176.307 509.008 167.856 513.528 157.309C516.291 150.902 513.869 141.75 513.528 138.567C512.49 129.928 467.06 124.033 463.632 132.16Z" fill="#FEC5A8"/>
<path d="M505.498 135.499C505.498 135.499 504.321 145.449 503.792 148.738C503.281 151.532 501.865 157.257 496.971 157.751C492.076 158.246 492.332 151.073 492.332 150.561C492.229 151.004 490.251 158.808 485.204 158.771C480.156 158.734 481.349 151.614 481.452 151.138C481.315 151.359 486.823 134.934 483.601 132.395C479.951 129.448 462.71 135.138 462.594 135.138C462.478 135.138 472.501 100.688 478.436 101.062C485.531 101.454 480.057 125.631 480.057 125.631C480.057 125.631 483.928 120.673 487.884 120.52C489.931 120.52 492.131 124.235 492.131 124.235C492.131 124.235 495.37 120.299 498.952 120.435C501.783 120.52 503.232 123.723 503.232 123.723C503.232 123.723 508.621 98.4563 516.875 102.206C521.991 104.489 515.289 133.386 513.464 141.393C513.394 141.275 509.458 133.506 505.498 135.499Z" fill="#FEC5A8"/>
<path d="M302.433 125.036L309.437 191.752L368.742 179.855C368.742 179.855 370.706 106.182 355.9 111.973L302.433 125.036Z" fill="#DDDDDD"/>
<path d="M409.413 114.367C419.568 114.367 429.308 118.397 436.489 125.572C443.67 132.746 447.704 142.477 447.704 152.623V226.649H371.122V152.623C371.122 142.477 375.156 132.746 382.337 125.572C389.518 118.397 399.258 114.367 409.413 114.367Z" fill="#DDDDDD"/>
<path d="M344.272 117.633C344.272 117.633 380.462 93.9164 427.158 118.643C469.73 147.179 378.827 152.157 378.827 152.157C378.827 152.157 336.8 137.228 344.272 117.633Z" fill="#DDDDDD"/>
<path d="M375.704 113.014C400.734 113.014 421.025 91.9583 421.025 65.9845C421.025 40.0107 400.734 18.9548 375.704 18.9548C350.674 18.9548 330.384 40.0107 330.384 65.9845C330.384 91.9583 350.674 113.014 375.704 113.014Z" fill="#263238"/>
<path d="M397.407 99.8447C397.412 98.1989 398.071 96.6226 399.239 95.4623C400.408 94.302 401.989 93.6528 403.636 93.6575H403.654C404.475 93.6574 405.287 93.8188 406.045 94.1324C406.803 94.4461 407.492 94.9058 408.072 95.4854C408.652 96.0649 409.113 96.7531 409.427 97.5104C409.741 98.2677 409.902 99.0793 409.902 99.899C409.902 101.554 409.244 103.142 408.072 104.312C406.9 105.483 405.311 106.14 403.654 106.14C401.997 106.14 400.409 105.483 399.237 104.312C398.065 103.142 397.407 101.554 397.407 99.899C397.407 99.8811 397.407 99.8632 397.407 99.8447Z" fill="#263238"/>
<path d="M337.426 84.2607H337.444C338.264 84.263 339.076 84.4268 339.833 84.7427C340.59 85.0586 341.278 85.5203 341.856 86.1016C342.434 86.6829 342.893 87.3723 343.204 88.1305C343.516 88.8888 343.675 89.7009 343.673 90.5206C343.671 91.3402 343.507 92.1513 343.19 92.9077C342.874 93.664 342.412 94.3508 341.83 94.9287C341.249 95.5066 340.559 95.9645 339.8 96.276C339.041 96.5875 338.228 96.7466 337.408 96.7442C335.751 96.7393 334.164 96.0769 332.996 94.903C331.828 93.729 331.174 92.1396 331.179 90.4842C331.184 88.832 331.844 87.2491 333.015 86.0825C334.186 84.9159 335.772 84.2608 337.426 84.2607Z" fill="#263238"/>
<path d="M324.931 61.348C324.933 60.5306 325.097 59.7217 325.412 58.9675C325.727 58.2133 326.188 57.5286 326.768 56.9523C327.348 56.376 328.036 55.9195 328.793 55.6089C329.55 55.2983 330.36 55.1398 331.178 55.1422C332.835 55.1422 334.425 55.7999 335.596 56.9706C336.768 58.1412 337.426 59.7288 337.426 61.3843C337.426 63.0397 336.768 64.6273 335.596 65.7978C334.424 66.9683 332.835 67.6258 331.178 67.6258C329.521 67.6258 327.932 66.9683 326.761 65.7978C325.589 64.6273 324.931 63.0397 324.931 61.3843V61.348Z" fill="#263238"/>
<path d="M417.92 49.4782H417.939C418.759 49.4805 419.571 49.6443 420.328 49.9602C421.085 50.2761 421.772 50.7378 422.351 51.3191C422.929 51.9004 423.387 52.5898 423.699 53.348C424.011 54.1063 424.17 54.9184 424.168 55.7381C424.165 56.5578 424.001 57.3691 423.685 58.1255C423.369 58.8819 422.907 59.5687 422.325 60.1467C421.743 60.7246 421.053 61.1824 420.294 61.4938C419.535 61.8052 418.722 61.9643 417.902 61.9617C417.082 61.9594 416.27 61.7955 415.513 61.4797C414.756 61.1639 414.068 60.7022 413.49 60.121C412.911 59.5397 412.453 58.8504 412.142 58.0922C411.83 57.3341 411.671 56.522 411.673 55.7023C411.677 54.05 412.338 52.4668 413.509 51.3C414.68 50.1333 416.266 49.4782 417.92 49.4782Z" fill="#263238"/>
<path d="M403.637 38.9073C403.637 38.0876 403.798 37.2759 404.112 36.5186C404.426 35.7612 404.886 35.0732 405.466 34.4935C406.046 33.9139 406.735 33.4541 407.493 33.1404C408.251 32.8267 409.063 32.6652 409.884 32.6652C411.541 32.6652 413.13 33.3229 414.302 34.4935C415.473 35.6641 416.132 37.2518 416.132 38.9073C416.132 40.5628 415.473 42.1504 414.302 43.3211C413.13 44.4917 411.541 45.1494 409.884 45.1494C409.063 45.1494 408.251 44.988 407.493 44.6743C406.735 44.3606 406.046 43.9007 405.466 43.3211C404.886 42.7414 404.426 42.0533 404.112 41.296C403.798 40.5387 403.637 39.727 403.637 38.9073Z" fill="#263238"/>
<path d="M402.3 25.6292H402.318C403.975 25.6341 405.562 26.2965 406.731 27.4705C407.899 28.6444 408.552 30.2338 408.548 31.8892C408.543 33.5446 407.88 35.1302 406.705 36.2974C405.53 37.4645 403.939 38.1175 402.282 38.1128C400.625 38.1078 399.038 37.4456 397.87 36.2717C396.702 35.0977 396.048 33.5083 396.053 31.8529C396.057 30.2005 396.718 28.6174 397.889 27.4507C399.06 26.2841 400.647 25.629 402.3 25.6292Z" fill="#263238"/>
<path d="M388.54 24.1323C388.54 22.4769 389.198 20.8893 390.37 19.7187C391.541 18.5481 393.13 17.8904 394.787 17.8902C396.444 17.8902 398.033 18.5479 399.205 19.7185C400.377 20.8891 401.035 22.4768 401.035 24.1323C401.035 25.7878 400.377 27.3754 399.205 28.5461C398.033 29.7167 396.444 30.3744 394.787 30.3744C393.13 30.3742 391.541 29.7165 390.37 28.5459C389.198 27.3753 388.54 25.7877 388.54 24.1323Z" fill="#263238"/>
<path d="M384.894 16.7534H384.931C386.588 16.7583 388.175 17.4205 389.343 18.5945C390.511 19.7684 391.165 21.358 391.16 23.0134C391.155 24.6688 390.492 26.2544 389.317 27.4215C388.142 28.5887 386.551 29.2417 384.894 29.2369C383.237 29.2318 381.65 28.5694 380.482 27.3953C379.314 26.2213 378.66 24.6317 378.665 22.9762C378.665 21.3258 379.322 19.743 380.49 18.576C381.658 17.409 383.242 16.7534 384.894 16.7534Z" fill="#263238"/>
<path d="M355.971 16.7534H355.99C357.647 16.7583 359.234 17.4205 360.402 18.5945C361.57 19.7684 362.224 21.358 362.219 23.0134C362.214 24.6687 361.551 26.2543 360.376 27.4214C359.201 28.5885 357.611 29.2415 355.954 29.2369C355.133 29.2345 354.321 29.0707 353.564 28.7547C352.807 28.4388 352.12 27.9769 351.542 27.3955C350.963 26.8142 350.505 26.1247 350.193 25.3664C349.881 24.6082 349.722 23.796 349.725 22.9762C349.73 21.3242 350.39 19.7415 351.561 18.5751C352.732 17.4086 354.318 16.7535 355.971 16.7534Z" fill="#263238"/>
<path d="M342.138 41.4682C345.588 41.4682 348.385 38.6738 348.385 35.2268C348.385 31.7797 345.588 28.9853 342.138 28.9853C338.688 28.9853 335.891 31.7797 335.891 35.2268C335.891 38.6738 338.688 41.4682 342.138 41.4682Z" fill="#263238"/>
<path d="M408.53 83.1225C408.53 81.4671 409.188 79.8797 410.36 78.7092C411.531 77.5387 413.121 76.881 414.777 76.881C415.598 76.8809 416.41 77.0423 417.168 77.3559C417.926 77.6695 418.615 78.1293 419.195 78.7089C419.775 79.2884 420.235 79.9766 420.549 80.7339C420.863 81.4912 421.025 82.3028 421.025 83.1225C421.025 84.778 420.367 86.3658 419.195 87.5364C418.023 88.707 416.434 89.3646 414.777 89.3646C413.12 89.3644 411.531 88.7067 410.36 87.5361C409.188 86.3655 408.53 84.7779 408.53 83.1225Z" fill="#263238"/>
<path d="M387.188 101.955H387.206C388.863 101.961 390.45 102.623 391.618 103.797C392.786 104.971 393.439 106.56 393.435 108.215C393.43 109.871 392.767 111.457 391.592 112.624C390.417 113.791 388.826 114.444 387.169 114.439C385.512 114.434 383.925 113.772 382.757 112.598C381.589 111.424 380.935 109.834 380.939 108.179C380.944 106.527 381.605 104.943 382.776 103.777C383.947 102.61 385.534 101.955 387.188 101.955Z" fill="#263238"/>
<path d="M372.075 108.27C372.075 106.615 372.733 105.027 373.905 103.856C375.077 102.686 376.666 102.028 378.323 102.028C379.143 102.028 379.956 102.19 380.714 102.503C381.472 102.817 382.16 103.277 382.74 103.857C383.321 104.436 383.781 105.124 384.095 105.882C384.409 106.639 384.57 107.451 384.57 108.27C384.57 109.09 384.409 109.902 384.095 110.659C383.781 111.416 383.321 112.104 382.74 112.684C382.16 113.263 381.472 113.723 380.714 114.037C379.956 114.351 379.143 114.512 378.323 114.512C377.502 114.512 376.69 114.351 375.932 114.037C375.174 113.723 374.485 113.264 373.905 112.684C373.325 112.104 372.865 111.416 372.551 110.659C372.237 109.902 372.075 109.09 372.075 108.27Z" fill="#263238"/>
<path d="M411.672 73.9758C411.672 73.1562 411.833 72.3446 412.147 71.5874C412.461 70.8301 412.921 70.1421 413.502 69.5625C414.082 68.9829 414.77 68.5231 415.528 68.2094C416.286 67.8957 417.099 67.7343 417.919 67.7343C418.739 67.7343 419.552 67.8956 420.31 68.2092C421.068 68.5229 421.757 68.9826 422.337 69.5622C422.917 70.1418 423.377 70.8299 423.691 71.5872C424.005 72.3445 424.167 73.1561 424.167 73.9758C424.167 75.6313 423.508 77.2191 422.337 78.3897C421.165 79.5604 419.576 80.2179 417.919 80.2179C416.262 80.2177 414.673 79.56 413.502 78.3894C412.33 77.2188 411.672 75.6312 411.672 73.9758Z" fill="#263238"/>
<path d="M410.463 86.6044C411.966 86.6046 413.408 87.2013 414.472 88.2635C415.535 89.3257 416.132 90.7663 416.132 92.2685C416.132 93.7707 415.535 95.2116 414.472 96.2739C413.409 97.3363 411.967 97.9332 410.463 97.9334C408.959 97.9334 407.517 97.3365 406.454 96.2741C405.39 95.2118 404.793 93.7709 404.793 92.2685C404.798 90.7676 405.397 89.3297 406.459 88.2685C407.521 87.2073 408.961 86.6091 410.463 86.6044Z" fill="#263238"/>
<path d="M375.127 14.2824C376.63 14.2826 378.073 14.8795 379.136 15.9418C380.199 17.0042 380.796 18.445 380.796 19.9473C380.796 21.4496 380.199 22.8903 379.136 23.9526C378.073 25.0149 376.63 25.6118 375.127 25.612C373.623 25.612 372.181 25.0153 371.118 23.9529C370.054 22.8906 369.457 21.4497 369.457 19.9473C369.462 18.4464 370.061 17.0083 371.123 15.947C372.185 14.8857 373.625 14.2873 375.127 14.2824Z" fill="#263238"/>
<path d="M417.919 59.2193C419.423 59.2195 420.865 59.8164 421.928 60.8786C422.991 61.9408 423.588 63.3812 423.588 64.8834C423.588 66.3857 422.991 67.8265 421.928 68.8889C420.865 69.9512 419.423 70.5481 417.919 70.5483C417.175 70.5483 416.437 70.4017 415.749 70.117C415.062 69.8323 414.437 69.4151 413.91 68.889C413.384 68.363 412.966 67.7385 412.681 67.0512C412.396 66.3639 412.25 65.6273 412.25 64.8834C412.255 63.3826 412.853 61.9448 413.916 60.8836C414.978 59.8224 416.417 59.224 417.919 59.2193Z" fill="#263238"/>
<path d="M414.778 41.4682C416.281 41.4682 417.723 42.065 418.786 43.1273C419.85 44.1895 420.447 45.6301 420.447 47.1324C420.447 48.6348 419.85 50.0757 418.787 51.138C417.723 52.2004 416.281 52.7971 414.778 52.7971C414.033 52.7971 413.296 52.6506 412.608 52.3659C411.92 52.0812 411.295 51.6639 410.769 51.1379C410.242 50.6118 409.825 49.9875 409.54 49.3002C409.255 48.6129 409.108 47.8763 409.108 47.1324C409.113 45.6316 409.712 44.1936 410.774 43.1324C411.836 42.0712 413.275 41.4729 414.778 41.4682Z" fill="#263238"/>
<path d="M365.955 14.9677H365.973C367.481 14.9727 368.926 15.5762 369.989 16.6452C371.052 17.7142 371.647 19.1613 371.642 20.6683C371.64 21.4145 371.491 22.153 371.203 22.8415C370.915 23.53 370.494 24.155 369.964 24.681C369.434 25.207 368.806 25.6235 368.115 25.9069C367.424 26.1902 366.684 26.3348 365.937 26.3323C364.429 26.3274 362.984 25.7242 361.921 24.6553C360.858 23.5864 360.263 22.1394 360.268 20.6325C360.272 19.1286 360.874 17.6879 361.94 16.6261C363.006 15.5643 364.449 14.9678 365.955 14.9677Z" fill="#263238"/>
<path d="M395.35 99.0489C396.853 99.0489 398.295 99.6456 399.358 100.708C400.422 101.77 401.019 103.211 401.019 104.713C401.019 106.215 400.422 107.656 399.359 108.719C398.295 109.781 396.853 110.378 395.35 110.378C394.605 110.378 393.868 110.231 393.18 109.947C392.492 109.662 391.867 109.245 391.34 108.719C390.814 108.193 390.396 107.568 390.111 106.881C389.826 106.193 389.68 105.457 389.68 104.713C389.68 103.211 390.277 101.77 391.341 100.708C392.404 99.6456 393.846 99.0489 395.35 99.0489Z" fill="#263238"/>
<path d="M369.457 104.716C370.96 104.716 372.402 105.313 373.465 106.375C374.528 107.437 375.125 108.878 375.125 110.38C375.125 111.882 374.528 113.323 373.464 114.385C372.401 115.447 370.959 116.044 369.455 116.044C367.952 116.044 366.51 115.447 365.447 114.385C364.384 113.323 363.786 111.882 363.786 110.38C363.791 108.879 364.39 107.441 365.453 106.38C366.515 105.318 367.954 104.72 369.457 104.716Z" fill="#263238"/>
<path d="M359.327 102.605C360.831 102.605 362.273 103.202 363.337 104.264C364.4 105.326 364.997 106.767 364.997 108.27C364.997 109.772 364.4 111.213 363.336 112.275C362.273 113.337 360.831 113.934 359.327 113.934C357.824 113.934 356.382 113.337 355.319 112.275C354.256 111.213 353.658 109.772 353.658 108.27C353.658 106.767 354.255 105.327 355.319 104.264C356.382 103.202 357.824 102.605 359.327 102.605Z" fill="#263238"/>
<path d="M351.328 96.9409C352.073 96.9408 352.81 97.0872 353.498 97.3718C354.186 97.6564 354.811 98.0736 355.338 98.5996C355.864 99.1256 356.282 99.7499 356.567 100.437C356.852 101.124 356.998 101.861 356.998 102.605C356.998 103.349 356.852 104.086 356.567 104.773C356.282 105.46 355.864 106.085 355.338 106.611C354.811 107.137 354.186 107.554 353.498 107.839C352.81 108.123 352.073 108.27 351.328 108.27C349.825 108.27 348.383 107.673 347.32 106.61C346.256 105.548 345.659 104.107 345.659 102.605C345.664 101.104 346.263 99.6662 347.325 98.605C348.387 97.5437 349.826 96.9456 351.328 96.9409Z" fill="#263238"/>
<path d="M342.139 93.0081C343.642 93.0083 345.084 93.605 346.147 94.6672C347.21 95.7294 347.808 97.17 347.808 98.6722C347.808 99.416 347.661 100.153 347.377 100.84C347.092 101.527 346.674 102.152 346.148 102.678C345.621 103.204 344.996 103.621 344.308 103.906C343.62 104.19 342.883 104.337 342.139 104.337C340.635 104.337 339.193 103.74 338.129 102.678C337.066 101.615 336.469 100.175 336.469 98.6722C336.474 97.1713 337.073 95.7334 338.135 94.6722C339.197 93.611 340.637 93.0128 342.139 93.0081Z" fill="#263238"/>
<path d="M326.412 82.4551C326.414 81.7137 326.563 80.98 326.849 80.2959C327.135 79.6118 327.554 78.9907 328.08 78.4681C328.606 77.9455 329.231 77.5316 329.917 77.2501C330.604 76.9686 331.339 76.825 332.081 76.8274C333.585 76.8274 335.027 77.4241 336.09 78.4863C337.153 79.5486 337.751 80.9892 337.751 82.4915C337.751 83.2354 337.605 83.972 337.32 84.6593C337.035 85.3465 336.617 85.971 336.091 86.497C335.564 87.0229 334.939 87.4402 334.251 87.7248C333.563 88.0094 332.826 88.1558 332.081 88.1557C330.578 88.1557 329.136 87.5589 328.073 86.4966C327.009 85.4344 326.412 83.9937 326.412 82.4915V82.4551Z" fill="#263238"/>
<path d="M332.081 66.3818C332.826 66.3817 333.563 66.5281 334.251 66.8127C334.939 67.0973 335.564 67.5146 336.091 68.0405C336.617 68.5665 337.035 69.1908 337.32 69.8781C337.605 70.5653 337.751 71.302 337.751 72.0458C337.751 73.5481 337.153 74.9888 336.09 76.051C335.027 77.1132 333.585 77.7099 332.081 77.7099C330.578 77.7097 329.136 77.113 328.073 76.0508C327.01 74.9886 326.412 73.548 326.412 72.0458C326.412 70.5436 327.009 69.1029 328.073 68.0407C329.136 66.9785 330.578 66.3818 332.081 66.3818Z" fill="#263238"/>
<path d="M347.809 32.6659C350.94 32.6659 353.478 30.1297 353.478 27.0011C353.478 23.8725 350.94 21.3363 347.809 21.3363C344.677 21.3363 342.139 23.8725 342.139 27.0011C342.139 30.1297 344.677 32.6659 347.809 32.6659Z" fill="#263238"/>
<path d="M334.663 48.144C337.794 48.144 340.333 45.6078 340.333 42.4792C340.333 39.3507 337.794 36.8145 334.663 36.8145C331.532 36.8145 328.993 39.3507 328.993 42.4792C328.993 45.6078 331.532 48.144 334.663 48.144Z" fill="#263238"/>
<path d="M333.418 45.7798C334.922 45.7798 336.364 46.3765 337.427 47.4389C338.491 48.5012 339.088 49.9421 339.088 51.4445C339.088 52.9468 338.49 54.3874 337.427 55.4496C336.364 56.5119 334.922 57.1086 333.418 57.1086C331.914 57.1086 330.472 56.5119 329.409 55.4496C328.346 54.3874 327.748 52.9468 327.748 51.4445C327.748 49.9421 328.345 48.5012 329.409 47.4389C330.472 46.3765 331.914 45.7798 333.418 45.7798Z" fill="#263238"/>
<path d="M374.223 100.982C374.152 100.333 374.079 99.701 374.024 99.0872C373.97 98.4735 373.916 98.0591 373.826 97.2838C373.736 96.5085 373.627 95.714 373.519 94.9387C373.461 94.6589 373.419 94.3759 373.393 94.0912V93.3509C372.725 88.1734 372.147 84.0249 372.147 84.0249L369.582 85.4682L351.834 96.292L354.939 111.283L355.174 112.347C355.174 112.347 354.884 126.797 357.521 126.959C365.701 127.464 374.277 116.135 374.728 114.331C374.868 109.875 374.7 105.414 374.223 100.982Z" fill="#FEC5A8"/>
<path d="M372.147 84.0242L369.582 85.4675L351.834 96.3091L354.939 111.3C359.142 109.812 362.97 107.428 366.157 104.313C369.343 101.197 371.813 97.4257 373.393 93.2602C372.724 88.0834 372.147 84.0242 372.147 84.0242Z" fill="#263238"/>
<path d="M361.368 41.8292C373.285 43.6334 384.823 53.4103 379.207 79.7129C373.591 106.015 355.698 104.77 350.462 104.21C344.684 103.614 328.991 98.8694 331.865 72.1531C334.718 45.4348 349.451 40.0257 361.368 41.8292Z" fill="#FEC5A8"/>
<path d="M353.82 80.5443C356.547 80.49 356.669 74.6452 353.73 74.6452C351.256 74.7525 351.093 80.5973 353.82 80.5443Z" fill="#263238"/>
<path d="M338.383 79.3876C335.656 79.1532 335.963 73.2548 338.906 73.5071C341.381 73.7236 341.11 79.6226 338.383 79.3876Z" fill="#263238"/>
<path d="M366.982 42.4428C342.174 32.8281 334.265 60.2481 334.265 60.2481C335.167 59.7116 335.941 58.985 336.534 58.119C337.126 57.2529 337.523 56.2682 337.695 55.2335C338.775 55.5542 339.932 55.4903 340.97 55.0526C342.007 54.615 342.86 53.8307 343.383 52.8341C347.157 58.1016 351.905 52.8341 351.905 52.8341C354.578 58.9133 361.132 55.3057 361.132 55.3057C361.112 55.4223 361.095 55.5401 361.083 55.6573C360.95 56.9759 361.346 58.2935 362.185 59.3203C363.023 60.3471 364.236 60.999 365.556 61.1328C366.152 69.0155 371.713 67.3742 371.713 67.3742C369.636 73.0019 373.664 75.402 373.664 75.402C373.664 75.402 371.623 83.3033 376.264 81.3733C381.662 79.154 389.896 51.3909 366.982 42.4428Z" fill="#263238"/>
<path d="M372.869 89.2574C372.888 89.3057 372.907 89.354 372.928 89.4024C373.402 90.5164 374.299 91.3969 375.422 91.8503C376.545 92.3036 377.803 92.2926 378.918 91.8197C383.45 90.2506 388.108 78.1807 384.335 76.017C380.562 73.8533 374.53 82.1141 374.53 82.1141L372.869 89.2574Z" fill="#FEC5A8"/>
<path d="M375.343 89.346C375.235 89.6705 375.741 89.8155 375.885 89.5447C376.305 88.6735 376.82 87.8507 377.419 87.091C377.776 86.6386 378.265 86.3076 378.817 86.1429C379.37 85.9783 379.96 85.9883 380.507 86.1714C380.597 86.1893 380.597 86.0091 380.597 86.0091C380.503 85.9313 380.404 85.8604 380.301 85.7967C380.018 85.6228 379.704 85.5062 379.376 85.4535C379.048 85.4009 378.713 85.4134 378.391 85.4901C378.068 85.5668 377.763 85.7063 377.494 85.9006C377.225 86.095 376.997 86.3404 376.823 86.6229C378.051 83.6283 379.748 80.7595 382.908 79.5506C382.998 79.5334 382.908 79.4426 382.908 79.4426C378.611 79.7491 375.397 85.2689 375.343 89.346Z" fill="#263238"/>
<path d="M505.608 174.318L455.758 156.122C455.758 156.122 447.35 179.468 446.772 179.387C446.193 179.305 439.737 152.288 429.037 135.457C418.336 118.625 415.751 136.89 418.024 150.789C420.298 164.687 431.007 241.646 440.629 248.7C450.252 255.755 459.294 246.926 463.186 243.176C468.551 238.009 505.608 174.318 505.608 174.318Z" fill="#DDDDDD"/>
<path d="M361.005 138.007C361.005 138.007 356.958 152.625 365.674 179.373C374.391 206.122 372.523 228.827 372.523 228.827" stroke="#11141C" stroke-width="1.68589" stroke-miterlimit="10"/>
<path d="M408.948 147.025C408.948 147.025 409.571 196.789 424.202 215.451" stroke="#11141C" stroke-width="1.68589" stroke-miterlimit="10"/>
<path d="M457.511 162.304L498.487 177.234" stroke="#11141C" stroke-width="1.68589" stroke-miterlimit="10"/>
<path d="M280.195 76.1475C279.584 69.63 277.51 63.7002 275.362 60.8493" stroke="#FF8168" stroke-width="1.68589" stroke-miterlimit="10"/>
<path d="M279.868 85.9172H279.863C279.437 88.4442 278.597 90.884 277.379 93.1391C274.278 98.7145 271.659 98.2372 269.884 96.5635C269.053 95.746 268.443 94.7316 268.109 93.615C267.776 92.4983 267.731 91.3157 267.979 90.177C270.883 75.7748 265.938 68.7626 265.938 68.7626" stroke="#FF8168" stroke-width="1.68589" stroke-miterlimit="10"/>
<path d="M298.275 78.9097C298.275 78.9097 275.219 72.5536 272.154 79.1142C269.09 85.6747 285.422 86.6964 285.422 86.6964C285.422 86.6964 274.46 93.8396 279.126 103.637" stroke="#FF8168" stroke-width="1.68589" stroke-miterlimit="10"/>
<path d="M284.638 59.1591C284.638 59.1591 287.885 64.3273 288.352 73.7746" stroke="#FF8168" stroke-width="1.68589" stroke-miterlimit="10"/>
<path d="M480.054 125.634L478.058 135.128" stroke="#FF8168" stroke-width="1.68589" stroke-miterlimit="10"/>
<path d="M503.23 123.726L500.705 142.126" stroke="#FF8168" stroke-width="1.68589" stroke-miterlimit="10"/>
<path d="M351.918 70.5119C353.9 68.5753 355.968 68.7157 358.105 70.5119" stroke="#11141C" stroke-width="1.68589" stroke-miterlimit="10"/>
<path d="M335.107 70.3946C337.037 68.2409 339.029 68.5051 341.062 70.3946" stroke="#11141C" stroke-width="1.68589" stroke-miterlimit="10"/>
<path d="M341.512 88.5145C342.447 90.1788 343.796 91.574 345.428 92.5658C346.332 93.0713 347.368 93.2938 348.4 93.2041C350.678 92.9267 351.011 90.9562 350.872 89.1799C350.773 88.235 350.568 87.3043 350.261 86.4051C347.645 88.0249 344.579 88.7642 341.512 88.5145Z" fill="#263238"/>
<path d="M345.457 92.5964C346.361 93.1019 347.397 93.3242 348.429 93.2345C350.707 92.9571 351.04 90.9835 350.901 89.2111C349.744 89.0752 348.575 89.3362 347.586 89.9513C346.596 90.5664 345.846 91.499 345.457 92.5964Z" fill="#FF9BBC"/>
<path d="M442.569 237.535C443.315 238.28 444.224 238.84 445.225 239.172C446.226 239.504 447.291 239.597 448.334 239.445C449.377 239.294 450.371 238.901 451.236 238.297C452.1 237.694 452.812 236.898 453.314 235.972L455.333 232.247" stroke="#11141C" stroke-width="1.68589" stroke-miterlimit="10"/>
<path d="M341.393 197.722L350.109 204.876" stroke="#11141C" stroke-width="1.68589" stroke-miterlimit="10"/>
<path d="M308.503 128.302L314.34 185.92" stroke="#11141C" stroke-width="1.68589" stroke-miterlimit="10"/>
</g>
</g>
<defs>
<clipPath id="clip0_184_6057">
<rect width="1078" height="337" fill="white"/>
</clipPath>
</defs>
</svg>
