<svg width="651" height="747" viewBox="0 0 651 747" fill="none" xmlns="http://www.w3.org/2000/svg">
<path d="M2 200.779C2 132.984 43.1639 73.9885 89.1707 48.338C178.562 -1.50126 280.018 -3.12281 380.549 6.87509C443.883 9.44012 495.307 25.3433 548.897 50.9936C574.961 63.4688 581.376 72.0267 605.79 99.6378C621.537 125.801 637.435 152.777 644.51 182.431C658.619 241.574 638.884 299.129 593.69 341.826C571.006 363.257 543.033 377.132 514.798 390.676C488.64 403.224 449.066 423.43 422.412 435.144C385.061 451.561 300.085 481.904 231.87 535.181C167.038 585.814 131.603 644.329 126.855 659.328C109.984 686.766 99.9162 713.673 92.5706 745" stroke="#FF9356" stroke-width="3" stroke-linecap="round" stroke-dasharray="6 6"/>
</svg>
