<svg width="120" height="120" viewBox="0 0 120 120" fill="none" xmlns="http://www.w3.org/2000/svg">
<path d="M110.064 64.3355C110.064 78.9307 104.266 92.9281 93.9455 103.249C83.6252 113.569 69.628 119.367 55.0328 119.367C47.8058 119.368 40.6496 117.944 33.9727 115.179C27.2959 112.413 21.2292 108.359 16.1189 103.249C11.0086 98.1391 6.95476 92.0724 4.18908 85.3956C1.42341 78.7187 -1.2709e-09 71.5625 0 64.3355C0.000273707 49.7401 5.79849 35.7425 16.1191 25.4221C26.4398 15.1016 40.4374 9.30371 55.0328 9.30371C69.628 9.30398 83.6252 15.1021 93.9455 25.4226C104.266 35.743 110.064 49.7403 110.064 64.3355Z" fill="#080403"/>
<path d="M58.1644 108.3C82.4458 106.571 100.728 85.4857 98.9992 61.2042C97.2702 36.9227 76.1845 18.6403 51.903 20.3693C27.6215 22.0984 9.33915 43.184 11.0682 67.4655C12.7972 91.747 33.8829 110.029 58.1644 108.3Z" fill="white"/>
<path d="M89.7074 65.4184C90.3059 46.2681 75.2666 30.2586 56.1164 29.6601C36.9661 29.0616 20.9565 44.1008 20.3581 63.2511C19.7596 82.4014 34.7988 98.4109 53.9491 99.0094C73.0994 99.6079 89.1089 84.5687 89.7074 65.4184Z" fill="#080403"/>
<path d="M79.4951 64.3359C79.4951 70.8229 76.9181 77.0441 72.3312 81.6311C67.7442 86.2181 61.5231 88.7949 55.0361 88.7949C51.8241 88.7949 48.6436 88.1624 45.6761 86.9332C42.7086 85.704 40.0121 83.9023 37.7409 81.6311C35.4696 79.3599 33.6681 76.6635 32.4389 73.696C31.2097 70.7285 30.5771 67.548 30.5771 64.3359C30.5788 57.8495 33.1563 51.6292 37.7429 47.0426C42.3295 42.456 48.5497 39.8786 55.0361 39.877C61.5227 39.8783 67.743 42.4556 72.3297 47.0423C76.9163 51.629 79.4938 57.8494 79.4951 64.3359Z" fill="white"/>
<path d="M70.3636 64.3356C70.3633 68.4012 68.7483 72.3002 65.8734 75.175C62.9986 78.0499 59.0995 79.6651 55.0339 79.6653C50.9681 79.6653 47.0689 78.0503 44.1938 75.1754C41.3188 72.3006 39.7034 68.4014 39.7031 64.3356C39.7034 60.2698 41.3188 56.3706 44.1938 53.4958C47.0689 50.6209 50.9681 49.0059 55.0339 49.0059C59.0995 49.0061 62.9986 50.6213 65.8734 53.4962C68.7483 56.371 70.3633 60.27 70.3636 64.3356Z" fill="#080403"/>
<path d="M60.7559 64.3359C60.7559 65.8539 60.1528 67.3098 59.0794 68.3832C58.006 69.4566 56.5501 70.0596 55.0321 70.0596C53.514 70.0596 52.0582 69.4567 50.9847 68.3833C49.9111 67.3099 49.3079 65.854 49.3076 64.3359C49.3076 63.5842 49.4556 62.8399 49.7433 62.1454C50.031 61.4509 50.4528 60.8198 50.9844 60.2883C51.516 59.7568 52.1471 59.3353 52.8416 59.0477C53.5361 58.7601 54.2804 58.6122 55.0321 58.6123C56.5501 58.6123 58.006 59.2153 59.0794 60.2887C60.1528 61.3621 60.7559 62.8179 60.7559 64.3359Z" fill="white"/>
<path d="M99.619 23.0575H106.37L120.002 9.55444H110.574L110.32 0L96.5619 13.503L96.9449 20.7632L55.0342 61.7461V65.0951H58.6639" fill="#FF9356"/>
</svg>
