<svg width="618" height="565" viewBox="0 0 618 565" fill="none" xmlns="http://www.w3.org/2000/svg">
<path d="M155.56 458.113C110.446 421.953 77.6924 373.928 67.8044 322.513C58.5344 271.098 72.7484 216.293 103.03 171.658C132.694 126.458 179.662 91.4283 230.956 78.4333C282.25 65.4383 338.488 73.9132 397.816 88.0382C457.144 102.163 518.944 122.503 555.406 163.748C591.25 204.993 601.756 267.708 583.216 318.558C564.676 369.973 516.472 409.523 467.032 445.118C417.592 480.148 366.916 511.223 312.532 514.613C258.148 518.003 201.292 493.708 155.56 458.113Z" fill="url(#paint0_linear_173_9383)"/>
<path d="M272.318 93.999H221.189C219.822 93.999 218.714 95.1071 218.714 96.474V147.603C218.714 148.97 219.822 150.078 221.189 150.078H272.318C273.685 150.078 274.793 148.97 274.793 147.603V96.474C274.793 95.1071 273.685 93.999 272.318 93.999Z" fill="#F0F0F0"/>
<path d="M263.138 107.841H263.075C261.176 107.841 259.637 107.958 259.637 108.111C260.642 108.362 261.681 108.453 262.715 108.381C262.544 108.561 262.292 108.822 261.977 109.173L259.277 112.233L250.277 122.565L246.488 120C245.813 119.559 245.147 119.1 244.526 118.695L244.319 118.569L244.166 118.749C240.161 123.429 236.615 127.614 234.086 130.638L231.125 134.238C230.743 134.657 230.4 135.108 230.099 135.588C230.519 135.22 230.913 134.823 231.278 134.4L234.365 130.926C236.93 128.001 240.467 123.924 244.418 119.325L246.218 120.504L250.205 123.15L250.403 123.285L250.556 123.105L259.556 112.476L262.157 109.317C262.499 108.903 262.733 108.597 262.877 108.417H262.922C262.845 109.459 262.933 110.507 263.183 111.522C263.336 111.522 263.453 110.019 263.462 108.147V107.877L263.138 107.841Z" fill="#E0E0E0"/>
<path d="M405.221 131.43H432.653C432.653 136.829 431.061 142.108 428.074 146.606C425.087 151.104 420.84 154.621 415.863 156.715C410.887 158.81 405.403 159.39 400.099 158.382C394.795 157.373 389.906 154.823 386.045 151.048C382.184 147.274 379.523 142.445 378.395 137.165C377.266 131.885 377.721 126.389 379.702 121.366C381.684 116.344 385.103 112.018 389.532 108.93C393.961 105.842 399.202 104.129 404.6 104.007L405.221 131.43Z" fill="#F0F0F0"/>
<path d="M412.61 124.743L411.998 97.311C419.326 97.308 426.382 100.084 431.744 105.078C436.877 110.189 439.845 117.079 440.033 124.32L412.61 124.743Z" fill="#EBEBEB"/>
<path d="M421.052 245.803C420.873 251.778 421.21 270 421.21 270L426.477 264.666H456.125C456.623 264.663 457.1 264.46 457.452 264.102C457.803 263.745 458 263.26 458 262.756V245.899C458 245.395 457.803 244.912 457.451 244.556C457.099 244.2 456.622 244 456.125 244H422.938C422.455 243.997 421.989 244.182 421.638 244.518C421.287 244.854 421.077 245.314 421.052 245.803Z" fill="#EBEBEB"/>
<path d="M429.332 251.544C429.33 251.779 429.259 252.007 429.127 252.202C428.996 252.396 428.81 252.547 428.592 252.635C428.375 252.724 428.137 252.746 427.907 252.699C427.677 252.652 427.466 252.538 427.301 252.372C427.136 252.205 427.023 251.994 426.978 251.763C426.933 251.533 426.957 251.295 427.047 251.078C427.138 250.862 427.29 250.677 427.485 250.547C427.68 250.416 427.909 250.347 428.144 250.347C428.301 250.347 428.456 250.378 428.601 250.438C428.745 250.499 428.877 250.587 428.987 250.698C429.098 250.809 429.185 250.941 429.244 251.087C429.303 251.232 429.333 251.387 429.332 251.544Z" fill="#E0E0E0"/>
<path d="M433.346 251.544C433.346 251.781 433.275 252.013 433.143 252.21C433.011 252.407 432.824 252.56 432.605 252.651C432.385 252.741 432.144 252.764 431.912 252.717C431.679 252.67 431.466 252.555 431.299 252.387C431.132 252.219 431.019 252.005 430.974 251.772C430.928 251.539 430.953 251.298 431.045 251.08C431.137 250.861 431.292 250.675 431.49 250.544C431.688 250.414 431.921 250.345 432.158 250.347C432.314 250.347 432.47 250.378 432.614 250.438C432.759 250.499 432.89 250.587 433.001 250.698C433.111 250.809 433.199 250.941 433.258 251.087C433.317 251.232 433.347 251.387 433.346 251.544Z" fill="#E0E0E0"/>
<path d="M437.36 251.544C437.36 251.781 437.29 252.012 437.158 252.209C437.027 252.406 436.84 252.559 436.621 252.65C436.402 252.74 436.161 252.764 435.929 252.718C435.697 252.672 435.484 252.558 435.316 252.39C435.149 252.223 435.035 252.01 434.989 251.778C434.943 251.545 434.966 251.305 435.057 251.086C435.148 250.867 435.301 250.68 435.498 250.549C435.695 250.417 435.926 250.347 436.163 250.347C436.48 250.347 436.785 250.473 437.009 250.698C437.234 250.922 437.36 251.227 437.36 251.544Z" fill="#E0E0E0"/>
<path d="M516.659 457.59C516.659 457.716 432.635 457.824 329.009 457.824C225.383 457.824 141.341 457.716 141.341 457.59C141.341 457.464 225.347 457.356 329.009 457.356C432.671 457.356 516.659 457.5 516.659 457.59Z" fill="#263238"/>
<path d="M445.415 231.249C445.597 231.226 445.778 231.19 445.955 231.141C446.207 231.053 446.436 230.911 446.625 230.724C446.815 230.538 446.961 230.311 447.053 230.061C447.162 229.678 447.196 229.278 447.152 228.882C447.152 228.441 447.152 227.982 447.152 227.433C447.152 226.38 447.152 225.174 447.152 223.833C447.152 218.37 447.107 210.486 447.071 200.766C447.071 195.888 447.071 190.56 447.071 184.836C447.071 181.965 447.071 179.004 447.071 175.953C447.071 174.432 447.071 172.884 447.071 171.318C447.071 170.553 447.071 169.707 447.071 168.987C447.012 168.636 446.836 168.316 446.571 168.079C446.306 167.842 445.968 167.702 445.613 167.682H403.637C403.229 167.682 402.838 167.841 402.545 168.125C402.253 168.409 402.083 168.796 402.071 169.203C402.071 170.103 402.071 171.003 402.071 171.957V188.112C402.071 195.123 402.071 201.882 402.071 208.326C402.071 214.77 402.071 220.926 402.071 226.605V228.738C402.044 229.076 402.044 229.417 402.071 229.755C402.123 230.061 402.268 230.344 402.485 230.565C402.699 230.791 402.974 230.951 403.277 231.024C403.599 231.072 403.924 231.087 404.249 231.069H413.906L436.973 231.15L443.273 231.195H444.902H445.46C445.46 231.195 445.271 231.195 444.902 231.195H443.273L436.973 231.24L413.906 231.312H406.265H404.249C403.894 231.333 403.538 231.315 403.187 231.258C402.814 231.174 402.476 230.98 402.215 230.7C401.945 230.423 401.763 230.072 401.693 229.692C401.667 229.332 401.667 228.972 401.693 228.612V226.479C401.693 220.755 401.693 214.635 401.693 208.2C401.693 201.765 401.693 194.997 401.693 187.986C401.693 184.488 401.693 180.924 401.693 177.294V171.831C401.693 170.931 401.693 170.031 401.693 169.059C401.709 168.531 401.931 168.029 402.311 167.661C402.69 167.293 403.198 167.088 403.727 167.088H445.64C446.09 167.116 446.518 167.296 446.853 167.599C447.188 167.901 447.411 168.308 447.485 168.753C447.548 169.653 447.485 170.355 447.485 171.156V175.791C447.485 178.842 447.485 181.803 447.485 184.674C447.485 190.398 447.485 195.726 447.485 200.604C447.485 210.324 447.431 218.208 447.413 223.671C447.413 225.03 447.413 226.236 447.413 227.271C447.413 227.793 447.413 228.279 447.413 228.72C447.448 229.126 447.405 229.536 447.287 229.926C447.189 230.188 447.032 230.424 446.827 230.614C446.623 230.805 446.376 230.945 446.108 231.024C445.902 231.161 445.662 231.239 445.415 231.249Z" fill="#263238"/>
<path d="M427.487 180.039C421.367 178.68 414.644 182.001 412.925 188.31C411.269 194.367 415.274 201.441 421.349 203.088C424.345 203.806 427.501 203.401 430.219 201.95C432.937 200.499 435.029 198.102 436.1 195.213C438.278 188.742 434.129 181.767 427.865 179.706C427.145 179.463 426.857 180.606 427.559 180.84C432.896 182.793 436.73 188.553 435.128 194.34C433.616 199.83 427.181 203.502 421.691 202.044C416.408 200.64 412.997 194.97 413.672 189.687C414.491 183.216 421.34 179.346 427.433 180.399C427.658 180.399 427.757 180.102 427.532 180.057L427.487 180.039Z" fill="#263238"/>
<path d="M421.403 202.899C424.506 203.815 427.844 203.48 430.703 201.967C433.563 200.453 435.716 197.88 436.703 194.799C438.611 188.229 434.354 181.119 427.955 179.166C426.479 178.716 425.948 180.894 427.325 181.434C432.725 183.558 436.325 189.435 434.201 195.204C432.293 200.334 426.677 202.809 421.466 202.224C421.052 202.17 420.998 202.818 421.376 202.926L421.403 202.899Z" fill="#FF9356"/>
<path d="M437 213.663C437 213.789 431.438 213.897 424.562 213.897C417.686 213.897 412.124 213.789 412.124 213.663C412.124 213.537 417.695 213.429 424.562 213.429C431.429 213.429 437 213.537 437 213.663Z" fill="#FF9356"/>
<path d="M437 217.434C437 217.569 431.438 217.668 424.562 217.668C417.686 217.668 412.124 217.569 412.124 217.434C412.124 217.299 417.695 217.2 424.562 217.2C431.429 217.2 437 217.308 437 217.434Z" fill="#FF9356"/>
<path d="M267.44 128.28V211.494C267.442 212.381 267.796 213.231 268.423 213.859C269.051 214.486 269.901 214.84 270.788 214.842H381.632C382.519 214.84 383.369 214.486 383.997 213.859C384.624 213.231 384.978 212.381 384.98 211.494V125.4C384.98 124.953 384.891 124.51 384.717 124.098C384.543 123.685 384.288 123.312 383.968 123C383.647 122.688 383.267 122.443 382.851 122.281C382.434 122.118 381.989 122.04 381.542 122.052L270.698 124.932C269.826 124.958 268.999 125.321 268.391 125.946C267.783 126.571 267.442 127.408 267.44 128.28Z" fill="#E0E0E0"/>
<path d="M375.08 142.842C375.08 142.932 373.667 142.131 370.985 141.285C367.182 140.099 363.16 139.792 359.222 140.385C356.531 140.811 353.924 141.661 351.5 142.905C348.732 144.393 346.169 146.236 343.877 148.386C341.375 150.6 338.891 153.102 336.029 155.415C333.11 157.904 329.696 159.745 326.012 160.815C324.103 161.308 322.116 161.427 320.162 161.166C318.288 160.883 316.467 160.319 314.762 159.492C311.639 157.863 308.611 156.06 305.69 154.092C303.073 152.356 300.187 151.063 297.149 150.267C294.5 149.624 291.765 149.415 289.049 149.646C285.085 149.976 281.25 151.207 277.835 153.246C275.432 154.722 274.298 155.82 274.235 155.748C274.477 155.454 274.748 155.186 275.045 154.947C275.86 154.215 276.733 153.55 277.655 152.958C280.538 151.096 283.766 149.833 287.148 149.242C290.529 148.652 293.994 148.746 297.338 149.52C300.461 150.3 303.43 151.599 306.122 153.363C309.025 155.292 312.029 157.065 315.122 158.673C318.422 160.354 322.215 160.798 325.814 159.924C329.377 158.875 332.68 157.087 335.507 154.677C338.333 152.418 340.826 149.925 343.364 147.711C345.722 145.536 348.354 143.678 351.194 142.185C353.696 140.972 356.376 140.167 359.132 139.8C363.152 139.238 367.247 139.636 371.084 140.961C372.121 141.314 373.129 141.747 374.099 142.257C374.445 142.418 374.774 142.614 375.08 142.842Z" fill="#455A64"/>
<path d="M304.466 162.39H293.621V191.712H304.466V162.39Z" fill="#455A64"/>
<path d="M350.474 162.39H339.629V191.712H350.474V162.39Z" fill="#455A64"/>
<path d="M365.801 145.173H354.956V191.712H365.801V145.173Z" fill="#455A64"/>
<path d="M290.435 182.478H279.59V192.342H290.435V182.478Z" fill="#455A64"/>
<path d="M319.802 175.629H308.957V191.712H319.802V175.629Z" fill="#455A64"/>
<path d="M335.138 171.939H324.293V191.712H335.138V171.939Z" fill="#455A64"/>
<path d="M304.898 195.168C304.898 195.411 302.279 195.6 299.039 195.6C295.799 195.6 293.18 195.411 293.18 195.168C293.18 194.925 295.808 194.736 299.039 194.736C302.27 194.736 304.898 194.925 304.898 195.168Z" fill="#263238"/>
<path d="M291.407 195.168C291.407 195.411 288.779 195.6 285.548 195.6C282.317 195.6 279.689 195.411 279.689 195.168C279.689 194.925 282.317 194.736 285.548 194.736C288.779 194.736 291.407 194.925 291.407 195.168Z" fill="#263238"/>
<path d="M367.943 195.168C367.943 195.411 364.973 195.6 361.319 195.6C357.665 195.6 354.695 195.411 354.695 195.168C354.695 194.925 357.656 194.736 361.319 194.736C364.982 194.736 367.943 194.925 367.943 195.168Z" fill="#263238"/>
<path d="M345.209 195.6C348.867 195.6 351.833 195.407 351.833 195.168C351.833 194.929 348.867 194.736 345.209 194.736C341.551 194.736 338.585 194.929 338.585 195.168C338.585 195.407 341.551 195.6 345.209 195.6Z" fill="#263238"/>
<path d="M335.129 195.168C335.129 195.411 332.51 195.6 329.27 195.6C326.03 195.6 323.42 195.411 323.42 195.168C323.42 194.925 326.039 194.736 329.27 194.736C332.501 194.736 335.129 194.925 335.129 195.168Z" fill="#263238"/>
<path d="M319.289 195.168C319.289 195.411 316.661 195.6 313.43 195.6C310.199 195.6 307.571 195.411 307.571 195.168C307.571 194.925 310.19 194.736 313.43 194.736C316.67 194.736 319.289 194.925 319.289 195.168Z" fill="#263238"/>
<path d="M354.632 231.717H354.812C354.997 231.733 355.177 231.785 355.343 231.87C355.619 232.011 355.846 232.235 355.991 232.509C356.165 232.898 356.23 233.328 356.18 233.751C356.18 235.659 356.18 238.458 356.225 242.049C356.27 245.64 356.225 250.068 356.27 255.189C356.27 257.757 356.27 260.493 356.27 263.397V266.7C356.321 267.109 356.246 267.524 356.054 267.888C355.84 268.264 355.488 268.542 355.073 268.662C354.672 268.734 354.264 268.758 353.858 268.734H351.5L351.662 268.572C351.662 271.164 351.662 273.972 351.662 276.87V277.347L351.347 276.987L343.994 268.698L344.138 268.761H268.34H263.039C262.742 268.761 262.481 268.761 262.139 268.761C261.81 268.72 261.498 268.59 261.239 268.383C260.979 268.167 260.783 267.884 260.672 267.564C260.622 267.4 260.595 267.231 260.591 267.06V247.89C260.591 243.435 260.591 239.052 260.591 234.768V233.148C260.601 232.847 260.69 232.553 260.848 232.296C261.005 232.039 261.227 231.827 261.491 231.681C261.771 231.545 262.08 231.48 262.391 231.492H270.977L314.51 231.546L343.85 231.618L351.833 231.663H343.85L314.51 231.735L270.977 231.789H262.4C262.17 231.773 261.939 231.819 261.734 231.924C261.532 232.028 261.36 232.183 261.237 232.374C261.114 232.566 261.043 232.786 261.032 233.013V247.89C261.032 252.348 261.032 256.881 261.032 261.489V266.7C261.009 266.969 261.03 267.239 261.095 267.501C261.168 267.735 261.309 267.942 261.5 268.095C261.693 268.252 261.927 268.349 262.175 268.374H268.331H344.129H344.219L344.273 268.437L351.608 276.753L351.293 276.87C351.293 273.963 351.293 271.164 351.293 268.572V268.401H353.849C354.224 268.428 354.602 268.413 354.974 268.356C355.307 268.257 355.59 268.035 355.766 267.735C355.946 267.421 356.028 267.061 356 266.7C356 266.322 356 265.944 356 265.575V263.361C356 260.454 356 257.718 356 255.153C356 250.032 356 245.622 356 242.013C356 238.404 356 235.623 356 233.715C356.058 233.307 356.005 232.89 355.847 232.509C355.712 232.244 355.502 232.025 355.244 231.879C355.05 231.791 354.843 231.736 354.632 231.717Z" fill="#263238"/>
<path d="M265.631 262.083C266.387 259.446 267.269 256.755 269.024 254.649C270.779 252.543 273.632 251.13 276.287 251.814C280.49 252.894 282.515 258.492 286.808 259.014C289.184 259.338 291.497 257.916 293.027 256.071C294.557 254.226 295.502 251.985 296.672 249.897C298.472 246.756 300.839 243.849 304.07 242.274C307.301 240.699 311.459 240.69 314.285 242.913C319.127 246.729 318.452 255.153 323.609 258.519C324.863 259.308 326.323 259.706 327.804 259.662C329.285 259.619 330.719 259.137 331.925 258.276C334.22 256.575 335.39 253.641 337.802 252.12C340.592 250.32 344.462 251.049 346.991 253.173C349.52 255.297 350.834 258.573 351.311 261.831" fill="#FF9356"/>
<path d="M349.574 246.945C349.501 246.929 349.431 246.902 349.367 246.864L348.773 246.585C347.996 246.255 347.196 245.984 346.379 245.775C343.342 245.123 340.192 245.216 337.199 246.045C335.134 246.605 333.124 247.352 331.196 248.277C329.099 249.249 326.93 250.437 324.617 251.634C322.205 252.938 319.696 254.052 317.111 254.964C314.315 255.953 311.349 256.367 308.39 256.179C305.446 255.901 302.562 255.172 299.84 254.019C297.185 252.957 294.746 251.706 292.424 250.536C287.798 248.16 283.424 246.261 279.572 245.685C276.517 245.128 273.37 245.357 270.428 246.351C269.361 246.752 268.337 247.255 267.368 247.854C267.421 247.798 267.482 247.75 267.548 247.71L268.088 247.323C268.802 246.865 269.562 246.482 270.356 246.18C273.321 245.104 276.516 244.818 279.626 245.352C283.577 245.901 287.969 247.791 292.613 250.149C294.944 251.31 297.383 252.552 300.011 253.596C302.691 254.726 305.529 255.439 308.426 255.711C311.324 255.896 314.229 255.492 316.967 254.523C319.529 253.63 322.018 252.538 324.41 251.256C326.732 250.059 328.91 248.889 331.034 247.926C332.989 247.004 335.026 246.266 337.118 245.721C340.161 244.904 343.361 244.864 346.424 245.604C347.541 245.873 348.606 246.326 349.574 246.945Z" fill="#263238"/>
<path d="M309.416 241.203C309.425 241.392 309.377 241.579 309.279 241.74C309.181 241.901 309.036 242.029 308.865 242.107C308.693 242.186 308.502 242.211 308.316 242.18C308.129 242.149 307.957 242.063 307.82 241.932C307.683 241.802 307.589 241.634 307.549 241.45C307.508 241.265 307.524 241.073 307.594 240.898C307.664 240.722 307.785 240.572 307.941 240.466C308.098 240.36 308.282 240.303 308.471 240.303C308.713 240.305 308.946 240.399 309.121 240.566C309.297 240.733 309.402 240.961 309.416 241.203Z" fill="#455A64"/>
<path d="M275.504 245.208C275.504 245.395 275.448 245.578 275.345 245.733C275.241 245.888 275.093 246.01 274.92 246.081C274.748 246.153 274.558 246.171 274.374 246.135C274.191 246.098 274.023 246.008 273.891 245.876C273.758 245.744 273.668 245.576 273.632 245.392C273.595 245.209 273.614 245.019 273.686 244.846C273.757 244.674 273.878 244.526 274.034 244.422C274.189 244.318 274.372 244.263 274.559 244.263C274.685 244.257 274.81 244.277 274.928 244.322C275.045 244.367 275.152 244.436 275.241 244.525C275.33 244.614 275.4 244.721 275.445 244.839C275.49 244.956 275.51 245.082 275.504 245.208Z" fill="#455A64"/>
<path d="M342.986 245.217C342.986 245.406 342.93 245.59 342.825 245.747C342.72 245.904 342.571 246.026 342.397 246.098C342.222 246.171 342.031 246.189 341.846 246.153C341.66 246.116 341.49 246.025 341.357 245.892C341.224 245.758 341.133 245.588 341.096 245.403C341.059 245.218 341.078 245.026 341.15 244.852C341.222 244.678 341.345 244.529 341.502 244.424C341.658 244.319 341.843 244.263 342.032 244.263C342.285 244.263 342.527 244.364 342.706 244.542C342.885 244.721 342.986 244.964 342.986 245.217Z" fill="#455A64"/>
<path d="M406.904 378.669H415.337C419.27 378.669 427.703 368.328 381.947 369.507C351.869 370.281 349.889 374.727 351.41 377.319C351.778 377.908 352.301 378.383 352.922 378.693C353.543 379.003 354.238 379.134 354.929 379.074C355.667 379.02 356.639 379.011 357.791 379.02L357.071 382.188L340.331 456.186L343.247 455.934L355.613 415.2L379.202 414.3L380.552 457.608H384.251L385.151 414.075H385.268L387.761 413.985L408.668 413.175L421.061 457.617H424.607L406.904 378.669ZM357.404 409.395L365.657 382.188L366.557 379.11C370.013 379.11 374.054 379.029 378.104 379.029L379.004 408.729L357.404 409.395ZM388.508 408.423H387.608L385.313 408.495L385.925 378.642H399.101L407.201 407.811L388.508 408.423Z" fill="#DDDDDD"/>
<path d="M331.529 452.505V442.938L348.674 442.83L348.809 457.131L347.747 457.212C343.022 457.518 323.69 458.112 320.522 457.122C316.994 456.033 331.529 452.505 331.529 452.505Z" fill="#FF9356"/>
<path d="M320.117 456.249C320.117 456.411 326.525 456.546 334.436 456.546C342.347 456.546 348.755 456.411 348.755 456.249C348.755 456.087 342.347 455.961 334.436 455.961C326.525 455.961 320.117 456.087 320.117 456.249Z" fill="#263238"/>
<path d="M331.232 454.458C331.376 454.386 331.232 453.882 330.881 453.378C330.53 452.874 330.071 452.613 329.981 452.73C329.891 452.847 330.098 453.261 330.44 453.729C330.782 454.197 331.088 454.539 331.232 454.458Z" fill="#263238"/>
<path d="M330.134 455.088C330.287 455.034 330.206 454.467 329.873 453.873C329.54 453.279 329.09 452.91 328.973 452.973C328.856 453.036 329.063 453.567 329.378 454.116C329.693 454.665 329.981 455.151 330.134 455.088Z" fill="#263238"/>
<path d="M343.589 456.186C343.661 456.186 343.913 455.979 344.282 455.556C344.737 455.011 345.24 454.508 345.785 454.053C346.323 453.627 346.961 453.348 347.639 453.243C348.161 453.171 348.539 453.243 348.539 453.171C348.539 453.099 348.251 452.874 347.639 452.829C346.841 452.823 346.065 453.094 345.443 453.594C344.845 454.072 344.341 454.658 343.958 455.322C343.661 455.808 343.526 456.141 343.589 456.186Z" fill="#263238"/>
<path d="M331.178 452.658C331.097 452.793 331.385 453.126 331.88 453.306C332.375 453.486 332.78 453.423 332.834 453.306C332.888 453.189 332.51 452.955 332.078 452.793C331.646 452.631 331.259 452.523 331.178 452.658Z" fill="#263238"/>
<path d="M331.448 451.74C331.448 451.893 331.889 452.037 332.465 452.037C333.041 452.037 333.509 451.92 333.5 451.767C333.491 451.614 333.032 451.47 332.474 451.461C331.916 451.452 331.466 451.578 331.448 451.74Z" fill="#263238"/>
<path d="M367.7 452.505V442.938L384.845 442.83L384.98 457.131L383.918 457.212C379.193 457.518 359.861 458.112 356.693 457.122C353.174 456.033 367.7 452.505 367.7 452.505Z" fill="#FF9356"/>
<path d="M356.297 456.249C356.297 456.411 362.714 456.546 370.616 456.546C378.518 456.546 384.935 456.411 384.935 456.249C384.935 456.087 378.527 455.961 370.616 455.961C362.705 455.961 356.297 456.087 356.297 456.249Z" fill="#263238"/>
<path d="M367.412 454.458C367.556 454.386 367.412 453.882 367.061 453.378C366.71 452.874 366.251 452.613 366.161 452.73C366.071 452.847 366.287 453.261 366.62 453.729C366.953 454.197 367.268 454.539 367.412 454.458Z" fill="#263238"/>
<path d="M366.314 455.088C366.467 455.034 366.386 454.467 366.053 453.873C365.72 453.279 365.27 452.91 365.153 452.973C365.036 453.036 365.243 453.567 365.558 454.116C365.873 454.665 366.17 455.151 366.314 455.088Z" fill="#263238"/>
<path d="M379.769 456.186C379.841 456.186 380.093 455.979 380.462 455.556C380.917 455.011 381.42 454.508 381.965 454.053C382.503 453.627 383.141 453.348 383.819 453.243C384.341 453.171 384.719 453.243 384.719 453.171C384.719 453.099 384.422 452.874 383.819 452.829C383.021 452.823 382.245 453.094 381.623 453.594C381.025 454.072 380.521 454.658 380.138 455.322C379.841 455.808 379.706 456.141 379.769 456.186Z" fill="#263238"/>
<path d="M367.358 452.658C367.277 452.793 367.574 453.126 368.06 453.306C368.546 453.486 368.96 453.423 369.014 453.306C369.068 453.189 368.69 452.955 368.258 452.793C367.826 452.631 367.448 452.523 367.358 452.658Z" fill="#263238"/>
<path d="M367.628 451.74C367.628 451.893 368.069 452.037 368.645 452.037C369.221 452.037 369.689 451.92 369.68 451.767C369.671 451.614 369.212 451.47 368.654 451.461C368.096 451.452 367.646 451.578 367.628 451.74Z" fill="#263238"/>
<path d="M416.822 280.902C416.12 280.74 415.247 280.83 414.824 280.245C414.401 279.66 414.707 278.976 414.932 278.355C415.685 276.363 415.707 274.169 414.995 272.163C414.485 270.84 413.584 269.704 412.412 268.905C412.584 268.74 412.732 268.552 412.853 268.347C413.185 267.747 413.353 267.07 413.339 266.385C413.361 265.775 413.255 265.168 413.027 264.602C412.799 264.036 412.455 263.524 412.016 263.1C411.63 262.75 411.128 262.557 410.607 262.557C410.087 262.557 409.585 262.75 409.199 263.1C409.056 263.235 408.942 263.397 408.864 263.577C408.786 263.758 408.746 263.952 408.746 264.149C408.746 264.345 408.786 264.539 408.864 264.72C408.942 264.9 409.056 265.062 409.199 265.197C409.388 265.351 409.616 265.449 409.858 265.479C410.1 265.51 410.346 265.471 410.567 265.368C410.864 265.215 410.909 265.026 410.909 265.026C410.797 265.132 410.67 265.22 410.531 265.287C410.326 265.359 410.107 265.376 409.893 265.336C409.68 265.297 409.481 265.202 409.316 265.062C409.198 264.94 409.107 264.795 409.048 264.636C408.989 264.477 408.964 264.308 408.974 264.138C408.985 263.969 409.03 263.804 409.107 263.653C409.184 263.502 409.292 263.369 409.424 263.262C409.768 262.975 410.207 262.828 410.655 262.848C411.103 262.868 411.527 263.054 411.845 263.37C412.232 263.769 412.533 264.243 412.728 264.764C412.923 265.284 413.008 265.839 412.979 266.394C412.991 267.009 412.836 267.616 412.529 268.149C412.408 268.349 412.259 268.53 412.088 268.689C411.607 268.399 411.085 268.184 410.54 268.05C409.379 267.771 408.119 267.843 407.057 267.294C406.171 266.788 405.497 265.979 405.158 265.017C405.158 264.918 405.158 264.81 405.158 264.702C405.285 263.137 405.498 261.581 405.797 260.04C405.997 258.543 405.957 257.024 405.68 255.54C405.473 254.274 404.978 253.072 404.234 252.026C403.489 250.981 402.516 250.12 401.387 249.51C400.612 249.128 399.763 248.922 398.899 248.907C398.036 248.891 397.18 249.067 396.392 249.42C395.97 249.613 395.581 249.871 395.24 250.185L395.051 250.383C394.519 250.647 394.05 251.021 393.674 251.481L390.902 276.483L411.233 288.912C412.816 288.859 414.38 288.555 415.868 288.012C416.609 287.729 417.275 287.278 417.812 286.694C418.35 286.11 418.744 285.409 418.964 284.646C419.152 283.866 419.035 283.044 418.637 282.348C418.239 281.652 417.589 281.135 416.822 280.902ZM403.475 254.721C403.12 253.734 402.572 252.828 401.862 252.055C401.153 251.283 400.297 250.659 399.344 250.221C398.017 249.701 396.539 249.727 395.231 250.293C395.595 250.013 395.994 249.783 396.419 249.609C397.184 249.299 398.007 249.158 398.832 249.196C399.657 249.233 400.464 249.448 401.198 249.825C402.263 250.428 403.177 251.264 403.872 252.271C404.567 253.278 405.025 254.43 405.212 255.639C405.464 257.072 405.494 258.535 405.302 259.977C405.185 261.102 404.87 262.236 404.726 263.442C404.614 262.588 404.548 261.729 404.528 260.868C404.524 258.775 404.168 256.697 403.475 254.721Z" fill="#263238"/>
<path d="M397.454 254.685C397.332 254.206 397.053 253.781 396.662 253.479C395.893 253.131 395.02 253.092 394.223 253.371L394.178 247.629L383 238.539L376.979 241.662C375.437 242.464 374.146 243.677 373.25 245.167C372.354 246.657 371.888 248.366 371.903 250.104C371.948 254.73 372.065 261.003 372.371 264.567C372.893 270.687 379.085 271.191 379.085 271.191C379.085 271.191 379.355 273.396 379.535 275.583C379.535 275.583 378.176 293.7 384.548 293.538C389.246 293.421 392.405 283.548 393.737 278.355L394.448 275.502V275.349V275.232L394.313 258.051L394.502 258.249C394.705 258.421 394.954 258.53 395.218 258.562C395.482 258.594 395.749 258.548 395.987 258.429C396.325 258.279 396.629 258.062 396.881 257.791C397.134 257.521 397.328 257.202 397.454 256.854C397.693 256.151 397.693 255.388 397.454 254.685Z" fill="#FFBE9D"/>
<path d="M373.325 254.577C373.326 254.68 373.348 254.782 373.389 254.877C373.43 254.971 373.49 255.057 373.565 255.128C373.639 255.199 373.727 255.255 373.824 255.292C373.92 255.329 374.023 255.346 374.126 255.342C374.334 255.342 374.533 255.26 374.68 255.113C374.827 254.966 374.909 254.767 374.909 254.559C374.909 254.351 374.827 254.152 374.68 254.005C374.533 253.858 374.334 253.776 374.126 253.776C374.02 253.772 373.914 253.79 373.815 253.829C373.716 253.868 373.627 253.927 373.551 254.002C373.476 254.077 373.417 254.167 373.378 254.266C373.34 254.365 373.321 254.471 373.325 254.577Z" fill="#263238"/>
<path d="M372.542 253.749C372.641 253.848 373.208 253.335 374.054 253.272C374.9 253.209 375.539 253.596 375.629 253.479C375.719 253.362 375.557 253.245 375.278 253.065C374.901 252.825 374.454 252.717 374.009 252.759C373.565 252.797 373.146 252.977 372.812 253.272C372.569 253.497 372.488 253.704 372.542 253.749Z" fill="#263238"/>
<path d="M382.415 254.307C382.415 254.515 382.498 254.714 382.644 254.861C382.791 255.008 382.99 255.09 383.198 255.09C383.406 255.09 383.605 255.008 383.752 254.861C383.899 254.714 383.981 254.515 383.981 254.307C383.981 254.099 383.899 253.9 383.752 253.753C383.605 253.607 383.406 253.524 383.198 253.524C382.99 253.524 382.791 253.607 382.644 253.753C382.498 253.9 382.415 254.099 382.415 254.307Z" fill="#263238"/>
<path d="M381.911 253.47C382.01 253.569 382.577 253.065 383.423 252.993C384.269 252.921 384.908 253.317 384.998 253.209C385.088 253.101 384.926 252.966 384.647 252.786C384.267 252.556 383.823 252.452 383.38 252.489C382.937 252.526 382.518 252.703 382.181 252.993C381.938 253.2 381.857 253.425 381.911 253.47Z" fill="#263238"/>
<path d="M379.022 260.724C378.566 260.819 378.101 260.855 377.636 260.832C377.514 260.849 377.389 260.849 377.267 260.832C377.186 260.815 377.111 260.779 377.047 260.728C376.983 260.676 376.932 260.61 376.898 260.535C376.812 260.238 376.831 259.92 376.952 259.635L377.465 257.835C377.856 256.298 378.365 254.794 378.986 253.335C378.713 254.895 378.321 256.433 377.816 257.934L377.276 259.734C377.175 259.944 377.141 260.179 377.177 260.409C377.222 260.562 377.42 260.589 377.636 260.589C378.102 260.568 378.569 260.614 379.022 260.724Z" fill="#263238"/>
<path d="M381.947 261.408C382.001 261.345 379.508 262.911 377.789 262.956C378.107 263.378 378.559 263.679 379.07 263.812C379.582 263.944 380.123 263.899 380.606 263.685C381.075 263.544 381.474 263.232 381.723 262.809C381.972 262.387 382.052 261.887 381.947 261.408Z" fill="#FAFAFA"/>
<path d="M379.049 271.2C381.957 271.008 384.749 269.987 387.095 268.257C387.095 268.257 385.367 272.802 379.22 272.694L379.049 271.2Z" fill="#EB996E"/>
<path d="M371.012 250.842C373.712 251.211 375.647 250.482 378.257 249.825C380.867 249.168 383.351 247.449 384.26 244.911C384.573 246.589 385.346 248.147 386.492 249.411C386.735 249.681 387.203 249.933 387.392 249.636C387.433 249.549 387.454 249.453 387.454 249.357C387.454 249.261 387.433 249.165 387.392 249.078L386.852 246.936C387.777 248.625 388.978 250.146 390.407 251.436C391.901 252.633 396.446 254.487 395.753 252.705C395.582 252.255 397.103 238.377 383.909 238.17C370.715 237.963 371.012 250.842 371.012 250.842Z" fill="#263238"/>
<path d="M394.394 254.793C394.349 254.793 394.619 254.478 395.186 254.496C395.475 254.519 395.751 254.625 395.981 254.803C396.21 254.98 396.384 255.22 396.479 255.494C396.574 255.768 396.588 256.063 396.518 256.345C396.448 256.626 396.298 256.881 396.086 257.079C395.835 257.298 395.519 257.428 395.186 257.448C394.619 257.448 394.358 257.178 394.394 257.142C394.43 257.106 394.718 257.205 395.15 257.142C395.418 257.094 395.661 256.953 395.836 256.744C396.011 256.535 396.107 256.272 396.107 255.999C396.107 255.726 396.011 255.462 395.836 255.254C395.661 255.045 395.418 254.904 395.15 254.856C394.7 254.73 394.421 254.865 394.394 254.793Z" fill="#EB996E"/>
<path d="M416.3 297.903L418.568 297.444C418.568 297.444 413.627 275.232 396.455 275.232H394.43V275.34V275.493L393.719 278.346C392.387 283.539 389.219 293.412 384.53 293.529C378.581 293.682 379.373 277.941 379.499 275.817C379.35 275.834 379.204 275.874 379.067 275.934C379.067 275.934 360.392 276.969 352.067 293.349L366.467 303.87L369.986 301.746C369.986 301.746 371.138 324.912 369.158 331.221C366.926 338.349 363.47 346.242 363.47 346.242C379.301 345.009 397.31 345.72 416.507 347.493L403.7 300.468C408.003 300.24 412.25 299.375 416.3 297.903Z" fill="#FF9356"/>
<path d="M400.892 309C400.892 309 400.775 309.207 400.487 309.504C400.072 309.913 399.617 310.278 399.128 310.593C397.491 311.66 395.564 312.194 393.611 312.123C391.658 312.052 389.775 311.379 388.22 310.197C387.751 309.85 387.322 309.452 386.942 309.009C386.672 308.694 386.555 308.496 386.582 308.478C386.609 308.46 387.221 309.126 388.382 309.927C389.922 310.987 391.732 311.586 393.6 311.655C395.468 311.724 397.317 311.258 398.93 310.314C400.199 309.612 400.829 309 400.892 309Z" fill="#263238"/>
<path d="M409.208 321.375C409.043 321.017 408.913 320.643 408.821 320.259C408.569 319.449 408.263 318.459 407.921 317.199C407.147 314.616 406.121 311.043 404.843 307.128C403.565 303.213 402.413 299.667 401.549 297.111C401.153 295.905 400.811 294.888 400.541 294.078C400.392 293.717 400.286 293.339 400.226 292.953C400.421 293.294 400.584 293.653 400.712 294.024C401 294.717 401.396 295.734 401.864 297.003C402.809 299.532 404.042 303.051 405.284 306.984C406.526 310.917 407.552 314.499 408.236 317.109C408.578 318.414 408.848 319.476 409.01 320.214C409.12 320.592 409.187 320.982 409.208 321.375Z" fill="#263238"/>
<path d="M403.637 285.852C402.83 285.835 402.039 285.621 401.333 285.231C400.566 284.984 399.866 284.562 399.29 283.998C400.069 284.15 400.819 284.424 401.513 284.808C402.27 285.047 402.986 285.399 403.637 285.852Z" fill="#263238"/>
<path d="M408.065 293.556C408.118 292.651 408.328 291.761 408.686 290.928C408.901 290.044 409.266 289.204 409.766 288.444C409.702 289.349 409.489 290.237 409.136 291.072C408.922 291.955 408.56 292.795 408.065 293.556Z" fill="#263238"/>
<path d="M392.648 299.1C392.846 298.275 393.17 297.485 393.611 296.76C393.913 295.965 394.332 295.219 394.853 294.546C394.511 296.225 393.753 297.791 392.648 299.1Z" fill="#263238"/>
<path d="M389.858 303.978C389.056 303.559 388.355 302.969 387.806 302.25C387.142 301.631 386.626 300.871 386.294 300.027C387.59 301.253 388.794 302.573 389.894 303.978H389.858Z" fill="#263238"/>
<path d="M401 303.24C400.532 304.215 399.878 305.09 399.074 305.814C398.405 306.535 397.66 307.181 396.851 307.74L396.185 308.145L396.707 307.614C396.833 307.488 396.914 307.434 396.941 307.452C396.968 307.47 396.941 307.569 396.869 307.722L396.725 307.596C397.04 307.218 397.841 306.435 398.741 305.49C399.424 304.672 400.18 303.919 401 303.24Z" fill="#263238"/>
<path d="M403.421 319.305C402.529 319.154 401.683 318.804 400.946 318.279C400.127 317.887 399.409 317.311 398.849 316.596C399.673 316.931 400.455 317.36 401.18 317.874C401.984 318.255 402.737 318.736 403.421 319.305Z" fill="#263238"/>
<path d="M392.144 315.633C391.839 316.494 391.385 317.296 390.803 318C390.347 318.792 389.763 319.504 389.075 320.106C389.376 319.243 389.83 318.441 390.416 317.739C390.873 316.947 391.456 316.235 392.144 315.633Z" fill="#263238"/>
<path d="M384.746 316.362C384.044 316.103 383.404 315.702 382.865 315.183C381.902 314.436 381.191 313.743 381.272 313.644C381.353 313.545 382.172 314.067 383.153 314.814C384.134 315.561 384.8 316.254 384.746 316.362Z" fill="#263238"/>
<path d="M380.741 305.4C380.813 305.508 380.111 306.138 379.166 306.813C378.221 307.488 377.366 307.947 377.366 307.839C377.366 307.731 377.987 307.101 378.932 306.426C379.459 305.965 380.075 305.616 380.741 305.4Z" fill="#263238"/>
<path d="M379.211 299.847C379.112 299.928 378.464 299.244 377.762 298.326C377.06 297.408 376.583 296.589 376.682 296.526C376.781 296.463 377.438 297.138 378.131 298.056C378.824 298.974 379.319 299.775 379.211 299.847Z" fill="#263238"/>
<path d="M395.258 285.087C395.408 284.305 395.714 283.561 396.158 282.9C396.467 282.166 396.913 281.497 397.472 280.929C397.319 281.713 397.013 282.459 396.572 283.125C396.265 283.858 395.818 284.524 395.258 285.087Z" fill="#263238"/>
<path d="M375.206 286.023C374.377 285.779 373.597 285.392 372.902 284.88C372.129 284.493 371.431 283.972 370.841 283.341C371.674 283.574 372.456 283.961 373.145 284.484C373.919 284.868 374.618 285.389 375.206 286.023Z" fill="#263238"/>
<path d="M364.703 283.332C364.82 283.395 364.487 284.169 363.965 285.042C363.443 285.915 362.93 286.59 362.813 286.518C362.696 286.446 363.038 285.69 363.56 284.808C364.082 283.926 364.595 283.269 364.703 283.332Z" fill="#263238"/>
<path d="M375.629 344.1C374.099 343.473 372.706 342.556 371.525 341.4C372.318 341.65 373.057 342.047 373.703 342.57C374.43 342.963 375.081 343.481 375.629 344.1Z" fill="#263238"/>
<path d="M405.707 340.878C405.806 340.968 405.149 341.832 404.24 342.822C403.331 343.812 402.53 344.532 402.44 344.442C402.35 344.352 402.998 343.488 403.907 342.498C404.816 341.508 405.617 340.788 405.707 340.878Z" fill="#263238"/>
<path d="M385.268 344.253C385.232 343.053 385.232 341.853 385.268 340.653C385.385 340.653 385.709 341.418 385.709 342.453C385.779 343.086 385.623 343.724 385.268 344.253Z" fill="#263238"/>
<path d="M395.906 344.424C395.114 344.21 394.369 343.85 393.71 343.362C392.972 343.004 392.31 342.509 391.757 341.904C393.288 342.472 394.696 343.327 395.906 344.424Z" fill="#263238"/>
<path d="M416.525 347.502C416.346 347.522 416.165 347.522 415.985 347.502L414.437 347.376L408.767 346.872C403.979 346.458 397.364 345.864 390.038 345.747C382.712 345.63 376.061 345.792 371.264 345.972L365.576 346.215L364.028 346.278C363.849 346.303 363.667 346.303 363.488 346.278L364.019 346.197L365.567 346.053C366.899 345.936 368.843 345.801 371.246 345.657C376.052 345.387 382.694 345.153 390.047 345.297C397.4 345.441 404.015 346.062 408.803 346.557C411.188 346.818 413.123 347.043 414.455 347.214L415.994 347.421C416.174 347.426 416.352 347.453 416.525 347.502Z" fill="#263238"/>
<g opacity="0.2">
<path d="M400.208 292.953L404.708 322.878C404.708 322.878 408.875 322.878 409.64 321.636L400.208 292.953Z" fill="black"/>
<path d="M400.208 292.953L404.708 322.878C404.708 322.878 408.875 322.878 409.64 321.636L400.208 292.953Z" fill="black"/>
</g>
<path d="M374.081 345.684C363.488 346.503 357.701 345.774 346.046 346.872C342.108 347.391 338.485 349.303 335.834 352.261C333.183 355.219 331.678 359.029 331.592 363L329.549 451.029H350.96L354.344 372.108L360.644 372.909C359.834 402.465 362.921 451.029 362.921 451.029L386.699 449.868L385.34 374.07C385.34 374.07 417.317 376.239 416.516 347.529C416.525 347.502 391.343 344.451 374.081 345.684Z" fill="#080403"/>
<path d="M380.48 345.459C379.946 345.579 379.405 345.669 378.86 345.729C377.816 345.891 376.304 346.116 374.45 346.458C372.275 346.762 370.145 347.327 368.105 348.141C366.929 348.662 365.839 349.36 364.874 350.211C363.847 351.128 363.015 352.242 362.426 353.487C361.351 355.948 360.828 358.614 360.896 361.299C360.896 363.783 360.986 366.042 360.968 367.932C360.95 369.822 360.887 371.352 360.815 372.432C360.815 372.963 360.743 373.377 360.707 373.647C360.701 373.79 360.68 373.932 360.644 374.07C360.605 373.525 360.605 372.977 360.644 372.432C360.644 371.37 360.644 369.849 360.644 367.932C360.644 366.015 360.536 363.774 360.473 361.299C360.378 358.544 360.904 355.804 362.012 353.28C362.63 351.982 363.502 350.822 364.577 349.869C365.579 348.991 366.712 348.274 367.934 347.745C370.015 346.936 372.189 346.392 374.405 346.125C376.268 345.828 377.798 345.648 378.851 345.549C379.373 345.504 379.751 345.468 380.066 345.459C380.203 345.437 380.343 345.437 380.48 345.459Z" fill="#455A64"/>
<path d="M352.454 366.6C352.917 367.466 353.305 368.369 353.615 369.3C354.074 370.179 354.324 371.153 354.344 372.144C353.881 371.278 353.493 370.375 353.183 369.444C352.72 368.567 352.47 367.592 352.454 366.6Z" fill="#455A64"/>
<path d="M354.2 364.8C354.604 365.957 354.814 367.174 354.821 368.4C354.961 369.638 354.8 370.891 354.353 372.054C354.209 372.054 354.452 370.416 354.353 368.454C354.254 366.492 354.038 364.8 354.2 364.8Z" fill="#455A64"/>
<path d="M383.729 366.465C384.275 367.648 384.636 368.908 384.8 370.2C385.1 371.46 385.296 372.742 385.385 374.034C384.842 372.849 384.489 371.585 384.341 370.29C384.03 369.035 383.825 367.755 383.729 366.465Z" fill="#455A64"/>
<path d="M385.871 366.447C386.407 368.971 386.264 371.592 385.457 374.043C385.466 372.773 385.547 371.505 385.7 370.245C385.691 368.977 385.748 367.709 385.871 366.447Z" fill="#455A64"/>
<path d="M350.411 445.863C350.411 445.989 345.722 446.097 339.935 446.097C334.148 446.097 329.459 445.989 329.459 445.863C329.459 445.737 334.148 445.629 339.935 445.629C345.722 445.629 350.411 445.728 350.411 445.863Z" fill="#455A64"/>
<path d="M386.411 445.467C386.411 445.593 381.074 445.701 374.495 445.701C367.916 445.701 362.579 445.593 362.579 445.467C362.579 445.341 367.916 445.233 374.495 445.233C381.074 445.233 386.411 445.341 386.411 445.467Z" fill="#455A64"/>
<path d="M413.681 360.678H413.384H412.484H409.064L396.464 360.741H387.779C386.182 360.736 384.591 360.917 383.036 361.281C381.398 361.654 379.932 362.563 378.869 363.864C377.862 365.318 377.325 367.045 377.33 368.814C377.24 370.614 377.438 372.495 377.51 374.412C377.606 378.24 377.711 382.185 377.825 386.247C378.284 402.447 378.662 417.126 378.797 427.755C378.869 433.065 378.887 437.367 378.887 440.355C378.887 441.819 378.887 442.962 378.887 443.784C378.887 444.153 378.887 444.441 378.887 444.684C378.901 444.786 378.901 444.888 378.887 444.99C378.875 444.888 378.875 444.786 378.887 444.684C378.887 444.459 378.887 444.171 378.887 443.784C378.887 442.965 378.887 441.822 378.824 440.355C378.761 437.358 378.68 433.065 378.581 427.755C378.356 417.135 377.933 402.456 377.474 386.247C377.366 382.197 377.267 378.246 377.168 374.421C377.096 372.522 376.907 370.641 377.006 368.778C377.005 366.922 377.577 365.112 378.644 363.594C379.766 362.226 381.317 361.275 383.045 360.894C384.636 360.527 386.264 360.346 387.896 360.354H396.581L409.181 360.444L412.601 360.498H413.501C413.567 360.552 413.627 360.612 413.681 360.678Z" fill="#455A64"/>
<path opacity="0.2" d="M358.115 372.558C358.115 372.558 357.287 361.893 361.292 355.764L360.653 372.864L358.115 372.558Z" fill="black"/>
<path d="M359.843 362.415C359.765 362.427 359.687 362.427 359.609 362.415L358.907 362.289C358.286 362.172 357.386 361.992 356.207 361.857C354.787 361.682 353.348 361.768 351.959 362.109C351.099 362.336 350.288 362.717 349.565 363.234C348.773 363.823 348.139 364.599 347.72 365.493C346.82 367.383 346.712 369.75 346.658 372.234C346.604 374.718 346.532 377.4 346.46 380.208C346.307 385.824 346.145 391.998 345.974 398.478C345.596 411.42 345.245 423.138 344.993 431.67C344.849 435.882 344.723 439.311 344.642 441.723C344.588 442.884 344.552 443.802 344.525 444.423C344.525 444.711 344.525 444.945 344.48 445.134C344.492 445.215 344.492 445.296 344.48 445.377C344.466 445.297 344.466 445.214 344.48 445.134C344.48 444.945 344.48 444.711 344.48 444.423C344.48 443.757 344.48 442.839 344.48 441.723C344.525 439.302 344.597 435.882 344.678 431.661C344.894 423.129 345.2 411.411 345.524 398.46C345.713 391.98 345.884 385.815 346.046 380.199C346.127 377.391 346.208 374.718 346.289 372.225C346.37 369.732 346.46 367.32 347.441 365.349C347.893 364.412 348.57 363.602 349.412 362.991C350.166 362.462 351.011 362.077 351.905 361.857C353.33 361.523 354.805 361.461 356.252 361.677C357.431 361.839 358.331 362.055 358.952 362.19L359.645 362.37C359.771 362.379 359.852 362.406 359.843 362.415Z" fill="#455A64"/>
<path d="M358.187 294.528C358.187 294.528 335.588 317.199 331.277 322.266C327.596 326.595 329.999 334.758 333.077 335.109C336.155 335.46 385.979 334.785 385.979 334.785L385.322 324.597C385.322 324.597 353.048 324.741 352.103 324.147C351.158 323.553 370.769 303.726 370.769 303.726L358.187 294.528Z" fill="#FFBE9D"/>
<path d="M417.947 297.489C417.947 297.489 424.814 318.306 425.642 320.763C426.47 323.22 430.736 333.633 422.636 334.506C414.536 335.379 371.066 334.506 371.066 334.506L367.835 323.985C367.835 323.985 409.847 323.877 409.64 321.636C409.433 319.395 403.259 300.594 403.259 300.594L417.947 297.489Z" fill="#FFBE9D"/>
<path d="M326.21 291L341.825 334.254L413.708 334.227L413.213 332.112L386.24 331.122L372.965 290.334L326.21 291Z" fill="#080403"/>
<path d="M358.25 310.692C358.26 311.179 358.13 311.658 357.876 312.074C357.621 312.489 357.253 312.823 356.815 313.035C356.377 313.248 355.887 313.33 355.403 313.273C354.919 313.215 354.462 313.02 354.086 312.711C353.71 312.401 353.43 311.991 353.28 311.527C353.13 311.064 353.117 310.567 353.24 310.096C353.364 309.625 353.62 309.199 353.979 308.869C354.337 308.54 354.783 308.319 355.262 308.235C355.983 308.17 356.701 308.391 357.26 308.851C357.819 309.31 358.175 309.972 358.25 310.692Z" fill="#FAFAFA"/>
<path d="M450.887 333.309H281.075H279.23H277.394V457.5H281.075V340.626H450.887V457.59H494.294V340.626V333.309H450.887Z" fill="#DDDDDD"/>
<path d="M242.055 452.464V443.167L225.405 443.059L225.261 456.964L226.296 457.036C230.895 457.333 249.696 457.936 252.756 456.955C256.203 455.893 242.055 452.464 242.055 452.464Z" fill="#FF9356"/>
<path d="M253.152 456.109C253.152 456.262 246.924 456.388 239.238 456.388C231.552 456.388 225.324 456.262 225.324 456.109C225.324 455.956 231.552 455.821 239.238 455.821C246.924 455.821 253.152 455.947 253.152 456.109Z" fill="#263238"/>
<path d="M242.352 454.363C242.217 454.291 242.352 453.796 242.685 453.319C243.018 452.842 243.486 452.572 243.585 452.68C243.684 452.788 243.468 453.202 243.135 453.652C242.802 454.102 242.487 454.435 242.352 454.363Z" fill="#263238"/>
<path d="M243.414 454.975C243.27 454.921 243.342 454.372 243.675 453.796C244.008 453.22 244.431 452.896 244.575 452.959C244.719 453.022 244.494 453.526 244.188 454.066C243.882 454.606 243.603 455.029 243.414 454.975Z" fill="#263238"/>
<path d="M230.337 456.046C230.274 456.091 230.022 455.848 229.662 455.434C229.225 454.902 228.736 454.413 228.204 453.976C227.683 453.559 227.063 453.286 226.404 453.184C225.891 453.112 225.567 453.184 225.504 453.112C225.441 453.04 225.783 452.824 226.404 452.788C227.18 452.771 227.937 453.033 228.537 453.526C229.115 453.991 229.603 454.559 229.977 455.2C230.274 455.677 230.4 456.001 230.337 456.046Z" fill="#263238"/>
<path d="M242.397 452.617C242.487 452.752 242.199 453.067 241.722 453.247C241.245 453.427 240.822 453.355 240.822 453.202C240.822 453.049 241.137 452.869 241.551 452.716C241.965 452.563 242.316 452.482 242.397 452.617Z" fill="#263238"/>
<path d="M242.136 451.717C242.136 451.87 241.713 452.005 241.146 452.014C240.579 452.023 240.138 451.897 240.147 451.744C240.156 451.591 240.606 451.456 241.146 451.447C241.686 451.438 242.127 451.564 242.136 451.717Z" fill="#263238"/>
<path d="M290.403 175.192L290.556 172.375C290.83 170.816 290.948 169.233 290.907 167.65C290.905 166.864 290.765 166.084 290.493 165.346C290.195 164.411 289.771 163.521 289.233 162.7C289.099 162.565 289.011 162.39 288.982 162.201C288.953 162.013 288.985 161.82 289.073 161.65C289.162 161.481 289.301 161.344 289.472 161.259C289.643 161.175 289.837 161.147 290.025 161.179C290.817 161.386 292.437 163.267 293.175 166.075C293.913 168.883 295.803 164.725 296.514 163.222C297.225 161.719 299.673 157.174 300.303 157.03C301.203 156.814 301.644 157.777 300.888 159.262C300.132 160.747 298.188 165.355 299.016 165.697C299.603 165.541 300.217 165.514 300.816 165.616C300.91 165.637 300.996 165.686 301.062 165.757C301.128 165.828 301.171 165.917 301.185 166.012C301.22 166.453 301.308 166.888 301.446 167.308C301.446 167.308 302.562 166.948 302.841 167.425C303.048 167.921 303.172 168.447 303.21 168.982C303.21 168.982 304.056 168.613 304.506 168.901C305.469 169.531 304.425 170.854 304.425 170.854C302.13 174.158 299.626 177.311 296.928 180.295L290.385 175.03" fill="#FFBE9D"/>
<path d="M210.348 175.003L210.24 210.904L225.603 211.615L226.044 202.885C226.044 202.885 231.516 203.974 232.929 198.889C233.829 195.649 233.604 170.566 233.604 170.566L210.348 175.003Z" fill="#FFBE9D"/>
<path d="M232.803 165.022C228.114 166.534 226.989 167.047 224.883 167.209C222.777 167.371 208.521 167.389 207.216 175.426C207.04 175.048 206.905 174.653 206.811 174.247C206.706 173.459 206.649 172.666 206.64 171.871C206.414 172.239 206.272 172.653 206.224 173.082C206.176 173.511 206.222 173.946 206.361 174.355C206.397 174.53 206.448 174.702 206.514 174.868C206.415 174.778 206.325 174.679 206.217 174.589C205.7 174.131 205.084 173.799 204.417 173.617C203.904 173.491 203.571 173.518 203.517 173.617C204.355 173.979 205.149 174.435 205.884 174.976C206.361 175.39 206.771 175.876 207.099 176.416C207.099 176.416 207.099 176.488 207.099 176.524C207.099 176.56 204.03 175.174 204.84 180.736C205.65 186.298 209.277 191.023 209.727 200.131C209.727 200.131 222.444 201.643 224.712 196.756L226.611 191.149C226.611 191.149 223.551 190.645 223.911 188.188C224.406 184.777 227.007 184.696 228.951 186.208L231.183 180.232C231.183 180.232 236.835 176.524 237.159 174.157C237.483 171.79 237.447 163.501 232.803 165.022Z" fill="#263238"/>
<path d="M167.742 445.516L165.492 455.56L181.035 457.486L181.593 447.532L167.742 445.516Z" fill="#FF9356"/>
<path d="M174.762 446.011C174.753 447.56 174.584 449.105 174.258 450.619C174.082 452.148 173.753 453.656 173.277 455.119C173.465 452.029 173.962 448.966 174.762 445.975V446.011Z" fill="#263238"/>
<path d="M181.098 456.415C180.341 456.391 179.588 456.297 178.848 456.136L173.448 455.236C171.333 454.885 169.434 454.534 168.048 454.228C167.3 454.105 166.567 453.902 165.861 453.625C166.619 453.639 167.373 453.733 168.111 453.904L173.511 454.804C175.617 455.155 177.525 455.506 178.911 455.812C179.661 455.927 180.395 456.13 181.098 456.415Z" fill="#263238"/>
<path d="M190.8 287.647L162 449.359L186.642 450.754C186.642 450.754 212.814 311.362 216.657 311.02C218.268 310.867 218.916 449.62 220.203 449.359C221.49 449.098 246.834 449.809 246.834 449.809C246.834 449.809 243.405 285.595 243.468 285.595L190.8 287.647Z" fill="#080403"/>
<path d="M227.205 307.618C227.205 307.744 222.957 308.761 217.665 309.886C212.373 311.011 208.053 311.821 208.026 311.686C207.999 311.551 212.274 310.543 217.566 309.418C222.858 308.293 227.178 307.492 227.205 307.618Z" fill="#455A64"/>
<path d="M188.469 441.259C188.469 441.394 182.898 441.322 176.031 441.115C169.164 440.908 163.602 440.62 163.602 440.494C163.602 440.368 169.173 440.431 176.04 440.638C182.907 440.845 188.469 441.115 188.469 441.259Z" fill="#455A64"/>
<path d="M246.672 441.277C246.672 441.403 240.651 441.331 233.244 441.106C225.837 440.881 219.825 440.602 219.825 440.476C219.825 440.35 225.837 440.422 233.253 440.638C240.669 440.854 246.672 441.115 246.672 441.277Z" fill="#455A64"/>
<path d="M203.103 312.1C203.229 312.1 197.136 340.972 189.486 376.522C181.836 412.072 175.536 440.881 175.41 440.854C175.284 440.827 181.377 411.991 189.027 376.423C196.677 340.855 202.968 312.073 203.103 312.1Z" fill="#455A64"/>
<path d="M233.352 440.872C233.342 440.761 233.342 440.65 233.352 440.539C233.352 440.296 233.352 439.972 233.298 439.558C233.298 438.658 233.208 437.407 233.136 435.787C233.001 432.52 232.848 427.777 232.677 421.918C232.335 410.218 231.993 394.018 231.912 376.144C231.831 358.27 232.002 342.079 232.236 330.361C232.344 324.502 232.461 319.768 232.569 316.492C232.623 314.872 232.659 313.612 232.695 312.721C232.695 312.307 232.695 311.983 232.695 311.74C232.683 311.63 232.683 311.518 232.695 311.407C232.709 311.518 232.709 311.63 232.695 311.74V312.721C232.695 313.621 232.695 314.872 232.695 316.492C232.65 319.795 232.587 324.529 232.506 330.37C232.362 342.07 232.236 358.27 232.326 376.144C232.416 394.018 232.695 410.2 232.947 421.918C233.082 427.75 233.19 432.484 233.271 435.787C233.271 437.398 233.325 438.667 233.343 439.558C233.343 439.972 233.343 440.296 233.343 440.539C233.36 440.649 233.363 440.761 233.352 440.872Z" fill="#455A64"/>
<path d="M287.82 174.382C287.82 174.382 268.74 203.182 267.12 204.775C265.5 206.368 235.62 209.536 235.62 209.536C226.44 207.466 196.776 208.15 191.178 212.236C186.327 214.936 180.441 221.236 177.408 236.113C172.233 261.565 167.058 270.943 177.408 274.498C181.546 275.909 185.811 276.916 190.143 277.504L189.855 289.024L243.495 285.685L240.795 257.083C240.471 249.046 240.318 240.676 240.12 233.26C243.477 231.991 274.671 220.183 276.813 219.877C278.955 219.571 299.502 181.78 299.502 181.78C300.114 177.289 287.82 174.382 287.82 174.382Z" fill="#FF9356"/>
<path d="M191.619 226.465C191.745 226.465 191.457 240.487 190.98 257.767C190.503 275.047 189.999 289.06 189.864 289.06C189.729 289.06 190.026 275.038 190.512 257.758C190.998 240.478 191.493 226.465 191.619 226.465Z" fill="#263238"/>
<path d="M269.811 211.255C269.095 210.31 268.564 209.238 268.245 208.096C267.785 207.021 267.412 205.91 267.129 204.775C267.839 205.722 268.367 206.794 268.686 207.934C269.139 209.013 269.515 210.123 269.811 211.255Z" fill="#263238"/>
<path d="M271.953 208.807C271.043 208.295 270.186 207.692 269.397 207.007C268.501 206.436 267.729 205.689 267.129 204.811C268.036 205.329 268.892 205.932 269.685 206.611C270.576 207.189 271.346 207.935 271.953 208.807Z" fill="#263238"/>
<path d="M298.431 184.075C297.797 183.772 297.194 183.407 296.631 182.986C295.533 182.293 294.012 181.357 292.266 180.421C290.52 179.485 288.9 178.738 287.712 178.216C287.049 177.979 286.41 177.677 285.804 177.316C286.504 177.431 287.187 177.631 287.838 177.91C291.041 179.104 294.068 180.724 296.838 182.725C297.424 183.107 297.959 183.56 298.431 184.075Z" fill="#263238"/>
<path d="M190.98 257.902C189.863 257.969 188.741 257.857 187.659 257.569C186.545 257.416 185.47 257.052 184.491 256.498C185.596 256.605 186.69 256.809 187.758 257.11C188.859 257.251 189.94 257.516 190.98 257.902Z" fill="#263238"/>
<path d="M240.525 209.131C239.552 209.298 238.591 209.523 237.645 209.806C235.388 210.545 233.426 211.987 232.046 213.92C230.667 215.853 229.942 218.177 229.977 220.552C230.024 221.538 230.123 222.52 230.274 223.495C230.134 223.262 230.037 223.006 229.986 222.739C229.789 222.029 229.674 221.298 229.644 220.561C229.521 218.095 230.234 215.66 231.669 213.651C233.103 211.642 235.174 210.176 237.546 209.491C238.252 209.278 238.979 209.145 239.715 209.095C239.985 209.057 240.26 209.069 240.525 209.131Z" fill="#263238"/>
<path d="M243.504 285.721C243.504 285.856 231.507 286.702 216.702 287.62C201.897 288.538 189.873 289.186 189.864 289.06C189.855 288.934 201.861 288.079 216.675 287.152C231.489 286.225 243.495 285.595 243.504 285.721Z" fill="#263238"/>
<path d="M222.138 208.564C222.215 208.78 222.269 209.003 222.3 209.23C222.3 209.455 222.408 209.725 222.444 210.049C222.48 210.373 222.507 210.76 222.552 211.183C222.659 213.614 222.263 216.04 221.391 218.311C220.114 221.718 217.768 224.62 214.704 226.582C214.266 226.86 213.809 227.107 213.336 227.32C212.862 227.55 212.376 227.752 211.878 227.923C210.879 228.283 209.844 228.589 208.818 228.958C207.776 229.3 206.779 229.765 205.848 230.344C204.917 230.974 204.094 231.749 203.409 232.639C202.126 234.492 200.942 236.412 199.863 238.39C198.827 240.282 197.309 241.866 195.462 242.98C193.714 243.864 191.748 244.223 189.801 244.015C188.121 243.862 186.485 243.395 184.977 242.638C182.81 241.542 180.842 240.091 179.154 238.345C178.551 237.742 178.101 237.256 177.804 236.932C177.636 236.774 177.488 236.595 177.363 236.401C177.54 236.544 177.708 236.697 177.867 236.86L179.28 238.219C180.993 239.892 182.958 241.286 185.103 242.35C186.584 243.061 188.182 243.497 189.819 243.637C191.681 243.81 193.555 243.448 195.219 242.593C196.996 241.513 198.453 239.978 199.44 238.147C200.53 236.149 201.732 234.214 203.04 232.351C203.758 231.421 204.621 230.613 205.596 229.957C206.557 229.354 207.587 228.871 208.665 228.517L211.725 227.5C212.213 227.335 212.691 227.139 213.156 226.915C213.615 226.717 214.057 226.483 214.479 226.213C217.49 224.316 219.812 221.502 221.103 218.185C221.993 215.963 222.43 213.586 222.39 211.192C222.39 210.769 222.39 210.4 222.336 210.067C222.282 209.734 222.255 209.464 222.228 209.248C222.178 209.023 222.148 208.794 222.138 208.564Z" fill="#263238"/>
<path d="M242.451 274.741C242.451 274.741 242.244 274.597 241.848 274.354C241.282 273.989 240.654 273.732 239.994 273.598C238.933 273.439 237.863 273.343 236.79 273.31C235.539 273.211 234.09 273.202 232.515 273.139C230.77 273.11 229.035 272.868 227.349 272.419C225.413 271.869 223.586 270.989 221.949 269.818C220.128 268.519 218.618 266.832 217.53 264.877C216.366 262.774 215.747 260.414 215.73 258.01C215.695 255.678 216.316 253.382 217.522 251.385C218.728 249.388 220.471 247.77 222.552 246.715C223.488 246.248 224.484 245.915 225.513 245.725C226.473 245.565 227.446 245.486 228.42 245.491C230.14 245.544 231.863 245.493 233.577 245.338C234.813 245.259 236.009 244.875 237.06 244.22C238.111 243.565 238.983 242.66 239.598 241.585C239.899 240.982 240.089 240.33 240.156 239.659C240.21 239.2 240.21 238.948 240.228 238.948C240.239 239.008 240.239 239.069 240.228 239.128C240.228 239.254 240.228 239.434 240.228 239.668C240.191 240.36 240.023 241.038 239.733 241.666C239.259 242.661 238.533 243.515 237.627 244.141C236.435 244.977 235.051 245.501 233.604 245.662C231.876 245.843 230.139 245.915 228.402 245.878C227.449 245.883 226.497 245.967 225.558 246.13C224.572 246.321 223.618 246.648 222.723 247.102C220.722 248.125 219.048 249.686 217.888 251.611C216.729 253.535 216.131 255.746 216.162 257.992C216.184 260.32 216.784 262.605 217.908 264.643C218.959 266.54 220.415 268.181 222.174 269.449C223.766 270.602 225.543 271.473 227.43 272.023C229.085 272.483 230.789 272.74 232.506 272.788C234.09 272.869 235.53 272.905 236.79 273.031C237.871 273.08 238.948 273.203 240.012 273.4C240.687 273.573 241.32 273.879 241.875 274.3C242.022 274.404 242.163 274.515 242.298 274.633C242.355 274.66 242.407 274.697 242.451 274.741Z" fill="#263238"/>
<path d="M212.643 287.917C212.668 287.273 212.631 286.628 212.535 285.991C212.201 284.263 211.207 282.733 209.763 281.725C209.288 281.411 208.774 281.159 208.233 280.978C207.644 280.813 207.042 280.698 206.433 280.636C205.012 280.604 203.6 280.414 202.221 280.069C201.464 279.816 200.772 279.398 200.196 278.845C199.615 278.261 199.15 277.57 198.828 276.811C198.177 275.219 197.974 273.479 198.243 271.78C198.747 268.315 200.268 265.336 200.529 262.402C200.713 261.033 200.587 259.639 200.16 258.325C199.77 257.194 199.041 256.21 198.072 255.508C196.652 254.469 194.886 254.014 193.14 254.239C192.508 254.359 191.888 254.533 191.286 254.761C191.829 254.402 192.443 254.162 193.086 254.059C194.893 253.754 196.748 254.178 198.243 255.238C199.283 255.969 200.072 257.003 200.502 258.199C200.967 259.564 201.115 261.017 200.934 262.447C200.673 265.48 199.134 268.495 198.684 271.843C198.426 273.459 198.612 275.114 199.224 276.631C199.525 277.336 199.952 277.979 200.484 278.53C201.008 279.037 201.638 279.422 202.329 279.655C203.678 279.999 205.06 280.199 206.451 280.249C207.098 280.316 207.737 280.445 208.359 280.636C209.509 281.034 210.527 281.742 211.299 282.682C212.071 283.623 212.567 284.759 212.733 285.964C212.799 286.448 212.799 286.938 212.733 287.422C212.719 287.59 212.688 287.755 212.643 287.917Z" fill="#263238"/>
<path d="M210.843 238.12C210.843 238.12 211.032 237.922 211.482 237.787C212.127 237.619 212.81 237.667 213.426 237.922C213.858 238.1 214.245 238.37 214.56 238.714C214.916 239.125 215.141 239.633 215.208 240.172C215.289 240.792 215.185 241.423 214.908 241.984C214.631 242.544 214.193 243.01 213.651 243.322C213.086 243.591 212.453 243.683 211.835 243.586C211.217 243.49 210.642 243.21 210.186 242.782C209.787 242.408 209.511 241.922 209.394 241.387C209.305 240.927 209.326 240.452 209.457 240.001C209.635 239.356 210.033 238.792 210.582 238.408C210.767 238.252 210.997 238.157 211.239 238.138C211.239 238.138 211.023 238.273 210.69 238.552C210.238 238.956 209.923 239.491 209.79 240.082C209.674 240.506 209.679 240.953 209.803 241.374C209.927 241.795 210.165 242.174 210.492 242.467C210.886 242.823 211.376 243.054 211.901 243.133C212.427 243.211 212.963 243.133 213.444 242.908C213.907 242.638 214.281 242.238 214.52 241.759C214.76 241.279 214.855 240.741 214.794 240.208C214.742 239.773 214.577 239.36 214.315 239.009C214.053 238.658 213.703 238.383 213.3 238.21C212.74 237.942 212.113 237.851 211.5 237.949C211.086 238.039 210.861 238.156 210.843 238.12Z" fill="#263238"/>
<path d="M183.861 276.487C183.762 276.487 184.185 274.903 184.284 272.329C184.319 271.631 184.319 270.931 184.284 270.232C184.284 269.476 184.14 268.675 184.041 267.829C183.742 266.01 183.263 264.225 182.61 262.501C181.928 260.791 181.072 259.157 180.054 257.623C179.598 256.962 179.108 256.326 178.587 255.715C178.145 255.168 177.673 254.645 177.174 254.149C175.374 252.349 173.988 251.449 174.051 251.386C174.393 251.544 174.716 251.74 175.014 251.971C175.387 252.209 175.745 252.471 176.085 252.754C176.547 253.116 176.989 253.504 177.408 253.915C177.931 254.401 178.424 254.918 178.884 255.463C179.42 256.082 179.925 256.728 180.396 257.398C181.448 258.95 182.332 260.609 183.033 262.348C183.696 264.093 184.169 265.903 184.446 267.748C184.56 268.56 184.629 269.377 184.653 270.196C184.699 270.906 184.699 271.619 184.653 272.329C184.62 272.914 184.557 273.497 184.464 274.075C184.409 274.515 184.325 274.951 184.212 275.38C184.141 275.762 184.023 276.134 183.861 276.487Z" fill="#263238"/>
<path d="M277.245 219.517C276.784 219.353 276.336 219.154 275.904 218.923C275.049 218.527 273.816 217.96 272.232 217.384C270.393 216.703 268.486 216.223 266.544 215.953C264.173 215.613 261.759 215.732 259.434 216.304C257.088 216.85 254.92 217.984 253.134 219.598C251.692 220.915 250.589 222.56 249.921 224.395C249.481 225.636 249.298 226.952 249.381 228.265C249.453 229.165 249.597 229.705 249.552 229.714C249.507 229.723 249.489 229.597 249.417 229.354C249.321 229.002 249.249 228.645 249.201 228.283C249.042 226.937 249.183 225.572 249.615 224.287C250.253 222.373 251.364 220.652 252.846 219.283C254.658 217.605 256.87 216.421 259.272 215.845C261.658 215.265 264.134 215.155 266.562 215.521C268.529 215.82 270.455 216.343 272.304 217.078C273.537 217.565 274.74 218.127 275.904 218.761C276.318 218.986 276.642 219.166 276.849 219.301C276.993 219.348 277.128 219.421 277.245 219.517Z" fill="#263238"/>
<path d="M284.616 179.215C284.616 179.215 284.706 179.278 284.859 179.431C285.084 179.642 285.292 179.871 285.48 180.115C286.192 181.009 286.754 182.012 287.145 183.085C287.734 184.684 287.976 186.39 287.856 188.089C287.717 190.177 287.045 192.195 285.903 193.948C284.733 195.691 283.121 197.091 281.232 198.007C279.711 198.767 278.051 199.208 276.354 199.303C275.214 199.376 274.069 199.27 272.961 198.988C272.655 198.917 272.354 198.824 272.061 198.709C271.863 198.637 271.764 198.592 271.773 198.574C273.246 198.924 274.762 199.057 276.273 198.97C277.918 198.834 279.521 198.375 280.989 197.62C282.803 196.723 284.354 195.371 285.489 193.696C286.486 192.155 287.122 190.408 287.349 188.586C287.577 186.764 287.39 184.915 286.803 183.175C286.278 181.753 285.54 180.418 284.616 179.215Z" fill="#263238"/>
<path d="M225.855 208.438C223.256 208.695 220.644 208.795 218.034 208.735C215.426 208.833 212.814 208.776 210.213 208.564C212.811 208.307 215.423 208.208 218.034 208.267C220.642 208.17 223.254 208.227 225.855 208.438Z" fill="#263238"/>
<defs>
<linearGradient id="paint0_linear_173_9383" x1="592.216" y1="72" x2="155.925" y2="591.317" gradientUnits="userSpaceOnUse">
<stop stop-color="white"/>
<stop offset="1" stop-color="white"/>
</linearGradient>
</defs>
</svg>
