<svg width="527" height="453" viewBox="0 0 527 453" fill="none" xmlns="http://www.w3.org/2000/svg">
<g clip-path="url(#clip0_173_9383)">
<path d="M90.5604 396.113C45.4464 359.953 12.6924 311.928 2.80439 260.513C-6.46561 209.098 7.74837 154.293 38.0304 109.658C67.6944 64.4582 114.662 29.4283 165.956 16.4333C217.25 3.43825 273.488 11.9132 332.816 26.0382C392.144 40.1632 453.944 60.5032 490.406 101.748C526.25 142.993 536.756 205.708 518.216 256.558C499.676 307.973 451.472 347.523 402.032 383.118C352.592 418.148 301.916 449.223 247.532 452.613C193.148 456.003 136.292 431.708 90.5604 396.113Z" fill="url(#paint0_linear_173_9383)"/>
<path d="M207.318 31.999H156.189C154.822 31.999 153.714 33.1071 153.714 34.474V85.603C153.714 86.9699 154.822 88.078 156.189 88.078H207.318C208.685 88.078 209.793 86.9699 209.793 85.603V34.474C209.793 33.1071 208.685 31.999 207.318 31.999Z" fill="#F0F0F0"/>
<path d="M198.138 45.841H198.075C196.176 45.841 194.637 45.958 194.637 46.111C195.642 46.3615 196.681 46.4527 197.715 46.381C197.544 46.561 197.292 46.822 196.977 47.173L194.277 50.233L185.277 60.565L181.488 58C180.813 57.559 180.147 57.1 179.526 56.695L179.319 56.569L179.166 56.749C175.161 61.429 171.615 65.614 169.086 68.638L166.125 72.238C165.743 72.6565 165.4 73.1083 165.099 73.588C165.519 73.2202 165.913 72.8232 166.278 72.4L169.365 68.926C171.93 66.001 175.467 61.924 179.418 57.325L181.218 58.504L185.205 61.15L185.403 61.285L185.556 61.105L194.556 50.476L197.157 47.317C197.499 46.903 197.733 46.597 197.877 46.417H197.922C197.845 47.4593 197.933 48.5071 198.183 49.522C198.336 49.522 198.453 48.019 198.462 46.147V45.877L198.138 45.841Z" fill="#E0E0E0"/>
<path d="M340.221 69.43H367.653C367.653 74.8292 366.061 80.1084 363.074 84.6063C360.087 89.1042 355.84 92.6208 350.863 94.7154C345.887 96.8101 340.403 97.3897 335.099 96.3816C329.795 95.3735 324.906 92.8225 321.045 89.0483C317.184 85.2741 314.523 80.4445 313.395 75.1646C312.266 69.8846 312.721 64.3891 314.702 59.3665C316.684 54.3439 320.103 50.0176 324.532 46.9296C328.961 43.8416 334.202 42.1292 339.6 42.007L340.221 69.43Z" fill="#F0F0F0"/>
<path d="M347.61 62.743L346.998 35.311C354.326 35.308 361.382 38.0835 366.744 43.078C371.877 48.1888 374.845 55.0793 375.033 62.32L347.61 62.743Z" fill="#EBEBEB"/>
<path d="M356.052 183.803C355.873 189.778 356.21 208 356.21 208L361.477 202.666H391.125C391.623 202.663 392.1 202.46 392.452 202.102C392.803 201.745 393 201.261 393 200.756V183.899C393 183.395 392.803 182.912 392.451 182.556C392.099 182.2 391.622 182 391.125 182H357.938C357.455 181.997 356.989 182.182 356.638 182.518C356.287 182.854 356.077 183.314 356.052 183.803Z" fill="#EBEBEB"/>
<path d="M364.332 189.544C364.33 189.779 364.259 190.007 364.127 190.202C363.996 190.396 363.81 190.547 363.592 190.635C363.375 190.724 363.137 190.746 362.907 190.699C362.677 190.652 362.466 190.538 362.301 190.372C362.136 190.205 362.023 189.994 361.978 189.763C361.933 189.533 361.957 189.295 362.047 189.078C362.138 188.862 362.29 188.677 362.485 188.547C362.68 188.416 362.909 188.347 363.144 188.347C363.301 188.347 363.456 188.378 363.601 188.438C363.745 188.499 363.877 188.587 363.987 188.698C364.098 188.809 364.185 188.941 364.244 189.087C364.303 189.232 364.333 189.387 364.332 189.544Z" fill="#E0E0E0"/>
<path d="M368.346 189.544C368.346 189.781 368.275 190.013 368.143 190.21C368.011 190.407 367.824 190.56 367.605 190.651C367.385 190.741 367.144 190.764 366.912 190.717C366.679 190.67 366.466 190.555 366.299 190.387C366.132 190.219 366.019 190.005 365.974 189.772C365.928 189.539 365.953 189.298 366.045 189.08C366.137 188.861 366.292 188.675 366.49 188.544C366.688 188.414 366.921 188.345 367.158 188.347C367.314 188.347 367.47 188.378 367.614 188.438C367.759 188.499 367.89 188.587 368.001 188.698C368.111 188.809 368.199 188.941 368.258 189.087C368.317 189.232 368.347 189.387 368.346 189.544Z" fill="#E0E0E0"/>
<path d="M372.36 189.544C372.36 189.781 372.29 190.012 372.158 190.209C372.027 190.406 371.84 190.559 371.621 190.65C371.402 190.74 371.161 190.764 370.929 190.718C370.697 190.672 370.484 190.558 370.316 190.39C370.149 190.223 370.035 190.01 369.989 189.778C369.943 189.545 369.966 189.305 370.057 189.086C370.148 188.867 370.301 188.68 370.498 188.549C370.695 188.417 370.926 188.347 371.163 188.347C371.48 188.347 371.785 188.473 372.009 188.698C372.234 188.922 372.36 189.227 372.36 189.544Z" fill="#E0E0E0"/>
<path d="M451.659 395.59C451.659 395.716 367.635 395.824 264.009 395.824C160.383 395.824 76.3408 395.716 76.3408 395.59C76.3408 395.464 160.347 395.356 264.009 395.356C367.671 395.356 451.659 395.5 451.659 395.59Z" fill="#263238"/>
<path d="M380.415 169.249C380.597 169.226 380.778 169.19 380.955 169.141C381.207 169.053 381.436 168.911 381.625 168.724C381.815 168.538 381.961 168.311 382.053 168.061C382.162 167.678 382.196 167.278 382.152 166.882C382.152 166.441 382.152 165.982 382.152 165.433C382.152 164.38 382.152 163.174 382.152 161.833C382.152 156.37 382.107 148.486 382.071 138.766C382.071 133.888 382.071 128.56 382.071 122.836C382.071 119.965 382.071 117.004 382.071 113.953C382.071 112.432 382.071 110.884 382.071 109.318C382.071 108.553 382.071 107.707 382.071 106.987C382.012 106.636 381.836 106.316 381.571 106.079C381.306 105.842 380.968 105.702 380.613 105.682H338.637C338.229 105.682 337.838 105.841 337.545 106.125C337.253 106.409 337.083 106.796 337.071 107.203C337.071 108.103 337.071 109.003 337.071 109.957V126.112C337.071 133.123 337.071 139.882 337.071 146.326C337.071 152.77 337.071 158.926 337.071 164.605V166.738C337.044 167.076 337.044 167.417 337.071 167.755C337.123 168.061 337.268 168.344 337.485 168.565C337.699 168.791 337.974 168.951 338.277 169.024C338.599 169.072 338.924 169.087 339.249 169.069H348.906L371.973 169.15L378.273 169.195H379.902H380.46C380.46 169.195 380.271 169.195 379.902 169.195H378.273L371.973 169.24L348.906 169.312H341.265H339.249C338.894 169.333 338.538 169.315 338.187 169.258C337.814 169.174 337.476 168.98 337.215 168.7C336.945 168.423 336.763 168.072 336.693 167.692C336.667 167.332 336.667 166.972 336.693 166.612V164.479C336.693 158.755 336.693 152.635 336.693 146.2C336.693 139.765 336.693 132.997 336.693 125.986C336.693 122.488 336.693 118.924 336.693 115.294V109.831C336.693 108.931 336.693 108.031 336.693 107.059C336.709 106.531 336.931 106.029 337.311 105.661C337.69 105.293 338.198 105.088 338.727 105.088H380.64C381.09 105.116 381.518 105.296 381.853 105.599C382.188 105.901 382.411 106.308 382.485 106.753C382.548 107.653 382.485 108.355 382.485 109.156V113.791C382.485 116.842 382.485 119.803 382.485 122.674C382.485 128.398 382.485 133.726 382.485 138.604C382.485 148.324 382.431 156.208 382.413 161.671C382.413 163.03 382.413 164.236 382.413 165.271C382.413 165.793 382.413 166.279 382.413 166.72C382.448 167.126 382.405 167.536 382.287 167.926C382.189 168.188 382.032 168.424 381.827 168.614C381.623 168.805 381.376 168.945 381.108 169.024C380.902 169.161 380.662 169.239 380.415 169.249Z" fill="#263238"/>
<path d="M362.487 118.039C356.367 116.68 349.644 120.001 347.925 126.31C346.269 132.367 350.274 139.441 356.349 141.088C359.345 141.806 362.501 141.401 365.219 139.95C367.937 138.499 370.029 136.102 371.1 133.213C373.278 126.742 369.129 119.767 362.865 117.706C362.145 117.463 361.857 118.606 362.559 118.84C367.896 120.793 371.73 126.553 370.128 132.34C368.616 137.83 362.181 141.502 356.691 140.044C351.408 138.64 347.997 132.97 348.672 127.687C349.491 121.216 356.34 117.346 362.433 118.399C362.658 118.399 362.757 118.102 362.532 118.057L362.487 118.039Z" fill="#263238"/>
<path d="M356.403 140.899C359.506 141.815 362.844 141.48 365.703 139.967C368.563 138.453 370.716 135.88 371.703 132.799C373.611 126.229 369.354 119.119 362.955 117.166C361.479 116.716 360.948 118.894 362.325 119.434C367.725 121.558 371.325 127.435 369.201 133.204C367.293 138.334 361.677 140.809 356.466 140.224C356.052 140.17 355.998 140.818 356.376 140.926L356.403 140.899Z" fill="#FF9356"/>
<path d="M372 151.663C372 151.789 366.438 151.897 359.562 151.897C352.686 151.897 347.124 151.789 347.124 151.663C347.124 151.537 352.695 151.429 359.562 151.429C366.429 151.429 372 151.537 372 151.663Z" fill="#FF9356"/>
<path d="M372 155.434C372 155.569 366.438 155.668 359.562 155.668C352.686 155.668 347.124 155.569 347.124 155.434C347.124 155.299 352.695 155.2 359.562 155.2C366.429 155.2 372 155.308 372 155.434Z" fill="#FF9356"/>
<path d="M202.44 66.28V149.494C202.442 150.381 202.796 151.231 203.423 151.859C204.051 152.486 204.901 152.84 205.788 152.842H316.632C317.519 152.84 318.369 152.486 318.997 151.859C319.624 151.231 319.978 150.381 319.98 149.494V63.4C319.98 62.9527 319.891 62.5098 319.717 62.0976C319.543 61.6855 319.288 61.3123 318.968 61.0002C318.647 60.6881 318.267 60.4434 317.851 60.2806C317.434 60.1177 316.989 60.04 316.542 60.052L205.698 62.932C204.826 62.9577 203.999 63.3215 203.391 63.9463C202.783 64.5712 202.442 65.4081 202.44 66.28Z" fill="#E0E0E0"/>
<path d="M310.08 80.842C310.08 80.932 308.667 80.131 305.985 79.285C302.182 78.0993 298.16 77.7916 294.222 78.385C291.531 78.8109 288.924 79.6614 286.5 80.905C283.732 82.3931 281.169 84.2357 278.877 86.386C276.375 88.6 273.891 91.102 271.029 93.415C268.11 95.9041 264.696 97.7448 261.012 98.815C259.103 99.3079 257.116 99.427 255.162 99.166C253.288 98.8832 251.467 98.3189 249.762 97.492C246.639 95.8627 243.611 94.0599 240.69 92.092C238.073 90.3557 235.187 89.0633 232.149 88.267C229.5 87.6244 226.765 87.4147 224.049 87.646C220.085 87.9759 216.25 89.2073 212.835 91.246C210.432 92.722 209.298 93.82 209.235 93.748C209.477 93.454 209.748 93.1856 210.045 92.947C210.86 92.2148 211.733 91.5496 212.655 90.958C215.538 89.0963 218.766 87.8327 222.148 87.2421C225.529 86.6515 228.994 86.746 232.338 87.52C235.461 88.2996 238.43 89.5987 241.122 91.363C244.025 93.2921 247.029 95.0646 250.122 96.673C253.422 98.3541 257.215 98.7979 260.814 97.924C264.377 96.8745 267.68 95.0868 270.507 92.677C273.333 90.418 275.826 87.925 278.364 85.711C280.722 83.5356 283.354 81.6778 286.194 80.185C288.696 78.9722 291.376 78.1671 294.132 77.8C298.152 77.2379 302.247 77.6358 306.084 78.961C307.121 79.3141 308.129 79.7474 309.099 80.257C309.445 80.4176 309.774 80.6137 310.08 80.842Z" fill="#455A64"/>
<path d="M239.466 100.39H228.621V129.712H239.466V100.39Z" fill="#455A64"/>
<path d="M285.474 100.39H274.629V129.712H285.474V100.39Z" fill="#455A64"/>
<path d="M300.801 83.173H289.956V129.712H300.801V83.173Z" fill="#455A64"/>
<path d="M225.435 120.478H214.59V130.342H225.435V120.478Z" fill="#455A64"/>
<path d="M254.802 113.629H243.957V129.712H254.802V113.629Z" fill="#455A64"/>
<path d="M270.138 109.939H259.293V129.712H270.138V109.939Z" fill="#455A64"/>
<path d="M239.898 133.168C239.898 133.411 237.279 133.6 234.039 133.6C230.799 133.6 228.18 133.411 228.18 133.168C228.18 132.925 230.808 132.736 234.039 132.736C237.27 132.736 239.898 132.925 239.898 133.168Z" fill="#263238"/>
<path d="M226.407 133.168C226.407 133.411 223.779 133.6 220.548 133.6C217.317 133.6 214.689 133.411 214.689 133.168C214.689 132.925 217.317 132.736 220.548 132.736C223.779 132.736 226.407 132.925 226.407 133.168Z" fill="#263238"/>
<path d="M302.943 133.168C302.943 133.411 299.973 133.6 296.319 133.6C292.665 133.6 289.695 133.411 289.695 133.168C289.695 132.925 292.656 132.736 296.319 132.736C299.982 132.736 302.943 132.925 302.943 133.168Z" fill="#263238"/>
<path d="M280.209 133.6C283.867 133.6 286.833 133.407 286.833 133.168C286.833 132.929 283.867 132.736 280.209 132.736C276.551 132.736 273.585 132.929 273.585 133.168C273.585 133.407 276.551 133.6 280.209 133.6Z" fill="#263238"/>
<path d="M270.129 133.168C270.129 133.411 267.51 133.6 264.27 133.6C261.03 133.6 258.42 133.411 258.42 133.168C258.42 132.925 261.039 132.736 264.27 132.736C267.501 132.736 270.129 132.925 270.129 133.168Z" fill="#263238"/>
<path d="M254.289 133.168C254.289 133.411 251.661 133.6 248.43 133.6C245.199 133.6 242.571 133.411 242.571 133.168C242.571 132.925 245.19 132.736 248.43 132.736C251.67 132.736 254.289 132.925 254.289 133.168Z" fill="#263238"/>
<path d="M289.632 169.717H289.812C289.997 169.733 290.177 169.785 290.343 169.87C290.619 170.011 290.846 170.235 290.991 170.509C291.165 170.898 291.23 171.328 291.18 171.751C291.18 173.659 291.18 176.458 291.225 180.049C291.27 183.64 291.225 188.068 291.27 193.189C291.27 195.757 291.27 198.493 291.27 201.397V204.7C291.321 205.109 291.246 205.524 291.054 205.888C290.84 206.264 290.488 206.542 290.073 206.662C289.672 206.734 289.264 206.758 288.858 206.734H286.5L286.662 206.572C286.662 209.164 286.662 211.972 286.662 214.87V215.347L286.347 214.987L278.994 206.698L279.138 206.761H203.34H198.039C197.742 206.761 197.481 206.761 197.139 206.761C196.81 206.72 196.498 206.589 196.239 206.383C195.979 206.167 195.783 205.884 195.672 205.564C195.622 205.4 195.595 205.231 195.591 205.06V185.89C195.591 181.435 195.591 177.052 195.591 172.768V171.148C195.601 170.847 195.69 170.553 195.848 170.296C196.005 170.039 196.227 169.827 196.491 169.681C196.771 169.545 197.08 169.48 197.391 169.492H205.977L249.51 169.546L278.85 169.618L286.833 169.663H278.85L249.51 169.735L205.977 169.789H197.4C197.17 169.773 196.939 169.819 196.734 169.924C196.532 170.028 196.36 170.183 196.237 170.374C196.114 170.566 196.043 170.786 196.032 171.013V185.89C196.032 190.348 196.032 194.881 196.032 199.489V204.7C196.009 204.969 196.03 205.239 196.095 205.501C196.168 205.735 196.309 205.942 196.5 206.095C196.693 206.252 196.927 206.349 197.175 206.374H203.331H279.129H279.219L279.273 206.437L286.608 214.753L286.293 214.87C286.293 211.963 286.293 209.164 286.293 206.572V206.401H288.849C289.224 206.428 289.602 206.413 289.974 206.356C290.307 206.257 290.59 206.035 290.766 205.735C290.946 205.421 291.028 205.061 291 204.7C291 204.322 291 203.944 291 203.575V201.361C291 198.454 291 195.718 291 193.153C291 188.032 291 183.622 291 180.013C291 176.404 291 173.623 291 171.715C291.058 171.307 291.005 170.89 290.847 170.509C290.712 170.244 290.502 170.025 290.244 169.879C290.05 169.791 289.843 169.736 289.632 169.717Z" fill="#263238"/>
<path d="M200.631 200.083C201.387 197.446 202.269 194.755 204.024 192.649C205.779 190.543 208.632 189.13 211.287 189.814C215.49 190.894 217.515 196.492 221.808 197.014C224.184 197.338 226.497 195.916 228.027 194.071C229.557 192.226 230.502 189.985 231.672 187.897C233.472 184.756 235.839 181.849 239.07 180.274C242.301 178.699 246.459 178.69 249.285 180.913C254.127 184.729 253.452 193.153 258.609 196.519C259.863 197.308 261.323 197.706 262.804 197.662C264.285 197.619 265.719 197.137 266.925 196.276C269.22 194.575 270.39 191.641 272.802 190.12C275.592 188.32 279.462 189.049 281.991 191.173C284.52 193.297 285.834 196.573 286.311 199.831" fill="#FF9356"/>
<path d="M284.574 184.945C284.501 184.929 284.431 184.902 284.367 184.864L283.773 184.585C282.996 184.255 282.196 183.984 281.379 183.775C278.342 183.123 275.192 183.216 272.199 184.045C270.134 184.605 268.124 185.352 266.196 186.277C264.099 187.249 261.93 188.437 259.617 189.634C257.205 190.938 254.696 192.052 252.111 192.964C249.315 193.953 246.349 194.367 243.39 194.179C240.446 193.901 237.562 193.172 234.84 192.019C232.185 190.957 229.746 189.706 227.424 188.536C222.798 186.16 218.424 184.261 214.572 183.685C211.517 183.128 208.37 183.357 205.428 184.351C204.361 184.752 203.337 185.255 202.368 185.854C202.421 185.798 202.482 185.75 202.548 185.71L203.088 185.323C203.802 184.865 204.562 184.482 205.356 184.18C208.321 183.104 211.516 182.818 214.626 183.352C218.577 183.901 222.969 185.791 227.613 188.149C229.944 189.31 232.383 190.552 235.011 191.596C237.691 192.726 240.529 193.439 243.426 193.711C246.324 193.896 249.229 193.492 251.967 192.523C254.529 191.63 257.018 190.538 259.41 189.256C261.732 188.059 263.91 186.889 266.034 185.926C267.989 185.004 270.026 184.266 272.118 183.721C275.161 182.904 278.361 182.864 281.424 183.604C282.541 183.873 283.606 184.326 284.574 184.945Z" fill="#263238"/>
<path d="M244.416 179.203C244.425 179.392 244.377 179.579 244.279 179.74C244.181 179.901 244.036 180.029 243.865 180.107C243.693 180.186 243.502 180.211 243.316 180.18C243.129 180.149 242.957 180.063 242.82 179.932C242.683 179.802 242.589 179.634 242.549 179.45C242.508 179.265 242.524 179.073 242.594 178.898C242.664 178.722 242.785 178.572 242.941 178.466C243.098 178.36 243.282 178.303 243.471 178.303C243.713 178.305 243.946 178.399 244.121 178.566C244.297 178.733 244.402 178.961 244.416 179.203Z" fill="#455A64"/>
<path d="M210.504 183.208C210.504 183.395 210.448 183.578 210.345 183.733C210.241 183.888 210.093 184.01 209.92 184.081C209.748 184.153 209.558 184.171 209.374 184.135C209.191 184.098 209.023 184.008 208.891 183.876C208.758 183.744 208.668 183.576 208.632 183.392C208.595 183.209 208.614 183.019 208.686 182.846C208.757 182.674 208.878 182.526 209.034 182.422C209.189 182.318 209.372 182.263 209.559 182.263C209.685 182.257 209.81 182.277 209.928 182.322C210.045 182.367 210.152 182.436 210.241 182.525C210.33 182.614 210.4 182.721 210.445 182.839C210.49 182.956 210.51 183.082 210.504 183.208Z" fill="#455A64"/>
<path d="M277.986 183.217C277.986 183.406 277.93 183.59 277.825 183.747C277.72 183.904 277.571 184.026 277.397 184.098C277.222 184.171 277.031 184.189 276.846 184.153C276.66 184.116 276.49 184.025 276.357 183.892C276.224 183.758 276.133 183.588 276.096 183.403C276.059 183.218 276.078 183.026 276.15 182.852C276.222 182.678 276.345 182.529 276.502 182.424C276.658 182.319 276.843 182.263 277.032 182.263C277.285 182.263 277.527 182.364 277.706 182.542C277.885 182.721 277.986 182.964 277.986 183.217Z" fill="#455A64"/>
<path d="M341.904 316.669H350.337C354.27 316.669 362.703 306.328 316.947 307.507C286.869 308.281 284.889 312.727 286.41 315.319C286.778 315.908 287.301 316.383 287.922 316.693C288.543 317.003 289.238 317.134 289.929 317.074C290.667 317.02 291.639 317.011 292.791 317.02L292.071 320.188L275.331 394.186L278.247 393.934L290.613 353.2L314.202 352.3L315.552 395.608H319.251L320.151 352.075H320.268L322.761 351.985L343.668 351.175L356.061 395.617H359.607L341.904 316.669ZM292.404 347.395L300.657 320.188L301.557 317.11C305.013 317.11 309.054 317.029 313.104 317.029L314.004 346.729L292.404 347.395ZM323.508 346.423H322.608L320.313 346.495L320.925 316.642H334.101L342.201 345.811L323.508 346.423Z" fill="#DDDDDD"/>
<path d="M266.529 390.505V380.938L283.674 380.83L283.809 395.131L282.747 395.212C278.022 395.518 258.69 396.112 255.522 395.122C251.994 394.033 266.529 390.505 266.529 390.505Z" fill="#FF9356"/>
<path d="M255.117 394.249C255.117 394.411 261.525 394.546 269.436 394.546C277.347 394.546 283.755 394.411 283.755 394.249C283.755 394.087 277.347 393.961 269.436 393.961C261.525 393.961 255.117 394.087 255.117 394.249Z" fill="#263238"/>
<path d="M266.232 392.458C266.376 392.386 266.232 391.882 265.881 391.378C265.53 390.874 265.071 390.613 264.981 390.73C264.891 390.847 265.098 391.261 265.44 391.729C265.782 392.197 266.088 392.539 266.232 392.458Z" fill="#263238"/>
<path d="M265.134 393.088C265.287 393.034 265.206 392.467 264.873 391.873C264.54 391.279 264.09 390.91 263.973 390.973C263.856 391.036 264.063 391.567 264.378 392.116C264.693 392.665 264.981 393.151 265.134 393.088Z" fill="#263238"/>
<path d="M278.589 394.186C278.661 394.186 278.913 393.979 279.282 393.556C279.737 393.011 280.24 392.508 280.785 392.053C281.323 391.627 281.961 391.348 282.639 391.243C283.161 391.171 283.539 391.243 283.539 391.171C283.539 391.099 283.251 390.874 282.639 390.829C281.841 390.823 281.065 391.094 280.443 391.594C279.845 392.072 279.341 392.658 278.958 393.322C278.661 393.808 278.526 394.141 278.589 394.186Z" fill="#263238"/>
<path d="M266.178 390.658C266.097 390.793 266.385 391.126 266.88 391.306C267.375 391.486 267.78 391.423 267.834 391.306C267.888 391.189 267.51 390.955 267.078 390.793C266.646 390.631 266.259 390.523 266.178 390.658Z" fill="#263238"/>
<path d="M266.448 389.74C266.448 389.893 266.889 390.037 267.465 390.037C268.041 390.037 268.509 389.92 268.5 389.767C268.491 389.614 268.032 389.47 267.474 389.461C266.916 389.452 266.466 389.578 266.448 389.74Z" fill="#263238"/>
<path d="M302.7 390.505V380.938L319.845 380.83L319.98 395.131L318.918 395.212C314.193 395.518 294.861 396.112 291.693 395.122C288.174 394.033 302.7 390.505 302.7 390.505Z" fill="#FF9356"/>
<path d="M291.297 394.249C291.297 394.411 297.714 394.546 305.616 394.546C313.518 394.546 319.935 394.411 319.935 394.249C319.935 394.087 313.527 393.961 305.616 393.961C297.705 393.961 291.297 394.087 291.297 394.249Z" fill="#263238"/>
<path d="M302.412 392.458C302.556 392.386 302.412 391.882 302.061 391.378C301.71 390.874 301.251 390.613 301.161 390.73C301.071 390.847 301.287 391.261 301.62 391.729C301.953 392.197 302.268 392.539 302.412 392.458Z" fill="#263238"/>
<path d="M301.314 393.088C301.467 393.034 301.386 392.467 301.053 391.873C300.72 391.279 300.27 390.91 300.153 390.973C300.036 391.036 300.243 391.567 300.558 392.116C300.873 392.665 301.17 393.151 301.314 393.088Z" fill="#263238"/>
<path d="M314.769 394.186C314.841 394.186 315.093 393.979 315.462 393.556C315.917 393.011 316.42 392.508 316.965 392.053C317.503 391.627 318.141 391.348 318.819 391.243C319.341 391.171 319.719 391.243 319.719 391.171C319.719 391.099 319.422 390.874 318.819 390.829C318.021 390.823 317.245 391.094 316.623 391.594C316.025 392.072 315.521 392.658 315.138 393.322C314.841 393.808 314.706 394.141 314.769 394.186Z" fill="#263238"/>
<path d="M302.358 390.658C302.277 390.793 302.574 391.126 303.06 391.306C303.546 391.486 303.96 391.423 304.014 391.306C304.068 391.189 303.69 390.955 303.258 390.793C302.826 390.631 302.448 390.523 302.358 390.658Z" fill="#263238"/>
<path d="M302.628 389.74C302.628 389.893 303.069 390.037 303.645 390.037C304.221 390.037 304.689 389.92 304.68 389.767C304.671 389.614 304.212 389.47 303.654 389.461C303.096 389.452 302.646 389.578 302.628 389.74Z" fill="#263238"/>
<path d="M351.822 218.902C351.12 218.74 350.247 218.83 349.824 218.245C349.401 217.66 349.707 216.976 349.932 216.355C350.685 214.363 350.707 212.169 349.995 210.163C349.485 208.84 348.584 207.704 347.412 206.905C347.584 206.74 347.732 206.552 347.853 206.347C348.185 205.747 348.353 205.07 348.339 204.385C348.361 203.775 348.255 203.168 348.027 202.602C347.799 202.036 347.455 201.524 347.016 201.1C346.63 200.75 346.128 200.557 345.607 200.557C345.087 200.557 344.585 200.75 344.199 201.1C344.056 201.235 343.942 201.397 343.864 201.577C343.786 201.758 343.746 201.952 343.746 202.149C343.746 202.345 343.786 202.539 343.864 202.72C343.942 202.9 344.056 203.062 344.199 203.197C344.388 203.351 344.616 203.449 344.858 203.479C345.1 203.51 345.346 203.471 345.567 203.368C345.864 203.215 345.909 203.026 345.909 203.026C345.797 203.132 345.67 203.22 345.531 203.287C345.326 203.359 345.107 203.376 344.893 203.336C344.68 203.297 344.481 203.202 344.316 203.062C344.198 202.94 344.107 202.795 344.048 202.636C343.989 202.477 343.964 202.308 343.974 202.138C343.985 201.969 344.03 201.804 344.107 201.653C344.184 201.502 344.292 201.369 344.424 201.262C344.768 200.975 345.207 200.828 345.655 200.848C346.103 200.868 346.527 201.054 346.845 201.37C347.232 201.769 347.533 202.243 347.728 202.764C347.923 203.284 348.008 203.839 347.979 204.394C347.991 205.009 347.836 205.616 347.529 206.149C347.408 206.349 347.259 206.53 347.088 206.689C346.607 206.399 346.085 206.184 345.54 206.05C344.379 205.771 343.119 205.843 342.057 205.294C341.171 204.788 340.497 203.979 340.158 203.017C340.158 202.918 340.158 202.81 340.158 202.702C340.285 201.137 340.498 199.581 340.797 198.04C340.997 196.543 340.957 195.024 340.68 193.54C340.473 192.274 339.978 191.072 339.234 190.026C338.489 188.981 337.516 188.12 336.387 187.51C335.612 187.128 334.763 186.922 333.899 186.907C333.036 186.891 332.18 187.067 331.392 187.42C330.97 187.613 330.581 187.871 330.24 188.185L330.051 188.383C329.519 188.647 329.05 189.021 328.674 189.481L325.902 214.483L346.233 226.912C347.816 226.859 349.38 226.555 350.868 226.012C351.609 225.729 352.275 225.278 352.812 224.694C353.35 224.11 353.744 223.409 353.964 222.646C354.152 221.866 354.035 221.044 353.637 220.348C353.239 219.652 352.589 219.135 351.822 218.902ZM338.475 192.721C338.12 191.734 337.572 190.828 336.862 190.055C336.153 189.283 335.297 188.659 334.344 188.221C333.017 187.701 331.539 187.727 330.231 188.293C330.595 188.013 330.994 187.783 331.419 187.609C332.184 187.299 333.007 187.158 333.832 187.196C334.657 187.233 335.464 187.448 336.198 187.825C337.263 188.428 338.177 189.264 338.872 190.271C339.567 191.278 340.025 192.43 340.212 193.639C340.464 195.072 340.494 196.535 340.302 197.977C340.185 199.102 339.87 200.236 339.726 201.442C339.614 200.588 339.548 199.729 339.528 198.868C339.524 196.775 339.168 194.697 338.475 192.721Z" fill="#263238"/>
<path d="M332.454 192.685C332.332 192.206 332.053 191.781 331.662 191.479C330.893 191.131 330.02 191.092 329.223 191.371L329.178 185.629L318 176.539L311.979 179.662C310.437 180.464 309.146 181.677 308.25 183.167C307.354 184.657 306.888 186.366 306.903 188.104C306.948 192.73 307.065 199.003 307.371 202.567C307.893 208.687 314.085 209.191 314.085 209.191C314.085 209.191 314.355 211.396 314.535 213.583C314.535 213.583 313.176 231.7 319.548 231.538C324.246 231.421 327.405 221.548 328.737 216.355L329.448 213.502V213.349V213.232L329.313 196.051L329.502 196.249C329.705 196.421 329.954 196.53 330.218 196.562C330.482 196.594 330.749 196.548 330.987 196.429C331.325 196.279 331.629 196.062 331.881 195.791C332.134 195.521 332.328 195.202 332.454 194.854C332.693 194.151 332.693 193.388 332.454 192.685Z" fill="#FFBE9D"/>
<path d="M308.325 192.577C308.326 192.68 308.348 192.782 308.389 192.877C308.43 192.971 308.49 193.057 308.565 193.128C308.639 193.199 308.727 193.255 308.824 193.292C308.92 193.329 309.023 193.346 309.126 193.342C309.334 193.342 309.533 193.26 309.68 193.113C309.827 192.966 309.909 192.767 309.909 192.559C309.909 192.351 309.827 192.152 309.68 192.005C309.533 191.858 309.334 191.776 309.126 191.776C309.02 191.772 308.914 191.79 308.815 191.829C308.716 191.868 308.627 191.927 308.551 192.002C308.476 192.077 308.417 192.167 308.378 192.266C308.34 192.365 308.321 192.471 308.325 192.577Z" fill="#263238"/>
<path d="M307.542 191.749C307.641 191.848 308.208 191.335 309.054 191.272C309.9 191.209 310.539 191.596 310.629 191.479C310.719 191.362 310.557 191.245 310.278 191.065C309.901 190.825 309.454 190.717 309.009 190.759C308.565 190.797 308.146 190.977 307.812 191.272C307.569 191.497 307.488 191.704 307.542 191.749Z" fill="#263238"/>
<path d="M317.415 192.307C317.415 192.515 317.498 192.714 317.644 192.861C317.791 193.008 317.99 193.09 318.198 193.09C318.406 193.09 318.605 193.008 318.752 192.861C318.899 192.714 318.981 192.515 318.981 192.307C318.981 192.099 318.899 191.9 318.752 191.753C318.605 191.607 318.406 191.524 318.198 191.524C317.99 191.524 317.791 191.607 317.644 191.753C317.498 191.9 317.415 192.099 317.415 192.307Z" fill="#263238"/>
<path d="M316.911 191.47C317.01 191.569 317.577 191.065 318.423 190.993C319.269 190.921 319.908 191.317 319.998 191.209C320.088 191.101 319.926 190.966 319.647 190.786C319.267 190.556 318.823 190.452 318.38 190.489C317.937 190.526 317.518 190.703 317.181 190.993C316.938 191.2 316.857 191.425 316.911 191.47Z" fill="#263238"/>
<path d="M314.022 198.724C313.566 198.819 313.101 198.855 312.636 198.832C312.514 198.849 312.389 198.849 312.267 198.832C312.186 198.815 312.111 198.779 312.047 198.728C311.983 198.676 311.932 198.61 311.898 198.535C311.812 198.238 311.831 197.92 311.952 197.635L312.465 195.835C312.856 194.298 313.365 192.794 313.986 191.335C313.713 192.895 313.321 194.433 312.816 195.934L312.276 197.734C312.175 197.944 312.141 198.179 312.177 198.409C312.222 198.562 312.42 198.589 312.636 198.589C313.102 198.568 313.569 198.614 314.022 198.724Z" fill="#263238"/>
<path d="M316.947 199.408C317.001 199.345 314.508 200.911 312.789 200.956C313.107 201.378 313.559 201.679 314.07 201.812C314.582 201.944 315.123 201.899 315.606 201.685C316.075 201.544 316.474 201.232 316.723 200.809C316.972 200.387 317.052 199.887 316.947 199.408Z" fill="#FAFAFA"/>
<path d="M314.049 209.2C316.957 209.008 319.749 207.987 322.095 206.257C322.095 206.257 320.367 210.802 314.22 210.694L314.049 209.2Z" fill="#EB996E"/>
<path d="M306.012 188.842C308.712 189.211 310.647 188.482 313.257 187.825C315.867 187.168 318.351 185.449 319.26 182.911C319.573 184.589 320.346 186.147 321.492 187.411C321.735 187.681 322.203 187.933 322.392 187.636C322.433 187.549 322.454 187.453 322.454 187.357C322.454 187.261 322.433 187.165 322.392 187.078L321.852 184.936C322.777 186.625 323.978 188.146 325.407 189.436C326.901 190.633 331.446 192.487 330.753 190.705C330.582 190.255 332.103 176.377 318.909 176.17C305.715 175.963 306.012 188.842 306.012 188.842Z" fill="#263238"/>
<path d="M329.394 192.793C329.349 192.793 329.619 192.478 330.186 192.496C330.475 192.519 330.751 192.625 330.981 192.803C331.21 192.98 331.384 193.22 331.479 193.494C331.574 193.768 331.588 194.063 331.518 194.345C331.448 194.626 331.298 194.881 331.086 195.079C330.835 195.298 330.519 195.428 330.186 195.448C329.619 195.448 329.358 195.178 329.394 195.142C329.43 195.106 329.718 195.205 330.15 195.142C330.418 195.094 330.661 194.953 330.836 194.744C331.011 194.535 331.107 194.272 331.107 193.999C331.107 193.726 331.011 193.462 330.836 193.254C330.661 193.045 330.418 192.904 330.15 192.856C329.7 192.73 329.421 192.865 329.394 192.793Z" fill="#EB996E"/>
<path d="M351.3 235.903L353.568 235.444C353.568 235.444 348.627 213.232 331.455 213.232H329.43V213.34V213.493L328.719 216.346C327.387 221.539 324.219 231.412 319.53 231.529C313.581 231.682 314.373 215.941 314.499 213.817C314.35 213.834 314.204 213.874 314.067 213.934C314.067 213.934 295.392 214.969 287.067 231.349L301.467 241.87L304.986 239.746C304.986 239.746 306.138 262.912 304.158 269.221C301.926 276.349 298.47 284.242 298.47 284.242C314.301 283.009 332.31 283.72 351.507 285.493L338.7 238.468C343.003 238.24 347.25 237.375 351.3 235.903Z" fill="#FF9356"/>
<path d="M335.892 247C335.892 247 335.775 247.207 335.487 247.504C335.072 247.913 334.617 248.278 334.128 248.593C332.491 249.66 330.564 250.194 328.611 250.123C326.658 250.052 324.775 249.379 323.22 248.197C322.751 247.85 322.322 247.452 321.942 247.009C321.672 246.694 321.555 246.496 321.582 246.478C321.609 246.46 322.221 247.126 323.382 247.927C324.922 248.987 326.732 249.586 328.6 249.655C330.468 249.724 332.317 249.258 333.93 248.314C335.199 247.612 335.829 247 335.892 247Z" fill="#263238"/>
<path d="M344.208 259.375C344.043 259.017 343.913 258.643 343.821 258.259C343.569 257.449 343.263 256.459 342.921 255.199C342.147 252.616 341.121 249.043 339.843 245.128C338.565 241.213 337.413 237.667 336.549 235.111C336.153 233.905 335.811 232.888 335.541 232.078C335.392 231.717 335.286 231.339 335.226 230.953C335.421 231.294 335.584 231.653 335.712 232.024C336 232.717 336.396 233.734 336.864 235.003C337.809 237.532 339.042 241.051 340.284 244.984C341.526 248.917 342.552 252.499 343.236 255.109C343.578 256.414 343.848 257.476 344.01 258.214C344.12 258.592 344.187 258.982 344.208 259.375Z" fill="#263238"/>
<path d="M338.637 223.852C337.83 223.835 337.039 223.621 336.333 223.231C335.566 222.984 334.866 222.562 334.29 221.998C335.069 222.15 335.819 222.424 336.513 222.808C337.27 223.047 337.986 223.399 338.637 223.852Z" fill="#263238"/>
<path d="M343.065 231.556C343.118 230.651 343.328 229.761 343.686 228.928C343.901 228.044 344.266 227.204 344.766 226.444C344.702 227.349 344.489 228.237 344.136 229.072C343.922 229.955 343.56 230.795 343.065 231.556Z" fill="#263238"/>
<path d="M327.648 237.1C327.846 236.275 328.17 235.485 328.611 234.76C328.913 233.965 329.332 233.219 329.853 232.546C329.511 234.225 328.753 235.791 327.648 237.1Z" fill="#263238"/>
<path d="M324.858 241.978C324.056 241.559 323.355 240.969 322.806 240.25C322.142 239.631 321.626 238.871 321.294 238.027C322.59 239.253 323.794 240.573 324.894 241.978H324.858Z" fill="#263238"/>
<path d="M336 241.24C335.532 242.215 334.878 243.09 334.074 243.814C333.405 244.535 332.66 245.181 331.851 245.74L331.185 246.145L331.707 245.614C331.833 245.488 331.914 245.434 331.941 245.452C331.968 245.47 331.941 245.569 331.869 245.722L331.725 245.596C332.04 245.218 332.841 244.435 333.741 243.49C334.424 242.672 335.18 241.919 336 241.24Z" fill="#263238"/>
<path d="M338.421 257.305C337.529 257.154 336.683 256.804 335.946 256.279C335.127 255.887 334.409 255.311 333.849 254.596C334.673 254.931 335.455 255.36 336.18 255.874C336.984 256.255 337.737 256.736 338.421 257.305Z" fill="#263238"/>
<path d="M327.144 253.633C326.839 254.494 326.385 255.296 325.803 256C325.347 256.792 324.763 257.504 324.075 258.106C324.376 257.243 324.83 256.441 325.416 255.739C325.873 254.947 326.456 254.235 327.144 253.633Z" fill="#263238"/>
<path d="M319.746 254.362C319.044 254.103 318.404 253.702 317.865 253.183C316.902 252.436 316.191 251.743 316.272 251.644C316.353 251.545 317.172 252.067 318.153 252.814C319.134 253.561 319.8 254.254 319.746 254.362Z" fill="#263238"/>
<path d="M315.741 243.4C315.813 243.508 315.111 244.138 314.166 244.813C313.221 245.488 312.366 245.947 312.366 245.839C312.366 245.731 312.987 245.101 313.932 244.426C314.459 243.965 315.075 243.616 315.741 243.4Z" fill="#263238"/>
<path d="M314.211 237.847C314.112 237.928 313.464 237.244 312.762 236.326C312.06 235.408 311.583 234.589 311.682 234.526C311.781 234.463 312.438 235.138 313.131 236.056C313.824 236.974 314.319 237.775 314.211 237.847Z" fill="#263238"/>
<path d="M330.258 223.087C330.408 222.305 330.714 221.561 331.158 220.9C331.467 220.166 331.913 219.497 332.472 218.929C332.319 219.713 332.013 220.459 331.572 221.125C331.265 221.858 330.818 222.524 330.258 223.087Z" fill="#263238"/>
<path d="M310.206 224.023C309.377 223.779 308.597 223.392 307.902 222.88C307.129 222.493 306.431 221.972 305.841 221.341C306.674 221.574 307.456 221.961 308.145 222.484C308.919 222.868 309.618 223.389 310.206 224.023Z" fill="#263238"/>
<path d="M299.703 221.332C299.82 221.395 299.487 222.169 298.965 223.042C298.443 223.915 297.93 224.59 297.813 224.518C297.696 224.446 298.038 223.69 298.56 222.808C299.082 221.926 299.595 221.269 299.703 221.332Z" fill="#263238"/>
<path d="M310.629 282.1C309.099 281.473 307.706 280.556 306.525 279.4C307.318 279.65 308.057 280.047 308.703 280.57C309.43 280.963 310.081 281.481 310.629 282.1Z" fill="#263238"/>
<path d="M340.707 278.878C340.806 278.968 340.149 279.832 339.24 280.822C338.331 281.812 337.53 282.532 337.44 282.442C337.35 282.352 337.998 281.488 338.907 280.498C339.816 279.508 340.617 278.788 340.707 278.878Z" fill="#263238"/>
<path d="M320.268 282.253C320.232 281.053 320.232 279.853 320.268 278.653C320.385 278.653 320.709 279.418 320.709 280.453C320.779 281.086 320.623 281.724 320.268 282.253Z" fill="#263238"/>
<path d="M330.906 282.424C330.114 282.21 329.369 281.85 328.71 281.362C327.972 281.004 327.31 280.509 326.757 279.904C328.288 280.472 329.696 281.327 330.906 282.424Z" fill="#263238"/>
<path d="M351.525 285.502C351.346 285.522 351.165 285.522 350.985 285.502L349.437 285.376L343.767 284.872C338.979 284.458 332.364 283.864 325.038 283.747C317.712 283.63 311.061 283.792 306.264 283.972L300.576 284.215L299.028 284.278C298.849 284.303 298.667 284.303 298.488 284.278L299.019 284.197L300.567 284.053C301.899 283.936 303.843 283.801 306.246 283.657C311.052 283.387 317.694 283.153 325.047 283.297C332.4 283.441 339.015 284.062 343.803 284.557C346.188 284.818 348.123 285.043 349.455 285.214L350.994 285.421C351.174 285.426 351.352 285.453 351.525 285.502Z" fill="#263238"/>
<g opacity="0.2">
<path d="M335.208 230.953L339.708 260.878C339.708 260.878 343.875 260.878 344.64 259.636L335.208 230.953Z" fill="black"/>
<path d="M335.208 230.953L339.708 260.878C339.708 260.878 343.875 260.878 344.64 259.636L335.208 230.953Z" fill="black"/>
</g>
<path d="M309.081 283.684C298.488 284.503 292.701 283.774 281.046 284.872C277.108 285.391 273.485 287.303 270.834 290.261C268.183 293.219 266.678 297.029 266.592 301L264.549 389.029H285.96L289.344 310.108L295.644 310.909C294.834 340.465 297.921 389.029 297.921 389.029L321.699 387.868L320.34 312.07C320.34 312.07 352.317 314.239 351.516 285.529C351.525 285.502 326.343 282.451 309.081 283.684Z" fill="#080403"/>
<path d="M315.48 283.459C314.946 283.579 314.405 283.669 313.86 283.729C312.816 283.891 311.304 284.116 309.45 284.458C307.275 284.762 305.145 285.327 303.105 286.141C301.929 286.662 300.839 287.36 299.874 288.211C298.847 289.128 298.015 290.242 297.426 291.487C296.351 293.948 295.828 296.614 295.896 299.299C295.896 301.783 295.986 304.042 295.968 305.932C295.95 307.822 295.887 309.352 295.815 310.432C295.815 310.963 295.743 311.377 295.707 311.647C295.701 311.79 295.68 311.932 295.644 312.07C295.605 311.525 295.605 310.977 295.644 310.432C295.644 309.37 295.644 307.849 295.644 305.932C295.644 304.015 295.536 301.774 295.473 299.299C295.378 296.544 295.904 293.804 297.012 291.28C297.63 289.982 298.502 288.822 299.577 287.869C300.579 286.991 301.712 286.274 302.934 285.745C305.015 284.936 307.189 284.392 309.405 284.125C311.268 283.828 312.798 283.648 313.851 283.549C314.373 283.504 314.751 283.468 315.066 283.459C315.203 283.437 315.343 283.437 315.48 283.459Z" fill="#455A64"/>
<path d="M287.454 304.6C287.917 305.466 288.305 306.369 288.615 307.3C289.074 308.179 289.324 309.153 289.344 310.144C288.881 309.278 288.493 308.375 288.183 307.444C287.72 306.567 287.47 305.592 287.454 304.6Z" fill="#455A64"/>
<path d="M289.2 302.8C289.604 303.957 289.814 305.174 289.821 306.4C289.961 307.638 289.8 308.891 289.353 310.054C289.209 310.054 289.452 308.416 289.353 306.454C289.254 304.492 289.038 302.8 289.2 302.8Z" fill="#455A64"/>
<path d="M318.729 304.465C319.275 305.648 319.636 306.908 319.8 308.2C320.1 309.46 320.296 310.742 320.385 312.034C319.842 310.849 319.489 309.585 319.341 308.29C319.03 307.035 318.825 305.755 318.729 304.465Z" fill="#455A64"/>
<path d="M320.871 304.447C321.407 306.971 321.264 309.592 320.457 312.043C320.466 310.773 320.547 309.505 320.7 308.245C320.691 306.977 320.748 305.709 320.871 304.447Z" fill="#455A64"/>
<path d="M285.411 383.863C285.411 383.989 280.722 384.097 274.935 384.097C269.148 384.097 264.459 383.989 264.459 383.863C264.459 383.737 269.148 383.629 274.935 383.629C280.722 383.629 285.411 383.728 285.411 383.863Z" fill="#455A64"/>
<path d="M321.411 383.467C321.411 383.593 316.074 383.701 309.495 383.701C302.916 383.701 297.579 383.593 297.579 383.467C297.579 383.341 302.916 383.233 309.495 383.233C316.074 383.233 321.411 383.341 321.411 383.467Z" fill="#455A64"/>
<path d="M348.681 298.678H348.384H347.484H344.064L331.464 298.741H322.779C321.182 298.736 319.591 298.917 318.036 299.281C316.398 299.654 314.932 300.563 313.869 301.864C312.862 303.318 312.325 305.045 312.33 306.814C312.24 308.614 312.438 310.495 312.51 312.412C312.606 316.24 312.711 320.185 312.825 324.247C313.284 340.447 313.662 355.126 313.797 365.755C313.869 371.065 313.887 375.367 313.887 378.355C313.887 379.819 313.887 380.962 313.887 381.784C313.887 382.153 313.887 382.441 313.887 382.684C313.901 382.786 313.901 382.888 313.887 382.99C313.875 382.888 313.875 382.786 313.887 382.684C313.887 382.459 313.887 382.171 313.887 381.784C313.887 380.965 313.887 379.822 313.824 378.355C313.761 375.358 313.68 371.065 313.581 365.755C313.356 355.135 312.933 340.456 312.474 324.247C312.366 320.197 312.267 316.246 312.168 312.421C312.096 310.522 311.907 308.641 312.006 306.778C312.005 304.922 312.577 303.112 313.644 301.594C314.766 300.226 316.317 299.275 318.045 298.894C319.636 298.527 321.264 298.346 322.896 298.354H331.581L344.181 298.444L347.601 298.498H348.501C348.567 298.552 348.627 298.612 348.681 298.678Z" fill="#455A64"/>
<path opacity="0.2" d="M293.115 310.558C293.115 310.558 292.287 299.893 296.292 293.764L295.653 310.864L293.115 310.558Z" fill="black"/>
<path d="M294.843 300.415C294.765 300.427 294.687 300.427 294.609 300.415L293.907 300.289C293.286 300.172 292.386 299.992 291.207 299.857C289.787 299.682 288.348 299.768 286.959 300.109C286.099 300.336 285.288 300.717 284.565 301.234C283.773 301.823 283.139 302.599 282.72 303.493C281.82 305.383 281.712 307.75 281.658 310.234C281.604 312.718 281.532 315.4 281.46 318.208C281.307 323.824 281.145 329.998 280.974 336.478C280.596 349.42 280.245 361.138 279.993 369.67C279.849 373.882 279.723 377.311 279.642 379.723C279.588 380.884 279.552 381.802 279.525 382.423C279.525 382.711 279.525 382.945 279.48 383.134C279.492 383.215 279.492 383.296 279.48 383.377C279.466 383.297 279.466 383.214 279.48 383.134C279.48 382.945 279.48 382.711 279.48 382.423C279.48 381.757 279.48 380.839 279.48 379.723C279.525 377.302 279.597 373.882 279.678 369.661C279.894 361.129 280.2 349.411 280.524 336.46C280.713 329.98 280.884 323.815 281.046 318.199C281.127 315.391 281.208 312.718 281.289 310.225C281.37 307.732 281.46 305.32 282.441 303.349C282.893 302.412 283.57 301.602 284.412 300.991C285.166 300.462 286.011 300.077 286.905 299.857C288.33 299.523 289.805 299.461 291.252 299.677C292.431 299.839 293.331 300.055 293.952 300.19L294.645 300.37C294.771 300.379 294.852 300.406 294.843 300.415Z" fill="#455A64"/>
<path d="M293.187 232.528C293.187 232.528 270.588 255.199 266.277 260.266C262.596 264.595 264.999 272.758 268.077 273.109C271.155 273.46 320.979 272.785 320.979 272.785L320.322 262.597C320.322 262.597 288.048 262.741 287.103 262.147C286.158 261.553 305.769 241.726 305.769 241.726L293.187 232.528Z" fill="#FFBE9D"/>
<path d="M352.947 235.489C352.947 235.489 359.814 256.306 360.642 258.763C361.47 261.22 365.736 271.633 357.636 272.506C349.536 273.379 306.066 272.506 306.066 272.506L302.835 261.985C302.835 261.985 344.847 261.877 344.64 259.636C344.433 257.395 338.259 238.594 338.259 238.594L352.947 235.489Z" fill="#FFBE9D"/>
<path d="M261.21 229L276.825 272.254L348.708 272.227L348.213 270.112L321.24 269.122L307.965 228.334L261.21 229Z" fill="#080403"/>
<path d="M293.25 248.692C293.26 249.179 293.13 249.658 292.876 250.074C292.621 250.489 292.253 250.823 291.815 251.035C291.377 251.248 290.887 251.33 290.403 251.273C289.919 251.215 289.462 251.02 289.086 250.711C288.71 250.401 288.43 249.991 288.28 249.527C288.13 249.064 288.117 248.567 288.24 248.096C288.364 247.625 288.62 247.199 288.979 246.869C289.337 246.54 289.783 246.319 290.262 246.235C290.983 246.17 291.701 246.391 292.26 246.851C292.819 247.31 293.175 247.972 293.25 248.692Z" fill="#FAFAFA"/>
<path d="M385.887 271.309H216.075H214.23H212.394V395.5H216.075V278.626H385.887V395.59H429.294V278.626V271.309H385.887Z" fill="#DDDDDD"/>
<path d="M177.055 390.464V381.167L160.405 381.059L160.261 394.964L161.296 395.036C165.895 395.333 184.696 395.936 187.756 394.955C191.203 393.893 177.055 390.464 177.055 390.464Z" fill="#FF9356"/>
<path d="M188.152 394.109C188.152 394.262 181.924 394.388 174.238 394.388C166.552 394.388 160.324 394.262 160.324 394.109C160.324 393.956 166.552 393.821 174.238 393.821C181.924 393.821 188.152 393.947 188.152 394.109Z" fill="#263238"/>
<path d="M177.352 392.363C177.217 392.291 177.352 391.796 177.685 391.319C178.018 390.842 178.486 390.572 178.585 390.68C178.684 390.788 178.468 391.202 178.135 391.652C177.802 392.102 177.487 392.435 177.352 392.363Z" fill="#263238"/>
<path d="M178.414 392.975C178.27 392.921 178.342 392.372 178.675 391.796C179.008 391.22 179.431 390.896 179.575 390.959C179.719 391.022 179.494 391.526 179.188 392.066C178.882 392.606 178.603 393.029 178.414 392.975Z" fill="#263238"/>
<path d="M165.337 394.046C165.274 394.091 165.022 393.848 164.662 393.434C164.225 392.902 163.736 392.413 163.204 391.976C162.683 391.559 162.063 391.286 161.404 391.184C160.891 391.112 160.567 391.184 160.504 391.112C160.441 391.04 160.783 390.824 161.404 390.788C162.18 390.771 162.937 391.033 163.537 391.526C164.115 391.991 164.603 392.559 164.977 393.2C165.274 393.677 165.4 394.001 165.337 394.046Z" fill="#263238"/>
<path d="M177.397 390.617C177.487 390.752 177.199 391.067 176.722 391.247C176.245 391.427 175.822 391.355 175.822 391.202C175.822 391.049 176.137 390.869 176.551 390.716C176.965 390.563 177.316 390.482 177.397 390.617Z" fill="#263238"/>
<path d="M177.136 389.717C177.136 389.87 176.713 390.005 176.146 390.014C175.579 390.023 175.138 389.897 175.147 389.744C175.156 389.591 175.606 389.456 176.146 389.447C176.686 389.438 177.127 389.564 177.136 389.717Z" fill="#263238"/>
<path d="M225.403 113.192L225.556 110.375C225.83 108.816 225.948 107.233 225.907 105.65C225.905 104.864 225.765 104.084 225.493 103.346C225.195 102.411 224.771 101.521 224.233 100.7C224.099 100.565 224.011 100.39 223.982 100.201C223.953 100.013 223.985 99.8197 224.073 99.6504C224.162 99.4811 224.301 99.3442 224.472 99.2595C224.643 99.1748 224.837 99.1467 225.025 99.1792C225.817 99.3862 227.437 101.267 228.175 104.075C228.913 106.883 230.803 102.725 231.514 101.222C232.225 99.7192 234.673 95.1742 235.303 95.0302C236.203 94.8142 236.644 95.7772 235.888 97.2622C235.132 98.7472 233.188 103.355 234.016 103.697C234.603 103.541 235.217 103.514 235.816 103.616C235.91 103.637 235.996 103.686 236.062 103.757C236.128 103.828 236.171 103.917 236.185 104.012C236.22 104.453 236.308 104.888 236.446 105.308C236.446 105.308 237.562 104.948 237.841 105.425C238.048 105.921 238.172 106.447 238.21 106.982C238.21 106.982 239.056 106.613 239.506 106.901C240.469 107.531 239.425 108.854 239.425 108.854C237.13 112.158 234.626 115.311 231.928 118.295L225.385 113.03" fill="#FFBE9D"/>
<path d="M145.348 113.003L145.24 148.904L160.603 149.615L161.044 140.885C161.044 140.885 166.516 141.974 167.929 136.889C168.829 133.649 168.604 108.566 168.604 108.566L145.348 113.003Z" fill="#FFBE9D"/>
<path d="M167.803 103.022C163.114 104.534 161.989 105.047 159.883 105.209C157.777 105.371 143.521 105.389 142.216 113.426C142.04 113.048 141.905 112.653 141.811 112.247C141.706 111.459 141.649 110.666 141.64 109.871C141.414 110.239 141.272 110.653 141.224 111.082C141.176 111.511 141.222 111.946 141.361 112.355C141.397 112.53 141.448 112.702 141.514 112.868C141.415 112.778 141.325 112.679 141.217 112.589C140.7 112.131 140.084 111.799 139.417 111.617C138.904 111.491 138.571 111.518 138.517 111.617C139.355 111.979 140.149 112.435 140.884 112.976C141.361 113.39 141.771 113.876 142.099 114.416C142.099 114.416 142.099 114.488 142.099 114.524C142.099 114.56 139.03 113.174 139.84 118.736C140.65 124.298 144.277 129.023 144.727 138.131C144.727 138.131 157.444 139.643 159.712 134.756L161.611 129.149C161.611 129.149 158.551 128.645 158.911 126.188C159.406 122.777 162.007 122.696 163.951 124.208L166.183 118.232C166.183 118.232 171.835 114.524 172.159 112.157C172.483 109.79 172.447 101.501 167.803 103.022Z" fill="#263238"/>
<path d="M102.742 383.516L100.492 393.56L116.035 395.486L116.593 385.532L102.742 383.516Z" fill="#FF9356"/>
<path d="M109.762 384.011C109.753 385.56 109.584 387.105 109.258 388.619C109.082 390.148 108.753 391.656 108.277 393.119C108.465 390.029 108.962 386.966 109.762 383.975V384.011Z" fill="#263238"/>
<path d="M116.098 394.415C115.341 394.391 114.588 394.297 113.848 394.136L108.448 393.236C106.333 392.885 104.434 392.534 103.048 392.228C102.3 392.105 101.567 391.902 100.861 391.625C101.619 391.639 102.373 391.733 103.111 391.904L108.511 392.804C110.617 393.155 112.525 393.506 113.911 393.812C114.661 393.927 115.395 394.13 116.098 394.415Z" fill="#263238"/>
<path d="M125.8 225.647L97 387.359L121.642 388.754C121.642 388.754 147.814 249.362 151.657 249.02C153.268 248.867 153.916 387.62 155.203 387.359C156.49 387.098 181.834 387.809 181.834 387.809C181.834 387.809 178.405 223.595 178.468 223.595L125.8 225.647Z" fill="#080403"/>
<path d="M162.205 245.618C162.205 245.744 157.957 246.761 152.665 247.886C147.373 249.011 143.053 249.821 143.026 249.686C142.999 249.551 147.274 248.543 152.566 247.418C157.858 246.293 162.178 245.492 162.205 245.618Z" fill="#455A64"/>
<path d="M123.469 379.259C123.469 379.394 117.898 379.322 111.031 379.115C104.164 378.908 98.6021 378.62 98.6021 378.494C98.6021 378.368 104.173 378.431 111.04 378.638C117.907 378.845 123.469 379.115 123.469 379.259Z" fill="#455A64"/>
<path d="M181.672 379.277C181.672 379.403 175.651 379.331 168.244 379.106C160.837 378.881 154.825 378.602 154.825 378.476C154.825 378.35 160.837 378.422 168.253 378.638C175.669 378.854 181.672 379.115 181.672 379.277Z" fill="#455A64"/>
<path d="M138.103 250.1C138.229 250.1 132.136 278.972 124.486 314.522C116.836 350.072 110.536 378.881 110.41 378.854C110.284 378.827 116.377 349.991 124.027 314.423C131.677 278.855 137.968 250.073 138.103 250.1Z" fill="#455A64"/>
<path d="M168.352 378.872C168.342 378.761 168.342 378.65 168.352 378.539C168.352 378.296 168.352 377.972 168.298 377.558C168.298 376.658 168.208 375.407 168.136 373.787C168.001 370.52 167.848 365.777 167.677 359.918C167.335 348.218 166.993 332.018 166.912 314.144C166.831 296.27 167.002 280.079 167.236 268.361C167.344 262.502 167.461 257.768 167.569 254.492C167.623 252.872 167.659 251.612 167.695 250.721C167.695 250.307 167.695 249.983 167.695 249.74C167.683 249.63 167.683 249.518 167.695 249.407C167.709 249.518 167.709 249.63 167.695 249.74V250.721C167.695 251.621 167.695 252.872 167.695 254.492C167.65 257.795 167.587 262.529 167.506 268.37C167.362 280.07 167.236 296.27 167.326 314.144C167.416 332.018 167.695 348.2 167.947 359.918C168.082 365.75 168.19 370.484 168.271 373.787C168.271 375.398 168.325 376.667 168.343 377.558C168.343 377.972 168.343 378.296 168.343 378.539C168.36 378.649 168.363 378.761 168.352 378.872Z" fill="#455A64"/>
<path d="M222.82 112.382C222.82 112.382 203.74 141.182 202.12 142.775C200.5 144.368 170.62 147.536 170.62 147.536C161.44 145.466 131.776 146.15 126.178 150.236C121.327 152.936 115.441 159.236 112.408 174.113C107.233 199.565 102.058 208.943 112.408 212.498C116.546 213.909 120.811 214.916 125.143 215.504L124.855 227.024L178.495 223.685L175.795 195.083C175.471 187.046 175.318 178.676 175.12 171.26C178.477 169.991 209.671 158.183 211.813 157.877C213.955 157.571 234.502 119.78 234.502 119.78C235.114 115.289 222.82 112.382 222.82 112.382Z" fill="#FF9356"/>
<path d="M126.619 164.465C126.745 164.465 126.457 178.487 125.98 195.767C125.503 213.047 124.999 227.06 124.864 227.06C124.729 227.06 125.026 213.038 125.512 195.758C125.998 178.478 126.493 164.465 126.619 164.465Z" fill="#263238"/>
<path d="M204.811 149.255C204.095 148.31 203.564 147.238 203.245 146.096C202.785 145.021 202.412 143.91 202.129 142.775C202.839 143.722 203.367 144.794 203.686 145.934C204.139 147.013 204.515 148.123 204.811 149.255Z" fill="#263238"/>
<path d="M206.953 146.807C206.043 146.295 205.186 145.692 204.397 145.007C203.501 144.436 202.729 143.689 202.129 142.811C203.036 143.329 203.892 143.932 204.685 144.611C205.576 145.189 206.346 145.935 206.953 146.807Z" fill="#263238"/>
<path d="M233.431 122.075C232.797 121.772 232.194 121.407 231.631 120.986C230.533 120.293 229.012 119.357 227.266 118.421C225.52 117.485 223.9 116.738 222.712 116.216C222.049 115.979 221.41 115.677 220.804 115.316C221.504 115.431 222.187 115.631 222.838 115.91C226.041 117.104 229.068 118.724 231.838 120.725C232.424 121.107 232.959 121.56 233.431 122.075Z" fill="#263238"/>
<path d="M125.98 195.902C124.863 195.969 123.741 195.857 122.659 195.569C121.545 195.416 120.47 195.052 119.491 194.498C120.596 194.605 121.69 194.809 122.758 195.11C123.859 195.251 124.94 195.516 125.98 195.902Z" fill="#263238"/>
<path d="M175.525 147.131C174.552 147.298 173.591 147.523 172.645 147.806C170.388 148.545 168.426 149.987 167.046 151.92C165.667 153.853 164.942 156.177 164.977 158.552C165.024 159.538 165.123 160.52 165.274 161.495C165.134 161.262 165.037 161.006 164.986 160.739C164.789 160.029 164.674 159.298 164.644 158.561C164.521 156.095 165.234 153.66 166.669 151.651C168.103 149.642 170.174 148.176 172.546 147.491C173.252 147.278 173.979 147.145 174.715 147.095C174.985 147.057 175.26 147.069 175.525 147.131Z" fill="#263238"/>
<path d="M178.504 223.721C178.504 223.856 166.507 224.702 151.702 225.62C136.897 226.538 124.873 227.186 124.864 227.06C124.855 226.934 136.861 226.079 151.675 225.152C166.489 224.225 178.495 223.595 178.504 223.721Z" fill="#263238"/>
<path d="M157.138 146.564C157.215 146.78 157.269 147.003 157.3 147.23C157.3 147.455 157.408 147.725 157.444 148.049C157.48 148.373 157.507 148.76 157.552 149.183C157.659 151.614 157.263 154.04 156.391 156.311C155.114 159.718 152.768 162.62 149.704 164.582C149.266 164.86 148.809 165.107 148.336 165.32C147.862 165.55 147.376 165.752 146.878 165.923C145.879 166.283 144.844 166.589 143.818 166.958C142.776 167.3 141.779 167.765 140.848 168.344C139.917 168.974 139.094 169.749 138.409 170.639C137.126 172.492 135.942 174.412 134.863 176.39C133.827 178.282 132.309 179.866 130.462 180.98C128.714 181.864 126.748 182.223 124.801 182.015C123.121 181.862 121.485 181.395 119.977 180.638C117.81 179.542 115.842 178.091 114.154 176.345C113.551 175.742 113.101 175.256 112.804 174.932C112.636 174.774 112.488 174.595 112.363 174.401C112.54 174.544 112.708 174.697 112.867 174.86L114.28 176.219C115.993 177.892 117.958 179.286 120.103 180.35C121.584 181.061 123.182 181.497 124.819 181.637C126.681 181.81 128.555 181.448 130.219 180.593C131.996 179.513 133.453 177.978 134.44 176.147C135.53 174.149 136.732 172.214 138.04 170.351C138.758 169.421 139.621 168.613 140.596 167.957C141.557 167.354 142.587 166.871 143.665 166.517L146.725 165.5C147.213 165.335 147.691 165.139 148.156 164.915C148.615 164.717 149.057 164.483 149.479 164.213C152.49 162.316 154.812 159.502 156.103 156.185C156.993 153.963 157.43 151.586 157.39 149.192C157.39 148.769 157.39 148.4 157.336 148.067C157.282 147.734 157.255 147.464 157.228 147.248C157.178 147.023 157.148 146.794 157.138 146.564Z" fill="#263238"/>
<path d="M177.451 212.741C177.451 212.741 177.244 212.597 176.848 212.354C176.282 211.989 175.654 211.732 174.994 211.598C173.933 211.439 172.863 211.343 171.79 211.31C170.539 211.211 169.09 211.202 167.515 211.139C165.77 211.11 164.035 210.868 162.349 210.419C160.413 209.869 158.586 208.989 156.949 207.818C155.128 206.519 153.618 204.832 152.53 202.877C151.366 200.774 150.747 198.414 150.73 196.01C150.695 193.678 151.316 191.382 152.522 189.385C153.728 187.388 155.471 185.77 157.552 184.715C158.488 184.248 159.484 183.915 160.513 183.725C161.473 183.565 162.446 183.486 163.42 183.491C165.14 183.544 166.863 183.493 168.577 183.338C169.813 183.259 171.009 182.875 172.06 182.22C173.111 181.565 173.983 180.66 174.598 179.585C174.899 178.982 175.089 178.33 175.156 177.659C175.21 177.2 175.21 176.948 175.228 176.948C175.239 177.008 175.239 177.069 175.228 177.128C175.228 177.254 175.228 177.434 175.228 177.668C175.191 178.36 175.023 179.038 174.733 179.666C174.259 180.661 173.533 181.515 172.627 182.141C171.435 182.977 170.051 183.501 168.604 183.662C166.876 183.843 165.139 183.915 163.402 183.878C162.449 183.883 161.497 183.967 160.558 184.13C159.572 184.321 158.618 184.648 157.723 185.102C155.722 186.125 154.048 187.686 152.888 189.611C151.729 191.535 151.131 193.746 151.162 195.992C151.184 198.32 151.784 200.605 152.908 202.643C153.959 204.54 155.415 206.181 157.174 207.449C158.766 208.602 160.543 209.473 162.43 210.023C164.085 210.483 165.789 210.74 167.506 210.788C169.09 210.869 170.53 210.905 171.79 211.031C172.871 211.08 173.948 211.203 175.012 211.4C175.687 211.573 176.32 211.879 176.875 212.3C177.022 212.404 177.163 212.515 177.298 212.633C177.355 212.66 177.407 212.697 177.451 212.741Z" fill="#263238"/>
<path d="M147.643 225.917C147.668 225.273 147.631 224.628 147.535 223.991C147.201 222.263 146.207 220.733 144.763 219.725C144.288 219.411 143.774 219.159 143.233 218.978C142.644 218.813 142.042 218.698 141.433 218.636C140.012 218.604 138.6 218.414 137.221 218.069C136.464 217.816 135.772 217.398 135.196 216.845C134.615 216.261 134.15 215.57 133.828 214.811C133.177 213.219 132.974 211.479 133.243 209.78C133.747 206.315 135.268 203.336 135.529 200.402C135.713 199.033 135.587 197.639 135.16 196.325C134.77 195.194 134.041 194.21 133.072 193.508C131.652 192.469 129.886 192.014 128.14 192.239C127.508 192.359 126.888 192.533 126.286 192.761C126.829 192.402 127.443 192.162 128.086 192.059C129.893 191.754 131.748 192.178 133.243 193.238C134.283 193.969 135.072 195.003 135.502 196.199C135.967 197.564 136.115 199.017 135.934 200.447C135.673 203.48 134.134 206.495 133.684 209.843C133.426 211.459 133.612 213.114 134.224 214.631C134.525 215.336 134.952 215.979 135.484 216.53C136.008 217.037 136.638 217.422 137.329 217.655C138.678 217.999 140.06 218.199 141.451 218.249C142.098 218.316 142.737 218.445 143.359 218.636C144.509 219.034 145.527 219.742 146.299 220.682C147.071 221.623 147.567 222.759 147.733 223.964C147.799 224.448 147.799 224.938 147.733 225.422C147.719 225.59 147.688 225.755 147.643 225.917Z" fill="#263238"/>
<path d="M145.843 176.12C145.843 176.12 146.032 175.922 146.482 175.787C147.127 175.619 147.81 175.667 148.426 175.922C148.858 176.1 149.245 176.37 149.56 176.714C149.916 177.125 150.141 177.633 150.208 178.172C150.289 178.792 150.185 179.423 149.908 179.984C149.631 180.544 149.193 181.01 148.651 181.322C148.086 181.591 147.453 181.683 146.835 181.586C146.217 181.49 145.642 181.21 145.186 180.782C144.787 180.408 144.511 179.922 144.394 179.387C144.305 178.927 144.326 178.452 144.457 178.001C144.635 177.356 145.033 176.792 145.582 176.408C145.767 176.252 145.997 176.157 146.239 176.138C146.239 176.138 146.023 176.273 145.69 176.552C145.238 176.956 144.923 177.491 144.79 178.082C144.674 178.506 144.679 178.953 144.803 179.374C144.927 179.795 145.165 180.174 145.492 180.467C145.886 180.823 146.376 181.054 146.901 181.133C147.427 181.211 147.963 181.133 148.444 180.908C148.907 180.638 149.281 180.238 149.52 179.759C149.76 179.279 149.855 178.741 149.794 178.208C149.742 177.773 149.577 177.36 149.315 177.009C149.053 176.658 148.703 176.383 148.3 176.21C147.74 175.942 147.113 175.851 146.5 175.949C146.086 176.039 145.861 176.156 145.843 176.12Z" fill="#263238"/>
<path d="M118.861 214.487C118.762 214.487 119.185 212.903 119.284 210.329C119.319 209.631 119.319 208.931 119.284 208.232C119.284 207.476 119.14 206.675 119.041 205.829C118.742 204.01 118.263 202.225 117.61 200.501C116.928 198.791 116.072 197.157 115.054 195.623C114.598 194.962 114.108 194.326 113.587 193.715C113.145 193.168 112.673 192.645 112.174 192.149C110.374 190.349 108.988 189.449 109.051 189.386C109.393 189.544 109.716 189.74 110.014 189.971C110.387 190.209 110.745 190.471 111.085 190.754C111.547 191.116 111.989 191.504 112.408 191.915C112.931 192.401 113.424 192.918 113.884 193.463C114.42 194.082 114.925 194.728 115.396 195.398C116.448 196.95 117.332 198.609 118.033 200.348C118.696 202.093 119.169 203.903 119.446 205.748C119.56 206.56 119.629 207.377 119.653 208.196C119.699 208.906 119.699 209.619 119.653 210.329C119.62 210.914 119.557 211.497 119.464 212.075C119.409 212.515 119.325 212.951 119.212 213.38C119.141 213.762 119.023 214.134 118.861 214.487Z" fill="#263238"/>
<path d="M212.245 157.517C211.784 157.353 211.336 157.154 210.904 156.923C210.049 156.527 208.816 155.96 207.232 155.384C205.393 154.703 203.486 154.223 201.544 153.953C199.173 153.613 196.759 153.732 194.434 154.304C192.088 154.85 189.92 155.984 188.134 157.598C186.692 158.915 185.589 160.56 184.921 162.395C184.481 163.636 184.298 164.952 184.381 166.265C184.453 167.165 184.597 167.705 184.552 167.714C184.507 167.723 184.489 167.597 184.417 167.354C184.321 167.002 184.249 166.645 184.201 166.283C184.042 164.937 184.183 163.572 184.615 162.287C185.253 160.373 186.364 158.652 187.846 157.283C189.658 155.605 191.87 154.421 194.272 153.845C196.658 153.265 199.134 153.155 201.562 153.521C203.529 153.82 205.455 154.343 207.304 155.078C208.537 155.565 209.74 156.127 210.904 156.761C211.318 156.986 211.642 157.166 211.849 157.301C211.993 157.348 212.128 157.421 212.245 157.517Z" fill="#263238"/>
<path d="M219.616 117.215C219.616 117.215 219.706 117.278 219.859 117.431C220.084 117.642 220.292 117.871 220.48 118.115C221.192 119.009 221.754 120.012 222.145 121.085C222.734 122.684 222.976 124.39 222.856 126.089C222.717 128.177 222.045 130.195 220.903 131.948C219.733 133.691 218.121 135.091 216.232 136.007C214.711 136.767 213.051 137.208 211.354 137.303C210.214 137.376 209.069 137.27 207.961 136.988C207.655 136.917 207.354 136.824 207.061 136.709C206.863 136.637 206.764 136.592 206.773 136.574C208.246 136.924 209.762 137.057 211.273 136.97C212.918 136.834 214.521 136.375 215.989 135.62C217.803 134.723 219.354 133.371 220.489 131.696C221.486 130.155 222.122 128.408 222.349 126.586C222.577 124.764 222.39 122.915 221.803 121.175C221.278 119.753 220.54 118.418 219.616 117.215Z" fill="#263238"/>
<path d="M160.855 146.438C158.256 146.695 155.644 146.795 153.034 146.735C150.426 146.833 147.814 146.776 145.213 146.564C147.811 146.307 150.423 146.208 153.034 146.267C155.642 146.17 158.254 146.227 160.855 146.438Z" fill="#263238"/>
</g>
<defs>
<linearGradient id="paint0_linear_173_9383" x1="527.216" y1="10" x2="90.9246" y2="529.317" gradientUnits="userSpaceOnUse">
<stop stop-color="white"/>
<stop offset="1" stop-color="white"/>
</linearGradient>
<clipPath id="clip0_173_9383">
<rect width="527" height="453" fill="white" transform="matrix(-1 0 0 -1 527 453)"/>
</clipPath>
</defs>
</svg>
