<svg width="425" height="414" viewBox="0 0 425 414" fill="none" xmlns="http://www.w3.org/2000/svg">
<path d="M354.138 81.8813C387.493 128.452 403.226 183.833 399.45 247.396C395.674 311.588 371.759 384.591 325.189 405.988C277.989 427.386 207.503 396.548 140.794 363.194C74.0844 329.21 9.89235 292.708 1.08168 245.508C-7.729 198.937 38.8417 141.668 84.1538 92.58C130.095 43.4919 175.407 1.95586 223.237 0.0678595C271.066 -1.82014 320.783 35.9399 354.138 81.8813Z" fill="white"/>
<path d="M16.9033 357.004L67.857 356.775L118.811 356.689L220.727 356.526L322.644 356.689L373.598 356.765L424.552 357.004L373.598 357.233L322.644 357.319L220.727 357.481L118.811 357.319L67.857 357.233L16.9033 357.004Z" fill="#263238"/>
<path d="M370.601 51.2915H70.8638V240.969H370.601V51.2915Z" fill="#C1C1C1"/>
<path d="M363.308 58.5747H78.1372V233.686H363.308V58.5747Z" fill="white"/>
<path d="M150.492 58.5747H147.161V233.686H150.492V58.5747Z" fill="#EBEBEB"/>
<path d="M222.388 58.5747H219.057V233.686H222.388V58.5747Z" fill="#C1C1C1"/>
<path d="M363.317 81.4168V78.0854L78.1469 78.0854V81.4168L363.317 81.4168Z" fill="#C1C1C1"/>
<path d="M294.294 58.5747H290.963V233.686H294.294V58.5747Z" fill="#EBEBEB"/>
<path d="M166.318 219.091H181.591C181.794 217.828 181.906 216.552 181.925 215.273V199.828H162.672V215.454C162.672 217.01 166.318 219.091 166.318 219.091Z" fill="#455A64"/>
<path d="M162.672 215.444C162.672 216.962 166.07 218.948 166.28 219.072C165.717 218.69 165.812 215.674 165.812 215.674C164.774 215.51 163.723 215.433 162.672 215.444Z" fill="#37474F"/>
<path d="M165.507 204.372C167.769 204.19 170.041 204.143 172.303 204.133C174.565 204.124 176.837 204.19 179.1 204.372C176.837 204.563 174.565 204.601 172.303 204.61C170.041 204.62 167.769 204.563 165.507 204.372Z" fill="white"/>
<path d="M165.507 206.911C167.292 206.73 169.077 206.682 170.852 206.672C172.628 206.663 174.422 206.73 176.198 206.911C174.421 207.086 172.637 207.166 170.852 207.15C169.068 207.16 167.283 207.081 165.507 206.911Z" fill="white"/>
<path d="M165.507 209.45C167.292 209.269 169.077 209.221 170.852 209.211C172.628 209.202 174.422 209.269 176.198 209.45C174.421 209.625 172.637 209.705 170.852 209.689C169.068 209.699 167.283 209.62 165.507 209.45Z" fill="white"/>
<path d="M324.343 88.8242H305.081V108.087H324.343V88.8242Z" fill="#37474F"/>
<path d="M307.916 93.0911C310.178 92.9097 312.44 92.862 314.712 92.8524C316.984 92.8429 319.236 92.9097 321.508 93.0911C319.236 93.282 316.974 93.3202 314.712 93.3297C312.45 93.3393 310.178 93.2343 307.916 93.0911Z" fill="white"/>
<path d="M307.916 95.5824C310.17 95.2642 312.458 95.2642 314.712 95.5824C312.458 95.9006 310.17 95.9006 307.916 95.5824Z" fill="white"/>
<path d="M307.916 98.1214C309.701 97.94 311.476 97.8923 313.261 97.8827C315.046 97.8732 316.821 97.94 318.606 98.1214C315.05 98.4395 311.472 98.4395 307.916 98.1214Z" fill="white"/>
<path d="M307.916 100.66C310.178 100.479 312.44 100.431 314.712 100.422C316.984 100.412 319.236 100.479 321.508 100.66C319.236 100.851 316.974 100.89 314.712 100.899C312.45 100.909 310.178 100.851 307.916 100.66Z" fill="white"/>
<path d="M307.915 103.199C309.653 103.018 311.399 102.97 313.137 102.961C314.874 102.951 316.621 103.018 318.368 103.199C314.875 103.521 311.36 103.521 307.868 103.199H307.915Z" fill="white"/>
<path d="M200.266 141.655L181.303 145.043L184.691 164.006L203.654 160.618L200.266 141.655Z" fill="#455A64"/>
<path d="M184.836 148.703C187.032 148.12 189.256 147.672 191.518 147.271C193.781 146.87 195.986 146.526 198.2 146.316C196.005 146.899 193.781 147.338 191.518 147.748C189.256 148.159 187.099 148.455 184.836 148.703Z" fill="white"/>
<path d="M185.275 151.194C186.354 150.835 187.458 150.557 188.578 150.364C189.697 150.157 190.83 150.035 191.967 150.001C189.806 150.708 187.557 151.11 185.285 151.194H185.275Z" fill="white"/>
<path d="M185.724 153.695C187.452 153.199 189.199 152.845 190.945 152.521C192.692 152.196 194.468 151.948 196.253 151.814C194.534 152.296 192.791 152.688 191.031 152.989C189.276 153.315 187.504 153.551 185.724 153.695Z" fill="white"/>
<path d="M186.173 156.196C188.368 155.614 190.592 155.175 192.855 154.764C195.117 154.354 197.331 154.02 199.594 153.81C197.389 154.392 195.174 154.831 192.912 155.241C190.65 155.652 188.435 155.986 186.173 156.196Z" fill="white"/>
<path d="M186.622 158.697C188.302 158.21 190.01 157.857 191.719 157.542C193.427 157.227 195.165 156.979 196.912 156.854C195.231 157.326 193.526 157.709 191.805 158C190.087 158.305 188.368 158.573 186.622 158.697Z" fill="white"/>
<path d="M131.821 131.999H112.558V151.261H131.821V131.999Z" fill="#455A64"/>
<path d="M115.393 136.218C117.665 136.027 119.927 135.988 122.189 135.979C124.452 135.969 126.724 135.979 128.986 136.218C126.724 136.399 124.452 136.447 122.189 136.456C119.927 136.466 117.636 136.399 115.393 136.218Z" fill="white"/>
<path d="M115.393 138.757C117.647 138.439 119.935 138.439 122.189 138.757C119.935 139.075 117.647 139.075 115.393 138.757Z" fill="white"/>
<path d="M115.393 141.296C118.95 140.978 122.527 140.978 126.084 141.296C124.309 141.477 122.524 141.525 120.739 141.534C118.954 141.544 117.178 141.477 115.393 141.296Z" fill="white"/>
<path d="M115.393 143.835C117.665 143.644 119.927 143.606 122.189 143.596C124.452 143.587 126.724 143.644 128.986 143.835C126.724 144.016 124.452 144.064 122.189 144.073C119.927 144.083 117.636 144.016 115.393 143.835Z" fill="white"/>
<path d="M115.393 146.374C118.87 146.056 122.369 146.056 125.845 146.374C124.108 146.555 122.361 146.603 120.624 146.613C118.887 146.622 117.14 146.546 115.393 146.374Z" fill="white"/>
<path d="M133.272 195.981H114.009V215.244H133.272V195.981Z" fill="#37474F"/>
<path d="M116.844 200.2C119.107 200.01 121.378 199.971 123.641 199.962C125.903 199.952 128.165 199.962 130.437 200.2C128.165 200.382 125.903 200.43 123.641 200.439C121.378 200.449 119.107 200.382 116.844 200.2Z" fill="white"/>
<path d="M116.844 202.74C119.099 202.421 121.386 202.421 123.641 202.74C121.386 203.058 119.099 203.058 116.844 202.74Z" fill="white"/>
<path d="M116.844 205.279C120.401 204.96 123.979 204.96 127.535 205.279C125.75 205.46 123.975 205.508 122.19 205.517C120.405 205.527 118.591 205.46 116.844 205.279Z" fill="white"/>
<path d="M116.844 207.818C119.107 207.627 121.378 207.589 123.641 207.579C125.903 207.57 128.165 207.627 130.437 207.818C128.165 207.999 125.903 208.047 123.641 208.056C121.378 208.066 119.107 207.999 116.844 207.818Z" fill="white"/>
<path d="M116.844 210.357C120.337 210.036 123.852 210.036 127.344 210.357C125.607 210.538 123.86 210.586 122.123 210.596C120.386 210.605 118.591 210.5 116.844 210.357Z" fill="white"/>
<path d="M254.939 138.355H235.676V157.618H254.939V138.355Z" fill="#37474F"/>
<path d="M238.511 142.574C240.783 142.384 243.045 142.345 245.307 142.336C247.569 142.326 249.841 142.336 252.103 142.574C249.841 142.756 247.579 142.804 245.307 142.813C243.035 142.823 240.773 142.727 238.511 142.574Z" fill="white"/>
<path d="M238.511 145.114C240.765 144.795 243.053 144.795 245.307 145.114C244.183 145.284 243.046 145.363 241.909 145.352C240.772 145.358 239.636 145.278 238.511 145.114Z" fill="white"/>
<path d="M238.511 147.653C242.067 147.335 245.645 147.335 249.202 147.653C247.425 147.823 245.641 147.903 243.856 147.891C242.081 147.882 240.296 147.834 238.511 147.653Z" fill="white"/>
<path d="M238.511 150.192C240.783 150.01 243.045 149.963 245.307 149.953C247.569 149.944 249.841 150.001 252.103 150.192C249.841 150.383 247.579 150.421 245.307 150.43C243.035 150.44 240.773 150.364 238.511 150.192Z" fill="white"/>
<path d="M238.511 152.731C240.258 152.549 241.995 152.502 243.742 152.492C245.488 152.481 247.234 152.561 248.973 152.731C247.234 152.901 245.488 152.98 243.742 152.969C241.995 152.96 240.258 152.912 238.511 152.731Z" fill="white"/>
<path d="M271.016 103.25L251.965 100.399L249.115 119.45L268.165 122.301L271.016 103.25Z" fill="#FF9356"/>
<path d="M254.137 105.004C256.409 105.157 258.652 105.453 260.895 105.777C263.138 106.102 265.372 106.493 267.577 107.018C265.314 106.865 263.062 106.569 260.828 106.245C258.594 105.92 256.361 105.5 254.137 105.004Z" fill="white"/>
<path d="M253.774 107.514C254.912 107.522 256.047 107.611 257.172 107.781C258.297 107.945 259.407 108.194 260.494 108.526C259.356 108.518 258.221 108.429 257.096 108.259C255.971 108.096 254.861 107.847 253.774 107.514Z" fill="white"/>
<path d="M253.401 110.025C255.186 110.111 256.952 110.33 258.718 110.579C260.484 110.827 262.24 111.161 263.968 111.609C262.188 111.516 260.413 111.331 258.651 111.056C256.885 110.779 255.091 110.474 253.401 110.025Z" fill="white"/>
<path d="M253.02 112.535C255.291 112.688 257.535 112.984 259.778 113.308C262.021 113.633 264.245 114.034 266.46 114.549C264.197 114.397 261.945 114.11 259.701 113.776C257.458 113.442 255.234 113.06 253.02 112.535Z" fill="white"/>
<path d="M252.647 115.045C256.134 115.242 259.594 115.76 262.985 116.592C259.5 116.383 256.041 115.865 252.647 115.045Z" fill="white"/>
<path d="M212.795 159.041H193.532V178.303H212.795V159.041Z" fill="#FF9356"/>
<path d="M196.367 163.26C198.639 163.078 200.901 163.03 203.164 163.021C205.426 163.011 207.698 163.078 209.96 163.26C207.698 163.45 205.435 163.489 203.164 163.498C200.892 163.508 198.639 163.45 196.367 163.26Z" fill="white"/>
<path d="M196.367 165.799C198.621 165.481 200.909 165.481 203.164 165.799C200.909 166.117 198.621 166.117 196.367 165.799Z" fill="white"/>
<path d="M196.367 168.338C198.152 168.156 199.937 168.109 201.713 168.099C203.488 168.089 205.283 168.156 207.068 168.338C205.288 168.512 203.501 168.592 201.713 168.576C199.928 168.587 198.144 168.507 196.367 168.338Z" fill="white"/>
<path d="M196.367 170.877C198.639 170.695 200.901 170.648 203.164 170.638C205.426 170.629 207.698 170.695 209.96 170.877C207.698 171.068 205.435 171.115 203.164 171.115C200.892 171.115 198.639 171.068 196.367 170.877Z" fill="white"/>
<path d="M196.367 173.416C198.114 173.234 199.851 173.196 201.598 173.187C203.345 173.173 205.091 173.249 206.829 173.416C205.091 173.591 203.345 173.67 201.598 173.654C199.852 173.665 198.106 173.586 196.367 173.416Z" fill="white"/>
<path d="M127.191 104.841H107.929V124.104H127.191V104.841Z" fill="#455A64"/>
<path d="M110.764 109.061C113.026 108.879 115.298 108.832 117.56 108.822C119.822 108.813 122.085 108.879 124.356 109.061C122.085 109.252 119.822 109.29 117.56 109.299C115.298 109.309 113.026 109.252 110.764 109.061Z" fill="white"/>
<path d="M110.764 111.599C113.018 111.281 115.306 111.281 117.56 111.599C115.306 111.918 113.018 111.918 110.764 111.599Z" fill="white"/>
<path d="M110.764 114.139C112.549 113.958 114.324 113.91 116.109 113.9C117.894 113.891 119.67 113.958 121.455 114.139C117.898 114.457 114.32 114.457 110.764 114.139Z" fill="white"/>
<path d="M110.764 116.678C113.026 116.497 115.298 116.449 117.56 116.439C119.822 116.43 122.085 116.497 124.356 116.678C122.085 116.869 119.822 116.907 117.56 116.917C115.298 116.926 113.026 116.869 110.764 116.678Z" fill="white"/>
<path d="M110.764 119.217C112.501 119.036 114.248 118.988 115.995 118.978C117.741 118.969 119.479 119.036 121.216 119.217C117.739 119.535 114.24 119.535 110.764 119.217Z" fill="white"/>
<path d="M288.118 173.913H268.855V193.175H288.118V173.913Z" fill="#FF9356"/>
<path d="M271.69 178.132C273.953 177.95 276.215 177.902 278.487 177.893C280.759 177.883 283.011 177.893 285.274 178.132C283.011 178.322 280.749 178.361 278.487 178.37C276.225 178.38 273.953 178.313 271.69 178.132Z" fill="white"/>
<path d="M271.69 180.671C272.816 180.505 273.951 180.426 275.089 180.432C276.226 180.422 277.362 180.501 278.487 180.671C277.378 180.838 276.258 180.917 275.136 180.909C273.983 180.918 272.831 180.838 271.69 180.671Z" fill="white"/>
<path d="M271.69 183.21C273.466 183.028 275.251 182.981 277.036 182.971C278.821 182.96 280.605 183.04 282.381 183.21C278.825 183.528 275.247 183.528 271.69 183.21Z" fill="white"/>
<path d="M271.69 185.749C273.953 185.567 276.215 185.52 278.487 185.51C280.759 185.501 283.011 185.567 285.274 185.749C283.011 185.94 280.749 185.978 278.487 185.987C276.225 185.997 273.953 185.94 271.69 185.749Z" fill="white"/>
<path d="M271.69 188.288C273.428 188.106 275.174 188.059 276.912 188.049C278.649 188.04 280.396 188.106 282.143 188.288C278.666 188.606 275.167 188.606 271.69 188.288Z" fill="white"/>
<path d="M348.073 133.735H328.811C328.249 132.536 327.925 131.24 327.856 129.917V114.473H347.119V130.099C347.223 131.357 347.546 132.588 348.073 133.735Z" fill="#FF9356"/>
<path d="M331.168 119.026C333.431 118.835 335.693 118.797 337.965 118.787C340.237 118.778 342.489 118.787 344.752 119.026C342.489 119.207 340.227 119.255 337.965 119.265C335.703 119.274 333.431 119.207 331.168 119.026Z" fill="white"/>
<path d="M331.168 121.565C333.202 121.374 335.244 121.336 337.278 121.327C339.311 121.317 341.353 121.327 343.387 121.565C341.353 121.756 339.311 121.794 337.278 121.804C335.244 121.813 333.202 121.727 331.168 121.565Z" fill="white"/>
<path d="M331.168 124.104C332.944 123.923 334.729 123.875 336.514 123.866C338.299 123.855 340.083 123.935 341.859 124.104C340.083 124.274 338.299 124.354 336.514 124.343C334.729 124.333 332.944 124.286 331.168 124.104Z" fill="white"/>
<path d="M331.168 126.643C333.431 126.462 335.693 126.414 337.965 126.405C340.237 126.395 342.489 126.405 344.752 126.643C342.489 126.834 340.227 126.872 337.965 126.882C335.703 126.891 333.431 126.825 331.168 126.643Z" fill="white"/>
<path d="M95.5483 166.123H114.773C115.334 164.924 115.658 163.627 115.727 162.305V146.86H96.5029V162.496C96.3974 163.751 96.0744 164.978 95.5483 166.123Z" fill="#FF9356"/>
<path d="M98.8604 151.414C101.132 151.232 103.394 151.185 105.657 151.175C107.919 151.166 110.191 151.232 112.453 151.414C110.191 151.605 107.919 151.643 105.657 151.652C103.394 151.662 101.132 151.605 98.8604 151.414Z" fill="white"/>
<path d="M98.8604 153.953C100.903 153.772 102.936 153.724 104.979 153.714C107.022 153.705 109.045 153.772 111.088 153.953C109.045 154.144 107.012 154.182 104.979 154.192C102.946 154.201 100.903 154.182 98.8604 153.953Z" fill="white"/>
<path d="M98.8604 156.492C100.645 156.311 102.43 156.263 104.206 156.253C105.981 156.244 107.776 156.311 109.551 156.492C105.995 156.81 102.417 156.81 98.8604 156.492Z" fill="white"/>
<path d="M98.8604 159.031C101.132 158.85 103.394 158.802 105.657 158.792C107.919 158.783 110.191 158.85 112.453 159.031C110.191 159.222 107.919 159.27 105.657 159.27C103.394 159.27 101.132 159.222 98.8604 159.031Z" fill="white"/>
<path d="M185.037 213.765H165.774C165.213 212.565 164.889 211.269 164.82 209.946V194.502H184.083V210.137C184.188 211.393 184.511 212.62 185.037 213.765Z" fill="#FF9356"/>
<path d="M168.132 199.046C170.404 198.864 172.666 198.817 174.928 198.807C177.19 198.797 179.462 198.864 181.725 199.046C179.462 199.237 177.19 199.275 174.928 199.284C172.666 199.294 170.404 199.246 168.132 199.046Z" fill="white"/>
<path d="M168.132 201.594C170.175 201.413 172.208 201.365 174.25 201.355C176.293 201.346 178.317 201.413 180.36 201.594C178.317 201.785 176.284 201.823 174.25 201.833C172.217 201.842 170.136 201.785 168.132 201.594Z" fill="white"/>
<path d="M168.132 204.133C169.917 203.952 171.702 203.904 173.477 203.894C175.253 203.885 177.047 203.952 178.823 204.133C177.046 204.308 175.262 204.388 173.477 204.372C171.693 204.383 169.908 204.303 168.132 204.133Z" fill="white"/>
<path d="M168.132 206.682C170.404 206.501 172.666 206.453 174.928 206.443C177.19 206.434 179.462 206.501 181.725 206.682C179.462 206.873 177.19 206.921 174.928 206.921C172.666 206.921 170.404 206.863 168.132 206.682Z" fill="white"/>
<path d="M255.893 108.087H236.63C236.069 106.888 235.745 105.591 235.676 104.269V88.8242H254.939V104.45C255.043 105.709 255.366 106.939 255.893 108.087Z" fill="#455A64"/>
<path d="M238.988 93.3772C241.26 93.1958 243.522 93.1481 245.784 93.1385C248.046 93.129 250.318 93.1385 252.581 93.3772C250.318 93.5681 248.056 93.6063 245.784 93.6158C243.512 93.6254 241.26 93.5585 238.988 93.3772Z" fill="white"/>
<path d="M238.988 95.9545C241.031 95.7731 243.064 95.7254 245.106 95.7158C247.149 95.7063 249.173 95.7636 251.216 95.9545C249.173 96.1454 247.14 96.1836 245.106 96.1931C243.073 96.2027 241.031 96.1072 238.988 95.9545Z" fill="white"/>
<path d="M238.988 98.4555C240.773 98.2741 242.558 98.2264 244.333 98.2169C246.118 98.2056 247.902 98.2853 249.679 98.4555C246.122 98.7737 242.544 98.7737 238.988 98.4555Z" fill="white"/>
<path d="M238.988 100.995C241.26 100.814 243.522 100.766 245.784 100.756C248.046 100.747 250.318 100.814 252.581 100.995C250.318 101.186 248.056 101.224 245.784 101.234C243.512 101.243 241.26 101.186 238.988 100.995Z" fill="white"/>
<path d="M179.844 182.99H160.591C160.03 181.791 159.706 180.494 159.637 179.172V163.728H178.89V179.353C178.994 180.612 179.317 181.843 179.844 182.99Z" fill="#37474F"/>
<path d="M162.958 168.242C165.221 168.061 167.483 168.013 169.755 168.004C172.027 167.994 174.279 168.004 176.542 168.242C174.279 168.433 172.017 168.472 169.755 168.481C167.493 168.491 165.211 168.472 162.958 168.242Z" fill="white"/>
<path d="M162.958 170.82C164.992 170.638 167.034 170.591 169.068 170.581C171.101 170.571 173.143 170.638 175.177 170.82C173.143 171.011 171.101 171.049 169.068 171.058C167.034 171.068 164.982 171.011 162.958 170.82Z" fill="white"/>
<path d="M162.958 173.359C164.734 173.177 166.519 173.13 168.304 173.12C170.089 173.11 171.864 173.177 173.649 173.359C170.093 173.677 166.515 173.677 162.958 173.359Z" fill="white"/>
<path d="M162.958 175.879C165.221 175.697 167.483 175.65 169.755 175.64C172.027 175.631 174.279 175.697 176.542 175.879C174.279 176.07 172.017 176.108 169.755 176.117C167.493 176.127 165.211 176.089 162.958 175.879Z" fill="white"/>
<path d="M283.164 209.45H263.901C263.34 208.251 263.016 206.954 262.947 205.632V190.197H282.209V205.823C282.315 207.078 282.638 208.305 283.164 209.45Z" fill="#37474F"/>
<path d="M266.259 194.74C268.522 194.559 270.793 194.511 273.056 194.502C275.318 194.492 277.58 194.559 279.852 194.74C277.58 194.931 275.318 194.979 273.056 194.979C270.793 194.979 268.522 194.931 266.259 194.74Z" fill="white"/>
<path d="M266.259 197.289C268.292 197.099 270.335 197.06 272.368 197.051C274.402 197.041 276.444 197.099 278.487 197.289C276.444 197.471 274.411 197.519 272.368 197.519C270.326 197.519 268.292 197.471 266.259 197.289Z" fill="white"/>
<path d="M266.259 199.828C268.036 199.658 269.82 199.579 271.605 199.59C273.39 199.574 275.174 199.654 276.95 199.828C275.165 200.01 273.39 200.058 271.605 200.067C269.82 200.077 268.044 200 266.259 199.828Z" fill="white"/>
<path d="M266.259 202.368C268.522 202.177 270.793 202.138 273.056 202.129C275.318 202.119 277.58 202.177 279.852 202.368C277.58 202.549 275.318 202.597 273.056 202.606C270.793 202.616 268.522 202.549 266.259 202.368Z" fill="white"/>
<path d="M320.955 162.219H305.682C305.484 160.955 305.376 159.68 305.357 158.401V142.966H324.62V158.592C324.572 160.148 320.955 162.219 320.955 162.219Z" fill="#455A64"/>
<path d="M324.563 158.583C324.563 160.1 321.165 162.086 320.955 162.21C321.518 161.828 321.422 158.812 321.422 158.812C322.461 158.648 323.511 158.571 324.563 158.583Z" fill="#37474F"/>
<path d="M308.145 147.5C310.407 147.319 312.669 147.271 314.941 147.262C317.213 147.252 319.465 147.319 321.728 147.5C319.465 147.691 317.203 147.729 314.941 147.739C312.679 147.748 310.455 147.701 308.145 147.5Z" fill="white"/>
<path d="M308.145 150.049C309.92 149.867 311.705 149.82 313.49 149.81C315.275 149.8 317.05 149.867 318.835 150.049C315.279 150.367 311.701 150.367 308.145 150.049Z" fill="white"/>
<path d="M308.145 152.588C309.92 152.406 311.705 152.359 313.49 152.349C315.275 152.339 317.05 152.406 318.835 152.588C317.059 152.762 315.275 152.842 313.49 152.826C311.705 152.838 309.921 152.758 308.145 152.588Z" fill="white"/>
<path d="M248.925 175.755H264.198C264.395 174.491 264.504 173.216 264.522 171.937V156.492H245.307V172.128C245.307 173.684 248.925 175.755 248.925 175.755Z" fill="#455A64"/>
<path d="M245.307 172.118C245.307 173.636 248.705 175.621 248.915 175.745C248.352 175.363 248.448 172.347 248.448 172.347C247.409 172.183 246.359 172.106 245.307 172.118Z" fill="#37474F"/>
<path d="M248.142 161.045C250.414 160.864 252.676 160.816 254.938 160.807C257.201 160.797 259.473 160.864 261.735 161.045C259.473 161.236 257.201 161.274 254.938 161.284C252.676 161.293 250.414 161.236 248.142 161.045Z" fill="white"/>
<path d="M248.142 163.584C249.927 163.403 251.712 163.355 253.488 163.346C255.263 163.336 257.058 163.403 258.833 163.584C255.276 163.902 251.699 163.902 248.142 163.584Z" fill="white"/>
<path d="M248.142 166.123C249.927 165.942 251.712 165.894 253.488 165.885C255.263 165.875 257.058 165.942 258.833 166.123C255.276 166.441 251.699 166.441 248.142 166.123Z" fill="white"/>
<path d="M109.046 112.067H93.7731C93.5697 110.804 93.458 109.528 93.439 108.249V92.8047H112.702V108.431C112.644 109.996 109.046 112.067 109.046 112.067Z" fill="#455A64"/>
<path d="M112.644 108.431C112.644 109.949 109.246 111.934 109.036 112.058C109.599 111.676 109.504 108.66 109.504 108.66C110.542 108.496 111.593 108.419 112.644 108.431Z" fill="#37474F"/>
<path d="M96.2261 97.3576C98.4883 97.1763 100.751 97.1286 103.013 97.119C105.275 97.1095 107.547 97.119 109.809 97.3576C107.547 97.5486 105.285 97.5867 103.013 97.5963C100.741 97.6058 98.4883 97.539 96.2261 97.3576Z" fill="white"/>
<path d="M96.2261 99.8968C98.0015 99.7155 99.7865 99.6677 101.572 99.6582C103.356 99.6474 105.14 99.727 106.917 99.8968C103.36 100.215 99.7826 100.215 96.2261 99.8968Z" fill="white"/>
<path d="M96.2261 102.436C98.0015 102.255 99.7865 102.207 101.572 102.197C103.356 102.186 105.14 102.266 106.917 102.436C103.36 102.754 99.7826 102.754 96.2261 102.436Z" fill="white"/>
<path d="M200.854 129.087H185.581C185.378 127.824 185.266 126.548 185.247 125.269V109.824H204.5V125.45C204.5 127.016 200.854 129.087 200.854 129.087Z" fill="#FF9356"/>
<path opacity="0.2" d="M204.5 125.45C204.5 126.968 201.102 128.953 200.892 129.078C201.455 128.696 201.36 125.679 201.36 125.679C202.398 125.516 203.449 125.439 204.5 125.45Z" fill="black"/>
<path d="M188.044 114.377C190.316 114.196 192.578 114.148 194.84 114.139C197.103 114.129 199.374 114.196 201.637 114.377C199.374 114.568 197.103 114.606 194.84 114.616C192.578 114.625 190.316 114.568 188.044 114.377Z" fill="white"/>
<path d="M188.044 116.955C189.829 116.773 191.614 116.726 193.389 116.716C195.165 116.707 196.959 116.773 198.735 116.955C195.178 117.273 191.6 117.273 188.044 116.955Z" fill="white"/>
<path d="M188.044 119.456C189.829 119.274 191.614 119.227 193.389 119.217C195.165 119.208 196.959 119.274 198.735 119.456C195.178 119.774 191.6 119.774 188.044 119.456Z" fill="white"/>
<path d="M104.998 67.6333H103.929V71.2033C103.931 71.2513 103.922 71.2991 103.904 71.3437C103.887 71.3883 103.86 71.4288 103.826 71.4628C103.792 71.4967 103.751 71.5234 103.707 71.5411C103.662 71.5589 103.615 71.5674 103.567 71.5661C103.469 71.5661 103.376 71.5282 103.307 71.4604C103.237 71.3927 103.197 71.3004 103.194 71.2033V67.6333H102.144C102.045 67.6309 101.95 67.5895 101.88 67.5182C101.811 67.4469 101.772 67.3512 101.772 67.2515C101.772 67.2031 101.782 67.1551 101.8 67.1105C101.819 67.0658 101.847 67.0254 101.882 66.9916C101.916 66.9578 101.957 66.9313 102.003 66.9136C102.048 66.896 102.096 66.8875 102.144 66.8888H105.008C105.104 66.8888 105.196 66.927 105.264 66.995C105.332 67.0631 105.371 67.1553 105.371 67.2515C105.371 67.3512 105.332 67.4469 105.262 67.5182C105.193 67.5895 105.098 67.6309 104.998 67.6333Z" fill="#C1C1C1"/>
<path d="M109.79 67.4713C110.219 67.9294 110.457 68.5334 110.457 69.1608C110.457 69.7883 110.219 70.3923 109.79 70.8504C109.587 71.0741 109.339 71.2532 109.063 71.3765C108.787 71.4997 108.489 71.5643 108.186 71.5663C107.88 71.5665 107.576 71.503 107.295 71.3798C107.014 71.2565 106.762 71.0763 106.554 70.8504C106.125 70.3923 105.887 69.7883 105.887 69.1608C105.887 68.5334 106.125 67.9294 106.554 67.4713C106.762 67.2454 107.014 67.0651 107.295 66.9419C107.576 66.8186 107.88 66.7551 108.186 66.7554C108.489 66.7573 108.787 66.822 109.063 66.9452C109.339 67.0684 109.587 67.2476 109.79 67.4713ZM109.704 69.1608C109.705 68.7257 109.541 68.3064 109.246 67.9867C109.11 67.8411 108.946 67.7245 108.764 67.6441C108.582 67.5637 108.385 67.5212 108.186 67.519C107.984 67.5174 107.783 67.5582 107.598 67.6387C107.412 67.7193 107.245 67.8378 107.108 67.9867C106.809 68.3043 106.645 68.725 106.65 69.1608C106.643 69.5943 106.807 70.0129 107.108 70.3254C107.244 70.4755 107.411 70.5956 107.597 70.6777C107.782 70.7599 107.983 70.8025 108.186 70.8026C108.386 70.7987 108.583 70.7544 108.765 70.6724C108.947 70.5904 109.111 70.4723 109.246 70.3254C109.542 70.0101 109.706 69.5933 109.704 69.1608Z" fill="#C1C1C1"/>
<path d="M113.818 71.2033V67.2515C113.818 67.2031 113.828 67.1551 113.847 67.1105C113.866 67.0658 113.893 67.0254 113.928 66.9916C113.963 66.9578 114.004 66.9313 114.049 66.9136C114.094 66.896 114.142 66.8875 114.191 66.8888H114.973C115.594 66.8888 116.188 67.1352 116.627 67.5738C117.066 68.0123 117.312 68.6072 117.312 69.2274C117.312 69.8477 117.066 70.4425 116.627 70.8811C116.188 71.3197 115.594 71.5661 114.973 71.5661H114.191C114.142 71.5673 114.094 71.5589 114.049 71.5412C114.004 71.5236 113.963 71.4971 113.928 71.4633C113.893 71.4295 113.866 71.389 113.847 71.3444C113.828 71.2997 113.818 71.2518 113.818 71.2033ZM114.563 70.8215H114.973C115.396 70.8215 115.802 70.6536 116.101 70.3546C116.4 70.0557 116.567 69.6502 116.567 69.2274C116.567 68.8047 116.4 68.3992 116.101 68.1002C115.802 67.8013 115.396 67.6333 114.973 67.6333H114.563V70.8215Z" fill="#C1C1C1"/>
<path d="M122.171 67.4713C122.606 67.9261 122.849 68.5313 122.849 69.1608C122.849 69.7903 122.606 70.3956 122.171 70.8504C121.97 71.0748 121.724 71.2544 121.45 71.3778C121.175 71.5011 120.878 71.5653 120.577 71.5663C120.269 71.5655 119.964 71.5016 119.682 71.3785C119.399 71.2554 119.145 71.0756 118.935 70.8504C118.512 70.3892 118.278 69.7864 118.278 69.1608C118.278 68.5353 118.512 67.9325 118.935 67.4713C119.145 67.246 119.399 67.0663 119.682 66.9431C119.964 66.82 120.269 66.7561 120.577 66.7554C120.878 66.7563 121.175 66.8205 121.45 66.9439C121.724 67.0672 121.97 67.2469 122.171 67.4713ZM122.085 69.1608C122.084 68.7277 121.925 68.3098 121.636 67.9867C121.5 67.8411 121.337 67.7245 121.154 67.6441C120.972 67.5637 120.776 67.5212 120.577 67.519C120.374 67.5174 120.174 67.5582 119.988 67.6387C119.802 67.7193 119.635 67.8378 119.498 67.9867C119.2 68.3043 119.035 68.725 119.04 69.1608C119.033 69.5943 119.198 70.0129 119.498 70.3254C119.635 70.4755 119.801 70.5956 119.987 70.6777C120.173 70.7599 120.374 70.8025 120.577 70.8026C120.776 70.7987 120.973 70.7544 121.155 70.6724C121.337 70.5904 121.501 70.4723 121.636 70.3254C121.926 70.0066 122.086 69.5913 122.085 69.1608Z" fill="#C1C1C1"/>
<path d="M162.644 67.2514C162.644 67.1552 162.682 67.0629 162.75 66.9949C162.818 66.9269 162.91 66.8887 163.006 66.8887C163.104 66.8885 163.199 66.9261 163.27 66.9937C163.341 67.0612 163.383 67.1535 163.388 67.2514V71.2032C163.383 71.3011 163.341 71.3934 163.27 71.4609C163.199 71.5285 163.104 71.5661 163.006 71.5659C162.91 71.5659 162.818 71.5277 162.75 71.4597C162.682 71.3917 162.644 71.2994 162.644 71.2032V67.2514Z" fill="#C1C1C1"/>
<path d="M165.364 71.2031C165.362 71.2986 165.323 71.3894 165.255 71.4569C165.188 71.5244 165.097 71.5634 165.001 71.5658C164.953 71.5671 164.905 71.5587 164.86 71.541C164.814 71.5234 164.773 71.4968 164.739 71.463C164.704 71.4292 164.676 71.3888 164.657 71.3442C164.639 71.2995 164.629 71.2516 164.629 71.2031V67.3181C164.626 67.2583 164.638 67.1987 164.665 67.1451C164.691 67.0915 164.732 67.0458 164.782 67.0127C164.859 66.9559 164.956 66.9321 165.05 66.9464C165.145 66.9608 165.23 67.012 165.288 67.089L167.445 70.0768V67.3181C167.445 67.2219 167.483 67.1297 167.551 67.0616C167.619 66.9936 167.711 66.9554 167.808 66.9554C167.904 66.9554 167.996 66.9936 168.064 67.0616C168.132 67.1297 168.17 67.2219 168.17 67.3181V71.2031C168.17 71.2993 168.132 71.3916 168.064 71.4596C167.996 71.5276 167.904 71.5658 167.808 71.5658C167.754 71.5659 167.702 71.5539 167.654 71.5307C167.606 71.5076 167.564 71.4739 167.531 71.4322L165.364 68.4254V71.2031Z" fill="#C1C1C1"/>
<path d="M173.354 69.7523H172.533V71.2032C172.533 71.3019 172.493 71.3966 172.424 71.4665C172.354 71.5363 172.259 71.5755 172.16 71.5755C172.062 71.5755 171.967 71.5363 171.897 71.4665C171.827 71.3966 171.788 71.3019 171.788 71.2032V67.2514C171.791 67.1543 171.831 67.0621 171.9 66.9943C171.97 66.9265 172.063 66.8886 172.16 66.8887H173.354C173.733 66.8887 174.097 67.0395 174.366 67.308C174.635 67.5766 174.785 67.9407 174.785 68.3205C174.785 68.7002 174.635 69.0644 174.366 69.3329C174.097 69.6014 173.733 69.7523 173.354 69.7523ZM172.533 69.0078H173.354C173.536 69.0078 173.711 68.9354 173.84 68.8065C173.968 68.6776 174.041 68.5028 174.041 68.3205C174.041 68.1382 173.968 67.9634 173.84 67.8345C173.711 67.7056 173.536 67.6332 173.354 67.6332H172.533V69.0078Z" fill="#C1C1C1"/>
<path d="M178.785 71.0123C178.815 71.1059 178.807 71.2077 178.762 71.2954C178.717 71.383 178.64 71.4494 178.546 71.48H178.403C178.311 71.4835 178.221 71.4566 178.145 71.4036C178.054 71.3472 177.978 71.2684 177.926 71.1745C177.816 70.9221 177.767 70.6475 177.783 70.3727C177.788 70.2716 177.761 70.1716 177.706 70.0864C177.655 70.006 177.586 69.9376 177.506 69.8859C177.39 69.8169 177.264 69.7654 177.133 69.7332H176.341V71.1841C176.341 71.2828 176.302 71.3775 176.232 71.4473C176.162 71.5171 176.068 71.5564 175.969 71.5564C175.87 71.5564 175.776 71.5171 175.706 71.4473C175.636 71.3775 175.597 71.2828 175.597 71.1841V67.2514C175.597 67.2029 175.606 67.1549 175.625 67.1103C175.644 67.0657 175.672 67.0252 175.706 66.9914C175.741 66.9576 175.782 66.9311 175.827 66.9135C175.872 66.8958 175.921 66.8874 175.969 66.8886H177.162C177.459 66.8812 177.751 66.9663 177.997 67.1322C178.244 67.2981 178.433 67.5365 178.538 67.8145C178.642 68.0924 178.658 68.3961 178.583 68.6834C178.507 68.9708 178.345 69.2275 178.117 69.4182C178.205 69.4891 178.282 69.5728 178.346 69.6664C178.491 69.8804 178.567 70.1334 178.565 70.3918C178.555 70.5221 178.555 70.6529 178.565 70.7832C178.616 70.8044 178.661 70.8357 178.699 70.8751C178.736 70.9145 178.766 70.9612 178.785 71.0123ZM177.83 68.3204C177.828 68.1373 177.753 67.9625 177.623 67.8339C177.492 67.7053 177.317 67.6332 177.133 67.6332H176.313V69.0077H177.133C177.226 69.0103 177.318 68.9944 177.404 68.9611C177.49 68.9279 177.569 68.8778 177.635 68.8138C177.702 68.7499 177.755 68.6733 177.792 68.5886C177.829 68.5039 177.848 68.4128 177.849 68.3204H177.83Z" fill="#C1C1C1"/>
<path d="M183.433 67.4713C183.869 67.9261 184.112 68.5313 184.112 69.1608C184.112 69.7903 183.869 70.3956 183.433 70.8504C183.233 71.0748 182.987 71.2544 182.712 71.3778C182.438 71.5011 182.14 71.5653 181.839 71.5663C181.531 71.5655 181.227 71.5016 180.944 71.3785C180.662 71.2554 180.408 71.0756 180.198 70.8504C179.775 70.3892 179.541 69.7864 179.541 69.1608C179.541 68.5353 179.775 67.9325 180.198 67.4713C180.408 67.246 180.662 67.0663 180.944 66.9431C181.227 66.82 181.531 66.7561 181.839 66.7554C182.14 66.7563 182.438 66.8205 182.712 66.9439C182.987 67.0672 183.233 67.2469 183.433 67.4713ZM183.348 69.1608C183.347 68.7277 183.187 68.3098 182.899 67.9867C182.763 67.8411 182.599 67.7245 182.417 67.6441C182.235 67.5637 182.038 67.5212 181.839 67.519C181.637 67.5174 181.436 67.5582 181.251 67.6387C181.065 67.7193 180.898 67.8378 180.761 67.9867C180.462 68.3043 180.298 68.725 180.303 69.1608C180.296 69.5943 180.46 70.0129 180.761 70.3254C180.897 70.4755 181.064 70.5956 181.25 70.6777C181.435 70.7599 181.636 70.8025 181.839 70.8026C182.039 70.7987 182.236 70.7544 182.418 70.6724C182.6 70.5904 182.764 70.4723 182.899 70.3254C183.188 70.0066 183.348 69.5913 183.348 69.1608Z" fill="#C1C1C1"/>
<path d="M185.218 69.1704C185.234 68.7127 185.376 68.2684 185.629 67.8868C185.882 67.5053 186.237 67.2016 186.652 67.0096C187.068 66.8176 187.529 66.7448 187.984 66.7993C188.438 66.8539 188.869 67.0336 189.227 67.3186C189.308 67.3793 189.362 67.4698 189.376 67.57C189.391 67.6703 189.364 67.7721 189.304 67.8531C189.24 67.9333 189.147 67.9852 189.045 67.9977C188.944 68.0102 188.841 67.9823 188.76 67.9199C188.461 67.6828 188.091 67.5548 187.71 67.5572C187.487 67.5524 187.265 67.5931 187.058 67.6768C186.851 67.7605 186.664 67.8854 186.507 68.044C186.348 68.1915 186.221 68.3701 186.134 68.5689C186.047 68.7676 186.003 68.9822 186.003 69.199C186.003 69.4159 186.047 69.6304 186.134 69.8291C186.221 70.0279 186.348 70.2066 186.507 70.354C186.664 70.5126 186.851 70.6376 187.058 70.7213C187.265 70.805 187.487 70.8457 187.71 70.8408C188.044 70.8459 188.374 70.7601 188.664 70.5927V69.6381H187.71C187.609 69.6357 187.513 69.5947 187.442 69.5236C187.371 69.4525 187.33 69.3568 187.328 69.2563C187.328 69.2066 187.338 69.1574 187.357 69.1116C187.376 69.0658 187.405 69.0243 187.44 68.9896C187.476 68.9549 187.518 68.9277 187.564 68.9096C187.61 68.8914 187.66 68.8827 187.71 68.884H189.046C189.096 68.8827 189.145 68.8914 189.191 68.9096C189.238 68.9277 189.28 68.9549 189.315 68.9896C189.351 69.0243 189.379 69.0658 189.399 69.1116C189.418 69.1574 189.428 69.2066 189.428 69.2563V70.7358C189.432 70.7739 189.432 70.8123 189.428 70.8504C189.405 70.9164 189.361 70.9733 189.304 71.0127C188.868 71.3457 188.335 71.5268 187.786 71.5281C187.461 71.5474 187.136 71.5012 186.83 71.3922C186.523 71.2832 186.242 71.1137 186.002 70.8937C185.763 70.6737 185.57 70.4078 185.435 70.1117C185.3 69.8157 185.227 69.4955 185.218 69.1704Z" fill="#C1C1C1"/>
<path d="M194 71.0123C194.016 71.0586 194.023 71.1078 194.02 71.1568C194.016 71.2057 194.003 71.2535 193.981 71.2973C193.958 71.341 193.927 71.3797 193.89 71.4112C193.852 71.4426 193.808 71.466 193.761 71.48H193.618C193.526 71.4828 193.436 71.456 193.36 71.4037C193.27 71.3493 193.197 71.2697 193.15 71.1746C193.041 70.9221 192.992 70.6475 193.007 70.3728C193.005 70.2713 192.975 70.1724 192.921 70.0864C192.872 70.0038 192.803 69.9349 192.721 69.8859C192.607 69.8138 192.481 69.7621 192.349 69.7332H191.566V71.1841C191.565 71.233 191.554 71.2812 191.534 71.3259C191.514 71.3706 191.486 71.4109 191.45 71.4446C191.415 71.4783 191.373 71.5047 191.327 71.5222C191.282 71.5397 191.233 71.5481 191.184 71.5469C191.088 71.5469 190.996 71.5086 190.928 71.4406C190.86 71.3726 190.821 71.2803 190.821 71.1841V67.2514C190.821 67.1552 190.86 67.0629 190.928 66.9949C190.996 66.9269 191.088 66.8887 191.184 66.8887H192.387C192.766 66.8887 193.131 67.0395 193.399 67.308C193.668 67.5766 193.819 67.9407 193.819 68.3205C193.819 68.5311 193.772 68.7392 193.681 68.9292C193.59 69.1193 193.458 69.2864 193.294 69.4182C193.385 69.4889 193.465 69.5725 193.532 69.6664C193.677 69.8805 193.754 70.1334 193.752 70.3919C193.738 70.522 193.738 70.6531 193.752 70.7832C193.809 70.7984 193.861 70.8272 193.904 70.8671C193.947 70.907 193.98 70.9569 194 71.0123ZM193.045 68.3205C193.045 68.1382 192.973 67.9634 192.844 67.8345C192.715 67.7056 192.54 67.6332 192.358 67.6332H191.537V69.0078H192.358C192.54 69.0078 192.715 68.9354 192.844 68.8065C192.973 68.6776 193.045 68.5028 193.045 68.3205Z" fill="#C1C1C1"/>
<path d="M195.041 71.2033V67.2515C195.041 67.2031 195.05 67.1551 195.069 67.1105C195.088 67.0658 195.115 67.0254 195.15 66.9916C195.185 66.9578 195.226 66.9313 195.271 66.9136C195.316 66.896 195.364 66.8875 195.413 66.8888H197.599C197.694 66.8912 197.785 66.9302 197.853 66.9977C197.92 67.0652 197.959 67.1561 197.961 67.2515C197.962 67.3496 197.924 67.4439 197.856 67.515C197.789 67.5861 197.697 67.6284 197.599 67.6333H195.785V68.8552H197.341C197.44 68.8552 197.534 68.8944 197.604 68.9642C197.674 69.034 197.713 69.1287 197.713 69.2274C197.713 69.3262 197.674 69.4209 197.604 69.4907C197.534 69.5605 197.44 69.5997 197.341 69.5997H195.785V70.8215H197.599C197.697 70.8264 197.789 70.8688 197.856 70.9399C197.924 71.011 197.962 71.1053 197.961 71.2033C197.959 71.2988 197.92 71.3896 197.853 71.4572C197.785 71.5247 197.694 71.5636 197.599 71.5661H195.432C195.382 71.57 195.332 71.5636 195.284 71.5471C195.237 71.5307 195.193 71.5046 195.157 71.4705C195.12 71.4364 195.091 71.3951 195.071 71.3491C195.051 71.3031 195.04 71.2535 195.041 71.2033Z" fill="#C1C1C1"/>
<path d="M198.859 70.4015C198.925 70.3391 199.012 70.3042 199.102 70.3042C199.193 70.3042 199.28 70.3391 199.346 70.4015C199.703 70.7111 200.153 70.8926 200.625 70.917C200.921 70.9253 201.212 70.8383 201.455 70.6688C201.538 70.6188 201.608 70.5491 201.658 70.4659C201.708 70.3827 201.737 70.2884 201.742 70.1915C201.743 70.1174 201.723 70.0445 201.684 69.9815C201.636 69.8987 201.567 69.8297 201.484 69.7811C201.191 69.6105 200.866 69.5032 200.529 69.4661C200.23 69.4119 199.939 69.3221 199.661 69.1988C199.41 69.0877 199.195 68.9093 199.04 68.6833C198.941 68.5156 198.888 68.3245 198.888 68.1297C198.898 67.9403 198.951 67.7558 199.044 67.5903C199.137 67.4249 199.266 67.2828 199.422 67.1751C199.761 66.9398 200.165 66.8163 200.577 66.822C201.107 66.8485 201.616 67.0349 202.038 67.3565C202.075 67.3816 202.107 67.4138 202.133 67.4514C202.158 67.4889 202.175 67.5311 202.184 67.5754C202.193 67.6197 202.193 67.6653 202.184 67.7097C202.175 67.754 202.158 67.7962 202.133 67.8338C202.108 67.8714 202.076 67.9037 202.038 67.9288C202.001 67.954 201.958 67.9715 201.914 67.9804C201.87 67.9892 201.824 67.9893 201.78 67.9805C201.736 67.9717 201.693 67.9543 201.656 67.9292C201.35 67.6775 200.973 67.5274 200.577 67.4997C200.311 67.4968 200.051 67.5769 199.833 67.7288C199.76 67.7736 199.698 67.835 199.653 67.9079C199.609 67.9809 199.582 68.0634 199.575 68.1488C199.558 68.2113 199.558 68.2771 199.575 68.3397C199.626 68.4062 199.687 68.4642 199.756 68.5115C200.013 68.6655 200.299 68.7662 200.596 68.8074C200.924 68.8603 201.245 68.9533 201.551 69.0842C201.819 69.2063 202.049 69.3974 202.219 69.6379C202.323 69.8111 202.379 70.0087 202.381 70.2106C202.373 70.4176 202.316 70.6197 202.215 70.8005C202.113 70.9813 201.971 71.1356 201.799 71.2511C201.438 71.5015 201.007 71.6318 200.568 71.6233C199.937 71.5961 199.333 71.3612 198.849 70.9551C198.808 70.9214 198.775 70.8787 198.753 70.8304C198.73 70.782 198.719 70.7293 198.72 70.676C198.721 70.6228 198.734 70.5704 198.758 70.5229C198.782 70.4753 198.817 70.4339 198.859 70.4015Z" fill="#C1C1C1"/>
<path d="M203.25 70.4015C203.316 70.3391 203.403 70.3042 203.493 70.3042C203.584 70.3042 203.671 70.3391 203.737 70.4015C204.094 70.7111 204.544 70.8926 205.016 70.917C205.312 70.9253 205.603 70.8383 205.846 70.6688C205.929 70.6188 205.999 70.5491 206.049 70.4659C206.099 70.3827 206.128 70.2884 206.133 70.1915C206.134 70.1174 206.114 70.0445 206.075 69.9815C206.024 69.9009 205.955 69.8325 205.875 69.7811C205.582 69.6105 205.257 69.5032 204.92 69.4661C204.621 69.4119 204.33 69.3221 204.052 69.1988C203.801 69.0877 203.586 68.9093 203.431 68.6833C203.332 68.5156 203.279 68.3245 203.279 68.1297C203.289 67.9403 203.342 67.7558 203.435 67.5903C203.528 67.4249 203.657 67.2828 203.813 67.1751C204.152 66.9398 204.556 66.8163 204.968 66.822C205.497 66.8503 206.006 67.0365 206.429 67.3565C206.466 67.3816 206.498 67.4138 206.524 67.4514C206.549 67.4889 206.566 67.5311 206.575 67.5754C206.584 67.6197 206.584 67.6653 206.575 67.7097C206.566 67.754 206.549 67.7962 206.524 67.8338C206.499 67.8714 206.467 67.9037 206.429 67.9288C206.392 67.954 206.349 67.9715 206.305 67.9804C206.261 67.9892 206.215 67.9893 206.171 67.9805C206.126 67.9717 206.084 67.9543 206.047 67.9292C205.74 67.6775 205.363 67.5274 204.968 67.4997C204.702 67.4968 204.442 67.5769 204.224 67.7288C204.151 67.7736 204.089 67.835 204.044 67.9079C204 67.9809 203.973 68.0634 203.966 68.1488C203.964 68.2155 203.981 68.2815 204.014 68.3397C204.065 68.4062 204.126 68.4642 204.195 68.5115C204.452 68.6655 204.738 68.7662 205.035 68.8074C205.363 68.8603 205.684 68.9533 205.989 69.0842C206.257 69.2063 206.488 69.3974 206.658 69.6379C206.758 69.8119 206.811 70.0095 206.81 70.2106C206.804 70.4169 206.748 70.6188 206.649 70.7996C206.549 70.9804 206.408 71.1351 206.238 71.2511C205.877 71.5015 205.446 71.6318 205.006 71.6233C204.376 71.5961 203.771 71.3612 203.288 70.9551C203.244 70.9251 203.207 70.8854 203.181 70.839C203.154 70.7927 203.138 70.7409 203.135 70.6876C203.131 70.6343 203.139 70.5809 203.159 70.5313C203.179 70.4817 203.21 70.4374 203.25 70.4015Z" fill="#C1C1C1"/>
<path d="M245.546 67.6332H244.486V71.2032C244.486 71.2994 244.448 71.3917 244.38 71.4597C244.312 71.5277 244.22 71.5659 244.123 71.5659C244.026 71.566 243.933 71.5281 243.864 71.4603C243.794 71.3925 243.754 71.3003 243.751 71.2032V67.6332H242.682C242.584 67.6283 242.492 67.5859 242.424 67.5149C242.357 67.4438 242.319 67.3494 242.319 67.2514C242.319 67.1552 242.358 67.0629 242.426 66.9949C242.494 66.9269 242.586 66.8887 242.682 66.8887H245.546C245.643 66.8886 245.736 66.9265 245.806 66.9943C245.875 67.0621 245.916 67.1543 245.918 67.2514C245.916 67.3503 245.876 67.4447 245.807 67.5155C245.738 67.5864 245.645 67.6284 245.546 67.6332Z" fill="#C1C1C1"/>
<path d="M246.987 71.2033V67.2515C246.987 67.2031 246.996 67.1551 247.015 67.1105C247.034 67.0658 247.062 67.0254 247.096 66.9916C247.131 66.9578 247.172 66.9313 247.217 66.9136C247.262 66.896 247.311 66.8875 247.359 66.8888H249.545C249.64 66.8912 249.731 66.9302 249.799 66.9977C249.866 67.0652 249.905 67.1561 249.908 67.2515C249.908 67.3496 249.87 67.4439 249.803 67.515C249.735 67.5861 249.643 67.6284 249.545 67.6333H247.731V68.8552H249.287C249.386 68.8552 249.481 68.8944 249.55 68.9642C249.62 69.034 249.66 69.1287 249.66 69.2274C249.66 69.3262 249.62 69.4209 249.55 69.4907C249.481 69.5605 249.386 69.5997 249.287 69.5997H247.731V70.8215H249.545C249.643 70.8264 249.735 70.8688 249.803 70.9399C249.87 71.011 249.908 71.1053 249.908 71.2033C249.905 71.2988 249.866 71.3896 249.799 71.4572C249.731 71.5247 249.64 71.5636 249.545 71.5661H247.378C247.328 71.57 247.278 71.5636 247.231 71.5471C247.183 71.5307 247.14 71.5046 247.103 71.4705C247.066 71.4364 247.037 71.3951 247.017 71.3491C246.997 71.3031 246.987 71.2535 246.987 71.2033Z" fill="#C1C1C1"/>
<path d="M250.805 70.4015C250.871 70.3391 250.958 70.3042 251.048 70.3042C251.139 70.3042 251.226 70.3391 251.292 70.4015C251.649 70.7111 252.099 70.8926 252.571 70.917C252.867 70.9253 253.158 70.8383 253.401 70.6688C253.485 70.6187 253.556 70.5492 253.607 70.4662C253.659 70.3831 253.69 70.2889 253.697 70.1915C253.696 70.1166 253.672 70.0437 253.631 69.9815C253.582 69.8987 253.513 69.8297 253.43 69.7811C253.138 69.6087 252.813 69.5012 252.476 69.4661C252.179 69.413 251.891 69.3232 251.616 69.1988C251.362 69.0906 251.143 68.9117 250.986 68.6833C250.887 68.5156 250.835 68.3245 250.834 68.1297C250.844 67.9403 250.897 67.7558 250.99 67.5903C251.083 67.4249 251.212 67.2828 251.368 67.1751C251.707 66.9398 252.111 66.8163 252.523 66.822C253.053 66.8485 253.562 67.0349 253.984 67.3565C254.058 67.4086 254.109 67.4873 254.127 67.5761C254.145 67.6649 254.127 67.7572 254.079 67.8338C254.054 67.8714 254.022 67.9038 253.984 67.929C253.947 67.9542 253.905 67.9717 253.86 67.9806C253.816 67.9894 253.77 67.9895 253.726 67.9807C253.682 67.9718 253.639 67.9544 253.602 67.9292C253.296 67.6775 252.919 67.5274 252.523 67.4997C252.257 67.4968 251.997 67.5769 251.779 67.7288C251.706 67.7736 251.644 67.835 251.6 67.9079C251.555 67.9809 251.528 68.0634 251.521 68.1488C251.504 68.2113 251.504 68.2771 251.521 68.3397C251.572 68.4062 251.633 68.4642 251.702 68.5115C251.96 68.6655 252.245 68.7662 252.542 68.8074C252.871 68.8603 253.191 68.9533 253.497 69.0842C253.767 69.2034 253.998 69.3951 254.165 69.6379C254.269 69.8111 254.325 70.0087 254.327 70.2106C254.319 70.4164 254.262 70.6175 254.163 70.7979C254.064 70.9784 253.924 71.1335 253.755 71.2511C253.39 71.5016 252.956 71.6318 252.514 71.6233C251.885 71.5991 251.283 71.3637 250.805 70.9551C250.762 70.9232 250.726 70.8815 250.702 70.8334C250.678 70.7853 250.665 70.7322 250.665 70.6783C250.665 70.6244 250.678 70.5713 250.702 70.5232C250.726 70.4751 250.762 70.4334 250.805 70.4015Z" fill="#C1C1C1"/>
<path d="M258.174 67.6333H257.105V71.2033C257.105 71.2995 257.067 71.3918 256.999 71.4598C256.931 71.5278 256.839 71.5661 256.742 71.5661C256.645 71.5661 256.552 71.5282 256.482 71.4604C256.413 71.3927 256.373 71.3004 256.37 71.2033V67.6333H255.32C255.22 67.6309 255.126 67.5895 255.056 67.5182C254.987 67.4469 254.948 67.3512 254.948 67.2515C254.948 67.2031 254.957 67.1551 254.976 67.1105C254.995 67.0658 255.023 67.0254 255.057 66.9916C255.092 66.9578 255.133 66.9313 255.178 66.9136C255.223 66.896 255.272 66.8875 255.32 66.8888H258.184C258.28 66.8888 258.372 66.927 258.44 66.995C258.508 67.0631 258.546 67.1553 258.546 67.2515C258.546 67.3512 258.508 67.4469 258.438 67.5182C258.368 67.5895 258.274 67.6309 258.174 67.6333Z" fill="#C1C1C1"/>
<path d="M259.683 67.2515C259.683 67.2031 259.692 67.1551 259.711 67.1105C259.73 67.0658 259.758 67.0254 259.792 66.9916C259.827 66.9578 259.868 66.9313 259.913 66.9136C259.958 66.896 260.006 66.8875 260.055 66.8888C260.152 66.8888 260.245 66.9267 260.315 66.9944C260.384 67.0622 260.425 67.1545 260.427 67.2515V71.2033C260.425 71.3004 260.384 71.3927 260.315 71.4604C260.245 71.5282 260.152 71.5661 260.055 71.5661C260.006 71.5673 259.958 71.5589 259.913 71.5412C259.868 71.5236 259.827 71.4971 259.792 71.4633C259.758 71.4295 259.73 71.389 259.711 71.3444C259.692 71.2997 259.683 71.2518 259.683 71.2033V67.2515Z" fill="#C1C1C1"/>
<path d="M262.413 71.2035C262.41 71.2989 262.371 71.3898 262.304 71.4573C262.236 71.5248 262.145 71.5638 262.05 71.5662C262.002 71.5675 261.954 71.559 261.91 71.5413C261.865 71.5235 261.824 71.4968 261.79 71.4629C261.756 71.4289 261.73 71.3884 261.712 71.3438C261.694 71.2992 261.686 71.2515 261.687 71.2035V67.3185C261.686 67.2423 261.708 67.1677 261.752 67.1051C261.795 67.0426 261.857 66.9952 261.929 66.9699C262.001 66.9445 262.079 66.9425 262.152 66.9639C262.225 66.9853 262.289 67.0292 262.336 67.0894L264.494 70.0771V67.3185C264.494 67.2223 264.532 67.13 264.6 67.062C264.668 66.994 264.76 66.9558 264.856 66.9558C264.953 66.9557 265.047 66.9936 265.116 67.0614C265.186 67.1291 265.226 67.2214 265.228 67.3185V71.2035C265.226 71.3005 265.186 71.3928 265.116 71.4606C265.047 71.5283 264.953 71.5662 264.856 71.5662C264.804 71.5662 264.753 71.5541 264.707 71.5309C264.66 71.5077 264.62 71.4741 264.589 71.4326L262.451 68.4639L262.413 71.2035Z" fill="#C1C1C1"/>
<path d="M266.288 69.1703C266.296 68.7111 266.431 68.2632 266.68 67.8767C266.928 67.4903 267.279 67.1806 267.693 66.9824C268.107 66.7841 268.569 66.7052 269.025 66.7545C269.482 66.8037 269.916 66.9792 270.278 67.2612C270.359 67.322 270.413 67.4124 270.427 67.5127C270.441 67.6129 270.415 67.7147 270.354 67.7958C270.291 67.8759 270.198 67.9278 270.096 67.9403C269.994 67.9528 269.892 67.9249 269.81 67.8626C269.482 67.6073 269.072 67.4792 268.656 67.502C268.24 67.5248 267.847 67.6969 267.548 67.9867C267.392 68.1356 267.267 68.3147 267.182 68.5133C267.097 68.7118 267.053 68.9256 267.053 69.1417C267.053 69.3577 267.097 69.5715 267.182 69.7701C267.267 69.9686 267.392 70.1478 267.548 70.2967C267.706 70.4535 267.894 70.5773 268.101 70.6609C268.307 70.7445 268.528 70.7861 268.751 70.7835C269.086 70.7886 269.415 70.7028 269.705 70.5353V69.5808H268.751C268.65 69.5808 268.552 69.5405 268.481 69.4689C268.409 69.3973 268.369 69.3002 268.369 69.1989C268.369 69.1492 268.379 69.1 268.398 69.0542C268.418 69.0084 268.446 68.967 268.481 68.9323C268.517 68.8976 268.559 68.8704 268.605 68.8522C268.652 68.8341 268.701 68.8254 268.751 68.8267H270.087C270.137 68.8254 270.186 68.8341 270.233 68.8522C270.279 68.8704 270.321 68.8976 270.357 68.9323C270.392 68.967 270.42 69.0084 270.44 69.0542C270.459 69.1 270.469 69.1492 270.469 69.1989V70.6785C270.474 70.7165 270.474 70.755 270.469 70.793C270.439 70.8576 270.393 70.9134 270.335 70.9553C269.901 71.2909 269.367 71.4723 268.818 71.4708C268.178 71.4993 267.552 71.2734 267.078 70.8423C266.604 70.4113 266.32 69.8102 266.288 69.1703Z" fill="#C1C1C1"/>
<path d="M319.924 71.2033V67.2515C319.924 67.2031 319.933 67.1551 319.952 67.1105C319.971 67.0658 319.999 67.0254 320.033 66.9916C320.068 66.9578 320.109 66.9313 320.154 66.9136C320.199 66.896 320.248 66.8875 320.296 66.8888H321.079C321.699 66.8888 322.294 67.1352 322.732 67.5738C323.171 68.0123 323.417 68.6072 323.417 69.2274C323.417 69.8477 323.171 70.4425 322.732 70.8811C322.294 71.3197 321.699 71.5661 321.079 71.5661H320.296C320.248 71.5673 320.199 71.5589 320.154 71.5412C320.109 71.5236 320.068 71.4971 320.033 71.4633C319.999 71.4295 319.971 71.389 319.952 71.3444C319.933 71.2997 319.924 71.2518 319.924 71.2033ZM320.668 70.8215H321.079C321.502 70.8215 321.907 70.6536 322.206 70.3546C322.505 70.0557 322.673 69.6502 322.673 69.2274C322.673 68.8047 322.505 68.3992 322.206 68.1002C321.907 67.8013 321.502 67.6333 321.079 67.6333H320.668V70.8215Z" fill="#C1C1C1"/>
<path d="M328.324 67.4713C328.753 67.9294 328.991 68.5334 328.991 69.1608C328.991 69.7883 328.753 70.3923 328.324 70.8504C328.12 71.0741 327.873 71.2532 327.597 71.3765C327.321 71.4997 327.022 71.5643 326.72 71.5663C326.413 71.5665 326.11 71.503 325.829 71.3798C325.548 71.2565 325.295 71.0763 325.088 70.8504C324.659 70.3923 324.42 69.7883 324.42 69.1608C324.42 68.5334 324.659 67.9294 325.088 67.4713C325.295 67.2454 325.548 67.0651 325.829 66.9419C326.11 66.8186 326.413 66.7551 326.72 66.7554C327.022 66.7573 327.321 66.822 327.597 66.9452C327.873 67.0684 328.12 67.2476 328.324 67.4713ZM328.238 69.1608C328.238 68.7257 328.075 68.3064 327.78 67.9867C327.644 67.8411 327.48 67.7245 327.298 67.6441C327.116 67.5637 326.919 67.5212 326.72 67.519C326.518 67.5174 326.317 67.5582 326.131 67.6387C325.946 67.7193 325.779 67.8378 325.641 67.9867C325.343 68.3043 325.179 68.725 325.183 69.1608C325.176 69.5943 325.341 70.0129 325.641 70.3254C325.778 70.4755 325.945 70.5956 326.13 70.6777C326.316 70.7599 326.517 70.8025 326.72 70.8026C326.92 70.7987 327.117 70.7544 327.299 70.6724C327.481 70.5904 327.644 70.4723 327.78 70.3254C328.076 70.0101 328.24 69.5933 328.238 69.1608Z" fill="#C1C1C1"/>
<path d="M330.872 71.2031C330.87 71.2986 330.831 71.3894 330.763 71.4569C330.696 71.5244 330.605 71.5634 330.51 71.5658C330.462 71.5672 330.414 71.5587 330.369 71.5409C330.325 71.5231 330.284 71.4965 330.25 71.4625C330.216 71.4286 330.19 71.3881 330.172 71.3435C330.154 71.2989 330.146 71.2511 330.147 71.2031V67.3181C330.142 67.2591 330.152 67.1997 330.177 67.146C330.202 67.0923 330.241 67.0463 330.29 67.0127C330.367 66.9559 330.464 66.9321 330.559 66.9464C330.654 66.9608 330.739 67.012 330.796 67.089L332.953 70.0768V67.3181C332.953 67.2219 332.991 67.1297 333.059 67.0616C333.128 66.9936 333.22 66.9554 333.316 66.9554C333.413 66.9554 333.506 66.9933 333.576 67.061C333.645 67.1288 333.686 67.221 333.688 67.3181V71.2031C333.686 71.3002 333.645 71.3924 333.576 71.4602C333.506 71.528 333.413 71.5659 333.316 71.5658C333.263 71.5659 333.21 71.5539 333.162 71.5307C333.114 71.5076 333.072 71.4739 333.039 71.4322L330.901 68.4636L330.872 71.2031Z" fill="#C1C1C1"/>
<path d="M334.853 71.2033V67.2515C334.853 67.2031 334.863 67.1551 334.882 67.1105C334.9 67.0658 334.928 67.0254 334.963 66.9916C334.997 66.9578 335.038 66.9313 335.084 66.9136C335.129 66.896 335.177 66.8875 335.225 66.8888H337.411C337.507 66.8912 337.598 66.9302 337.665 66.9977C337.733 67.0652 337.772 67.1561 337.774 67.2515C337.774 67.3496 337.737 67.4439 337.669 67.515C337.601 67.5861 337.509 67.6284 337.411 67.6333H335.598V68.8552H337.182C337.278 68.8576 337.368 68.8966 337.436 68.9641C337.503 69.0316 337.542 69.1224 337.545 69.2179C337.546 69.2668 337.538 69.3154 337.52 69.3611C337.503 69.4067 337.476 69.4485 337.443 69.484C337.409 69.5194 337.369 69.5479 337.324 69.5677C337.279 69.5876 337.231 69.5985 337.182 69.5997H335.626V70.8215H337.44C337.538 70.8264 337.63 70.8688 337.698 70.9399C337.765 71.011 337.803 71.1053 337.803 71.2033C337.8 71.2988 337.761 71.3896 337.694 71.4572C337.626 71.5247 337.535 71.5636 337.44 71.5661H335.273C335.221 71.5744 335.167 71.5713 335.117 71.5568C335.066 71.5424 335.019 71.517 334.979 71.4824C334.939 71.4479 334.907 71.405 334.885 71.3568C334.863 71.3086 334.852 71.2562 334.853 71.2033Z" fill="#C1C1C1"/>
<path d="M183.681 90.5044C177.017 91.3038 170.721 94.0007 165.545 98.2744C162.986 100.387 160.895 103.011 159.407 105.978C158.687 107.456 158.173 109.027 157.88 110.645C157.605 112.264 157.573 113.914 157.785 115.542C158.15 118.813 159.582 121.872 161.86 124.248C164.214 126.548 167.11 128.219 170.28 129.106C173.46 130.027 176.744 130.54 180.054 130.633C183.369 130.763 186.688 130.629 189.981 130.233C193.259 129.828 196.456 128.923 199.46 127.55C202.459 126.174 205.163 124.229 207.421 121.823C209.67 119.426 211.307 116.521 212.194 113.356C213.142 110.21 212.952 106.831 211.659 103.811C210.17 100.871 207.846 98.4365 204.977 96.8139C202.104 95.1417 198.976 93.9518 195.718 93.2917C189.159 91.8881 182.346 92.2437 175.969 94.3226C182.339 92.0925 189.185 91.5854 195.814 92.8526C199.137 93.4689 202.335 94.6369 205.273 96.308C208.284 97.9614 210.739 100.469 212.327 103.515C213.073 105.071 213.492 106.764 213.559 108.488C213.643 110.203 213.456 111.92 213.005 113.576C212.09 116.881 210.39 119.917 208.051 122.424C205.724 124.92 202.936 126.942 199.842 128.381C196.758 129.816 193.47 130.763 190.096 131.187C186.745 131.58 183.367 131.701 179.997 131.55C176.614 131.437 173.259 130.895 170.012 129.937C166.712 128.996 163.702 127.24 161.259 124.83C158.872 122.321 157.394 119.085 157.059 115.638C156.855 113.94 156.91 112.221 157.221 110.54C157.549 108.882 158.102 107.277 158.863 105.768C160.417 102.749 162.59 100.091 165.24 97.9689C170.542 93.7598 176.944 91.1682 183.681 90.5044Z" fill="#263238"/>
<path d="M119.67 103.591C121.228 100.979 123.388 98.776 125.97 97.1671C127.282 96.3686 128.717 95.7944 130.218 95.4681C131.723 95.1692 133.266 95.108 134.79 95.2867C136.342 95.4239 137.848 95.8918 139.204 96.6591C140.561 97.4263 141.738 98.4751 142.655 99.7349C143.103 100.391 143.448 101.112 143.677 101.873C143.927 102.657 143.963 103.495 143.782 104.298C143.682 104.733 143.477 105.137 143.186 105.475C142.894 105.813 142.525 106.076 142.11 106.239C141.694 106.403 141.245 106.463 140.801 106.414C140.358 106.365 139.932 106.209 139.563 105.959C138.905 105.392 138.469 104.611 138.331 103.754C138.184 102.964 138.155 102.156 138.245 101.358C138.431 99.7938 138.925 98.2822 139.696 96.9094C141.244 94.1514 143.71 92.0234 146.664 90.8958C149.571 89.7016 152.805 89.5697 155.799 90.5235C158.708 91.5738 161.24 93.4641 163.073 95.9549L162.93 96.0694C160.968 93.8304 158.424 92.1784 155.58 91.2967C154.18 90.8899 152.718 90.7411 151.265 90.8576C149.812 90.9851 148.388 91.3427 147.046 91.9171C144.341 93.012 142.077 94.9768 140.613 97.5012C139.895 98.753 139.422 100.13 139.219 101.558C139.114 102.254 139.114 102.962 139.219 103.658C139.303 104.301 139.602 104.897 140.069 105.348C140.313 105.528 140.601 105.64 140.903 105.671C141.205 105.703 141.51 105.654 141.787 105.529C142.081 105.423 142.343 105.244 142.549 105.009C142.754 104.773 142.896 104.489 142.961 104.183C143.075 103.492 143.049 102.786 142.885 102.106C142.721 101.425 142.422 100.785 142.006 100.222C141.161 99.0284 140.071 98.0295 138.808 97.292C137.545 96.5544 136.14 96.0953 134.685 95.9453C133.219 95.7589 131.733 95.7879 130.275 96.0312C128.813 96.3088 127.407 96.8248 126.113 97.5585C123.522 99.0779 121.332 101.196 119.727 103.734L119.67 103.591Z" fill="#263238"/>
<path d="M158.109 95.3342L162.701 95.7638L162.796 91.1533L163.617 96.7851L158.109 95.3342Z" fill="#263238"/>
<path d="M238.864 160.94C237.723 165.11 237.173 169.418 237.231 173.741C237.201 178.043 237.988 182.313 239.551 186.322C240.342 188.3 241.382 190.17 242.644 191.887C245.176 195.311 248.436 198.131 252.189 200.143C253.144 200.716 254.098 201.098 255.053 201.604C256.007 202.11 257.048 202.415 258.041 202.835L257.974 203.074C253.698 202.035 249.699 200.081 246.252 197.347C242.848 194.502 240.26 190.807 238.749 186.637C237.255 182.513 236.552 178.144 236.678 173.76C236.762 169.409 237.449 165.092 238.721 160.931L238.864 160.94Z" fill="#263238"/>
<path d="M252.981 204.887L257.64 202.787L255.206 198.292L259.081 203.274L252.981 204.887Z" fill="#263238"/>
<path d="M301.721 117.508C303.63 117.365 305.491 117.298 307.372 117.241C309.252 117.184 311.19 117.164 313.032 117.155C314.874 117.145 316.803 117.155 318.683 117.231C320.563 117.308 322.453 117.365 324.343 117.508C322.434 117.661 320.573 117.728 318.683 117.785C316.793 117.842 314.913 117.861 313.032 117.871C311.152 117.88 309.262 117.871 307.372 117.785C305.482 117.699 303.601 117.661 301.721 117.508Z" fill="#263238"/>
<path d="M301.721 120.21C305.786 119.739 309.892 119.739 313.958 120.21C309.893 120.693 305.785 120.693 301.721 120.21Z" fill="#263238"/>
<path d="M301.721 122.911C303.391 122.768 305.052 122.701 306.723 122.644C308.393 122.586 310.054 122.567 311.724 122.558C313.395 122.548 315.065 122.558 316.726 122.644C318.387 122.729 320.067 122.768 321.728 122.911C320.067 123.064 318.397 123.13 316.726 123.188C315.056 123.245 313.395 123.264 311.724 123.274C310.054 123.283 308.393 123.274 306.723 123.188C305.052 123.102 303.391 123.064 301.721 122.911Z" fill="#263238"/>
<path d="M301.721 125.622C303.076 125.469 304.432 125.403 305.787 125.345C307.143 125.288 308.508 125.269 309.863 125.259C311.218 125.25 312.574 125.259 313.929 125.345C315.285 125.431 316.65 125.469 318.005 125.622C316.65 125.765 315.294 125.832 313.929 125.889C312.564 125.947 311.218 125.966 309.863 125.975C308.508 125.985 307.152 125.975 305.787 125.889C304.422 125.803 303.076 125.765 301.721 125.622Z" fill="#263238"/>
<path d="M187.433 183.84C189.342 183.696 191.203 183.63 193.084 183.563C194.964 183.496 196.902 183.496 198.734 183.486C200.567 183.477 202.505 183.486 204.395 183.563C206.285 183.639 208.213 183.696 210.046 183.84C208.137 183.992 206.275 184.059 204.395 184.116C202.514 184.174 200.624 184.193 198.734 184.202C196.844 184.212 194.916 184.202 193.084 184.116C191.251 184.031 189.313 183.992 187.433 183.84Z" fill="#263238"/>
<path d="M187.433 186.541C188.884 186.398 190.296 186.331 191.795 186.274C193.294 186.216 194.706 186.197 196.157 186.188C197.608 186.178 199.069 186.188 200.529 186.264C201.989 186.34 203.393 186.398 204.891 186.541C203.44 186.694 202.028 186.76 200.529 186.818C199.03 186.875 197.618 186.894 196.157 186.904C194.697 186.913 193.294 186.904 191.795 186.818C190.296 186.732 188.884 186.694 187.433 186.541Z" fill="#263238"/>
<path d="M187.433 189.242C189.094 189.099 190.764 189.032 192.434 188.975C194.105 188.918 195.766 188.899 197.436 188.889C199.107 188.88 200.768 188.889 202.438 188.975C204.109 189.061 205.769 189.099 207.44 189.242C205.769 189.395 204.109 189.462 202.438 189.519C200.768 189.576 199.107 189.596 197.436 189.605C195.766 189.615 194.095 189.605 192.434 189.519C190.774 189.433 189.094 189.395 187.433 189.242Z" fill="#263238"/>
<path d="M184.12 288.429C183.228 291.696 182.641 295.038 182.364 298.413C182.45 298.585 182.431 299.206 182.364 299.034C182.364 299.578 181.505 299.482 181.505 298.938C181.505 298.585 181.505 298.232 181.505 297.888C179.596 295.473 176.732 293.937 174.432 291.827C172.586 290.177 171.243 288.039 170.556 285.661C168.647 279.112 170.432 272.182 168.151 265.615C166.184 259.983 162.652 255.115 159.655 249.989C156.505 244.596 154.176 238.936 153.928 232.617C153.737 227.777 154.319 221.334 158.004 217.706C161.908 213.888 166.747 216.752 169.735 220.179C178.402 230.125 182.421 242.697 184.053 255.554C184.941 262.666 185.876 269.825 185.657 277.012C185.526 280.86 185.011 284.684 184.12 288.429Z" fill="#FF9356"/>
<path d="M182.392 301.029C182.87 294.314 182.793 287.571 182.163 280.869C182.169 280.847 182.169 280.824 182.163 280.802C182.278 275.352 182.707 269.92 182.488 264.47C182.226 258.57 181.424 252.707 180.092 246.954C180.092 246.887 179.977 246.897 179.987 246.954C181.052 252.609 181.69 258.337 181.896 264.088C182.001 267.162 181.982 270.245 181.82 273.328C181.762 274.283 181.676 275.333 181.61 276.344C179.343 261.028 173.809 246.379 165.382 233.39C165.268 233.218 164.953 233.39 165.067 233.59C171.078 243.448 175.528 254.177 178.259 265.396C174.097 257.673 167.759 251.326 163.13 243.899C163.13 243.899 163.034 243.899 163.053 243.899C167.253 252.156 174.183 258.676 178.603 266.808C179.366 270.121 179.996 273.49 180.464 276.841C181.087 281.464 181.425 286.122 181.476 290.787C178.819 286.139 176.398 281.36 174.221 276.468C174.164 276.335 173.973 276.468 174.021 276.554C175.787 281.776 178.164 287.388 181.486 291.827C181.486 295.13 181.393 298.429 181.209 301.726C180.693 310.527 179.185 319.213 178.498 327.985C178.498 328.243 178.841 328.281 178.899 327.985C180.671 319.089 181.839 310.083 182.392 301.029Z" fill="#263238"/>
<path d="M173.047 273.251C173.047 273.185 172.933 273.251 172.952 273.251C174.403 277.689 175.629 282.197 176.627 286.758C176.64 286.796 176.666 286.828 176.7 286.849C176.734 286.87 176.774 286.878 176.814 286.872C176.853 286.867 176.89 286.847 176.916 286.818C176.943 286.788 176.959 286.75 176.961 286.71C176.322 282.057 175.003 277.522 173.047 273.251Z" fill="#263238"/>
<path d="M213.873 251.793C212.801 254.399 211.564 256.934 210.17 259.382C207.306 264.642 204.261 269.452 203.717 275.609C203.623 278.345 203.232 281.062 202.552 283.713C201.79 285.979 200.699 288.121 199.317 290.071C196.176 294.633 192.262 298.576 189.351 303.32C186.326 308.263 184.091 313.648 182.727 319.28C182.66 319.595 182.173 319.509 182.249 319.203C182.253 319.181 182.253 319.159 182.249 319.137V319.07C181.791 305.945 182.841 292.715 186.841 280.143C188.61 274.602 190.737 269.182 193.207 263.916C195.221 259.269 198.142 255.069 201.798 251.564C204.232 249.369 209.53 245.198 213.014 247.403C214.656 248.472 214.532 250.152 213.873 251.793Z" fill="#FF9356"/>
<path d="M201.245 275.925C198.353 279.621 195.852 283.607 193.78 287.818C193.78 287.818 193.838 287.923 193.866 287.875C196.377 283.933 198.849 279.972 201.359 276.029C201.398 275.934 201.293 275.867 201.245 275.925Z" fill="#263238"/>
<path d="M145.375 264.231C147.074 267.161 149.012 270.674 148.287 274.196C147.819 276.42 146.196 278.234 145.9 280.496C145.242 285.517 150.234 288.83 153.852 291.197C162.862 297.105 175.224 302.375 176.856 314.45C176.923 314.879 177.658 314.774 177.61 314.354C177.614 314.329 177.614 314.303 177.61 314.278C177.61 314.278 177.61 314.278 177.61 314.201C178.798 308.106 178.742 301.833 177.448 295.76C176.102 289.536 173.382 283.942 170.184 278.482C164.752 269.223 159.016 259.754 150.816 252.662C148.544 250.705 143.896 247.183 142.082 251.602C140.268 256.022 143.294 260.661 145.375 264.231Z" fill="#FF9356"/>
<path d="M153.623 283.847C159.598 290.319 169.096 293.946 174.241 301.191C171.37 290.163 165.941 279.967 158.395 271.428C158.373 271.407 158.356 271.382 158.344 271.353C158.332 271.325 158.325 271.295 158.325 271.265C158.324 271.234 158.33 271.204 158.341 271.175C158.352 271.147 158.369 271.121 158.391 271.099C158.412 271.077 158.437 271.059 158.465 271.047C158.493 271.035 158.524 271.029 158.554 271.028C158.585 271.028 158.615 271.033 158.644 271.045C158.672 271.056 158.698 271.073 158.72 271.094C164.22 276.442 168.62 282.814 171.673 289.851C170.25 284.939 168.384 280.165 166.098 275.59C166.013 275.409 166.261 275.266 166.356 275.437C169.197 280.427 171.227 285.837 172.37 291.464C179.147 307.863 179.777 327.107 178.355 344.403C178.355 344.642 177.954 344.651 177.963 344.403C178.355 330.772 178.135 316.912 174.871 303.596L174.651 302.776C169.058 294.977 159.598 291.321 153.518 283.952C153.46 283.876 153.556 283.78 153.623 283.847Z" fill="#263238"/>
<path d="M152.238 278.272C155.369 281.136 158.462 284.095 161.602 286.968C161.602 286.968 161.602 287.054 161.555 287.025C157.985 284.624 154.772 281.732 152.009 278.434C151.988 278.404 151.979 278.366 151.985 278.33C151.992 278.293 152.012 278.26 152.043 278.239C152.073 278.217 152.111 278.209 152.147 278.215C152.184 278.221 152.217 278.242 152.238 278.272Z" fill="#263238"/>
<path d="M152.184 264.959C154.955 269.509 158.093 273.825 161.567 277.865C161.615 277.922 161.567 277.998 161.491 277.951C157.596 274.244 154.387 269.878 152.012 265.055C152 265.032 151.997 265.005 152.004 264.98C152.011 264.955 152.028 264.934 152.051 264.921C152.073 264.908 152.1 264.905 152.125 264.912C152.15 264.92 152.172 264.936 152.184 264.959Z" fill="#263238"/>
<path d="M165.86 356.593H193.332L189.638 319.633H170.098L165.86 356.593Z" fill="#455A64"/>
<path d="M169.401 325.637H190.239L189.637 319.633H170.088L169.401 325.637Z" fill="#263238"/>
<path d="M166.728 321.437H192.482V315.538H166.728V321.437Z" fill="#455A64"/>
<path d="M62.1196 92.566C49.8632 102.178 28.8632 128.953 31.5932 135.091C37.1487 147.5 56.0487 162.954 60.8882 165.818C63.7518 167.479 81.3537 148.187 78.6141 146.021C75.4068 143.481 55.8864 130.051 55.6096 128.486C55.3996 127.283 63.2459 112.974 68.8396 100.956C75.3209 87.0392 67.9996 87.9937 62.1196 92.566Z" fill="#D3766A"/>
<path d="M75.7028 144.712C75.7028 144.712 84.7805 148.798 90.5937 151.757C93.8392 153.399 99.1846 156.721 100.97 159.021C103.7 162.467 112.94 178.599 109.074 180.918C105.58 183.028 99.4042 168.156 99.4042 168.156C99.4042 168.156 106.964 182.608 102.268 184.383C97.5714 186.159 92.8464 168.414 92.8464 168.414C92.8464 168.414 100.282 183.438 95.166 184.488C91.3478 185.29 86.1074 169.473 86.1074 169.473C86.1074 169.473 92.4074 182.426 88.4651 183.419C84.1219 184.507 78.4042 170.208 78.4042 170.208C67.971 171.039 61.2224 167.851 58.5114 162.858C57.9864 161.818 75.7028 144.712 75.7028 144.712Z" fill="#D3766A"/>
<path d="M97.1134 162.992C98.0679 164.653 99.0224 166.333 99.8338 168.08C100.645 169.827 101.361 171.592 102.001 173.406C102.873 175.757 103.472 178.201 103.786 180.689C102.898 176.317 100.139 170.027 99.347 168.28C98.5547 166.533 97.8388 164.758 97.0465 163.021C97.0179 162.973 97.0847 162.954 97.1134 162.992Z" fill="#263238"/>
<path d="M90.7562 165.76C91.8826 167.937 93.0758 170.056 94.0971 172.289C95.1185 174.523 95.8917 176.699 96.7508 178.971C96.8176 179.153 96.703 179.124 96.6267 178.971C95.6721 176.728 94.6221 174.723 93.639 172.49C92.6558 170.256 91.7299 167.975 90.7085 165.808L90.7562 165.76Z" fill="#263238"/>
<path d="M84.8854 167.154C86.6812 170.455 88.1334 173.932 89.2191 177.53C89.2763 177.702 89.1332 177.664 89.0568 177.53C87.6822 174.055 86.6322 171.316 84.7709 167.269C84.7422 167.154 84.8377 167.087 84.8854 167.154Z" fill="#263238"/>
<path d="M73.8607 142.155L56.9079 165.78C56.9079 165.78 30.2952 142.422 30.4002 133.64C30.5052 124.858 49.577 101.348 60.6402 92.8524C71.7034 84.3569 73.7557 91.0579 69.737 100.89C65.7184 110.721 56.3352 128.409 56.6407 128.839C56.9461 129.268 73.8607 142.155 73.8607 142.155Z" fill="#FF9356"/>
<path d="M61.1939 150.449C62.4252 148.893 63.6279 147.299 64.8211 145.677C65.3938 144.913 65.9761 144.159 66.5298 143.376C67.0834 142.593 67.7993 141.725 68.3243 140.847C68.3344 140.835 68.3396 140.82 68.3387 140.805C68.3378 140.79 68.3309 140.776 68.3195 140.765C68.3081 140.755 68.2932 140.75 68.278 140.751C68.2628 140.752 68.2485 140.759 68.2384 140.77C67.5129 141.496 66.8734 142.345 66.1957 143.109C65.5179 143.873 64.9643 144.569 64.3629 145.304C63.1029 146.841 61.8334 148.378 60.6116 149.943C58.1489 153.074 55.7911 156.272 53.462 159.489C53.4494 159.505 53.4438 159.526 53.4465 159.547C53.4491 159.567 53.4599 159.586 53.4764 159.599C53.4928 159.611 53.5136 159.617 53.5342 159.614C53.5548 159.612 53.5735 159.601 53.5861 159.584C56.1729 156.616 58.7216 153.571 61.1939 150.449Z" fill="#263238"/>
<path d="M76.4666 331.603C72.763 330.992 68.2671 331.651 65.5084 334.342C65.3939 334.447 65.5085 334.6 65.6612 334.552C69.1617 333.345 72.7807 332.513 76.4571 332.071C76.5113 332.061 76.5604 332.033 76.5962 331.991C76.6319 331.949 76.6521 331.896 76.6532 331.841C76.6543 331.786 76.6364 331.732 76.6024 331.689C76.5684 331.645 76.5204 331.615 76.4666 331.603Z" fill="#263238"/>
<path d="M79.1586 333.149C75.4549 332.538 70.959 333.206 68.2004 335.889C68.0954 335.994 68.2004 336.146 68.3626 336.099C71.8629 334.89 75.482 334.058 79.1586 333.617C79.2125 333.606 79.261 333.577 79.2958 333.534C79.3307 333.491 79.3497 333.438 79.3497 333.383C79.3497 333.328 79.3307 333.275 79.2958 333.232C79.261 333.189 79.2125 333.16 79.1586 333.149Z" fill="#263238"/>
<path d="M81.8504 334.696C78.1564 334.085 73.6604 334.753 70.8923 337.435C70.7873 337.54 70.8923 337.693 71.0545 337.655C74.5535 336.44 78.1729 335.604 81.8504 335.163C81.9044 335.152 81.9529 335.123 81.9877 335.08C82.0226 335.038 82.0416 334.985 82.0416 334.929C82.0416 334.874 82.0226 334.821 81.9877 334.778C81.9529 334.736 81.9044 334.707 81.8504 334.696Z" fill="#263238"/>
<path d="M97.9342 351.429C96.0251 352.031 40.4037 350.589 38.3228 349.195C37.521 348.67 37.2633 340.605 37.2251 330.754V330.448L73.0874 330.973V331.584C73.0874 331.584 94.0874 341.655 96.2446 343.43C98.4019 345.206 99.891 350.818 97.9342 351.429Z" fill="#37474F"/>
<path d="M37.2251 330.438V330.773C37.2251 340.576 37.521 348.68 38.3228 349.205C39.1246 349.73 51.3046 350.484 64.3246 350.952C79.9028 351.496 96.8651 351.773 97.9342 351.448C99.8433 350.837 98.316 345.215 96.2065 343.439C94.0969 341.664 73.0587 331.584 73.0587 331.584V330.983L61.1365 330.773L37.2251 330.438Z" fill="#FF9356"/>
<path d="M97.3614 349.262C87.9973 348.785 50.1878 347.764 40.9 348.002C40.8237 348.002 40.8237 348.06 40.9 348.06C50.1687 348.737 87.9782 349.453 97.3519 349.415C97.5905 349.415 97.5905 349.272 97.3614 349.262Z" fill="#263238"/>
<path opacity="0.1" d="M61.1367 330.772C62.0054 336.777 63.3417 345.635 64.3249 350.913C79.9031 351.457 96.8654 351.734 97.9344 351.41C99.8435 350.799 98.3163 345.177 96.2067 343.401C94.0972 341.626 73.059 331.584 73.059 331.584V330.982L61.1367 330.772Z" fill="black"/>
<path d="M33.9893 330.963L74.2043 331.345C74.2043 331.345 85.3915 183.095 75.4452 144.254H45.377C45.377 144.254 37.3111 160.739 41.9215 179.296L40.4802 246.047L33.9893 330.963Z" fill="#37474F"/>
<path d="M36.9674 323.919C38.0311 323.776 39.1017 323.69 40.1747 323.661C41.3583 323.575 42.5419 323.49 43.7351 323.442C46.026 323.346 48.3138 323.295 50.5983 323.289C55.2183 323.289 59.8383 323.289 64.4583 323.451C67.0833 323.537 69.7083 323.642 72.3333 323.795C72.4288 323.795 72.4288 323.957 72.3333 323.957C67.761 324.119 63.1792 324.196 58.5974 324.282C54.0156 324.368 49.4433 324.463 44.871 324.377C43.5538 324.377 42.246 324.377 40.9288 324.263C39.6115 324.148 38.2751 324.263 36.996 324.072C36.9101 324.091 36.8815 323.938 36.9674 323.919Z" fill="#263238"/>
<path d="M71.3121 287.818C71.7798 276.994 72.1234 266.16 72.4194 255.364C73.0112 233.695 73.1671 212.021 72.8871 190.34C72.7344 178.179 72.4098 166.028 72.0471 153.867C72.0471 153.733 72.2571 153.733 72.2666 153.867C73.4121 175.621 73.8512 197.432 73.8798 219.215C73.9085 240.998 73.4503 262.58 72.3812 284.229C71.7798 296.38 71.0353 308.541 69.8994 320.655C69.8994 320.677 69.8903 320.699 69.8742 320.715C69.8581 320.731 69.8362 320.74 69.8135 320.74C69.7907 320.74 69.7688 320.731 69.7527 320.715C69.7366 320.699 69.7275 320.677 69.7275 320.655C70.2239 309.639 70.8635 298.71 71.3121 287.818Z" fill="#263238"/>
<path d="M81.2012 299.082C81.2012 299.082 81.5066 335.45 81.5066 335.469C81.5066 342.427 81.6689 348.517 82.0412 351.696V351.744C82.0512 352.49 82.2307 353.225 82.5662 353.892C82.5662 353.892 82.5662 353.892 82.5662 353.939C84.6375 355.333 140.221 356.803 142.178 356.173C144.134 355.543 142.569 349.949 140.459 348.174C138.35 346.398 117.302 336.328 117.302 336.328L116.682 299.96L81.2012 299.082Z" fill="#D3766A"/>
<path d="M81.4399 328.004C81.4399 328.004 81.5068 335.45 81.5068 335.469C81.5068 342.428 81.669 348.518 82.0413 351.696V351.744C82.1289 352.478 82.3052 353.2 82.5663 353.892C82.5663 353.892 82.5663 353.892 82.5663 353.939C84.6377 355.333 140.221 356.803 142.178 356.173C144.134 355.543 142.569 349.949 140.459 348.174C138.35 346.398 117.302 336.328 117.302 336.328V328.749L81.4399 328.004Z" fill="white"/>
<path d="M120.748 336.319C117.045 335.708 112.549 336.376 109.79 339.058C109.675 339.163 109.79 339.316 109.952 339.278C113.448 338.062 117.064 337.226 120.739 336.786C120.793 336.777 120.842 336.748 120.878 336.706C120.913 336.664 120.934 336.611 120.935 336.556C120.936 336.501 120.918 336.448 120.884 336.404C120.85 336.361 120.802 336.331 120.748 336.319Z" fill="#263238"/>
<path d="M123.44 337.865C119.736 337.254 115.24 337.922 112.481 340.605C112.376 340.71 112.529 340.862 112.644 340.824C116.144 339.613 119.763 338.777 123.44 338.333C123.494 338.322 123.542 338.293 123.577 338.25C123.612 338.207 123.631 338.154 123.631 338.099C123.631 338.044 123.612 337.99 123.577 337.948C123.542 337.905 123.494 337.876 123.44 337.865Z" fill="#263238"/>
<path d="M126.141 339.411C122.437 338.81 117.942 339.469 115.173 342.151C115.068 342.256 115.221 342.409 115.336 342.371C118.836 341.16 122.455 340.325 126.132 339.879C126.186 339.869 126.235 339.841 126.271 339.799C126.306 339.757 126.327 339.704 126.328 339.649C126.329 339.594 126.311 339.54 126.277 339.497C126.243 339.454 126.195 339.423 126.141 339.411Z" fill="#263238"/>
<path d="M142.215 356.144C140.259 356.755 84.685 355.304 82.6041 353.911C81.8023 353.395 81.5445 345.32 81.5063 335.469V335.164L117.369 335.698V336.299C117.369 336.299 138.369 346.37 140.526 348.155C142.683 349.94 144.172 355.591 142.215 356.144Z" fill="#FF9356"/>
<path d="M141.643 353.978C132.279 353.5 94.4695 352.479 85.1818 352.718C85.1054 352.718 85.1054 352.775 85.1818 352.785C94.4504 353.453 132.26 354.169 141.634 354.13C141.834 354.13 141.844 353.987 141.643 353.978Z" fill="#263238"/>
<path d="M62.8261 182.751C62.8261 182.751 75.178 236.368 74.8439 244.31C74.5098 252.452 78.8339 336.071 78.8339 336.071L120.595 336.319C120.595 336.319 117.073 251.049 116.414 242.563C115.202 226.68 101.285 183.095 91.3384 144.245H46.3125C46.3125 144.245 46.7039 164.577 55.9534 179.286C55.9534 179.306 60.1439 181.243 62.8261 182.751Z" fill="#37474F"/>
<path d="M48.5078 175.573C51.9251 177.482 55.476 179.162 59.0078 180.842C60.7832 181.682 62.5651 182.503 64.3532 183.305C65.2505 183.706 66.1287 184.164 67.0451 184.527C67.9614 184.889 68.7537 185.185 69.5842 185.596C69.5956 185.606 69.6038 185.619 69.6076 185.634C69.6114 185.649 69.6107 185.664 69.6056 185.679C69.6005 185.693 69.5911 185.706 69.5788 185.715C69.5665 185.724 69.5517 185.729 69.5364 185.729C68.5933 185.6 67.6615 185.399 66.7491 185.128C65.8901 184.88 65.0119 184.698 64.1528 184.441C65.0501 187.724 65.6323 191.122 66.3101 194.425C67.0641 198.062 67.7896 201.708 68.5246 205.355C69.9946 212.635 71.4582 219.921 72.9155 227.214C73.6314 230.765 74.3855 234.316 74.9105 237.895C75.4084 241.502 75.6825 245.136 75.7314 248.777C75.9223 256.175 76.0082 263.572 76.1132 270.97C76.2373 279.294 76.3137 287.627 76.1991 295.951C76.1991 296.075 76.0082 296.065 76.0082 295.951C75.1682 281.193 74.8246 266.407 74.4905 251.631C74.4046 247.975 74.3473 244.31 73.9369 240.682C73.5264 237.055 72.8296 233.571 72.1137 230.049C70.6437 222.794 69.1546 215.552 67.6464 208.323C66.8255 204.257 65.9887 200.21 65.136 196.182C64.716 194.129 64.3151 192.087 63.9046 190.034C63.4941 187.982 63.1028 186.073 62.8546 184.068C61.3237 183.55 59.82 182.954 58.3491 182.283C54.7491 180.583 51.3651 178.458 48.2691 175.955C48.0973 175.764 48.2787 175.439 48.5078 175.573Z" fill="#263238"/>
<path d="M79.5495 328.377C84.5705 328.233 89.7727 328.09 94.8223 328.214C99.8718 328.338 104.797 328.405 109.77 328.692C112.634 328.854 115.402 328.94 118.218 329.207C118.233 329.212 118.245 329.222 118.254 329.235C118.263 329.248 118.268 329.263 118.268 329.279C118.268 329.294 118.263 329.309 118.254 329.322C118.245 329.335 118.233 329.345 118.218 329.35C113.197 329.637 108.157 329.579 103.136 329.532C98.1154 329.484 93.1709 329.436 88.1882 329.217C85.3245 329.092 82.5564 328.959 79.7405 328.768C79.4541 328.749 79.2441 328.377 79.5495 328.377Z" fill="#263238"/>
<path d="M88.0453 178.198C89.4389 182.856 90.613 187.591 91.8635 192.287C93.1139 196.984 94.3835 201.756 95.6816 206.5C98.0966 215.674 100.454 224.856 102.297 234.182C104.15 243.525 105.197 253.01 105.428 262.532C105.638 272.24 105.428 281.957 105.37 291.665C105.313 301.373 105.218 311.185 105.055 320.941C105.055 322.153 105.055 323.365 104.96 324.578C104.954 324.597 104.941 324.613 104.925 324.625C104.909 324.637 104.889 324.643 104.869 324.643C104.849 324.643 104.829 324.637 104.813 324.625C104.797 324.613 104.785 324.597 104.778 324.578C104.521 314.87 104.654 305.143 104.693 295.435C104.731 285.728 104.845 276.01 104.769 266.303C104.732 256.664 103.899 247.044 102.278 237.542C100.636 228.197 98.3353 218.995 95.9394 209.813C94.5839 204.582 93.1998 199.313 91.8444 194.12C90.4889 188.927 88.9807 183.62 87.8066 178.284C87.8127 178.26 87.8247 178.237 87.8415 178.219C87.8583 178.2 87.8795 178.186 87.9031 178.177C87.9266 178.169 87.9519 178.166 87.9767 178.17C88.0016 178.174 88.0251 178.183 88.0453 178.198Z" fill="#263238"/>
<path d="M79.4543 98.1595C76.4475 98.6654 71.0448 93.3868 69.2789 89.5686C69.1643 89.3109 69.718 86.705 70.2334 83.4691C70.5389 81.56 70.8443 79.3263 70.978 77.3218L83.3871 81.2163C82.502 83.6818 81.9218 86.2463 81.6593 88.8527C81.6352 89.129 81.6352 89.4068 81.6593 89.6831C81.6593 89.6831 81.6593 89.7691 81.6593 89.8168C81.9171 91.4395 82.3943 97.6727 79.4543 98.1595Z" fill="#D3766A"/>
<path d="M81.7545 89.7215C81.7545 89.7215 81.7545 89.8074 81.7545 89.8647C81.3223 89.8928 80.8886 89.8928 80.4564 89.8647C73.0395 89.0724 71.6459 80.6342 71.3882 77.4556L83.4441 81.2737C82.5604 83.7397 81.9802 86.304 81.7164 88.9101C81.7104 89.1811 81.7231 89.4522 81.7545 89.7215Z" fill="#263238"/>
<path d="M67.3986 64.1201C66.6349 68.7497 70.7013 81.302 74.2427 83.717C79.3781 87.2488 86.9381 86.6474 89.7254 80.672C92.4267 74.8683 86.8617 58.641 82.9672 56.5124C77.259 53.372 68.5249 57.2856 67.3986 64.1201Z" fill="#D3766A"/>
<path d="M81.44 70.1816C81.44 70.1816 81.44 70.2389 81.44 70.2771C81.7263 71.1171 81.9077 72.1289 81.23 72.6444C81.23 72.6444 81.23 72.7016 81.23 72.6921C82.1082 72.2244 81.8504 70.888 81.44 70.1816Z" fill="#263238"/>
<path d="M80.4088 69.4752C79.0056 69.7902 79.7406 72.5584 81.0292 72.2721C82.3179 71.9857 81.5829 69.2271 80.4088 69.4752Z" fill="#263238"/>
<path d="M86.2603 68.855C86.2603 68.855 86.3366 68.855 86.3462 68.9218C86.5466 69.7809 86.9189 70.745 87.7684 70.8309V70.8786C86.7853 70.9836 86.308 69.7141 86.2603 68.855Z" fill="#263238"/>
<path d="M86.7948 67.7669C88.1407 67.2992 88.9807 70.0387 87.7493 70.4683C86.518 70.8978 85.6589 68.1583 86.7948 67.7669Z" fill="#263238"/>
<path d="M78.9866 68.5018C79.3398 68.3014 79.6357 68.0723 79.9412 67.8432C80.2466 67.6141 80.6284 67.4137 80.8003 66.9841C80.8375 66.8551 80.8304 66.7173 80.7803 66.5928C80.7301 66.4682 80.6397 66.364 80.5234 66.2968C80.2742 66.1985 80.0034 66.1679 79.7385 66.2081C79.4736 66.2484 79.224 66.358 79.0152 66.5259C78.5523 66.8091 78.2118 67.2551 78.0607 67.7764C78.0284 67.8974 78.0323 68.0253 78.0721 68.1441C78.1118 68.263 78.1855 68.3675 78.2842 68.4448C78.3828 68.5221 78.5019 68.5686 78.6268 68.5788C78.7517 68.5889 78.8768 68.5622 78.9866 68.5018Z" fill="#263238"/>
<path d="M87.4918 66.0866C87.1008 66.1105 86.7087 66.1105 86.3177 66.0866C85.9066 66.151 85.4858 66.0736 85.1245 65.8671C85.0217 65.7806 84.9507 65.6622 84.9231 65.5307C84.8954 65.3992 84.9125 65.2622 84.9718 65.1416C85.12 64.9185 85.3264 64.74 85.5686 64.6256C85.8109 64.5112 86.0798 64.4652 86.3463 64.4925C86.8896 64.4569 87.4268 64.6235 87.8545 64.9603C87.9514 65.0421 88.0219 65.1509 88.0568 65.2728C88.0918 65.3947 88.0897 65.5243 88.0508 65.6451C88.0119 65.7658 87.938 65.8723 87.8385 65.9509C87.7389 66.0295 87.6182 66.0768 87.4918 66.0866Z" fill="#263238"/>
<path d="M82.5756 78.1715C82.8334 78.3147 83.1102 78.5438 83.4347 78.4865C83.7493 78.3939 84.0417 78.238 84.2938 78.0283C84.2938 78.0283 84.3606 78.0283 84.3511 78.0283C84.2742 78.2281 84.1451 78.4035 83.9771 78.5362C83.8092 78.6688 83.6087 78.7539 83.3965 78.7824C83.2108 78.7804 83.0297 78.7242 82.8754 78.6208C82.7211 78.5174 82.6003 78.3712 82.5279 78.2001C82.4802 78.181 82.5374 78.1524 82.5756 78.1715Z" fill="#263238"/>
<path d="M82.8048 75.3651C83.1118 75.6475 83.4736 75.8635 83.8678 75.9999C84.2619 76.1362 84.6799 76.1898 85.0957 76.1574C85.4519 76.1203 85.8016 76.0369 86.1362 75.9092L86.3271 75.8328L86.5085 75.7565C86.5517 75.7349 86.5869 75.7001 86.6092 75.6573C86.6315 75.6144 86.6397 75.5656 86.6325 75.5178C86.6361 75.4893 86.6361 75.4605 86.6325 75.4319V75.3556C86.4798 74.6874 86.1457 73.7042 86.1457 73.7042C86.4225 73.7615 87.7971 73.9906 87.6921 73.6469C86.8282 70.6911 85.6706 67.8291 84.2366 65.1037C84.2249 65.0886 84.2085 65.0778 84.1899 65.073C84.1714 65.0682 84.1517 65.0698 84.1342 65.0775C84.1166 65.0852 84.1021 65.0985 84.093 65.1154C84.0839 65.1322 84.0807 65.1517 84.0839 65.1706C84.8666 67.9006 86.1171 70.4874 86.9475 73.2269C86.4563 73.1379 85.955 73.1186 85.4585 73.1697C85.3725 73.2174 86.1266 75.0788 86.1744 75.3747C85.6481 75.5696 85.0883 75.6573 84.5276 75.6328C83.967 75.6082 83.417 75.4717 82.9098 75.2315C82.7953 75.2315 82.738 75.3078 82.8048 75.3651Z" fill="#263238"/>
<path d="M85.6876 75.6896C85.4472 76.2565 85.0661 76.7526 84.5804 77.131C84.3043 77.3346 83.9689 77.442 83.6258 77.4364C82.8908 77.4364 82.6713 76.816 82.6713 76.2433C82.6631 75.9386 82.6919 75.6341 82.7572 75.3364C83.6695 75.7701 84.6984 75.8941 85.6876 75.6896Z" fill="#263238"/>
<path d="M84.58 77.1306C84.3039 77.3343 83.9685 77.4416 83.6254 77.4361C82.8904 77.4361 82.6709 76.8156 82.6709 76.2429C83.0427 76.1493 83.4353 76.1865 83.7829 76.3481C84.1305 76.5098 84.412 76.7861 84.58 77.1306Z" fill="#FF97B8"/>
<path d="M69.9086 74.1908C73.0873 73.4654 72.4095 67.509 72.4095 67.509C72.4095 67.509 77.6786 65.3899 77.545 61.0944C77.545 61.0944 83.4823 63.2422 87.2336 60.8463C90.985 58.4504 89.1427 54.0213 88.4173 53.1335C87.6918 52.2458 85.8973 54.594 85.8973 54.594C85.8973 54.594 85.0477 52.0358 84.2936 51.9308C83.5395 51.8258 83.1291 53.5726 83.1291 53.5726C79.6526 53.2581 76.1485 53.4673 72.7341 54.1931C67.9614 55.3958 66.7109 60.7413 66.7109 60.7413C66.7109 60.7413 64.2768 61.8581 63.8473 63.8244C63.4177 65.7908 67.885 74.649 69.9086 74.1908Z" fill="#263238"/>
<path d="M77.3161 60.3403C77.4733 61.1858 77.4733 62.053 77.3161 62.8985C77.1645 63.721 76.7916 64.4866 76.2374 65.1131C75.6449 65.7117 74.9456 66.194 74.1756 66.5353C73.7843 66.7071 73.3738 66.8408 72.9729 66.9935C72.572 67.1462 72.1329 67.2131 71.7129 67.3467C72.152 67.3467 72.5815 67.2417 73.0206 67.194C73.4597 67.1462 73.8797 66.984 74.2997 66.8408C75.1628 66.545 75.9465 66.0551 76.5906 65.409C77.2018 64.7247 77.5854 63.8675 77.6883 62.9558C77.7787 62.0667 77.6509 61.1689 77.3161 60.3403Z" fill="#263238"/>
<path d="M66.8351 61.4285C66.8313 60.0212 67.2001 58.638 67.9042 57.4195C68.6067 56.2263 69.6791 55.2947 70.9587 54.7658C71.2675 54.6188 71.5865 54.4943 71.9133 54.3936L72.9251 54.1454C73.6028 54.0117 74.3092 53.9831 75.006 53.9067C75.7028 53.8304 76.4092 53.9067 77.1155 53.9067C77.8219 53.9067 78.5187 54.0404 79.2251 54.0881C78.5378 53.9449 77.8314 53.8304 77.1346 53.6967C76.4378 53.5631 75.7124 53.6013 74.9965 53.544C73.5518 53.5296 72.1184 53.7988 70.7774 54.3363C69.4303 54.913 68.3124 55.9201 67.5987 57.1999C66.9213 58.4994 66.6549 59.9742 66.8351 61.4285Z" fill="#263238"/>
<path d="M80.275 75.3554C79.5095 75.4644 78.7288 75.357 78.0212 75.0453C77.3136 74.7337 76.7073 74.2302 76.271 73.5919C75.8347 72.9535 75.5857 72.2058 75.5522 71.4333C75.5188 70.6609 75.7022 69.8944 76.0817 69.2208C76.4612 68.5471 77.0216 67.9931 77.6996 67.6214C78.3776 67.2497 79.1461 67.0752 79.9182 67.1176C80.6902 67.16 81.435 67.4176 82.0683 67.8612C82.7015 68.3049 83.1979 68.917 83.5014 69.6281C83.7488 70.2128 83.8589 70.8464 83.8231 71.4802C83.7874 72.1141 83.6068 72.7313 83.2952 73.2844C82.9836 73.8375 82.5493 74.3118 82.0257 74.6708C81.5022 75.0299 80.9033 75.2641 80.275 75.3554ZM79.1487 67.7191C78.4075 67.8241 77.7178 68.1583 77.176 68.6749C76.6342 69.1914 76.2674 69.8644 76.1271 70.5997C75.9867 71.335 76.0798 72.0957 76.3932 72.7755C76.7067 73.4553 77.2248 74.02 77.8752 74.3907C78.5255 74.7614 79.2755 74.9195 80.0201 74.8428C80.7647 74.7662 81.4667 74.4586 82.0279 73.9631C82.5891 73.4677 82.9813 72.8092 83.1496 72.0799C83.318 71.3505 83.2541 70.5867 82.9669 69.8954C82.6608 69.1603 82.1207 68.5467 81.4304 68.1497C80.74 67.7528 79.938 67.5947 79.1487 67.7V67.7191Z" fill="#FF9356"/>
<path d="M89.4482 72.845C87.8827 73.0741 86.2218 71.6709 85.63 69.5804C85.3433 68.5868 85.3767 67.5281 85.7254 66.5545C85.8494 66.127 86.0816 65.7386 86.3996 65.427C86.7176 65.1155 87.1106 64.8913 87.5407 64.7761C87.9707 64.6609 88.4232 64.6586 88.8543 64.7695C89.2855 64.8804 89.6807 65.1007 90.0018 65.4091C90.7869 66.0827 91.3438 66.9831 91.5959 67.9864C92.1877 70.1914 91.3286 72.3486 89.6868 72.7591C89.6102 72.7952 89.5303 72.824 89.4482 72.845ZM87.9209 65.2754H87.7109C87.3735 65.3841 87.0668 65.5715 86.8162 65.8221C86.5656 66.0728 86.3782 66.3794 86.2695 66.7168C85.9704 67.5821 85.9438 68.5182 86.1932 69.3991C86.7086 71.3082 88.2168 72.5777 89.5723 72.215C90.9277 71.8523 91.5959 70.0004 91.09 68.0914C90.8675 67.1999 90.3739 66.3995 89.6773 65.8004C89.4361 65.5972 89.1558 65.4458 88.8536 65.3554C88.5515 65.2651 88.234 65.2379 87.9209 65.2754Z" fill="#FF9356"/>
<path d="M83.4919 70.1819L83.0337 69.8574C83.511 69.1892 84.7232 68.1297 85.9832 68.9028L85.6873 69.3706C84.5705 68.6547 83.5301 70.096 83.4919 70.1819Z" fill="#FF9356"/>
<path d="M66.7494 75.9091L66.2148 75.7946C66.2721 75.5368 66.7876 73.3127 67.9235 72.7973C69.0594 72.2818 75.5598 71.1268 75.8367 71.0791L75.9321 71.6232C73.31 72.0397 70.7129 72.6006 68.1526 73.3032C67.3985 73.6373 66.883 75.2982 66.7494 75.9091Z" fill="#FF9356"/>
<path d="M71.5411 74.2193C71.5411 74.2193 68.0093 70.5252 66.2911 71.8425C64.573 73.1598 67.6657 78.8298 70.0043 79.3166C70.3021 79.4054 70.6149 79.4321 70.9235 79.3952C71.232 79.3582 71.5297 79.2584 71.7981 79.1018C72.0665 78.9452 72.2999 78.7353 72.4839 78.4849C72.668 78.2345 72.7987 77.949 72.868 77.6461L71.5411 74.2193Z" fill="#D3766A"/>
<path d="M39.4301 160.367C39.5542 160.52 97.5333 163.641 98.0869 163.069C98.8696 162.267 93.3142 104.584 82.566 93.1579C79.9219 90.3419 70.8251 87.1728 67.9423 89.0915C60.4492 94.0456 56.1155 104.927 53.3092 111.227C50.5531 118.055 48.2009 125.038 46.2646 132.141C42.3319 145.696 38.9814 159.795 39.4301 160.367Z" fill="#FF9356"/>
<path d="M54.3022 108.364C52.0208 113.604 49.8635 118.864 48.0499 124.295C46.2363 129.726 44.6613 135.148 43.2772 140.665C42.504 143.844 41.8263 147.023 41.3013 150.211C41.3067 150.225 41.3165 150.238 41.3293 150.247C41.3421 150.256 41.3573 150.261 41.3729 150.261C41.3884 150.261 41.4037 150.256 41.4165 150.247C41.4293 150.238 41.439 150.225 41.4445 150.211C42.9622 144.732 44.4035 139.234 46.0072 133.774C47.6108 128.314 49.4149 122.863 51.2381 117.432C52.2499 114.396 53.3095 111.361 54.4358 108.354C54.5026 108.297 54.3404 108.23 54.3022 108.364Z" fill="#263238"/>
<path d="M74.6814 102.971C83.8737 115.112 103.05 136.761 113.885 136.876C125.339 136.991 148.592 122.558 154.835 118.358C157.479 116.554 142.788 97.8256 139.562 99.0188C136.335 100.212 116.319 112.382 113.789 112.812C111.26 113.242 93.5718 100.307 82.0887 93.5492C68.6582 85.6074 67.255 93.0911 74.6814 102.971Z" fill="#D3766A"/>
<path d="M131.152 103.935C132.403 102.531 138.407 92.2988 141.118 90.0365C143.829 87.7742 155.751 83.6792 158.777 83.4119C161.803 83.1447 172.541 86.1992 174.489 88.0797C176.054 89.5974 173.401 93.2438 167.282 92.7665C161.555 92.3274 160.218 91.9456 158.576 92.2129C156.935 92.4801 152.047 96.4797 152.496 98.8947C152.763 100.317 156.104 102.713 158.672 102.274C161.24 101.835 162.786 99.2669 165.965 97.7683C169.143 96.2697 172.856 96.9188 173.162 98.2074C173.677 100.346 171.959 100.546 168.513 104.231C166.289 106.588 164.695 111.266 160.066 115.122C157.727 117.031 150.167 121.403 150.167 121.403L131.152 103.935Z" fill="#D3766A"/>
<path d="M158.768 111.447L177.992 112.535C178.631 111.352 179.029 110.054 179.166 108.717C179.386 104.899 180.035 93.3201 180.035 93.3201L160.81 92.2319C160.81 92.2319 160.142 103.935 159.923 107.829C159.754 109.094 159.363 110.318 158.768 111.447Z" fill="#37474F"/>
<path d="M163.015 96.8135C165.287 96.8135 167.549 96.928 169.812 97.0998C172.074 97.2717 174.327 97.5008 176.57 97.8635C174.298 97.8635 172.036 97.7394 169.773 97.5771C167.511 97.4148 165.258 97.1667 163.015 96.8135Z" fill="white"/>
<path d="M162.824 99.3433C164.867 99.3433 166.9 99.4292 168.933 99.5723C170.967 99.7155 172.99 99.9446 175.004 100.288C172.962 100.288 170.928 100.202 168.895 100.05C166.862 99.8969 164.838 99.6869 162.824 99.3433Z" fill="white"/>
<path d="M162.624 101.873C164.419 101.873 166.194 101.92 167.969 102.044C169.745 102.168 171.52 102.378 173.286 102.703C169.715 102.738 166.147 102.46 162.624 101.873Z" fill="white"/>
<path d="M162.433 104.402C164.705 104.402 166.967 104.526 169.22 104.689C171.473 104.851 173.735 105.099 175.978 105.452C173.706 105.452 171.444 105.338 169.182 105.166C166.919 104.994 164.676 104.765 162.433 104.402Z" fill="white"/>
<path d="M141.118 90.0361C144.249 87.0675 151.618 82.1325 157.823 81.3688C162.042 80.8534 173.678 90.5993 172.666 93.0334C171.654 95.4675 169.382 94.9425 166.127 93.6825C164.944 93.2338 159.064 89.3106 157.632 90.3893C155.56 91.9452 151.905 98.0925 151.905 98.0925L141.118 90.0361Z" fill="#D3766A"/>
<path d="M172.58 91.9644C171.625 88.843 168.38 86.5044 165.086 84.4712C165.039 84.4712 164.981 84.5189 165.039 84.5476C165.869 85.0726 171.043 89.2057 172.532 92.0026C172.551 92.0312 172.589 91.993 172.58 91.9644Z" fill="#263238"/>
<path d="M141.118 90.0361C144.249 87.0675 151.618 82.1325 157.823 81.3688C162.042 80.8534 170.461 91.7161 169.449 94.1502C168.437 96.5843 165.135 95.9829 161.813 93.8352C160.753 93.1384 157.536 89.4347 156.085 90.5134C154.014 92.0597 148.955 95.9352 148.955 95.9352L141.118 90.0361Z" fill="#D3766A"/>
<path d="M164.695 95.2673C163.27 94.6377 161.99 93.7214 160.934 92.5755C160.093 91.5816 159.052 90.7751 157.88 90.2082C157.349 90.0021 156.766 89.9753 156.219 90.1318C155.666 90.3569 155.158 90.6803 154.72 91.0864C154.176 91.5064 153.67 91.955 153.164 92.4037C152.658 92.8523 152.477 93.0337 151.981 93.5014C151.771 93.6923 151.923 93.8164 152.162 93.6064C153.013 92.8579 153.933 92.193 154.911 91.6209C155.386 91.2643 155.91 90.9782 156.467 90.7714C157.062 90.6438 157.683 90.757 158.195 91.0864C159.283 91.7355 160.104 92.7568 161.144 93.4918C162.17 94.3702 163.371 95.0209 164.667 95.4009C164.733 95.3818 164.743 95.2864 164.695 95.2673Z" fill="#263238"/>
<path d="M169.516 91.4013C168.928 89.9528 168.077 88.6259 167.005 87.4877C165.961 86.2751 164.822 85.1483 163.597 84.1181C162.967 83.5836 162.328 83.0681 161.688 82.5622C161.099 82.0228 160.421 81.5899 159.684 81.2831C157.603 80.6531 155.217 81.789 154.291 82.0849C154.233 82.0849 154.291 82.1995 154.291 82.1804C155.054 81.9418 157.517 81.1495 158.815 81.4836C159.599 81.7347 160.321 82.1477 160.934 82.6958C161.488 83.1445 162.042 83.5931 162.586 84.0513C164.92 85.8723 166.905 88.1004 168.447 90.6281C169.239 92.0504 169.63 93.7495 168.59 95.1431C168.59 95.1431 168.59 95.2386 168.666 95.2099C169.176 94.7354 169.53 94.1174 169.682 93.4374C169.834 92.7575 169.776 92.0476 169.516 91.4013Z" fill="#263238"/>
<path d="M138.693 92.6996C139.934 91.22 143.046 84.6527 144.907 82.8677C146.769 81.0827 154.692 75.2314 157.46 76.2814C160.944 77.57 155.608 83.0873 153.078 85.2828C150.549 87.4782 149.728 92.06 149.728 92.06L138.693 92.6996Z" fill="#D3766A"/>
<path d="M156.773 81.5311C155.901 82.2258 155.067 82.965 154.272 83.7457C153.467 84.4341 152.714 85.1806 152.019 85.9793C151.207 87.3097 150.566 88.7368 150.11 90.227C149.69 92.5752 149.155 97.5866 148.01 102.292C147.574 104.069 146.926 105.786 146.082 107.409C145.862 107.81 145.843 108.172 146.225 107.6C149.814 102.245 150.463 91.9738 150.835 90.3416C151.223 88.9087 151.828 87.5437 152.63 86.2943C153.928 84.6334 155.57 83.2684 156.887 81.617C156.944 81.5598 156.839 81.4834 156.773 81.5311Z" fill="#263238"/>
<path d="M130.895 103.467L147.504 125.364C147.504 125.364 121.578 140.828 110.277 137.515C98.9748 134.203 79.168 111.781 72.7725 101.3C66.377 90.8191 70.9398 86.3136 81.6498 92.7091C92.3598 99.1046 112.367 111.523 113.15 111.8C113.933 112.077 130.895 103.467 130.895 103.467Z" fill="#FF9356"/>
<path d="M133.93 116.954C132.775 115.332 131.582 113.737 130.389 112.182C129.826 111.418 129.253 110.654 128.661 109.91C128.069 109.165 127.42 108.23 126.752 107.476C126.704 107.418 126.628 107.476 126.666 107.542C127.153 108.44 127.792 109.28 128.337 110.148C128.881 111.017 129.396 111.733 129.94 112.525C131.067 114.167 132.183 115.809 133.348 117.422C135.667 120.648 138.121 123.808 140.536 126.967C140.593 127.034 140.707 126.967 140.66 126.882C138.455 123.483 136.24 120.19 133.93 116.954Z" fill="#263238"/>
<path d="M120.156 137C117.316 137.995 114.253 138.173 111.317 137.515C108.144 136.733 105.2 135.212 102.726 133.077C97.0213 128.601 91.6784 123.683 86.7469 118.367C83.9501 115.351 81.2201 112.239 78.6714 108.994C78.667 108.987 78.6615 108.982 78.655 108.978C78.6486 108.974 78.6414 108.971 78.6338 108.97C78.6263 108.968 78.6186 108.968 78.6111 108.97C78.6036 108.972 78.5965 108.975 78.5903 108.979C78.584 108.984 78.5787 108.989 78.5746 108.996C78.5704 109.002 78.5676 109.009 78.5663 109.017C78.565 109.024 78.5652 109.032 78.5668 109.04C78.5685 109.047 78.5716 109.054 78.576 109.06C80.2496 111.46 82.006 113.785 83.8451 116.038L83.3869 115.637C82.4323 114.788 81.5351 113.967 80.6091 113.127C80.4755 113.003 80.3228 113.213 80.4373 113.337C81.2827 114.26 82.1747 115.139 83.1101 115.971C83.8164 116.582 84.5323 117.241 85.3055 117.795C87.7819 120.715 90.4139 123.5 93.1901 126.137C95.9296 128.743 98.7741 131.234 101.781 133.564C104.425 135.635 107.174 137.506 110.515 138.203C113.797 138.826 117.19 138.457 120.261 137.143C120.29 137.134 120.242 137 120.156 137Z" fill="#263238"/>
</svg>
