<svg width="462" height="407" viewBox="0 0 462 407" fill="none" xmlns="http://www.w3.org/2000/svg">
<path d="M321.076 40.2199C374.045 73.3954 412.284 121.488 433.591 184.569C455.147 248.26 459.371 327.778 419.693 365.369C379.364 403.187 290.224 407.8 208 399.5C125.527 390.589 48.6685 369.218 20.8342 326.57C-6.75044 284.533 18.6988 212.111 46.0914 148.088C71 83.5 101.782 36.6024 150.5 17.5C199.218 -1.60246 268.356 7.65542 321.076 40.2199Z" fill="white"/>
<g clip-path="url(#clip0_946_2118)">
<path d="M387.334 296.538C381.709 293.203 372.619 293.203 367.038 296.538C361.456 299.873 361.473 305.296 367.098 308.631C372.722 311.966 381.812 311.975 387.402 308.631C392.992 305.287 392.958 299.9 387.334 296.538Z" fill="#E6E6E6"/>
<path d="M212.745 314.231C185.087 297.804 140.393 297.804 112.916 314.231C85.4391 330.659 85.5767 357.295 113.234 373.723C140.892 390.151 185.595 390.151 213.072 373.723C240.549 357.295 240.411 330.668 212.745 314.231Z" fill="#E6E6E6"/>
<path d="M328.114 279.058C310.45 268.567 281.906 268.567 264.354 279.058C246.801 289.55 246.896 306.553 264.56 317.045C282.224 327.536 310.776 327.536 328.32 317.045C345.864 306.553 345.778 289.55 328.114 279.058Z" fill="#E6E6E6"/>
<path d="M390.834 277.342L377.22 277.749L363.598 277.342C363.013 286.799 364.81 296.441 367.287 301.147C367.874 302.356 368.815 303.343 369.979 303.969C373.995 306.349 380.488 306.349 384.487 303.969C385.668 303.331 386.614 302.312 387.179 301.068C389.638 296.335 391.419 286.754 390.834 277.342Z" fill="white"/>
<path d="M386.818 271.601C392.15 274.768 392.175 279.907 386.878 283.101C381.58 286.294 372.954 286.268 367.622 283.101C362.29 279.934 362.256 274.794 367.554 271.601C372.851 268.407 381.52 268.434 386.818 271.601Z" fill="#EBEBEB"/>
<path d="M384.702 272.866C388.864 275.334 388.89 279.341 384.754 281.818C380.617 284.295 373.892 284.286 369.729 281.818C365.567 279.35 365.55 275.334 369.678 272.866C373.806 270.398 380.54 270.389 384.702 272.866Z" fill="#E0E0E0"/>
<g opacity="0.15">
<path d="M384.702 272.866C388.864 275.334 388.89 279.341 384.754 281.818C380.617 284.295 373.892 284.286 369.729 281.818C365.567 279.35 365.55 275.334 369.678 272.866C373.806 270.398 380.54 270.389 384.702 272.866Z" fill="black"/>
</g>
<path d="M399.58 217.567C368.895 227.908 368.62 249.025 375.5 264.054C377.22 267.106 382.526 268.734 387.119 250.033L379.06 251.095L388.452 246.203L390.894 238.701L383.059 239.302L393.001 234.994C394.843 229.051 397.041 223.231 399.58 217.567Z" fill="#FF9356"/>
<path opacity="0.2" d="M399.58 217.567C368.895 227.908 368.62 249.025 375.5 264.054C377.22 267.106 382.526 268.734 387.119 250.033L379.06 251.095L388.452 246.203L390.894 238.701L383.059 239.302L393.001 234.994C394.843 229.051 397.041 223.231 399.58 217.567Z" fill="black"/>
<path opacity="0.2" d="M399.58 217.567C368.895 227.908 368.62 249.025 375.5 264.054C377.22 267.106 382.526 268.734 387.119 250.033L379.06 251.095L388.452 246.203L390.894 238.701L383.059 239.302L393.001 234.994C394.843 229.051 397.041 223.231 399.58 217.567Z" fill="white"/>
<path d="M390.928 222.848C374.743 235.481 373.281 249.971 377.856 265.09C376.24 251.776 374.485 238.312 390.928 222.848Z" fill="white"/>
<path d="M347.627 239.037C377.882 243.416 381.546 263.037 377.538 278.226C376.403 281.358 371.75 283.782 364.449 267.151L372.129 266.762L362.6 263.807L359.117 257.234L366.513 256.456L356.58 254.129C353.904 248.911 350.914 243.871 347.627 239.037Z" fill="#FF9356"/>
<path opacity="0.2" d="M347.627 239.037C377.882 243.416 381.546 263.037 377.538 278.226C376.403 281.358 371.75 283.782 364.449 267.151L372.129 266.762L362.6 263.807L359.117 257.234L366.513 256.456L356.58 254.129C353.904 248.911 350.914 243.871 347.627 239.037Z" fill="white"/>
<path opacity="0.1" d="M347.627 239.037C377.882 243.416 381.546 263.037 377.538 278.226C376.403 281.358 371.75 283.782 364.449 267.151L372.129 266.762L362.6 263.807L359.117 257.234L366.513 256.456L356.58 254.129C353.904 248.911 350.914 243.871 347.627 239.037Z" fill="black"/>
<path d="M356.58 242.452C373.694 251.457 377.392 264.691 375.577 279.562C374.915 266.885 374.373 254.076 356.58 242.452Z" fill="white"/>
<path d="M408.455 246.371C380.72 246.839 375.276 264.063 377.246 278.217C377.925 281.163 381.855 283.888 390.24 269.743L383.36 268.504L392.279 266.938L396.14 261.418L389.561 259.861L398.78 258.932C401.753 254.546 404.984 250.351 408.455 246.371Z" fill="#FF9356"/>
<path d="M400.027 248.441C383.627 254.58 378.854 266.089 378.871 279.695C380.832 268.345 382.724 256.836 400.027 248.441Z" fill="white"/>
<path opacity="0.2" d="M408.455 246.371C380.72 246.839 375.276 264.063 377.246 278.217C377.925 281.163 381.855 283.888 390.24 269.743L383.36 268.504L392.279 266.938L396.14 261.418L389.561 259.861L398.78 258.932C401.753 254.546 404.984 250.351 408.455 246.371Z" fill="white"/>
<path d="M97.8231 116.373L97.1265 117.258L103.817 121.257L102.415 115.878C100.928 116.338 99.3705 116.506 97.8231 116.373Z" fill="#E0E0E0"/>
<path d="M124.38 76.7773L129.635 75.2999L122.918 71.2837L122.462 72.4956C123.351 73.7897 124.001 75.2411 124.38 76.7773Z" fill="#E0E0E0"/>
<path d="M115.488 86.0571C115.488 85.8448 115.488 85.6325 115.402 85.429C115.316 85.2256 115.341 85.2079 115.316 85.084C115.29 84.9602 115.238 84.739 115.187 84.5798C115.135 84.4205 115.101 84.3675 115.066 84.2525C115.032 84.1375 114.954 83.9517 114.894 83.8101C114.834 83.6686 114.782 83.6155 114.731 83.5094C114.679 83.4032 114.602 83.2528 114.524 83.1378C114.463 83.0428 114.397 82.9512 114.327 82.8636C114.249 82.7574 114.18 82.6424 114.094 82.5451L113.862 82.3151C113.776 82.2266 113.69 82.1382 113.596 82.0586L113.329 81.864C111.987 80.8997 110.13 80.7935 108.049 81.6959C108.097 82.1039 108.123 82.5144 108.126 82.9255C108.126 83.2528 108.126 83.5801 108.126 83.9163C108.126 84.0136 108.126 84.1198 108.126 84.2259C108.126 84.3321 108.126 84.6506 108.049 84.8717C107.971 85.0929 107.98 85.3406 107.937 85.5794C107.894 85.8183 107.877 85.9067 107.842 86.066C107.808 86.2252 107.765 86.3756 107.73 86.526C107.696 86.6764 107.627 86.9506 107.567 87.1629C107.507 87.3752 107.498 87.4106 107.455 87.5256C107.412 87.6406 107.309 88.0033 107.223 88.2422L107.12 88.5341C106.999 88.8703 106.87 89.1976 106.733 89.516C106.724 89.5563 106.709 89.595 106.69 89.631C106.561 89.923 106.432 90.2061 106.294 90.5157L106.157 90.7811C106.019 91.0553 105.881 91.3207 105.735 91.5861C105.71 91.641 105.681 91.6942 105.649 91.7453C105.477 92.0549 105.297 92.3557 105.107 92.63C105.047 92.7184 104.996 92.8069 104.935 92.8865C104.798 93.1077 104.652 93.32 104.505 93.5234L104.265 93.8685C104.136 94.0365 104.007 94.2135 103.869 94.3815L103.534 94.8062L103.207 95.1866C103.018 95.4077 102.82 95.62 102.622 95.8235L102.261 96.2039L101.968 96.4781L101.478 96.9204L101.177 97.177C101.005 97.3185 100.816 97.4601 100.635 97.5928L100.377 97.7874C100.102 97.982 99.8269 98.1678 99.5173 98.327C99.2579 98.4824 98.9909 98.6242 98.7175 98.7516L98.5197 98.8489L98.3391 98.9197C98.5971 101.087 99.4915 102.644 100.825 103.423C100.999 103.529 101.184 103.618 101.375 103.688L101.504 103.741C101.659 103.795 101.817 103.839 101.977 103.874H102.106C102.315 103.919 102.528 103.945 102.742 103.953H102.897C103.069 103.953 103.241 103.953 103.422 103.953H103.671L104.127 103.883L104.471 103.803L104.849 103.688L105.46 103.476L105.881 103.299L106.079 103.201C106.353 103.074 106.619 102.932 106.879 102.777C107.154 102.617 107.429 102.432 107.739 102.237L107.997 102.042L108.255 101.848L108.539 101.627L108.84 101.37L109.106 101.131L109.33 100.928L109.622 100.654L109.992 100.273C110.181 100.07 110.379 99.8574 110.568 99.6363C110.758 99.4151 110.792 99.3886 110.895 99.2559L111.231 98.8313C111.368 98.6632 111.497 98.4862 111.626 98.3182C111.712 98.212 111.79 98.097 111.867 97.982C112.013 97.7785 112.159 97.5574 112.297 97.3451L112.469 97.0885C112.658 96.7877 112.839 96.487 113.011 96.2039C113.044 96.1508 113.073 96.0945 113.097 96.0358C113.243 95.7793 113.389 95.5139 113.518 95.2396L113.656 94.9742C113.793 94.6912 113.922 94.3992 114.043 94.0896L114.094 93.9746C114.232 93.6473 114.352 93.32 114.473 92.9927L114.576 92.7007C114.662 92.4648 114.739 92.226 114.808 91.9842C114.808 91.8603 114.886 91.7453 114.92 91.6215C114.954 91.4976 115.032 91.1969 115.083 90.9845C115.083 90.8253 115.161 90.6749 115.195 90.5245C115.195 90.3653 115.255 90.1972 115.29 90.038C115.29 89.7991 115.376 89.5603 115.402 89.3303C115.402 89.1091 115.462 88.8968 115.479 88.6845C115.496 88.4722 115.479 88.4722 115.479 88.3749C115.479 88.0387 115.479 87.7114 115.479 87.3841C115.479 87.0568 115.479 86.6941 115.479 86.3667L115.488 86.0571Z" fill="#E0E0E0"/>
<path d="M85.8777 109.305L84.1921 109.774L83.4525 109.332L81.1907 115.303L88.6469 119.762L91.3645 112.587L85.8777 109.305Z" fill="#E0E0E0"/>
<path d="M110.405 65.3744L115.986 68.7095L120.682 62.6851L113.226 58.2266L109.235 63.3398L110.001 63.7998L110.405 65.3744Z" fill="#E0E0E0"/>
<path d="M89.4467 108.297L85.8777 109.305L91.3645 112.587C90.4653 111.296 89.8143 109.84 89.4467 108.297Z" fill="#E0E0E0"/>
<path d="M111.403 69.1869C112.409 68.8988 113.446 68.7326 114.49 68.6915H114.645C114.868 68.6915 115.083 68.6915 115.29 68.6915H115.797H115.986L110.414 65.3564L111.403 69.1869Z" fill="#E0E0E0"/>
<path d="M89.6102 96.6105C89.7134 96.1682 89.8166 95.7259 89.9284 95.2835L90.109 94.6201C90.4444 93.4081 90.8486 92.1962 91.3044 90.9842L83.8482 86.561C83.8052 86.676 83.7622 86.7822 83.7278 86.8972L83.53 87.4545C83.4096 87.7818 83.2978 88.1003 83.186 88.4276C83.1616 88.503 83.1329 88.5769 83.1 88.6488C83.0484 88.808 83.0054 88.9672 82.9538 89.1176C82.842 89.4892 82.7388 89.8519 82.6356 90.2146C82.6356 90.3119 82.5668 90.4092 82.541 90.5154C82.5152 90.6215 82.4894 90.7542 82.455 90.8781C82.3432 91.3204 82.24 91.7627 82.1368 92.205C82.1368 92.3377 82.068 92.4704 82.0422 92.6031L81.939 93.1162L89.3952 97.5394C89.4726 97.2386 89.5414 96.9378 89.6102 96.6105Z" fill="#E0E0E0"/>
<path d="M97.72 79.5638C98.3478 78.75 99.0014 77.9803 99.6722 77.2372L99.8786 76.9984C100.119 76.733 100.377 76.4765 100.627 76.2111L100.936 75.8926C101.384 75.4414 101.839 75.008 102.304 74.5833L94.8476 70.1602C94.3832 70.5759 93.9274 71.0448 93.4802 71.4694L93.3598 71.5844L92.7406 72.239L92.4224 72.5752C92.0698 72.9645 91.7258 73.3537 91.3818 73.7518C91.012 74.1941 90.6422 74.6364 90.281 75.1141L97.72 79.5638Z" fill="#E0E0E0"/>
<path d="M89.4123 97.5396L81.9561 93.0811L76.7188 97.8404L84.1749 102.29L89.4123 97.5396Z" fill="#E0E0E0"/>
<path d="M84.1749 102.29L76.7188 97.8403L76.7359 105.315L83.4526 109.332L84.1921 109.774L84.1749 102.29Z" fill="#E0E0E0"/>
<path d="M103.671 67.5591L96.2151 63.1006L94.8477 70.1246L102.304 74.5743L103.671 67.5591Z" fill="#E0E0E0"/>
<path d="M110.001 63.7994L109.235 63.3394L102.544 59.3408L96.2148 63.1005L103.671 67.5591L110.001 63.7994Z" fill="#E0E0E0"/>
<path d="M88.561 87.0566L81.0962 82.6069L83.8482 86.5347L91.313 90.9933L88.561 87.0566Z" fill="#E0E0E0"/>
<path d="M97.72 79.5547L90.2638 75.105L85.5596 74.6538L93.0158 79.1124L97.72 79.5547Z" fill="#E0E0E0"/>
<path d="M93.0158 79.1124L85.5596 74.6538L81.0962 82.6067L88.561 87.0564L93.0158 79.1124Z" fill="#E0E0E0"/>
<path d="M124.38 87.5429L129.617 82.7836V75.2996L124.38 76.7769C124.001 75.2408 123.351 73.7894 122.462 72.4953L122.918 71.2833L125.18 65.3209L120.691 62.667L115.995 68.6914H115.78H115.273C115.066 68.6914 114.851 68.6914 114.628 68.6914H114.473C113.428 68.7324 112.392 68.8986 111.385 69.1868L110.396 65.3828L109.984 63.8082L103.654 67.5679L102.287 74.5919C101.822 75.0077 101.366 75.4765 100.919 75.9011L100.61 76.2196C100.36 76.485 100.102 76.7415 99.8613 77.0069L99.6549 77.2458C98.9841 77.9889 98.3305 78.7585 97.7027 79.5724L92.9985 79.1212L88.5437 87.0829L91.2871 91.0107C90.8313 92.2227 90.4271 93.4346 90.0917 94.6466L89.9111 95.3189C89.7993 95.7612 89.6961 96.2035 89.5929 96.6458C89.4897 97.0882 89.4553 97.2562 89.3951 97.5305L84.1577 102.29V109.765L85.8777 109.296L89.4467 108.288C89.8144 109.83 90.4653 111.287 91.3645 112.578L88.6469 119.753L93.1361 122.406L97.1265 117.293L97.8231 116.409C99.3695 116.547 100.927 116.385 102.416 115.931L103.817 121.309L110.147 117.559L111.48 110.499C113.145 108.984 114.676 107.32 116.055 105.528L120.768 105.961L125.223 97.9993L122.471 94.0716C123.292 91.957 123.93 89.7724 124.38 87.5429ZM115.513 88.6487C115.513 88.8611 115.513 89.0734 115.436 89.2945C115.359 89.5157 115.367 89.7634 115.324 90.0022C115.281 90.2411 115.264 90.3295 115.23 90.4888C115.195 90.648 115.152 90.7896 115.118 90.9488C115.083 91.108 115.015 91.3734 114.954 91.5857C114.894 91.798 114.886 91.8246 114.843 91.9484C114.8 92.0723 114.696 92.4261 114.61 92.665L114.507 92.9569C114.387 93.2842 114.266 93.6115 114.129 93.9389C114.129 93.9389 114.129 94.0185 114.069 94.0539C113.948 94.3458 113.819 94.6377 113.682 94.9385L113.544 95.2039C113.415 95.4781 113.269 95.7435 113.123 96.0001C113.099 96.0587 113.07 96.115 113.037 96.1681C112.865 96.4778 112.684 96.7785 112.495 97.0528L112.323 97.3093C112.185 97.5216 112.039 97.7428 111.893 97.9463L111.652 98.2913C111.523 98.4593 111.394 98.6363 111.256 98.8044L110.921 99.229C110.818 99.3617 110.697 99.4855 110.594 99.6094C110.491 99.7332 110.207 100.043 110.018 100.246L109.648 100.627L109.356 100.901L109.132 101.104C108.857 101.352 108.57 101.591 108.272 101.821L108.014 102.016L107.756 102.21C107.481 102.405 107.206 102.591 106.896 102.75C106.573 102.943 106.24 103.117 105.899 103.272L105.477 103.449C105.262 103.528 105.064 103.599 104.858 103.661L104.48 103.776L104.127 103.856L103.671 103.926H103.405C103.224 103.926 103.052 103.926 102.88 103.926C102.828 103.931 102.777 103.931 102.725 103.926C102.511 103.918 102.298 103.892 102.089 103.847H101.943C101.782 103.812 101.625 103.768 101.47 103.714L101.306 103.652C101.115 103.582 100.931 103.493 100.756 103.387C99.4227 102.608 98.5283 101.051 98.2703 98.884C98.2215 98.473 98.1956 98.0595 98.1929 97.6455C98.1929 91.9927 102.063 85.0837 106.845 82.244C107.221 82.0199 107.612 81.8219 108.014 81.6513C110.095 80.7666 111.953 80.8551 113.295 81.8194L113.561 82.014C113.656 82.0936 113.742 82.1821 113.828 82.2705L114.06 82.5005C114.146 82.5978 114.215 82.7128 114.292 82.819C114.363 82.9066 114.429 82.9982 114.49 83.0932C114.567 83.2082 114.628 83.3409 114.696 83.4648C114.765 83.5886 114.808 83.6594 114.86 83.7656C114.911 83.8717 114.972 84.0575 115.032 84.2079C115.092 84.3583 115.118 84.4202 115.152 84.5352C115.187 84.6502 115.238 84.8713 115.281 85.0394C115.324 85.2075 115.341 85.2694 115.367 85.3844C115.393 85.4994 115.427 85.8002 115.453 86.0125L115.505 86.3222C115.505 86.6495 115.505 86.9856 115.505 87.3395C115.505 87.6933 115.556 88.2418 115.513 88.6487Z" fill="#E0E0E0"/>
<path opacity="0.2" d="M97.8231 116.373L97.1265 117.258L103.817 121.257L102.415 115.878C100.928 116.338 99.3705 116.506 97.8231 116.373Z" fill="black"/>
<path opacity="0.2" d="M124.38 76.7773L129.635 75.2999L122.918 71.2837L122.462 72.4956C123.351 73.7897 124.001 75.2411 124.38 76.7773Z" fill="black"/>
<path opacity="0.2" d="M115.488 86.0571C115.488 85.8448 115.488 85.6325 115.402 85.429C115.316 85.2256 115.341 85.2079 115.316 85.084C115.29 84.9602 115.238 84.739 115.187 84.5798C115.135 84.4205 115.101 84.3675 115.066 84.2525C115.032 84.1375 114.954 83.9517 114.894 83.8101C114.834 83.6686 114.782 83.6155 114.731 83.5094C114.679 83.4032 114.602 83.2528 114.524 83.1378C114.463 83.0428 114.397 82.9512 114.327 82.8636C114.249 82.7574 114.18 82.6424 114.094 82.5451L113.862 82.3151C113.776 82.2266 113.69 82.1382 113.596 82.0586L113.329 81.864C111.987 80.8997 110.13 80.7935 108.049 81.6959C108.097 82.1039 108.123 82.5144 108.126 82.9255C108.126 83.2528 108.126 83.5801 108.126 83.9163C108.126 84.0136 108.126 84.1198 108.126 84.2259C108.126 84.3321 108.126 84.6506 108.049 84.8717C107.971 85.0929 107.98 85.3406 107.937 85.5794C107.894 85.8183 107.877 85.9067 107.842 86.066C107.808 86.2252 107.765 86.3756 107.73 86.526C107.696 86.6764 107.627 86.9506 107.567 87.1629C107.507 87.3752 107.498 87.4106 107.455 87.5256C107.412 87.6406 107.309 88.0033 107.223 88.2422L107.12 88.5341C106.999 88.8703 106.87 89.1976 106.733 89.516C106.724 89.5563 106.709 89.595 106.69 89.631C106.561 89.923 106.432 90.2061 106.294 90.5157L106.157 90.7811C106.019 91.0553 105.881 91.3207 105.735 91.5861C105.71 91.641 105.681 91.6942 105.649 91.7453C105.477 92.0549 105.297 92.3557 105.107 92.63C105.047 92.7184 104.996 92.8069 104.935 92.8865C104.798 93.1077 104.652 93.32 104.505 93.5234L104.265 93.8685C104.136 94.0365 104.007 94.2135 103.869 94.3815L103.534 94.8062L103.207 95.1866C103.018 95.4077 102.82 95.62 102.622 95.8235L102.261 96.2039L101.968 96.4781L101.478 96.9204L101.177 97.177C101.005 97.3185 100.816 97.4601 100.635 97.5928L100.377 97.7874C100.102 97.982 99.8269 98.1678 99.5173 98.327C99.2579 98.4824 98.9909 98.6242 98.7175 98.7516L98.5197 98.8489L98.3391 98.9197C98.5971 101.087 99.4915 102.644 100.825 103.423C100.999 103.529 101.184 103.618 101.375 103.688L101.504 103.741C101.659 103.795 101.817 103.839 101.977 103.874H102.106C102.315 103.919 102.528 103.945 102.742 103.953H102.897C103.069 103.953 103.241 103.953 103.422 103.953H103.671L104.127 103.883L104.471 103.803L104.849 103.688L105.46 103.476L105.881 103.299L106.079 103.201C106.353 103.074 106.619 102.932 106.879 102.777C107.154 102.617 107.429 102.432 107.739 102.237L107.997 102.042L108.255 101.848L108.539 101.627L108.84 101.37L109.106 101.131L109.33 100.928L109.622 100.654L109.992 100.273C110.181 100.07 110.379 99.8574 110.568 99.6363C110.758 99.4151 110.792 99.3886 110.895 99.2559L111.231 98.8313C111.368 98.6632 111.497 98.4862 111.626 98.3182C111.712 98.212 111.79 98.097 111.867 97.982C112.013 97.7785 112.159 97.5574 112.297 97.3451L112.469 97.0885C112.658 96.7877 112.839 96.487 113.011 96.2039C113.044 96.1508 113.073 96.0945 113.097 96.0358C113.243 95.7793 113.389 95.5139 113.518 95.2396L113.656 94.9742C113.793 94.6912 113.922 94.3992 114.043 94.0896L114.094 93.9746C114.232 93.6473 114.352 93.32 114.473 92.9927L114.576 92.7007C114.662 92.4648 114.739 92.226 114.808 91.9842C114.808 91.8603 114.886 91.7453 114.92 91.6215C114.954 91.4976 115.032 91.1969 115.083 90.9845C115.083 90.8253 115.161 90.6749 115.195 90.5245C115.195 90.3653 115.255 90.1972 115.29 90.038C115.29 89.7991 115.376 89.5603 115.402 89.3303C115.402 89.1091 115.462 88.8968 115.479 88.6845C115.496 88.4722 115.479 88.4722 115.479 88.3749C115.479 88.0387 115.479 87.7114 115.479 87.3841C115.479 87.0568 115.479 86.6941 115.479 86.3667L115.488 86.0571Z" fill="black"/>
<path opacity="0.2" d="M85.8777 109.305L84.1921 109.774L83.4525 109.332L81.1907 115.303L88.6469 119.762L91.3645 112.587L85.8777 109.305Z" fill="black"/>
<path opacity="0.2" d="M89.4467 108.297L85.8777 109.305L91.3645 112.587C90.4653 111.296 89.8143 109.84 89.4467 108.297Z" fill="black"/>
<path opacity="0.2" d="M111.403 69.1869C112.409 68.8988 113.446 68.7326 114.49 68.6915H114.645C114.868 68.6915 115.083 68.6915 115.29 68.6915H115.797H115.986L110.414 65.3564L111.403 69.1869Z" fill="black"/>
<path opacity="0.2" d="M89.6102 96.6105C89.7134 96.1682 89.8166 95.7259 89.9284 95.2835L90.109 94.6201C90.4444 93.4081 90.8486 92.1962 91.3044 90.9842L83.8482 86.561C83.8052 86.676 83.7622 86.7822 83.7278 86.8972L83.53 87.4545C83.4096 87.7818 83.2978 88.1003 83.186 88.4276C83.1616 88.503 83.1329 88.5769 83.1 88.6488C83.0484 88.808 83.0054 88.9672 82.9538 89.1176C82.842 89.4892 82.7388 89.8519 82.6356 90.2146C82.6356 90.3119 82.5668 90.4092 82.541 90.5154C82.5152 90.6215 82.4894 90.7542 82.455 90.8781C82.3432 91.3204 82.24 91.7627 82.1368 92.205C82.1368 92.3377 82.068 92.4704 82.0422 92.6031L81.939 93.1162L89.3952 97.5394C89.4726 97.2386 89.5414 96.9378 89.6102 96.6105Z" fill="black"/>
<path opacity="0.2" d="M84.1749 102.29L76.7188 97.8403L76.7359 105.315L83.4526 109.332L84.1921 109.774L84.1749 102.29Z" fill="black"/>
<path opacity="0.2" d="M103.671 67.5591L96.2151 63.1006L94.8477 70.1246L102.304 74.5743L103.671 67.5591Z" fill="black"/>
<path opacity="0.2" d="M88.561 87.0566L81.0962 82.6069L83.8482 86.5347L91.313 90.9933L88.561 87.0566Z" fill="black"/>
<path opacity="0.2" d="M97.72 79.5547L90.2638 75.105L85.5596 74.6538L93.0158 79.1124L97.72 79.5547Z" fill="black"/>
<path opacity="0.2" d="M110.405 65.3744L115.986 68.7095L120.682 62.6851L113.226 58.2266L109.235 63.3398L110.001 63.7998L110.405 65.3744Z" fill="white"/>
<path opacity="0.2" d="M97.72 79.5638C98.3478 78.75 99.0014 77.9803 99.6722 77.2372L99.8786 76.9984C100.119 76.733 100.377 76.4765 100.627 76.2111L100.936 75.8926C101.384 75.4414 101.839 75.008 102.304 74.5833L94.8476 70.1602C94.3832 70.5759 93.9274 71.0448 93.4802 71.4694L93.3598 71.5844L92.7406 72.239L92.4224 72.5752C92.0698 72.9645 91.7258 73.3537 91.3818 73.7518C91.012 74.1941 90.6422 74.6364 90.281 75.1141L97.72 79.5638Z" fill="white"/>
<path opacity="0.2" d="M89.4123 97.5396L81.9561 93.0811L76.7188 97.8404L84.1749 102.29L89.4123 97.5396Z" fill="white"/>
<path opacity="0.2" d="M110.001 63.7994L109.235 63.3394L102.544 59.3408L96.2148 63.1005L103.671 67.5591L110.001 63.7994Z" fill="white"/>
<path opacity="0.2" d="M93.0158 79.1124L85.5596 74.6538L81.0962 82.6067L88.561 87.0564L93.0158 79.1124Z" fill="white"/>
<path d="M150.3 90.4182L149.802 91.0551L154.54 93.886L153.551 90.082C152.498 90.405 151.395 90.5191 150.3 90.4182Z" fill="#E0E0E0"/>
<path d="M169.1 62.4195L172.815 61.3756L168.051 58.5713L167.724 59.4559C168.354 60.3497 168.82 61.3539 169.1 62.4195Z" fill="#E0E0E0"/>
<path d="M162.796 68.9833C162.796 68.8329 162.796 68.6825 162.736 68.541C162.676 68.3995 162.736 68.3818 162.676 68.2933C162.652 68.1732 162.621 68.055 162.581 67.9394C162.558 67.8608 162.529 67.784 162.495 67.7094C162.464 67.5999 162.424 67.4934 162.375 67.391L162.263 67.1787C162.22 67.0902 162.168 67.0017 162.117 66.9133C162.065 66.8248 162.022 66.7894 161.979 66.7275C161.936 66.6656 161.867 66.5683 161.807 66.4975L161.644 66.3383C161.585 66.2719 161.522 66.2098 161.455 66.1525C161.398 66.1033 161.338 66.0589 161.274 66.0198C160.714 65.6697 160.075 65.4744 159.419 65.4527C158.764 65.431 158.114 65.5837 157.533 65.8959C157.572 66.1892 157.592 66.4847 157.593 66.7806C157.593 67.0106 157.593 67.2406 157.593 67.4706C157.598 67.5472 157.598 67.624 157.593 67.7006L157.542 68.1518C157.542 68.3198 157.49 68.4879 157.456 68.656C157.421 68.8241 157.413 68.886 157.387 69.001C157.369 69.1091 157.343 69.2156 157.309 69.3195C157.309 69.4699 157.241 69.6203 157.198 69.7706L157.12 70.0272C157.069 70.2041 157.008 70.3722 156.957 70.5403L156.879 70.7437C156.793 70.9738 156.707 71.2126 156.613 71.4426C156.61 71.469 156.61 71.4958 156.613 71.5222L156.329 72.1326L156.234 72.3184C156.14 72.513 156.037 72.6988 155.942 72.8846L155.873 72.9996C155.753 73.2207 155.624 73.433 155.486 73.6453L155.374 73.8311L155.065 74.2823L154.893 74.5211C154.807 74.645 154.712 74.7688 154.618 74.8838C154.523 74.9988 154.463 75.0873 154.377 75.1846L154.145 75.4588C154.007 75.6092 153.878 75.7596 153.732 75.91C153.586 76.0604 153.568 76.0869 153.474 76.1754L153.267 76.37C153.156 76.4762 153.044 76.5823 152.923 76.6796L152.717 76.8566L152.33 77.1574L152.141 77.2989C151.952 77.4316 151.754 77.5643 151.556 77.6793C151.375 77.7899 151.189 77.8903 150.997 77.9801L150.851 78.0508H150.73C150.753 78.6835 150.92 79.3019 151.219 79.8553C151.518 80.4088 151.94 80.8817 152.45 81.2355C152.573 81.3127 152.703 81.3779 152.837 81.4301H152.932C153.041 81.4707 153.154 81.5032 153.267 81.5274H153.362C153.513 81.5544 153.665 81.5721 153.818 81.5805H153.921C154.047 81.5938 154.174 81.5938 154.299 81.5805H154.471L154.79 81.5274C154.871 81.5183 154.952 81.5005 155.03 81.4744C155.122 81.4573 155.211 81.4306 155.297 81.3948C155.444 81.3577 155.588 81.3074 155.727 81.2444L156.028 81.1205L156.166 81.0498C156.355 80.9613 156.544 80.864 156.733 80.7578C156.931 80.634 157.12 80.5101 157.318 80.3686L157.499 80.2359L157.679 80.0943L157.886 79.9351L158.092 79.7582C158.159 79.7039 158.222 79.6448 158.281 79.5813L158.445 79.4486L158.651 79.2451L158.909 78.9797C159.047 78.8382 159.184 78.6878 159.313 78.5374L159.554 78.2543L159.786 77.9624L160.07 77.5908L160.242 77.352C160.345 77.2104 160.448 77.06 160.543 76.9008L160.663 76.7239L161.05 76.0781C161.065 76.0371 161.086 75.9984 161.111 75.9631C161.214 75.7773 161.308 75.5827 161.403 75.3969C161.44 75.3348 161.471 75.2697 161.498 75.2023C161.603 75.0041 161.697 74.8003 161.781 74.5919V74.5123C161.876 74.2823 161.971 74.0523 162.057 73.8223C162.057 73.7515 162.057 73.6807 162.125 73.61C162.194 73.5392 162.237 73.2738 162.289 73.1057L162.366 72.8492C162.409 72.6988 162.452 72.5484 162.487 72.398L162.564 72.0707C162.564 71.9557 162.564 71.8407 162.624 71.7257C162.661 71.5592 162.69 71.3909 162.71 71.2215C162.736 71.0722 162.753 70.9216 162.762 70.7703V70.5491C162.762 70.3103 162.762 70.0803 162.762 69.8503C162.775 69.6116 162.775 69.3724 162.762 69.1337C162.776 69.0842 162.787 69.034 162.796 68.9833Z" fill="#E0E0E0"/>
<path d="M141.847 85.4287L140.66 85.756L140.135 85.4464L138.536 89.6661L143.807 92.8243L145.734 87.7465L141.847 85.4287Z" fill="#E0E0E0"/>
<path d="M159.21 54.3516L163.149 56.7136L166.468 52.4497L161.197 49.2915L158.376 52.9097L158.918 53.237L159.21 54.3516Z" fill="#E0E0E0"/>
<path d="M144.375 84.7212L141.846 85.4289L145.734 87.7643C145.098 86.8472 144.637 85.8147 144.375 84.7212Z" fill="#E0E0E0"/>
<path d="M159.907 57.041C160.619 56.8375 161.352 56.7188 162.091 56.6872H162.659H163.02H163.149L159.201 54.3252L159.907 57.041Z" fill="#E0E0E0"/>
<path d="M144.495 76.4676C144.564 76.158 144.633 75.8395 144.719 75.5299C144.719 75.3707 144.796 75.2114 144.839 75.061C145.08 74.1941 145.367 73.336 145.699 72.4868L140.428 69.3286L140.333 69.5675C140.333 69.7002 140.247 69.8329 140.195 69.9567L139.955 70.6467L139.903 70.7971L139.808 71.1333C139.722 71.3928 139.645 71.6493 139.576 71.9029C139.576 71.9737 139.576 72.0444 139.516 72.1152C139.456 72.186 139.473 72.2921 139.456 72.3718C139.37 72.6902 139.292 72.9998 139.224 73.3183C139.224 73.4068 139.181 73.5041 139.163 73.5926L139.086 73.9641L144.349 77.1488C144.392 76.8922 144.444 76.6799 144.495 76.4676Z" fill="#E0E0E0"/>
<path d="M150.232 64.3832C150.67 63.817 151.135 63.2686 151.608 62.7378L151.754 62.5697C151.926 62.3839 152.106 62.1982 152.287 62.0212L152.502 61.7912C152.82 61.4728 153.138 61.1543 153.474 60.9066L148.193 57.6865C147.867 57.9873 147.548 58.2969 147.23 58.5712C147.23 58.5712 147.17 58.6242 147.144 58.6596L146.706 59.1196L146.482 59.3585C146.233 59.6327 145.983 59.907 145.742 60.19C145.476 60.4997 145.218 60.827 144.96 61.1543L150.232 64.3832Z" fill="#E0E0E0"/>
<path d="M144.349 77.1044L139.077 73.9551L135.371 77.3167L140.643 80.466L144.349 77.1044Z" fill="#E0E0E0"/>
<path d="M140.643 80.4662L135.371 77.3169L135.379 82.607L140.135 85.4467L140.66 85.7563L140.643 80.4662Z" fill="#E0E0E0"/>
<path d="M154.437 55.891L149.165 52.7417L148.193 57.7045L153.474 60.8626L154.437 55.891Z" fill="#E0E0E0"/>
<path d="M158.917 53.2368L158.376 52.9094L153.637 50.0786L149.165 52.7414L154.437 55.8907L158.917 53.2368Z" fill="#E0E0E0"/>
<path d="M143.747 69.6913L138.467 66.542L140.419 69.3197L145.691 72.4779L143.747 69.6913Z" fill="#E0E0E0"/>
<path d="M150.232 64.3833L144.951 61.234L141.623 60.9155L146.903 64.0737L150.232 64.3833Z" fill="#E0E0E0"/>
<path opacity="0.2" d="M150.3 90.4182L149.802 91.0551L154.54 93.886L153.551 90.082C152.498 90.405 151.395 90.5191 150.3 90.4182Z" fill="black"/>
<path opacity="0.2" d="M169.1 62.4195L172.815 61.3756L168.051 58.5713L167.724 59.4559C168.354 60.3497 168.82 61.3539 169.1 62.4195Z" fill="black"/>
<path opacity="0.2" d="M162.796 68.9833C162.796 68.8329 162.796 68.6825 162.736 68.541C162.676 68.3995 162.736 68.3818 162.676 68.2933C162.652 68.1732 162.621 68.055 162.581 67.9394C162.558 67.8608 162.529 67.784 162.495 67.7094C162.464 67.5999 162.424 67.4934 162.375 67.391L162.263 67.1787C162.22 67.0902 162.168 67.0017 162.117 66.9133C162.065 66.8248 162.022 66.7894 161.979 66.7275C161.936 66.6656 161.867 66.5683 161.807 66.4975L161.644 66.3383C161.585 66.2719 161.522 66.2098 161.455 66.1525C161.398 66.1033 161.338 66.0589 161.274 66.0198C160.714 65.6697 160.075 65.4744 159.419 65.4527C158.764 65.431 158.114 65.5837 157.533 65.8959C157.572 66.1892 157.592 66.4847 157.593 66.7806C157.593 67.0106 157.593 67.2406 157.593 67.4706C157.598 67.5472 157.598 67.624 157.593 67.7006L157.542 68.1518C157.542 68.3198 157.49 68.4879 157.456 68.656C157.421 68.8241 157.413 68.886 157.387 69.001C157.369 69.1091 157.343 69.2156 157.309 69.3195C157.309 69.4699 157.241 69.6203 157.198 69.7706L157.12 70.0272C157.069 70.2041 157.008 70.3722 156.957 70.5403L156.879 70.7437C156.793 70.9738 156.707 71.2126 156.613 71.4426C156.61 71.469 156.61 71.4958 156.613 71.5222L156.329 72.1326L156.234 72.3184C156.14 72.513 156.037 72.6988 155.942 72.8846L155.873 72.9996C155.753 73.2207 155.624 73.433 155.486 73.6453L155.374 73.8311L155.065 74.2823L154.893 74.5211C154.807 74.645 154.712 74.7688 154.618 74.8838C154.523 74.9988 154.463 75.0873 154.377 75.1846L154.145 75.4588C154.007 75.6092 153.878 75.7596 153.732 75.91C153.586 76.0604 153.568 76.0869 153.474 76.1754L153.267 76.37C153.156 76.4762 153.044 76.5823 152.923 76.6796L152.717 76.8566L152.33 77.1574L152.141 77.2989C151.952 77.4316 151.754 77.5643 151.556 77.6793C151.375 77.7899 151.189 77.8903 150.997 77.9801L150.851 78.0508H150.73C150.753 78.6835 150.92 79.3019 151.219 79.8553C151.518 80.4088 151.94 80.8817 152.45 81.2355C152.573 81.3127 152.703 81.3779 152.837 81.4301H152.932C153.041 81.4707 153.154 81.5032 153.267 81.5274H153.362C153.513 81.5544 153.665 81.5721 153.818 81.5805H153.921C154.047 81.5938 154.174 81.5938 154.299 81.5805H154.471L154.79 81.5274C154.871 81.5183 154.952 81.5005 155.03 81.4744C155.122 81.4573 155.211 81.4306 155.297 81.3948C155.444 81.3577 155.588 81.3074 155.727 81.2444L156.028 81.1205L156.166 81.0498C156.355 80.9613 156.544 80.864 156.733 80.7578C156.931 80.634 157.12 80.5101 157.318 80.3686L157.499 80.2359L157.679 80.0943L157.886 79.9351L158.092 79.7582C158.159 79.7039 158.222 79.6448 158.281 79.5813L158.445 79.4486L158.651 79.2451L158.909 78.9797C159.047 78.8382 159.184 78.6878 159.313 78.5374L159.554 78.2543L159.786 77.9624L160.07 77.5908L160.242 77.352C160.345 77.2104 160.448 77.06 160.543 76.9008L160.663 76.7239L161.05 76.0781C161.065 76.0371 161.086 75.9984 161.111 75.9631C161.214 75.7773 161.308 75.5827 161.403 75.3969C161.44 75.3348 161.471 75.2697 161.498 75.2023C161.603 75.0041 161.697 74.8003 161.781 74.5919V74.5123C161.876 74.2823 161.971 74.0523 162.057 73.8223C162.057 73.7515 162.057 73.6807 162.125 73.61C162.194 73.5392 162.237 73.2738 162.289 73.1057L162.366 72.8492C162.409 72.6988 162.452 72.5484 162.487 72.398L162.564 72.0707C162.564 71.9557 162.564 71.8407 162.624 71.7257C162.661 71.5592 162.69 71.3909 162.71 71.2215C162.736 71.0722 162.753 70.9216 162.762 70.7703V70.5491C162.762 70.3103 162.762 70.0803 162.762 69.8503C162.775 69.6116 162.775 69.3724 162.762 69.1337C162.776 69.0842 162.787 69.034 162.796 68.9833Z" fill="black"/>
<path opacity="0.2" d="M141.847 85.4287L140.66 85.756L140.135 85.4464L138.536 89.6661L143.807 92.8243L145.734 87.7465L141.847 85.4287Z" fill="black"/>
<path opacity="0.2" d="M144.375 84.7212L141.846 85.4289L145.734 87.7643C145.098 86.8472 144.637 85.8147 144.375 84.7212Z" fill="black"/>
<path opacity="0.2" d="M159.907 57.041C160.619 56.8375 161.352 56.7188 162.091 56.6872H162.659H163.02H163.149L159.201 54.3252L159.907 57.041Z" fill="black"/>
<path opacity="0.2" d="M144.495 76.4676C144.564 76.158 144.633 75.8395 144.719 75.5299C144.719 75.3707 144.796 75.2114 144.839 75.061C145.08 74.1941 145.367 73.336 145.699 72.4868L140.428 69.3286L140.333 69.5675C140.333 69.7002 140.247 69.8329 140.195 69.9567L139.955 70.6467L139.903 70.7971L139.808 71.1333C139.722 71.3928 139.645 71.6493 139.576 71.9029C139.576 71.9737 139.576 72.0444 139.516 72.1152C139.456 72.186 139.473 72.2921 139.456 72.3718C139.37 72.6902 139.292 72.9998 139.224 73.3183C139.224 73.4068 139.181 73.5041 139.163 73.5926L139.086 73.9641L144.349 77.1488C144.392 76.8922 144.444 76.6799 144.495 76.4676Z" fill="black"/>
<path opacity="0.2" d="M140.643 80.4662L135.371 77.3169L135.379 82.607L140.135 85.4467L140.66 85.7563L140.643 80.4662Z" fill="black"/>
<path opacity="0.2" d="M154.437 55.891L149.165 52.7417L148.193 57.7045L153.474 60.8626L154.437 55.891Z" fill="black"/>
<path opacity="0.2" d="M143.747 69.6913L138.467 66.542L140.419 69.3197L145.691 72.4779L143.747 69.6913Z" fill="black"/>
<path opacity="0.2" d="M150.232 64.3833L144.951 61.234L141.623 60.9155L146.903 64.0737L150.232 64.3833Z" fill="black"/>
<path d="M146.903 64.0737L141.623 60.9155L138.467 66.5418L143.747 69.6911L146.903 64.0737Z" fill="#E0E0E0"/>
<path opacity="0.2" d="M159.21 54.3516L163.149 56.7136L166.468 52.4497L161.197 49.2915L158.376 52.9097L158.918 53.237L159.21 54.3516Z" fill="white"/>
<path opacity="0.2" d="M150.232 64.3832C150.67 63.817 151.135 63.2686 151.608 62.7378L151.754 62.5697C151.926 62.3839 152.106 62.1982 152.287 62.0212L152.502 61.7912C152.82 61.4728 153.138 61.1543 153.474 60.9066L148.193 57.6865C147.867 57.9873 147.548 58.2969 147.23 58.5712C147.23 58.5712 147.17 58.6242 147.144 58.6596L146.706 59.1196L146.482 59.3585C146.233 59.6327 145.983 59.907 145.742 60.19C145.476 60.4997 145.218 60.827 144.96 61.1543L150.232 64.3832Z" fill="white"/>
<path opacity="0.2" d="M144.349 77.1044L139.077 73.9551L135.371 77.3167L140.643 80.466L144.349 77.1044Z" fill="white"/>
<path opacity="0.2" d="M158.917 53.2368L158.376 52.9094L153.637 50.0786L149.165 52.7414L154.437 55.8907L158.917 53.2368Z" fill="white"/>
<path opacity="0.2" d="M146.903 64.0737L141.623 60.9155L138.467 66.5418L143.747 69.6911L146.903 64.0737Z" fill="white"/>
<path d="M169.1 70.0718L172.807 66.7102V61.4024L169.1 62.4197C168.832 61.3337 168.371 60.308 167.741 59.3943L168.068 58.5096L169.668 54.2811L166.486 52.4233L163.166 56.6873H163.037H162.676H162.108C161.369 56.7189 160.636 56.8376 159.924 57.0411L159.219 54.3872L158.918 53.2637L154.48 55.9177L153.517 60.8893C153.181 61.1812 152.863 61.4997 152.545 61.7739L152.33 62.0039C152.149 62.1809 151.969 62.3666 151.797 62.5524L151.651 62.7205C151.178 63.2513 150.713 63.7998 150.275 64.3659L146.946 64.0563L143.79 69.6737L145.734 72.4603C145.407 73.3096 145.12 74.1677 144.874 75.0346C144.874 75.185 144.796 75.3442 144.753 75.5035C144.667 75.8131 144.599 76.1316 144.53 76.4412C144.461 76.7508 144.427 76.8747 144.384 77.087L140.677 80.4486V85.7564L141.864 85.4291L144.392 84.7214C144.649 85.8136 145.104 86.8461 145.734 87.7645L143.807 92.8423L146.989 94.7001L149.802 91.0819L150.3 90.445C151.395 90.5459 152.498 90.4318 153.551 90.1088L154.54 93.9127L159.021 91.2588L159.984 86.2872C161.167 85.2111 162.252 84.0267 163.226 82.7486L166.554 83.0583L169.711 77.432L167.767 74.6542C168.339 73.1692 168.785 71.636 169.1 70.0718ZM162.805 70.8857C162.796 71.037 162.779 71.1876 162.753 71.3368C162.733 71.5063 162.704 71.6746 162.667 71.8411C162.667 71.9561 162.667 72.0711 162.607 72.1861L162.53 72.5134C162.53 72.6638 162.452 72.8142 162.409 72.9646L162.332 73.2211C162.28 73.3892 162.229 73.5573 162.168 73.7254C162.108 73.8934 162.168 73.8669 162.1 73.9377C162.014 74.1677 161.919 74.3977 161.824 74.6277V74.7073C161.74 74.9157 161.645 75.1195 161.541 75.3177C161.514 75.3851 161.483 75.4502 161.446 75.5123C161.351 75.6981 161.257 75.8927 161.154 76.0785C161.129 76.1138 161.108 76.1525 161.093 76.1935L160.706 76.8393L160.586 77.0162C160.491 77.1754 160.388 77.3258 160.285 77.4674L160.113 77.7062L159.829 78.0778L159.597 78.3697L159.356 78.6528C159.227 78.8032 159.09 78.9536 158.952 79.0951L158.694 79.3605L158.488 79.564L158.324 79.6966C158.134 79.8797 157.933 80.0511 157.722 80.2097L157.542 80.3513L157.361 80.484C157.163 80.6255 156.974 80.7494 156.776 80.8732C156.547 81.0064 156.312 81.1274 156.071 81.2359L155.77 81.3598C155.626 81.4178 155.48 81.468 155.331 81.5102C155.245 81.546 155.156 81.5727 155.065 81.5898C154.984 81.6159 154.9 81.6337 154.815 81.6429L154.497 81.6959H154.308C154.182 81.7092 154.055 81.7092 153.93 81.6959H153.826C153.674 81.6875 153.521 81.6698 153.371 81.6429H153.267C153.153 81.6186 153.041 81.5861 152.932 81.5455H152.82C152.686 81.4933 152.556 81.4281 152.433 81.3509C151.923 80.9971 151.501 80.5242 151.202 79.9707C150.903 79.4173 150.736 78.799 150.713 78.1662C150.713 77.892 150.662 77.6001 150.653 77.2816C150.769 75.0978 151.384 72.9729 152.448 71.0793C153.512 69.1857 154.995 67.5767 156.776 66.3829C157.054 66.2251 157.341 66.0863 157.636 65.9671C158.217 65.6549 158.867 65.5022 159.523 65.5239C160.178 65.5456 160.817 65.7409 161.377 66.091C161.441 66.1301 161.501 66.1745 161.558 66.2237C161.625 66.281 161.688 66.343 161.747 66.4094L161.91 66.5687C161.971 66.6394 162.022 66.7191 162.082 66.7987C162.143 66.8783 162.177 66.9137 162.22 66.9844C162.263 67.0552 162.323 67.1614 162.366 67.2498L162.478 67.4621C162.527 67.5645 162.567 67.6711 162.598 67.7806C162.632 67.8551 162.661 67.932 162.684 68.0106C162.724 68.1262 162.755 68.2444 162.779 68.3645C162.779 68.4529 162.822 68.5237 162.839 68.6122C162.856 68.7006 162.882 68.9041 162.899 69.0545C162.904 69.1281 162.904 69.202 162.899 69.2756C162.913 69.5143 162.913 69.7535 162.899 69.9922C162.885 70.2766 162.856 70.5601 162.813 70.8415L162.805 70.8857Z" fill="#E0E0E0"/>
<path d="M269.135 81.6778C269.144 82.2949 268.974 82.9008 268.648 83.4189C268.322 83.937 267.854 84.344 267.303 84.5886C266.752 84.8332 266.143 84.9044 265.553 84.7932C264.963 84.682 264.418 84.3934 263.987 83.9638C263.556 83.5342 263.259 82.9829 263.132 82.3795C263.006 81.7762 263.056 81.1478 263.276 80.5738C263.497 79.9998 263.878 79.5059 264.371 79.1544C264.864 78.803 265.448 78.6098 266.048 78.5993C266.448 78.591 266.845 78.6644 267.217 78.815C267.589 78.9656 267.928 79.1905 268.215 79.4767C268.502 79.7629 268.731 80.1048 268.889 80.4826C269.047 80.8604 269.131 81.2666 269.135 81.6778Z" fill="#37474F"/>
<path d="M262.427 82.0049C260.398 80.846 260.363 78.8998 262.367 77.6702C263.489 77.0625 264.734 76.7361 266.001 76.7176C267.269 76.6992 268.522 76.9892 269.66 77.564C271.681 78.7229 271.715 80.6602 269.72 81.881C268.6 82.4915 267.356 82.8209 266.088 82.8424C264.821 82.864 263.566 82.577 262.427 82.0049Z" fill="#455A64"/>
<path d="M262.298 80.8814C260.2 79.6783 260.174 77.679 262.221 76.4582C263.37 75.8277 264.646 75.4818 265.948 75.4481C267.25 75.4143 268.542 75.6935 269.72 76.2636C271.818 77.4667 271.844 79.466 269.78 80.6868C268.636 81.3232 267.362 81.6725 266.062 81.7063C264.762 81.7401 263.472 81.4575 262.298 80.8814Z" fill="#37474F"/>
<path d="M262.169 79.7313C260.019 78.4928 259.985 76.4404 262.118 75.1842C263.309 74.5427 264.629 74.1974 265.973 74.1759C267.318 74.1544 268.648 74.4573 269.858 75.0604C272.016 76.2989 272.059 78.3601 269.935 79.6693C268.737 80.3096 267.409 80.649 266.059 80.6598C264.71 80.6706 263.377 80.3524 262.169 79.7313Z" fill="#455A64"/>
<path d="M262.023 78.5194C259.804 77.2455 259.779 75.1224 261.954 73.7777C263.183 73.114 264.546 72.7562 265.934 72.7331C267.321 72.7101 268.695 73.0224 269.944 73.645C272.163 74.9189 272.197 77.042 270.004 78.3867C268.777 79.0503 267.415 79.4081 266.029 79.4311C264.643 79.4542 263.271 79.1419 262.023 78.5194Z" fill="#37474F"/>
<path d="M261.903 77.2724C259.607 75.9277 259.589 73.8046 261.825 72.4334C263.077 71.7503 264.469 71.3821 265.886 71.3591C267.303 71.336 268.706 71.6587 269.978 72.3007C272.249 73.5923 272.283 75.7596 270.047 77.1397C268.796 77.8206 267.406 78.1876 265.99 78.2107C264.575 78.2337 263.174 77.9122 261.903 77.2724Z" fill="#455A64"/>
<path d="M265.42 40.7368C261.592 40.7904 257.941 42.4039 255.268 45.2233C252.594 48.0427 251.118 51.8376 251.161 55.7756V55.9172C251.342 67.7359 260.836 69.5494 260.94 74.3087C260.986 74.7589 261.148 75.1881 261.409 75.5521C261.671 75.9161 262.022 76.2015 262.427 76.3788C263.531 76.9336 264.746 77.2132 265.974 77.1947C267.202 77.1763 268.409 76.8604 269.497 76.2726C269.891 76.0787 270.228 75.781 270.474 75.4097C270.72 75.0383 270.867 74.6066 270.898 74.1583C270.821 69.399 280.281 67.2847 280.092 55.4483C280.042 51.5097 278.474 47.7525 275.733 45.0023C272.991 42.2521 269.301 40.7338 265.472 40.781L265.42 40.7368Z" fill="#FF9356"/>
<g opacity="0.6">
<path d="M265.42 40.7368C261.592 40.7904 257.941 42.4039 255.268 45.2233C252.594 48.0427 251.118 51.8376 251.161 55.7756V55.9172C251.342 67.7359 260.836 69.5494 260.94 74.3087C260.986 74.7589 261.148 75.1881 261.409 75.5521C261.671 75.9161 262.022 76.2015 262.427 76.3788C263.531 76.9336 264.746 77.2132 265.974 77.1947C267.202 77.1763 268.409 76.8604 269.497 76.2726C269.891 76.0787 270.228 75.781 270.474 75.4097C270.72 75.0383 270.867 74.6066 270.898 74.1583C270.821 69.399 280.281 67.2847 280.092 55.4483C280.042 51.5097 278.474 47.7525 275.733 45.0023C272.991 42.2521 269.301 40.7338 265.472 40.781L265.42 40.7368Z" fill="white"/>
</g>
<path d="M263.322 75.7152C261.877 74.8306 261.817 73.4594 263.227 72.5836C264.044 72.1401 264.951 71.9009 265.874 71.8856C266.798 71.8702 267.712 72.079 268.542 72.4951C269.987 73.3798 270.047 74.7509 268.593 75.6533C267.78 76.0861 266.88 76.3171 265.965 76.3279C265.049 76.3386 264.144 76.1288 263.322 75.7152Z" fill="#FF9356"/>
<path d="M267.871 73.6982C267.744 73.6983 267.622 73.6476 267.531 73.5569C267.439 73.4661 267.385 73.3423 267.381 73.2117C267.34 70.35 267.628 67.4933 268.241 64.7015C268.417 63.8929 268.647 63.0978 268.929 62.3218C268.484 62.1613 268.057 61.9506 267.656 61.6937C266.925 61.2444 266.264 60.6837 265.695 60.0306C265.146 60.6834 264.509 61.2523 263.803 61.7203C263.409 61.9774 262.992 62.1937 262.556 62.3661C262.86 63.135 263.113 63.9241 263.313 64.728C264.029 67.5005 264.413 70.3524 264.457 73.2205C264.457 73.2875 264.444 73.3538 264.419 73.4156C264.394 73.4773 264.357 73.5333 264.31 73.5802C264.264 73.6272 264.209 73.6641 264.148 73.689C264.088 73.7138 264.023 73.7259 263.958 73.7248C263.829 73.7202 263.706 73.6641 263.617 73.5684C263.527 73.4726 263.477 73.3448 263.477 73.2117C263.415 70.4311 263.04 67.6673 262.359 64.9757C262.159 64.1791 261.903 63.3985 261.593 62.6403C261.107 62.7453 260.603 62.7285 260.124 62.5915C259.645 62.4545 259.205 62.2012 258.841 61.853C258.567 61.593 258.391 61.2413 258.346 60.8606C258.3 60.4799 258.387 60.0948 258.592 59.7741C258.733 59.5493 258.936 59.3723 259.174 59.2654C259.413 59.1584 259.677 59.1261 259.933 59.1725C260.439 59.3641 260.898 59.6668 261.278 60.0594C261.658 60.4521 261.951 60.9253 262.135 61.446C262.531 61.2962 262.909 61.1003 263.262 60.8622C263.952 60.4186 264.567 59.8629 265.085 59.2168C264.775 58.8243 264.547 58.3704 264.416 57.8833C264.284 57.3963 264.251 56.8865 264.319 56.3859C264.401 56.0945 264.571 55.8378 264.805 55.6535C265.039 55.4691 265.325 55.367 265.619 55.362C265.914 55.3571 266.202 55.4496 266.442 55.6259C266.682 55.8023 266.86 56.0532 266.951 56.3417C267.037 56.8384 267.022 57.348 266.906 57.8384C266.791 58.3287 266.578 58.789 266.28 59.1902C266.806 59.8259 267.431 60.367 268.129 60.7914C268.495 61.0104 268.881 61.1912 269.282 61.331C269.458 60.8044 269.742 60.3227 270.114 59.9184C270.486 59.514 270.939 59.1964 271.44 58.9867C271.696 58.9358 271.96 58.9651 272.2 59.0708C272.439 59.1765 272.642 59.3537 272.782 59.5794C272.997 59.893 273.097 60.275 273.064 60.6574C273.031 61.0399 272.867 61.3977 272.601 61.6672C272.248 62.0273 271.817 62.2955 271.342 62.4494C270.868 62.6032 270.365 62.6384 269.875 62.5518C269.587 63.3206 269.354 64.1101 269.178 64.9138C268.579 67.6269 268.29 70.4029 268.318 73.1851C268.321 73.2514 268.31 73.3174 268.288 73.3795C268.265 73.4416 268.231 73.4985 268.187 73.547C268.143 73.5954 268.09 73.6345 268.032 73.662C267.973 73.6895 267.91 73.7048 267.845 73.7071L267.871 73.6982ZM259.71 60.181C259.653 60.1865 259.598 60.2074 259.551 60.2416C259.504 60.2757 259.467 60.322 259.443 60.3756C259.202 60.7118 259.486 61.0745 259.581 61.1718C259.793 61.369 260.045 61.5163 260.318 61.6034C260.591 61.6905 260.88 61.7153 261.163 61.676C260.899 61.0205 260.409 60.4882 259.787 60.181H259.71ZM270.357 61.5699C270.642 61.5942 270.928 61.5564 271.198 61.4588C271.468 61.3613 271.714 61.2062 271.922 61.0037C272.008 60.8976 272.283 60.5349 272.042 60.1987C271.905 60.0041 271.784 60.0041 271.69 60.0218C271.363 60.0837 270.855 60.5702 270.357 61.5699ZM265.687 56.4213C265.644 56.4137 265.601 56.4147 265.559 56.4244C265.517 56.4341 265.477 56.4522 265.442 56.4776C265.407 56.5031 265.377 56.5355 265.354 56.5729C265.331 56.6103 265.316 56.6519 265.308 56.6955C265.25 57.2772 265.397 57.861 265.721 58.341C266.025 57.8463 266.149 57.2576 266.074 56.6778C266.057 56.5891 266.007 56.5106 265.935 56.4594C265.862 56.4081 265.773 56.388 265.687 56.4036V56.4213Z" fill="white"/>
<path d="M265.42 35.093C265.338 35.1106 265.253 35.1106 265.171 35.093C265.046 35.0953 264.923 35.0725 264.807 35.0257C264.692 34.979 264.586 34.9092 264.497 34.8205C264.407 34.7318 264.336 34.6258 264.286 34.5086C264.236 34.3914 264.21 34.2654 264.207 34.1376L264.096 29.0686C264.091 28.8135 264.184 28.5667 264.354 28.3814C264.525 28.1961 264.759 28.087 265.007 28.0778C265.259 28.073 265.502 28.1708 265.684 28.3497C265.866 28.5287 265.972 28.7743 265.979 29.0332L266.082 34.1022C266.096 34.3198 266.038 34.5357 265.918 34.7154C265.798 34.895 265.622 35.028 265.42 35.093Z" fill="#E0E0E0"/>
<path d="M254.98 38.2244C254.78 38.2837 254.567 38.2743 254.373 38.1976C254.179 38.121 254.015 37.9813 253.905 37.7998L251.325 33.4651C251.218 33.2448 251.195 32.9911 251.261 32.7543C251.327 32.5176 251.478 32.3151 251.682 32.187C251.887 32.059 252.131 32.0147 252.366 32.063C252.6 32.1113 252.809 32.2486 252.95 32.4478L255.53 36.7736C255.66 36.9956 255.7 37.2615 255.64 37.5134C255.581 37.7653 255.427 37.9827 255.212 38.1183C255.139 38.1631 255.061 38.1988 254.98 38.2244Z" fill="#E0E0E0"/>
<path d="M247.455 46.3366C247.336 46.3784 247.21 46.3929 247.085 46.3791C246.96 46.3654 246.84 46.3237 246.732 46.257L242.432 43.8154C242.213 43.6935 242.05 43.4877 241.977 43.2426C241.905 42.9975 241.929 42.7328 242.045 42.5061C242.169 42.2788 242.374 42.1105 242.617 42.0376C242.86 41.9648 243.121 41.9933 243.344 42.1169L247.644 44.5408C247.863 44.6674 248.024 44.8778 248.094 45.1262C248.163 45.3746 248.134 45.641 248.014 45.8678C247.956 45.9809 247.877 46.0809 247.781 46.1615C247.685 46.2421 247.574 46.3017 247.455 46.3366Z" fill="#E0E0E0"/>
<path d="M244.866 57.2179C244.795 57.2645 244.716 57.2975 244.634 57.3152L239.706 57.4214C239.465 57.4312 239.23 57.3444 239.051 57.1794C238.871 57.0143 238.761 56.7839 238.743 56.5367C238.731 56.4074 238.745 56.2771 238.783 56.1532C238.821 56.0294 238.882 55.9147 238.964 55.8157C239.046 55.7168 239.146 55.6357 239.259 55.5772C239.371 55.5187 239.494 55.484 239.62 55.4752L244.548 55.3159C244.672 55.3159 244.796 55.3414 244.911 55.391C245.025 55.4405 245.13 55.5131 245.217 55.6046C245.304 55.696 245.373 55.8044 245.419 55.9234C245.465 56.0425 245.488 56.1698 245.485 56.2979C245.476 56.496 245.408 56.6865 245.292 56.8444C245.175 57.0023 245.015 57.1202 244.832 57.1825L244.866 57.2179Z" fill="#E0E0E0"/>
<path d="M291.874 56.1471C291.803 56.1937 291.724 56.2267 291.641 56.2444L286.696 56.2975C286.565 56.3104 286.433 56.2949 286.308 56.2521C286.183 56.2093 286.068 56.1401 285.97 56.0489C285.873 55.9577 285.795 55.8465 285.741 55.7225C285.688 55.5985 285.66 55.4644 285.66 55.3288C285.66 55.1932 285.688 55.0591 285.741 54.9351C285.795 54.8111 285.873 54.6999 285.97 54.6087C286.068 54.5175 286.183 54.4483 286.308 54.4055C286.433 54.3626 286.565 54.3472 286.696 54.3601L291.624 54.2451C291.851 54.2447 292.07 54.3277 292.242 54.4792C292.413 54.6306 292.527 54.8405 292.561 55.0706C292.595 55.3007 292.549 55.5359 292.429 55.7334C292.309 55.9309 292.124 56.0777 291.908 56.1471H291.874Z" fill="#E0E0E0"/>
<path d="M283.893 45.5053C283.773 45.5404 283.648 45.5508 283.524 45.536C283.401 45.5211 283.281 45.4813 283.172 45.4189C283.064 45.3564 282.968 45.2725 282.891 45.172C282.814 45.0715 282.757 44.9563 282.723 44.833C282.669 44.6288 282.68 44.4121 282.754 44.2147C282.828 44.0173 282.962 43.8496 283.136 43.7361L287.359 41.0822C287.462 41.0159 287.577 40.9713 287.697 40.951C287.817 40.9307 287.939 40.9351 288.058 40.9639C288.176 40.9927 288.288 41.0453 288.386 41.1188C288.485 41.1922 288.568 41.285 288.631 41.3918C288.697 41.4989 288.742 41.6185 288.763 41.7436C288.783 41.8686 288.779 41.9966 288.751 42.1202C288.723 42.2437 288.672 42.3602 288.599 42.463C288.527 42.5658 288.436 42.6527 288.33 42.7187L284.116 45.3726C284.046 45.4243 283.971 45.4688 283.893 45.5053Z" fill="#E0E0E0"/>
<path d="M276.024 37.7556C275.783 37.8274 275.525 37.7989 275.304 37.6765C275.084 37.554 274.919 37.3473 274.846 37.101C274.776 36.8524 274.804 36.5857 274.923 36.3579L277.314 31.9347C277.44 31.7083 277.649 31.5429 277.894 31.4749C278.14 31.4069 278.401 31.4418 278.621 31.572C278.841 31.7023 279.002 31.9171 279.068 32.1692C279.134 32.4214 279.1 32.6903 278.974 32.9167L276.6 37.3399C276.538 37.447 276.454 37.5395 276.355 37.6112C276.256 37.6828 276.143 37.7321 276.024 37.7556Z" fill="#E0E0E0"/>
<path d="M176.668 289.965C176.703 292.586 175.983 295.159 174.598 297.359C173.214 299.559 171.227 301.288 168.888 302.328C166.55 303.368 163.964 303.673 161.457 303.203C158.951 302.733 156.635 301.511 154.803 299.689C152.971 297.867 151.705 295.529 151.164 292.968C150.622 290.407 150.83 287.738 151.762 285.298C152.693 282.859 154.306 280.758 156.397 279.26C158.487 277.762 160.963 276.934 163.51 276.882C165.21 276.846 166.901 277.158 168.484 277.797C170.067 278.437 171.512 279.392 172.735 280.608C173.958 281.824 174.935 283.277 175.61 284.883C176.285 286.489 176.644 288.216 176.668 289.965Z" fill="#37474F"/>
<path d="M148.082 291.363C139.421 286.418 139.284 278.164 147.806 272.901C152.587 270.32 157.89 268.933 163.288 268.851C168.686 268.77 174.027 269.997 178.878 272.432C187.478 277.395 187.642 285.657 179.145 290.859C174.371 293.452 169.07 294.849 163.672 294.936C158.274 295.024 152.933 293.8 148.082 291.363Z" fill="#455A64"/>
<path d="M147.523 286.586C138.604 281.455 138.458 272.954 147.213 267.549C152.142 264.89 157.609 263.457 163.174 263.366C168.74 263.276 174.248 264.53 179.257 267.027C188.175 272.158 188.321 280.659 179.515 286.038C174.604 288.724 169.144 290.174 163.583 290.269C158.022 290.365 152.518 289.102 147.523 286.586Z" fill="#37474F"/>
<path d="M146.972 281.703C137.813 276.395 137.667 267.682 146.766 262.329C151.825 259.594 157.438 258.122 163.153 258.031C168.867 257.941 174.522 259.234 179.661 261.808C188.871 267.062 189.026 275.847 180.005 281.411C174.908 284.123 169.261 285.563 163.522 285.614C157.784 285.664 152.114 284.325 146.972 281.703Z" fill="#455A64"/>
<path d="M146.353 276.51C136.893 271.105 136.781 262.055 146.078 256.34C151.302 253.5 157.103 251.967 163.011 251.864C168.919 251.761 174.767 253.091 180.082 255.747C189.542 261.197 189.706 270.22 180.375 275.961C175.143 278.792 169.338 280.317 163.427 280.412C157.517 280.508 151.668 279.171 146.353 276.51Z" fill="#37474F"/>
<path d="M145.88 271.22C136.102 265.47 136.042 256.447 145.562 250.581C150.9 247.681 156.83 246.12 162.867 246.026C168.903 245.932 174.876 247.308 180.297 250.042C189.972 255.544 190.11 264.771 180.59 270.636C175.257 273.535 169.334 275.099 163.303 275.201C157.272 275.302 151.302 273.938 145.88 271.22Z" fill="#455A64"/>
<path d="M160.861 115.568C152.775 115.679 144.789 117.428 137.36 120.714C129.93 124.001 123.204 128.761 117.564 134.723C111.923 140.685 107.481 147.732 104.489 155.46C101.497 163.189 100.015 171.448 100.128 179.766V180.058C100.893 230.429 141.348 238.161 141.761 258.419C141.96 260.344 142.656 262.179 143.777 263.734C144.897 265.29 146.401 266.509 148.133 267.266C152.832 269.628 158.006 270.818 163.236 270.74C168.465 270.661 173.603 269.316 178.233 266.814C179.92 265.993 181.365 264.727 182.422 263.145C183.479 261.564 184.111 259.723 184.253 257.809C183.892 237.471 224.14 228.421 223.383 178.041C223.277 169.726 221.579 161.513 218.386 153.873C215.193 146.233 210.569 139.315 204.776 133.513C198.984 127.712 192.137 123.141 184.627 120.062C177.117 116.983 169.091 115.456 161.007 115.568H160.861Z" fill="#FF9356"/>
<g opacity="0.6">
<path d="M160.861 115.568C152.775 115.679 144.789 117.428 137.36 120.714C129.93 124.001 123.204 128.761 117.564 134.723C111.923 140.685 107.481 147.732 104.489 155.46C101.497 163.189 100.015 171.448 100.128 179.766V180.058C100.893 230.429 141.348 238.161 141.761 258.419C141.96 260.344 142.656 262.179 143.777 263.734C144.897 265.29 146.401 266.509 148.133 267.266C152.832 269.628 158.006 270.818 163.236 270.74C168.465 270.661 173.603 269.316 178.233 266.814C179.92 265.993 181.365 264.727 182.422 263.145C183.479 261.564 184.111 259.723 184.253 257.809C183.892 237.471 224.14 228.421 223.383 178.041C223.277 169.726 221.579 161.513 218.386 153.873C215.193 146.233 210.569 139.315 204.776 133.513C198.984 127.712 192.137 123.141 184.627 120.062C177.117 116.983 169.091 115.456 161.007 115.568H160.861Z" fill="white"/>
</g>
<path d="M151.9 264.576C145.76 260.896 145.467 254.987 151.496 251.218C154.981 249.337 158.847 248.325 162.782 248.266C166.717 248.206 170.611 249.099 174.148 250.873C180.289 254.553 180.538 260.48 174.346 264.311C170.885 266.156 167.052 267.142 163.154 267.188C159.256 267.234 155.401 266.34 151.9 264.576Z" fill="#FF9356"/>
<path d="M171.276 255.969C170.734 255.972 170.213 255.76 169.819 255.378C169.425 254.996 169.189 254.473 169.16 253.916C169.036 241.714 170.315 229.54 172.97 217.646C173.708 214.201 174.683 210.813 175.885 207.508C173.991 206.83 172.174 205.94 170.467 204.854C167.345 202.95 164.526 200.563 162.108 197.777C159.776 200.57 157.062 202.999 154.05 204.987C152.371 206.087 150.587 207.009 148.727 207.738C150.018 211.018 151.101 214.381 151.969 217.805C155.003 229.626 156.641 241.781 156.845 254.005C156.805 254.552 156.564 255.063 156.17 255.434C155.777 255.805 155.26 256.008 154.727 256.001C154.193 255.994 153.682 255.779 153.297 255.398C152.913 255.017 152.684 254.5 152.657 253.952C152.398 242.109 150.8 230.338 147.892 218.876C147.056 215.474 145.967 212.144 144.633 208.915C142.56 209.369 140.411 209.302 138.368 208.718C136.326 208.134 134.451 207.052 132.903 205.562C131.742 204.451 131.001 202.954 130.811 201.335C130.62 199.716 130.993 198.079 131.862 196.716C132.457 195.759 133.315 195.005 134.327 194.55C135.339 194.095 136.46 193.959 137.547 194.159C139.707 194.981 141.667 196.278 143.29 197.958C144.913 199.639 146.161 201.663 146.946 203.89C148.634 203.25 150.247 202.416 151.754 201.404C154.687 199.488 157.3 197.099 159.494 194.327C158.18 192.654 157.213 190.722 156.652 188.65C156.092 186.578 155.949 184.409 156.234 182.279C156.588 181.04 157.317 179.951 158.316 179.169C159.314 178.387 160.529 177.955 161.784 177.934C163.038 177.913 164.266 178.306 165.289 179.054C166.311 179.802 167.074 180.867 167.466 182.093C167.831 184.21 167.766 186.383 167.274 188.473C166.783 190.564 165.876 192.527 164.611 194.239C166.888 196.911 169.565 199.192 172.54 200.997C174.085 201.94 175.726 202.705 177.433 203.28C178.174 201.043 179.372 198.996 180.946 197.274C182.519 195.553 184.433 194.198 186.558 193.301C187.648 193.09 188.775 193.219 189.793 193.673C190.811 194.128 191.674 194.885 192.268 195.849C193.187 197.175 193.615 198.794 193.476 200.416C193.337 202.037 192.641 203.555 191.512 204.695C190.01 206.233 188.17 207.377 186.148 208.03C184.125 208.683 181.98 208.825 179.893 208.446C178.663 211.72 177.666 215.082 176.909 218.504C174.363 230.063 173.142 241.889 173.271 253.739C173.287 254.311 173.083 254.867 172.703 255.284C172.323 255.702 171.797 255.948 171.241 255.969H171.276ZM136.506 198.414C136.261 198.429 136.025 198.512 135.822 198.653C135.619 198.795 135.457 198.991 135.354 199.219C134.339 200.652 135.551 202.209 135.947 202.625C136.849 203.466 137.92 204.093 139.084 204.461C140.247 204.829 141.475 204.93 142.681 204.757C141.561 201.96 139.475 199.688 136.824 198.379L136.506 198.414ZM181.845 204.315C183.063 204.422 184.288 204.262 185.44 203.844C186.592 203.426 187.645 202.76 188.527 201.891C188.88 201.449 190.075 199.892 189.052 198.467C188.911 198.193 188.687 197.971 188.415 197.836C188.143 197.701 187.836 197.659 187.538 197.715C186.128 197.999 183.987 200.033 181.845 204.315ZM161.979 182.42C161.611 182.356 161.233 182.445 160.928 182.667C160.623 182.889 160.417 183.227 160.354 183.605C160.094 186.083 160.704 188.574 162.074 190.629C163.361 188.523 163.887 186.018 163.562 183.552C163.499 183.174 163.292 182.836 162.987 182.614C162.683 182.392 162.305 182.303 161.936 182.367L161.979 182.42Z" fill="white"/>
<g opacity="0.3">
<path d="M178.689 178.236C191.77 178.236 202.373 167.328 202.373 153.873C202.373 140.418 191.77 129.51 178.689 129.51C165.609 129.51 155.005 140.418 155.005 153.873C155.005 167.328 165.609 178.236 178.689 178.236Z" fill="white"/>
<path d="M199.776 205.35C206.188 205.35 211.386 200.003 211.386 193.407C211.386 186.812 206.188 181.465 199.776 181.465C193.364 181.465 188.166 186.812 188.166 193.407C188.166 200.003 193.364 205.35 199.776 205.35Z" fill="white"/>
</g>
<path d="M192.32 337.55L166.984 352.686C166.214 353.091 165.36 353.302 164.495 353.302C163.629 353.302 162.776 353.091 162.005 352.686L136.506 337.55C136.221 337.417 135.976 337.21 135.793 336.949C135.611 336.688 135.498 336.383 135.465 336.063V342.256C135.499 342.575 135.613 342.88 135.795 343.14C135.978 343.401 136.222 343.608 136.506 343.742L162.005 358.878C162.776 359.284 163.629 359.495 164.495 359.495C165.36 359.495 166.214 359.284 166.984 358.878L192.32 343.751C192.605 343.622 192.852 343.416 193.032 343.154C193.212 342.892 193.32 342.585 193.343 342.265V336.072C193.318 336.391 193.21 336.696 193.03 336.956C192.85 337.216 192.604 337.421 192.32 337.55Z" fill="#E0E0E0"/>
<path opacity="0.2" d="M192.32 337.55L166.984 352.686C166.214 353.091 165.36 353.302 164.495 353.302C163.629 353.302 162.776 353.091 162.005 352.686L136.506 337.55C136.221 337.417 135.976 337.21 135.793 336.949C135.611 336.688 135.498 336.383 135.465 336.063V342.256C135.499 342.575 135.613 342.88 135.795 343.14C135.978 343.401 136.222 343.608 136.506 343.742L162.005 358.878C162.776 359.284 163.629 359.495 164.495 359.495C165.36 359.495 166.214 359.284 166.984 358.878L192.32 343.751C192.605 343.622 192.852 343.416 193.032 343.154C193.212 342.892 193.32 342.585 193.343 342.265V336.072C193.318 336.391 193.21 336.696 193.03 336.956C192.85 337.216 192.604 337.421 192.32 337.55Z" fill="black"/>
<path d="M136.48 337.55L161.979 352.686C162.75 353.091 163.603 353.303 164.469 353.303C165.335 353.303 166.188 353.091 166.959 352.686L192.32 337.55C192.606 337.421 192.852 337.214 193.032 336.953C193.212 336.691 193.32 336.384 193.343 336.064C193.314 335.746 193.204 335.441 193.024 335.18C192.845 334.92 192.602 334.712 192.32 334.577L166.778 319.432C166.006 319.031 165.153 318.822 164.288 318.822C163.423 318.822 162.571 319.031 161.799 319.432L136.463 334.577C136.178 334.706 135.931 334.913 135.751 335.175C135.571 335.436 135.463 335.744 135.44 336.064C135.472 336.383 135.585 336.689 135.767 336.949C135.95 337.21 136.196 337.417 136.48 337.55Z" fill="#E0E0E0"/>
<path opacity="0.1" d="M136.48 337.55L161.979 352.686C162.75 353.091 163.603 353.303 164.469 353.303C165.335 353.303 166.188 353.091 166.959 352.686L192.32 337.55C192.606 337.421 192.852 337.214 193.032 336.953C193.212 336.691 193.32 336.384 193.343 336.064C193.314 335.746 193.204 335.441 193.024 335.18C192.845 334.92 192.602 334.712 192.32 334.577L166.778 319.432C166.006 319.031 165.153 318.822 164.288 318.822C163.423 318.822 162.571 319.031 161.799 319.432L136.463 334.577C136.178 334.706 135.931 334.913 135.751 335.175C135.571 335.436 135.463 335.744 135.44 336.064C135.472 336.383 135.585 336.689 135.767 336.949C135.95 337.21 136.196 337.417 136.48 337.55Z" fill="black"/>
<path d="M182.241 333.26L166.03 342.946C165.537 343.211 164.99 343.35 164.434 343.35C163.879 343.35 163.331 343.211 162.839 342.946L146.499 333.26C146.317 333.176 146.16 333.044 146.044 332.878C145.928 332.712 145.856 332.517 145.837 332.313V336.276C145.856 336.481 145.927 336.678 146.043 336.846C146.159 337.013 146.317 337.147 146.499 337.232L162.839 346.918C163.334 347.176 163.88 347.31 164.434 347.31C164.989 347.31 165.535 347.176 166.03 346.918L182.241 337.232C182.422 337.146 182.578 337.013 182.693 336.845C182.808 336.677 182.877 336.481 182.894 336.276V332.313C182.877 332.516 182.807 332.711 182.692 332.877C182.577 333.044 182.421 333.176 182.241 333.26Z" fill="#E0E0E0"/>
<path opacity="0.2" d="M182.241 333.26L166.03 342.946C165.537 343.211 164.99 343.35 164.434 343.35C163.879 343.35 163.331 343.211 162.839 342.946L146.499 333.26C146.317 333.176 146.16 333.044 146.044 332.878C145.928 332.712 145.856 332.517 145.837 332.313V336.276C145.856 336.481 145.927 336.678 146.043 336.846C146.159 337.013 146.317 337.147 146.499 337.232L162.839 346.918C163.334 347.176 163.88 347.31 164.434 347.31C164.989 347.31 165.535 347.176 166.03 346.918L182.241 337.232C182.422 337.146 182.578 337.013 182.693 336.845C182.808 336.677 182.877 336.481 182.894 336.276V332.313C182.877 332.516 182.807 332.711 182.692 332.877C182.577 333.044 182.421 333.176 182.241 333.26Z" fill="black"/>
<path d="M146.525 333.259L162.865 342.946C163.357 343.211 163.905 343.35 164.46 343.35C165.016 343.35 165.563 343.211 166.056 342.946L182.267 333.259C182.447 333.175 182.603 333.044 182.718 332.877C182.833 332.711 182.903 332.516 182.92 332.313C182.902 332.108 182.831 331.911 182.714 331.743C182.598 331.576 182.441 331.442 182.258 331.357L165.918 321.671C165.423 321.413 164.877 321.279 164.323 321.279C163.768 321.279 163.222 321.413 162.727 321.671L146.516 331.357C146.335 331.443 146.179 331.576 146.064 331.744C145.949 331.912 145.88 332.108 145.863 332.313C145.882 332.517 145.953 332.712 146.07 332.878C146.186 333.044 146.343 333.176 146.525 333.259ZM164.318 324.917L176.788 332.322L164.439 339.708L151.969 332.304L164.318 324.917Z" fill="#E0E0E0"/>
<path d="M151.969 332.304L164.439 339.708L176.788 332.321L164.318 324.917L151.969 332.304Z" fill="white"/>
<path opacity="0.3" d="M151.969 332.304L70.2 218.513L163.261 273.573L164.439 339.708L151.969 332.304Z" fill="white"/>
<path opacity="0.3" d="M176.788 332.322L258.325 217.116L163.26 273.573L164.439 339.709L176.788 332.322Z" fill="white"/>
<path d="M338.907 71.8415L364.002 86.6503C364.746 87.0954 365.365 87.7328 365.796 88.4992C366.227 89.2657 366.457 90.1348 366.461 91.0204V109.801C366.461 113.181 363.666 115.481 359.986 113.34L356.494 111.287L355.789 110.863L355.626 110.774L350.921 108.005L334.9 98.5929C334.144 98.1472 333.517 97.5026 333.083 96.7253C332.649 95.948 332.424 95.0659 332.431 94.1697V75.3801C332.431 71.7531 336.714 70.5765 338.907 71.8415Z" fill="#FF9356"/>
<path opacity="0.4" d="M361.878 90.8521C361.562 90.1982 361.117 89.6196 360.57 89.1536C360.384 88.9979 360.186 88.8588 359.977 88.7378L334.882 73.929C334.634 73.7845 334.353 73.709 334.067 73.7101C333.782 73.7112 333.502 73.7888 333.254 73.9353C333.007 74.0817 332.801 74.292 332.657 74.5453C332.512 74.7986 332.435 75.0862 332.431 75.3798C332.431 71.7439 336.731 70.5674 338.907 71.8412L364.002 86.65C364.763 87.1056 365.393 87.7623 365.825 88.552L361.878 90.8521Z" fill="white"/>
<path opacity="0.2" d="M362.428 111.888V93.0723C362.441 92.875 362.441 92.6769 362.428 92.4796C362.35 91.8988 362.176 91.3361 361.912 90.8165L365.859 88.543C366.274 89.2959 366.493 90.1459 366.496 91.0111V109.792C366.496 113.171 363.701 115.471 360.02 113.33C360.266 113.467 360.542 113.536 360.822 113.531C361.101 113.526 361.375 113.448 361.617 113.303C361.858 113.158 362.06 112.952 362.202 112.705C362.344 112.457 362.422 112.176 362.428 111.888Z" fill="white"/>
<path d="M356.494 111.288L355.78 110.872L356.494 111.288Z" fill="#FF9356"/>
<path d="M329.189 84.5267L332.431 82.5894V83.5713L329.189 84.5267Z" fill="#FF9356"/>
<path opacity="0.4" d="M329.189 84.5267L332.431 82.5894V83.5713L329.189 84.5267Z" fill="white"/>
<path d="M333.007 83.4038L329.37 84.4477C329.235 84.4876 329.113 84.5636 329.016 84.6681C328.919 84.7725 328.851 84.9016 328.818 85.042C328.786 85.1825 328.791 85.3293 328.832 85.4673C328.872 85.6054 328.948 85.7298 329.051 85.8277L332.827 89.4282L333.007 83.4038Z" fill="#FF9356"/>
<path d="M355.858 99.2649L356.064 99.7073L355.858 99.9019C353.613 102.131 350.638 102.317 347.456 100.433C344.274 98.5484 341.307 94.8241 339.088 89.9409L338.89 89.5074L339.088 89.3039C341.324 87.0747 344.316 86.8977 347.49 88.782C350.663 90.6663 353.639 94.4171 355.858 99.2649ZM347.456 99.3534C350.242 101.017 352.891 100.902 354.92 99.0349C352.908 94.7533 350.268 91.5067 347.481 89.8524C344.695 88.1981 342.063 88.3132 340.025 90.1797C342.046 94.4614 344.669 97.6991 347.456 99.3534Z" fill="white"/>
<path d="M347.636 91.5773C348.39 92.0873 349.016 92.7727 349.464 93.578C349.913 94.3834 350.17 95.286 350.216 96.2128C350.216 97.9113 349.038 98.6013 347.636 97.7432C346.881 97.2347 346.254 96.5497 345.805 95.744C345.357 94.9383 345.1 94.0349 345.056 93.1077C345.013 91.4003 346.191 90.7103 347.636 91.5773Z" fill="white"/>
<path d="M346.647 91.7899C346.893 91.9493 347.1 92.1661 347.249 92.4228C347.398 92.6795 347.487 92.9688 347.507 93.2673C347.507 93.8158 347.129 94.0369 346.647 93.7627C346.399 93.6036 346.191 93.3856 346.042 93.1271C345.892 92.8685 345.805 92.5769 345.787 92.2765C345.804 91.728 346.183 91.5157 346.647 91.7899Z" fill="#FF9356"/>
<path d="M346.131 93.7891C346.257 93.8755 346.361 93.9909 346.435 94.126C346.51 94.2612 346.553 94.4124 346.561 94.5676C346.561 94.8507 346.372 94.9657 346.131 94.8241C346.004 94.7386 345.898 94.6237 345.822 94.4885C345.746 94.3533 345.701 94.2016 345.692 94.0456C345.692 93.7626 345.89 93.6475 346.131 93.7891Z" fill="#FF9356"/>
<path d="M288.718 109.482C287.097 109.697 285.565 110.368 284.292 111.422C283.018 112.476 282.053 113.871 281.502 115.454L273.16 139.604L254.67 127.98C253.552 127.121 252.701 125.947 252.219 124.601L251.359 122.186C250.768 120.532 249.718 119.092 248.341 118.046C246.283 116.471 244.428 114.634 242.819 112.579C242.302 113.161 241.995 113.91 241.951 114.697C241.908 115.485 242.129 116.265 242.579 116.904C243.253 117.823 243.988 118.692 244.78 119.505L242.802 119.647C241.369 119.749 239.94 119.387 238.717 118.612L233.678 115.436C233.533 115.345 233.368 115.295 233.199 115.291C233.03 115.288 232.863 115.33 232.715 115.415C232.567 115.5 232.443 115.623 232.357 115.773C232.271 115.923 232.225 116.093 232.224 116.267C232.285 118.833 232.777 121.367 233.678 123.76C234.082 124.901 234.721 125.939 235.551 126.803C236.38 127.667 237.381 128.337 238.485 128.767C241.16 129.82 243.757 130.731 245.245 131.244C246.093 131.535 246.891 131.962 247.61 132.509L249.097 133.651L269.11 153.617C270.122 154.472 271.309 155.082 272.583 155.401C273.856 155.72 275.183 155.739 276.465 155.458C277.746 155.176 278.95 154.601 279.986 153.776C281.022 152.95 281.863 151.895 282.448 150.689L288.976 137.207L292.803 108.898L288.718 109.482Z" fill="#FFA8A7"/>
<path d="M288.571 109.385C286.685 109.584 284.892 110.326 283.398 111.526C281.904 112.726 280.77 114.336 280.126 116.17L274.02 133.332L272.3 137.755L266.977 134.571L259.495 144.974L267.897 153.696C268.959 154.81 270.265 155.645 271.706 156.13C273.147 156.616 274.68 156.738 276.176 156.487C277.673 156.235 279.088 155.617 280.304 154.685C281.52 153.753 282.5 152.534 283.162 151.131L287.608 141.816L291.229 135.261L292.777 108.898L288.571 109.385Z" fill="#FF9356"/>
<path opacity="0.2" d="M288.571 109.385C286.685 109.584 284.892 110.326 283.398 111.526C281.904 112.726 280.77 114.336 280.126 116.17L274.02 133.332L272.3 137.755L266.977 134.571L259.495 144.974L267.897 153.696C268.959 154.81 270.265 155.645 271.706 156.13C273.147 156.616 274.68 156.738 276.176 156.487C277.673 156.235 279.088 155.617 280.304 154.685C281.52 153.753 282.5 152.534 283.162 151.131L287.608 141.816L291.229 135.261L292.777 108.898L288.571 109.385Z" fill="white"/>
<path opacity="0.21" d="M272.3 137.791L277.907 141.701C277.047 136.437 273.323 135.075 273.323 135.075L272.3 137.791Z" fill="black"/>
<path d="M262.522 132.925L263.597 133.606C262.943 138.958 257.379 141.904 257.379 141.904L256.519 141.02C256.283 141.628 256.217 142.291 256.326 142.936C256.435 143.582 256.716 144.183 257.138 144.673L257.62 145.248C258.177 145.922 258.943 146.378 259.789 146.54C260.635 146.701 261.509 146.557 262.264 146.133C265.222 144.254 267.467 141.392 268.628 138.021C268.914 137.149 268.891 136.201 268.564 135.345C268.237 134.488 267.626 133.779 266.839 133.341L266.082 132.916C265.655 132.679 265.184 132.536 264.7 132.496C264.215 132.457 263.729 132.521 263.27 132.686L262.522 132.925Z" fill="#FF9356"/>
<path opacity="0.4" d="M262.522 132.925L263.597 133.606C262.943 138.958 257.379 141.904 257.379 141.904L256.519 141.02C256.283 141.628 256.217 142.291 256.326 142.936C256.435 143.582 256.716 144.183 257.138 144.673L257.62 145.248C258.177 145.922 258.943 146.378 259.789 146.54C260.635 146.701 261.509 146.557 262.264 146.133C265.222 144.254 267.467 141.392 268.628 138.021C268.914 137.149 268.891 136.201 268.564 135.345C268.237 134.488 267.626 133.779 266.839 133.341L266.082 132.916C265.655 132.679 265.184 132.536 264.7 132.496C264.215 132.457 263.729 132.521 263.27 132.686L262.522 132.925Z" fill="white"/>
<path d="M274.656 292.876C275.536 293.744 276.581 294.416 277.725 294.849C278.869 295.283 280.087 295.47 281.304 295.397C283.738 295.235 286.123 294.614 288.339 293.566C290.592 292.619 293.413 289.957 295.847 290.027C298.225 290.006 300.6 289.838 302.959 289.523C303.044 286.189 302.703 282.858 301.944 279.615L290.592 279.306C287.531 283.623 281.571 287.214 277.056 288.568C276.361 288.767 275.734 289.159 275.241 289.7C274.748 290.242 274.409 290.912 274.261 291.637C274.257 291.661 274.257 291.685 274.261 291.708C274.342 292.114 274.475 292.506 274.656 292.876Z" fill="#455A64"/>
<path d="M295.847 290.01C293.413 289.956 290.592 292.619 288.339 293.548C286.123 294.596 283.739 295.217 281.304 295.379C280.087 295.452 278.869 295.265 277.725 294.831C276.581 294.398 275.537 293.726 274.657 292.858C274.477 292.483 274.346 292.084 274.27 291.673C274.266 291.649 274.266 291.625 274.27 291.602C274.157 292.114 274.157 292.646 274.27 293.159C274.348 293.569 274.479 293.968 274.657 294.344C275.537 295.211 276.582 295.881 277.726 296.314C278.87 296.746 280.088 296.931 281.304 296.857C283.737 296.693 286.121 296.076 288.339 295.034C290.592 294.079 293.413 291.416 295.847 291.496C298.187 291.516 300.525 291.378 302.847 291.08C302.908 290.558 302.933 290.036 302.959 289.514C300.6 289.826 298.225 289.991 295.847 290.01Z" fill="#263238"/>
<path d="M327.899 293.973C327.905 295.162 327.789 296.348 327.555 297.512C327.189 299.585 326.062 301.435 324.408 302.678C322.882 303.571 321.157 304.04 319.402 304.04C317.861 304.213 316.302 304.047 314.827 303.554C313.713 303.14 312.769 302.347 312.153 301.307C312.148 301.327 312.148 301.348 312.153 301.369C312.368 302.135 312.762 302.836 313.3 303.411C313.838 303.985 314.504 304.417 315.24 304.668C316.715 305.158 318.274 305.324 319.815 305.155C321.569 305.155 323.291 304.682 324.812 303.784C326.471 302.545 327.599 300.693 327.959 298.617C328.195 297.454 328.31 296.267 328.303 295.079C328.311 294.265 328.479 293.462 328.797 292.717C329.114 291.972 329.576 291.301 330.152 290.744C330.439 290.473 330.706 290.178 330.952 289.859C331.31 289.431 331.49 288.875 331.451 288.311C331.451 288.09 331.408 287.878 331.382 287.666C330.969 288.17 329.98 289.364 329.74 289.603C329.157 290.162 328.693 290.838 328.376 291.59C328.059 292.342 327.897 293.153 327.899 293.973Z" fill="#263238"/>
<path d="M319.213 281.632C319.596 284.062 319.298 286.554 318.353 288.816C317.4 291.058 316.16 293.158 314.664 295.061C313.93 295.965 313.282 296.94 312.729 297.972C312.183 298.99 311.989 300.169 312.178 301.315C312.795 302.356 313.739 303.149 314.853 303.562C316.327 304.056 317.887 304.222 319.428 304.049C321.183 304.049 322.908 303.579 324.433 302.687C326.088 301.443 327.215 299.594 327.581 297.52C327.815 296.356 327.93 295.17 327.925 293.982C327.93 293.169 328.096 292.366 328.414 291.622C328.732 290.878 329.195 290.209 329.774 289.656C330.015 289.417 331.004 288.223 331.417 287.719C331.179 285.947 330.594 284.243 329.697 282.712L319.213 281.632Z" fill="#455A64"/>
<path d="M285.673 166.285L286.619 232.898L289.681 279.518C297.421 284.552 303.019 280.403 303.019 280.403C305.952 258.287 306.348 244.725 304.739 235.534L306.21 199.591L310.613 236.905L318.009 282.65C325.947 287.957 331.546 282.65 331.546 282.65C331.546 265.718 333.016 246.786 328.484 234.579C330.427 212.026 329.711 189.315 326.351 166.939L285.673 166.285Z" fill="#263238"/>
<path opacity="0.3" d="M304.593 185.897L306.218 199.626L305.531 216.434L302.546 188.763C295.666 185.985 294.746 182.075 294.746 182.075C297.665 184.178 301.051 185.492 304.593 185.897Z" fill="black"/>
<path d="M300.379 108.111L292.811 108.934C286.611 114.56 283.411 126.361 284.744 139.392C285.562 148.33 285.872 157.309 285.673 166.284C302.478 178.908 323.685 169.717 326.36 166.974L325.113 150.989C324.978 149.189 325.274 147.382 325.973 145.726C327.564 141.939 330.393 134.473 330.772 128.696C330.999 123.546 329.946 118.422 327.71 113.808L316.702 108.872L300.379 108.111Z" fill="#EBEBEB"/>
<path d="M298.281 119.47C291.943 134.455 292.046 149.892 292.046 149.892L295.159 156.784L300.044 150.202C299.669 140.102 299.867 129.988 300.637 119.912L298.281 119.47Z" fill="#455A64"/>
<path d="M298.014 113.808C297.881 115.699 297.971 117.6 298.281 119.47C299.011 119.84 299.827 119.993 300.637 119.912C302.125 118.557 303.398 116.972 304.413 115.215L300.68 113.808H298.014Z" fill="#455A64"/>
<path d="M300.68 113.808C303.94 115.047 306.838 121.009 306.838 121.009C315.395 113.534 316.728 108.872 316.728 108.872C315.616 107.128 314.213 105.6 312.583 104.36L300.68 113.808Z" fill="#FAFAFA"/>
<path d="M300.68 113.808C298.186 113.879 295.993 117.444 295.993 117.444C295.589 111.199 300.68 106.395 300.68 106.395V113.808Z" fill="#FAFAFA"/>
<path d="M316.693 79.1922C315.601 77.8709 314.067 77.0188 312.393 76.8037L289.861 78.9799C287.281 84.73 289.337 88.534 289.337 88.534C288.993 97.2919 288.7 102.865 292.39 104.714C294.995 105.804 297.823 106.214 300.62 105.908C303.247 105.748 305.814 105.034 308.162 103.812L308.282 103.75C309.099 103.295 309.81 102.664 310.368 101.901C310.926 101.138 311.318 100.26 311.516 99.3265C311.894 97.6197 312.153 95.8873 312.29 94.1426C312.327 93.1511 312.433 92.1636 312.608 91.1879C312.769 90.1955 313.209 89.2731 313.872 88.534C314.199 88.1807 314.606 87.9153 315.055 87.761C315.505 87.6068 315.985 87.5685 316.452 87.6493C316.612 87.6966 316.768 87.7588 316.917 87.8351C317.553 83.9339 317.742 80.5546 316.693 79.1922Z" fill="#263238"/>
<path d="M308.42 79.8644C308.03 81.4971 308.135 83.2135 308.721 84.783C309.3 86.3309 309.774 87.9182 310.14 89.5335C310.435 91.1704 310.219 92.8614 309.521 94.3636C309.174 95.1038 308.673 95.7564 308.053 96.2747C307.433 96.793 306.71 97.1644 305.935 97.3625C303.51 97.8933 301.145 96.4248 298.719 95.9294C296.384 95.5053 293.979 95.9507 291.934 97.1856C291.76 97.2906 291.562 97.3477 291.36 97.3513C291.158 97.355 290.958 97.3051 290.78 97.2065C290.602 97.1079 290.452 96.9638 290.344 96.7882C290.236 96.6126 290.173 96.4113 290.162 96.2036C289.879 91.1612 289.879 83.2526 290.601 79.5371L308.42 79.8644Z" fill="#FFA8A7"/>
<path d="M310.733 102.396L310.725 102.406L310.733 102.396Z" fill="#FFA8A7"/>
<path d="M312.72 96.6548C312.72 96.6548 312.677 98.7071 312.625 101.149C313.63 100.249 314.359 99.0691 314.724 97.7517C313.943 97.6664 313.225 97.2732 312.72 96.6548Z" fill="#37474F"/>
<path d="M298.074 88.8081L293.964 94.0009L297.73 95.3898L298.074 88.8081Z" fill="#F28F8F"/>
<path d="M301.179 97.9731L298.006 98.9905C298.205 99.3787 298.522 99.6892 298.908 99.8746C299.295 100.06 299.73 100.11 300.147 100.017C300.52 99.8489 300.827 99.5546 301.014 99.1826C301.202 98.8107 301.26 98.3838 301.179 97.9731Z" fill="#F28F8F"/>
<path opacity="0.3" d="M301.179 97.9731L298.006 98.9905C298.205 99.3787 298.522 99.6892 298.908 99.8746C299.295 100.06 299.73 100.11 300.147 100.017C300.52 99.8489 300.827 99.5546 301.014 99.1826C301.202 98.8107 301.26 98.3838 301.179 97.9731Z" fill="black"/>
<path d="M299.106 99.9548C299.439 100.086 299.802 100.107 300.147 100.017C300.443 99.899 300.698 99.6945 300.881 99.4287C301.065 99.1629 301.168 98.8475 301.179 98.5217C300.756 98.4542 300.322 98.5352 299.949 98.7517C299.529 99.0274 299.228 99.4578 299.106 99.9548Z" fill="#F28F8F"/>
<path d="M303.664 89.9495C303.647 90.1767 303.565 90.3936 303.429 90.5731C303.292 90.7527 303.108 90.8869 302.897 90.9589C302.687 91.031 302.461 91.0378 302.247 90.9783C302.034 90.9189 301.841 90.796 301.695 90.6249C301.549 90.4538 301.455 90.2421 301.425 90.0163C301.395 89.7906 301.43 89.5607 301.527 89.3555C301.623 89.1504 301.776 88.9789 301.967 88.8627C302.157 88.7465 302.377 88.6907 302.598 88.7022C302.9 88.7226 303.182 88.8654 303.382 89.0992C303.582 89.333 303.683 89.6388 303.664 89.9495Z" fill="#263238"/>
<path d="M294.222 89.0384C294.2 89.2639 294.114 89.4778 293.975 89.6535C293.835 89.8293 293.649 89.9593 293.439 90.0274C293.229 90.0955 293.004 90.0987 292.792 90.0366C292.58 89.9746 292.391 89.85 292.247 89.6782C292.103 89.5065 292.012 89.2952 291.983 89.0704C291.955 88.8457 291.992 88.6173 292.088 88.4137C292.185 88.21 292.338 88.04 292.527 87.9246C292.717 87.8092 292.935 87.7536 293.155 87.7645C293.307 87.7746 293.456 87.8157 293.592 87.8855C293.728 87.9553 293.849 88.0523 293.949 88.171C294.048 88.2896 294.123 88.4274 294.17 88.5764C294.217 88.7253 294.235 88.8824 294.222 89.0384Z" fill="#263238"/>
<path d="M293.361 84.288L290.781 85.9511C290.698 85.6298 290.709 85.2901 290.813 84.9752C290.917 84.6602 291.11 84.3841 291.366 84.1818C291.674 84.0032 292.026 83.9183 292.379 83.9371C292.732 83.9559 293.073 84.0776 293.361 84.288Z" fill="#263238"/>
<path d="M303.019 84.6949L305.427 86.6322C305.553 86.315 305.582 85.9662 305.512 85.6315C305.441 85.2968 305.274 84.9919 305.032 84.7568C304.737 84.5496 304.391 84.4337 304.034 84.4227C303.678 84.4118 303.325 84.5062 303.019 84.6949Z" fill="#263238"/>
<path d="M318.474 89.5335C318.173 88.7863 317.616 88.1788 316.908 87.8262C316.759 87.7498 316.604 87.6877 316.444 87.6404C315.976 87.5595 315.497 87.5979 315.047 87.7521C314.597 87.9063 314.191 88.1717 313.864 88.525C313.2 89.2642 312.761 90.1866 312.6 91.1789C312.424 92.1546 312.318 93.1421 312.282 94.1336C312.14 95.9204 311.872 97.6943 311.482 99.4414C311.277 100.355 310.884 101.212 310.329 101.955C309.774 102.699 309.07 103.311 308.265 103.75L308.154 103.812C305.805 105.034 303.238 105.748 300.611 105.908V113.808L311.267 107.324C311.643 107.092 311.955 106.766 312.175 106.376C312.395 105.986 312.514 105.545 312.522 105.094C312.522 103.829 312.583 102.44 312.608 101.149C312.66 98.7072 312.703 96.6548 312.703 96.6548C313.208 97.2733 313.926 97.6664 314.707 97.7518C315.057 97.8016 315.412 97.7836 315.756 97.6987C316.263 97.5277 316.732 97.2542 317.136 96.8942C317.539 96.5341 317.868 96.0948 318.104 95.6021C318.568 94.6065 318.823 93.5213 318.852 92.4174C318.94 91.4391 318.811 90.4528 318.474 89.5335Z" fill="#FFA8A7"/>
<path opacity="0.2" d="M309.667 103.688C310.299 102.846 310.748 101.875 310.983 100.839C310.404 102.096 309.448 103.128 308.257 103.785L308.145 103.847C305.797 105.069 303.23 105.783 300.603 105.944V107.961C302.124 107.821 303.623 107.492 305.066 106.979C306.871 106.35 308.466 105.209 309.667 103.688Z" fill="black"/>
<path d="M313.778 77.4584C311.129 79.8823 306.898 80.9969 303.406 81.4481C299.875 81.8537 296.3 81.5533 292.88 80.5634C291.452 80.1742 289.93 79.608 289.113 78.343C288.656 77.5722 288.386 76.699 288.328 75.7979C288.27 74.8969 288.424 73.9947 288.778 73.1683C289.132 72.3419 289.675 71.6158 290.361 71.052C291.047 70.4881 291.855 70.1032 292.716 69.9301C296.053 69.302 299.244 71.9648 302.632 71.7613C304.09 71.5516 305.517 71.1564 306.881 70.5848C308.251 70.0189 309.768 69.9502 311.181 70.3901C311.762 70.647 312.282 71.0297 312.707 71.5121C313.131 71.9945 313.45 72.5653 313.64 73.1856C314.074 74.5686 314.121 76.0489 313.778 77.4584Z" fill="#263238"/>
<path d="M278.956 166.647L271.216 134.146C271.101 133.647 270.889 133.177 270.594 132.763C270.298 132.35 269.925 132.002 269.496 131.74L250.198 120.31C250.088 120.245 249.963 120.212 249.837 120.213C249.458 120.212 249.088 120.334 248.779 120.561C248.471 120.788 248.239 121.109 248.117 121.478C248.039 121.633 248.02 121.813 248.065 121.982L255.805 154.484C255.921 154.983 256.132 155.453 256.428 155.866C256.723 156.28 257.096 156.628 257.525 156.89L276.824 168.319C276.978 168.408 277.157 168.44 277.331 168.408C277.677 168.342 278.003 168.194 278.284 167.976C278.564 167.758 278.792 167.476 278.948 167.152V167.09C278.995 166.947 278.998 166.792 278.956 166.647Z" fill="#455A64"/>
<path opacity="0.3" d="M277.899 167.461L270.159 134.96C270.041 134.462 269.828 133.992 269.533 133.579C269.238 133.166 268.866 132.818 268.439 132.554L249.08 121.124C248.99 121.07 248.891 121.036 248.787 121.024C248.684 121.012 248.58 121.023 248.481 121.056C248.382 121.088 248.29 121.142 248.213 121.213C248.135 121.284 248.073 121.372 248.031 121.469C247.953 121.625 247.935 121.805 247.979 121.973L255.719 154.475C255.835 154.974 256.046 155.444 256.342 155.858C256.637 156.271 257.011 156.619 257.439 156.881L276.738 168.311C276.892 168.399 277.071 168.431 277.245 168.399C277.351 168.388 277.453 168.354 277.544 168.299C277.636 168.245 277.716 168.171 277.777 168.082C277.839 167.993 277.882 167.892 277.903 167.785C277.924 167.678 277.922 167.568 277.899 167.461Z" fill="#455A64"/>
<path d="M316.685 108.872C313.959 115.179 305.505 119.753 304.413 134.066C303.32 148.379 306.391 176.652 308.713 184.03C317.76 187.569 330.797 181.695 330.797 181.695C328.355 172.326 325.861 146.575 326.953 133.42C328.045 120.266 324.76 112.481 324.76 112.481L316.685 108.872Z" fill="#FF9356"/>
<path d="M314.44 124.211C314.824 123.903 315.075 123.453 315.14 122.956C315.204 122.46 315.076 121.958 314.784 121.557L312.651 118.718L316.951 117.833C317.204 117.786 317.444 117.685 317.656 117.538C317.869 117.39 318.049 117.199 318.187 116.977C318.324 116.754 318.415 116.504 318.454 116.244C318.493 115.983 318.479 115.717 318.413 115.462L316.736 108.88C314.01 115.188 305.556 119.761 304.464 134.075C304.352 135.552 304.284 137.153 304.258 138.825C306.158 134.8 310.054 127.573 314.44 124.211Z" fill="#FF9356"/>
<path opacity="0.2" d="M314.44 124.211C314.824 123.903 315.075 123.453 315.14 122.956C315.204 122.46 315.076 121.958 314.784 121.557L312.651 118.718L316.951 117.833C317.204 117.786 317.444 117.685 317.656 117.538C317.869 117.39 318.049 117.199 318.187 116.977C318.324 116.754 318.415 116.504 318.454 116.244C318.493 115.983 318.479 115.717 318.413 115.462L316.736 108.88C314.01 115.188 305.556 119.761 304.464 134.075C304.352 135.552 304.284 137.153 304.258 138.825C306.158 134.8 310.054 127.573 314.44 124.211Z" fill="white"/>
<path d="M299.106 108.164C298.073 109.327 297.146 110.586 296.337 111.924C292.467 118.311 290.265 124.981 288.537 149.866C287.591 161.109 290.627 177.918 290.627 177.918C288.52 177.679 283.42 171.469 283.42 171.469C284.727 158.756 280.943 136.234 283.42 124.441C285.897 112.649 292.811 108.934 292.811 108.934L299.106 108.164Z" fill="#FF9356"/>
<path d="M299.106 108.164L291.951 112.534C291.823 112.612 291.715 112.72 291.636 112.849C291.557 112.978 291.509 113.124 291.495 113.276C291.482 113.428 291.504 113.582 291.559 113.723C291.614 113.865 291.701 113.991 291.813 114.091L292.811 114.976L289.56 116.665C289.102 116.901 288.716 117.262 288.443 117.708C288.17 118.154 288.021 118.669 288.012 119.195C288.117 124.535 288.734 129.851 289.853 135.066C291.392 121.849 293.379 116.798 296.337 111.915C297.146 110.58 298.073 109.324 299.106 108.164Z" fill="#FF9356"/>
<path opacity="0.2" d="M299.106 108.164L291.951 112.534C291.823 112.612 291.715 112.72 291.636 112.849C291.557 112.978 291.509 113.124 291.495 113.276C291.482 113.428 291.504 113.582 291.559 113.723C291.614 113.865 291.701 113.991 291.813 114.091L292.811 114.976L289.56 116.665C289.102 116.901 288.716 117.262 288.443 117.708C288.17 118.154 288.021 118.669 288.012 119.195C288.117 124.535 288.734 129.851 289.853 135.066C291.392 121.849 293.379 116.798 296.337 111.915C297.146 110.58 298.073 109.324 299.106 108.164Z" fill="white"/>
<path d="M324.76 112.481C320.46 117.01 315.412 131.943 313.296 138.675L308.635 152.121C301.919 152.475 301.231 153.422 295.735 154.422C293.972 154.74 289.965 155.616 287.307 155.925C286.82 155.952 286.332 155.952 285.845 155.925C283.601 155.607 279.068 151.936 272.773 151.201C272.63 151.521 272.55 151.867 272.538 152.219C272.525 152.57 272.581 152.921 272.702 153.25C272.823 153.58 273.006 153.881 273.242 154.137C273.477 154.392 273.759 154.598 274.072 154.74L278.449 156.792C274.433 157.624 267.673 151.741 265.618 152.67C263.563 153.599 266.478 155.748 266.478 155.748C265.73 158.402 268.138 160.119 268.138 160.119C268.138 162.728 270.477 164.931 276.325 166.355C279.412 166.992 282.741 165.745 285.596 165.745H287.901L313.64 166.32C315.132 166.321 316.594 165.895 317.863 165.091C319.133 164.286 320.16 163.134 320.83 161.764C323.032 157.261 326.171 150.768 326.996 148.716C338.193 121.088 337.265 115.188 324.76 112.481Z" fill="#FFA8A7"/>
<path d="M289.767 159.862H286.344V155.66L289.767 155.227V159.862Z" fill="#37474F"/>
<path d="M289.767 166.241H286.344V162.03L289.767 161.596V166.241Z" fill="#37474F"/>
<path d="M291.581 162.003C291.581 160.455 289.999 159.208 288.055 159.208C286.112 159.208 284.538 160.455 284.538 162.003V162.888H284.744C285.096 163.465 285.585 163.941 286.165 164.271C286.745 164.601 287.397 164.775 288.06 164.775C288.722 164.775 289.374 164.601 289.954 164.271C290.534 163.941 291.023 163.465 291.375 162.888H291.581V162.003Z" fill="#263238"/>
<path d="M291.581 162.959C291.581 164.498 289.999 165.754 288.055 165.754C286.112 165.754 284.538 164.498 284.538 162.959C284.538 161.419 286.112 160.163 288.055 160.163C289.999 160.163 291.581 161.366 291.581 162.959Z" fill="#455A64"/>
<path d="M288.055 164.577C287.481 164.64 286.904 164.488 286.43 164.148C285.956 163.809 285.617 163.305 285.475 162.729C285.475 162.79 285.475 162.844 285.475 162.914C285.475 164.038 286.619 164.949 288.055 164.949C289.492 164.949 290.635 164.064 290.635 162.914C290.64 162.852 290.64 162.79 290.635 162.729C290.495 163.305 290.157 163.811 289.682 164.151C289.208 164.491 288.63 164.642 288.055 164.577Z" fill="#263238"/>
<path d="M288.055 164.577C288.381 164.452 288.667 164.237 288.883 163.956C289.099 163.675 289.236 163.338 289.279 162.983C289.322 162.628 289.27 162.267 289.129 161.94C288.987 161.613 288.761 161.332 288.476 161.127C288.19 160.923 287.856 160.802 287.508 160.779C287.161 160.756 286.814 160.831 286.505 160.996C286.196 161.16 285.937 161.409 285.756 161.714C285.574 162.02 285.477 162.371 285.475 162.729C285.615 163.306 285.954 163.811 286.428 164.151C286.903 164.491 287.481 164.642 288.055 164.577Z" fill="#37474F"/>
<path d="M324.76 112.481C315.231 122.628 311 142.107 311 142.107C309.065 148.079 308.36 151.14 308.36 151.14C308.36 151.14 303.974 151.741 300.353 152.643V166.541L312.531 166.921C314.561 166.986 316.566 166.442 318.301 165.355C320.035 164.268 321.425 162.685 322.3 160.8C324.579 155.899 327.46 149.583 328.484 147.283C328.484 147.283 333.154 137.233 334.822 128.776C337.092 115.913 332.388 114.003 324.76 112.481Z" fill="#FF9356"/>
<path opacity="0.2" d="M324.76 112.481C315.231 122.628 311 142.107 311 142.107C309.065 148.079 308.36 151.14 308.36 151.14C308.36 151.14 303.974 151.741 300.353 152.643V166.541L312.531 166.921C314.561 166.986 316.566 166.442 318.301 165.355C320.035 164.268 321.425 162.685 322.3 160.8C324.579 155.899 327.46 149.583 328.484 147.283C328.484 147.283 333.154 137.233 334.822 128.776C337.092 115.913 332.388 114.003 324.76 112.481Z" fill="white"/>
<path d="M295.735 154.422L297.12 154.148C299.614 159.278 297.705 165.931 297.705 165.931H296.69C296.798 166.486 297.085 166.987 297.505 167.353C297.925 167.72 298.453 167.929 299.003 167.948L301.884 168.036C302.43 168.051 302.965 167.878 303.404 167.545C303.843 167.212 304.162 166.737 304.309 166.196C305.47 162.012 304.679 157.35 303.845 154.227C303.587 153.283 302.983 152.479 302.16 151.984C301.337 151.489 300.359 151.342 299.433 151.573L298.427 151.821C297.79 151.978 297.205 152.307 296.732 152.773C296.259 153.24 295.915 153.827 295.735 154.475V154.422Z" fill="#FF9356"/>
<path opacity="0.4" d="M295.735 154.422L297.12 154.148C299.614 159.278 297.705 165.931 297.705 165.931H296.69C296.798 166.486 297.085 166.987 297.505 167.353C297.925 167.72 298.453 167.929 299.003 167.948L301.884 168.036C302.43 168.051 302.965 167.878 303.404 167.545C303.843 167.212 304.162 166.737 304.309 166.196C305.47 162.012 304.679 157.35 303.845 154.227C303.587 153.283 302.983 152.479 302.16 151.984C301.337 151.489 300.359 151.342 299.433 151.573L298.427 151.821C297.79 151.978 297.205 152.307 296.732 152.773C296.259 153.24 295.915 153.827 295.735 154.475V154.422Z" fill="white"/>
<path opacity="0.21" d="M317.149 152.343C316.437 150.844 315.328 149.583 313.95 148.705C312.571 147.827 310.979 147.368 309.358 147.38C308.635 149.875 308.343 151.14 308.343 151.14C311.329 150.83 314.345 151.242 317.149 152.343Z" fill="black"/>
</g>
<defs>
<clipPath id="clip0_946_2118">
<rect width="430" height="395" fill="white" transform="translate(10 2)"/>
</clipPath>
</defs>
</svg>
