<svg xmlns="http://www.w3.org/2000/svg" width="760.888" height="865.419" viewBox="0 0 760.888 865.419">
  <g id="Group_1193" data-name="Group 1193" transform="translate(-226.803 -56.48)">
    <rect id="Rectangle_234" data-name="Rectangle 234" width="307.11" height="56.901" rx="13.5" transform="translate(376.623 520.278)" fill="#fff" stroke="#11141c" stroke-miterlimit="10" stroke-width="2"/>
    <g id="Group_1145" data-name="Group 1145" transform="translate(445.217 525.085)">
      <rect id="Rectangle_235" data-name="Rectangle 235" width="23.644" height="47.288" transform="translate(204.22)" fill="#00ec66"/>
      <rect id="Rectangle_236" data-name="Rectangle 236" width="23.644" height="47.288" transform="translate(175.046)" fill="#00ec66"/>
      <rect id="Rectangle_237" data-name="Rectangle 237" width="23.644" height="47.288" transform="translate(145.872)" fill="#00ec66"/>
      <rect id="Rectangle_238" data-name="Rectangle 238" width="23.644" height="47.288" transform="translate(116.697)" fill="#00ec66"/>
      <rect id="Rectangle_239" data-name="Rectangle 239" width="23.644" height="47.288" transform="translate(87.523)" fill="#00ec66"/>
      <rect id="Rectangle_240" data-name="Rectangle 240" width="23.644" height="47.288" transform="translate(58.348)" fill="#00ec66"/>
      <rect id="Rectangle_241" data-name="Rectangle 241" width="23.644" height="47.288" transform="translate(29.174)" fill="#00ec66"/>
      <rect id="Rectangle_242" data-name="Rectangle 242" width="23.644" height="47.288" transform="translate(0)" fill="#00ec66"/>
    </g>
    <g id="Group_1189" data-name="Group 1189" transform="translate(434.037 80.099)">
      <g id="Group_1177" data-name="Group 1177" transform="translate(73.354)">
        <g id="Group_1176" data-name="Group 1176">
          <g id="Group_1150" data-name="Group 1150" transform="translate(0 336.861)">
            <g id="Group_1147" data-name="Group 1147" transform="translate(0)">
              <g id="Group_1146" data-name="Group 1146">
                <path id="Path_1771" data-name="Path 1771" d="M-6061.563,759.488s-198.329,155.445-206.1,168.4c-11.934,19.9-92.773,177.966-92.773,177.966L-6470.14,1067.1s71.779-133.192,112.087-188.274c29.033-39.676,181.167-152.779,181.167-152.779Z" transform="translate(6470.14 -726.049)" fill="#222831"/>
              </g>
            </g>
            <path id="Path_1772" data-name="Path 1772" d="M-6261.458,819.585c-24.767-37.525-153.41,69.369-153.41,69.369l88.806-126.553Z" transform="translate(6619.125 -728.919)"/>
            <g id="Group_1149" data-name="Group 1149" transform="translate(181.319)">
              <g id="Group_1148" data-name="Group 1148">
                <path id="Path_1773" data-name="Path 1773" d="M-6492.48,963.586c6.906,79.326,30.546,198.725,30.546,198.725l119.011,7.512s-50.351-215.491-44.783-229.459c51.947-45.31,183.989-102.343,130.5-208.754l-123.823-5.56s2.536,22.572,15.006,40.433l-92.312,98.575A127.967,127.967,0,0,0-6492.48,963.586Z" transform="translate(6492.96 -726.049)" fill="#222831"/>
              </g>
            </g>
          </g>
          <g id="Group_1175" data-name="Group 1175" transform="translate(113.908)">
            <g id="Group_1157" data-name="Group 1157" transform="translate(0)">
              <g id="Group_1155" data-name="Group 1155" transform="translate(0)">
                <g id="Group_1152" data-name="Group 1152" transform="translate(12.871 65.187)">
                  <g id="Group_1151" data-name="Group 1151">
                    <path id="Path_1774" data-name="Path 1774" d="M-6214.677,572.556c-20.664,4.073-96.325,18.315-119.063,7.162-36.2-17.754-73.343-92.533-82.431-111.289-3.96-8.173,60.984-44.5,65.83-36.082,3.266,5.676,37.068,83.117,42.64,87.772s61.929,15.28,96.564,19.6C-6178.15,543.832-6170.879,563.923-6214.677,572.556Z" transform="translate(6416.345 -431.091)" fill="#fec5a8"/>
                  </g>
                </g>
                <g id="Group_1154" data-name="Group 1154" transform="translate(0)">
                  <path id="Path_1775" data-name="Path 1775" d="M-6245.4,437.111c2.446,15.268,19.664,44.538,26.534,50s57.6-22.153,59.037-31.044-10.787-59.662-22.474-70.262S-6247.937,421.292-6245.4,437.111Z" transform="translate(6247.465 -362.206)" fill="#fec5a8"/>
                  <g id="Group_1153" data-name="Group 1153" transform="translate(0)">
                    <path id="Path_1776" data-name="Path 1776" d="M-6158.04,403.833c-3.077,7.593-10.265-.38-10.265-.38s7.58,13.97,1.381,20.571c-5.993,6.347-14.335-3.59-14.942-4.294.394.743,7.024,13.761.111,19.753-7.19,6.222-13.853-5.191-14.28-5.931.152.818,1.985,11.668-4.3,15.026-10.807,5.766-16.257-21.849-24.721-27.02,0,0-10.4,13.341-10.783,13.665,0,0-5.724-26.166,1.888-37.191a8.554,8.554,0,0,1,10.221-3.219s-2.778-8.233,2.516-13.122c2.724-2.5,9.151-.372,9.151-.372s-1.949-6.685,3.032-10.74c3.964-3.25,9.793-.606,9.793-.606s1.108-7.287,6.235-9.291C-6182.667,356.617-6151.466,387.568-6158.04,403.833Z" transform="translate(6237.904 -360.318)" fill="#fec5a8"/>
                  </g>
                </g>
              </g>
              <g id="Group_1156" data-name="Group 1156" transform="translate(22.437 87.884)">
                <path id="Path_1777" data-name="Path 1777" d="M-6360.218,455.734l-67.559,51.032s35.88,55.916,72.066,78.288c14.923,9.226,106.454,26.756,139.359,18.731s30.286-54.908-19.863-64.738-87.743-15.149-90.576-17.15S-6360.218,455.734-6360.218,455.734Z" transform="translate(6427.777 -455.734)" fill="#00ec66"/>
              </g>
            </g>
            <g id="Group_1160" data-name="Group 1160" transform="translate(176.606 169.066)">
              <path id="Path_1778" data-name="Path 1778" d="M-6493.16,713.624c2.313,2.9,125.653,7.578,126.827,7l.058-.03a2.022,2.022,0,0,0,.253-.142l12.078-59.951c-2.529-43.355-18.912-96.5-56.417-111.5a55.687,55.687,0,0,0-9.449-2.863c-9.842-2.061-31.74-4.171-38,.78-3.922,3.106-13.7,24.7-20.873,42.523C-6493.032,625.11-6495.171,711.076-6493.16,713.624Z" transform="translate(6493.804 -543.874)" fill="#00ec66"/>
              <g id="Group_1159" data-name="Group 1159" transform="translate(5.858 59.496)">
                <g id="Group_1158" data-name="Group 1158">
                  <path id="Path_1779" data-name="Path 1779" d="M-6365.979,610.573a2.735,2.735,0,0,0,2.029,3.293,2.736,2.736,0,0,0,3.294-2.029,2.736,2.736,0,0,0-2.03-3.293A2.736,2.736,0,0,0-6365.979,610.573Z" transform="translate(6376.917 -608.469)" fill="#00ec66"/>
                  <path id="Path_1780" data-name="Path 1780" d="M-6360.081,640.583a2.736,2.736,0,0,0,2.029,3.294,2.735,2.735,0,0,0,3.293-2.029,2.735,2.735,0,0,0-2.029-3.293A2.736,2.736,0,0,0-6360.081,640.583Z" transform="translate(6365.586 -610.838)" fill="#00ec66"/>
                  <path id="Path_1781" data-name="Path 1781" d="M-6354.183,670.594a2.736,2.736,0,0,0,2.028,3.294,2.733,2.733,0,0,0,3.292-2.029,2.733,2.733,0,0,0-2.028-3.293A2.734,2.734,0,0,0-6354.183,670.594Z" transform="translate(6354.257 -613.207)" fill="#00ec66"/>
                </g>
              </g>
            </g>
            <g id="Group_1161" data-name="Group 1161" transform="translate(208.997 136.19)">
              <path id="Path_1782" data-name="Path 1782" d="M-6420.1,560.042c8.174,3.921,25.847-6.017,34.023-15.415.556-.648,1.121-8.606,2.263-18.244.716-5.847,1.651-12.339,2.933-18.2l-38.726.9s.929,13.08-1.367,23.289a13.509,13.509,0,0,1-.778,2.351c-.037.108-.1.235-.141.387C-6423.635,539.512-6428,556.246-6420.1,560.042Z" transform="translate(6424.67 -508.18)" fill="#fec5a8"/>
            </g>
            <g id="Group_1162" data-name="Group 1162" transform="translate(195.532 64.941)">
              <path id="Path_1783" data-name="Path 1783" d="M-6368.718,459.8c1,13.919-14.465,49.936-25.634,56.2-16.193,9.084-38.422,5.224-45.06-13.261-6.433-17.919,14.548-64.5,26.625-69.754C-6395,425.248-6370.191,439.239-6368.718,459.8Z" transform="translate(6440.612 -430.824)" fill="#fec5a8"/>
            </g>
            <g id="Group_1165" data-name="Group 1165" transform="translate(203.508 97.665)">
              <g id="Group_1163" data-name="Group 1163" transform="translate(19.652 6.805)">
                <path id="Path_1784" data-name="Path 1784" d="M-6394.963,473.851c4.035,1.359,1.021,9.33-2.72,8.071C-6401.362,480.684-6398.347,472.712-6394.963,473.851Z" transform="translate(6399.366 -473.74)" fill="#222831"/>
              </g>
              <g id="Group_1164" data-name="Group 1164" transform="translate(0)">
                <path id="Path_1785" data-name="Path 1785" d="M-6373.033,466.62c-3.857-1.8-7.181,6.044-3.607,7.715C-6373.124,475.98-6369.8,468.132-6373.033,466.62Z" transform="translate(6378.166 -466.353)" fill="#222831"/>
              </g>
            </g>
            <g id="Group_1166" data-name="Group 1166" transform="translate(245.526 114.211)">
              <path id="Path_1786" data-name="Path 1786" d="M-6436.064,491.028s11.48-9.984,16.216-5.6-6,20.333-13.048,21.123a6.755,6.755,0,0,1-7.9-5.717Z" transform="translate(6440.798 -484.317)" fill="#fec5a8"/>
            </g>
            <g id="Group_1167" data-name="Group 1167" transform="translate(253.077 119.184)">
              <path id="Path_1787" data-name="Path 1787" d="M-6433.508,498.345l-1.727-1.138c.948-1.437,5.854-8.546,9.443-7.357l-.65,1.962C-6427.8,491.363-6431.191,494.828-6433.508,498.345Z" transform="translate(6435.235 -489.716)"/>
            </g>
            <g id="Group_1168" data-name="Group 1168" transform="translate(233.463 93.317)">
              <path id="Path_1788" data-name="Path 1788" d="M-6406.5,470.707c-2.744-6.965-8.352-7.009-8.407-7.008l-.013-2.067c.287,0,7.087.051,10.344,8.318Z" transform="translate(6414.918 -461.632)"/>
            </g>
            <g id="Group_1169" data-name="Group 1169" transform="translate(209.347 84.593)">
              <path id="Path_1789" data-name="Path 1789" d="M-6390.572,454.709l-.828-1.894c.265-.115,6.523-2.772,12.8,3.518l-1.464,1.461C-6385.31,452.536-6390.358,454.618-6390.572,454.709Z" transform="translate(6391.4 -452.16)"/>
            </g>
            <path id="Path_1790" data-name="Path 1790" d="M-6412.876,481.366s5.676,6.842,14.168,7.42a25.227,25.227,0,0,1,13.718,5.036s15.812,9.2,26.011,5.384l-9.754,29.465a28.257,28.257,0,0,1-35.48,18.02h0a28.257,28.257,0,0,1-18.237-35.578Z" transform="translate(6610.987 -369.873)" fill="#222831"/>
            <g id="Group_1170" data-name="Group 1170" transform="translate(211.09 125.998)">
              <path id="Path_1791" data-name="Path 1791" d="M-6391.631,498.265a13.641,13.641,0,0,0,4.111,5.552,6.151,6.151,0,0,0,3.526,1.231c2.788.047,3.522-2.316,3.618-4.487a14.681,14.681,0,0,0-.287-3.448A17.658,17.658,0,0,1-6391.631,498.265Z" transform="translate(6391.631 -497.114)"/>
              <path id="Path_1792" data-name="Path 1792" d="M-6391.618,504.1a6.155,6.155,0,0,0,3.526,1.231c2.788.047,3.522-2.316,3.619-4.487C-6387.335,500.35-6390.622,501.464-6391.618,504.1Z" transform="translate(6395.728 -497.4)" fill="#f392b9"/>
            </g>
            <path id="Path_1793" data-name="Path 1793" d="M-6421.746,416.586a33.977,33.977,0,0,1,5.6,1.55c7.827,2.963,12.445,9.991,9.148,18.117-2.564,6.32,3.419,12.6.369,18.557-2.106,4.113-7.946,5.862-12.15,6.516a15.39,15.39,0,0,1-9.229-1.233c-9.927-4.977-13.125-21.118-12.5-31.079.239-3.8,1.126-7.643,4.113-10.3C-6432.948,415.656-6426.916,415.608-6421.746,416.586Z" transform="translate(6673.191 -364.715)" fill="#222831"/>
            <path id="Path_1794" data-name="Path 1794" d="M-6442.711,444.383a32,32,0,0,1,5.261,1.457c7.358,2.786,11.7,9.394,8.6,17.034-2.412,5.943,3.214,11.849.347,17.448-1.981,3.868-7.472,5.512-11.424,6.127a14.474,14.474,0,0,1-8.677-1.16c-9.333-4.68-12.339-19.855-11.749-29.221.226-3.569,1.058-7.186,3.867-9.68C-6453.244,443.509-6447.572,443.463-6442.711,444.383Z" transform="translate(6713.387 -366.912)" fill="#222831"/>
            <path id="Path_1795" data-name="Path 1795" d="M-6452.626,415.226c4.848,15.481,11.5,22.586,20.61,24.737,6.187,1.459,13.489.628,22.138-1.43a31.481,31.481,0,0,1,6.972-.907,24.145,24.145,0,0,1,19.493,9.213h.018a3.35,3.35,0,0,0,.608.115c3.016-.491,5.258-.052,6.81,1.061l6.892-5.513c1.291-51.674-29.965-33.932-29.965-33.932l-6.856-14.7C-6428.333,352.885-6460.746,389.273-6452.626,415.226Z" transform="translate(6648.763 -361.509)" fill="#222831"/>
            <g id="Group_1171" data-name="Group 1171" transform="translate(198.969 92.177)">
              <path id="Path_1796" data-name="Path 1796" d="M-6368.617,474.724c1.965-5.936-.664-12.165-5.86-13.885s-11.022,1.71-12.988,7.647.665,12.164,5.86,13.885S-6370.582,480.66-6368.617,474.724Zm-1.963-.649c-1.606,4.854-6.262,7.695-10.375,6.333s-6.154-6.419-4.547-11.273,6.26-7.7,10.375-6.333S-6368.973,469.221-6370.58,474.075Z" transform="translate(6388.117 -460.395)"/>
            </g>
            <g id="Group_1172" data-name="Group 1172" transform="translate(218.538 98.655)">
              <path id="Path_1797" data-name="Path 1797" d="M-6389.865,481.757c1.966-5.936-.664-12.165-5.86-13.885s-11.021,1.709-12.986,7.646.664,12.165,5.86,13.885S-6391.829,487.693-6389.865,481.757Zm-1.962-.65c-1.606,4.854-6.261,7.7-10.375,6.333s-6.154-6.419-4.548-11.272,6.262-7.7,10.375-6.333S-6390.22,476.254-6391.827,481.107Z" transform="translate(6409.363 -467.428)"/>
            </g>
            <g id="Group_1173" data-name="Group 1173" transform="translate(216.735 105.741)">
              <rect id="Rectangle_243" data-name="Rectangle 243" width="2.945" height="2.067" transform="translate(2.795 2.888) rotate(-161.685)"/>
            </g>
            <g id="Group_1174" data-name="Group 1174" transform="translate(236.897 110.935)">
              <path id="Path_1798" data-name="Path 1798" d="M-6433.528,483.506l-.316-2.043c.644-.1,15.847-2.41,24.342,1.932l-.942,1.841C-6418.317,481.218-6433.376,483.483-6433.528,483.506Z" transform="translate(6433.845 -480.76)"/>
            </g>
          </g>
        </g>
      </g>
      <g id="Group_1179" data-name="Group 1179" transform="translate(270.825 167.29)">
        <g id="Group_1178" data-name="Group 1178" transform="translate(6.344 22.583)">
          <path id="Path_1799" data-name="Path 1799" d="M-6271.111,583.67c-34.252,54.816-89.932,95.74-101.888,99.967-28.935,10.231-80.055,25.863-103.186,28.942-8.553,1.138-9.855-65.1-.754-66.6,28.5-4.708,90.31-19.771,91.369-20.132,7.441-2.535,39.278-22.737,73.964-43.616C-6276.9,561.34-6256.694,560.6-6271.111,583.67Z" transform="translate(6483.204 -566.463)" fill="#fec5a8"/>
        </g>
        <path id="Rectangle_244" data-name="Rectangle 244" d="M55.519,0h0a55.519,55.519,0,0,1,55.519,55.519V238.508a0,0,0,0,1,0,0H0a0,0,0,0,1,0,0V55.519A55.519,55.519,0,0,1,55.519,0Z" transform="translate(227.919 0) rotate(72.863)" fill="#00ec66"/>
        <line id="Line_354" data-name="Line 354" x2="28.503" y2="91.611" transform="translate(13.872 73.437)" fill="none" stroke="#11141c" stroke-miterlimit="10" stroke-width="2"/>
        <line id="Line_355" data-name="Line 355" x1="22.713" y1="10.71" transform="translate(130.27 82.742)" fill="none" stroke="#11141c" stroke-miterlimit="10" stroke-width="2"/>
        <line id="Line_356" data-name="Line 356" x1="16.666" y1="6.292" transform="translate(122.348 88.943)" fill="none" stroke="#11141c" stroke-miterlimit="10" stroke-width="2"/>
      </g>
      <g id="Group_1181" data-name="Group 1181" transform="translate(0 602.702)">
        <path id="Path_1800" data-name="Path 1800" d="M-6153.062,1118.868a14.52,14.52,0,0,0-1.515,11,14.451,14.451,0,0,0,6.716,8.839l94.208,55.067a9.307,9.307,0,0,1,12.721-3.336,9.307,9.307,0,0,1,3.335,12.721l18.309,10.7,55.954-95.726-101.187-59.147s-26.807,61.092-71.9,53.293l-.016-.009a14.5,14.5,0,0,0-14.048,3.378A13.785,13.785,0,0,0-6153.062,1118.868Z" transform="translate(6155.047 -1018.172)" fill="#4682ff"/>
        <path id="Path_1801" data-name="Path 1801" d="M-6102.493,1123.724a14.521,14.521,0,0,0-1.515,11,14.45,14.45,0,0,0,6.716,8.84l94.208,55.067a9.306,9.306,0,0,1,12.721-3.336,9.306,9.306,0,0,1,3.335,12.721l18.31,10.7,9.376-16.04-140.575-82.17A13.8,13.8,0,0,0-6102.493,1123.724Z" transform="translate(6104.477 -1023.028)" fill="#222831"/>
        <g id="Group_1180" data-name="Group 1180" transform="translate(56.579 69.594)">
          <line id="Line_357" data-name="Line 357" x2="43.143" y2="25.218" transform="translate(15.573)" fill="none" stroke="#fff" stroke-miterlimit="10" stroke-width="2"/>
          <line id="Line_358" data-name="Line 358" x2="46.349" y2="27.092" transform="translate(7.786 5.962)" fill="none" stroke="#fff" stroke-miterlimit="10" stroke-width="2"/>
          <line id="Line_359" data-name="Line 359" x2="49.555" y2="28.966" transform="translate(0 11.924)" fill="none" stroke="#fff" stroke-miterlimit="10" stroke-width="2"/>
        </g>
        <rect id="Rectangle_245" data-name="Rectangle 245" width="117.205" height="47.277" transform="matrix(-0.863, -0.505, 0.505, -0.863, 191.712, 99.962)" fill="#b7ceff"/>
      </g>
      <g id="Group_1183" data-name="Group 1183" transform="translate(252.897 652.646)">
        <path id="Path_1802" data-name="Path 1802" d="M-6397.786,1250.345a14.533,14.533,0,0,0,6.5,9,14.45,14.45,0,0,0,10.962,1.758l106.172-25.192a9.306,9.306,0,0,1,6.9-11.194,9.306,9.306,0,0,1,11.194,6.9l20.634-4.9-25.6-107.884-114.04,27.059s22.778,62.706-15.233,88.193l-.019,0a14.5,14.5,0,0,0-7.831,12.141A13.8,13.8,0,0,0-6397.786,1250.345Z" transform="translate(6398.173 -1072.842)" fill="#4682ff"/>
        <path id="Path_1803" data-name="Path 1803" d="M-6397.786,1258.042a14.533,14.533,0,0,0,6.5,9,14.45,14.45,0,0,0,10.962,1.758l106.172-25.192a9.306,9.306,0,0,1,6.9-11.194,9.306,9.306,0,0,1,11.194,6.9l20.634-4.9-4.29-18.078-158.43,37.592A13.8,13.8,0,0,0-6397.786,1258.042Z" transform="translate(6398.173 -1080.539)" fill="#222831"/>
        <g id="Group_1182" data-name="Group 1182" transform="translate(26.649 95.026)">
          <line id="Line_360" data-name="Line 360" y1="11.537" x2="48.623" transform="translate(3.036)" fill="none" stroke="#fff" stroke-miterlimit="10" stroke-width="2"/>
          <line id="Line_361" data-name="Line 361" y1="12.394" x2="52.236" transform="translate(1.518 8.831)" fill="none" stroke="#fff" stroke-miterlimit="10" stroke-width="2"/>
          <line id="Line_362" data-name="Line 362" y1="13.252" x2="55.85" transform="translate(0 17.663)" fill="none" stroke="#fff" stroke-miterlimit="10" stroke-width="2"/>
        </g>
        <rect id="Rectangle_246" data-name="Rectangle 246" width="47.277" height="117.205" transform="matrix(-0.231, -0.973, 0.973, -0.231, 23.112, 73.058)" fill="#b7ceff"/>
      </g>
      <path id="Path_1804" data-name="Path 1804" d="M-6504.083,544.4l57.493,176.235.134.426.12-.568,12.077-59.951,8.7-43.167a38.708,38.708,0,0,0-9.577-33.986l-22.653-24.4Z" transform="translate(6937.987 -374.849)" fill="#00ec66"/>
      <path id="Path_1805" data-name="Path 1805" d="M-6451.537,760.481l-3.5,16.271a8.312,8.312,0,0,0,4.424,9.19l17.8,8.852" transform="translate(6901.009 -391.906)" fill="none" stroke="#000" stroke-miterlimit="10" stroke-width="2"/>
      <path id="Path_1806" data-name="Path 1806" d="M-6353.758,739.75l-2.666,19.787-8.05-4.7.6-18.11" transform="translate(6738.364 -390.031)" fill="none" stroke="#000" stroke-miterlimit="10" stroke-width="2"/>
      <line id="Line_363" data-name="Line 363" x1="25.701" y1="24.359" transform="translate(364.736 367.993)" fill="none" stroke="#000" stroke-miterlimit="10" stroke-width="2"/>
      <line id="Line_364" data-name="Line 364" x2="0.667" y2="13.789" transform="translate(378.559 367.987)" fill="none" stroke="#000" stroke-miterlimit="10" stroke-width="2"/>
      <path id="Path_1807" data-name="Path 1807" d="M-6226.407,885.322s-36.272,43.9-26.288,101.639" transform="translate(6509.66 -401.762)" fill="none" stroke="#000" stroke-miterlimit="10" stroke-width="2"/>
      <line id="Line_365" data-name="Line 365" x1="7.396" y2="30.245" transform="translate(233.231 470.105)" fill="none" stroke="#000" stroke-miterlimit="10" stroke-width="2"/>
      <line id="Line_366" data-name="Line 366" x2="19.862" y2="17.036" transform="translate(291.404 626.841)" fill="none" stroke="#000" stroke-miterlimit="10" stroke-width="2"/>
      <line id="Line_367" data-name="Line 367" x1="51.588" y2="41.772" transform="translate(225.709 100.055)" fill="none" stroke="#11141c" stroke-miterlimit="10" stroke-width="2"/>
      <line id="Line_368" data-name="Line 368" x1="17.5" y1="25.521" transform="translate(239.362 17.615)" fill="none" stroke="#ff8168" stroke-miterlimit="10" stroke-width="2"/>
      <line id="Line_369" data-name="Line 369" x1="21.635" y1="31.682" transform="translate(222.307 28.398)" fill="none" stroke="#ff8168" stroke-miterlimit="10" stroke-width="2"/>
      <line id="Line_370" data-name="Line 370" x1="20.275" y1="34.576" transform="translate(208.857 38.658)" fill="none" stroke="#ff8168" stroke-miterlimit="10" stroke-width="2"/>
      <g id="Group_1184" data-name="Group 1184" transform="translate(225.179 26.77)">
        <path id="Path_1808" data-name="Path 1808" d="M-6200.521,447.458s15.954-63.635-11.974-57.683c-8.3,1.768-40.269,18.937-36.944,25.423,4.293,8.378,18.975,3.7,27.725-.7,0,0-8.474,20.881,4.3,31.115C-6209.394,452.036-6200.521,447.458-6200.521,447.458Z" transform="translate(6249.68 -389.381)" fill="#fec5a8"/>
      </g>
      <path id="Path_1809" data-name="Path 1809" d="M-6242.466,416.655s-12.563,40.41,21.194,32.956" transform="translate(6495.61 -364.765)" fill="none" stroke="#ff8168" stroke-miterlimit="10" stroke-width="2"/>
      <path id="Path_1810" data-name="Path 1810" d="M-6191.639,420.154s-33.71,1.837-8.937-14.484" transform="translate(6433.658 -363.898)" fill="none" stroke="#ff8168" stroke-miterlimit="10" stroke-width="2"/>
      <path id="Path_1811" data-name="Path 1811" d="M-6200.612,437.634s-.526,6.038-3.909,8.351-8.192,1.047-10.507-2.334" transform="translate(6447.57 -366.421)" fill="none" stroke="#ff8168" stroke-miterlimit="10" stroke-width="2"/>
      <path id="Path_1812" data-name="Path 1812" d="M-6176.269,448.153s-.134,6.331-5.041,6.831-10.609-4.492-14.454-12.63" transform="translate(6405.483 -366.793)" fill="none" stroke="#ff8168" stroke-miterlimit="10" stroke-width="2"/>
      <path id="Path_1813" data-name="Path 1813" d="M-6237.932,403.122s22.677-15.543,32.1-13.648" transform="translate(6473.882 -362.607)" fill="none" stroke="#ff8168" stroke-miterlimit="10" stroke-width="2"/>
      <path id="Path_1814" data-name="Path 1814" d="M-6371.562,557.978s-18.958-7.91-90.94,20.9" transform="translate(6846.458 -375.842)" fill="none" stroke="#11141c" stroke-miterlimit="10" stroke-width="2"/>
      <path id="Path_1815" data-name="Path 1815" d="M-6509.29,695.339l80.7-24.847A60.462,60.462,0,0,0-6395.5,645.84a53.838,53.838,0,0,0,8.621-34.38" transform="translate(6904.669 -380.143)" fill="none" stroke="#11141c" stroke-miterlimit="10" stroke-width="2"/>
      <line id="Line_371" data-name="Line 371" x1="11.311" y2="11.949" transform="translate(470.351 319.727)" fill="none" stroke="#11141c" stroke-miterlimit="10" stroke-width="2"/>
      <line id="Line_372" data-name="Line 372" x1="68.261" y2="24.484" transform="translate(311.375 202.259)" fill="none" stroke="#11141c" stroke-miterlimit="10" stroke-width="2"/>
      <line id="Line_373" data-name="Line 373" x2="2.996" y2="24.531" transform="translate(287.907 175.166)" fill="none" stroke="#11141c" stroke-miterlimit="10" stroke-width="2"/>
      <g id="Group_1187" data-name="Group 1187" transform="translate(191.884 254.771)">
        <g id="Group_1185" data-name="Group 1185" transform="translate(0 0)">
          <rect id="Rectangle_247" data-name="Rectangle 247" width="20.545" height="440.452" transform="translate(207.141 500.248) rotate(160)" fill="#eee"/>
          <rect id="Rectangle_248" data-name="Rectangle 248" width="34.676" height="105.367" transform="matrix(-0.94, 0.342, -0.342, -0.94, 68.623, 99.013)" fill="#222831"/>
        </g>
        <path id="Path_1816" data-name="Path 1816" d="M-6518.5,1270h283.962l-12.28-46.667h-259.4Z" transform="translate(6569.13 -683.215)" fill="#222831"/>
        <g id="Group_1186" data-name="Group 1186" transform="translate(85.024 469.474)">
          <path id="Path_1817" data-name="Path 1817" d="M-6481.154,1236.48h215.167s-15.057-89.846-107.583-89.846S-6481.154,1236.48-6481.154,1236.48Z" transform="translate(6481.154 -1146.634)" fill="#222831"/>
          <path id="Path_1818" data-name="Path 1818" d="M-6430.715,1239.8h122.252s-8.555-51.049-61.125-51.049S-6430.715,1239.8-6430.715,1239.8Z" transform="translate(6477.173 -1149.959)" fill="#4682ff"/>
        </g>
      </g>
      <g id="Group_1188" data-name="Group 1188" transform="translate(190.258 258.715)">
        <path id="Path_1819" data-name="Path 1819" d="M-6258.184,659.728c-2.079,7.095,4.281,11.354,4.281,11.354s-4.521,3.795-5.09,9.437c-.651,6.462,9.2,10.317,9.2,10.317a19.447,19.447,0,0,0-3.783,10.81c0,6.248,9.381,11.555,9.381,11.555s-1.045,6.377,2.66,11.6c4.078,5.748,23.068,7.838,33.682,7.272s40.2-12.114,46.055-13.743l-5.068-60.794-2.668-8.729s-43.632-9.643-56.019-7.2C-6235.991,643.654-6255.849,651.765-6258.184,659.728Z" transform="translate(6259.023 -641.206)" fill="#fec5a8"/>
      </g>
      <path id="Path_1820" data-name="Path 1820" d="M-6194.521,673.34s21.8-1.731,32.691-3.52" transform="translate(6389.9 -384.75)" fill="none" stroke="#ff8168" stroke-miterlimit="10" stroke-width="2"/>
      <line id="Line_374" data-name="Line 374" y1="2.747" x2="33.56" transform="translate(199.485 305.598)" fill="none" stroke="#ff8168" stroke-miterlimit="10" stroke-width="2"/>
      <line id="Line_375" data-name="Line 375" y1="5.024" x2="32.348" transform="translate(205.082 325.685)" fill="none" stroke="#ff8168" stroke-miterlimit="10" stroke-width="2"/>
    </g>
    <path id="Path_1841" data-name="Path 1841" d="M823.428.161" transform="translate(164.263 921.739)" fill="none" stroke="#222831" stroke-width="2"/>
    <g id="freepik--gear-1--inject-92" transform="translate(376.625 57.48)">
      <path id="Path_1821" data-name="Path 1821" d="M-6071.174,540.666a123.9,123.9,0,0,0,4.422-18.557" transform="translate(6298.617 -378.093)" fill="#fff" stroke="#11141c" stroke-miterlimit="10" stroke-width="2"/>
      <path id="Path_1822" data-name="Path 1822" d="M-5854.912,388.423v-3.4a124.52,124.52,0,0,0-124.552-124.489,124.521,124.521,0,0,0-94.389,43.34" transform="translate(6088.253 -260.536)" fill="none" stroke="#11141c" stroke-miterlimit="10" stroke-width="2"/>
      <path id="Path_1823" data-name="Path 1823" d="M-5691.6,323.412l-3.219,26.612,24.652-10.5Z" transform="translate(5694.817 -288.794)" fill="none" stroke="#11141c" stroke-miterlimit="10" stroke-width="2"/>
    </g>
    <g id="freepik--gear-1--inject-92-2" data-name="freepik--gear-1--inject-92" transform="matrix(-0.899, -0.438, 0.438, -0.899, 418.186, 494.298)">
      <path id="Path_1824" data-name="Path 1824" d="M0,0A111.193,111.193,0,0,1,7.788,15.264" transform="translate(220.071 53.493)" fill="#fff" stroke="#11141c" stroke-miterlimit="10" stroke-width="2"/>
      <path id="Path_1825" data-name="Path 1825" d="M0,111.374A111.857,111.857,0,0,1,196.972,39.283l1.98,2.323" transform="translate(12.728)" fill="none" stroke="#11141c" stroke-miterlimit="10" stroke-width="2"/>
      <path id="Path_1826" data-name="Path 1826" d="M24.042,0,13.305,21.544,0,1.474Z" transform="translate(0 110.453)" fill="none" stroke="#11141c" stroke-miterlimit="10" stroke-width="2"/>
    </g>
    <path id="Path_1827" data-name="Path 1827" d="M-6014.41,401.792l-17.28-7.876,3.6-20.75,19.06-1.474a82.958,82.958,0,0,1,9.548-17.981l-9.834-16.6,14.906-14.906,16.722,9.944a82.937,82.937,0,0,1,32.007-13.072l4.818-19.114h21.074l4.855,19.222A83.333,83.333,0,0,1-5896,325.21l15.068-13.036,17.244,12.083-7.193,18.646a83.8,83.8,0,0,1,12.1,15.7l19.778-2.05,7.193,19.78-16.417,11.13a83.476,83.476,0,0,1,1.187,13.989,49.739,49.739,0,0,1-.234,5.916l17.28,9.638-5.394,20.355-19.564-.252a84.35,84.35,0,0,1-10.788,17.082l8.45,17.532-16.183,13.54-15.643-11.2a83.1,83.1,0,0,1-18.827,7.966l-3.146,18.862-20.984,1.8-6.33-17.855a82.83,82.83,0,0,1-20.193-4.388l-13.233,13.468-18.251-10.537,5.017-18.143a83.835,83.835,0,0,1-14.026-15.284l-18.539,3.416-8.991-19.078,14.547-12.011A82.922,82.922,0,0,1-6014.41,401.792Zm31.162-.36a52.6,52.6,0,0,0,52.6,52.6,52.6,52.6,0,0,0,52.6-52.6,52.6,52.6,0,0,0-52.6-52.6h0a52.6,52.6,0,0,0-52.6,52.6v0Z" transform="translate(6416.745 -220.776)" fill="#4682ff"/>
    <path id="Path_1828" data-name="Path 1828" d="M-5702.187,602.838l-16.018-7.3,3.334-19.234,17.667-1.367a76.838,76.838,0,0,1,8.85-16.666l-9.116-15.384,13.816-13.817,15.5,9.217a76.886,76.886,0,0,1,29.666-12.116l4.468-17.717h19.533l4.5,17.817a77.23,77.23,0,0,1,17.551,5.583l13.967-12.084,15.983,11.2-6.667,17.283a77.646,77.646,0,0,1,11.217,14.55l18.333-1.9,6.667,18.334-15.217,10.317a77.391,77.391,0,0,1,1.1,12.966,46.2,46.2,0,0,1-.216,5.483l16.016,8.934-5,18.867-18.134-.234a78.191,78.191,0,0,1-10,15.834l7.833,16.25-15,12.55-14.5-10.383a76.989,76.989,0,0,1-17.45,7.383l-2.917,17.484-19.45,1.666-5.867-16.55a76.746,76.746,0,0,1-18.716-4.067l-12.268,12.483-16.916-9.766,4.65-16.817a77.657,77.657,0,0,1-13-14.167l-17.184,3.167-8.334-17.684,13.483-11.133A76.891,76.891,0,0,1-5702.187,602.838Zm28.883-.334a48.75,48.75,0,0,0,48.75,48.75,48.75,48.75,0,0,0,48.75-48.75,48.75,48.75,0,0,0-48.75-48.75h0a48.75,48.75,0,0,0-48.75,48.75v0Z" transform="translate(5985.075 -276.643)" fill="#4682ff"/>
    <g id="Group_1190" data-name="Group 1190" transform="translate(462.205 148.774)">
      <path id="Path_1830" data-name="Path 1830" d="M-5887.589,451.426c1.74,14.782,11.245,17.545,12.837,21.435a66.432,66.432,0,0,1,1.988,7.56h15.456a65.762,65.762,0,0,1,1.974-7.56c1.58-3.948,11.083-6.682,12.794-21.479,1.125-9.709-6.2-25.047-22.546-25.032S-5888.671,441.7-5887.589,451.426Z" transform="translate(5887.694 -426.35)" fill="#0ed811"/>
      <rect id="Rectangle_249" data-name="Rectangle 249" width="1.009" height="25.003" transform="translate(26.963 55.137) rotate(-169.49)" fill="#fff"/>
      <rect id="Rectangle_250" data-name="Rectangle 250" width="25.003" height="1.009" transform="translate(18.354 55.171) rotate(-100.64)" fill="#fff"/>
      <path id="Path_1831" data-name="Path 1831" d="M-5853.156,488.555h0a4.694,4.694,0,0,0,3.6-2.924,1.859,1.859,0,0,0,1.3.687h0c2.354,0,3.29-4.825,3.319-5.03l-.5-.088c-.233,1.272-1.213,4.606-2.822,4.606h0a1.549,1.549,0,0,1-1.067-.658,10.789,10.789,0,0,0,1.141-4.386c0-1.374-.527-2.149-1.462-2.149h0a1.465,1.465,0,0,0-1.331.746c-.716,1.272-.174,3.758.731,5.351q.161.263.307.483c-.819,1.564-1.989,2.822-3.246,2.822h0c-1.126,0-2.135-1.038-2.925-2.413a6.346,6.346,0,0,0,1.462-4.152c0-1.754-.658-2.837-1.741-2.837h0c-.877,0-1.374.863-1.374,2.354a11.517,11.517,0,0,0,1.111,4.547,2.164,2.164,0,0,1-1.462.6h0c-1.462,0-2.617-3.349-2.924-4.65l-.482.146c.132.512,1.462,5,3.465,5h0a2.693,2.693,0,0,0,1.711-.644A4.02,4.02,0,0,0-5853.156,488.555Zm-3.143-9.387c.92,0,1.242,1.243,1.242,2.325a6.327,6.327,0,0,1-1.14,3.67,10.785,10.785,0,0,1-.965-4.152C-5857.163,480.454-5857.075,479.168-5856.3,479.168Zm6.725,0c.774,0,.936.907.936,1.652a9.972,9.972,0,0,1-.964,3.9l-.132-.2c-.834-1.462-1.33-3.787-.731-4.854A.95.95,0,0,1-5849.574,479.168Z" transform="translate(5875.792 -449.837)" fill="#fff"/>
      <rect id="Rectangle_251" data-name="Rectangle 251" width="19.066" height="4.641" transform="translate(13.016 53.222)" fill="#222831"/>
      <rect id="Rectangle_252" data-name="Rectangle 252" width="4.641" height="19.066" transform="translate(13.137 63.491) rotate(-90.075)" fill="#222831"/>
    </g>
    <g id="Group_1191" data-name="Group 1191" transform="translate(335.661 302.257)">
      <path id="Path_1832" data-name="Path 1832" d="M-5559.888,654.909l-12.9,17.07,6.8,5.123,12.535-16.537" transform="translate(5572.787 -625.826)" fill="#222831"/>
      <path id="Path_1833" data-name="Path 1833" d="M-5594.168,619.589a10.909,10.909,0,0,0-8.712,4.283,10.95,10.95,0,0,0-.268,13.028,11.42,11.42,0,0,0,2.287,2.377,10.864,10.864,0,0,0,6.667,2.268,10.915,10.915,0,0,0,8.716-4.288,10.907,10.907,0,0,0,2.182-8.114,10.9,10.9,0,0,0-4.2-7.279,10.864,10.864,0,0,0-6.676-2.275m0-7.475a18.373,18.373,0,0,1,11.233,3.824,18.452,18.452,0,0,1,3.384,25.875,18.425,18.425,0,0,1-14.643,7.208,18.368,18.368,0,0,1-11.215-3.811,18.949,18.949,0,0,1-3.833-3.978,18.476,18.476,0,0,1,.431-21.91,18.424,18.424,0,0,1,14.643-7.208Z" transform="translate(5622.139 -612.114)" fill="#00ec66"/>
    </g>
    <path id="Path_1834" data-name="Path 1834" d="M-5731,857" transform="translate(6193.515 -388.322)" fill="none" stroke="#0ed811" stroke-miterlimit="10" stroke-width="1"/>
  </g>
</svg>
