<svg width="50" height="50" viewBox="0 0 50 50" fill="none" xmlns="http://www.w3.org/2000/svg">
<path fill-rule="evenodd" clip-rule="evenodd" d="M25 49C38.2548 49 49 38.2548 49 25C49 11.7452 38.2548 1 25 1C11.7452 1 1 11.7452 1 25C1 38.2548 11.7452 49 25 49ZM25 50C38.8071 50 50 38.8071 50 25C50 11.1929 38.8071 0 25 0C11.1929 0 0 11.1929 0 25C0 38.8071 11.1929 50 25 50Z" fill="#F6F6F6"/>
<g clip-path="url(#clip0_82_625)">
<g filter="url(#filter0_dii_82_625)">
<path d="M19.62 25.79C21.06 28.62 23.38 30.93 26.21 32.38L28.41 30.18C28.68 29.91 29.08 29.82 29.43 29.94C30.55 30.31 31.76 30.51 33 30.51C33.55 30.51 34 30.96 34 31.51V35C34 35.55 33.55 36 33 36C23.61 36 16 28.39 16 19C16 18.45 16.45 18 17 18H20.5C21.05 18 21.5 18.45 21.5 19C21.5 20.25 21.7 21.45 22.07 22.57C22.18 22.92 22.1 23.31 21.82 23.59L19.62 25.79Z" fill="#F8F8F8"/>
</g>
</g>
<defs>
<filter id="filter0_dii_82_625" x="11.2" y="15.6" width="27.6" height="27.6" filterUnits="userSpaceOnUse" color-interpolation-filters="sRGB">
<feFlood flood-opacity="0" result="BackgroundImageFix"/>
<feColorMatrix in="SourceAlpha" type="matrix" values="0 0 0 0 0 0 0 0 0 0 0 0 0 0 0 0 0 0 127 0" result="hardAlpha"/>
<feOffset dy="2.4"/>
<feGaussianBlur stdDeviation="2.4"/>
<feColorMatrix type="matrix" values="0 0 0 0 0.2 0 0 0 0 0.2 0 0 0 0 0.2 0 0 0 0.2155 0"/>
<feBlend mode="normal" in2="BackgroundImageFix" result="effect1_dropShadow_82_625"/>
<feBlend mode="normal" in="SourceGraphic" in2="effect1_dropShadow_82_625" result="shape"/>
<feColorMatrix in="SourceAlpha" type="matrix" values="0 0 0 0 0 0 0 0 0 0 0 0 0 0 0 0 0 0 127 0" result="hardAlpha"/>
<feOffset dy="0.709333"/>
<feGaussianBlur stdDeviation="0.354667"/>
<feComposite in2="hardAlpha" operator="arithmetic" k2="-1" k3="1"/>
<feColorMatrix type="matrix" values="0 0 0 0 1 0 0 0 0 1 0 0 0 0 1 0 0 0 1 0"/>
<feBlend mode="normal" in2="shape" result="effect2_innerShadow_82_625"/>
<feColorMatrix in="SourceAlpha" type="matrix" values="0 0 0 0 0 0 0 0 0 0 0 0 0 0 0 0 0 0 127 0" result="hardAlpha"/>
<feOffset dy="-0.709333"/>
<feGaussianBlur stdDeviation="0.354667"/>
<feComposite in2="hardAlpha" operator="arithmetic" k2="-1" k3="1"/>
<feColorMatrix type="matrix" values="0 0 0 0 0.8175 0 0 0 0 0.8175 0 0 0 0 0.8175 0 0 0 1 0"/>
<feBlend mode="normal" in2="effect2_innerShadow_82_625" result="effect3_innerShadow_82_625"/>
</filter>
<clipPath id="clip0_82_625">
<rect width="24" height="24" fill="white" transform="translate(13 15)"/>
</clipPath>
</defs>
</svg>
