<svg width="442" height="517" viewBox="0 0 442 517" fill="none" xmlns="http://www.w3.org/2000/svg">
<path d="M222 516.919C343.451 516.919 441.907 460.387 441.907 390.651C441.907 320.915 343.451 264.382 222 264.382C100.548 264.382 2.0918 320.915 2.0918 390.651C2.0918 460.387 100.548 516.919 222 516.919Z" fill="#F5F5F5"/>
<path d="M313.512 470.265L149.36 374.464C147.916 373.623 146.716 372.412 145.882 370.954C145.048 369.496 144.609 367.841 144.609 366.156C144.609 364.472 145.048 362.817 145.882 361.359C146.716 359.9 147.916 358.69 149.36 357.849L165.553 347.527C168.348 345.9 171.517 345.044 174.743 345.044C177.969 345.044 181.138 345.9 183.933 347.527L348.108 443.34C349.552 444.181 350.752 445.391 351.585 446.85C352.419 448.308 352.858 449.963 352.858 451.647C352.858 453.332 352.419 454.987 351.585 456.445C350.752 457.904 349.552 459.114 348.108 459.955L331.915 470.265C329.118 471.901 325.945 472.762 322.714 472.762C319.482 472.762 316.309 471.901 313.512 470.265Z" fill="#E0E0E0"/>
<path d="M63.9196 382.924C83.5935 382.924 99.5423 373.667 99.5423 362.248C99.5423 350.829 83.5935 341.572 63.9196 341.572C44.2457 341.572 28.2969 350.829 28.2969 362.248C28.2969 373.667 44.2457 382.924 63.9196 382.924Z" fill="#E6E6E6"/>
<path d="M371.722 387.662L387.346 396.742C387.346 396.742 379.367 371.396 383.619 345.847C385.226 336.191 388.674 331.397 389.879 328.814C391.085 326.231 400.426 310.27 392.111 302.96C383.797 295.651 364.457 310.348 365.506 349.682C365.983 362.556 368.071 375.318 371.722 387.662Z" fill="#FF9356"/>
<path opacity="0.5" d="M371.722 387.662L387.346 396.742C387.346 396.742 379.367 371.396 383.619 345.847C385.226 336.191 388.674 331.397 389.879 328.814C391.085 326.231 400.426 310.27 392.111 302.96C383.797 295.651 364.457 310.348 365.506 349.682C365.983 362.556 368.071 375.318 371.722 387.662Z" fill="black"/>
<path d="M378.987 392.444C378.873 392.447 378.761 392.413 378.667 392.349C378.573 392.284 378.502 392.191 378.462 392.083C378.406 391.914 372.436 375.423 372.626 348.915C372.815 322.407 386.598 308.014 386.732 307.878C386.784 307.825 386.845 307.783 386.913 307.755C386.981 307.726 387.054 307.711 387.128 307.711C387.202 307.711 387.275 307.726 387.343 307.755C387.411 307.783 387.472 307.825 387.524 307.878C387.576 307.931 387.618 307.993 387.646 308.062C387.675 308.13 387.689 308.204 387.689 308.279C387.689 308.353 387.675 308.427 387.646 308.496C387.618 308.564 387.576 308.627 387.524 308.679C387.39 308.814 373.931 322.779 373.742 348.926C373.552 375.073 379.444 391.542 379.511 391.7C379.562 391.84 379.554 391.995 379.492 392.131C379.429 392.266 379.316 392.371 379.176 392.422C379.115 392.441 379.051 392.449 378.987 392.444Z" fill="white"/>
<path d="M378.238 391.542L399.598 403.95C401.824 405.28 404.464 405.713 406.991 405.163C409.519 404.613 411.749 403.121 413.236 400.983C414.65 398.76 415.246 396.105 414.921 393.482C413.894 382.27 409.073 379.687 414.977 374.69C420.881 369.693 422.421 369.343 422.086 364.538C421.751 359.732 418.503 357.634 416.963 355.739C415.423 353.844 411.16 349.874 414.062 344.008C416.963 338.142 420.925 332.469 414.921 329.874C411.339 328.318 405.368 330.393 401.44 334.702C397.512 339.011 394.275 342.113 390.514 343.151C386.753 344.188 378.919 344.358 379.254 350.911C379.589 357.465 381.307 359.71 379.767 362.631C376.866 368.091 364.244 371.193 378.238 391.542Z" fill="#FF9356"/>
<path d="M388.796 398.22C388.657 398.215 388.524 398.16 388.422 398.065C388.319 397.97 388.254 397.841 388.238 397.701C388.238 397.317 384.957 358.604 411.295 332.841C411.403 332.75 411.542 332.704 411.682 332.713C411.823 332.721 411.955 332.783 412.053 332.886C412.15 332.988 412.205 333.125 412.208 333.267C412.21 333.409 412.159 333.547 412.065 333.653C386.106 359.044 389.32 397.216 389.354 397.599C389.366 397.747 389.321 397.894 389.227 398.008C389.133 398.122 388.998 398.194 388.852 398.208L388.796 398.22Z" fill="white"/>
<path d="M393.027 364.899C392.886 364.899 392.75 364.846 392.647 364.75C392.544 364.653 392.48 364.521 392.469 364.38C392.235 361.38 391.399 358.459 390.012 355.796C388.624 353.134 386.715 350.784 384.4 348.892C384.34 348.849 384.288 348.795 384.249 348.732C384.209 348.669 384.183 348.599 384.17 348.526C384.158 348.452 384.16 348.377 384.176 348.304C384.193 348.232 384.223 348.163 384.266 348.103C384.307 348.042 384.36 347.99 384.421 347.951C384.483 347.911 384.551 347.884 384.623 347.871C384.695 347.859 384.768 347.861 384.839 347.877C384.91 347.894 384.977 347.924 385.036 347.967C387.503 349.945 389.537 352.419 391.008 355.232C392.48 358.046 393.357 361.138 393.585 364.312C393.597 364.463 393.55 364.613 393.454 364.729C393.358 364.845 393.22 364.918 393.071 364.932L393.027 364.899Z" fill="white"/>
<path d="M391.207 371.543C391.072 371.544 390.941 371.496 390.839 371.407C390.728 371.307 390.66 371.168 390.65 371.018C390.639 370.869 390.687 370.721 390.783 370.606C391.051 370.29 397.646 362.936 413.103 364.887C413.249 364.907 413.382 364.985 413.472 365.103C413.562 365.221 413.602 365.371 413.583 365.519C413.563 365.668 413.487 365.803 413.37 365.896C413.254 365.988 413.106 366.031 412.958 366.015C398.115 364.132 391.676 371.283 391.609 371.351C391.558 371.408 391.496 371.455 391.427 371.488C391.358 371.521 391.283 371.539 391.207 371.543Z" fill="white"/>
<path d="M308.512 458.816L164.147 374.566C153.958 368.621 145.699 352.671 145.699 338.943V26.4873C145.699 12.7595 153.958 6.454 164.147 12.3986L308.512 96.6489C318.702 102.593 326.96 118.543 326.96 132.271V444.727C326.96 458.444 318.702 464.76 308.512 458.816Z" fill="#455A64"/>
<path d="M325.142 86.824L180.765 2.57369C176.412 0.0356866 172.417 -0.257595 169.259 1.29905C168.872 1.49476 168.499 1.71713 168.143 1.96457L151.961 11.4736C155.22 9.49961 159.483 9.64625 164.159 12.376L308.525 96.6263C318.714 102.571 326.972 118.521 326.972 132.249V444.705C326.972 451.969 324.662 457.113 320.979 459.549L336.949 450.153C341.023 447.965 343.645 442.607 343.645 434.925V122.469C343.645 108.718 335.331 92.7686 325.142 86.824Z" fill="#040C2F"/>
<path d="M326.96 132.249V444.705C326.96 451.969 324.65 457.113 320.967 459.549L336.948 450.153C341.021 447.965 343.644 442.607 343.644 434.925V122.469L327.016 132.226L326.96 132.249Z" fill="#263238"/>
<path d="M343.587 146.71L326.959 156.41V163.991L343.587 154.278V146.71Z" fill="#040C2F"/>
<path d="M336.301 197.12C334.817 197.988 333.611 197.063 333.611 195.067V178.767C333.626 177.748 333.878 176.747 334.345 175.844C334.812 174.941 335.482 174.161 336.301 173.567C337.785 172.699 338.99 173.567 338.99 175.62V191.92C338.975 192.939 338.724 193.94 338.257 194.843C337.79 195.746 337.12 196.526 336.301 197.12Z" fill="#040C2F"/>
<path d="M333.6 195.112V178.767C333.615 177.748 333.866 176.747 334.333 175.844C334.801 174.941 335.471 174.161 336.29 173.567C336.535 173.394 336.82 173.289 337.117 173.261C337.415 173.233 337.714 173.284 337.986 173.409L335.966 172.36C335.69 172.226 335.383 172.168 335.078 172.191C334.772 172.215 334.478 172.32 334.225 172.496C333.405 173.09 332.734 173.869 332.265 174.772C331.796 175.675 331.543 176.676 331.524 177.696V193.984C331.483 194.395 331.545 194.811 331.705 195.192C331.865 195.572 332.117 195.906 332.44 196.161L334.549 197.289C334.213 197.045 333.948 196.714 333.781 196.331C333.614 195.948 333.552 195.527 333.6 195.112Z" fill="#455A64"/>
<path d="M336.301 236.566C334.817 237.435 333.611 236.566 333.611 234.513V218.213C333.627 217.195 333.879 216.194 334.346 215.291C334.813 214.388 335.482 213.608 336.301 213.013C337.785 212.145 338.99 213.013 338.99 215.078V231.366C338.977 232.385 338.727 233.387 338.26 234.29C337.792 235.194 337.121 235.973 336.301 236.566Z" fill="#040C2F"/>
<path d="M333.601 234.513V218.213C333.617 217.195 333.868 216.194 334.335 215.291C334.802 214.388 335.472 213.608 336.29 213.013C336.536 212.843 336.821 212.74 337.118 212.712C337.415 212.684 337.714 212.734 337.987 212.855L335.967 211.795C335.692 211.655 335.384 211.593 335.077 211.617C334.771 211.641 334.476 211.749 334.226 211.93C333.404 212.523 332.731 213.302 332.262 214.205C331.793 215.108 331.54 216.111 331.525 217.131V233.464C331.482 233.876 331.544 234.291 331.704 234.672C331.864 235.053 332.117 235.387 332.44 235.641L334.549 236.769C334.2 236.519 333.926 236.175 333.759 235.777C333.591 235.379 333.536 234.941 333.601 234.513Z" fill="#455A64"/>
<path d="M303.469 105.413L161.603 22.5957C161.011 22.2514 160.34 22.0696 159.657 22.0683C158.974 22.0671 158.302 22.2463 157.709 22.5884C157.115 22.9304 156.621 23.4234 156.274 24.0183C155.927 24.6131 155.741 25.2893 155.732 25.9797V338.943C155.732 349.389 163.065 362.214 172.015 367.437L310.399 448.235C311.055 448.617 311.799 448.817 312.556 448.817C313.314 448.816 314.057 448.614 314.713 448.232C315.369 447.849 315.913 447.299 316.292 446.636C316.671 445.973 316.871 445.222 316.872 444.456V128.91C316.927 120.292 310.879 109.722 303.469 105.413Z" fill="#FF9356"/>
<path opacity="0.9" d="M303.469 105.413L161.603 22.5957C161.011 22.2514 160.34 22.0696 159.657 22.0683C158.974 22.0671 158.302 22.2463 157.709 22.5884C157.115 22.9304 156.621 23.4234 156.274 24.0183C155.927 24.6131 155.741 25.2893 155.732 25.9797V338.943C155.732 349.389 163.065 362.214 172.015 367.437L310.399 448.235C311.055 448.617 311.799 448.817 312.556 448.817C313.314 448.816 314.057 448.614 314.713 448.232C315.369 447.849 315.913 447.299 316.292 446.636C316.671 445.973 316.871 445.222 316.872 444.456V128.91C316.927 120.292 310.879 109.722 303.469 105.413Z" fill="white"/>
<path d="M204.031 44.2195L206.23 53.5706L253.258 80.981L261.383 76.6043L204.031 44.2195Z" fill="#455A64"/>
<path d="M217.86 53.2547C217.86 54.8114 216.744 55.4318 215.449 54.6647C214.754 54.1984 214.177 53.5738 213.764 52.8411C213.352 52.1084 213.115 51.2881 213.072 50.446C213.072 48.9006 214.188 48.269 215.483 49.0473C216.178 49.5112 216.755 50.1337 217.168 50.8646C217.581 51.5954 217.818 52.4142 217.86 53.2547Z" fill="#263238"/>
<path d="M249.543 73.0511C249.286 73.049 249.033 72.9832 248.807 72.8594L224.791 59.3234C224.451 59.1221 224.204 58.7948 224.1 58.4113C223.997 58.0279 224.045 57.6187 224.236 57.2712C224.427 56.9237 224.745 56.6654 225.121 56.5514C225.498 56.4374 225.904 56.4769 226.252 56.6613L250.28 70.1973C250.572 70.3614 250.802 70.6189 250.933 70.9295C251.065 71.24 251.09 71.5859 251.006 71.9127C250.922 72.2395 250.732 72.5287 250.467 72.7348C250.203 72.9409 249.878 73.0522 249.543 73.0511Z" fill="#263238"/>
<path d="M185.485 87.7264C184.023 86.8691 182.963 87.6136 182.963 89.4974C182.963 90.4394 183.193 91.3668 183.633 92.1973C184.073 93.0277 184.709 93.7354 185.485 94.2575C185.9 94.5124 186.377 94.6472 186.863 94.6472C187.349 94.6472 187.826 94.5124 188.241 94.2575L190.574 98.5214C189.753 98.979 188.823 99.1971 187.887 99.1513C186.951 99.1054 186.046 98.7975 185.273 98.2619C183.378 97.0901 181.798 95.4643 180.673 93.5283C179.548 91.5923 178.912 89.4058 178.822 87.1624C178.822 82.9775 181.601 81.5224 185.429 83.7784C187.591 85.1854 189.361 87.1266 190.574 89.4184L188.241 91.2909C187.666 89.868 186.712 88.6341 185.485 87.7264Z" fill="#FF9356"/>
<path d="M203.999 101.86C203.999 106.079 201.176 107.5 197.303 105.244C195.354 104.067 193.723 102.421 192.555 100.453C191.387 98.4856 190.718 96.2565 190.607 93.9643C190.607 89.7455 193.431 88.3243 197.303 90.5803C199.257 91.7522 200.892 93.3966 202.061 95.3656C203.23 97.3346 203.896 99.5664 203.999 101.86ZM194.748 96.4797C194.767 97.4482 195.014 98.3982 195.468 99.2513C195.922 100.104 196.57 100.836 197.359 101.387C198.743 102.199 199.859 101.386 199.859 99.4689C199.855 98.5222 199.626 97.5904 199.191 96.7521C198.756 95.9137 198.128 95.1936 197.359 94.6523C195.953 93.8289 194.748 94.5283 194.748 96.4797Z" fill="#FF9356"/>
<path d="M208.496 97.3821L213.318 107.534V100.225L216.967 102.357V116.581L213.619 114.618L208.82 104.556V111.82L205.148 109.677V95.4194L208.496 97.3821Z" fill="#FF9356"/>
<path d="M228.896 109.282V113.005L225.414 110.974V121.487L221.385 119.13V108.617L217.926 106.598V102.887L228.896 109.282Z" fill="#FF9356"/>
<path d="M236.754 126.09L232.178 123.416L231.553 125.063L227.424 122.649L232.569 111.426L236.709 113.84L241.664 130.963L237.367 128.458L236.754 126.09ZM235.76 122.142L234.51 117.28L233.227 120.664L235.76 122.142Z" fill="#FF9356"/>
<path d="M248.059 124.24C246.597 123.394 245.537 124.127 245.537 126.022C245.539 126.964 245.77 127.89 246.21 128.72C246.65 129.551 247.285 130.259 248.059 130.782C248.477 131.035 248.956 131.168 249.443 131.168C249.93 131.168 250.408 131.035 250.827 130.782L253.159 135.046C252.335 135.498 251.404 135.713 250.467 135.668C249.53 135.622 248.624 135.317 247.847 134.787C245.951 133.614 244.37 131.986 243.244 130.048C242.119 128.11 241.485 125.921 241.396 123.676C241.396 119.491 244.186 118.036 248.003 120.292C250.162 121.706 251.935 123.645 253.159 125.932L250.827 127.793C250.239 126.378 249.282 125.15 248.059 124.24Z" fill="#FF9356"/>
<path d="M264.162 129.869V133.58L260.68 131.549V142.096L256.651 139.739V129.226L253.191 127.206V123.495L264.162 129.869Z" fill="#FF9356"/>
<path d="M276.071 147.33C277.064 147.905 277.823 147.454 277.823 146.044V137.843L281.863 140.19V148.39C281.863 152.169 279.631 153.297 276.06 151.233C274.339 150.267 272.893 148.871 271.859 147.178C270.826 145.486 270.239 143.553 270.156 141.566V133.365L274.196 135.723V143.923C274.212 144.602 274.391 145.267 274.717 145.861C275.044 146.454 275.509 146.959 276.071 147.33Z" fill="#FF9356"/>
<path d="M288.368 147.375C287.911 147.116 287.621 147.104 287.621 147.533C287.621 149.315 293.926 151.887 293.926 157.042C293.926 160.2 291.549 160.212 288.804 158.61C286.39 157.115 284.312 155.129 282.699 152.778L284.195 150.116C285.422 152.036 286.997 153.705 288.837 155.034C289.429 155.384 289.808 155.384 289.808 154.876C289.808 153.026 283.492 150.567 283.492 145.57C283.492 142.728 285.545 142.186 288.714 143.991C290.756 145.239 292.553 146.857 294.015 148.762L292.553 151.492C291.346 149.938 289.939 148.553 288.368 147.375Z" fill="#FF9356"/>
<path d="M165.184 157.82C169.712 152.199 171.992 145.067 171.572 137.83C171.153 130.594 168.066 123.779 162.92 118.73C157.774 113.681 150.942 110.765 143.774 110.557C136.605 110.349 129.619 112.865 124.195 117.607C118.771 122.349 115.302 128.974 114.474 136.174C113.645 143.374 115.515 150.627 119.717 156.502C123.919 162.376 130.146 166.445 137.171 167.907C144.195 169.369 151.507 168.116 157.662 164.397L171.635 170.533L165.184 157.82Z" fill="#FF9356"/>
<path opacity="0.4" d="M165.184 157.82C169.712 152.199 171.992 145.067 171.572 137.83C171.153 130.594 168.066 123.779 162.92 118.73C157.774 113.681 150.942 110.765 143.774 110.557C136.605 110.349 129.619 112.865 124.195 117.607C118.771 122.349 115.302 128.974 114.474 136.174C113.645 143.374 115.515 150.627 119.717 156.502C123.919 162.376 130.146 166.445 137.171 167.907C144.195 169.369 151.507 168.116 157.662 164.397L171.635 170.533L165.184 157.82Z" fill="black"/>
<path d="M132.329 137.968C132.329 137.528 132.016 137.279 131.447 137.279C130.127 137.454 128.894 138.042 127.921 138.96L126.336 135.847C128.004 134.578 130.019 133.861 132.106 133.794C134.784 133.794 136.815 135.215 136.815 137.336C136.815 138.847 135.699 140.303 134.271 141.758L132.273 143.754H136.994V147.071H126.849V144.352L131.369 139.626C131.856 139.191 132.192 138.61 132.329 137.968Z" fill="white"/>
<path d="M145.251 133.986L142.171 141.453H143.432V138.938H147.316V141.453H148.789V144.532H147.316V147.07H143.432V144.532H137.908V141.735L141.256 133.986H145.251Z" fill="white"/>
<path d="M160.774 140.562V147.071H156.623V141.769C156.647 141.596 156.634 141.42 156.585 141.253C156.536 141.086 156.452 140.932 156.339 140.8C156.225 140.669 156.086 140.563 155.929 140.491C155.772 140.419 155.601 140.381 155.429 140.381C154.614 140.381 154.101 141.024 154.101 142.017V147.071H149.949V133.241H154.101V138.329C154.426 137.81 154.878 137.385 155.414 137.096C155.95 136.808 156.551 136.665 157.159 136.682C157.656 136.669 158.151 136.762 158.61 136.955C159.07 137.149 159.484 137.438 159.825 137.805C160.166 138.171 160.427 138.606 160.591 139.081C160.754 139.556 160.817 140.061 160.774 140.562Z" fill="white"/>
<path d="M296.146 245.376V385.53C296.149 387.115 295.738 388.673 294.955 390.046C294.172 391.42 293.046 392.561 291.688 393.355C290.33 394.148 288.79 394.566 287.222 394.567C285.653 394.568 284.113 394.151 282.754 393.358L208.072 349.772L194.836 342.057C190.278 339.393 186.492 335.567 183.856 330.961C181.22 326.354 179.826 321.129 179.814 315.808V175.643C179.812 174.058 180.223 172.5 181.006 171.126C181.788 169.752 182.915 168.611 184.273 167.818C185.63 167.024 187.171 166.606 188.739 166.605C190.307 166.605 191.848 167.022 193.206 167.814L281.147 219.127C285.707 221.787 289.493 225.612 292.126 230.22C294.759 234.828 296.146 240.055 296.146 245.376Z" fill="#FF9356"/>
<path opacity="0.5" d="M296.146 245.376V385.53C296.149 387.115 295.738 388.673 294.955 390.046C294.172 391.42 293.046 392.561 291.688 393.355C290.33 394.148 288.79 394.566 287.222 394.567C285.653 394.568 284.113 394.151 282.754 393.358L208.072 349.772L194.836 342.057C190.278 339.393 186.492 335.567 183.856 330.961C181.22 326.354 179.826 321.129 179.814 315.808V175.643C179.812 174.058 180.223 172.5 181.006 171.126C181.788 169.752 182.915 168.611 184.273 167.818C185.63 167.024 187.171 166.606 188.739 166.605C190.307 166.605 191.848 167.022 193.206 167.814L281.147 219.127C285.707 221.787 289.493 225.612 292.126 230.22C294.759 234.828 296.146 240.055 296.146 245.376Z" fill="white"/>
<path d="M253.125 328.306C253.125 328.306 267.109 351.746 257.009 378.175L208.039 349.772L253.125 328.306Z" fill="#263238"/>
<path d="M275.426 222.993C276.484 214.306 270.374 206.396 261.78 205.327C253.185 204.257 245.359 210.432 244.301 219.119C243.243 227.806 249.352 235.716 257.947 236.786C266.542 237.856 274.367 231.68 275.426 222.993Z" fill="#263238"/>
<path d="M259.943 176.602C259.943 176.602 264.753 168.706 266.226 169.281C267.7 169.856 265.267 177.38 265.267 177.38C265.267 177.38 272.543 178.914 271.193 180.764C269.842 182.614 260.948 182.174 260.948 182.174L259.943 176.602Z" fill="#263238"/>
<path d="M263.291 196.951C259.943 222.376 238.739 222.376 238.739 222.376L194.322 202.613C194.322 202.613 190.975 199.647 189.948 192.833C189.554 190.043 189.554 187.209 189.948 184.419C189.948 184.419 189.948 184.362 189.948 184.34C191.365 173.646 199.278 162.152 216.509 158.621C220.285 157.851 224.129 157.473 227.981 157.493C229.845 157.487 231.707 157.581 233.561 157.775C246.953 159.106 256.339 165.423 260.814 175.248C261.82 177.465 262.569 179.793 263.046 182.185C263.954 187.057 264.037 192.05 263.291 196.951Z" fill="#263238"/>
<path d="M156.657 246.131C156.657 246.131 140.887 245.579 134.816 261.111C134.816 261.111 141.512 265.68 150.295 261.111C159.078 256.543 156.657 246.131 156.657 246.131Z" fill="#FF9356"/>
<path opacity="0.5" d="M156.657 246.131C156.657 246.131 140.887 245.579 134.816 261.111C134.816 261.111 141.512 265.68 150.295 261.111C159.078 256.543 156.657 246.131 156.657 246.131Z" fill="black"/>
<path d="M156.211 253.61C156.211 253.61 151.747 234.005 149.393 233.769C147.038 233.532 146.58 239.747 146.77 243.255L141.19 231.118C141.013 230.741 140.761 230.404 140.451 230.129C140.14 229.854 139.777 229.646 139.384 229.518C138.991 229.39 138.576 229.345 138.165 229.385C137.754 229.426 137.355 229.551 136.994 229.753C131.414 232.855 121.627 242.285 142.261 265.601L156.211 253.61Z" fill="#945959"/>
<path d="M213.35 240.052L210.002 239.612C206.628 239.159 203.196 239.623 200.058 240.955C196.92 242.288 194.189 244.44 192.146 247.192L172.226 273.993L156.602 246.131C156.602 246.131 154.727 265.082 134.762 261.111L156.2 297.58C157.557 299.888 159.445 301.832 161.705 303.244C163.964 304.657 166.528 305.497 169.177 305.693C171.827 305.889 174.484 305.435 176.923 304.37C179.362 303.305 181.51 301.66 183.185 299.576L201.532 276.779L213.35 240.052Z" fill="#FF9356"/>
<path d="M255.87 302.599C251.406 314.037 250.915 316.271 253.638 321.989C255.535 326.213 257.029 330.61 258.102 335.119C258.102 335.119 237.412 358.559 207.961 349.783L194.725 342.068C191.972 340.463 189.493 338.422 187.381 336.022L191.41 305.656C191.613 304.058 191.453 302.434 190.942 300.907L186.712 288.375C184.648 282.254 184.341 275.668 185.826 269.378C187.311 263.087 190.528 257.351 195.104 252.832L209.322 238.788L246.663 243.616L252.243 245.229C255.896 246.297 259.046 248.661 261.112 251.888C263.179 255.114 264.024 258.986 263.493 262.792C261.662 276.102 258.672 295.414 255.87 302.599Z" fill="#FF9356"/>
<path opacity="0.5" d="M255.87 302.599C251.406 314.037 250.915 316.271 253.638 321.989C255.535 326.213 257.029 330.61 258.102 335.119C258.102 335.119 237.412 358.559 207.961 349.783L194.725 342.068C191.972 340.463 189.493 338.422 187.381 336.022L191.41 305.656C191.613 304.058 191.453 302.434 190.942 300.907L186.712 288.375C184.648 282.254 184.341 275.668 185.826 269.378C187.311 263.087 190.528 257.351 195.104 252.832L209.322 238.788L246.663 243.616L252.243 245.229C255.896 246.297 259.046 248.661 261.112 251.888C263.179 255.114 264.024 258.986 263.493 262.792C261.662 276.102 258.672 295.414 255.87 302.599Z" fill="black"/>
<path d="M233.35 268.432L225.873 261.991C225.081 261.306 224.126 260.842 223.102 260.644C222.079 260.447 221.022 260.522 220.036 260.863L210.996 264.01L209.78 258.889C209.59 258.092 209.243 257.343 208.758 256.685C208.274 256.028 207.663 255.477 206.962 255.065C206.261 254.653 205.485 254.388 204.681 254.287C203.876 254.187 203.06 254.252 202.28 254.479L198.363 255.607L204.992 242.77C207.157 238.589 210.491 235.145 214.579 232.866L217.179 231.422L238.662 232.55C238.662 232.55 246.664 235.934 246.664 243.548L233.35 268.364" fill="#FF9356"/>
<path d="M238.752 242.172L217.213 259.137V205.117H238.752V242.172Z" fill="#945959"/>
<path d="M217.547 237.717L210.996 264.055L238.662 242.172L217.547 237.717Z" fill="#945959"/>
<path d="M217.212 233.802C222.002 232.005 226.38 229.242 230.08 225.682C233.781 222.122 236.727 217.839 238.74 213.092V205.117H217.201L217.212 233.802Z" fill="#703838"/>
<path d="M221.854 165.085C213.685 165.085 196.32 169.687 194.311 191.299C192.302 212.912 194.244 229.651 205.27 231.276C216.296 232.9 241.919 224.812 245.357 196.838C248.794 168.863 229.811 165.085 221.854 165.085Z" fill="#945959"/>
<path d="M208.997 200.447V213.183L201.609 210.893L208.997 200.447Z" fill="#703838"/>
<path d="M217.211 205.241C218.629 205.241 219.778 204.08 219.778 202.647C219.778 201.214 218.629 200.053 217.211 200.053C215.794 200.053 214.645 201.214 214.645 202.647C214.645 204.08 215.794 205.241 217.211 205.241Z" fill="#263238"/>
<path d="M202.882 200.842C202.879 201.355 202.727 201.855 202.444 202.281C202.16 202.706 201.759 203.036 201.289 203.231C200.82 203.426 200.304 203.476 199.807 203.374C199.31 203.273 198.854 203.025 198.496 202.661C198.138 202.298 197.895 201.836 197.797 201.333C197.698 200.83 197.75 200.309 197.944 199.836C198.139 199.362 198.468 198.958 198.89 198.673C199.312 198.388 199.808 198.237 200.315 198.237C200.653 198.237 200.988 198.304 201.3 198.435C201.612 198.566 201.895 198.758 202.134 199C202.372 199.243 202.561 199.53 202.689 199.846C202.818 200.162 202.883 200.501 202.882 200.842Z" fill="#263238"/>
<path d="M197.18 195.428L202.202 192.416C202.202 192.416 200.282 190.397 198.363 191.604C196.443 192.811 197.18 195.428 197.18 195.428Z" fill="#263238"/>
<path d="M205.527 218.349C207.973 218.529 210.407 217.869 212.435 216.476C212.435 216.476 212.915 220.165 209.857 220.864C206.8 221.564 205.527 218.349 205.527 218.349Z" fill="#703838"/>
<path d="M201.141 172.439C201.141 172.439 204.21 202.275 244.352 203.211C244.352 203.211 256.483 173.556 232.511 163.923C208.54 154.29 201.141 172.439 201.141 172.439Z" fill="#263238"/>
<path d="M256.172 198.744L251.24 195.857C249.365 194.729 246.776 194.886 243.908 196.556C238.216 199.872 233.596 207.96 233.596 214.604C233.596 217.931 234.712 220.244 236.631 221.372L241.475 224.192L241.754 224.35L241.921 224.451C243.751 225.354 246.195 225.139 248.885 223.571C254.576 220.187 259.197 212.167 259.197 205.523C259.163 202.162 258.014 199.838 256.172 198.744Z" fill="#FF9356"/>
<path d="M256.132 215.734C260.156 208.688 260.156 201.072 256.132 198.724C252.107 196.375 245.582 200.183 241.557 207.229C237.532 214.275 237.532 221.891 241.557 224.24C245.581 226.588 252.107 222.78 256.132 215.734Z" fill="#FF9356"/>
<path opacity="0.5" d="M256.132 215.734C260.156 208.688 260.156 201.072 256.132 198.724C252.107 196.375 245.582 200.183 241.557 207.229C237.532 214.275 237.532 221.891 241.557 224.24C245.581 226.588 252.107 222.78 256.132 215.734Z" fill="black"/>
<path d="M258.146 205.005L254.798 203.031C253.526 202.264 251.752 202.365 249.788 203.504C247.736 204.86 246.028 206.684 244.803 208.83C243.578 210.975 242.869 213.382 242.734 215.856C242.734 218.112 243.527 219.725 244.81 220.469L248.158 222.398C248.218 222.442 248.281 222.48 248.348 222.511L248.459 222.579C249.244 222.88 250.09 222.981 250.923 222.875C251.755 222.769 252.55 222.458 253.236 221.97C255.286 220.615 256.993 218.793 258.218 216.649C259.443 214.506 260.153 212.101 260.289 209.629C260.2 207.34 259.419 205.749 258.146 205.005Z" fill="#FF9356"/>
<path d="M260.199 209.607C260.063 212.079 259.354 214.483 258.128 216.627C256.903 218.77 255.197 220.593 253.146 221.947C249.24 224.203 246.082 222.376 246.082 217.83C246.214 215.356 246.923 212.949 248.151 210.804C249.379 208.66 251.09 206.839 253.146 205.49C257.041 203.211 260.199 205.05 260.199 209.607Z" fill="#FF9356"/>
<path opacity="0.3" d="M260.199 209.607C260.063 212.079 259.354 214.483 258.128 216.627C256.903 218.77 255.197 220.593 253.146 221.947C249.24 224.203 246.082 222.376 246.082 217.83C246.214 215.356 246.923 212.949 248.151 210.804C249.379 208.66 251.09 206.839 253.146 205.49C257.041 203.211 260.199 205.05 260.199 209.607Z" fill="black"/>
<path d="M240.849 159.264C237.65 156.766 233.732 155.392 229.689 155.35H228.696C224.603 155.305 220.515 155.683 216.498 156.478C217.235 156.478 217.971 156.478 218.73 156.478H216.498V158.576H218.574C225.728 158.822 232.507 161.87 237.478 167.076C242.449 172.281 245.223 179.237 245.213 186.472V195.349C245.212 195.7 245.285 196.047 245.426 196.368C245.567 196.688 245.773 196.975 246.031 197.211C246.289 197.446 246.592 197.623 246.922 197.732C247.253 197.841 247.602 197.878 247.947 197.842H248.204L250.436 197.142C250.287 197.19 250.133 197.22 249.978 197.233C250.643 197.141 251.252 196.806 251.689 196.29C252.125 195.774 252.358 195.114 252.344 194.435V186.201C252.322 171.3 245.949 163.291 240.849 159.264Z" fill="#FF9356"/>
<path d="M226.799 230.655C225.879 230.655 224.969 230.455 224.132 230.069L217.157 226.809C217.048 226.769 216.948 226.708 216.864 226.627C216.779 226.547 216.713 226.449 216.668 226.342C216.622 226.234 216.6 226.118 216.602 226C216.603 225.883 216.629 225.768 216.677 225.661C216.725 225.555 216.794 225.459 216.881 225.381C216.967 225.303 217.069 225.244 217.179 225.208C217.289 225.172 217.405 225.159 217.521 225.17C217.636 225.182 217.748 225.217 217.849 225.275L224.824 228.535C225.713 228.953 226.71 229.08 227.674 228.898C228.639 228.716 229.523 228.234 230.203 227.519L236.899 220.526C237.056 220.367 237.269 220.278 237.49 220.278C237.712 220.278 237.925 220.367 238.082 220.526C238.236 220.686 238.322 220.9 238.322 221.124C238.322 221.347 238.236 221.561 238.082 221.722L231.386 228.715C230.79 229.334 230.076 229.824 229.288 230.158C228.5 230.491 227.653 230.66 226.799 230.655Z" fill="#FF9356"/>
<path opacity="0.5" d="M226.799 230.655C225.879 230.655 224.969 230.455 224.132 230.069L217.157 226.809C217.048 226.769 216.948 226.708 216.864 226.627C216.779 226.547 216.713 226.449 216.668 226.342C216.622 226.234 216.6 226.118 216.602 226C216.603 225.883 216.629 225.768 216.677 225.661C216.725 225.555 216.794 225.459 216.881 225.381C216.967 225.303 217.069 225.244 217.179 225.208C217.289 225.172 217.405 225.159 217.521 225.17C217.636 225.182 217.748 225.217 217.849 225.275L224.824 228.535C225.713 228.953 226.71 229.08 227.674 228.898C228.639 228.716 229.523 228.234 230.203 227.519L236.899 220.526C237.056 220.367 237.269 220.278 237.49 220.278C237.712 220.278 237.925 220.367 238.082 220.526C238.236 220.686 238.322 220.9 238.322 221.124C238.322 221.347 238.236 221.561 238.082 221.722L231.386 228.715C230.79 229.334 230.076 229.824 229.288 230.158C228.5 230.491 227.653 230.66 226.799 230.655Z" fill="black"/>
<path d="M218.986 224.44C218.986 225.091 218.795 225.728 218.437 226.27C218.079 226.812 217.57 227.234 216.975 227.483C216.379 227.732 215.724 227.798 215.092 227.67C214.46 227.543 213.879 227.23 213.423 226.769C212.967 226.308 212.657 225.721 212.531 225.083C212.406 224.444 212.47 223.781 212.717 223.18C212.963 222.578 213.381 222.063 213.917 221.701C214.453 221.339 215.083 221.146 215.727 221.146C216.592 221.146 217.421 221.493 218.032 222.111C218.643 222.729 218.986 223.566 218.986 224.44Z" fill="#FF9356"/>
<path opacity="0.5" d="M218.986 224.44C218.986 225.091 218.795 225.728 218.437 226.27C218.079 226.812 217.57 227.234 216.975 227.483C216.379 227.732 215.724 227.798 215.092 227.67C214.46 227.543 213.879 227.23 213.423 226.769C212.967 226.308 212.657 225.721 212.531 225.083C212.406 224.444 212.47 223.781 212.717 223.18C212.963 222.578 213.381 222.063 213.917 221.701C214.453 221.339 215.083 221.146 215.727 221.146C216.592 221.146 217.421 221.493 218.032 222.111C218.643 222.729 218.986 223.566 218.986 224.44Z" fill="black"/>
<path d="M252.322 186.201V194.435C252.337 195.114 252.103 195.774 251.667 196.29C251.231 196.806 250.622 197.141 249.956 197.233C249.589 197.272 249.217 197.233 248.865 197.118C248.514 197.003 248.19 196.814 247.915 196.564C247.64 196.314 247.421 196.008 247.27 195.667C247.12 195.325 247.043 194.956 247.044 194.582V186.201C247.05 182.201 246.255 178.241 244.708 174.559C243.161 170.878 240.893 167.551 238.04 164.778C235.188 162.006 231.81 159.845 228.11 158.426C224.41 157.008 220.464 156.36 216.51 156.523C220.527 155.729 224.614 155.351 228.708 155.395H229.679C233.721 155.437 237.639 156.812 240.839 159.309C245.95 163.291 252.322 171.3 252.322 186.201Z" fill="#FF9356"/>
<path opacity="0.5" d="M252.322 186.201V194.435C252.337 195.114 252.103 195.774 251.667 196.29C251.231 196.806 250.622 197.141 249.956 197.233C249.589 197.272 249.217 197.233 248.865 197.118C248.514 197.003 248.19 196.814 247.915 196.564C247.64 196.314 247.421 196.008 247.27 195.667C247.12 195.325 247.043 194.956 247.044 194.582V186.201C247.05 182.201 246.255 178.241 244.708 174.559C243.161 170.878 240.893 167.551 238.04 164.778C235.188 162.006 231.81 159.845 228.11 158.426C224.41 157.008 220.464 156.36 216.51 156.523C220.527 155.729 224.614 155.351 228.708 155.395H229.679C233.721 155.437 237.639 156.812 240.839 159.309C245.95 163.291 252.322 171.3 252.322 186.201Z" fill="black"/>
<path d="M239.777 341.38C239.777 341.38 234.376 356.416 253.683 363.184C253.683 363.184 259.988 353.822 253.683 346.163C247.377 338.503 239.777 341.38 239.777 341.38Z" fill="#FF9356"/>
<path opacity="0.7" d="M239.777 341.38C239.777 341.38 234.376 356.416 253.683 363.184C253.683 363.184 259.988 353.822 253.683 346.163C247.377 338.503 239.777 341.38 239.777 341.38Z" fill="black"/>
<path d="M246.551 342.068C246.551 342.068 227.691 349.05 227.791 351.757C227.892 354.465 235.804 352.615 235.804 352.615L232.914 354.532C229.87 356.54 227.513 359.446 226.162 362.857C225.868 363.609 225.857 364.444 226.133 365.204C226.409 365.963 226.952 366.593 227.658 366.974L234.822 370.809C235.227 371.026 235.67 371.159 236.127 371.2C236.583 371.24 237.043 371.188 237.478 371.046C237.914 370.904 238.318 370.675 238.665 370.373C239.012 370.071 239.295 369.701 239.498 369.287C239.898 368.489 240.45 367.779 241.122 367.198C241.794 366.618 242.574 366.177 243.415 365.903C247.31 364.594 254.575 360.826 257.488 350.517L246.551 342.068Z" fill="#945959"/>
<path d="M252.21 245.206C252.21 245.206 242.166 250.846 247.5 267.97C252.835 285.093 262.845 311.657 262.845 311.657L239.777 341.38C242.242 341.68 244.616 342.503 246.745 343.793C248.873 345.084 250.709 346.814 252.131 348.87C253.494 350.961 254.346 353.349 254.615 355.838C254.885 358.327 254.565 360.845 253.683 363.184L282.319 325.96C284.968 322.52 286.726 318.467 287.435 314.168C288.144 309.868 287.782 305.458 286.382 301.336L274.106 265.104C272.605 260.679 270.111 256.664 266.82 253.374C263.529 250.085 259.529 247.61 255.134 246.143L252.21 245.206Z" fill="#FF9356"/>
<path d="M82.668 144.059L38.2847 118.115C37.774 117.757 37.183 117.533 36.5653 117.465C35.9476 117.396 35.3227 117.483 34.747 117.72C34.6257 117.777 34.5099 117.845 34.401 117.923L24.7476 123.642H24.8146C23.5982 124.341 22.8281 125.966 22.8281 128.289V178.192C22.8281 182.411 25.3614 187.318 28.4974 189.145L72.8807 215.089C73.4439 215.501 74.1142 215.736 74.8086 215.766C75.503 215.796 76.1908 215.62 76.7867 215.258C76.7566 215.27 76.7297 215.29 76.7086 215.314L86.295 209.674C87.545 208.998 88.3373 207.351 88.3373 204.993V155.012C88.3373 150.793 85.8486 145.886 82.668 144.059Z" fill="#040C2F"/>
<path d="M86.753 148.785C85.8551 146.855 84.4401 145.218 82.6685 144.059L38.2851 118.115C37.7744 117.757 37.1834 117.533 36.5657 117.465C35.948 117.396 35.3231 117.483 34.7474 117.72C34.6261 117.777 34.5103 117.845 34.4014 117.923L24.748 123.642C25.3386 123.337 26.0007 123.202 26.662 123.252C27.3234 123.301 27.9585 123.534 28.4978 123.924L72.8811 149.868C74.713 151.079 76.1649 152.793 77.0661 154.809L86.753 148.785Z" fill="#040C2F"/>
<path d="M78.5504 210.701C78.5504 212.957 77.8361 214.525 76.709 215.213L86.2954 209.573C87.5453 208.896 88.3377 207.249 88.3377 204.892V155.012C88.2905 152.84 87.7482 150.71 86.753 148.785L77.0661 154.809C77.9962 156.676 78.5032 158.73 78.5504 160.821V210.701Z" fill="#040C2F"/>
<path opacity="0.3" d="M86.753 148.785C85.8551 146.855 84.4401 145.218 82.6685 144.059L38.2851 118.115C37.7744 117.757 37.1834 117.533 36.5657 117.465C35.948 117.396 35.3231 117.483 34.7474 117.72C34.6261 117.777 34.5103 117.845 34.4014 117.923L24.748 123.642C25.3386 123.337 26.0007 123.202 26.662 123.252C27.3234 123.301 27.9585 123.534 28.4978 123.924L72.8811 149.868C74.713 151.079 76.1649 152.793 77.0661 154.809L86.753 148.785Z" fill="black"/>
<path opacity="0.6" d="M78.5504 210.701C78.5504 212.957 77.8361 214.525 76.709 215.213L86.2954 209.573C87.5453 208.896 88.3377 207.249 88.3377 204.892V155.012C88.2905 152.84 87.7482 150.71 86.753 148.785L77.0661 154.809C77.9962 156.676 78.5032 158.73 78.5504 160.821V210.701Z" fill="black"/>
<path d="M65.5388 175.113C65.5388 181.576 63.0055 183.776 59.2111 181.553C58.1644 180.951 57.2491 180.141 56.5203 179.172C55.7915 178.202 55.2642 177.094 54.9703 175.913C53.8543 177.301 52.1245 177.391 49.6916 175.97C45.6964 173.635 42.5492 168.074 42.5492 162.671C42.5492 157.268 45.6629 155.406 49.6916 157.753C51.736 158.97 53.3873 160.761 54.4458 162.908V160.776L58.6531 163.235V174.921C58.5905 175.536 58.6957 176.156 58.9574 176.715C59.219 177.274 59.6271 177.75 60.1374 178.09C61.5547 178.925 62.4252 177.515 62.4252 173.33C62.4252 166.01 57.7826 158.249 50.9192 154.245C44.0558 150.24 39.4244 153.026 39.4244 160.561C39.5144 164.56 40.6044 168.47 42.5929 171.927C44.5814 175.385 47.4036 178.278 50.7965 180.335C52.6387 181.482 54.7307 182.156 56.8898 182.298L57.8831 186.19C55.369 185.984 52.9396 185.176 50.7965 183.832C41.8685 178.609 35.9648 168.096 35.9648 158.576C35.9648 149.056 41.9243 145.604 50.9192 150.861C59.6129 155.925 65.5388 166.066 65.5388 175.113ZM54.5128 169.687C54.5345 168.257 54.1892 166.845 53.5105 165.59C52.8318 164.334 51.8429 163.278 50.6402 162.524C48.4082 161.204 46.8124 162.129 46.8124 165.197C46.7837 166.63 47.1208 168.046 47.7914 169.309C48.4619 170.571 49.4431 171.638 50.6402 172.405C52.8722 173.68 54.5128 172.857 54.5128 169.687Z" fill="#040C2F"/>
<g opacity="0.9">
<path d="M65.5388 175.113C65.5388 181.576 63.0055 183.776 59.2111 181.553C58.1644 180.951 57.2491 180.141 56.5203 179.172C55.7915 178.202 55.2642 177.094 54.9703 175.913C53.8543 177.301 52.1245 177.391 49.6916 175.97C45.6964 173.635 42.5492 168.074 42.5492 162.671C42.5492 157.268 45.6629 155.406 49.6916 157.753C51.736 158.97 53.3873 160.761 54.4458 162.908V160.776L58.6531 163.235V174.921C58.5905 175.536 58.6957 176.156 58.9574 176.715C59.219 177.274 59.6271 177.75 60.1374 178.09C61.5547 178.925 62.4252 177.515 62.4252 173.33C62.4252 166.01 57.7826 158.249 50.9192 154.245C44.0558 150.24 39.4244 153.026 39.4244 160.561C39.5144 164.56 40.6044 168.47 42.5929 171.927C44.5814 175.385 47.4036 178.278 50.7965 180.335C52.6387 181.482 54.7307 182.156 56.8898 182.298L57.8831 186.19C55.369 185.984 52.9396 185.176 50.7965 183.832C41.8685 178.609 35.9648 168.096 35.9648 158.576C35.9648 149.056 41.9243 145.604 50.9192 150.861C59.6129 155.925 65.5388 166.066 65.5388 175.113ZM54.5128 169.687C54.5345 168.257 54.1892 166.845 53.5105 165.59C52.8318 164.334 51.8429 163.278 50.6402 162.524C48.4082 161.204 46.8124 162.129 46.8124 165.197C46.7837 166.63 47.1208 168.046 47.7914 169.309C48.4619 170.571 49.4431 171.638 50.6402 172.405C52.8722 173.68 54.5128 172.857 54.5128 169.687Z" fill="white"/>
</g>
<path d="M82.668 232.923L38.2847 206.979C37.7747 206.619 37.183 206.395 36.5646 206.328C35.9461 206.261 35.3209 206.353 34.747 206.595C34.6257 206.652 34.5099 206.72 34.401 206.798L24.7476 212.517H24.8146C23.5982 213.216 22.8281 214.841 22.8281 217.153V267.033C22.8281 271.263 25.3614 276.159 28.4974 277.986L72.8807 303.93C73.4427 304.345 74.1134 304.582 74.8084 304.612C75.5034 304.642 76.1917 304.464 76.7867 304.099L76.7086 304.167L86.295 298.471C87.545 297.805 88.3373 296.215 88.3373 293.789V243.864C88.3373 239.645 85.8486 234.75 82.668 232.923Z" fill="#040C2F"/>
<path d="M86.753 237.649C85.8581 235.717 84.4425 234.079 82.6685 232.923L38.2851 206.979C37.7751 206.619 37.1834 206.395 36.565 206.328C35.9465 206.261 35.3213 206.353 34.7474 206.595C34.6261 206.652 34.5103 206.72 34.4014 206.798L24.748 212.517C25.3372 212.209 25.999 212.071 26.6606 212.119C27.3222 212.167 27.9579 212.398 28.4978 212.788L72.8811 238.732C74.7159 239.944 76.1683 241.663 77.0661 243.684L86.753 237.649Z" fill="#040C2F"/>
<path d="M78.5504 299.554C78.5504 301.81 77.8361 303.377 76.709 304.122L86.2954 298.426C87.5453 297.76 88.3377 296.17 88.3377 293.744V243.864C88.2904 241.697 87.7481 239.57 86.753 237.649L77.0661 243.672C77.996 245.536 78.503 247.586 78.5504 249.673V299.554Z" fill="#040C2F"/>
<path opacity="0.3" d="M86.753 237.649C85.8581 235.717 84.4425 234.079 82.6685 232.923L38.2851 206.979C37.7751 206.619 37.1834 206.395 36.565 206.328C35.9465 206.261 35.3213 206.353 34.7474 206.595C34.6261 206.652 34.5103 206.72 34.4014 206.798L24.748 212.517C25.3372 212.209 25.999 212.071 26.6606 212.119C27.3222 212.167 27.9579 212.398 28.4978 212.788L72.8811 238.732C74.7159 239.944 76.1683 241.663 77.0661 243.684L86.753 237.649Z" fill="black"/>
<path opacity="0.6" d="M78.5504 299.554C78.5504 301.81 77.8361 303.377 76.709 304.122L86.2954 298.426C87.5453 297.76 88.3377 296.17 88.3377 293.744V243.864C88.2904 241.697 87.7481 239.57 86.753 237.649L77.0661 243.672C77.996 245.536 78.503 247.586 78.5504 249.673V299.554Z" fill="black"/>
<path d="M45.7298 255.223L35.0273 237.649V261.461L45.7298 255.223Z" fill="#040C2F"/>
<path d="M55.6719 260.288L66.352 278.979V255.201L55.6719 260.288Z" fill="#040C2F"/>
<path d="M36.6445 236.848L47.6371 254.896C47.6837 254.936 47.7249 254.981 47.7599 255.031C47.7696 255.076 47.7696 255.122 47.7599 255.167L51.0298 260.536L53.7974 259.216C53.8405 259.169 53.8893 259.127 53.9425 259.092C54.0516 259.028 54.1737 258.989 54.2997 258.979L65.4597 253.689L36.6445 236.848Z" fill="#040C2F"/>
<path d="M54.053 261.055L51.0621 262.476C50.9469 262.53 50.8209 262.557 50.6938 262.555C50.5398 262.557 50.3879 262.518 50.253 262.443C50.118 262.368 50.0046 262.259 49.9238 262.126L46.6539 256.757L35.918 263.029L64.8112 279.881L54.053 261.055Z" fill="#040C2F"/>
<g opacity="0.9">
<path d="M45.7298 255.223L35.0273 237.649V261.461L45.7298 255.223Z" fill="white"/>
<path d="M55.6738 260.288L66.3539 278.979V255.201L55.6738 260.288Z" fill="white"/>
<path d="M36.6465 236.848L47.6391 254.896C47.6856 254.936 47.7269 254.981 47.7618 255.031C47.7715 255.076 47.7715 255.122 47.7618 255.167L51.0317 260.536L53.7994 259.216C53.8425 259.169 53.8912 259.127 53.9445 259.092C54.0536 259.028 54.1757 258.989 54.3016 258.979L65.4616 253.689L36.6465 236.848Z" fill="white"/>
<path d="M54.0549 261.055L51.064 262.476C50.9488 262.53 50.8229 262.557 50.6958 262.555C50.5417 262.557 50.3899 262.518 50.2549 262.443C50.12 262.368 50.0066 262.259 49.9257 262.126L46.6558 256.757L35.9199 263.029L64.8132 279.881L54.0549 261.055Z" fill="white"/>
</g>
<path d="M82.668 55.24L38.2847 29.296C37.7747 28.9362 37.183 28.7124 36.5646 28.6454C35.9461 28.5783 35.3209 28.6702 34.747 28.9125C34.6257 28.9691 34.5099 29.0371 34.401 29.1155L24.7476 34.8345H24.8146C23.5982 35.5226 22.8281 37.1582 22.8281 39.4706V89.3507C22.8281 93.5694 25.3614 98.4762 28.4974 100.304L72.8807 126.248C73.4427 126.662 74.1134 126.899 74.8084 126.929C75.5034 126.959 76.1917 126.781 76.7867 126.417L76.7086 126.473L86.295 120.833C87.545 120.168 88.3373 118.577 88.3373 116.152V66.1478C88.3373 61.929 85.8486 57.0222 82.668 55.24Z" fill="#040C2F"/>
<path d="M86.753 59.9325C85.8583 57.9971 84.4429 56.3554 82.6685 55.1949L38.2851 29.296C37.7751 28.9362 37.1834 28.7124 36.565 28.6454C35.9465 28.5783 35.3213 28.6702 34.7474 28.9125C34.6261 28.9691 34.5103 29.0371 34.4014 29.1155L24.748 34.8345C25.3372 34.5265 25.999 34.3889 26.6606 34.4366C27.3222 34.4844 27.9579 34.7158 28.4978 35.1052L72.8811 61.0492C74.7159 62.2614 76.1683 63.9799 77.0661 66.0011L86.753 59.9325Z" fill="#040C2F"/>
<path d="M78.5504 121.792C78.5504 124.048 77.8361 125.616 76.709 126.304L86.2954 120.664C87.5453 119.998 88.3377 118.408 88.3377 115.983V66.1478C88.2904 63.9803 87.7481 61.8531 86.753 59.9325L77.0661 65.956C77.996 67.82 78.503 69.87 78.5504 71.957V121.792Z" fill="#040C2F"/>
<path opacity="0.3" d="M86.753 59.9325C85.8583 57.9971 84.4429 56.3554 82.6685 55.1949L38.2851 29.296C37.7751 28.9362 37.1834 28.7124 36.565 28.6454C35.9465 28.5783 35.3213 28.6702 34.7474 28.9125C34.6261 28.9691 34.5103 29.0371 34.4014 29.1155L24.748 34.8345C25.3372 34.5265 25.999 34.3889 26.6606 34.4366C27.3222 34.4844 27.9579 34.7158 28.4978 35.1052L72.8811 61.0492C74.7159 62.2614 76.1683 63.9799 77.0661 66.0011L86.753 59.9325Z" fill="black"/>
<path opacity="0.6" d="M78.5504 121.792C78.5504 124.048 77.8361 125.616 76.709 126.304L86.2954 120.664C87.5453 119.998 88.3377 118.408 88.3377 115.983V66.1478C88.2904 63.9803 87.7481 61.8531 86.753 59.9325L77.0661 65.956C77.996 67.82 78.503 69.87 78.5504 71.957V121.792Z" fill="black"/>
<path d="M64.0295 100.36C62.322 97.5174 60.6034 94.72 58.8959 91.8549C58.6251 91.3122 58.2464 90.8318 57.7837 90.4436C57.3209 90.0555 56.784 89.7679 56.2063 89.5989C55.3805 89.4297 54.5546 89.2379 53.7065 88.9898C53.4044 88.8625 53.1503 88.6412 52.9811 88.3581C50.1871 83.5248 47.9658 78.3757 46.3632 73.0173C46.3291 72.9027 46.3194 72.7822 46.3348 72.6636C46.3502 72.545 46.3903 72.431 46.4525 72.3292C46.977 71.7991 47.5685 71.314 48.1042 70.8403C48.6398 70.3665 48.9188 69.2723 48.5282 67.8511C47.7024 64.8393 46.91 61.8275 46.0842 58.8271C45.9244 57.9745 45.5453 57.1795 44.985 56.5221C44.4247 55.8647 43.703 55.368 42.8924 55.0821C41.0928 54.5764 39.1822 54.6473 37.424 55.2851C36.7433 55.5446 36.3862 56.165 36.375 57.2366C36.6652 59.3008 36.8549 61.3425 37.2455 63.4406C39.9983 78.5708 46.6199 92.4828 57.1103 105.177C57.3842 105.597 57.7521 105.947 58.1844 106.198C58.6167 106.449 59.1012 106.594 59.599 106.62C61.3357 106.579 63.0043 105.929 64.3196 104.782C65.3129 103.879 65.2124 102.278 64.0295 100.36Z" fill="#040C2F"/>
<path d="M63.8961 84.9854C63.6626 81.7408 62.7779 78.5783 61.2958 75.6906C60.1893 73.4348 58.7811 71.3435 57.1108 69.4754C56.6756 68.979 56.3073 68.8211 56.0841 69.1934C55.8609 69.5656 56.0841 70.0958 56.5082 70.5808L56.9434 71.0884C60.028 74.6873 61.972 79.1398 62.5234 83.8686C62.518 84.2136 62.5517 84.558 62.6239 84.8951C62.764 85.2831 62.9891 85.6339 63.2823 85.9216C63.5166 86.0908 63.7845 85.9216 63.9742 85.9216C63.9073 85.4591 63.9184 85.2222 63.8961 84.9854Z" fill="#040C2F"/>
<path d="M53.7866 75.7245C55.188 77.2825 56.0396 79.2657 56.2083 81.3645C56.2818 81.6836 56.3982 81.991 56.5542 82.2782C57.235 82.8422 57.5698 82.6504 57.5698 81.9398C57.3312 79.2488 56.2301 76.7101 54.4338 74.7093C54.0098 74.2694 53.6638 74.134 53.4629 74.5062C53.3907 74.7188 53.3829 74.9483 53.4405 75.1654C53.4982 75.3824 53.6187 75.5771 53.7866 75.7245Z" fill="#040C2F"/>
<g opacity="0.9">
<path d="M64.0295 100.36C62.322 97.5174 60.6034 94.72 58.8959 91.8549C58.6251 91.3122 58.2464 90.8318 57.7837 90.4436C57.3209 90.0555 56.784 89.7679 56.2063 89.5989C55.3805 89.4297 54.5546 89.2379 53.7065 88.9898C53.4044 88.8625 53.1503 88.6412 52.9811 88.3581C50.1871 83.5248 47.9658 78.3757 46.3632 73.0173C46.3291 72.9027 46.3194 72.7822 46.3348 72.6636C46.3502 72.545 46.3903 72.431 46.4525 72.3292C46.977 71.7991 47.5685 71.314 48.1042 70.8403C48.6398 70.3665 48.9188 69.2723 48.5282 67.8511C47.7024 64.8393 46.91 61.8275 46.0842 58.8271C45.9244 57.9745 45.5453 57.1795 44.985 56.5221C44.4247 55.8647 43.703 55.368 42.8924 55.0821C41.0928 54.5764 39.1822 54.6473 37.424 55.2851C36.7433 55.5446 36.3862 56.165 36.375 57.2366C36.6652 59.3008 36.8549 61.3425 37.2455 63.4406C39.9983 78.5708 46.6199 92.4828 57.1103 105.177C57.3842 105.597 57.7521 105.947 58.1844 106.198C58.6167 106.449 59.1012 106.594 59.599 106.62C61.3357 106.579 63.0043 105.929 64.3196 104.782C65.3129 103.879 65.2124 102.278 64.0295 100.36Z" fill="white"/>
<path d="M63.8961 84.9854C63.6626 81.7408 62.7779 78.5783 61.2958 75.6906C60.1893 73.4348 58.7811 71.3435 57.1108 69.4754C56.6756 68.979 56.3073 68.8211 56.0841 69.1934C55.8609 69.5656 56.0841 70.0958 56.5082 70.5808L56.9434 71.0884C60.028 74.6873 61.972 79.1398 62.5234 83.8686C62.518 84.2136 62.5517 84.558 62.6239 84.8951C62.764 85.2831 62.9891 85.6339 63.2823 85.9216C63.5166 86.0908 63.7845 85.9216 63.9742 85.9216C63.9073 85.4591 63.9184 85.2222 63.8961 84.9854Z" fill="white"/>
<path d="M53.7846 75.7245C55.186 77.2825 56.0376 79.2657 56.2063 81.3645C56.2798 81.6836 56.3962 81.991 56.5523 82.2782C57.233 82.8422 57.5679 82.6504 57.5679 81.9398C57.3292 79.2488 56.2281 76.7101 54.4319 74.7093C54.0078 74.2694 53.6619 74.134 53.461 74.5063C53.3887 74.7188 53.3809 74.9483 53.4386 75.1654C53.4962 75.3824 53.6167 75.5771 53.7846 75.7245Z" fill="white"/>
</g>
<path d="M310.386 25.3254L320.843 31.3377V27.5927C320.843 27.3333 320.843 27.0626 320.843 26.8031C320.843 26.5437 320.843 26.2955 320.843 26.0474V25.912C321.223 20.9601 324.939 19.0538 329.47 21.7046C331.521 22.9798 333.279 24.6836 334.626 26.7016C335.642 19.9336 341.076 17.5422 347.65 21.3662C354.948 25.63 360.863 36.0302 360.863 44.5127V52.5215C360.853 53.1622 361.009 53.7943 361.317 54.3546C361.624 54.9149 362.072 55.3836 362.615 55.7138L368.776 59.3572C370.105 60.1539 371.207 61.2859 371.974 62.6423C372.741 63.9987 373.146 65.5331 373.15 67.0953C373.15 67.7434 372.982 68.3801 372.661 68.9414C372.34 69.5026 371.879 69.9685 371.323 70.2921C370.768 70.6158 370.138 70.7858 369.496 70.785C368.855 70.7842 368.225 70.6126 367.671 70.2875L310.543 36.91C309.027 36.0204 307.768 34.7454 306.891 33.2118C306.014 31.6783 305.549 29.9394 305.543 28.168C305.542 27.5946 305.691 27.0312 305.974 26.5341C306.257 26.0371 306.664 25.6239 307.154 25.336C307.645 25.0481 308.202 24.8955 308.769 24.8937C309.336 24.8918 309.894 25.0407 310.386 25.3254Z" fill="#E6E6E6"/>
<path d="M390.103 23.7575L397.703 28.168V25.4157C397.703 25.2239 397.703 25.0322 397.703 24.8404C397.703 24.6486 397.703 24.4682 397.703 24.2877V24.22C397.982 20.6217 400.683 19.2342 403.975 21.1631C405.466 22.0864 406.744 23.3209 407.725 24.784C408.473 19.8885 412.423 18.1175 417.2 20.9037C422.512 24.0057 426.809 31.5407 426.809 37.7334V43.5652C426.813 44.0224 426.934 44.4706 427.161 44.8661C427.388 45.2616 427.712 45.5907 428.103 45.8212L432.567 48.472C433.538 49.0494 434.343 49.8739 434.901 50.8634C435.459 51.853 435.751 52.973 435.748 54.112C435.747 54.5785 435.626 55.0368 435.397 55.4416C435.167 55.8465 434.838 56.1839 434.44 56.4208C434.042 56.6576 433.591 56.7856 433.129 56.7922C432.668 56.7987 432.212 56.6837 431.808 56.4582L390.215 32.1837C389.113 31.5392 388.198 30.6133 387.561 29.4987C386.924 28.3841 386.589 27.12 386.588 25.833C386.587 25.4165 386.694 25.0071 386.899 24.6456C387.104 24.2841 387.399 23.9833 387.755 23.7733C388.111 23.5632 388.515 23.4511 388.927 23.4484C389.339 23.4456 389.745 23.5522 390.103 23.7575Z" fill="#E6E6E6"/>
</svg>
