<svg width="1440" height="160" viewBox="0 0 1440 160" fill="none" xmlns="http://www.w3.org/2000/svg">
<g clip-path="url(#clip0_576_2074)">
<rect width="1440" height="160" transform="matrix(-1 0 0 -1 1440 160)" fill="white"/>
<path d="M1440 64L1392 69.3C1344 75 1248 85 1152 82.7C1056 80 960 64 864 53.3C768 43 672 37 576 53.3C480 69 384 107 288 114.7C192 123 96 101 0 82.7C-96 64 -192 48 -288 48C-384 48 -480 64 -576 77.3C-672 91 -768 101 -864 104C-960 107 -1056 101 -1152 85.3C-1248 69 -1344 43 -1440 50.7C-1536 59 -1632 101 -1728 106.7C-1824 112 -1920 80 -2016 77.3C-2112 75 -2208 101 -2304 117.3C-2400 133 -2496 139 -2592 133.3C-2688 128 -2784 112 -2880 104C-2976 96 -3072 96 -3168 104C-3264 112 -3360 128 -3456 136C-3552 144 -3648 144 -3744 125.3C-3840 107 -3936 69 -4032 58.7C-4128 48 -4224 64 -4320 85.3C-4416 107 -4512 133 -4608 125.3C-4704 117 -4800 75 -4896 72C-4992 69 -5088 107 -5184 128C-5280 149 -5376 155 -5424 157.3L-5472 160V0H-5424C-5376 0 -5280 0 -5184 0C-5088 0 -4992 0 -4896 0C-4800 0 -4704 0 -4608 0C-4512 0 -4416 0 -4320 0C-4224 0 -4128 0 -4032 0C-3936 0 -3840 0 -3744 0C-3648 0 -3552 0 -3456 0C-3360 0 -3264 0 -3168 0C-3072 0 -2976 0 -2880 0C-2784 0 -2688 0 -2592 0C-2496 0 -2400 0 -2304 0C-2208 0 -2112 0 -2016 0C-1920 0 -1824 0 -1728 0C-1632 0 -1536 0 -1440 0C-1344 0 -1248 0 -1152 0C-1056 0 -960 0 -864 0C-768 0 -672 0 -576 0C-480 0 -384 0 -288 0C-192 0 -96 0 0 0C96 0 192 0 288 0C384 0 480 0 576 0C672 0 768 0 864 0C960 0 1056 0 1152 0C1248 0 1344 0 1392 0H1440V64Z" fill="url(#paint0_linear_576_2074)"/>
</g>
<defs>
<linearGradient id="paint0_linear_576_2074" x1="1440" y1="0" x2="1440" y2="160" gradientUnits="userSpaceOnUse">
<stop stop-color="#080403"/>
<stop offset="1" stop-color="#080403"/>
</linearGradient>
<clipPath id="clip0_576_2074">
<rect width="1440" height="160" fill="white" transform="matrix(-1 0 0 -1 1440 160)"/>
</clipPath>
</defs>
</svg>
