<svg width="435" height="414" viewBox="0 0 435 414" fill="none" xmlns="http://www.w3.org/2000/svg">
<path d="M354.138 81.8813C387.493 128.452 403.226 183.833 399.45 247.396C395.674 311.588 371.759 384.591 325.189 405.988C277.989 427.386 207.503 396.548 140.794 363.194C74.0844 329.21 9.89235 292.708 1.08168 245.508C-7.729 198.937 38.8417 141.668 84.1538 92.58C130.095 43.4919 175.407 1.95586 223.237 0.0678595C271.066 -1.82014 320.783 35.9399 354.138 81.8813Z" fill="white"/>
<path d="M26.9033 346.004L77.857 345.775L128.811 345.689L230.727 345.526L332.644 345.689L383.598 345.765L434.551 346.004L383.598 346.233L332.644 346.319L230.727 346.481L128.811 346.319L77.857 346.233L26.9033 346.004Z" fill="#263238"/>
<path d="M380.601 40.2913H80.8638V229.969H380.601V40.2913Z" fill="#C1C1C1"/>
<path d="M373.308 47.5745H88.1372V222.686H373.308V47.5745Z" fill="white"/>
<path d="M160.492 47.5745H157.161V222.686H160.492V47.5745Z" fill="#EBEBEB"/>
<path d="M232.388 47.5745H229.057V222.686H232.388V47.5745Z" fill="#C1C1C1"/>
<path d="M373.317 70.4168V67.0854L88.1469 67.0854V70.4168L373.317 70.4168Z" fill="#C1C1C1"/>
<path d="M304.294 47.5745H300.963V222.686H304.294V47.5745Z" fill="#EBEBEB"/>
<path d="M176.318 208.091H191.591C191.794 206.828 191.906 205.552 191.925 204.273V188.828H172.672V204.454C172.672 206.01 176.318 208.091 176.318 208.091Z" fill="#455A64"/>
<path d="M172.672 204.444C172.672 205.962 176.07 207.948 176.28 208.072C175.717 207.69 175.812 204.674 175.812 204.674C174.774 204.51 173.723 204.433 172.672 204.444Z" fill="#37474F"/>
<path d="M175.507 193.372C177.769 193.19 180.041 193.143 182.303 193.133C184.565 193.123 186.837 193.19 189.1 193.372C186.837 193.563 184.565 193.601 182.303 193.61C180.041 193.62 177.769 193.563 175.507 193.372Z" fill="white"/>
<path d="M175.507 195.911C177.292 195.73 179.077 195.682 180.852 195.672C182.628 195.663 184.422 195.73 186.198 195.911C184.421 196.086 182.637 196.166 180.852 196.15C179.068 196.16 177.283 196.081 175.507 195.911Z" fill="white"/>
<path d="M175.507 198.45C177.292 198.269 179.077 198.221 180.852 198.211C182.628 198.202 184.422 198.269 186.198 198.45C184.421 198.625 182.637 198.705 180.852 198.689C179.068 198.699 177.283 198.62 175.507 198.45Z" fill="white"/>
<path d="M334.343 77.824H315.081V97.0867H334.343V77.824Z" fill="#37474F"/>
<path d="M317.916 82.0908C320.178 81.9095 322.44 81.8617 324.712 81.8522C326.984 81.8427 329.236 81.9095 331.508 82.0908C329.236 82.2817 326.974 82.3199 324.712 82.3295C322.45 82.339 320.178 82.234 317.916 82.0908Z" fill="white"/>
<path d="M317.916 84.5822C320.17 84.264 322.458 84.264 324.712 84.5822C322.458 84.9004 320.17 84.9004 317.916 84.5822Z" fill="white"/>
<path d="M317.916 87.1214C319.701 86.94 321.476 86.8923 323.261 86.8827C325.046 86.8732 326.821 86.94 328.606 87.1214C325.05 87.4395 321.472 87.4395 317.916 87.1214Z" fill="white"/>
<path d="M317.916 89.6604C320.178 89.4791 322.44 89.4313 324.712 89.4218C326.984 89.4122 329.236 89.4791 331.508 89.6604C329.236 89.8513 326.974 89.8895 324.712 89.8991C322.45 89.9086 320.178 89.8513 317.916 89.6604Z" fill="white"/>
<path d="M317.915 92.1995C319.653 92.0181 321.399 91.9704 323.137 91.9608C324.874 91.9513 326.621 92.0181 328.368 92.1995C324.875 92.5206 321.36 92.5206 317.868 92.1995H317.915Z" fill="white"/>
<path d="M210.266 130.655L191.303 134.043L194.691 153.006L213.654 149.618L210.266 130.655Z" fill="#455A64"/>
<path d="M194.836 137.703C197.032 137.12 199.256 136.672 201.518 136.271C203.781 135.87 205.986 135.526 208.2 135.316C206.005 135.898 203.781 136.338 201.518 136.748C199.256 137.158 197.099 137.454 194.836 137.703Z" fill="white"/>
<path d="M195.275 140.194C196.354 139.834 197.458 139.557 198.578 139.363C199.697 139.156 200.83 139.035 201.967 139.001C199.806 139.708 197.557 140.109 195.285 140.194H195.275Z" fill="white"/>
<path d="M195.724 142.695C197.452 142.199 199.199 141.845 200.945 141.521C202.692 141.196 204.468 140.948 206.253 140.814C204.534 141.296 202.791 141.688 201.031 141.989C199.276 142.315 197.504 142.551 195.724 142.695Z" fill="white"/>
<path d="M196.173 145.196C198.368 144.613 200.592 144.174 202.855 143.764C205.117 143.353 207.331 143.019 209.594 142.809C207.389 143.392 205.174 143.831 202.912 144.241C200.65 144.652 198.435 144.986 196.173 145.196Z" fill="white"/>
<path d="M196.622 147.697C198.302 147.21 200.01 146.857 201.719 146.542C203.427 146.227 205.165 145.979 206.912 145.854C205.231 146.326 203.526 146.709 201.805 147C200.087 147.305 198.368 147.573 196.622 147.697Z" fill="white"/>
<path d="M141.821 120.998H122.558V140.261H141.821V120.998Z" fill="#455A64"/>
<path d="M125.394 125.217C127.665 125.026 129.928 124.988 132.19 124.979C134.452 124.969 136.724 124.979 138.986 125.217C136.724 125.399 134.452 125.446 132.19 125.456C129.928 125.465 127.637 125.399 125.394 125.217Z" fill="white"/>
<path d="M125.394 127.756C127.648 127.438 129.936 127.438 132.19 127.756C129.936 128.074 127.648 128.074 125.394 127.756Z" fill="white"/>
<path d="M125.394 130.295C128.95 129.977 132.528 129.977 136.084 130.295C134.309 130.477 132.524 130.524 130.739 130.534C128.954 130.543 127.179 130.477 125.394 130.295Z" fill="white"/>
<path d="M125.394 132.834C127.665 132.643 129.928 132.605 132.19 132.596C134.452 132.586 136.724 132.643 138.986 132.834C136.724 133.016 134.452 133.063 132.19 133.073C129.928 133.083 127.637 133.016 125.394 132.834Z" fill="white"/>
<path d="M125.394 135.374C128.87 135.055 132.369 135.055 135.846 135.374C134.109 135.555 132.362 135.603 130.624 135.612C128.887 135.622 127.14 135.545 125.394 135.374Z" fill="white"/>
<path d="M143.272 184.981H124.009V204.244H143.272V184.981Z" fill="#37474F"/>
<path d="M126.844 189.2C129.107 189.01 131.378 188.971 133.641 188.962C135.903 188.952 138.165 188.962 140.437 189.2C138.165 189.382 135.903 189.43 133.641 189.439C131.378 189.449 129.107 189.382 126.844 189.2Z" fill="white"/>
<path d="M126.844 191.739C129.099 191.421 131.386 191.421 133.641 191.739C131.386 192.058 129.099 192.058 126.844 191.739Z" fill="white"/>
<path d="M126.844 194.278C130.401 193.96 133.979 193.96 137.535 194.278C135.75 194.46 133.975 194.508 132.19 194.517C130.405 194.527 128.591 194.46 126.844 194.278Z" fill="white"/>
<path d="M126.844 196.818C129.107 196.627 131.378 196.588 133.641 196.579C135.903 196.569 138.165 196.627 140.437 196.818C138.165 196.999 135.903 197.047 133.641 197.056C131.378 197.066 129.107 196.999 126.844 196.818Z" fill="white"/>
<path d="M126.844 199.357C130.337 199.036 133.852 199.036 137.344 199.357C135.607 199.538 133.86 199.586 132.123 199.595C130.386 199.605 128.591 199.5 126.844 199.357Z" fill="white"/>
<path d="M264.939 127.355H245.676V146.618H264.939V127.355Z" fill="#37474F"/>
<path d="M248.511 131.574C250.783 131.384 253.045 131.345 255.307 131.336C257.569 131.326 259.841 131.336 262.103 131.574C259.841 131.756 257.579 131.804 255.307 131.813C253.035 131.823 250.773 131.727 248.511 131.574Z" fill="white"/>
<path d="M248.511 134.113C250.765 133.795 253.053 133.795 255.307 134.113C254.183 134.283 253.046 134.363 251.909 134.352C250.772 134.358 249.636 134.278 248.511 134.113Z" fill="white"/>
<path d="M248.511 136.653C252.067 136.335 255.645 136.335 259.202 136.653C257.425 136.823 255.641 136.903 253.856 136.891C252.081 136.882 250.296 136.834 248.511 136.653Z" fill="white"/>
<path d="M248.511 139.192C250.783 139.01 253.045 138.963 255.307 138.953C257.569 138.944 259.841 139.001 262.103 139.192C259.841 139.383 257.579 139.421 255.307 139.43C253.035 139.44 250.773 139.364 248.511 139.192Z" fill="white"/>
<path d="M248.511 141.731C250.258 141.549 251.995 141.502 253.742 141.492C255.488 141.481 257.234 141.561 258.973 141.731C257.234 141.901 255.488 141.98 253.742 141.969C251.995 141.96 250.258 141.912 248.511 141.731Z" fill="white"/>
<path d="M281.016 92.2495L261.965 89.3989L259.115 108.45L278.165 111.3L281.016 92.2495Z" fill="#FF9356"/>
<path d="M264.137 94.0034C266.409 94.1561 268.652 94.4521 270.895 94.7766C273.138 95.1011 275.372 95.4925 277.577 96.0175C275.314 95.8648 273.062 95.5689 270.828 95.2443C268.594 94.9198 266.361 94.4998 264.137 94.0034Z" fill="white"/>
<path d="M263.774 96.5139C264.912 96.5215 266.047 96.6108 267.172 96.7812C268.297 96.9452 269.407 97.1941 270.494 97.5257C269.356 97.5182 268.221 97.4288 267.096 97.2585C265.971 97.0955 264.861 96.8466 263.774 96.5139Z" fill="white"/>
<path d="M263.401 99.0244C265.186 99.1103 266.952 99.3299 268.718 99.5781C270.484 99.8262 272.24 100.16 273.968 100.609C272.188 100.516 270.413 100.331 268.651 100.055C266.885 99.7785 265.091 99.4731 263.401 99.0244Z" fill="white"/>
<path d="M263.02 101.535C265.291 101.688 267.535 101.984 269.778 102.308C272.021 102.633 274.245 103.034 276.46 103.549C274.197 103.396 271.945 103.11 269.701 102.776C267.458 102.442 265.234 102.06 263.02 101.535Z" fill="white"/>
<path d="M262.647 104.045C266.134 104.242 269.594 104.76 272.985 105.592C269.5 105.383 266.041 104.865 262.647 104.045Z" fill="white"/>
<path d="M222.795 148.04H203.532V167.303H222.795V148.04Z" fill="#FF9356"/>
<path d="M206.367 152.26C208.639 152.078 210.901 152.03 213.164 152.021C215.426 152.011 217.698 152.078 219.96 152.26C217.698 152.45 215.435 152.489 213.164 152.498C210.892 152.508 208.639 152.45 206.367 152.26Z" fill="white"/>
<path d="M206.367 154.798C208.621 154.48 210.909 154.48 213.164 154.798C210.909 155.117 208.621 155.117 206.367 154.798Z" fill="white"/>
<path d="M206.367 157.338C208.152 157.156 209.937 157.109 211.713 157.099C213.488 157.089 215.283 157.156 217.068 157.338C215.288 157.512 213.501 157.592 211.713 157.576C209.928 157.587 208.144 157.507 206.367 157.338Z" fill="white"/>
<path d="M206.367 159.877C208.639 159.695 210.901 159.648 213.164 159.638C215.426 159.629 217.698 159.695 219.96 159.877C217.698 160.068 215.435 160.115 213.164 160.115C210.892 160.115 208.639 160.068 206.367 159.877Z" fill="white"/>
<path d="M206.367 162.416C208.114 162.234 209.851 162.196 211.598 162.187C213.345 162.173 215.091 162.249 216.829 162.416C215.091 162.591 213.345 162.67 211.598 162.654C209.852 162.665 208.106 162.586 206.367 162.416Z" fill="white"/>
<path d="M137.191 93.8413H117.929V113.104H137.191V93.8413Z" fill="#455A64"/>
<path d="M120.764 98.0603C123.026 97.879 125.298 97.8312 127.56 97.8217C129.822 97.8121 132.085 97.879 134.356 98.0603C132.085 98.2512 129.822 98.2894 127.56 98.299C125.298 98.3085 123.026 98.2512 120.764 98.0603Z" fill="white"/>
<path d="M120.764 100.599C123.018 100.281 125.306 100.281 127.56 100.599C125.306 100.918 123.018 100.918 120.764 100.599Z" fill="white"/>
<path d="M120.764 103.138C122.549 102.957 124.324 102.909 126.109 102.9C127.894 102.89 129.67 102.957 131.455 103.138C127.898 103.457 124.32 103.457 120.764 103.138Z" fill="white"/>
<path d="M120.764 105.678C123.026 105.496 125.298 105.448 127.56 105.439C129.822 105.429 132.085 105.496 134.356 105.678C132.085 105.868 129.822 105.907 127.56 105.916C125.298 105.926 123.026 105.868 120.764 105.678Z" fill="white"/>
<path d="M120.764 108.217C122.501 108.035 124.248 107.988 125.995 107.978C127.741 107.969 129.479 108.035 131.216 108.217C127.739 108.535 124.24 108.535 120.764 108.217Z" fill="white"/>
<path d="M298.118 162.912H278.855V182.175H298.118V162.912Z" fill="#FF9356"/>
<path d="M281.69 167.131C283.953 166.95 286.215 166.902 288.487 166.893C290.759 166.883 293.011 166.893 295.274 167.131C293.011 167.322 290.749 167.36 288.487 167.37C286.225 167.38 283.953 167.313 281.69 167.131Z" fill="white"/>
<path d="M281.69 169.67C282.816 169.505 283.951 169.425 285.089 169.432C286.226 169.421 287.362 169.501 288.487 169.67C287.378 169.837 286.258 169.917 285.136 169.909C283.983 169.918 282.831 169.838 281.69 169.67Z" fill="white"/>
<path d="M281.69 172.209C283.466 172.028 285.251 171.98 287.036 171.971C288.821 171.96 290.605 172.04 292.381 172.209C288.825 172.528 285.247 172.528 281.69 172.209Z" fill="white"/>
<path d="M281.69 174.749C283.953 174.567 286.215 174.519 288.487 174.51C290.759 174.5 293.011 174.567 295.274 174.749C293.011 174.939 290.749 174.978 288.487 174.987C286.225 174.997 283.953 174.939 281.69 174.749Z" fill="white"/>
<path d="M281.69 177.288C283.428 177.106 285.174 177.059 286.912 177.049C288.649 177.039 290.396 177.106 292.143 177.288C288.666 177.606 285.167 177.606 281.69 177.288Z" fill="white"/>
<path d="M358.073 122.735H338.811C338.249 121.536 337.925 120.24 337.856 118.917V103.473H357.119V119.099C357.223 120.357 357.546 121.588 358.073 122.735Z" fill="#FF9356"/>
<path d="M341.168 108.026C343.431 107.835 345.693 107.797 347.965 107.787C350.237 107.778 352.489 107.787 354.752 108.026C352.489 108.207 350.227 108.255 347.965 108.264C345.703 108.274 343.431 108.207 341.168 108.026Z" fill="white"/>
<path d="M341.168 110.565C343.202 110.374 345.244 110.336 347.278 110.326C349.311 110.317 351.353 110.326 353.387 110.565C351.353 110.756 349.311 110.794 347.278 110.804C345.244 110.813 343.202 110.727 341.168 110.565Z" fill="white"/>
<path d="M341.168 113.104C342.944 112.922 344.729 112.875 346.514 112.865C348.299 112.854 350.083 112.934 351.859 113.104C350.083 113.274 348.299 113.353 346.514 113.342C344.729 113.333 342.944 113.285 341.168 113.104Z" fill="white"/>
<path d="M341.168 115.643C343.431 115.462 345.693 115.414 347.965 115.404C350.237 115.395 352.489 115.404 354.752 115.643C352.489 115.834 350.227 115.872 347.965 115.882C345.703 115.891 343.431 115.824 341.168 115.643Z" fill="white"/>
<path d="M105.548 155.123H124.773C125.334 153.924 125.658 152.627 125.727 151.305V135.86H106.503V151.496C106.397 152.751 106.074 153.978 105.548 155.123Z" fill="#FF9356"/>
<path d="M108.86 140.414C111.132 140.232 113.394 140.185 115.657 140.175C117.919 140.165 120.191 140.232 122.453 140.414C120.191 140.605 117.919 140.643 115.657 140.652C113.394 140.662 111.132 140.605 108.86 140.414Z" fill="white"/>
<path d="M108.86 142.953C110.903 142.771 112.936 142.724 114.979 142.714C117.022 142.704 119.045 142.771 121.088 142.953C119.045 143.144 117.012 143.182 114.979 143.191C112.946 143.201 110.903 143.182 108.86 142.953Z" fill="white"/>
<path d="M108.86 145.492C110.645 145.31 112.43 145.263 114.206 145.253C115.981 145.244 117.776 145.31 119.551 145.492C115.995 145.81 112.417 145.81 108.86 145.492Z" fill="white"/>
<path d="M108.86 148.031C111.132 147.849 113.394 147.802 115.657 147.792C117.919 147.783 120.191 147.849 122.453 148.031C120.191 148.222 117.919 148.269 115.657 148.269C113.394 148.269 111.132 148.222 108.86 148.031Z" fill="white"/>
<path d="M195.037 202.764H175.774C175.213 201.565 174.889 200.269 174.82 198.946V183.502H194.083V199.137C194.188 200.392 194.511 201.62 195.037 202.764Z" fill="#FF9356"/>
<path d="M178.132 188.045C180.404 187.864 182.666 187.816 184.928 187.807C187.19 187.797 189.462 187.864 191.725 188.045C189.462 188.236 187.19 188.275 184.928 188.284C182.666 188.294 180.404 188.246 178.132 188.045Z" fill="white"/>
<path d="M178.132 190.594C180.175 190.413 182.208 190.365 184.25 190.355C186.293 190.346 188.317 190.413 190.36 190.594C188.317 190.785 186.284 190.823 184.25 190.833C182.217 190.842 180.136 190.785 178.132 190.594Z" fill="white"/>
<path d="M178.132 193.133C179.917 192.952 181.702 192.904 183.477 192.894C185.253 192.885 187.047 192.952 188.823 193.133C187.046 193.308 185.262 193.388 183.477 193.372C181.693 193.383 179.908 193.303 178.132 193.133Z" fill="white"/>
<path d="M178.132 195.682C180.404 195.5 182.666 195.453 184.928 195.443C187.19 195.433 189.462 195.5 191.725 195.682C189.462 195.873 187.19 195.92 184.928 195.92C182.666 195.92 180.404 195.863 178.132 195.682Z" fill="white"/>
<path d="M265.893 97.0867H246.63C246.069 95.8873 245.745 94.5908 245.676 93.2685V77.824H264.938V93.4499C265.043 94.7084 265.366 95.9391 265.893 97.0867Z" fill="#455A64"/>
<path d="M248.988 82.3772C251.26 82.1958 253.522 82.1481 255.784 82.1385C258.046 82.129 260.318 82.1385 262.581 82.3772C260.318 82.5681 258.056 82.6063 255.784 82.6158C253.512 82.6254 251.26 82.5585 248.988 82.3772Z" fill="white"/>
<path d="M248.988 84.9545C251.031 84.7731 253.064 84.7254 255.106 84.7158C257.149 84.7063 259.173 84.7636 261.216 84.9545C259.173 85.1454 257.14 85.1836 255.106 85.1931C253.073 85.2027 251.031 85.1072 248.988 84.9545Z" fill="white"/>
<path d="M248.988 87.4553C250.773 87.2739 252.558 87.2262 254.333 87.2166C256.118 87.2054 257.902 87.285 259.679 87.4553C256.122 87.7735 252.544 87.7735 248.988 87.4553Z" fill="white"/>
<path d="M248.988 89.9944C251.26 89.813 253.522 89.7653 255.784 89.7558C258.046 89.7462 260.318 89.813 262.581 89.9944C260.318 90.1853 258.056 90.2235 255.784 90.233C253.512 90.2426 251.26 90.1853 248.988 89.9944Z" fill="white"/>
<path d="M189.844 171.99H170.591C170.03 170.791 169.706 169.494 169.637 168.172V152.727H188.89V168.353C188.994 169.612 189.317 170.842 189.844 171.99Z" fill="#37474F"/>
<path d="M172.958 157.242C175.221 157.061 177.483 157.013 179.755 157.004C182.027 156.994 184.279 157.004 186.542 157.242C184.279 157.433 182.017 157.471 179.755 157.481C177.493 157.49 175.211 157.471 172.958 157.242Z" fill="white"/>
<path d="M172.958 159.819C174.992 159.638 177.034 159.59 179.068 159.581C181.101 159.571 183.143 159.638 185.177 159.819C183.143 160.01 181.101 160.048 179.068 160.058C177.034 160.068 174.982 160.01 172.958 159.819Z" fill="white"/>
<path d="M172.958 162.359C174.734 162.177 176.519 162.13 178.304 162.12C180.089 162.11 181.864 162.177 183.649 162.359C180.093 162.677 176.515 162.677 172.958 162.359Z" fill="white"/>
<path d="M172.958 164.878C175.221 164.697 177.483 164.649 179.755 164.64C182.027 164.63 184.279 164.697 186.542 164.878C184.279 165.069 182.017 165.108 179.755 165.117C177.493 165.127 175.211 165.088 172.958 164.878Z" fill="white"/>
<path d="M293.164 198.45H273.901C273.34 197.251 273.016 195.954 272.947 194.632V179.197H292.209V194.823C292.315 196.078 292.638 197.305 293.164 198.45Z" fill="#37474F"/>
<path d="M276.259 183.74C278.522 183.559 280.793 183.511 283.056 183.502C285.318 183.492 287.58 183.559 289.852 183.74C287.58 183.931 285.318 183.979 283.056 183.979C280.793 183.979 278.522 183.931 276.259 183.74Z" fill="white"/>
<path d="M276.259 186.289C278.292 186.098 280.335 186.06 282.368 186.05C284.402 186.041 286.444 186.098 288.487 186.289C286.444 186.47 284.411 186.518 282.368 186.518C280.326 186.518 278.292 186.47 276.259 186.289Z" fill="white"/>
<path d="M276.259 188.828C278.036 188.658 279.82 188.578 281.605 188.589C283.39 188.574 285.174 188.653 286.95 188.828C285.165 189.009 283.39 189.057 281.605 189.067C279.82 189.076 278.044 189 276.259 188.828Z" fill="white"/>
<path d="M276.259 191.367C278.522 191.176 280.793 191.138 283.056 191.128C285.318 191.119 287.58 191.176 289.852 191.367C287.58 191.548 285.318 191.596 283.056 191.606C280.793 191.615 278.522 191.548 276.259 191.367Z" fill="white"/>
<path d="M330.955 151.219H315.682C315.484 149.955 315.376 148.68 315.357 147.401V131.966H334.62V147.592C334.572 149.148 330.955 151.219 330.955 151.219Z" fill="#455A64"/>
<path d="M334.563 147.582C334.563 149.1 331.165 151.085 330.955 151.209C331.518 150.828 331.422 147.811 331.422 147.811C332.461 147.647 333.511 147.571 334.563 147.582Z" fill="#37474F"/>
<path d="M318.145 136.5C320.407 136.318 322.669 136.271 324.941 136.261C327.213 136.252 329.465 136.318 331.728 136.5C329.465 136.691 327.203 136.729 324.941 136.738C322.679 136.748 320.455 136.7 318.145 136.5Z" fill="white"/>
<path d="M318.145 139.049C319.92 138.867 321.705 138.82 323.49 138.81C325.275 138.8 327.05 138.867 328.835 139.049C325.279 139.367 321.701 139.367 318.145 139.049Z" fill="white"/>
<path d="M318.145 141.588C319.92 141.406 321.705 141.359 323.49 141.349C325.275 141.339 327.05 141.406 328.835 141.588C327.059 141.762 325.275 141.842 323.49 141.826C321.705 141.838 319.921 141.758 318.145 141.588Z" fill="white"/>
<path d="M258.925 164.754H274.198C274.395 163.491 274.504 162.215 274.522 160.936V145.492H255.307V161.127C255.307 162.683 258.925 164.754 258.925 164.754Z" fill="#455A64"/>
<path d="M255.307 161.118C255.307 162.635 258.705 164.621 258.915 164.745C258.352 164.363 258.448 161.347 258.448 161.347C257.409 161.183 256.359 161.106 255.307 161.118Z" fill="#37474F"/>
<path d="M258.142 150.045C260.414 149.864 262.676 149.816 264.938 149.806C267.201 149.797 269.473 149.864 271.735 150.045C269.473 150.236 267.201 150.274 264.938 150.284C262.676 150.293 260.414 150.236 258.142 150.045Z" fill="white"/>
<path d="M258.142 152.584C259.927 152.403 261.712 152.355 263.488 152.345C265.263 152.336 267.058 152.403 268.833 152.584C265.276 152.902 261.699 152.902 258.142 152.584Z" fill="white"/>
<path d="M258.142 155.123C259.927 154.942 261.712 154.894 263.488 154.884C265.263 154.875 267.058 154.942 268.833 155.123C265.276 155.441 261.699 155.441 258.142 155.123Z" fill="white"/>
<path d="M119.046 101.067H103.773C103.57 99.8042 103.458 98.5281 103.439 97.249V81.8044H122.702V97.4304C122.644 98.9958 119.046 101.067 119.046 101.067Z" fill="#455A64"/>
<path d="M122.644 97.4303C122.644 98.948 119.246 100.933 119.036 101.058C119.599 100.676 119.504 97.6594 119.504 97.6594C120.542 97.4956 121.593 97.419 122.644 97.4303Z" fill="#37474F"/>
<path d="M106.226 86.3576C108.488 86.1763 110.751 86.1286 113.013 86.119C115.275 86.1095 117.547 86.119 119.809 86.3576C117.547 86.5486 115.285 86.5867 113.013 86.5963C110.741 86.6058 108.488 86.539 106.226 86.3576Z" fill="white"/>
<path d="M106.226 88.8968C108.002 88.7155 109.787 88.6677 111.572 88.6582C113.356 88.6474 115.14 88.727 116.917 88.8968C113.36 89.215 109.783 89.215 106.226 88.8968Z" fill="white"/>
<path d="M106.226 91.4359C108.002 91.2545 109.787 91.2068 111.572 91.1973C113.356 91.1865 115.14 91.2661 116.917 91.4359C113.36 91.754 109.783 91.754 106.226 91.4359Z" fill="white"/>
<path d="M210.854 118.087H195.581C195.378 116.824 195.266 115.548 195.247 114.269V98.824H214.5V114.45C214.5 116.015 210.854 118.087 210.854 118.087Z" fill="#FF9356"/>
<path opacity="0.2" d="M214.5 114.45C214.5 115.968 211.102 117.953 210.892 118.077C211.455 117.695 211.36 114.679 211.36 114.679C212.398 114.515 213.449 114.439 214.5 114.45Z" fill="black"/>
<path d="M198.044 103.377C200.316 103.196 202.578 103.148 204.84 103.139C207.103 103.129 209.374 103.196 211.637 103.377C209.374 103.568 207.103 103.606 204.84 103.616C202.578 103.625 200.316 103.568 198.044 103.377Z" fill="white"/>
<path d="M198.044 105.954C199.829 105.773 201.614 105.725 203.389 105.716C205.165 105.706 206.959 105.773 208.735 105.954C205.178 106.273 201.6 106.273 198.044 105.954Z" fill="white"/>
<path d="M198.044 108.455C199.829 108.274 201.614 108.226 203.389 108.217C205.165 108.207 206.959 108.274 208.735 108.455C205.178 108.774 201.6 108.774 198.044 108.455Z" fill="white"/>
<path d="M114.998 56.6331H113.929V60.2031C113.931 60.2511 113.922 60.2988 113.904 60.3434C113.887 60.388 113.86 60.4286 113.826 60.4625C113.792 60.4965 113.751 60.5231 113.707 60.5409C113.662 60.5587 113.615 60.5671 113.567 60.5658C113.469 60.5659 113.376 60.5279 113.307 60.4602C113.237 60.3924 113.197 60.3002 113.194 60.2031V56.6331H112.144C112.045 56.6306 111.95 56.5893 111.88 56.5179C111.811 56.4466 111.772 56.3509 111.772 56.2513C111.772 56.2028 111.782 56.1549 111.8 56.1102C111.819 56.0656 111.847 56.0252 111.882 55.9914C111.916 55.9575 111.957 55.931 112.003 55.9134C112.048 55.8957 112.096 55.8873 112.144 55.8886H115.008C115.104 55.8886 115.196 55.9268 115.264 55.9948C115.332 56.0628 115.371 56.1551 115.371 56.2513C115.371 56.3509 115.332 56.4466 115.262 56.5179C115.193 56.5893 115.098 56.6306 114.998 56.6331Z" fill="#C1C1C1"/>
<path d="M119.79 56.4708C120.219 56.9289 120.457 57.5329 120.457 58.1603C120.457 58.7878 120.219 59.3918 119.79 59.8499C119.587 60.0736 119.339 60.2527 119.063 60.376C118.787 60.4992 118.489 60.5638 118.186 60.5658C117.88 60.566 117.576 60.5025 117.295 60.3793C117.014 60.2561 116.762 60.0758 116.554 59.8499C116.125 59.3918 115.887 58.7878 115.887 58.1603C115.887 57.5329 116.125 56.9289 116.554 56.4708C116.762 56.2449 117.014 56.0646 117.295 55.9414C117.576 55.8181 117.88 55.7546 118.186 55.7549C118.489 55.7568 118.787 55.8215 119.063 55.9447C119.339 56.0679 119.587 56.2471 119.79 56.4708ZM119.704 58.1603C119.705 57.7252 119.541 57.306 119.246 56.9862C119.11 56.8406 118.946 56.724 118.764 56.6436C118.582 56.5632 118.385 56.5207 118.186 56.5185C117.984 56.5169 117.783 56.5577 117.598 56.6382C117.412 56.7188 117.245 56.8373 117.108 56.9862C116.809 57.3039 116.645 57.7245 116.65 58.1603C116.643 58.5938 116.807 59.0124 117.108 59.3249C117.244 59.4751 117.411 59.5951 117.597 59.6773C117.782 59.7594 117.983 59.802 118.186 59.8022C118.386 59.7982 118.583 59.7539 118.765 59.6719C118.947 59.5899 119.111 59.4718 119.246 59.3249C119.542 59.0097 119.706 58.5929 119.704 58.1603Z" fill="#C1C1C1"/>
<path d="M123.818 60.2031V56.2513C123.818 56.2028 123.828 56.1549 123.847 56.1102C123.866 56.0656 123.893 56.0252 123.928 55.9914C123.963 55.9575 124.004 55.931 124.049 55.9134C124.094 55.8957 124.142 55.8873 124.191 55.8886H124.973C125.594 55.8886 126.188 56.1349 126.627 56.5735C127.066 57.0121 127.312 57.6069 127.312 58.2272C127.312 58.8474 127.066 59.4423 126.627 59.8809C126.188 60.3194 125.594 60.5658 124.973 60.5658H124.191C124.142 60.5671 124.094 60.5587 124.049 60.541C124.004 60.5233 123.963 60.4968 123.928 60.463C123.893 60.4292 123.866 60.3888 123.847 60.3441C123.828 60.2995 123.818 60.2515 123.818 60.2031ZM124.563 59.8213H124.973C125.396 59.8213 125.802 59.6533 126.101 59.3544C126.4 59.0554 126.567 58.65 126.567 58.2272C126.567 57.8044 126.4 57.3989 126.101 57.1C125.802 56.801 125.396 56.6331 124.973 56.6331H124.563V59.8213Z" fill="#C1C1C1"/>
<path d="M132.171 56.4708C132.606 56.9256 132.849 57.5308 132.849 58.1603C132.849 58.7898 132.606 59.3951 132.171 59.8499C131.97 60.0743 131.724 60.254 131.45 60.3773C131.175 60.5006 130.878 60.5648 130.577 60.5658C130.269 60.5651 129.964 60.5012 129.682 60.378C129.399 60.2549 129.145 60.0751 128.935 59.8499C128.512 59.3887 128.278 58.7859 128.278 58.1603C128.278 57.5348 128.512 56.932 128.935 56.4708C129.145 56.2455 129.399 56.0658 129.682 55.9427C129.964 55.8195 130.269 55.7556 130.577 55.7549C130.878 55.7558 131.175 55.82 131.45 55.9434C131.724 56.0667 131.97 56.2464 132.171 56.4708ZM132.085 58.1603C132.084 57.7272 131.925 57.3093 131.636 56.9862C131.5 56.8406 131.337 56.724 131.154 56.6436C130.972 56.5632 130.776 56.5207 130.577 56.5185C130.374 56.5169 130.174 56.5577 129.988 56.6382C129.802 56.7188 129.635 56.8373 129.498 56.9862C129.2 57.3039 129.035 57.7245 129.04 58.1603C129.033 58.5938 129.198 59.0124 129.498 59.3249C129.635 59.4751 129.801 59.5951 129.987 59.6772C130.173 59.7594 130.374 59.802 130.577 59.8022C130.776 59.7982 130.973 59.7539 131.155 59.6719C131.337 59.5899 131.501 59.4718 131.636 59.3249C131.926 59.0062 132.086 58.5909 132.085 58.1603Z" fill="#C1C1C1"/>
<path d="M172.644 56.2512C172.644 56.155 172.682 56.0627 172.75 55.9947C172.818 55.9266 172.91 55.8884 173.006 55.8884C173.104 55.8883 173.199 55.9259 173.27 55.9934C173.341 56.061 173.383 56.1532 173.388 56.2512V60.203C173.383 60.3009 173.341 60.3932 173.27 60.4607C173.199 60.5282 173.104 60.5658 173.006 60.5657C172.91 60.5657 172.818 60.5275 172.75 60.4595C172.682 60.3914 172.644 60.2992 172.644 60.203V56.2512Z" fill="#C1C1C1"/>
<path d="M175.364 60.2031C175.362 60.2986 175.323 60.3894 175.255 60.4569C175.188 60.5244 175.097 60.5634 175.001 60.5658C174.953 60.5671 174.905 60.5587 174.86 60.541C174.814 60.5234 174.773 60.4968 174.739 60.463C174.704 60.4292 174.676 60.3888 174.657 60.3442C174.639 60.2995 174.629 60.2516 174.629 60.2031V56.3181C174.626 56.2583 174.638 56.1987 174.665 56.1451C174.691 56.0915 174.732 56.0458 174.782 56.0127C174.859 55.9559 174.956 55.9321 175.05 55.9464C175.145 55.9608 175.23 56.012 175.288 56.089L177.445 59.0768V56.3181C177.445 56.2219 177.483 56.1297 177.551 56.0616C177.619 55.9936 177.711 55.9554 177.808 55.9554C177.904 55.9554 177.996 55.9936 178.064 56.0616C178.132 56.1297 178.17 56.2219 178.17 56.3181V60.2031C178.17 60.2993 178.132 60.3916 178.064 60.4596C177.996 60.5276 177.904 60.5658 177.808 60.5658C177.754 60.5659 177.702 60.5539 177.654 60.5307C177.606 60.5076 177.564 60.4739 177.531 60.4322L175.364 57.4254V60.2031Z" fill="#C1C1C1"/>
<path d="M183.354 58.7521H182.533V60.203C182.533 60.3017 182.493 60.3964 182.424 60.4662C182.354 60.536 182.259 60.5752 182.16 60.5752C182.062 60.5752 181.967 60.536 181.897 60.4662C181.827 60.3964 181.788 60.3017 181.788 60.203V56.2512C181.791 56.1541 181.831 56.0618 181.9 55.9941C181.97 55.9263 182.063 55.8884 182.16 55.8884H183.354C183.733 55.8884 184.097 56.0393 184.366 56.3078C184.635 56.5763 184.785 56.9405 184.785 57.3202C184.785 57.7 184.635 58.0642 184.366 58.3327C184.097 58.6012 183.733 58.7521 183.354 58.7521ZM182.533 58.0075H183.354C183.536 58.0075 183.711 57.9351 183.84 57.8062C183.968 57.6773 184.041 57.5025 184.041 57.3202C184.041 57.138 183.968 56.9632 183.84 56.8343C183.711 56.7054 183.536 56.633 183.354 56.633H182.533V58.0075Z" fill="#C1C1C1"/>
<path d="M188.785 60.0123C188.815 60.1059 188.807 60.2077 188.762 60.2954C188.717 60.383 188.64 60.4494 188.546 60.48H188.403C188.311 60.4835 188.221 60.4566 188.145 60.4036C188.054 60.3472 187.978 60.2684 187.926 60.1745C187.816 59.9221 187.767 59.6475 187.783 59.3727C187.788 59.2716 187.761 59.1716 187.706 59.0864C187.655 59.006 187.586 58.9376 187.506 58.8859C187.39 58.8169 187.264 58.7654 187.133 58.7332H186.341V60.1841C186.341 60.2828 186.302 60.3775 186.232 60.4473C186.162 60.5171 186.068 60.5564 185.969 60.5564C185.87 60.5564 185.776 60.5171 185.706 60.4473C185.636 60.3775 185.597 60.2828 185.597 60.1841V56.2514C185.597 56.2029 185.606 56.1549 185.625 56.1103C185.644 56.0657 185.672 56.0252 185.706 55.9914C185.741 55.9576 185.782 55.9311 185.827 55.9135C185.872 55.8958 185.921 55.8874 185.969 55.8886H187.162C187.459 55.8812 187.751 55.9663 187.997 56.1322C188.244 56.2981 188.433 56.5365 188.538 56.8145C188.642 57.0924 188.658 57.3961 188.583 57.6834C188.507 57.9708 188.345 58.2275 188.117 58.4182C188.205 58.4891 188.282 58.5728 188.346 58.6664C188.491 58.8804 188.567 59.1334 188.565 59.3918C188.555 59.5221 188.555 59.6529 188.565 59.7832C188.616 59.8044 188.661 59.8357 188.699 59.8751C188.736 59.9145 188.766 59.9612 188.785 60.0123ZM187.83 57.3204C187.828 57.1373 187.753 56.9625 187.623 56.8339C187.492 56.7053 187.317 56.6332 187.133 56.6332H186.313V58.0077H187.133C187.226 58.0103 187.318 57.9944 187.404 57.9611C187.49 57.9279 187.569 57.8778 187.635 57.8138C187.702 57.7499 187.755 57.6733 187.792 57.5886C187.829 57.5039 187.848 57.4128 187.849 57.3204H187.83Z" fill="#C1C1C1"/>
<path d="M193.433 56.4708C193.869 56.9256 194.112 57.5308 194.112 58.1603C194.112 58.7898 193.869 59.3951 193.433 59.8499C193.233 60.0743 192.987 60.254 192.712 60.3773C192.438 60.5006 192.14 60.5648 191.839 60.5658C191.531 60.5651 191.227 60.5012 190.944 60.378C190.662 60.2549 190.408 60.0751 190.198 59.8499C189.775 59.3887 189.541 58.7859 189.541 58.1603C189.541 57.5348 189.775 56.932 190.198 56.4708C190.408 56.2455 190.662 56.0658 190.944 55.9427C191.227 55.8195 191.531 55.7556 191.839 55.7549C192.14 55.7558 192.438 55.82 192.712 55.9434C192.987 56.0667 193.233 56.2464 193.433 56.4708ZM193.348 58.1603C193.347 57.7272 193.187 57.3093 192.899 56.9862C192.763 56.8406 192.599 56.724 192.417 56.6436C192.235 56.5632 192.038 56.5207 191.839 56.5185C191.637 56.5169 191.436 56.5577 191.251 56.6382C191.065 56.7188 190.898 56.8373 190.761 56.9862C190.462 57.3039 190.298 57.7245 190.303 58.1603C190.296 58.5938 190.46 59.0124 190.761 59.3249C190.897 59.4751 191.064 59.5951 191.25 59.6772C191.435 59.7594 191.636 59.802 191.839 59.8022C192.039 59.7982 192.236 59.7539 192.418 59.6719C192.6 59.5899 192.764 59.4718 192.899 59.3249C193.188 59.0062 193.348 58.5909 193.348 58.1603Z" fill="#C1C1C1"/>
<path d="M195.218 58.1699C195.234 57.7122 195.376 57.2679 195.629 56.8864C195.882 56.5048 196.237 56.2011 196.652 56.0091C197.068 55.8171 197.529 55.7443 197.984 55.7989C198.438 55.8534 198.869 56.0332 199.227 56.3181C199.308 56.3788 199.362 56.4693 199.376 56.5695C199.391 56.6698 199.364 56.7716 199.304 56.8526C199.24 56.9328 199.147 56.9847 199.045 56.9972C198.944 57.0097 198.841 56.9818 198.76 56.9194C198.461 56.6823 198.091 56.5543 197.71 56.5567C197.487 56.5519 197.265 56.5926 197.058 56.6763C196.851 56.76 196.664 56.8849 196.507 57.0435C196.348 57.191 196.221 57.3697 196.134 57.5684C196.047 57.7671 196.003 57.9817 196.003 58.1985C196.003 58.4154 196.047 58.6299 196.134 58.8287C196.221 59.0274 196.348 59.2061 196.507 59.3535C196.664 59.5121 196.851 59.6371 197.058 59.7208C197.265 59.8045 197.487 59.8452 197.71 59.8403C198.044 59.8454 198.374 59.7597 198.664 59.5922V58.6376H197.71C197.609 58.6352 197.513 58.5942 197.442 58.5231C197.371 58.452 197.33 58.3563 197.328 58.2558C197.328 58.2061 197.338 58.1569 197.357 58.1111C197.376 58.0653 197.405 58.0238 197.44 57.9891C197.476 57.9544 197.518 57.9272 197.564 57.9091C197.61 57.8909 197.66 57.8823 197.71 57.8835H199.046C199.096 57.8823 199.145 57.8909 199.191 57.9091C199.238 57.9272 199.28 57.9544 199.315 57.9891C199.351 58.0238 199.379 58.0653 199.399 58.1111C199.418 58.1569 199.428 58.2061 199.428 58.2558V59.7353C199.432 59.7734 199.432 59.8118 199.428 59.8499C199.405 59.9159 199.361 59.9728 199.304 60.0122C198.868 60.3452 198.335 60.5263 197.786 60.5276C197.461 60.5469 197.136 60.5007 196.83 60.3917C196.523 60.2828 196.242 60.1132 196.002 59.8932C195.763 59.6732 195.57 59.4073 195.435 59.1112C195.3 58.8152 195.227 58.495 195.218 58.1699Z" fill="#C1C1C1"/>
<path d="M204 60.0121C204.016 60.0584 204.023 60.1075 204.02 60.1565C204.016 60.2055 204.003 60.2533 203.981 60.297C203.958 60.3408 203.927 60.3795 203.89 60.4109C203.852 60.4423 203.808 60.4658 203.761 60.4798H203.618C203.526 60.4826 203.436 60.4558 203.36 60.4034C203.27 60.3491 203.197 60.2695 203.15 60.1743C203.041 59.9219 202.992 59.6473 203.007 59.3725C203.005 59.2711 202.975 59.1721 202.921 59.0862C202.872 59.0036 202.803 58.9347 202.721 58.8857C202.607 58.8136 202.481 58.7619 202.349 58.733H201.566V60.1839C201.565 60.2328 201.554 60.2809 201.534 60.3256C201.514 60.3703 201.486 60.4107 201.45 60.4444C201.415 60.478 201.373 60.5044 201.327 60.522C201.282 60.5395 201.233 60.5479 201.184 60.5466C201.088 60.5466 200.996 60.5084 200.928 60.4404C200.86 60.3723 200.821 60.2801 200.821 60.1839V56.2512C200.821 56.155 200.86 56.0627 200.928 55.9947C200.996 55.9266 201.088 55.8884 201.184 55.8884H202.387C202.766 55.8884 203.131 56.0393 203.399 56.3078C203.668 56.5763 203.819 56.9405 203.819 57.3202C203.819 57.5309 203.772 57.7389 203.681 57.929C203.59 58.119 203.458 58.2861 203.294 58.418C203.385 58.4886 203.465 58.5722 203.532 58.6662C203.677 58.8802 203.754 59.1332 203.752 59.3916C203.738 59.5217 203.738 59.6529 203.752 59.783C203.809 59.7982 203.861 59.827 203.904 59.8669C203.947 59.9068 203.98 59.9566 204 60.0121ZM203.045 57.3202C203.045 57.138 202.973 56.9632 202.844 56.8343C202.715 56.7054 202.54 56.633 202.358 56.633H201.537V58.0075H202.358C202.54 58.0075 202.715 57.9351 202.844 57.8062C202.973 57.6773 203.045 57.5025 203.045 57.3202Z" fill="#C1C1C1"/>
<path d="M205.041 60.2031V56.2513C205.041 56.2028 205.05 56.1549 205.069 56.1102C205.088 56.0656 205.115 56.0252 205.15 55.9914C205.185 55.9575 205.226 55.931 205.271 55.9134C205.316 55.8957 205.364 55.8873 205.413 55.8886H207.599C207.694 55.891 207.785 55.93 207.853 55.9975C207.92 56.065 207.959 56.1558 207.961 56.2513C207.962 56.3493 207.924 56.4437 207.856 56.5147C207.789 56.5858 207.697 56.6282 207.599 56.6331H205.785V57.8549H207.341C207.44 57.8549 207.534 57.8941 207.604 57.9639C207.674 58.0338 207.713 58.1285 207.713 58.2272C207.713 58.3259 207.674 58.4206 207.604 58.4904C207.534 58.5602 207.44 58.5995 207.341 58.5995H205.785V59.8213H207.599C207.697 59.8262 207.789 59.8686 207.856 59.9396C207.924 60.0107 207.962 60.1051 207.961 60.2031C207.959 60.2985 207.92 60.3894 207.853 60.4569C207.785 60.5244 207.694 60.5634 207.599 60.5658H205.432C205.382 60.5698 205.332 60.5633 205.284 60.5469C205.237 60.5304 205.193 60.5044 205.157 60.4703C205.12 60.4362 205.091 60.3948 205.071 60.3489C205.051 60.3029 205.04 60.2532 205.041 60.2031Z" fill="#C1C1C1"/>
<path d="M208.859 59.4013C208.925 59.3388 209.012 59.304 209.102 59.304C209.193 59.304 209.28 59.3388 209.346 59.4013C209.703 59.7109 210.153 59.8923 210.625 59.9167C210.921 59.925 211.212 59.838 211.455 59.6685C211.538 59.6186 211.608 59.5489 211.658 59.4657C211.708 59.3824 211.737 59.2882 211.742 59.1913C211.743 59.1172 211.723 59.0442 211.684 58.9813C211.636 58.8984 211.567 58.8294 211.484 58.7808C211.191 58.6103 210.866 58.503 210.529 58.4658C210.23 58.4116 209.939 58.3219 209.661 58.1985C209.41 58.0875 209.195 57.9091 209.04 57.6831C208.941 57.5154 208.888 57.3243 208.888 57.1294C208.898 56.9401 208.951 56.7556 209.044 56.5901C209.137 56.4246 209.266 56.2826 209.422 56.1749C209.761 55.9395 210.165 55.816 210.577 55.8217C211.107 55.8483 211.616 56.0347 212.038 56.3563C212.075 56.3813 212.107 56.4136 212.133 56.4511C212.158 56.4887 212.175 56.5308 212.184 56.5751C212.193 56.6194 212.193 56.6651 212.184 56.7094C212.175 56.7538 212.158 56.7959 212.133 56.8335C212.108 56.8711 212.076 56.9034 212.038 56.9286C212.001 56.9537 211.958 56.9712 211.914 56.9801C211.87 56.989 211.824 56.989 211.78 56.9803C211.736 56.9715 211.693 56.9541 211.656 56.929C211.35 56.6773 210.973 56.5272 210.577 56.4994C210.311 56.4965 210.051 56.5766 209.833 56.7285C209.76 56.7733 209.698 56.8347 209.653 56.9077C209.609 56.9807 209.582 57.0632 209.575 57.1485C209.558 57.2111 209.558 57.2769 209.575 57.3394C209.626 57.406 209.687 57.4639 209.756 57.5113C210.013 57.6653 210.299 57.7659 210.596 57.8072C210.924 57.8601 211.245 57.953 211.551 58.084C211.819 58.2061 212.049 58.3971 212.219 58.6376C212.323 58.8109 212.379 59.0085 212.381 59.2104C212.373 59.4174 212.316 59.6194 212.215 59.8002C212.113 59.981 211.971 60.1354 211.799 60.2508C211.438 60.5012 211.007 60.6315 210.568 60.6231C209.937 60.5958 209.333 60.3609 208.849 59.9549C208.808 59.9211 208.775 59.8785 208.753 59.8301C208.73 59.7818 208.719 59.729 208.72 59.6758C208.721 59.6225 208.734 59.5702 208.758 59.5226C208.782 59.4751 208.817 59.4336 208.859 59.4013Z" fill="#C1C1C1"/>
<path d="M213.25 59.4013C213.316 59.3388 213.403 59.304 213.493 59.304C213.584 59.304 213.671 59.3388 213.737 59.4013C214.094 59.7109 214.544 59.8923 215.016 59.9167C215.312 59.925 215.603 59.838 215.846 59.6685C215.929 59.6186 215.999 59.5489 216.049 59.4657C216.099 59.3824 216.128 59.2882 216.133 59.1913C216.134 59.1172 216.114 59.0442 216.075 58.9813C216.024 58.9007 215.955 58.8323 215.875 58.7808C215.582 58.6103 215.257 58.503 214.92 58.4658C214.621 58.4116 214.33 58.3219 214.052 58.1985C213.801 58.0875 213.586 57.9091 213.431 57.6831C213.332 57.5154 213.279 57.3243 213.279 57.1294C213.289 56.9401 213.342 56.7556 213.435 56.5901C213.528 56.4246 213.657 56.2826 213.813 56.1749C214.152 55.9395 214.556 55.816 214.968 55.8217C215.497 55.8501 216.006 56.0362 216.429 56.3563C216.466 56.3813 216.498 56.4136 216.524 56.4511C216.549 56.4887 216.566 56.5308 216.575 56.5751C216.584 56.6194 216.584 56.6651 216.575 56.7094C216.566 56.7538 216.549 56.7959 216.524 56.8335C216.499 56.8711 216.467 56.9034 216.429 56.9286C216.392 56.9537 216.349 56.9712 216.305 56.9801C216.261 56.989 216.215 56.989 216.171 56.9803C216.126 56.9715 216.084 56.9541 216.047 56.929C215.74 56.6773 215.363 56.5272 214.968 56.4994C214.702 56.4965 214.442 56.5766 214.224 56.7285C214.151 56.7733 214.089 56.8347 214.044 56.9077C214 56.9807 213.973 57.0632 213.966 57.1485C213.964 57.2153 213.981 57.2812 214.014 57.3394C214.065 57.406 214.126 57.4639 214.195 57.5113C214.452 57.6653 214.738 57.7659 215.035 57.8072C215.363 57.8601 215.684 57.953 215.989 58.084C216.257 58.2061 216.488 58.3971 216.658 58.6376C216.758 58.8117 216.811 59.0093 216.81 59.2104C216.804 59.4167 216.748 59.6185 216.649 59.7993C216.549 59.9802 216.408 60.1349 216.238 60.2508C215.877 60.5012 215.446 60.6315 215.006 60.6231C214.376 60.5958 213.771 60.3609 213.288 59.9549C213.244 59.9248 213.207 59.8851 213.181 59.8388C213.154 59.7924 213.138 59.7406 213.135 59.6874C213.131 59.6341 213.139 59.5806 213.159 59.5311C213.179 59.4815 213.21 59.4371 213.25 59.4013Z" fill="#C1C1C1"/>
<path d="M255.546 56.633H254.486V60.203C254.486 60.2992 254.448 60.3914 254.38 60.4595C254.312 60.5275 254.22 60.5657 254.123 60.5657C254.026 60.5657 253.933 60.5278 253.864 60.4601C253.794 60.3923 253.754 60.3 253.751 60.203V56.633H252.682C252.584 56.6281 252.492 56.5857 252.424 56.5146C252.357 56.4435 252.319 56.3492 252.319 56.2512C252.319 56.155 252.358 56.0627 252.426 55.9947C252.494 55.9266 252.586 55.8884 252.682 55.8884H255.546C255.643 55.8884 255.736 55.9263 255.806 55.9941C255.875 56.0618 255.916 56.1541 255.918 56.2512C255.916 56.3501 255.876 56.4444 255.807 56.5153C255.738 56.5861 255.645 56.6282 255.546 56.633Z" fill="#C1C1C1"/>
<path d="M256.987 60.2031V56.2513C256.987 56.2028 256.996 56.1549 257.015 56.1102C257.034 56.0656 257.062 56.0252 257.096 55.9914C257.131 55.9575 257.172 55.931 257.217 55.9134C257.262 55.8957 257.311 55.8873 257.359 55.8886H259.545C259.64 55.891 259.731 55.93 259.799 55.9975C259.866 56.065 259.905 56.1558 259.908 56.2513C259.908 56.3493 259.87 56.4437 259.803 56.5147C259.735 56.5858 259.643 56.6282 259.545 56.6331H257.731V57.8549H259.287C259.386 57.8549 259.481 57.8941 259.55 57.9639C259.62 58.0338 259.66 58.1285 259.66 58.2272C259.66 58.3259 259.62 58.4206 259.55 58.4904C259.481 58.5602 259.386 58.5995 259.287 58.5995H257.731V59.8213H259.545C259.643 59.8262 259.735 59.8686 259.803 59.9396C259.87 60.0107 259.908 60.1051 259.908 60.2031C259.905 60.2985 259.866 60.3894 259.799 60.4569C259.731 60.5244 259.64 60.5634 259.545 60.5658H257.378C257.328 60.5698 257.278 60.5633 257.231 60.5469C257.183 60.5304 257.14 60.5044 257.103 60.4703C257.066 60.4362 257.037 60.3948 257.017 60.3489C256.997 60.3029 256.987 60.2532 256.987 60.2031Z" fill="#C1C1C1"/>
<path d="M260.805 59.4013C260.871 59.3388 260.958 59.304 261.048 59.304C261.139 59.304 261.226 59.3388 261.292 59.4013C261.649 59.7109 262.099 59.8923 262.571 59.9167C262.867 59.925 263.158 59.838 263.401 59.6685C263.485 59.6184 263.556 59.549 263.607 59.4659C263.659 59.3829 263.69 59.2887 263.697 59.1913C263.696 59.1163 263.672 59.0434 263.631 58.9813C263.582 58.8984 263.513 58.8294 263.43 58.7808C263.138 58.6084 262.813 58.501 262.476 58.4658C262.179 58.4127 261.891 58.3229 261.616 58.1985C261.362 58.0904 261.143 57.9115 260.986 57.6831C260.887 57.5154 260.835 57.3243 260.834 57.1294C260.844 56.9401 260.897 56.7556 260.99 56.5901C261.083 56.4246 261.212 56.2826 261.368 56.1749C261.707 55.9395 262.111 55.816 262.523 55.8217C263.053 55.8483 263.562 56.0347 263.984 56.3563C264.058 56.4084 264.109 56.487 264.127 56.5758C264.145 56.6647 264.127 56.7569 264.079 56.8335C264.054 56.8712 264.022 56.9035 263.984 56.9287C263.947 56.9539 263.905 56.9715 263.86 56.9803C263.816 56.9892 263.77 56.9892 263.726 56.9804C263.682 56.9716 263.639 56.9541 263.602 56.929C263.296 56.6773 262.919 56.5272 262.523 56.4994C262.257 56.4965 261.997 56.5766 261.779 56.7285C261.706 56.7733 261.644 56.8347 261.6 56.9077C261.555 56.9807 261.528 57.0632 261.521 57.1485C261.504 57.2111 261.504 57.2769 261.521 57.3394C261.572 57.406 261.633 57.4639 261.702 57.5113C261.96 57.6653 262.245 57.7659 262.542 57.8072C262.871 57.8601 263.191 57.953 263.497 58.084C263.767 58.2032 263.998 58.3948 264.165 58.6376C264.269 58.8109 264.325 59.0085 264.327 59.2104C264.319 59.4162 264.262 59.6172 264.163 59.7977C264.064 59.9782 263.924 60.1333 263.755 60.2508C263.39 60.5014 262.956 60.6316 262.514 60.6231C261.885 60.5988 261.283 60.3634 260.805 59.9549C260.762 59.923 260.726 59.8813 260.702 59.8332C260.678 59.7851 260.665 59.732 260.665 59.6781C260.665 59.6242 260.678 59.5711 260.702 59.523C260.726 59.4749 260.762 59.4332 260.805 59.4013Z" fill="#C1C1C1"/>
<path d="M268.174 56.6331H267.105V60.2031C267.105 60.2993 267.067 60.3916 266.999 60.4596C266.931 60.5276 266.839 60.5658 266.742 60.5658C266.645 60.5659 266.552 60.5279 266.482 60.4602C266.413 60.3924 266.373 60.3002 266.37 60.2031V56.6331H265.32C265.22 56.6306 265.126 56.5893 265.056 56.5179C264.987 56.4466 264.948 56.3509 264.948 56.2513C264.948 56.2028 264.957 56.1549 264.976 56.1102C264.995 56.0656 265.023 56.0252 265.057 55.9914C265.092 55.9575 265.133 55.931 265.178 55.9134C265.223 55.8957 265.272 55.8873 265.32 55.8886H268.184C268.28 55.8886 268.372 55.9268 268.44 55.9948C268.508 56.0628 268.546 56.1551 268.546 56.2513C268.546 56.3509 268.508 56.4466 268.438 56.5179C268.368 56.5893 268.274 56.6306 268.174 56.6331Z" fill="#C1C1C1"/>
<path d="M269.683 56.2513C269.683 56.2028 269.692 56.1549 269.711 56.1102C269.73 56.0656 269.758 56.0252 269.792 55.9914C269.827 55.9575 269.868 55.931 269.913 55.9134C269.958 55.8957 270.006 55.8873 270.055 55.8886C270.152 55.8885 270.245 55.9264 270.315 55.9942C270.384 56.062 270.425 56.1542 270.427 56.2513V60.2031C270.425 60.3002 270.384 60.3924 270.315 60.4602C270.245 60.5279 270.152 60.5659 270.055 60.5658C270.006 60.5671 269.958 60.5587 269.913 60.541C269.868 60.5233 269.827 60.4968 269.792 60.463C269.758 60.4292 269.73 60.3888 269.711 60.3441C269.692 60.2995 269.683 60.2515 269.683 60.2031V56.2513Z" fill="#C1C1C1"/>
<path d="M272.413 60.203C272.41 60.2984 272.371 60.3893 272.304 60.4568C272.236 60.5243 272.145 60.5633 272.05 60.5657C272.002 60.567 271.954 60.5585 271.91 60.5408C271.865 60.523 271.824 60.4963 271.79 60.4624C271.756 60.4285 271.73 60.3879 271.712 60.3433C271.694 60.2987 271.686 60.251 271.687 60.203V56.318C271.686 56.2418 271.708 56.1672 271.752 56.1046C271.795 56.0421 271.857 55.9948 271.929 55.9694C272.001 55.9441 272.079 55.942 272.152 55.9634C272.225 55.9849 272.289 56.0288 272.336 56.0889L274.494 59.0766V56.318C274.494 56.2218 274.532 56.1295 274.6 56.0615C274.668 55.9935 274.76 55.9553 274.856 55.9553C274.953 55.9552 275.047 55.9931 275.116 56.0609C275.186 56.1287 275.226 56.2209 275.228 56.318V60.203C275.226 60.3001 275.186 60.3923 275.116 60.4601C275.047 60.5278 274.953 60.5657 274.856 60.5657C274.804 60.5657 274.753 60.5536 274.707 60.5304C274.66 60.5072 274.62 60.4736 274.589 60.4321L272.451 57.4634L272.413 60.203Z" fill="#C1C1C1"/>
<path d="M276.288 58.1698C276.296 57.7106 276.431 57.2627 276.68 56.8762C276.928 56.4898 277.279 56.1801 277.693 55.9819C278.107 55.7837 278.569 55.7048 279.025 55.754C279.482 55.8033 279.916 55.9787 280.278 56.2607C280.359 56.3215 280.413 56.4119 280.427 56.5122C280.441 56.6124 280.415 56.7143 280.354 56.7953C280.291 56.8754 280.198 56.9274 280.096 56.9399C279.994 56.9523 279.892 56.9244 279.81 56.8621C279.482 56.6068 279.072 56.4787 278.656 56.5015C278.24 56.5243 277.847 56.6964 277.548 56.9862C277.392 57.1351 277.267 57.3142 277.182 57.5128C277.097 57.7113 277.053 57.9251 277.053 58.1412C277.053 58.3572 277.097 58.571 277.182 58.7696C277.267 58.9681 277.392 59.1473 277.548 59.2962C277.706 59.453 277.894 59.5768 278.101 59.6604C278.307 59.744 278.528 59.7856 278.751 59.783C279.086 59.7881 279.415 59.7023 279.705 59.5348V58.5803H278.751C278.65 58.5803 278.552 58.54 278.481 58.4684C278.409 58.3968 278.369 58.2997 278.369 58.1985C278.369 58.1488 278.379 58.0996 278.398 58.0538C278.418 58.008 278.446 57.9665 278.481 57.9318C278.517 57.8971 278.559 57.8699 278.605 57.8517C278.652 57.8336 278.701 57.8249 278.751 57.8262H280.087C280.137 57.8249 280.186 57.8336 280.233 57.8517C280.279 57.8699 280.321 57.8971 280.357 57.9318C280.392 57.9665 280.42 58.008 280.44 58.0538C280.459 58.0996 280.469 58.1488 280.469 58.1985V59.678C280.474 59.716 280.474 59.7545 280.469 59.7925C280.439 59.8571 280.393 59.9129 280.335 59.9548C279.901 60.2904 279.367 60.4718 278.818 60.4703C278.178 60.4988 277.552 60.2729 277.078 59.8418C276.604 59.4108 276.32 58.8097 276.288 58.1698Z" fill="#C1C1C1"/>
<path d="M329.924 60.2031V56.2513C329.924 56.2028 329.933 56.1549 329.952 56.1102C329.971 56.0656 329.999 56.0252 330.033 55.9914C330.068 55.9575 330.109 55.931 330.154 55.9134C330.199 55.8957 330.248 55.8873 330.296 55.8886H331.079C331.699 55.8886 332.294 56.1349 332.732 56.5735C333.171 57.0121 333.417 57.6069 333.417 58.2272C333.417 58.8474 333.171 59.4423 332.732 59.8809C332.294 60.3194 331.699 60.5658 331.079 60.5658H330.296C330.248 60.5671 330.199 60.5587 330.154 60.541C330.109 60.5233 330.068 60.4968 330.033 60.463C329.999 60.4292 329.971 60.3888 329.952 60.3441C329.933 60.2995 329.924 60.2515 329.924 60.2031ZM330.668 59.8213H331.079C331.502 59.8213 331.907 59.6533 332.206 59.3544C332.505 59.0554 332.673 58.65 332.673 58.2272C332.673 57.8044 332.505 57.3989 332.206 57.1C331.907 56.801 331.502 56.6331 331.079 56.6331H330.668V59.8213Z" fill="#C1C1C1"/>
<path d="M338.324 56.4708C338.753 56.9289 338.991 57.5329 338.991 58.1603C338.991 58.7878 338.753 59.3918 338.324 59.8499C338.12 60.0736 337.873 60.2527 337.597 60.376C337.321 60.4992 337.022 60.5638 336.72 60.5658C336.413 60.566 336.11 60.5025 335.829 60.3793C335.548 60.2561 335.295 60.0758 335.088 59.8499C334.659 59.3918 334.42 58.7878 334.42 58.1603C334.42 57.5329 334.659 56.9289 335.088 56.4708C335.295 56.2449 335.548 56.0646 335.829 55.9414C336.11 55.8181 336.413 55.7546 336.72 55.7549C337.022 55.7568 337.321 55.8215 337.597 55.9447C337.873 56.0679 338.12 56.2471 338.324 56.4708ZM338.238 58.1603C338.238 57.7252 338.075 57.306 337.78 56.9862C337.644 56.8406 337.48 56.724 337.298 56.6436C337.116 56.5632 336.919 56.5207 336.72 56.5185C336.518 56.5169 336.317 56.5577 336.131 56.6382C335.946 56.7188 335.779 56.8373 335.641 56.9862C335.343 57.3039 335.179 57.7245 335.183 58.1603C335.176 58.5938 335.341 59.0124 335.641 59.3249C335.778 59.4751 335.945 59.5951 336.13 59.6773C336.316 59.7594 336.517 59.802 336.72 59.8022C336.92 59.7982 337.117 59.7539 337.299 59.6719C337.481 59.5899 337.644 59.4718 337.78 59.3249C338.076 59.0097 338.24 58.5929 338.238 58.1603Z" fill="#C1C1C1"/>
<path d="M340.872 60.2031C340.87 60.2986 340.831 60.3894 340.763 60.4569C340.696 60.5244 340.605 60.5634 340.51 60.5658C340.462 60.5672 340.414 60.5587 340.369 60.5409C340.325 60.5231 340.284 60.4965 340.25 60.4625C340.216 60.4286 340.19 60.3881 340.172 60.3435C340.154 60.2989 340.146 60.2511 340.147 60.2031V56.3181C340.142 56.2591 340.152 56.1997 340.177 56.146C340.202 56.0923 340.241 56.0463 340.29 56.0127C340.367 55.9559 340.464 55.9321 340.559 55.9464C340.654 55.9608 340.739 56.012 340.796 56.089L342.953 59.0768V56.3181C342.953 56.2219 342.991 56.1297 343.059 56.0616C343.128 55.9936 343.22 55.9554 343.316 55.9554C343.413 55.9554 343.506 55.9933 343.576 56.061C343.645 56.1288 343.686 56.221 343.688 56.3181V60.2031C343.686 60.3002 343.645 60.3924 343.576 60.4602C343.506 60.528 343.413 60.5659 343.316 60.5658C343.263 60.5659 343.21 60.5539 343.162 60.5307C343.114 60.5076 343.072 60.4739 343.039 60.4322L340.901 57.4636L340.872 60.2031Z" fill="#C1C1C1"/>
<path d="M344.853 60.2031V56.2513C344.853 56.2028 344.863 56.1549 344.882 56.1102C344.9 56.0656 344.928 56.0252 344.963 55.9914C344.997 55.9575 345.038 55.931 345.084 55.9134C345.129 55.8957 345.177 55.8873 345.225 55.8886H347.411C347.507 55.891 347.598 55.93 347.665 55.9975C347.733 56.065 347.772 56.1558 347.774 56.2513C347.774 56.3493 347.737 56.4437 347.669 56.5147C347.601 56.5858 347.509 56.6282 347.411 56.6331H345.598V57.8549H347.182C347.278 57.8573 347.368 57.8963 347.436 57.9638C347.503 58.0313 347.542 58.1222 347.545 58.2176C347.546 58.2665 347.538 58.3152 347.52 58.3609C347.503 58.4065 347.476 58.4483 347.443 58.4837C347.409 58.5192 347.369 58.5476 347.324 58.5675C347.279 58.5874 347.231 58.5982 347.182 58.5995H345.626V59.8213H347.44C347.538 59.8262 347.63 59.8686 347.698 59.9396C347.765 60.0107 347.803 60.1051 347.803 60.2031C347.8 60.2985 347.761 60.3894 347.694 60.4569C347.626 60.5244 347.535 60.5634 347.44 60.5658H345.273C345.221 60.5742 345.167 60.571 345.117 60.5566C345.066 60.5421 345.019 60.5167 344.979 60.4822C344.939 60.4476 344.907 60.4047 344.885 60.3565C344.863 60.3083 344.852 60.256 344.853 60.2031Z" fill="#C1C1C1"/>
<path d="M193.681 79.5039C187.016 80.3033 180.721 83.0002 175.545 87.2739C172.986 89.3869 170.895 92.0105 169.407 94.9771C168.687 96.4557 168.173 98.0263 167.88 99.6448C167.605 101.263 167.573 102.914 167.785 104.542C168.15 107.812 169.582 110.872 171.86 113.247C174.214 115.548 177.11 117.219 180.28 118.106C183.46 119.026 186.744 119.539 190.054 119.633C193.369 119.762 196.688 119.628 199.981 119.232C203.259 118.827 206.456 117.923 209.46 116.55C212.459 115.174 215.163 113.229 217.421 110.823C219.67 108.425 221.307 105.521 222.194 102.356C223.142 99.2098 222.952 95.8307 221.659 92.8103C220.17 89.8703 217.846 87.436 214.977 85.8135C212.104 84.1412 208.976 82.9513 205.718 82.2912C199.159 80.8876 192.346 81.2432 185.969 83.3221C192.339 81.092 199.185 80.5849 205.814 81.8521C209.137 82.4685 212.335 83.6364 215.273 85.3075C218.284 86.9609 220.739 89.4685 222.327 92.5144C223.073 94.0707 223.492 95.7632 223.559 97.4875C223.643 99.202 223.456 100.919 223.005 102.575C222.09 105.881 220.39 108.916 218.051 111.424C215.724 113.919 212.936 115.942 209.842 117.38C206.758 118.815 203.47 119.762 200.096 120.187C196.745 120.579 193.367 120.701 189.997 120.549C186.614 120.437 183.259 119.895 180.012 118.936C176.712 117.996 173.702 116.24 171.259 113.829C168.872 111.32 167.394 108.084 167.059 104.637C166.855 102.94 166.91 101.221 167.221 99.5398C167.549 97.8817 168.102 96.2761 168.863 94.7671C170.417 91.7482 172.59 89.0909 175.24 86.9685C180.542 82.7593 186.944 80.1677 193.681 79.5039Z" fill="#263238"/>
<path d="M129.67 92.5908C131.228 89.978 133.388 87.7755 135.97 86.1667C137.282 85.3681 138.717 84.7939 140.218 84.4676C141.723 84.1687 143.266 84.1075 144.79 84.2862C146.342 84.4234 147.848 84.8913 149.204 85.6586C150.561 86.4258 151.738 87.4746 152.655 88.7344C153.103 89.3906 153.448 90.1117 153.677 90.8726C153.927 91.657 153.963 92.494 153.782 93.2971C153.682 93.7322 153.477 94.1364 153.186 94.4747C152.894 94.813 152.525 95.0752 152.11 95.2388C151.694 95.4023 151.245 95.4622 150.801 95.4133C150.358 95.3644 149.932 95.2081 149.563 94.958C148.905 94.391 148.469 93.6101 148.331 92.753C148.184 91.9631 148.155 91.1556 148.245 90.3571C148.431 88.7933 148.925 87.2817 149.696 85.9089C151.244 83.1509 153.71 81.0229 156.664 79.8953C159.571 78.7011 162.805 78.5693 165.799 79.523C168.708 80.5733 171.24 82.4636 173.073 84.9544L172.93 85.0689C170.968 82.8299 168.424 81.178 165.58 80.2962C164.18 79.8894 162.718 79.7406 161.265 79.8571C159.812 79.9846 158.388 80.3422 157.046 80.9167C154.341 82.0115 152.077 83.9763 150.613 86.5008C149.895 87.7525 149.422 89.1292 149.219 90.5576C149.114 91.2536 149.114 91.9615 149.219 92.6576C149.303 93.3007 149.602 93.8964 150.069 94.3471C150.313 94.5273 150.601 94.6391 150.903 94.671C151.205 94.7028 151.51 94.6537 151.787 94.5285C152.081 94.4229 152.343 94.2438 152.549 94.0082C152.754 93.7726 152.896 93.4884 152.961 93.1826C153.075 92.492 153.049 91.7856 152.885 91.1051C152.721 90.4247 152.422 89.7841 152.006 89.2212C151.161 88.0279 150.071 87.029 148.808 86.2915C147.545 85.554 146.14 85.0948 144.685 84.9448C143.219 84.7584 141.733 84.7874 140.275 85.0308C138.813 85.3083 137.407 85.8243 136.113 86.558C133.522 88.0774 131.332 90.1951 129.727 92.7339L129.67 92.5908Z" fill="#263238"/>
<path d="M168.109 84.334L172.701 84.7635L172.796 80.1531L173.617 85.7849L168.109 84.334Z" fill="#263238"/>
<path d="M248.864 149.94C247.723 154.109 247.173 158.418 247.231 162.74C247.201 167.043 247.988 171.312 249.551 175.321C250.342 177.3 251.382 179.17 252.644 180.886C255.176 184.311 258.436 187.131 262.189 189.143C263.144 189.716 264.098 190.098 265.053 190.604C266.007 191.109 267.048 191.415 268.041 191.835L267.974 192.074C263.698 191.034 259.699 189.08 256.252 186.346C252.848 183.502 250.26 179.807 248.749 175.636C247.255 171.512 246.552 167.144 246.678 162.759C246.762 158.409 247.449 154.092 248.721 149.93L248.864 149.94Z" fill="#263238"/>
<path d="M262.981 193.887L267.64 191.787L265.206 187.291L269.081 192.274L262.981 193.887Z" fill="#263238"/>
<path d="M311.721 106.508C313.63 106.365 315.491 106.298 317.372 106.241C319.252 106.184 321.19 106.164 323.032 106.155C324.874 106.145 326.803 106.155 328.683 106.231C330.563 106.308 332.453 106.365 334.343 106.508C332.434 106.661 330.573 106.728 328.683 106.785C326.793 106.842 324.913 106.861 323.032 106.871C321.152 106.88 319.262 106.871 317.372 106.785C315.482 106.699 313.601 106.661 311.721 106.508Z" fill="#263238"/>
<path d="M311.721 109.209C315.786 108.738 319.892 108.738 323.958 109.209C319.893 109.693 315.785 109.693 311.721 109.209Z" fill="#263238"/>
<path d="M311.721 111.911C313.391 111.768 315.052 111.701 316.723 111.644C318.393 111.586 320.054 111.567 321.724 111.558C323.395 111.548 325.065 111.558 326.726 111.644C328.387 111.729 330.067 111.768 331.728 111.911C330.067 112.064 328.397 112.13 326.726 112.188C325.056 112.245 323.395 112.264 321.724 112.274C320.054 112.283 318.393 112.274 316.723 112.188C315.052 112.102 313.391 112.064 311.721 111.911Z" fill="#263238"/>
<path d="M311.721 114.622C313.076 114.469 314.432 114.402 315.787 114.345C317.143 114.288 318.508 114.269 319.863 114.259C321.218 114.25 322.574 114.259 323.929 114.345C325.285 114.431 326.65 114.469 328.005 114.622C326.65 114.765 325.294 114.832 323.929 114.889C322.564 114.946 321.218 114.965 319.863 114.975C318.508 114.985 317.152 114.975 315.787 114.889C314.422 114.803 313.076 114.765 311.721 114.622Z" fill="#263238"/>
<path d="M197.433 172.839C199.342 172.696 201.203 172.629 203.084 172.563C204.964 172.496 206.902 172.496 208.734 172.486C210.567 172.477 212.505 172.486 214.395 172.563C216.285 172.639 218.213 172.696 220.046 172.839C218.137 172.992 216.275 173.059 214.395 173.116C212.514 173.173 210.624 173.193 208.734 173.202C206.844 173.212 204.916 173.202 203.084 173.116C201.251 173.03 199.313 172.992 197.433 172.839Z" fill="#263238"/>
<path d="M197.433 175.541C198.884 175.398 200.296 175.331 201.795 175.274C203.294 175.216 204.706 175.197 206.157 175.188C207.608 175.178 209.069 175.188 210.529 175.264C211.989 175.34 213.393 175.398 214.891 175.541C213.44 175.694 212.028 175.76 210.529 175.818C209.03 175.875 207.618 175.894 206.157 175.904C204.697 175.913 203.294 175.904 201.795 175.818C200.296 175.732 198.884 175.694 197.433 175.541Z" fill="#263238"/>
<path d="M197.433 178.242C199.094 178.099 200.764 178.032 202.434 177.975C204.105 177.918 205.766 177.899 207.436 177.889C209.107 177.879 210.768 177.889 212.438 177.975C214.109 178.061 215.769 178.099 217.44 178.242C215.769 178.395 214.109 178.462 212.438 178.519C210.768 178.576 209.107 178.595 207.436 178.605C205.766 178.614 204.095 178.605 202.434 178.519C200.774 178.433 199.094 178.395 197.433 178.242Z" fill="#263238"/>
<path d="M194.12 277.429C193.228 280.696 192.641 284.038 192.364 287.414C192.45 287.585 192.431 288.206 192.364 288.034C192.364 288.578 191.505 288.483 191.505 287.939C191.505 287.585 191.505 287.232 191.505 286.889C189.596 284.474 186.732 282.937 184.432 280.827C182.586 279.177 181.243 277.04 180.556 274.661C178.647 268.113 180.432 261.183 178.151 254.615C176.184 248.984 172.652 244.115 169.655 238.989C166.505 233.596 164.176 227.936 163.928 221.617C163.737 216.777 164.319 210.334 168.004 206.707C171.908 202.889 176.747 205.752 179.735 209.179C188.402 219.125 192.421 231.697 194.053 244.554C194.941 251.666 195.876 258.825 195.657 266.013C195.526 269.86 195.011 273.684 194.12 277.429Z" fill="#FF9356"/>
<path d="M192.392 290.029C192.87 283.314 192.793 276.571 192.163 269.869C192.169 269.847 192.169 269.824 192.163 269.802C192.278 264.352 192.707 258.92 192.488 253.47C192.226 247.57 191.424 241.707 190.092 235.954C190.092 235.887 189.977 235.897 189.987 235.954C191.052 241.609 191.69 247.337 191.896 253.088C192.001 256.162 191.982 259.245 191.82 262.328C191.762 263.283 191.676 264.333 191.61 265.344C189.343 250.028 183.809 235.379 175.382 222.39C175.268 222.218 174.953 222.39 175.067 222.59C181.078 232.448 185.528 243.177 188.259 254.396C184.097 246.673 177.759 240.326 173.13 232.899C173.13 232.899 173.034 232.899 173.053 232.899C177.253 241.156 184.183 247.676 188.603 255.808C189.366 259.121 189.996 262.49 190.464 265.841C191.087 270.464 191.425 275.122 191.476 279.787C188.819 275.139 186.398 270.36 184.221 265.468C184.164 265.335 183.973 265.468 184.021 265.554C185.787 270.776 188.164 276.388 191.486 280.827C191.486 284.13 191.393 287.429 191.209 290.726C190.693 299.527 189.185 308.213 188.498 316.985C188.498 317.243 188.841 317.281 188.899 316.985C190.671 308.089 191.839 299.083 192.392 290.029Z" fill="#263238"/>
<path d="M183.047 262.252C183.047 262.185 182.933 262.252 182.952 262.252C184.403 266.69 185.629 271.198 186.627 275.759C186.64 275.796 186.666 275.829 186.7 275.849C186.734 275.87 186.774 275.879 186.814 275.873C186.853 275.867 186.89 275.848 186.916 275.818C186.943 275.789 186.959 275.751 186.961 275.711C186.322 271.057 185.003 266.523 183.047 262.252Z" fill="#263238"/>
<path d="M223.873 240.793C222.801 243.399 221.564 245.934 220.17 248.382C217.306 253.642 214.261 258.452 213.717 264.609C213.623 267.345 213.232 270.062 212.552 272.713C211.79 274.979 210.699 277.121 209.317 279.071C206.176 283.633 202.262 287.576 199.351 292.32C196.326 297.263 194.091 302.648 192.727 308.28C192.66 308.595 192.173 308.509 192.249 308.203C192.253 308.181 192.253 308.159 192.249 308.137V308.07C191.791 294.945 192.841 281.715 196.841 269.143C198.61 263.602 200.737 258.182 203.207 252.916C205.221 248.269 208.142 244.069 211.798 240.564C214.232 238.369 219.53 234.198 223.014 236.403C224.656 237.472 224.532 239.152 223.873 240.793Z" fill="#FF9356"/>
<path d="M211.245 264.925C208.353 268.621 205.852 272.607 203.78 276.818C203.78 276.818 203.838 276.923 203.866 276.875C206.377 272.933 208.849 268.972 211.359 265.029C211.398 264.934 211.293 264.867 211.245 264.925Z" fill="#263238"/>
<path d="M155.375 253.231C157.074 256.162 159.012 259.675 158.287 263.197C157.819 265.421 156.196 267.235 155.9 269.497C155.242 274.518 160.234 277.83 163.852 280.197C172.862 286.106 185.224 291.375 186.856 303.45C186.923 303.88 187.658 303.775 187.61 303.355C187.614 303.329 187.614 303.303 187.61 303.278C187.61 303.278 187.61 303.278 187.61 303.202C188.798 297.106 188.742 290.834 187.448 284.76C186.102 278.536 183.382 272.943 180.184 267.483C174.752 258.224 169.016 248.755 160.816 241.662C158.544 239.706 153.896 236.183 152.082 240.603C150.268 245.022 153.294 249.661 155.375 253.231Z" fill="#FF9356"/>
<path d="M163.623 272.847C169.598 279.319 179.096 282.946 184.241 290.191C181.37 279.164 175.941 268.967 168.395 260.428C168.373 260.407 168.356 260.382 168.344 260.354C168.332 260.326 168.325 260.295 168.325 260.265C168.324 260.234 168.33 260.204 168.341 260.175C168.352 260.147 168.369 260.121 168.391 260.099C168.412 260.077 168.437 260.06 168.465 260.048C168.493 260.035 168.524 260.029 168.554 260.029C168.585 260.028 168.615 260.034 168.644 260.045C168.672 260.056 168.698 260.073 168.72 260.094C174.22 265.442 178.62 271.814 181.673 278.851C180.25 273.939 178.384 269.166 176.098 264.59C176.013 264.409 176.261 264.266 176.356 264.438C179.197 269.428 181.227 274.837 182.37 280.464C189.147 296.864 189.777 316.107 188.355 333.403C188.355 333.642 187.954 333.652 187.963 333.403C188.355 319.773 188.135 305.913 184.871 292.597L184.651 291.776C179.058 283.977 169.598 280.321 163.518 272.952C163.46 272.876 163.556 272.78 163.623 272.847Z" fill="#263238"/>
<path d="M162.238 267.273C165.369 270.136 168.462 273.095 171.602 275.969C171.602 275.969 171.602 276.054 171.555 276.026C167.985 273.624 164.772 270.732 162.009 267.435C161.988 267.405 161.979 267.367 161.985 267.33C161.992 267.293 162.012 267.261 162.043 267.239C162.073 267.218 162.111 267.209 162.147 267.215C162.184 267.222 162.217 267.242 162.238 267.273Z" fill="#263238"/>
<path d="M162.184 253.96C164.955 258.51 168.093 262.826 171.567 266.865C171.615 266.922 171.567 266.999 171.491 266.951C167.596 263.245 164.387 258.879 162.012 254.055C162 254.032 161.997 254.006 162.004 253.98C162.011 253.955 162.028 253.934 162.051 253.922C162.073 253.909 162.1 253.906 162.125 253.913C162.15 253.92 162.172 253.937 162.184 253.96Z" fill="#263238"/>
<path d="M175.86 345.593H203.332L199.638 308.633H180.098L175.86 345.593Z" fill="#455A64"/>
<path d="M179.401 314.637H200.239L199.638 308.633H180.089L179.401 314.637Z" fill="#263238"/>
<path d="M176.728 310.437H202.482V304.538H176.728V310.437Z" fill="#455A64"/>
<path d="M72.1196 81.5658C59.8632 91.178 38.8632 117.953 41.5932 124.091C47.1487 136.5 66.0487 151.954 70.8882 154.818C73.7518 156.479 91.3537 137.187 88.6141 135.02C85.4068 132.481 65.8864 119.051 65.6096 117.485C65.3996 116.283 73.2459 101.974 78.8396 89.9562C85.3209 76.039 77.9996 76.9935 72.1196 81.5658Z" fill="#D3766A"/>
<path d="M85.7028 133.713C85.7028 133.713 94.7805 137.798 100.594 140.757C103.839 142.399 109.185 145.721 110.97 148.021C113.7 151.467 122.94 167.599 119.074 169.919C115.58 172.028 109.404 157.156 109.404 157.156C109.404 157.156 116.964 171.608 112.268 173.384C107.571 175.159 102.846 157.414 102.846 157.414C102.846 157.414 110.282 172.439 105.166 173.489C101.348 174.29 96.1074 158.474 96.1074 158.474C96.1074 158.474 102.407 171.427 98.4651 172.419C94.1219 173.508 88.4042 159.209 88.4042 159.209C77.971 160.039 71.2224 156.851 68.5114 151.859C67.9864 150.818 85.7028 133.713 85.7028 133.713Z" fill="#D3766A"/>
<path d="M107.113 151.992C108.068 153.653 109.022 155.333 109.834 157.08C110.645 158.827 111.361 160.593 112.001 162.406C112.873 164.758 113.472 167.201 113.786 169.69C112.898 165.318 110.139 159.027 109.347 157.28C108.555 155.534 107.839 153.758 107.047 152.021C107.018 151.973 107.085 151.954 107.113 151.992Z" fill="#263238"/>
<path d="M100.756 154.76C101.883 156.937 103.076 159.056 104.097 161.289C105.118 163.523 105.892 165.699 106.751 167.971C106.818 168.153 106.703 168.124 106.627 167.971C105.672 165.728 104.622 163.723 103.639 161.49C102.656 159.256 101.73 156.975 100.708 154.808L100.756 154.76Z" fill="#263238"/>
<path d="M94.8854 156.154C96.6812 159.455 98.1334 162.932 99.2191 166.53C99.2763 166.702 99.1332 166.664 99.0568 166.53C97.6822 163.055 96.6322 160.316 94.7709 156.269C94.7422 156.154 94.8377 156.087 94.8854 156.154Z" fill="#263238"/>
<path d="M83.8607 131.154L66.9079 154.779C66.9079 154.779 40.2952 131.422 40.4002 122.64C40.5052 113.858 59.577 90.3476 70.6402 81.8522C81.7034 73.3567 83.7557 80.0576 79.737 89.8894C75.7184 99.7212 66.3352 117.409 66.6407 117.839C66.9461 118.268 83.8607 131.154 83.8607 131.154Z" fill="#FF9356"/>
<path d="M71.1939 139.449C72.4252 137.893 73.6279 136.299 74.8211 134.677C75.3938 133.913 75.9761 133.159 76.5298 132.376C77.0834 131.593 77.7993 130.725 78.3243 129.847C78.3344 129.835 78.3396 129.82 78.3387 129.805C78.3378 129.79 78.3309 129.776 78.3195 129.765C78.3081 129.755 78.2932 129.75 78.278 129.751C78.2628 129.752 78.2485 129.759 78.2384 129.77C77.5129 130.496 76.8734 131.345 76.1957 132.109C75.5179 132.873 74.9643 133.569 74.3629 134.304C73.1029 135.841 71.8334 137.378 70.6116 138.943C68.1489 142.074 65.7911 145.272 63.462 148.489C63.4494 148.505 63.4438 148.526 63.4465 148.547C63.4491 148.567 63.4599 148.586 63.4764 148.599C63.4928 148.611 63.5136 148.617 63.5342 148.614C63.5548 148.612 63.5735 148.601 63.5861 148.584C66.1729 145.616 68.7216 142.571 71.1939 139.449Z" fill="#263238"/>
<path d="M86.4666 320.603C82.763 319.992 78.2671 320.651 75.5084 323.342C75.3939 323.447 75.5085 323.6 75.6612 323.552C79.1617 322.345 82.7807 321.513 86.4571 321.071C86.5113 321.061 86.5604 321.033 86.5962 320.991C86.6319 320.949 86.6521 320.896 86.6532 320.841C86.6543 320.786 86.6364 320.732 86.6024 320.689C86.5683 320.645 86.5204 320.615 86.4666 320.603Z" fill="#263238"/>
<path d="M89.1586 322.149C85.4549 321.539 80.959 322.207 78.2004 324.889C78.0954 324.994 78.2004 325.147 78.3626 325.099C81.8629 323.891 85.482 323.059 89.1586 322.617C89.2125 322.606 89.261 322.577 89.2958 322.534C89.3307 322.492 89.3497 322.438 89.3497 322.383C89.3497 322.328 89.3307 322.275 89.2958 322.232C89.261 322.19 89.2125 322.16 89.1586 322.149Z" fill="#263238"/>
<path d="M91.8504 323.696C88.1564 323.085 83.6604 323.753 80.8923 326.435C80.7873 326.54 80.8923 326.693 81.0545 326.655C84.5535 325.44 88.1729 324.605 91.8504 324.164C91.9044 324.153 91.9529 324.123 91.9877 324.081C92.0226 324.038 92.0416 323.985 92.0416 323.93C92.0416 323.875 92.0226 323.821 91.9877 323.779C91.9529 323.736 91.9044 323.707 91.8504 323.696Z" fill="#263238"/>
<path d="M107.934 340.429C106.025 341.03 50.4037 339.589 48.3228 338.195C47.521 337.67 47.2633 329.604 47.2251 319.753V319.448L83.0874 319.973V320.584C83.0874 320.584 104.087 330.654 106.245 332.43C108.402 334.205 109.891 339.818 107.934 340.429Z" fill="#37474F"/>
<path d="M47.2251 319.438V319.773C47.2251 329.576 47.521 337.68 48.3228 338.205C49.1246 338.73 61.3046 339.484 74.3246 339.952C89.9028 340.496 106.865 340.773 107.934 340.448C109.843 339.837 108.316 334.215 106.206 332.439C104.097 330.664 83.0587 320.584 83.0587 320.584V319.983L71.1365 319.773L47.2251 319.438Z" fill="#FF9356"/>
<path d="M107.361 338.262C97.9973 337.785 60.1878 336.764 50.9 337.002C50.8237 337.002 50.8237 337.059 50.9 337.059C60.1687 337.737 97.9782 338.453 107.352 338.415C107.591 338.415 107.591 338.272 107.361 338.262Z" fill="#263238"/>
<path opacity="0.1" d="M71.1367 319.772C72.0054 325.777 73.3417 334.635 74.3249 339.913C89.9031 340.457 106.865 340.734 107.934 340.41C109.844 339.799 108.316 334.177 106.207 332.401C104.097 330.626 83.059 320.584 83.059 320.584V319.982L71.1367 319.772Z" fill="black"/>
<path d="M43.9893 319.963L84.2043 320.345C84.2043 320.345 95.3915 172.095 85.4452 133.254H55.377C55.377 133.254 47.3111 149.739 51.9215 168.296L50.4802 235.047L43.9893 319.963Z" fill="#37474F"/>
<path d="M46.9674 312.919C48.0311 312.776 49.1017 312.69 50.1747 312.661C51.3583 312.575 52.5419 312.49 53.7351 312.442C56.026 312.346 58.3138 312.295 60.5983 312.289C65.2183 312.289 69.8383 312.289 74.4583 312.451C77.0833 312.537 79.7083 312.642 82.3333 312.795C82.4288 312.795 82.4288 312.957 82.3333 312.957C77.761 313.119 73.1792 313.196 68.5974 313.282C64.0156 313.368 59.4433 313.463 54.871 313.377C53.5538 313.377 52.246 313.377 50.9288 313.263C49.6115 313.148 48.2751 313.263 46.996 313.072C46.9101 313.091 46.8815 312.938 46.9674 312.919Z" fill="#263238"/>
<path d="M81.3121 276.818C81.7798 265.994 82.1234 255.16 82.4194 244.364C83.0112 222.695 83.1671 201.021 82.8871 179.34C82.7344 167.179 82.4098 155.028 82.0471 142.867C82.0471 142.733 82.2571 142.733 82.2666 142.867C83.4121 164.621 83.8512 186.432 83.8798 208.215C83.9085 229.998 83.4503 251.58 82.3812 273.229C81.7798 285.38 81.0353 297.541 79.8994 309.655C79.8994 309.677 79.8903 309.699 79.8742 309.715C79.8581 309.731 79.8362 309.74 79.8135 309.74C79.7907 309.74 79.7688 309.731 79.7527 309.715C79.7366 309.699 79.7275 309.677 79.7275 309.655C80.2239 298.639 80.8635 287.71 81.3121 276.818Z" fill="#263238"/>
<path d="M91.2012 288.082C91.2012 288.082 91.5066 324.45 91.5066 324.469C91.5066 331.428 91.6689 337.518 92.0412 340.696V340.744C92.0512 341.491 92.2307 342.225 92.5662 342.892C92.5662 342.892 92.5662 342.892 92.5662 342.94C94.6375 344.333 150.221 345.803 152.178 345.173C154.134 344.543 152.569 338.95 150.459 337.174C148.35 335.399 127.302 325.328 127.302 325.328L126.682 288.96L91.2012 288.082Z" fill="#D3766A"/>
<path d="M91.4399 317.004C91.4399 317.004 91.5068 324.45 91.5068 324.469C91.5068 331.428 91.669 337.518 92.0413 340.696V340.744C92.1289 341.478 92.3052 342.2 92.5663 342.892C92.5663 342.892 92.5663 342.892 92.5663 342.939C94.6377 344.333 150.221 345.803 152.178 345.173C154.134 344.543 152.569 338.949 150.459 337.174C148.35 335.398 127.302 325.328 127.302 325.328V317.749L91.4399 317.004Z" fill="white"/>
<path d="M130.748 325.319C127.045 324.708 122.549 325.376 119.79 328.058C119.675 328.163 119.79 328.316 119.952 328.278C123.448 327.062 127.064 326.226 130.739 325.786C130.793 325.777 130.842 325.748 130.878 325.706C130.913 325.664 130.934 325.611 130.935 325.556C130.936 325.501 130.918 325.448 130.884 325.404C130.85 325.361 130.802 325.331 130.748 325.319Z" fill="#263238"/>
<path d="M133.44 326.865C129.736 326.254 125.24 326.922 122.481 329.605C122.376 329.71 122.529 329.862 122.644 329.824C126.144 328.613 129.763 327.777 133.44 327.333C133.494 327.322 133.542 327.293 133.577 327.25C133.612 327.207 133.631 327.154 133.631 327.099C133.631 327.044 133.612 326.99 133.577 326.948C133.542 326.905 133.494 326.876 133.44 326.865Z" fill="#263238"/>
<path d="M136.141 328.411C132.437 327.81 127.942 328.468 125.173 331.151C125.068 331.256 125.221 331.408 125.336 331.37C128.836 330.16 132.455 329.325 136.132 328.879C136.186 328.869 136.235 328.841 136.271 328.799C136.306 328.757 136.327 328.704 136.328 328.649C136.329 328.594 136.311 328.54 136.277 328.497C136.243 328.453 136.195 328.423 136.141 328.411Z" fill="#263238"/>
<path d="M152.215 345.144C150.259 345.755 94.685 344.304 92.6041 342.911C91.8023 342.395 91.5445 334.32 91.5063 324.469V324.164L127.369 324.698V325.299C127.369 325.299 148.369 335.37 150.526 337.155C152.683 338.94 154.172 344.591 152.215 345.144Z" fill="#FF9356"/>
<path d="M151.643 342.978C142.279 342.5 104.47 341.479 95.1818 341.717C95.1054 341.717 95.1054 341.775 95.1818 341.784C104.45 342.453 142.26 343.168 151.634 343.13C151.834 343.13 151.844 342.987 151.643 342.978Z" fill="#263238"/>
<path d="M72.8261 171.751C72.8261 171.751 85.178 225.368 84.8439 233.31C84.5098 241.452 88.8339 325.07 88.8339 325.07L130.595 325.319C130.595 325.319 127.073 240.049 126.414 231.563C125.202 215.679 111.285 172.095 101.338 133.245H56.3125C56.3125 133.245 56.7039 153.577 65.9534 168.286C65.9534 168.305 70.1439 170.243 72.8261 171.751Z" fill="#37474F"/>
<path d="M58.5078 164.573C61.9251 166.482 65.476 168.162 69.0078 169.842C70.7832 170.682 72.5651 171.503 74.3532 172.305C75.2505 172.706 76.1287 173.164 77.0451 173.527C77.9614 173.89 78.7537 174.185 79.5842 174.596C79.5956 174.606 79.6038 174.619 79.6076 174.634C79.6114 174.649 79.6107 174.664 79.6056 174.679C79.6005 174.693 79.5911 174.706 79.5788 174.715C79.5665 174.724 79.5517 174.729 79.5364 174.729C78.5933 174.601 77.6615 174.4 76.7491 174.128C75.8901 173.88 75.0119 173.699 74.1528 173.441C75.0501 176.725 75.6323 180.123 76.3101 183.425C77.0641 187.062 77.7896 190.709 78.5246 194.355C79.9946 201.635 81.4582 208.921 82.9155 216.214C83.6314 219.765 84.3855 223.316 84.9105 226.895C85.4084 230.502 85.6825 234.136 85.7314 237.777C85.9223 245.175 86.0082 252.573 86.1132 259.97C86.2373 268.294 86.3137 276.627 86.1991 284.951C86.1991 285.075 86.0082 285.065 86.0082 284.951C85.1682 270.194 84.8246 255.408 84.4905 240.631C84.4046 236.975 84.3473 233.31 83.9369 229.683C83.5264 226.055 82.8296 222.571 82.1137 219.049C80.6437 211.795 79.1546 204.553 77.6464 197.324C76.8255 193.257 75.9887 189.21 75.136 185.182C74.716 183.129 74.3151 181.087 73.9046 179.034C73.4941 176.982 73.1028 175.073 72.8546 173.069C71.3237 172.55 69.82 171.954 68.3491 171.284C64.7491 169.583 61.3651 167.458 58.2691 164.955C58.0973 164.764 58.2787 164.44 58.5078 164.573Z" fill="#263238"/>
<path d="M89.5495 317.377C94.5705 317.233 99.7727 317.09 104.822 317.214C109.872 317.338 114.797 317.405 119.77 317.692C122.634 317.854 125.402 317.94 128.218 318.207C128.233 318.212 128.245 318.222 128.254 318.235C128.263 318.248 128.268 318.263 128.268 318.279C128.268 318.294 128.263 318.309 128.254 318.322C128.245 318.335 128.233 318.345 128.218 318.35C123.197 318.637 118.157 318.579 113.136 318.532C108.115 318.484 103.171 318.436 98.1882 318.217C95.3245 318.092 92.5564 317.959 89.7405 317.768C89.4541 317.749 89.2441 317.377 89.5495 317.377Z" fill="#263238"/>
<path d="M98.0453 167.198C99.4389 171.856 100.613 176.591 101.863 181.287C103.114 185.984 104.383 190.756 105.682 195.5C108.097 204.674 110.454 213.856 112.297 223.182C114.15 232.525 115.197 242.01 115.428 251.532C115.638 261.24 115.428 270.957 115.37 280.665C115.313 290.373 115.218 300.185 115.055 309.941C115.055 311.153 115.055 312.365 114.96 313.578C114.954 313.597 114.941 313.613 114.925 313.625C114.909 313.637 114.889 313.643 114.869 313.643C114.849 313.643 114.829 313.637 114.813 313.625C114.797 313.613 114.785 313.597 114.778 313.578C114.521 303.87 114.654 294.143 114.693 284.435C114.731 274.728 114.845 265.01 114.769 255.303C114.732 245.664 113.899 236.044 112.278 226.542C110.636 217.197 108.335 207.995 105.939 198.813C104.584 193.582 103.2 188.313 101.844 183.12C100.489 177.927 98.9807 172.62 97.8066 167.284C97.8127 167.26 97.8247 167.237 97.8415 167.219C97.8583 167.2 97.8795 167.186 97.9031 167.177C97.9266 167.169 97.9519 167.166 97.9767 167.17C98.0016 167.174 98.0251 167.183 98.0453 167.198Z" fill="#263238"/>
<path d="M89.4543 87.1595C86.4475 87.6654 81.0448 82.3868 79.2789 78.5686C79.1643 78.3109 79.718 75.705 80.2334 72.4691C80.5389 70.56 80.8443 68.3263 80.978 66.3218L93.3871 70.2163C92.502 72.6818 91.9218 75.2463 91.6593 77.8527C91.6352 78.129 91.6352 78.4068 91.6593 78.6831C91.6593 78.6831 91.6593 78.7691 91.6593 78.8168C91.9171 80.4395 92.3943 86.6727 89.4543 87.1595Z" fill="#D3766A"/>
<path d="M91.7545 78.7212C91.7545 78.7212 91.7545 78.8071 91.7545 78.8644C91.3223 78.8926 90.8886 78.8926 90.4564 78.8644C83.0395 78.0721 81.6459 69.634 81.3882 66.4553L93.4441 70.2735C92.5604 72.7394 91.9802 75.3037 91.7164 77.9099C91.7104 78.1809 91.7231 78.452 91.7545 78.7212Z" fill="#263238"/>
<path d="M77.3986 53.1204C76.6349 57.7499 80.7013 70.3022 84.2427 72.7172C89.3781 76.249 96.9381 75.6477 99.7254 69.6722C102.427 63.8686 96.8617 47.6413 92.9672 45.5127C87.259 42.3722 78.5249 46.2858 77.3986 53.1204Z" fill="#D3766A"/>
<path d="M91.44 59.1816C91.44 59.1816 91.44 59.2389 91.44 59.2771C91.7263 60.1171 91.9077 61.1289 91.23 61.6444C91.23 61.6444 91.23 61.7016 91.23 61.6921C92.1082 61.2244 91.8504 59.888 91.44 59.1816Z" fill="#263238"/>
<path d="M90.4088 58.4752C89.0056 58.7902 89.7406 61.5584 91.0292 61.2721C92.3179 60.9857 91.5829 58.2271 90.4088 58.4752Z" fill="#263238"/>
<path d="M96.2603 57.855C96.2603 57.855 96.3366 57.855 96.3462 57.9218C96.5466 58.7809 96.9189 59.745 97.7684 59.8309V59.8786C96.7853 59.9836 96.308 58.7141 96.2603 57.855Z" fill="#263238"/>
<path d="M96.7948 56.7667C98.1407 56.2989 98.9807 59.0385 97.7493 59.468C96.518 59.8976 95.6589 57.158 96.7948 56.7667Z" fill="#263238"/>
<path d="M88.9866 57.5016C89.3398 57.3011 89.6357 57.0721 89.9412 56.843C90.2466 56.6139 90.6284 56.4134 90.8003 55.9839C90.8375 55.8548 90.8304 55.7171 90.7803 55.5925C90.7301 55.468 90.6397 55.3638 90.5234 55.2966C90.2742 55.1983 90.0034 55.1676 89.7385 55.2079C89.4736 55.2481 89.224 55.3578 89.0152 55.5257C88.5523 55.8089 88.2118 56.2549 88.0607 56.7761C88.0284 56.8972 88.0323 57.0251 88.0721 57.1439C88.1118 57.2627 88.1855 57.3673 88.2842 57.4445C88.3828 57.5218 88.5019 57.5684 88.6268 57.5785C88.7517 57.5887 88.8768 57.5619 88.9866 57.5016Z" fill="#263238"/>
<path d="M97.4918 55.0866C97.1008 55.1105 96.7087 55.1105 96.3177 55.0866C95.9066 55.151 95.4858 55.0736 95.1245 54.8671C95.0217 54.7806 94.9507 54.6622 94.9231 54.5307C94.8954 54.3992 94.9125 54.2622 94.9718 54.1416C95.12 53.9185 95.3264 53.74 95.5686 53.6256C95.8109 53.5112 96.0798 53.4652 96.3463 53.4925C96.8896 53.4569 97.4268 53.6235 97.8545 53.9603C97.9514 54.0421 98.0219 54.1509 98.0568 54.2728C98.0918 54.3947 98.0897 54.5243 98.0508 54.6451C98.0119 54.7658 97.938 54.8723 97.8385 54.9509C97.7389 55.0295 97.6182 55.0768 97.4918 55.0866Z" fill="#263238"/>
<path d="M92.5756 67.1713C92.8334 67.3144 93.1102 67.5435 93.4347 67.4863C93.7493 67.3937 94.0417 67.2378 94.2938 67.0281C94.2938 67.0281 94.3606 67.0281 94.3511 67.0281C94.2742 67.2278 94.1451 67.4032 93.9771 67.5359C93.8092 67.6686 93.6087 67.7536 93.3965 67.7822C93.2108 67.7801 93.0297 67.724 92.8754 67.6206C92.7211 67.5171 92.6003 67.3709 92.5279 67.1999C92.4802 67.1808 92.5374 67.1522 92.5756 67.1713Z" fill="#263238"/>
<path d="M92.8048 64.3649C93.1118 64.6472 93.4736 64.8633 93.8678 64.9996C94.2619 65.1359 94.6799 65.1895 95.0957 65.1571C95.4519 65.12 95.8016 65.0366 96.1362 64.909L96.3271 64.8326L96.5085 64.7562C96.5517 64.7346 96.5869 64.6999 96.6092 64.657C96.6315 64.6142 96.6397 64.5654 96.6325 64.5176C96.6361 64.4891 96.6361 64.4602 96.6325 64.4317V64.3553C96.4798 63.6871 96.1457 62.704 96.1457 62.704C96.4225 62.7612 97.7971 62.9903 97.6921 62.6467C96.8282 59.6908 95.6706 56.8288 94.2366 54.1035C94.2249 54.0883 94.2085 54.0775 94.1899 54.0728C94.1714 54.068 94.1517 54.0696 94.1342 54.0773C94.1166 54.085 94.1021 54.0983 94.093 54.1151C94.0839 54.132 94.0807 54.1514 94.0839 54.1703C94.8666 56.9003 96.1171 59.4871 96.9475 62.2267C96.4563 62.1377 95.955 62.1184 95.4585 62.1694C95.3725 62.2171 96.1266 64.0785 96.1744 64.3744C95.6481 64.5694 95.0883 64.6571 94.5276 64.6325C93.967 64.6079 93.417 64.4715 92.9098 64.2312C92.7953 64.2312 92.738 64.3076 92.8048 64.3649Z" fill="#263238"/>
<path d="M95.6876 64.6894C95.4472 65.2562 95.0661 65.7523 94.5804 66.1307C94.3043 66.3344 93.9689 66.4417 93.6258 66.4362C92.8908 66.4362 92.6713 65.8157 92.6713 65.243C92.6631 64.9384 92.6919 64.6339 92.7572 64.3362C93.6695 64.7698 94.6984 64.8938 95.6876 64.6894Z" fill="#263238"/>
<path d="M94.58 66.1309C94.3039 66.3345 93.9685 66.4419 93.6254 66.4363C92.8904 66.4363 92.6709 65.8159 92.6709 65.2431C93.0427 65.1496 93.4353 65.1867 93.7829 65.3484C94.1305 65.51 94.412 65.7863 94.58 66.1309Z" fill="#FF97B8"/>
<path d="M79.9086 63.1908C83.0873 62.4654 82.4095 56.509 82.4095 56.509C82.4095 56.509 87.6786 54.3899 87.545 50.0944C87.545 50.0944 93.4823 52.2422 97.2336 49.8463C100.985 47.4504 99.1427 43.0213 98.4173 42.1335C97.6918 41.2458 95.8973 43.594 95.8973 43.594C95.8973 43.594 95.0477 41.0358 94.2936 40.9308C93.5395 40.8258 93.1291 42.5726 93.1291 42.5726C89.6526 42.2581 86.1485 42.4673 82.7341 43.1931C77.9614 44.3958 76.7109 49.7413 76.7109 49.7413C76.7109 49.7413 74.2768 50.8581 73.8473 52.8244C73.4177 54.7908 77.885 63.649 79.9086 63.1908Z" fill="#263238"/>
<path d="M87.3161 49.3403C87.4733 50.1858 87.4733 51.053 87.3161 51.8985C87.1645 52.721 86.7916 53.4866 86.2374 54.1131C85.6449 54.7117 84.9456 55.194 84.1756 55.5353C83.7843 55.7071 83.3738 55.8408 82.9729 55.9935C82.572 56.1462 82.1329 56.2131 81.7129 56.3467C82.152 56.3467 82.5815 56.2417 83.0206 56.194C83.4597 56.1462 83.8797 55.984 84.2997 55.8408C85.1628 55.545 85.9465 55.0551 86.5906 54.409C87.2018 53.7247 87.5854 52.8675 87.6883 51.9558C87.7787 51.0667 87.6509 50.1689 87.3161 49.3403Z" fill="#263238"/>
<path d="M76.8351 50.4285C76.8313 49.0212 77.2001 47.638 77.9042 46.4195C78.6067 45.2263 79.6791 44.2947 80.9587 43.7658C81.2675 43.6188 81.5865 43.4943 81.9133 43.3936L82.9251 43.1454C83.6028 43.0117 84.3092 42.9831 85.006 42.9067C85.7028 42.8304 86.4092 42.9067 87.1155 42.9067C87.8219 42.9067 88.5187 43.0404 89.2251 43.0881C88.5378 42.9449 87.8314 42.8304 87.1346 42.6967C86.4378 42.5631 85.7124 42.6013 84.9965 42.544C83.5518 42.5296 82.1184 42.7988 80.7774 43.3363C79.4303 43.913 78.3124 44.9201 77.5987 46.1999C76.9213 47.4994 76.6549 48.9742 76.8351 50.4285Z" fill="#263238"/>
<path d="M90.275 64.3554C89.5095 64.4644 88.7288 64.357 88.0212 64.0453C87.3136 63.7337 86.7073 63.2302 86.271 62.5919C85.8347 61.9535 85.5857 61.2058 85.5522 60.4333C85.5188 59.6609 85.7022 58.8944 86.0817 58.2208C86.4612 57.5471 87.0216 56.9931 87.6996 56.6214C88.3776 56.2497 89.1461 56.0752 89.9182 56.1176C90.6902 56.16 91.435 56.4176 92.0683 56.8612C92.7015 57.3049 93.1979 57.917 93.5014 58.6281C93.7488 59.2128 93.8589 59.8464 93.8231 60.4802C93.7874 61.1141 93.6068 61.7313 93.2952 62.2844C92.9836 62.8375 92.5493 63.3118 92.0257 63.6708C91.5022 64.0299 90.9033 64.2641 90.275 64.3554ZM89.1487 56.7191C88.4075 56.8241 87.7178 57.1583 87.176 57.6749C86.6342 58.1914 86.2674 58.8644 86.1271 59.5997C85.9867 60.335 86.0798 61.0957 86.3932 61.7755C86.7067 62.4553 87.2248 63.02 87.8752 63.3907C88.5255 63.7614 89.2755 63.9195 90.0201 63.8428C90.7647 63.7662 91.4667 63.4586 92.0279 62.9631C92.5891 62.4677 92.9813 61.8092 93.1496 61.0799C93.318 60.3505 93.2541 59.5867 92.9669 58.8954C92.6608 58.1603 92.1207 57.5467 91.4304 57.1497C90.74 56.7528 89.938 56.5947 89.1487 56.7V56.7191Z" fill="#FF9356"/>
<path d="M99.4482 61.845C97.8827 62.0741 96.2218 60.6709 95.63 58.5804C95.3433 57.5868 95.3767 56.5281 95.7254 55.5545C95.8494 55.127 96.0816 54.7386 96.3996 54.427C96.7176 54.1155 97.1106 53.8913 97.5407 53.7761C97.9707 53.6609 98.4232 53.6586 98.8543 53.7695C99.2855 53.8804 99.6807 54.1007 100.002 54.4091C100.787 55.0827 101.344 55.9831 101.596 56.9864C102.188 59.1914 101.329 61.3486 99.6868 61.7591C99.6102 61.7952 99.5303 61.824 99.4482 61.845ZM97.9209 54.2754H97.7109C97.3735 54.3841 97.0668 54.5715 96.8162 54.8221C96.5656 55.0728 96.3782 55.3794 96.2695 55.7168C95.9704 56.5821 95.9438 57.5182 96.1932 58.3991C96.7086 60.3082 98.2168 61.5777 99.5723 61.215C100.928 60.8523 101.596 59.0004 101.09 57.0914C100.868 56.1999 100.374 55.3995 99.6773 54.8004C99.4361 54.5972 99.1558 54.4458 98.8536 54.3554C98.5515 54.2651 98.234 54.2379 97.9209 54.2754Z" fill="#FF9356"/>
<path d="M93.4919 59.1817L93.0337 58.8571C93.511 58.189 94.7232 57.1294 95.9832 57.9026L95.6873 58.3703C94.5705 57.6544 93.5301 59.0958 93.4919 59.1817Z" fill="#FF9356"/>
<path d="M76.7494 64.9091L76.2148 64.7946C76.2721 64.5368 76.7876 62.3127 77.9235 61.7973C79.0594 61.2818 85.5598 60.1268 85.8367 60.0791L85.9321 60.6232C83.31 61.0397 80.7129 61.6006 78.1526 62.3032C77.3985 62.6373 76.883 64.2982 76.7494 64.9091Z" fill="#FF9356"/>
<path d="M81.5411 63.2196C81.5411 63.2196 78.0093 59.5255 76.2911 60.8427C74.573 62.16 77.6657 67.83 80.0043 68.3168C80.3021 68.4056 80.6149 68.4323 80.9235 68.3954C81.232 68.3585 81.5297 68.2586 81.7981 68.102C82.0665 67.9455 82.2999 67.7355 82.4839 67.4851C82.668 67.2348 82.7987 66.9493 82.868 66.6464L81.5411 63.2196Z" fill="#D3766A"/>
<path d="M49.4301 149.367C49.5542 149.52 107.533 152.641 108.087 152.068C108.87 151.267 103.314 93.5835 92.566 82.1576C89.9219 79.3417 80.8251 76.1726 77.9423 78.0912C70.4492 83.0453 66.1155 93.9271 63.3092 100.227C60.5531 107.054 58.2009 114.038 56.2646 121.141C52.3319 134.696 48.9814 148.794 49.4301 149.367Z" fill="#FF9356"/>
<path d="M64.3022 97.3635C62.0208 102.604 59.8635 107.864 58.0499 113.295C56.2363 118.726 54.6613 124.148 53.2772 129.665C52.504 132.844 51.8263 136.023 51.3013 139.211C51.3067 139.225 51.3165 139.238 51.3293 139.247C51.3421 139.256 51.3573 139.261 51.3729 139.261C51.3884 139.261 51.4037 139.256 51.4165 139.247C51.4293 139.238 51.439 139.225 51.4445 139.211C52.9622 133.732 54.4035 128.234 56.0072 122.774C57.6108 117.314 59.4149 111.863 61.2381 106.432C62.2499 103.396 63.3095 100.361 64.4358 97.354C64.5026 97.2967 64.3404 97.2299 64.3022 97.3635Z" fill="#263238"/>
<path d="M84.6814 91.9704C93.8737 104.112 113.05 125.761 123.885 125.876C135.339 125.99 158.592 111.558 164.835 107.358C167.479 105.554 152.788 86.8254 149.562 88.0185C146.335 89.2117 126.319 101.382 123.789 101.812C121.26 102.241 103.572 89.3072 92.0887 82.549C78.6582 74.6072 77.255 82.0908 84.6814 91.9704Z" fill="#D3766A"/>
<path d="M141.152 92.9344C142.403 91.5312 148.407 81.2985 151.118 79.0362C153.829 76.774 165.751 72.679 168.777 72.4117C171.803 72.1444 182.541 75.199 184.489 77.0794C186.054 78.5972 183.401 82.2435 177.282 81.7662C171.555 81.3272 170.218 80.9453 168.576 81.2126C166.935 81.4799 162.047 85.4794 162.496 87.8944C162.763 89.3167 166.104 91.7126 168.672 91.2735C171.24 90.8344 172.786 88.2667 175.965 86.7681C179.143 85.2694 182.856 85.9185 183.162 87.2072C183.677 89.3453 181.959 89.5458 178.513 93.2303C176.289 95.5881 174.695 100.265 170.066 104.122C167.727 106.031 160.167 110.403 160.167 110.403L141.152 92.9344Z" fill="#D3766A"/>
<path d="M168.768 100.447L187.992 101.535C188.631 100.352 189.029 99.0542 189.166 97.7167C189.386 93.8985 190.035 82.3199 190.035 82.3199L170.81 81.2317C170.81 81.2317 170.142 92.9344 169.923 96.829C169.754 98.0935 169.363 99.3182 168.768 100.447Z" fill="#37474F"/>
<path d="M173.015 85.8135C175.287 85.8135 177.549 85.928 179.812 86.0998C182.074 86.2717 184.327 86.5008 186.57 86.8635C184.298 86.8635 182.036 86.7394 179.773 86.5771C177.511 86.4148 175.258 86.1667 173.015 85.8135Z" fill="white"/>
<path d="M172.824 88.343C174.867 88.343 176.9 88.4289 178.933 88.5721C180.967 88.7153 182.99 88.9444 185.004 89.288C182.962 89.288 180.928 89.2021 178.895 89.0494C176.862 88.8966 174.838 88.6867 172.824 88.343Z" fill="white"/>
<path d="M172.624 90.8726C174.419 90.8726 176.194 90.9203 177.969 91.0444C179.745 91.1685 181.52 91.3785 183.286 91.703C179.715 91.7381 176.147 91.4602 172.624 90.8726Z" fill="white"/>
<path d="M172.433 93.4021C174.705 93.4021 176.967 93.5262 179.22 93.6885C181.473 93.8507 183.735 94.0989 185.978 94.4521C183.706 94.4521 181.444 94.3375 179.182 94.1657C176.919 93.9939 174.676 93.7648 172.433 93.4021Z" fill="white"/>
<path d="M151.118 79.0363C154.249 76.0677 161.618 71.1327 167.823 70.3691C172.042 69.8536 183.678 79.5995 182.666 82.0336C181.654 84.4677 179.382 83.9427 176.127 82.6827C174.944 82.2341 169.064 78.3109 167.632 79.3895C165.56 80.9454 161.905 87.0927 161.905 87.0927L151.118 79.0363Z" fill="#D3766A"/>
<path d="M182.58 80.9644C181.625 77.843 178.38 75.5044 175.086 73.4712C175.039 73.4712 174.981 73.5189 175.039 73.5476C175.869 74.0726 181.043 78.2057 182.532 81.0026C182.551 81.0312 182.589 80.993 182.58 80.9644Z" fill="#263238"/>
<path d="M151.118 79.0363C154.249 76.0677 161.618 71.1327 167.823 70.3691C172.042 69.8536 180.461 80.7163 179.449 83.1504C178.437 85.5845 175.135 84.9832 171.813 82.8354C170.753 82.1386 167.536 78.435 166.085 79.5136C164.014 81.06 158.955 84.9354 158.955 84.9354L151.118 79.0363Z" fill="#D3766A"/>
<path d="M174.695 84.2673C173.27 83.6377 171.99 82.7214 170.934 81.5755C170.093 80.5816 169.052 79.7751 167.88 79.2082C167.349 79.0021 166.766 78.9753 166.219 79.1318C165.666 79.3569 165.158 79.6803 164.72 80.0864C164.176 80.5064 163.67 80.955 163.164 81.4037C162.658 81.8523 162.477 82.0337 161.981 82.5014C161.771 82.6923 161.923 82.8164 162.162 82.6064C163.013 81.8579 163.933 81.193 164.911 80.6209C165.386 80.2643 165.91 79.9782 166.467 79.7714C167.062 79.6438 167.683 79.757 168.195 80.0864C169.283 80.7355 170.104 81.7568 171.144 82.4918C172.17 83.3702 173.371 84.0209 174.667 84.4009C174.733 84.3818 174.743 84.2864 174.695 84.2673Z" fill="#263238"/>
<path d="M179.516 80.4013C178.928 78.9528 178.077 77.6259 177.005 76.4877C175.961 75.2751 174.822 74.1483 173.597 73.1181C172.967 72.5836 172.328 72.0681 171.688 71.5622C171.099 71.0228 170.421 70.5899 169.684 70.2831C167.603 69.6531 165.217 70.789 164.291 71.0849C164.233 71.0849 164.291 71.1995 164.291 71.1804C165.054 70.9418 167.517 70.1495 168.815 70.4836C169.599 70.7347 170.321 71.1477 170.934 71.6958C171.488 72.1445 172.042 72.5931 172.586 73.0513C174.92 74.8723 176.905 77.1004 178.447 79.6281C179.239 81.0504 179.63 82.7495 178.59 84.1431C178.59 84.1431 178.59 84.2386 178.666 84.2099C179.176 83.7354 179.53 83.1174 179.682 82.4374C179.834 81.7575 179.776 81.0476 179.516 80.4013Z" fill="#263238"/>
<path d="M148.693 81.6993C149.934 80.2198 153.046 73.6525 154.907 71.8675C156.769 70.0825 164.692 64.2311 167.46 65.2811C170.944 66.5698 165.608 72.0871 163.078 74.2825C160.549 76.478 159.728 81.0598 159.728 81.0598L148.693 81.6993Z" fill="#D3766A"/>
<path d="M166.773 70.5314C165.901 71.226 165.067 71.9652 164.272 72.7459C163.467 73.4343 162.714 74.1809 162.019 74.9795C161.207 76.31 160.566 77.737 160.11 79.2273C159.69 81.5755 159.155 86.5868 158.01 91.2927C157.574 93.069 156.926 94.7867 156.082 96.4091C155.862 96.81 155.843 97.1727 156.225 96.6C159.814 91.245 160.463 80.9741 160.835 79.3418C161.223 77.9089 161.828 76.544 162.63 75.2946C163.928 73.6336 165.57 72.2686 166.887 70.6173C166.944 70.56 166.839 70.4836 166.773 70.5314Z" fill="#263238"/>
<path d="M140.895 92.4668L157.504 114.364C157.504 114.364 131.578 129.828 120.277 126.515C108.975 123.203 89.168 100.781 82.7725 90.3C76.377 79.8191 80.9398 75.3136 91.6498 81.7091C102.36 88.1045 122.367 100.523 123.15 100.8C123.933 101.077 140.895 92.4668 140.895 92.4668Z" fill="#FF9356"/>
<path d="M143.93 105.955C142.775 104.332 141.582 102.738 140.389 101.182C139.826 100.418 139.253 99.6545 138.661 98.91C138.069 98.1654 137.42 97.23 136.752 96.4759C136.704 96.4186 136.628 96.4759 136.666 96.5427C137.153 97.44 137.792 98.28 138.337 99.1486C138.881 100.017 139.396 100.733 139.94 101.525C141.067 103.167 142.183 104.809 143.348 106.422C145.667 109.649 148.121 112.808 150.536 115.968C150.593 116.035 150.707 115.968 150.66 115.882C148.455 112.484 146.24 109.19 143.93 105.955Z" fill="#263238"/>
<path d="M130.156 126C127.316 126.995 124.253 127.173 121.317 126.515C118.144 125.733 115.2 124.212 112.726 122.077C107.021 117.601 101.678 112.683 96.7469 107.367C93.9501 104.351 91.2201 101.239 88.6714 97.9936C88.667 97.9873 88.6615 97.982 88.655 97.9779C88.6486 97.9738 88.6414 97.971 88.6338 97.9696C88.6263 97.9683 88.6186 97.9685 88.6111 97.9701C88.6036 97.9718 88.5965 97.9749 88.5903 97.9793C88.584 97.9837 88.5787 97.9892 88.5746 97.9957C88.5704 98.0022 88.5676 98.0093 88.5663 98.0169C88.565 98.0244 88.5652 98.0321 88.5668 98.0396C88.5685 98.0471 88.5716 98.0541 88.576 98.0604C90.2496 100.46 92.006 102.785 93.8451 105.038L93.3869 104.637C92.4323 103.788 91.5351 102.967 90.6091 102.127C90.4755 102.003 90.3228 102.213 90.4373 102.337C91.2827 103.26 92.1747 104.139 93.1101 104.971C93.8164 105.582 94.5323 106.241 95.3055 106.795C97.7819 109.715 100.414 112.5 103.19 115.137C105.93 117.743 108.774 120.234 111.781 122.564C114.425 124.635 117.174 126.506 120.515 127.203C123.797 127.826 127.19 127.457 130.261 126.143C130.29 126.134 130.242 126 130.156 126Z" fill="#263238"/>
</svg>
