<svg width="60" height="60" viewBox="0 0 60 60" fill="none" xmlns="http://www.w3.org/2000/svg">
<path d="M30 6.25C23.7011 6.25 17.6602 8.75222 13.2062 13.2062C8.75222 17.6602 6.25 23.7011 6.25 30C6.25 36.2989 8.75222 42.3398 13.2062 46.7938C17.6602 51.2478 23.7011 53.75 30 53.75C36.2989 53.75 42.3398 51.2478 46.7938 46.7938C51.2478 42.3398 53.75 36.2989 53.75 30C53.75 23.7011 51.2478 17.6602 46.7938 13.2062C42.3398 8.75222 36.2989 6.25 30 6.25Z" fill="#039BE5"/>
<path d="M33.215 36.2952H39.3613L40.3263 30.0515H33.2138V26.639C33.2138 24.0452 34.0613 21.7452 36.4875 21.7452H40.3863V16.2965C39.7013 16.204 38.2525 16.0015 35.515 16.0015C29.7988 16.0015 26.4475 19.0202 26.4475 25.8977V30.0515H20.5713V36.2952H26.4475V53.4565C27.6113 53.6315 28.79 53.7502 30 53.7502C31.0938 53.7502 32.1613 53.6502 33.215 53.5077V36.2952Z" fill="white"/>
</svg>
