<svg xmlns="http://www.w3.org/2000/svg" width="135.178" height="26.755" viewBox="0 0 135.178 26.755">
  <g id="facebook-1" transform="translate(0)">
    <g id="Group_86" data-name="Group 86" transform="translate(0 0)">
      <path id="Path_131" data-name="Path 131" d="M98.383,41.822a6.178,6.178,0,0,0-2.737.739V51a17.8,17.8,0,0,0,1.971.074c2.679,0,3.046-1.227,3.046-2.94V44.1C100.663,42.838,100.244,41.822,98.383,41.822Zm-17.793-.46c-1.859,0-2.283,1.02-2.283,2.284v.71h4.564v-.71C82.871,42.382,82.447,41.362,80.59,41.362ZM46.123,50.144a1.332,1.332,0,0,0,1.513,1.519,5.546,5.546,0,0,0,2.593-.738v-2H47.787c-1.156,0-1.664.215-1.664,1.221Zm69.568-8.322c-1.862,0-2.507,1.016-2.507,2.281V48.72c0,1.268.645,2.287,2.507,2.287s2.507-1.019,2.507-2.287V44.1C118.2,42.838,117.547,41.822,115.691,41.822ZM37,55.321H31.525V42.073H28.79V37.508h2.735V34.767c0-3.725,1.544-5.939,5.931-5.939h3.653v4.566H38.826c-1.708,0-1.821.638-1.821,1.829L37,37.508h4.136l-.484,4.565H37Zm18.705.034H51.142l-.2-1.154a10.455,10.455,0,0,1-5.168,1.341c-3.345,0-5.126-2.235-5.126-5.326,0-3.646,2.078-4.948,5.795-4.948h3.783v-.788c0-1.861-.213-2.408-3.076-2.408h-4.68l.457-4.565h5.115c6.28,0,7.657,1.984,7.657,7.009V55.355ZM71.215,42.408a26.108,26.108,0,0,0-5.02-.594c-2.453,0-3.195.541-3.195,2.625V48.38c0,2.083.741,2.627,3.195,2.627a26.05,26.05,0,0,0,5.02-.6v4.453a24.194,24.194,0,0,1-5.475.7c-5.876,0-8.212-3.09-8.212-7.554v-3.2c0-4.468,2.336-7.564,8.212-7.564a24.091,24.091,0,0,1,5.475.707v4.45Zm17.128,5.6H78.307v.368c0,2.083.742,2.627,3.195,2.627a31.911,31.911,0,0,0,6.384-.6v4.453a28.777,28.777,0,0,1-6.838.7c-5.877,0-8.214-3.09-8.214-7.554V44.356c0-3.906,1.734-7.1,7.756-7.1s7.754,3.162,7.754,7.1Zm17.792.084c0,4.315-1.233,7.462-8.7,7.462a41.316,41.316,0,0,1-7.258-.7V30.2l5.471-.913v8.627a12.422,12.422,0,0,1,4.106-.663c5.472,0,6.384,2.453,6.384,6.4V48.1Zm17.539.094c0,3.722-1.537,7.332-7.966,7.332s-8-3.61-8-7.332V44.6c0-3.724,1.565-7.335,8-7.335s7.966,3.611,7.966,7.335V48.19Zm17.527,0c0,3.722-1.539,7.332-7.967,7.332s-8-3.61-8-7.332V44.6c0-3.724,1.565-7.335,8-7.335S141.2,40.873,141.2,44.6V48.19Zm17.987,7.131h-5.931l-5.016-8.373v8.373h-5.473V30.2l5.473-.913V45.459l5.016-7.95h5.931l-5.476,8.676Zm-25.972-13.5c-1.859,0-2.5,1.016-2.5,2.281V48.72c0,1.268.645,2.287,2.5,2.287s2.513-1.019,2.513-2.287V44.1c0-1.265-.657-2.281-2.513-2.281Zm29.1,10.374a1.676,1.676,0,1,1-.007,0Zm-.007.263a1.432,1.432,0,0,0,.007,2.861,1.433,1.433,0,0,0,0-2.861Zm-.315,2.411h-.3V52.984a3.462,3.462,0,0,1,.533-.044,1,1,0,0,1,.586.142.455.455,0,0,1,.17.39.469.469,0,0,1-.366.459v.014c.165.031.277.18.315.457a1.569,1.569,0,0,0,.119.467h-.315a1.419,1.419,0,0,1-.128-.482.352.352,0,0,0-.405-.33h-.208v.812Zm0-1.044h.218c.247,0,.456-.091.456-.324,0-.165-.119-.33-.456-.33a1.555,1.555,0,0,0-.218.014v.639Z" transform="translate(-28.79 -28.828)" fill="#3b5998"/>
    </g>
  </g>
</svg>
