<svg width="696" height="671" viewBox="0 0 696 671" fill="none" xmlns="http://www.w3.org/2000/svg">
<g clip-path="url(#clip0_173_10975)">
<path d="M228.038 538.122C178.221 510.516 137.968 468.936 118.889 419.867C100.4 370.685 103.676 313.902 124.186 264.271C144.001 214.193 182.23 171.044 228.72 148.91C275.209 126.775 330.443 124.983 389.684 128.221C448.925 131.46 511.69 140.398 554.209 174.6C596.138 208.914 617.926 269.05 609.782 322.704C601.744 376.917 563.184 424.76 522.703 468.915C482.116 512.511 439.609 552.418 388.37 565.611C337.131 578.804 278.339 565.058 228.038 538.122Z" fill="url(#paint0_linear_173_10975)"/>
<path d="M550 440.512L110 440.512L110 440.732L550 440.732L550 440.512Z" fill="#EBEBEB"/>
<path d="M505.912 454.671L476.766 454.671L476.766 454.891L505.912 454.891L505.912 454.671Z" fill="#EBEBEB"/>
<path d="M401.474 457.065L393.827 457.065L393.827 457.285L401.474 457.285L401.474 457.065Z" fill="#EBEBEB"/>
<path d="M475.886 446.505L458.999 446.505L458.999 446.725L475.886 446.725L475.886 446.505Z" fill="#EBEBEB"/>
<path d="M194.172 447.983L156.165 447.983L156.165 448.203L194.172 448.203L194.172 447.983Z" fill="#EBEBEB"/>
<path d="M207.583 447.983L202.013 447.983L202.013 448.203L207.583 448.203L207.583 447.983Z" fill="#EBEBEB"/>
<path d="M308.132 451.697L225.693 451.697L225.693 451.917L308.132 451.917L308.132 451.697Z" fill="#EBEBEB"/>
<path d="M318.56 401.264L148.641 401.264C147.31 401.262 146.034 400.731 145.094 399.789C144.153 398.847 143.625 397.57 143.625 396.239L143.625 157.381C143.637 156.057 144.17 154.792 145.109 153.859C146.048 152.927 147.317 152.402 148.641 152.4L318.56 152.4C319.893 152.4 321.171 152.929 322.113 153.872C323.056 154.814 323.585 156.092 323.585 157.425L323.585 396.239C323.585 397.572 323.056 398.85 322.113 399.792C321.171 400.735 319.893 401.264 318.56 401.264ZM148.641 152.576C147.368 152.578 146.148 153.085 145.249 153.986C144.35 154.887 143.845 156.108 143.845 157.381L143.845 396.239C143.845 397.512 144.35 398.733 145.249 399.633C146.148 400.534 147.368 401.042 148.641 401.044L318.56 401.044C319.834 401.042 321.055 400.535 321.955 399.634C322.856 398.733 323.363 397.513 323.365 396.239L323.365 157.381C323.363 156.107 322.856 154.886 321.955 153.986C321.055 153.085 319.834 152.578 318.56 152.576L148.641 152.576Z" fill="#EBEBEB"/>
<path d="M508.913 401.264L338.985 401.264C337.653 401.262 336.376 400.731 335.434 399.79C334.492 398.848 333.962 397.571 333.96 396.239L333.96 157.381C333.974 156.056 334.509 154.791 335.45 153.859C336.39 152.926 337.66 152.402 338.985 152.4L508.913 152.4C510.235 152.404 511.502 152.93 512.439 153.862C513.376 154.795 513.908 156.059 513.92 157.381L513.92 396.239C513.92 397.569 513.393 398.844 512.454 399.786C511.516 400.728 510.242 401.259 508.913 401.264ZM338.985 152.576C337.711 152.578 336.49 153.085 335.59 153.986C334.689 154.886 334.182 156.107 334.18 157.381L334.18 396.239C334.182 397.513 334.689 398.733 335.59 399.634C336.49 400.535 337.711 401.042 338.985 401.044L508.913 401.044C510.186 401.042 511.407 400.535 512.308 399.634C513.208 398.733 513.715 397.513 513.718 396.239L513.718 157.381C513.715 156.107 513.208 154.886 512.308 153.986C511.407 153.085 510.186 152.578 508.913 152.576L338.985 152.576Z" fill="#EBEBEB"/>
<path d="M203.57 440.512L232.514 440.512L232.514 334.551L203.57 334.551L203.57 440.512Z" fill="#E6E6E6"/>
<path d="M210.399 440.512L203.57 440.512L203.57 421.09L217.562 421.09L210.399 440.512Z" fill="#F0F0F0"/>
<path d="M384.261 440.512L413.204 440.512L413.204 334.551L384.261 334.551L384.261 440.512Z" fill="#E6E6E6"/>
<path d="M203.579 430.955L390.227 430.955L390.227 334.56L203.579 334.56L203.579 430.955Z" fill="#D9D9D9"/>
<path d="M293.92 340.878L293.92 417.746L209.528 417.746L209.528 340.878L293.92 340.878ZM294.58 340.218L208.868 340.218L208.868 418.406L294.607 418.406L294.607 340.218L294.58 340.218Z" fill="#D9D9D9"/>
<path d="M384.27 340.878L384.27 417.746L299.851 417.746L299.851 340.878L384.27 340.878ZM384.93 340.218L299.2 340.218L299.2 418.406L384.939 418.406L384.939 340.218L384.93 340.218Z" fill="#D9D9D9"/>
<path d="M312.294 358.346C315.648 358.346 318.366 356.719 318.366 354.712C318.366 352.705 315.648 351.078 312.294 351.078C308.941 351.078 306.222 352.705 306.222 354.712C306.222 356.719 308.941 358.346 312.294 358.346Z" fill="#FAFAFA"/>
<path d="M281.503 358.346C284.857 358.346 287.575 356.719 287.575 354.712C287.575 352.705 284.857 351.078 281.503 351.078C278.15 351.078 275.431 352.705 275.431 354.712C275.431 356.719 278.15 358.346 281.503 358.346Z" fill="#FAFAFA"/>
<path d="M383.399 440.512L390.227 440.512L390.227 421.09L376.235 421.09L383.399 440.512Z" fill="#F0F0F0"/>
<path d="M298.461 322.24C298.461 322.24 298.989 334.56 319.071 334.56C339.152 334.56 339.68 322.24 339.68 322.24L298.461 322.24Z" fill="#F5F5F5"/>
<path d="M350.328 265.216L506.247 265.216L506.247 170.053L350.328 170.053L350.328 265.216Z" fill="#E6E6E6"/>
<path d="M346.429 265.216L505.701 265.216L505.701 170.053L346.429 170.053L346.429 265.216Z" fill="#D9D9D9"/>
<path d="M350.328 268.859L506.247 268.859L506.247 265.224L350.328 265.224L350.328 268.859Z" fill="#E6E6E6"/>
<path d="M339.908 268.859L499.18 268.859L499.18 265.225L339.908 265.225L339.908 268.859Z" fill="#F0F0F0"/>
<path d="M500.227 259.751L500.227 175.535L351.903 175.535L351.903 259.751L500.227 259.751Z" fill="#D9D9D9"/>
<path d="M454.546 259.751L445.782 175.535L430.619 175.535L439.384 259.751L454.546 259.751Z" fill="white"/>
<path d="M497.684 235.701C497.74 235.702 497.795 235.692 497.847 235.671C497.899 235.65 497.946 235.619 497.986 235.58C498.025 235.54 498.056 235.493 498.077 235.441C498.098 235.39 498.108 235.334 498.107 235.278L498.107 179.09C498.092 178.99 498.042 178.898 497.965 178.832C497.888 178.765 497.79 178.729 497.689 178.729C497.587 178.729 497.489 178.765 497.412 178.832C497.336 178.898 497.285 178.99 497.271 179.09L497.271 235.278C497.269 235.333 497.279 235.388 497.3 235.439C497.32 235.491 497.35 235.537 497.389 235.577C497.427 235.616 497.473 235.647 497.524 235.668C497.575 235.69 497.629 235.701 497.684 235.701Z" fill="#F0F0F0"/>
<path d="M436.128 259.751L427.354 175.535L421.45 175.535L430.214 259.751L436.128 259.751Z" fill="white"/>
<path d="M352.599 259.751L352.599 175.535L351.903 175.535L351.903 259.751L352.599 259.751Z" fill="#E6E6E6"/>
<path opacity="0.5" d="M345.127 182.681L502.322 182.681L502.823 177.665L345.638 177.665L345.127 182.681Z" fill="#D9D9D9"/>
<path opacity="0.5" d="M345.127 190.926L502.322 190.926L502.823 185.91L345.638 185.91L345.127 190.926Z" fill="#D9D9D9"/>
<path opacity="0.5" d="M345.127 199.172L502.322 199.172L502.823 194.156L345.638 194.156L345.127 199.172Z" fill="#D9D9D9"/>
<path opacity="0.5" d="M345.127 207.418L502.322 207.418L502.823 202.402L345.638 202.402L345.127 207.418Z" fill="#D9D9D9"/>
<path opacity="0.5" d="M345.127 215.663L502.322 215.663L502.823 210.647L345.638 210.647L345.127 215.663Z" fill="#D9D9D9"/>
<path opacity="0.5" d="M345.127 223.909L502.322 223.909L502.823 218.893L345.638 218.893L345.127 223.909Z" fill="#D9D9D9"/>
<path d="M217.967 235.437L312.955 235.437L312.955 172.552L217.967 172.552L217.967 235.437Z" fill="#E0E0E0"/>
<path d="M212.247 235.437L310.455 235.437L310.455 172.552L212.247 172.552L212.247 235.437Z" fill="#D9D9D9"/>
<path d="M220.475 183.57L220.475 224.419L302.227 224.419L302.227 183.57L220.475 183.57Z" fill="white"/>
<path d="M167.622 312.639L262.609 312.639L262.609 249.754L167.622 249.754L167.622 312.639Z" fill="#E0E0E0"/>
<path d="M161.885 312.639L260.093 312.639L260.093 249.754L161.885 249.754L161.885 312.639Z" fill="#D9D9D9"/>
<path d="M170.113 260.763L170.113 301.613L251.865 301.613L251.865 260.763L170.113 260.763Z" fill="white"/>
<path d="M330 480.253C424.233 480.253 500.623 475.793 500.623 470.291C500.623 464.79 424.233 460.33 330 460.33C235.768 460.33 159.377 464.79 159.377 470.291C159.377 475.793 235.768 480.253 330 480.253Z" fill="#F5F5F5"/>
<path d="M485.448 252.499L485.099 259.777L485.995 259.82L486.345 252.542L485.448 252.499Z" fill="#FF9356"/>
<path d="M486.719 226.522L485.739 246.932L486.635 246.975L487.616 226.565L486.719 226.522Z" fill="#FF9356"/>
<path d="M364.681 215.17L473.801 215.17C475.256 215.161 476.697 215.45 478.036 216.018C479.376 216.587 480.584 217.424 481.587 218.478C482.591 219.532 483.368 220.78 483.871 222.145C484.373 223.51 484.591 224.964 484.511 226.417L473.44 459.045C473.26 462.06 471.947 464.895 469.762 466.981C467.578 469.067 464.686 470.25 461.666 470.291L352.563 470.291C351.108 470.301 349.667 470.012 348.328 469.443C346.989 468.874 345.78 468.037 344.777 466.984C343.773 465.93 342.996 464.682 342.494 463.317C341.991 461.951 341.773 460.498 341.854 459.045L352.88 226.417C353.056 223.396 354.372 220.554 356.563 218.467C358.754 216.379 361.655 215.201 364.681 215.17Z" fill="#080403"/>
<path d="M511.016 314.918L511.271 309.577L508.006 308.626C507.883 306.848 507.615 305.082 507.205 303.346L510.004 301.199L508.191 296.262L504.75 296.65C503.951 295.072 503.014 293.567 501.952 292.153L503.765 289.134L500.165 285.359L497.077 287.022C495.702 285.888 494.23 284.878 492.677 284.004L493.231 280.59L488.391 278.548L486.121 281.241C484.395 280.734 482.628 280.377 480.841 280.176L480.057 276.876L474.707 276.876L473.607 280.185C471.789 280.387 469.99 280.74 468.23 281.241L466.224 278.548L461.19 280.59L461.41 284.004C459.801 284.897 458.262 285.912 456.808 287.04L453.877 285.368L449.917 289.143L451.449 292.162C450.251 293.57 449.171 295.074 448.219 296.658L444.813 296.271L442.534 301.208L445.13 303.355C444.547 305.076 444.108 306.842 443.819 308.635L440.457 309.586L440.202 314.927L443.476 315.878C443.59 317.657 443.858 319.424 444.277 321.158L441.478 323.296L443.291 328.233L446.732 327.846C447.531 329.426 448.468 330.934 449.53 332.351L447.709 335.361L451.308 339.145L454.405 337.473C455.767 338.603 457.224 339.613 458.761 340.491L458.216 343.906L463.056 345.956L465.326 343.254C467.052 343.758 468.819 344.112 470.606 344.31L471.398 347.628L476.74 347.628L477.849 344.31C479.665 344.111 481.46 343.758 483.217 343.254L485.232 345.956L490.265 343.906L490.037 340.491C491.665 339.614 493.219 338.604 494.683 337.473L497.622 339.145L501.582 335.361L500.051 332.351C501.243 330.936 502.323 329.429 503.281 327.846L506.686 328.233L508.965 323.296L506.325 321.158C506.902 319.436 507.338 317.67 507.628 315.878L511.016 314.918ZM498.599 312.278C498.257 318.419 495.593 324.2 491.147 328.449C486.7 332.698 480.804 335.096 474.654 335.158C471.692 335.188 468.756 334.607 466.027 333.453C463.299 332.3 460.837 330.597 458.795 328.451C456.753 326.305 455.175 323.761 454.158 320.979C453.14 318.197 452.707 315.235 452.883 312.278C453.227 306.137 455.893 300.356 460.341 296.107C464.789 291.859 470.686 289.46 476.837 289.398C479.795 289.371 482.727 289.951 485.452 291.103C488.177 292.256 490.635 293.955 492.676 296.097C494.717 298.239 496.295 300.778 497.314 303.555C498.333 306.333 498.77 309.29 498.599 312.243L498.599 312.278Z" fill="#FF9356"/>
<path d="M473.625 217.986L364.549 217.986C362.287 218.016 360.121 218.903 358.488 220.468C356.854 222.032 355.875 224.158 355.749 226.417L345.206 447.587C345.184 447.964 345.241 448.342 345.371 448.696C345.501 449.051 345.703 449.374 345.964 449.648C346.225 449.921 346.539 450.137 346.887 450.284C347.235 450.431 347.609 450.504 347.987 450.5L468.089 450.5C468.874 450.494 469.626 450.19 470.193 449.649C470.761 449.107 471.1 448.37 471.143 447.587L481.65 226.417C481.721 225.326 481.565 224.232 481.192 223.204C480.819 222.176 480.237 221.236 479.483 220.444C478.729 219.653 477.819 219.025 476.811 218.602C475.803 218.179 474.718 217.969 473.625 217.986Z" fill="white"/>
<path opacity="0.2" d="M454.01 440.38L363.088 440.38C361.774 440.381 360.474 440.116 359.266 439.599C358.058 439.082 356.969 438.324 356.063 437.373C355.157 436.421 354.455 435.295 353.999 434.063C353.542 432.831 353.341 431.519 353.408 430.207L356.206 371.414C356.362 368.694 357.545 366.135 359.515 364.253C361.485 362.372 364.095 361.308 366.819 361.277L457.732 361.277C459.048 361.268 460.351 361.53 461.562 362.045C462.772 362.56 463.865 363.317 464.772 364.27C465.679 365.223 466.381 366.352 466.835 367.586C467.289 368.821 467.485 370.136 467.412 371.449L464.64 430.242C464.482 432.964 463.296 435.525 461.323 437.407C459.35 439.288 456.736 440.351 454.01 440.38ZM366.802 362.06C364.287 362.087 361.875 363.068 360.056 364.804C358.236 366.541 357.143 368.903 356.998 371.414L354.2 430.207C354.127 431.414 354.304 432.622 354.719 433.758C355.135 434.893 355.779 435.931 356.613 436.806C357.447 437.681 358.452 438.375 359.566 438.845C360.68 439.314 361.879 439.549 363.088 439.535L454.01 439.535C456.527 439.508 458.94 438.526 460.762 436.788C462.583 435.05 463.677 432.685 463.822 430.172L466.611 371.379C466.683 370.174 466.505 368.967 466.09 367.833C465.675 366.699 465.031 365.663 464.198 364.789C463.365 363.915 462.361 363.221 461.249 362.752C460.136 362.282 458.939 362.047 457.732 362.06L366.802 362.06Z" fill="#FF9356"/>
<path opacity="0.1" d="M382.307 366.24L347.679 366.24L344.81 426.555L379.447 426.555C381.373 426.53 383.218 425.776 384.61 424.445C386.003 423.114 386.84 421.306 386.953 419.383L389.136 373.403C389.186 372.477 389.047 371.551 388.726 370.681C388.405 369.812 387.909 369.017 387.269 368.346C386.63 367.675 385.859 367.142 385.006 366.78C384.152 366.417 383.234 366.234 382.307 366.24Z" fill="#FF9356"/>
<path opacity="0.1" d="M428.71 395.482L405.161 395.482C404.686 395.483 404.215 395.387 403.778 395.201C403.341 395.015 402.946 394.742 402.617 394.399C402.289 394.056 402.032 393.65 401.865 393.206C401.697 392.761 401.621 392.287 401.641 391.813L402.758 368.255C402.818 367.271 403.248 366.346 403.961 365.666C404.674 364.985 405.618 364.599 406.604 364.585L430.162 364.585C430.637 364.585 431.107 364.681 431.544 364.867C431.981 365.053 432.376 365.326 432.705 365.669C433.034 366.012 433.29 366.418 433.458 366.862C433.626 367.307 433.702 367.78 433.682 368.255L432.564 391.813C432.504 392.798 432.073 393.724 431.358 394.405C430.643 395.086 429.697 395.471 428.71 395.482Z" fill="#FF9356"/>
<path opacity="0.1" d="M466.303 376.932C464.886 376.95 463.528 377.505 462.504 378.485C461.48 379.465 460.865 380.797 460.785 382.212L459.175 416.031C459.135 416.712 459.236 417.394 459.47 418.035C459.705 418.677 460.068 419.263 460.539 419.758C461.009 420.253 461.576 420.646 462.204 420.913C462.832 421.18 463.508 421.315 464.191 421.311L474.197 421.311L476.3 376.95L466.303 376.932Z" fill="#FF9356"/>
<path opacity="0.1" d="M438.24 432.645L414.674 432.645C414.198 432.645 413.728 432.55 413.291 432.363C412.854 432.177 412.459 431.904 412.13 431.562C411.801 431.219 411.545 430.813 411.377 430.368C411.209 429.924 411.133 429.45 411.154 428.975L412.271 405.418C412.331 404.434 412.761 403.509 413.474 402.828C414.187 402.148 415.131 401.762 416.117 401.748L439.666 401.748C440.141 401.748 440.611 401.843 441.048 402.03C441.485 402.216 441.88 402.488 442.209 402.831C442.538 403.174 442.794 403.58 442.962 404.025C443.13 404.469 443.206 404.943 443.186 405.418L442.068 428.975C442.008 429.956 441.581 430.879 440.872 431.559C440.162 432.239 439.223 432.627 438.24 432.645Z" fill="#FF9356"/>
<path opacity="0.2" d="M413.169 459.678C413.086 461.174 412.437 462.583 411.353 463.617C410.27 464.652 408.833 465.235 407.334 465.249C406.616 465.25 405.905 465.104 405.244 464.821C404.584 464.538 403.989 464.123 403.494 463.601C403 463.08 402.617 462.463 402.37 461.788C402.122 461.114 402.015 460.396 402.054 459.678C402.139 458.184 402.789 456.778 403.873 455.745C404.956 454.712 406.392 454.13 407.889 454.117C408.607 454.116 409.317 454.261 409.977 454.544C410.636 454.827 411.231 455.241 411.725 455.761C412.22 456.282 412.603 456.898 412.851 457.571C413.099 458.245 413.207 458.962 413.169 459.678Z" fill="white"/>
<path opacity="0.2" d="M464.64 347.655L361.257 347.655C360.801 347.659 360.348 347.569 359.927 347.392C359.507 347.215 359.127 346.953 358.811 346.623C358.495 346.294 358.25 345.903 358.091 345.475C357.932 345.046 357.863 344.59 357.887 344.134L360.976 279.243C361.031 278.298 361.444 277.408 362.13 276.755C362.816 276.101 363.724 275.733 364.672 275.723L468.037 275.723C468.493 275.719 468.945 275.808 469.365 275.986C469.786 276.163 470.165 276.425 470.48 276.755C470.795 277.085 471.039 277.476 471.197 277.904C471.355 278.332 471.423 278.788 471.398 279.243L468.318 344.134C468.261 345.077 467.85 345.962 467.168 346.615C466.486 347.267 465.583 347.639 464.64 347.655Z" fill="#FF9356"/>
<path opacity="0.6" d="M470.175 260.165L364.012 260.165C363.736 260.166 363.462 260.111 363.207 260.003C362.953 259.895 362.724 259.736 362.533 259.535C362.343 259.335 362.195 259.098 362.1 258.838C362.005 258.579 361.964 258.302 361.979 258.026L363.018 236.114C363.051 235.541 363.3 235.002 363.715 234.606C364.129 234.209 364.679 233.984 365.253 233.976L471.416 233.976C471.693 233.974 471.966 234.029 472.221 234.137C472.475 234.246 472.705 234.405 472.895 234.605C473.086 234.806 473.233 235.043 473.328 235.302C473.423 235.562 473.465 235.838 473.449 236.114L472.402 258C472.379 258.577 472.135 259.124 471.721 259.527C471.307 259.93 470.753 260.158 470.175 260.165Z" fill="#FF9356"/>
<path d="M372.979 297.495L367.373 297.495L365.481 337.297L371.087 337.297L372.979 297.495Z" fill="#FF9356"/>
<path d="M383.565 312.138L377.959 312.138L376.763 337.297L382.368 337.297L383.565 312.138Z" fill="#FF9356"/>
<path d="M394.451 320.585L388.846 320.585L388.054 337.297L393.659 337.297L394.451 320.585Z" fill="#FF9356"/>
<path d="M405.345 328.946L399.731 328.946L399.335 337.297L404.941 337.297L405.345 328.946Z" fill="#FF9356"/>
<path d="M417.665 307.069L412.06 307.069L410.625 337.297L416.231 337.297L417.665 307.069Z" fill="#FF9356"/>
<path d="M429.722 290.921L424.107 290.921L421.907 337.297L427.513 337.297L429.722 290.921Z" fill="#FF9356"/>
<path d="M441.24 286.037L435.626 286.037L433.197 337.297L438.803 337.297L441.24 286.037Z" fill="#FF9356"/>
<path d="M451.581 305.942L445.966 305.942L444.479 337.297L450.085 337.297L451.581 305.942Z" fill="#FF9356"/>
<path d="M462.378 316.08L456.773 316.08L455.77 337.297L461.375 337.297L462.378 316.08Z" fill="#FF9356"/>
<path d="M374.114 414.235L328.125 414.235C327.198 414.241 326.28 414.058 325.426 413.696C324.573 413.334 323.803 412.801 323.163 412.129C322.523 411.458 322.028 410.664 321.707 409.794C321.386 408.924 321.246 407.998 321.297 407.072L323.488 361.092C323.601 359.169 324.438 357.361 325.831 356.03C327.224 354.7 329.068 353.946 330.994 353.92L376.974 353.92C377.902 353.914 378.821 354.098 379.676 354.46C380.53 354.823 381.3 355.357 381.94 356.029C382.58 356.701 383.075 357.497 383.396 358.368C383.716 359.238 383.855 360.166 383.803 361.092L381.621 407.072C381.505 408.993 380.667 410.8 379.275 412.128C377.882 413.457 376.039 414.21 374.114 414.235Z" fill="#FF9356"/>
<path opacity="0.8" d="M374.114 414.235L328.125 414.235C327.198 414.241 326.28 414.058 325.426 413.696C324.573 413.334 323.803 412.801 323.163 412.129C322.523 411.458 322.028 410.664 321.707 409.794C321.386 408.924 321.246 407.998 321.297 407.072L323.488 361.092C323.601 359.169 324.438 357.361 325.831 356.03C327.224 354.7 329.068 353.946 330.994 353.92L376.974 353.92C377.902 353.914 378.821 354.098 379.676 354.46C380.53 354.823 381.3 355.357 381.94 356.029C382.58 356.701 383.075 357.497 383.396 358.368C383.716 359.238 383.855 360.166 383.803 361.092L381.621 407.072C381.505 408.993 380.667 410.8 379.275 412.128C377.882 413.457 376.039 414.21 374.114 414.235Z" fill="white"/>
<path d="M373.886 387.589L374.22 380.549L370.946 378.384C370.637 377.203 370.203 376.059 369.653 374.97L370.533 371.626L365.807 366.662L362.437 367.393C361.372 366.795 360.248 366.308 359.084 365.941L357.078 362.562L350.038 362.562L347.714 365.941C346.497 366.309 345.318 366.796 344.194 367.393L340.894 366.662L335.685 371.626L336.257 374.961C335.608 376.05 335.066 377.199 334.638 378.393L331.17 380.549L330.836 387.589L334.101 389.754C334.412 390.936 334.845 392.084 335.394 393.177L334.514 396.512L339.249 401.484L342.619 400.754C343.683 401.348 344.803 401.834 345.963 402.206L347.97 405.576L355.01 405.576L357.342 402.206C358.557 401.832 359.736 401.346 360.862 400.754L364.162 401.484L369.371 396.512L368.799 393.177C369.446 392.089 369.988 390.943 370.418 389.754L373.886 387.589ZM352.15 392.508C351.057 392.525 349.973 392.315 348.965 391.893C347.958 391.47 347.048 390.844 346.295 390.053C345.541 389.262 344.959 388.323 344.585 387.297C344.212 386.27 344.055 385.177 344.124 384.086C344.251 381.828 345.23 379.702 346.863 378.137C348.496 376.573 350.662 375.686 352.924 375.656C354.017 375.639 355.102 375.849 356.11 376.272C357.119 376.695 358.028 377.322 358.782 378.114C359.536 378.906 360.118 379.846 360.491 380.873C360.864 381.901 361.02 382.995 360.95 384.086C360.821 386.343 359.841 388.467 358.208 390.03C356.575 391.593 354.41 392.478 352.15 392.508Z" fill="white"/>
<path d="M422.945 384.817L399.397 384.817C398.921 384.817 398.45 384.721 398.012 384.534C397.574 384.348 397.179 384.074 396.85 383.73C396.521 383.387 396.265 382.98 396.098 382.534C395.93 382.089 395.855 381.614 395.877 381.138L396.994 357.59C397.054 356.606 397.484 355.681 398.197 355C398.91 354.319 399.854 353.934 400.84 353.92L424.397 353.92C424.873 353.919 425.343 354.015 425.78 354.201C426.217 354.388 426.612 354.66 426.941 355.003C427.27 355.346 427.526 355.752 427.694 356.196C427.862 356.641 427.938 357.115 427.917 357.59L426.8 381.138C426.742 382.125 426.312 383.054 425.597 383.736C424.882 384.419 423.934 384.805 422.945 384.817Z" fill="#FF9356"/>
<path opacity="0.6" d="M422.945 384.817L399.397 384.817C398.921 384.817 398.45 384.721 398.012 384.534C397.574 384.348 397.179 384.074 396.85 383.73C396.521 383.387 396.265 382.98 396.098 382.534C395.93 382.089 395.855 381.614 395.877 381.138L396.994 357.59C397.054 356.606 397.484 355.681 398.197 355C398.91 354.319 399.854 353.934 400.84 353.92L424.397 353.92C424.873 353.919 425.343 354.015 425.78 354.201C426.217 354.388 426.612 354.66 426.941 355.003C427.27 355.346 427.526 355.752 427.694 356.196C427.862 356.641 427.938 357.115 427.917 357.59L426.8 381.138C426.742 382.125 426.312 383.054 425.597 383.736C424.882 384.419 423.934 384.805 422.945 384.817Z" fill="white"/>
<path d="M492.255 410.627L458.427 410.627C457.745 410.632 457.068 410.497 456.44 410.229C455.812 409.962 455.245 409.569 454.775 409.074C454.305 408.579 453.941 407.993 453.707 407.352C453.472 406.711 453.372 406.029 453.411 405.347L455.022 371.52C455.102 370.105 455.716 368.773 456.74 367.793C457.764 366.813 459.122 366.258 460.539 366.24L494.358 366.24C495.041 366.234 495.718 366.368 496.348 366.635C496.977 366.902 497.545 367.295 498.016 367.79C498.487 368.285 498.851 368.871 499.086 369.513C499.322 370.155 499.422 370.838 499.383 371.52L497.772 405.338C497.694 406.755 497.081 408.089 496.057 409.071C495.032 410.053 493.673 410.609 492.255 410.627Z" fill="#FF9356"/>
<path opacity="0.4" d="M492.255 410.627L458.427 410.627C457.745 410.632 457.068 410.497 456.44 410.229C455.812 409.962 455.245 409.569 454.775 409.074C454.305 408.579 453.941 407.993 453.707 407.352C453.472 406.711 453.372 406.029 453.411 405.347L455.022 371.52C455.102 370.105 455.716 368.773 456.74 367.793C457.764 366.813 459.122 366.258 460.539 366.24L494.358 366.24C495.041 366.234 495.718 366.368 496.348 366.635C496.977 366.902 497.545 367.295 498.016 367.79C498.487 368.285 498.851 368.871 499.086 369.513C499.322 370.155 499.422 370.838 499.383 371.52L497.772 405.338C497.694 406.755 497.081 408.089 496.057 409.071C495.032 410.053 493.673 410.609 492.255 410.627Z" fill="white"/>
<path d="M487.485 388.442L470.351 378.278L469.383 398.615L487.485 388.442Z" fill="white"/>
<path d="M432.467 421.97L408.909 421.97C408.434 421.971 407.964 421.875 407.527 421.689C407.09 421.503 406.695 421.23 406.366 420.887C406.037 420.544 405.781 420.138 405.613 419.694C405.445 419.249 405.369 418.776 405.389 418.301L406.56 394.752C406.62 393.768 407.049 392.843 407.762 392.163C408.476 391.482 409.42 391.096 410.405 391.083L433.928 391.083C434.403 391.082 434.873 391.178 435.31 391.364C435.747 391.55 436.142 391.823 436.471 392.166C436.8 392.509 437.056 392.915 437.224 393.359C437.392 393.804 437.468 394.277 437.448 394.752L436.33 418.301C436.272 419.289 435.841 420.217 435.123 420.899C434.406 421.58 433.456 421.963 432.467 421.97Z" fill="#FF9356"/>
<path opacity="0.4" d="M432.467 421.97L408.909 421.97C408.434 421.971 407.964 421.875 407.527 421.689C407.09 421.503 406.695 421.23 406.366 420.887C406.037 420.544 405.781 420.138 405.613 419.694C405.445 419.249 405.369 418.776 405.389 418.301L406.56 394.752C406.62 393.768 407.049 392.843 407.762 392.163C408.476 391.482 409.42 391.096 410.405 391.083L433.928 391.083C434.403 391.082 434.873 391.178 435.31 391.364C435.747 391.55 436.142 391.823 436.471 392.166C436.8 392.509 437.056 392.915 437.224 393.359C437.392 393.804 437.468 394.277 437.448 394.752L436.33 418.301C436.272 419.289 435.841 420.217 435.123 420.899C434.406 421.58 433.456 421.963 432.467 421.97Z" fill="white"/>
<path d="M418.546 415.52L410.186 406.738L412.13 404.89L418.642 411.718L431.068 399.856L432.916 401.801L418.546 415.52Z" fill="white"/>
<path d="M259.459 248.17C259.415 253.195 258.535 262.25 254.496 264.785C256.396 269.385 260.018 273.061 264.59 275.028C272.932 272.476 269.518 267.865 269.518 267.865C264.396 265.471 265.355 261.502 267.062 257.938L259.459 248.17Z" fill="#FFB573"/>
<path d="M254.373 274.632C255.517 278.794 256.775 283.053 258.077 287.198C258.737 289.275 259.441 291.325 260.181 293.358C260.88 295.325 261.679 297.254 262.574 299.14C262.97 299.979 263.417 300.793 263.912 301.577C264.026 301.736 264.141 301.921 264.237 302.035L264.396 302.237C264.44 302.308 264.563 302.449 264.642 302.545L265.742 303.848C267.168 305.608 268.593 307.368 269.966 309.128C272.729 312.648 275.405 316.265 277.948 319.987L274.797 322.777C271.418 319.811 268.153 316.74 264.959 313.616L260.198 308.934L259.028 307.764C258.922 307.658 258.852 307.597 258.72 307.447L258.333 307.016C258.051 306.717 257.857 306.435 257.629 306.136C256.848 305.087 256.142 303.984 255.517 302.836C253.345 298.683 251.518 294.36 250.052 289.909C248.538 285.57 247.253 281.258 246.127 276.779L254.373 274.632Z" fill="#FFB573"/>
<path d="M243.337 268.173C239.817 273.312 244.305 285.993 244.305 285.993L260.084 285.993C260.084 285.993 260.233 275.503 258.033 271.455C255.2 266.228 245.608 264.829 243.337 268.173Z" fill="#263238"/>
<path d="M282.726 321.052L276.628 319.292L273.434 320.559C273.434 324.018 278.203 326.499 278.203 326.499L281.89 329.887C282.271 330.238 282.755 330.457 283.27 330.512C283.784 330.568 284.303 330.457 284.75 330.195L287.047 328.849C287.34 328.679 287.595 328.448 287.793 328.174C287.992 327.899 288.131 327.585 288.2 327.253C288.27 326.921 288.269 326.579 288.198 326.247C288.127 325.916 287.986 325.603 287.786 325.329L286.792 323.938C285.796 322.55 284.365 321.534 282.726 321.052Z" fill="#FFB573"/>
<path d="M340.243 285.605L332.121 277.483C331.271 276.63 330.793 275.475 330.793 274.271C330.793 273.067 331.271 271.912 332.121 271.059C332.976 270.213 334.13 269.739 335.333 269.739C336.536 269.739 337.69 270.213 338.545 271.059L346.667 279.181C347.513 280.037 347.988 281.191 347.988 282.393C347.988 283.596 347.513 284.75 346.667 285.605C345.815 286.456 344.66 286.933 343.455 286.933C342.251 286.933 341.096 286.456 340.243 285.605Z" fill="#263238"/>
<path d="M340.117 278.285L339.439 277.607C337.996 276.164 335.656 276.164 334.212 277.607L328.979 282.84C327.536 284.284 327.536 286.624 328.979 288.067L329.657 288.745C331.101 290.189 333.441 290.189 334.884 288.745L340.117 283.512C341.561 282.069 341.561 279.729 340.117 278.285Z" fill="#263238"/>
<path d="M258.852 366.46L251.275 358.883C251.059 358.671 250.887 358.417 250.769 358.138C250.652 357.858 250.591 357.558 250.591 357.255C250.591 356.952 250.652 356.652 250.769 356.372C250.887 356.093 251.059 355.839 251.275 355.627L328.407 281.205C328.835 280.789 329.408 280.556 330.005 280.556C330.601 280.556 331.175 280.789 331.602 281.205L336.468 286.072C336.887 286.498 337.121 287.072 337.121 287.669C337.121 288.266 336.887 288.84 336.468 289.266L262.047 366.398C261.629 366.825 261.059 367.071 260.462 367.082C259.865 367.094 259.286 366.87 258.852 366.46Z" fill="#263238"/>
<path d="M338.061 267.372C336.226 264.764 334.652 261.981 333.361 259.065L335.447 215.065C335.447 214.766 335.447 214.475 335.509 214.185C336.019 209.132 338.286 204.42 341.916 200.868C345.546 197.317 350.308 195.154 355.37 194.754C355.837 194.754 356.303 194.693 356.769 194.693L402.45 194.693C405.169 196.154 407.749 197.86 410.159 199.788C415.632 204.175 420.119 209.667 423.327 215.905C426.535 222.144 428.391 228.988 428.776 235.992C429.16 242.996 428.064 250.003 425.558 256.554C423.052 263.106 419.194 269.056 414.233 274.016C413.468 274.782 412.702 275.503 411.901 276.198C406.63 280.832 400.441 284.302 393.738 286.381C387.035 288.461 379.969 289.103 373.001 288.267C366.033 287.431 359.319 285.134 353.299 281.528C347.278 277.921 342.086 273.086 338.061 267.337L338.061 267.372Z" fill="#FF9356"/>
<path d="M343.666 274.051C341.607 271.992 339.731 269.757 338.061 267.372L340.542 215.1C340.77 211 342.549 207.139 345.518 204.302C348.488 201.465 352.425 199.864 356.532 199.823L410.159 199.823C415.632 204.211 420.119 209.702 423.327 215.941C426.535 222.179 428.392 229.023 428.776 236.027C429.16 243.031 428.064 250.038 425.558 256.59C423.052 263.141 419.194 269.091 414.233 274.051C413.468 274.817 412.702 275.538 411.901 276.234C402.381 284.611 390.027 289.048 377.352 288.642C364.677 288.237 352.632 283.02 343.666 274.051Z" fill="white"/>
<path opacity="0.6" d="M414.233 274.051C413.468 274.817 412.702 275.538 411.901 276.234L355.581 276.234C355.081 276.238 354.585 276.14 354.124 275.945C353.663 275.75 353.247 275.462 352.901 275.1C352.556 274.738 352.288 274.309 352.115 273.84C351.942 273.37 351.867 272.87 351.894 272.37L353.76 232.665C353.818 231.629 354.268 230.655 355.018 229.939C355.768 229.223 356.762 228.82 357.799 228.81L427.838 228.81C429.492 236.888 429.115 245.25 426.741 253.146C424.366 261.042 420.069 268.226 414.233 274.051Z" fill="#FF9356"/>
<path opacity="0.5" d="M343.666 274.06C336.686 267.081 331.931 258.189 330.005 248.508C328.078 238.827 329.066 228.792 332.843 219.673C336.619 210.553 343.016 202.758 351.223 197.274C359.43 191.79 369.079 188.863 378.95 188.863C388.821 188.863 398.47 191.79 406.677 197.274C414.884 202.758 421.28 210.553 425.057 219.673C428.834 228.792 429.821 238.827 427.895 248.508C425.968 258.189 421.214 267.081 414.233 274.06C404.874 283.414 392.182 288.669 378.95 288.669C365.717 288.669 353.026 283.414 343.666 274.06Z" fill="white"/>
<path d="M398.297 245.794C391.063 253.028 382.826 252.447 377.388 247C371.949 241.553 371.36 233.36 378.593 226.091C385.827 218.822 396.105 217.406 401.544 222.844C406.982 228.282 405.53 238.561 398.297 245.794Z" fill="#263238"/>
<path d="M396.29 228.08C393.421 225.202 392.841 221.128 394.997 218.972C397.153 216.816 401.227 217.397 404.105 220.265C406.982 223.134 407.545 227.209 405.389 229.365C403.233 231.521 399.159 230.975 396.29 228.08Z" fill="#263238"/>
<path d="M393.994 231.503C393.822 231.499 393.653 231.456 393.501 231.377C393.348 231.297 393.216 231.184 393.114 231.046L384.006 218.338C383.846 218.114 383.777 217.837 383.812 217.564L384.736 209.732C384.748 209.582 384.789 209.435 384.859 209.302C384.929 209.168 385.024 209.05 385.141 208.954C385.257 208.859 385.392 208.787 385.536 208.745C385.681 208.703 385.833 208.69 385.982 208.708C386.132 208.726 386.277 208.774 386.407 208.849C386.538 208.924 386.652 209.025 386.743 209.145C386.833 209.265 386.899 209.403 386.935 209.549C386.971 209.695 386.978 209.847 386.954 209.996L386.074 217.397L394.926 229.717C395.099 229.957 395.169 230.256 395.121 230.548C395.073 230.84 394.911 231.101 394.671 231.274C394.477 231.424 394.239 231.505 393.994 231.503Z" fill="#263238"/>
<path d="M406.701 240.611C406.468 240.613 406.24 240.542 406.05 240.409L393.36 231.301C393.227 231.222 393.111 231.116 393.021 230.99C392.931 230.865 392.868 230.721 392.836 230.57C392.804 230.419 392.803 230.262 392.835 230.111C392.867 229.959 392.929 229.816 393.019 229.69C393.109 229.564 393.224 229.458 393.357 229.378C393.491 229.299 393.639 229.249 393.792 229.23C393.946 229.211 394.102 229.224 394.25 229.268C394.398 229.313 394.536 229.388 394.654 229.488L406.974 238.341L414.374 237.461C414.662 237.439 414.947 237.528 415.17 237.711C415.392 237.894 415.536 238.157 415.57 238.443C415.604 238.729 415.526 239.018 415.353 239.248C415.179 239.478 414.923 239.632 414.638 239.678L406.806 240.558L406.701 240.611Z" fill="#263238"/>
<path d="M386.725 238.772C386.495 238.774 386.27 238.703 386.082 238.569L373.762 229.708L366.361 230.588C366.069 230.623 365.774 230.54 365.542 230.358C365.31 230.175 365.16 229.908 365.125 229.615C365.09 229.323 365.173 229.028 365.355 228.796C365.538 228.564 365.805 228.414 366.097 228.379L373.929 227.446C374.207 227.415 374.485 227.487 374.713 227.649L387.411 236.757C387.604 236.893 387.749 237.088 387.824 237.312C387.899 237.536 387.9 237.779 387.828 238.004C387.755 238.229 387.612 238.425 387.42 238.563C387.228 238.701 386.996 238.775 386.76 238.772L386.725 238.772Z" fill="#263238"/>
<path d="M394.909 259.302L394.777 259.302C394.632 259.286 394.491 259.241 394.363 259.17C394.236 259.099 394.123 259.004 394.032 258.889C393.942 258.775 393.874 258.644 393.834 258.503C393.795 258.362 393.783 258.215 393.8 258.07L394.68 250.669L385.818 238.349C385.649 238.107 385.582 237.808 385.632 237.517C385.681 237.225 385.843 236.965 386.082 236.792C386.201 236.707 386.335 236.646 386.477 236.613C386.619 236.579 386.766 236.575 386.91 236.598C387.054 236.622 387.191 236.674 387.315 236.751C387.439 236.828 387.546 236.929 387.631 237.047L396.739 249.745C396.905 249.971 396.977 250.251 396.942 250.529L396.009 258.361C395.969 258.623 395.836 258.863 395.634 259.036C395.432 259.209 395.175 259.303 394.909 259.302Z" fill="#263238"/>
<path d="M407.352 252.13C407.205 252.131 407.059 252.102 406.923 252.046C406.787 251.99 406.664 251.908 406.56 251.805L372.583 217.828C372.375 217.618 372.258 217.335 372.258 217.04C372.258 216.745 372.375 216.462 372.583 216.253C372.686 216.149 372.809 216.066 372.944 216.01C373.079 215.953 373.224 215.924 373.371 215.924C373.517 215.924 373.662 215.953 373.797 216.01C373.932 216.066 374.055 216.149 374.158 216.253L408.135 250.229C408.239 250.333 408.322 250.455 408.378 250.59C408.434 250.726 408.463 250.871 408.463 251.017C408.463 251.164 408.434 251.309 408.378 251.444C408.322 251.579 408.239 251.702 408.135 251.805C408.033 251.909 407.911 251.991 407.777 252.047C407.642 252.103 407.498 252.132 407.352 252.13Z" fill="#263238"/>
<path d="M402.785 222.721C402.631 222.721 402.478 222.692 402.336 222.633C402.067 222.515 401.854 222.295 401.746 222.022C401.637 221.748 401.64 221.443 401.755 221.172C402.397 219.533 402.474 217.728 401.975 216.04C401.477 214.353 400.43 212.879 399.001 211.853C398.809 211.661 398.693 211.407 398.675 211.136C398.657 210.866 398.738 210.598 398.903 210.383C399.067 210.167 399.305 210.019 399.571 209.966C399.836 209.913 400.112 209.958 400.347 210.093C402.177 211.418 403.511 213.316 404.137 215.486C404.764 217.656 404.647 219.973 403.806 222.07C403.716 222.265 403.572 222.43 403.391 222.545C403.21 222.661 403 222.722 402.785 222.721Z" fill="#263238"/>
<path d="M413.424 225.827C413.253 225.827 413.085 225.787 412.933 225.71C412.78 225.634 412.647 225.523 412.544 225.387C411.517 223.958 410.044 222.912 408.357 222.413C406.669 221.914 404.864 221.991 403.225 222.633C402.954 222.75 402.648 222.754 402.374 222.645C402.1 222.536 401.881 222.323 401.764 222.052C401.647 221.781 401.643 221.475 401.752 221.201C401.861 220.927 402.074 220.708 402.345 220.591C404.44 219.749 406.757 219.631 408.927 220.256C411.097 220.881 412.996 222.213 414.322 224.041C414.41 224.157 414.474 224.29 414.511 224.432C414.548 224.573 414.556 224.721 414.536 224.865C414.515 225.01 414.466 225.149 414.392 225.275C414.317 225.401 414.219 225.511 414.102 225.598C413.91 225.752 413.67 225.833 413.424 225.827Z" fill="#263238"/>
<path d="M418.519 199.207C410.694 191.383 400.725 186.055 389.872 183.896C379.018 181.738 367.769 182.846 357.546 187.081C347.322 191.316 338.584 198.487 332.437 207.688C326.289 216.889 323.008 227.706 323.008 238.772C323.008 249.838 326.289 260.655 332.437 269.856C338.584 279.057 347.322 286.228 357.546 290.463C367.769 294.698 379.018 295.806 389.872 293.648C400.725 291.489 410.694 286.161 418.519 278.337C423.715 273.141 427.837 266.973 430.649 260.184C433.461 253.396 434.909 246.12 434.909 238.772C434.909 231.424 433.461 224.148 430.649 217.359C427.837 210.571 423.715 204.403 418.519 199.207ZM345.594 272.133C338.993 265.534 334.498 257.127 332.676 247.973C330.855 238.82 331.788 229.332 335.359 220.709C338.93 212.086 344.978 204.716 352.738 199.531C360.498 194.345 369.621 191.577 378.954 191.577C388.287 191.577 397.411 194.345 405.171 199.531C412.931 204.716 418.978 212.086 422.549 220.709C426.12 229.332 427.054 238.82 425.232 247.973C423.411 257.127 418.916 265.534 412.315 272.133C407.934 276.514 402.733 279.99 397.009 282.361C391.285 284.732 385.15 285.952 378.954 285.952C372.759 285.952 366.624 284.732 360.899 282.361C355.175 279.99 349.974 276.514 345.594 272.133Z" fill="#080403"/>
<path d="M282.973 276.779C282.251 281.989 279.241 293.93 268.893 321.166L235.805 314.364C238.744 302.528 240.433 294.661 240.205 272.854C240.188 271.647 240.426 270.449 240.903 269.339C241.38 268.229 242.085 267.232 242.972 266.412C243.859 265.592 244.908 264.968 246.052 264.58C247.196 264.192 248.409 264.049 249.612 264.16C251.178 264.301 252.841 264.494 254.496 264.758C259.57 265.424 264.59 266.454 269.517 267.838C273.293 268.982 277.305 270.478 279.928 271.552C280.949 271.955 281.805 272.689 282.357 273.638C282.909 274.586 283.126 275.693 282.973 276.779Z" fill="#263238"/>
<path d="M284.24 278.891C284.513 280.845 284.847 283.01 285.243 285.051C285.639 287.093 286.079 289.17 286.598 291.211C287.109 293.195 287.723 295.152 288.438 297.072C289.08 298.887 289.9 300.635 290.884 302.29C291.33 303.021 291.833 303.716 292.389 304.367L292.794 304.781C292.934 304.93 292.996 304.966 293.093 305.071C293.346 305.272 293.614 305.455 293.894 305.617C295.508 306.424 297.239 306.974 299.024 307.245C303.157 307.89 307.337 308.196 311.52 308.16L312.136 312.322C307.629 313.499 302.976 314.026 298.32 313.889C295.703 313.829 293.117 313.308 290.682 312.349C289.965 312.04 289.279 311.666 288.631 311.231C288.293 310.998 287.967 310.749 287.654 310.483L286.854 309.762C285.899 308.803 285.025 307.766 284.24 306.664C281.612 302.586 279.651 298.115 278.432 293.42C277.798 291.185 277.226 288.941 276.813 286.679C276.399 284.418 276.003 282.209 275.766 279.789L284.24 278.891Z" fill="#FFB573"/>
<path d="M280.597 271.992C287.575 276.656 287.584 288.175 287.584 288.175L273.301 297.063C273.301 297.063 269.341 286.327 270.45 278.196C271.093 273.453 276.32 269.114 280.597 271.992Z" fill="#263238"/>
<path d="M309.637 308.16L318.63 307.791L314.16 314.646C314.16 314.646 309.478 314.021 308.431 310.809L309.637 308.16Z" fill="#FFB573"/>
<path d="M321.789 312.947L320.909 314.188C320.619 314.604 320.217 314.93 319.75 315.127C319.283 315.325 318.77 315.387 318.269 315.306L314.098 314.646L318.613 307.764L320.892 309.067C321.218 309.251 321.502 309.501 321.726 309.801C321.95 310.101 322.11 310.445 322.194 310.81C322.279 311.174 322.286 311.553 322.217 311.921C322.147 312.289 322.001 312.639 321.789 312.947Z" fill="#FFB573"/>
<path d="M278.52 242.635C278.52 243.304 278.942 243.832 279.4 243.806C279.858 243.779 280.157 243.216 280.122 242.547C280.086 241.879 279.708 241.359 279.242 241.377C278.775 241.394 278.485 241.966 278.52 242.635Z" fill="#263238"/>
<path d="M279.057 241.429L280.641 240.875C280.641 240.875 279.884 242.16 279.057 241.429Z" fill="#263238"/>
<path d="M279.171 244.096C279.854 245.594 280.743 246.989 281.811 248.241C281.483 248.505 281.101 248.694 280.692 248.794C280.283 248.895 279.857 248.904 279.444 248.822L279.171 244.096Z" fill="#ED893E"/>
<path d="M279.039 247.801C276.989 247.801 275.378 244.932 275.378 241.263C275.378 237.593 276.989 234.724 279.039 234.724C281.09 234.724 282.691 237.602 282.691 241.263C282.691 244.923 281.09 247.801 279.039 247.801ZM279.039 235.199C277.279 235.199 275.854 237.919 275.854 241.263C275.854 244.607 277.279 247.335 279.039 247.335C280.799 247.335 282.225 244.607 282.225 241.263C282.225 237.919 280.799 235.199 279.039 235.199Z" fill="#00EB65"/>
<path d="M275.968 241.007C276.052 241.018 276.137 241 276.211 240.957C276.284 240.914 276.341 240.848 276.373 240.77C277.103 239.107 279.409 238.623 279.426 238.623C279.529 238.601 279.619 238.54 279.677 238.453C279.734 238.366 279.755 238.259 279.734 238.156C279.713 238.054 279.652 237.964 279.565 237.906C279.477 237.848 279.371 237.827 279.268 237.848C279.162 237.848 276.549 238.42 275.651 240.488C275.629 240.535 275.617 240.587 275.616 240.639C275.614 240.691 275.623 240.742 275.642 240.791C275.661 240.839 275.69 240.883 275.726 240.921C275.762 240.958 275.806 240.987 275.854 241.007C275.891 241.015 275.93 241.015 275.968 241.007Z" fill="#263238"/>
<path d="M255.719 241.368C256.661 249.57 256.881 253.063 261.254 257.067C267.837 263.095 277.71 260.147 279.242 251.831C280.623 244.351 278.863 232.19 270.635 229.338C268.824 228.701 266.881 228.537 264.988 228.862C263.096 229.187 261.319 229.99 259.824 231.196C258.33 232.401 257.168 233.968 256.45 235.748C255.731 237.529 255.48 239.463 255.719 241.368Z" fill="#FFB573"/>
<path d="M275.616 244.474C279.426 238.622 281.353 231.371 277.684 227.094C274.014 222.818 268.47 227.094 268.47 227.094C268.47 227.094 253.651 221.718 248.846 227.974C241.885 236.977 250.993 242.679 248.758 245.187C246.523 247.695 243.478 251.198 246.233 256.416C249.26 262.11 272.333 257.718 275.616 264.274C285.287 263.702 280.253 247.968 275.616 244.474Z" fill="#263238"/>
<path d="M247.702 247.563C247.645 247.563 247.589 247.545 247.544 247.51C247.5 247.466 247.475 247.406 247.475 247.343C247.475 247.28 247.5 247.22 247.544 247.176C248.239 246.401 247.649 245.205 246.822 243.541C245.326 240.497 243.056 235.894 247.623 229.981C247.667 229.937 247.728 229.912 247.79 229.912C247.853 229.912 247.913 229.937 247.957 229.981C247.982 229.999 248.003 230.022 248.018 230.048C248.034 230.075 248.044 230.104 248.048 230.134C248.052 230.165 248.05 230.195 248.042 230.225C248.034 230.255 248.02 230.282 248.001 230.306C243.601 235.991 245.713 240.259 247.245 243.383C248.125 245.143 248.802 246.525 247.896 247.528C247.868 247.548 247.837 247.562 247.803 247.568C247.77 247.574 247.735 247.573 247.702 247.563Z" fill="#263238"/>
<path d="M279.013 263.28C278.548 263.274 278.085 263.221 277.631 263.122C277.601 263.115 277.571 263.103 277.546 263.085C277.52 263.068 277.498 263.045 277.48 263.019C277.463 262.993 277.451 262.964 277.446 262.933C277.44 262.902 277.44 262.871 277.446 262.84C277.453 262.81 277.465 262.78 277.483 262.755C277.5 262.729 277.523 262.707 277.549 262.689C277.575 262.672 277.604 262.66 277.635 262.655C277.666 262.649 277.697 262.649 277.728 262.655C279.787 263.104 281.125 262.559 281.706 261.045C283.29 256.909 278.793 246.886 275.194 244.844C275.145 244.811 275.111 244.76 275.098 244.703C275.085 244.646 275.093 244.586 275.121 244.534C275.15 244.483 275.196 244.444 275.252 244.425C275.308 244.405 275.368 244.408 275.422 244.431C279.242 246.595 283.826 256.821 282.146 261.212C281.923 261.853 281.496 262.403 280.929 262.777C280.363 263.15 279.69 263.327 279.013 263.28Z" fill="#263238"/>
<path d="M273.68 243.92C273.626 243.919 273.575 243.901 273.533 243.867C273.492 243.834 273.463 243.787 273.451 243.735C273.387 243.501 273.378 243.255 273.426 243.017C273.473 242.778 273.575 242.554 273.724 242.362C274.683 241.095 277.763 240.373 282.893 240.215C282.924 240.213 282.954 240.217 282.983 240.226C283.012 240.236 283.038 240.252 283.06 240.273C283.083 240.294 283.101 240.319 283.113 240.347C283.125 240.375 283.131 240.405 283.131 240.435C283.133 240.467 283.129 240.498 283.119 240.528C283.109 240.558 283.092 240.585 283.071 240.608C283.049 240.632 283.023 240.65 282.994 240.663C282.965 240.675 282.934 240.682 282.902 240.681C276.742 240.875 274.692 241.861 274.102 242.644C273.994 242.779 273.92 242.939 273.886 243.109C273.853 243.279 273.86 243.454 273.909 243.621C273.916 243.651 273.918 243.683 273.913 243.714C273.909 243.746 273.898 243.776 273.882 243.803C273.865 243.83 273.844 243.853 273.818 243.872C273.792 243.891 273.763 243.904 273.733 243.911L273.68 243.92Z" fill="#00EB65"/>
<path d="M274.613 245.724C275.02 246.373 275.56 246.93 276.197 247.357C276.834 247.785 277.553 248.074 278.309 248.205C279.778 248.434 279.373 246.199 278.669 244.113C278.036 242.239 276.496 239.854 275.149 240.593C273.803 241.333 273.68 243.92 274.613 245.724Z" fill="#FFB573"/>
<path d="M195.95 461.28C196.651 461.421 197.379 461.312 198.009 460.972C198.15 460.873 198.264 460.741 198.342 460.588C198.421 460.435 198.46 460.264 198.458 460.092C198.466 459.984 198.445 459.875 198.397 459.778C198.349 459.68 198.276 459.597 198.185 459.538C197.226 458.878 193.785 460.233 193.362 460.418C193.323 460.43 193.289 460.455 193.264 460.488C193.24 460.521 193.227 460.561 193.227 460.603C193.227 460.644 193.24 460.684 193.264 460.717C193.289 460.75 193.323 460.775 193.362 460.787C194.207 461.034 195.074 461.199 195.95 461.28ZM197.604 459.723C197.729 459.723 197.852 459.759 197.956 459.828C197.994 459.852 198.025 459.886 198.045 459.927C198.065 459.967 198.074 460.012 198.07 460.057C198.074 460.173 198.05 460.288 197.999 460.392C197.949 460.496 197.873 460.587 197.78 460.655C197.234 461.06 195.862 460.999 194.058 460.515C195.183 460.034 196.383 459.752 197.604 459.679L197.604 459.723Z" fill="#00EB65"/>
<path d="M193.415 460.69L193.494 460.69C194.533 460.338 196.662 458.754 196.601 457.804C196.601 457.575 196.46 457.285 195.923 457.17C195.731 457.13 195.533 457.13 195.341 457.169C195.149 457.209 194.967 457.287 194.806 457.399C193.67 458.165 193.257 460.373 193.239 460.47C193.236 460.497 193.237 460.524 193.244 460.55C193.251 460.576 193.263 460.6 193.279 460.621C193.296 460.643 193.316 460.661 193.339 460.674C193.363 460.687 193.389 460.696 193.415 460.699L193.415 460.69ZM195.721 457.531L195.844 457.531C196.196 457.601 196.205 457.751 196.205 457.795C196.205 458.367 194.779 459.643 193.714 460.153C193.897 459.241 194.355 458.405 195.026 457.76C195.221 457.599 195.469 457.518 195.721 457.531Z" fill="#00EB65"/>
<path d="M183.797 462.266L191.954 463.858L200.974 443.75L192.817 442.167L183.797 462.266Z" fill="#FFB573"/>
<path d="M194.049 460.295L185.249 457.179C185.18 457.149 185.105 457.134 185.03 457.136C184.955 457.138 184.881 457.156 184.814 457.19C184.747 457.223 184.688 457.271 184.641 457.33C184.595 457.39 184.562 457.458 184.545 457.531L181.905 464.413C181.823 464.807 181.883 465.218 182.075 465.572C182.266 465.927 182.577 466.202 182.952 466.349C186.032 467.379 189.235 467.88 193.23 468.857C196.431 469.702 199.716 470.183 203.025 470.291C206.439 470.291 206.017 466.833 204.494 466.525C197.692 465.126 197.085 463.885 195.281 461.245C194.979 460.808 194.548 460.476 194.049 460.295Z" fill="#263238"/>
<g opacity="0.2">
<path d="M200.966 443.759L196.319 454.117L188.162 452.533L192.808 442.167L200.966 443.759Z" fill="black"/>
</g>
<path d="M235.418 314.047C223.863 324.801 223.054 360.344 214.694 384.447C201.23 408.683 188.857 447.851 188.857 447.851L200.086 450.94C200.086 450.94 217.307 416.814 228.316 392.86C240.46 366.46 256.582 318.456 256.582 318.456L235.418 314.047Z" fill="#FF9356"/>
<path opacity="0.2" d="M243.531 332.369C243.313 338.893 243.726 345.424 244.763 351.869C246.884 346.123 248.846 340.641 250.545 335.862L243.531 332.369Z" fill="black"/>
<path d="M271.92 461.412C272.633 461.474 273.346 461.294 273.944 460.902C274.076 460.783 274.178 460.633 274.239 460.466C274.3 460.299 274.32 460.119 274.296 459.942C274.292 459.833 274.259 459.726 274.201 459.633C274.142 459.54 274.059 459.465 273.962 459.414C272.941 458.86 269.623 460.55 269.254 460.743C269.219 460.764 269.191 460.794 269.172 460.83C269.154 460.865 269.145 460.905 269.148 460.946C269.153 460.987 269.171 461.025 269.2 461.055C269.228 461.085 269.265 461.106 269.306 461.113C270.166 461.294 271.041 461.394 271.92 461.412ZM273.407 459.652C273.534 459.649 273.66 459.673 273.777 459.722C273.815 459.745 273.847 459.777 273.869 459.815C273.89 459.854 273.901 459.898 273.9 459.942C273.919 460.057 273.909 460.174 273.87 460.283C273.832 460.392 273.766 460.49 273.68 460.567C273.17 461.025 271.806 461.104 269.958 460.796C271.026 460.238 272.18 459.863 273.372 459.687L273.407 459.652Z" fill="#00EB65"/>
<path d="M269.28 461.113C269.306 461.122 269.334 461.122 269.359 461.113C270.354 460.673 272.316 458.878 272.166 457.936C272.122 457.707 271.964 457.434 271.418 457.373C271.224 457.354 271.028 457.375 270.842 457.434C270.656 457.493 270.484 457.589 270.336 457.716C269.289 458.596 269.095 460.822 269.086 460.919C269.082 460.953 269.087 460.987 269.101 461.018C269.115 461.049 269.137 461.076 269.166 461.095C269.201 461.113 269.241 461.119 269.28 461.113ZM271.26 457.742L271.383 457.742C271.744 457.742 271.762 457.918 271.77 457.971C271.867 458.534 270.538 459.942 269.526 460.558C269.603 459.613 269.972 458.715 270.582 457.989C270.782 457.831 271.032 457.75 271.286 457.76L271.26 457.742Z" fill="#00EB65"/>
<path d="M260.542 462.943L268.769 464.184L272.747 445.299L264.519 444.058L260.542 462.943Z" fill="#FFB573"/>
<path d="M270.16 460.831L260.806 460.831C260.644 460.828 260.487 460.884 260.365 460.99C260.243 461.096 260.165 461.243 260.146 461.403L259.081 468.795C259.06 468.982 259.078 469.171 259.135 469.35C259.193 469.529 259.287 469.693 259.413 469.833C259.538 469.973 259.692 470.084 259.864 470.16C260.036 470.236 260.222 470.275 260.41 470.274C263.666 470.221 265.241 470.027 269.35 470.027C271.876 470.027 277.658 470.291 281.151 470.291C284.645 470.291 284.83 466.833 283.378 466.525C276.857 465.126 273.698 463.19 271.542 461.342C271.155 461.015 270.666 460.834 270.16 460.831Z" fill="#263238"/>
<g opacity="0.2">
<path d="M272.738 445.308L270.697 455.041L262.469 453.8L264.51 444.067L272.738 445.308Z" fill="black"/>
</g>
<path d="M268.867 321.166C268.867 321.166 290.4 362.826 288.015 388.046C285.534 414.323 272.175 452.638 272.175 452.638L262.152 450.826C262.152 450.826 269.791 402.346 274.472 384.394C262.9 357.73 229.179 347.628 244.552 316.15C249.137 316.96 268.867 321.166 268.867 321.166Z" fill="#FF9356"/>
<path d="M260.585 451.978L273.636 453.95L275.053 448.907L260.673 447.781L260.585 451.978Z" fill="#263238"/>
<path d="M187.37 450.174L200.033 453.87L202.858 448.942L188.364 446.135L187.37 450.174Z" fill="#263238"/>
<path d="M235.682 312.322L234.221 315.112C234.062 315.314 234.282 315.605 234.67 315.684L268.726 322.68C269.025 322.741 269.306 322.68 269.359 322.46L270.239 319.565C270.301 319.362 270.081 319.133 269.755 319.072L236.245 312.181C236.147 312.158 236.044 312.159 235.946 312.183C235.848 312.208 235.757 312.256 235.682 312.322Z" fill="white"/>
<path d="M239.413 316.96L238.533 316.775C238.348 316.775 238.233 316.617 238.269 316.511L239.483 312.745C239.483 312.639 239.694 312.578 239.87 312.613L240.75 312.798C240.926 312.798 241.049 312.956 241.014 313.062L239.8 316.828C239.765 316.96 239.589 317.031 239.413 316.96Z" fill="#00EB65"/>
<path d="M266.138 322.486L265.258 322.302C265.082 322.302 264.959 322.143 264.994 322.038L266.209 318.271C266.209 318.157 266.42 318.104 266.596 318.139L267.476 318.324C267.661 318.324 267.775 318.482 267.74 318.588L266.525 322.354C266.49 322.46 266.314 322.522 266.138 322.486Z" fill="#00EB65"/>
<path d="M252.771 319.741L251.891 319.556C251.715 319.556 251.601 319.398 251.636 319.292L252.841 315.526C252.841 315.42 253.053 315.359 253.237 315.394L254.117 315.579C254.293 315.579 254.408 315.737 254.373 315.843L253.167 319.6C253.132 319.715 252.956 319.776 252.771 319.741Z" fill="#00EB65"/>
</g>
<defs>
<linearGradient id="paint0_linear_173_10975" x1="572.106" y1="77.185" x2="232.588" y2="657.658" gradientUnits="userSpaceOnUse">
<stop stop-color="white"/>
<stop offset="1" stop-color="white"/>
</linearGradient>
<clipPath id="clip0_173_10975">
<rect width="600" height="568.851" fill="white" transform="translate(695.497 558.887) rotate(169.26)"/>
</clipPath>
</defs>
</svg>
