<svg width="706" height="530" viewBox="0 0 706 530" fill="none" xmlns="http://www.w3.org/2000/svg">
<g clip-path="url(#clip0_633_2063)">
<path d="M550.031 84.3059C600.661 116.269 639.952 161.88 656.108 213.638C671.627 265.468 663.374 323.518 637.404 372.972C612.135 422.935 567.877 464.445 516.605 483.784C465.332 503.122 406.475 500.942 343.781 493.307C281.087 485.672 215.126 471.929 172.808 433.726C131.126 395.452 113.02 332.137 126.185 277.654C139.283 222.589 184.287 176.284 231.024 133.905C277.825 92.1071 326.359 54.2355 381.928 44.4218C437.498 34.6081 498.831 52.996 550.031 84.3059Z" fill="#F4F4F4"/>
</g>
<path d="M570.723 135.594C530.653 135.594 530.585 191.341 570.723 191.341C610.861 191.341 610.861 135.594 570.723 135.594Z" fill="#FF9356"/>
<path d="M595.098 168.689C592.957 178.286 584.826 186.598 570.723 186.598C537.411 186.598 537.469 140.336 570.723 140.336H571.376C540.08 140.9 540.234 184.71 571.99 184.71C584.941 184.719 592.659 177.385 595.098 168.689Z" fill="#DBDBDB"/>
<path d="M570.963 146.478C571.227 146.47 571.484 146.565 571.678 146.74C571.872 146.916 571.987 147.159 572 147.417V148.976C574.768 149.165 577.427 150.105 579.68 151.69C580.073 151.963 580.285 152.197 580.285 152.582C580.258 152.851 580.126 153.098 579.916 153.273C579.707 153.449 579.436 153.537 579.161 153.522C578.876 153.534 578.597 153.436 578.384 153.249C576.491 151.843 574.239 150.972 571.875 150.732V161.598C578.47 162.838 581.245 165.054 581.245 168.858C581.245 172.971 577.405 175.873 571.961 176.033V179.057C571.961 179.326 571.852 179.584 571.658 179.774C571.463 179.964 571.2 180.071 570.925 180.071C570.65 180.071 570.386 179.964 570.192 179.774C569.997 179.584 569.888 179.326 569.888 179.057V175.967C566.314 175.748 562.901 174.434 560.134 172.21C559.992 172.123 559.873 172.003 559.789 171.861C559.705 171.718 559.659 171.558 559.654 171.393C559.685 171.133 559.813 170.894 560.013 170.721C560.213 170.547 560.472 170.452 560.739 170.454C561.024 170.446 561.302 170.543 561.517 170.726C563.872 172.766 566.839 174.004 569.974 174.258V163.157C563.465 161.88 560.777 159.748 560.777 155.86C560.777 151.972 564.617 148.957 569.888 148.845V147.361C569.915 147.106 570.042 146.871 570.243 146.706C570.443 146.542 570.702 146.46 570.963 146.478ZM570.003 161.232V150.582C565.798 150.667 563.024 152.911 563.024 155.71C563.033 158.349 564.416 159.973 570.013 161.185L570.003 161.232ZM571.923 163.598V174.305C576.262 174.229 579.085 171.976 579.085 169.027C579.075 166.303 577.52 164.669 571.913 163.552L571.923 163.598Z" fill="#DBDBDB"/>
<path d="M494.96 67.8447C470.96 84.8805 496.745 119.638 520.755 102.593C544.765 85.5473 519.008 50.7807 494.96 67.8447Z" fill="#AA6239"/>
<path d="M497.245 66.2483C474.406 82.4858 500.125 117.243 523.04 100.996C545.955 84.7491 520.131 49.9825 497.245 66.2483Z" fill="#FF9356"/>
<path d="M526.457 76.9824C529.673 83.8193 528.886 92.2996 520.851 98.019C501.862 111.514 480.483 82.6642 499.433 69.1876L499.817 68.9341C482.23 81.9692 502.601 109.204 520.697 96.3285C528.089 91.0694 529.088 83.3967 526.457 76.9824Z" fill="#DBDBDB"/>
<path d="M505.875 71.235C505.968 71.2022 506.066 71.1875 506.165 71.1919C506.263 71.1963 506.36 71.2197 506.449 71.2607C506.538 71.3017 506.618 71.3596 506.684 71.4309C506.751 71.5022 506.802 71.5856 506.835 71.6764L507.229 72.8033C509.154 72.3089 511.188 72.3906 513.065 73.0381C513.401 73.1508 513.603 73.2729 513.699 73.5547C513.757 73.744 513.737 73.9478 513.644 74.1231C513.551 74.2984 513.391 74.4313 513.2 74.4938C513.107 74.5328 513.008 74.5529 512.907 74.5529C512.806 74.5529 512.707 74.5328 512.614 74.4938C511.027 73.8943 509.293 73.7669 507.632 74.1275L510.435 82.0256C515.139 81.4434 517.558 82.4294 518.537 85.1999C519.603 88.1863 517.789 91.1727 514.217 92.5157L514.995 94.7133C515.027 94.8021 515.04 94.8961 515.034 94.9899C515.029 95.0837 515.004 95.1756 514.962 95.2602C514.92 95.3447 514.862 95.4204 514.79 95.4829C514.718 95.5454 514.635 95.5934 514.544 95.6242C514.453 95.6551 514.357 95.6681 514.261 95.6626C514.165 95.6571 514.071 95.6332 513.985 95.5922C513.898 95.5512 513.821 95.494 513.757 95.4237C513.693 95.3535 513.644 95.2716 513.613 95.1828L512.806 92.9477C510.325 93.5879 507.697 93.3996 505.337 92.4124C505.217 92.3771 505.106 92.3145 505.014 92.2297C504.922 92.1449 504.852 92.0402 504.809 91.924C504.755 91.7383 504.773 91.5394 504.86 91.3659C504.947 91.1923 505.096 91.0566 505.28 90.9849C505.471 90.9107 505.684 90.9107 505.875 90.9849C507.913 91.9307 510.22 92.166 512.413 91.6517L509.533 83.6034C504.867 84.1387 502.525 83.1901 501.526 80.3633C500.528 77.5366 502.285 74.4844 505.779 73.1978L505.395 72.1272C505.343 71.9466 505.364 71.7534 505.453 71.5875C505.543 71.4215 505.693 71.2953 505.875 71.235ZM509.043 82.1759L506.317 74.475C503.533 75.4799 502.265 77.7432 502.985 79.7717C503.705 81.8002 505.011 82.6173 509.043 82.1759ZM510.963 83.4719L513.728 91.2667C516.608 90.2242 517.894 87.9515 517.126 85.8103C516.397 83.8569 514.966 83.0117 510.925 83.4719H510.963Z" fill="#DBDBDB"/>
<path d="M232.131 212.818C256.131 229.854 230.345 264.611 206.336 247.566C182.326 230.521 208.121 195.745 232.131 212.818Z" fill="#AA6239"/>
<path d="M229.885 211.212C252.723 227.459 227.005 262.207 204.089 245.96C181.174 229.713 207.008 194.947 229.885 211.212Z" fill="#FF9356"/>
<path d="M200.672 221.956C197.456 228.802 198.243 237.283 206.278 242.992C225.267 256.488 246.646 227.647 227.696 214.171C227.571 214.086 227.446 213.992 227.312 213.917C244.899 226.943 224.528 254.178 206.432 241.311C199.04 236.062 198.041 228.361 200.672 221.956Z" fill="#DBDBDB"/>
<path d="M221.715 215.805C221.888 215.884 222.023 216.027 222.091 216.202C222.159 216.377 222.155 216.572 222.08 216.744L221.59 217.852C223.338 218.782 224.762 220.201 225.68 221.928C225.765 222.041 225.819 222.174 225.837 222.314C225.856 222.453 225.838 222.595 225.785 222.726C225.742 222.817 225.681 222.898 225.605 222.966C225.53 223.034 225.441 223.086 225.345 223.12C225.248 223.154 225.146 223.169 225.044 223.164C224.942 223.16 224.841 223.135 224.749 223.092C224.653 223.056 224.567 223.001 224.496 222.93C224.425 222.858 224.37 222.773 224.336 222.679C223.593 221.183 222.418 219.933 220.957 219.082L217.52 226.717C221.36 229.441 222.435 231.77 221.216 234.446C219.901 237.339 216.483 238.306 212.941 236.888L211.981 239.02C211.902 239.193 211.756 239.328 211.575 239.396C211.394 239.464 211.193 239.459 211.016 239.382C210.839 239.304 210.7 239.162 210.631 238.985C210.562 238.808 210.567 238.611 210.646 238.438L211.606 236.278C209.347 235.087 207.563 233.188 206.537 230.887C206.475 230.781 206.439 230.662 206.431 230.54C206.422 230.418 206.442 230.296 206.489 230.183C206.579 230.008 206.732 229.872 206.919 229.803C207.105 229.733 207.312 229.735 207.497 229.807C207.592 229.845 207.679 229.901 207.751 229.972C207.824 230.043 207.881 230.127 207.92 230.22C208.747 232.27 210.264 233.983 212.221 235.076L215.773 227.3C212 224.567 210.973 222.313 212.201 219.58C213.43 216.847 216.867 215.823 220.313 217.204L220.784 216.162C220.867 216 221.008 215.875 221.18 215.809C221.351 215.743 221.542 215.741 221.715 215.805ZM216.368 225.91L219.766 218.453C217.04 217.326 214.525 218.134 213.632 220.097C212.739 222.059 213.152 223.487 216.368 225.91ZM216.838 228.107L213.401 235.62C216.214 236.785 218.749 235.987 219.699 233.921C220.553 232.052 220.102 230.483 216.838 228.107Z" fill="#DBDBDB"/>
<path d="M369.862 264.329L347.12 229.892L350.96 227.478L373.721 261.916L369.862 264.329ZM348.425 230.164L370.14 263.033L372.339 261.644L350.624 228.774L348.425 230.164Z" fill="#EBEBEB"/>
<path d="M378.262 259.005L355.5 224.576L366.483 217.627L389.254 252.065L378.262 259.005ZM356.825 224.858L378.54 257.728L387.92 251.802L366.204 218.932L356.825 224.858Z" fill="#EBEBEB"/>
<path d="M394.649 248.646L371.897 214.199L388.4 203.765L411.161 238.212L394.649 248.646ZM373.222 214.481L394.937 247.35L409.856 237.959L388.141 205.089L373.222 214.481Z" fill="#EBEBEB"/>
<path opacity="0.6" d="M230.096 433.186C230.098 434.079 229.829 434.954 229.322 435.698C228.816 436.442 228.096 437.022 227.252 437.366C226.409 437.709 225.48 437.8 224.583 437.627C223.687 437.453 222.863 437.024 222.217 436.392C221.57 435.761 221.129 434.956 220.95 434.08C220.771 433.203 220.862 432.294 221.211 431.468C221.561 430.643 222.152 429.936 222.912 429.44C223.672 428.943 224.565 428.678 225.478 428.678C226.084 428.677 226.685 428.792 227.245 429.018C227.805 429.244 228.314 429.576 228.743 429.995C229.172 430.413 229.512 430.911 229.744 431.458C229.977 432.006 230.096 432.593 230.096 433.186Z" fill="#FF9356"/>
<path opacity="0.6" d="M235.703 424.574C235.703 425.008 235.571 425.433 235.324 425.795C235.077 426.156 234.726 426.438 234.316 426.604C233.906 426.77 233.454 426.814 233.018 426.729C232.582 426.644 232.182 426.435 231.868 426.128C231.554 425.82 231.34 425.429 231.253 425.003C231.166 424.576 231.211 424.134 231.381 423.733C231.551 423.331 231.839 422.988 232.208 422.747C232.578 422.505 233.012 422.376 233.456 422.376C234.052 422.376 234.624 422.608 235.045 423.02C235.466 423.432 235.703 423.991 235.703 424.574Z" fill="#FF9356"/>
<path opacity="0.6" d="M334.333 431.035C334.333 431.47 334.201 431.894 333.955 432.256C333.708 432.617 333.357 432.899 332.946 433.065C332.536 433.232 332.084 433.275 331.648 433.19C331.213 433.106 330.812 432.896 330.498 432.589C330.184 432.282 329.97 431.89 329.883 431.464C329.797 431.037 329.841 430.596 330.011 430.194C330.181 429.792 330.469 429.449 330.839 429.208C331.208 428.966 331.642 428.837 332.087 428.837C332.683 428.837 333.254 429.069 333.675 429.481C334.096 429.893 334.333 430.452 334.333 431.035Z" fill="#FFC727"/>
<path opacity="0.6" d="M377.082 453.264C378.323 453.264 379.328 452.28 379.328 451.066C379.328 449.853 378.323 448.869 377.082 448.869C375.841 448.869 374.835 449.853 374.835 451.066C374.835 452.28 375.841 453.264 377.082 453.264Z" fill="#FFC727"/>
<path opacity="0.6" d="M375.92 457.5C375.92 458.195 375.638 458.861 375.136 459.352C374.633 459.844 373.952 460.12 373.242 460.12H206.202C205.85 460.12 205.502 460.052 205.177 459.92C204.852 459.789 204.557 459.596 204.308 459.352C204.059 459.109 203.862 458.82 203.727 458.502C203.593 458.184 203.523 457.844 203.523 457.5C203.523 457.156 203.593 456.815 203.727 456.497C203.862 456.179 204.059 455.89 204.308 455.647C204.557 455.404 204.852 455.211 205.177 455.079C205.502 454.947 205.85 454.88 206.202 454.88C206.415 454.877 206.628 454.899 206.835 454.945C206.835 453.918 207.148 452.913 207.734 452.061C208.32 451.208 209.153 450.546 210.126 450.158C211.099 449.771 212.168 449.677 213.196 449.887C214.224 450.097 215.165 450.603 215.898 451.339H215.946C215.946 451.02 215.898 450.7 215.898 450.4C215.895 448.738 216.325 447.104 217.149 445.651C217.973 444.197 219.162 442.974 220.604 442.097C222.046 441.219 223.694 440.716 225.39 440.636C227.086 440.556 228.776 440.901 230.298 441.638C230.427 440.083 231.085 438.616 232.167 437.471C233.249 436.326 234.692 435.569 236.266 435.321C237.84 435.073 239.453 435.349 240.848 436.104C242.243 436.86 243.338 438.051 243.959 439.487C244.854 438.089 246.098 436.936 247.575 436.138C249.051 435.339 250.71 434.921 252.397 434.923C253.041 434.924 253.684 434.984 254.317 435.101C254.182 434.351 254.115 433.591 254.115 432.829C254.113 430.3 254.853 427.824 256.248 425.696C257.642 423.567 259.633 421.875 261.982 420.821C264.332 419.768 266.941 419.397 269.5 419.752C272.059 420.108 274.46 421.175 276.416 422.827C276.641 422.399 276.982 422.039 277.402 421.787C277.822 421.535 278.305 421.401 278.797 421.4C279.149 421.401 279.498 421.468 279.824 421.597L282.33 188.552H297.047L299.552 421.597C299.882 421.469 300.234 421.402 300.589 421.4C301.08 421.401 301.562 421.535 301.98 421.787C302.398 422.039 302.738 422.399 302.96 422.827C305.07 421.06 307.685 419.973 310.45 419.713C313.214 419.453 315.993 420.034 318.408 421.377C320.822 422.719 322.755 424.757 323.942 427.213C325.129 429.67 325.512 432.424 325.04 435.101C325.673 434.983 326.316 434.924 326.96 434.923C328.648 434.922 330.309 435.34 331.787 436.138C333.264 436.936 334.511 438.089 335.408 439.487C335.994 438.004 337.082 436.761 338.49 435.967C339.899 435.172 341.543 434.874 343.149 435.121C344.755 435.368 346.226 436.146 347.317 437.324C348.408 438.503 349.054 440.012 349.146 441.6C350.668 440.863 352.357 440.518 354.054 440.599C355.75 440.679 357.397 441.182 358.84 442.059C360.282 442.937 361.471 444.16 362.295 445.613C363.118 447.066 363.549 448.701 363.546 450.362C363.564 450.675 363.564 450.989 363.546 451.301C364.279 450.565 365.219 450.06 366.248 449.849C367.276 449.639 368.345 449.734 369.318 450.121C370.291 450.508 371.124 451.17 371.71 452.023C372.296 452.876 372.609 453.88 372.608 454.908C372.816 454.862 373.029 454.84 373.242 454.842C373.597 454.842 373.948 454.911 374.276 455.045C374.603 455.179 374.9 455.375 375.149 455.623C375.399 455.87 375.595 456.163 375.727 456.485C375.86 456.808 375.925 457.152 375.92 457.5Z" fill="#FF9356"/>
<path d="M262.458 124.766C261.882 124.766 240.378 134.486 239.063 158.443C237.892 180.465 253.463 201.38 255.469 199.99C257.927 198.3 253.741 184.579 258.522 168.886C260.221 163.317 267.642 158.377 267.642 158.377L262.458 124.766Z" fill="#FF9356"/>
<path opacity="0.1" d="M267.642 158.377C265.477 159.878 263.499 161.621 261.748 163.571C258.541 156.574 252.56 143.511 248.701 135.049C255.008 127.912 262.141 124.719 262.458 124.719L267.642 158.377Z" fill="black"/>
<path d="M317.283 124.803C317.859 124.803 339.363 134.561 340.631 158.518C341.773 180.541 326.173 201.427 324.167 200.046C321.709 198.347 325.914 184.626 321.152 168.924C319.472 163.364 312.061 158.405 312.061 158.405L317.283 124.803Z" fill="#FF9356"/>
<path opacity="0.1" d="M331.107 135.209C327.21 143.746 321.219 156.809 318.051 163.749C316.276 161.749 314.265 159.962 312.061 158.424L317.283 124.822C317.61 124.803 324.791 127.987 331.107 135.209Z" fill="black"/>
<path d="M306.157 179.864H273.661C273.661 179.864 258.339 153.052 260.154 121.122C261.114 105.157 265.328 89.1351 270.454 75.8558C277.51 57.5145 286.227 44.4982 290.01 44.5076C293.792 44.517 302.49 57.5239 309.536 75.8839C314.624 89.1726 318.858 105.222 319.75 121.169C321.517 153.099 306.157 179.864 306.157 179.864Z" fill="#DBDBDB"/>
<path d="M309.412 117.037C309.41 120.665 308.308 124.211 306.246 127.226C304.184 130.241 301.254 132.591 297.827 133.977C294.399 135.363 290.629 135.724 286.992 135.014C283.355 134.303 280.016 132.554 277.395 129.986C274.775 127.419 272.992 124.149 272.271 120.59C271.551 117.032 271.925 113.344 273.348 109.993C274.77 106.643 277.176 103.78 280.262 101.767C283.347 99.7546 286.974 98.6823 290.682 98.686C295.652 98.6935 300.416 100.63 303.928 104.071C307.439 107.511 309.412 112.175 309.412 117.037Z" fill="#C7C7C7"/>
<path d="M308.72 115.168C308.718 118.795 307.617 122.341 305.555 125.356C303.493 128.371 300.564 130.721 297.137 132.107C293.711 133.494 289.941 133.855 286.304 133.145C282.668 132.436 279.328 130.687 276.707 128.121C274.087 125.555 272.303 122.286 271.581 118.727C270.859 115.169 271.233 111.482 272.654 108.131C274.074 104.78 276.479 101.917 279.563 99.903C282.647 97.8892 286.273 96.8153 289.981 96.8171C292.443 96.8184 294.881 97.294 297.155 98.2169C299.429 99.1397 301.496 100.492 303.236 102.196C304.976 103.9 306.356 105.922 307.297 108.148C308.238 110.374 308.722 112.759 308.72 115.168Z" fill="#FF9356"/>
<path d="M302.96 115.149C302.96 117.666 302.197 120.126 300.767 122.217C299.337 124.309 297.305 125.939 294.927 126.9C292.55 127.862 289.934 128.111 287.412 127.618C284.889 127.124 282.573 125.909 280.757 124.127C278.941 122.345 277.706 120.076 277.208 117.607C276.711 115.138 276.974 112.58 277.964 110.257C278.954 107.934 280.626 105.951 282.768 104.558C284.911 103.165 287.428 102.426 290 102.433C293.44 102.446 296.735 103.79 299.164 106.174C301.593 108.557 302.958 111.784 302.96 115.149Z" fill="white"/>
<path d="M302.96 115.149C302.964 116.726 302.668 118.289 302.087 119.76L294.676 127.01C293.172 127.578 291.574 127.868 289.962 127.865C288.787 127.867 287.617 127.709 286.487 127.395L302.528 111.73C302.831 112.845 302.977 113.995 302.96 115.149Z" fill="#EBEBEB"/>
<path d="M291.911 102.574L277.146 117.018C277.049 116.396 277 115.768 277.002 115.14C277.005 111.769 278.375 108.537 280.813 106.154C283.25 103.772 286.555 102.433 290 102.433C290.64 102.432 291.279 102.479 291.911 102.574Z" fill="#EBEBEB"/>
<path d="M301.376 108.988L283.76 126.278C283.428 126.097 283.107 125.897 282.8 125.677L300.848 108.021C300.983 108.331 301.184 108.66 301.376 108.988Z" fill="#EBEBEB"/>
<path d="M309.536 75.8838H270.455C277.511 57.5426 286.227 44.5263 290.01 44.5356C293.792 44.545 302.49 57.5238 309.536 75.8838Z" fill="#FF9356"/>
<path d="M277.184 71.9115C277.184 72.1228 277.12 72.3294 277.001 72.5053C276.881 72.6811 276.71 72.8184 276.511 72.8997C276.312 72.981 276.092 73.0027 275.88 72.9621C275.668 72.9216 275.473 72.8206 275.32 72.6718C275.166 72.523 275.061 72.3331 275.018 72.126C274.975 71.919 274.995 71.704 275.076 71.5082C275.158 71.3124 275.296 71.1446 275.475 71.0258C275.654 70.9071 275.864 70.8427 276.08 70.8409C276.225 70.8396 276.368 70.8664 276.502 70.9196C276.636 70.9729 276.758 71.0516 276.86 71.1511C276.963 71.2506 277.045 71.3691 277.1 71.4996C277.156 71.6301 277.184 71.7701 277.184 71.9115Z" fill="white"/>
<path d="M284.135 71.9114C284.135 72.1232 284.07 72.3302 283.95 72.5062C283.83 72.6823 283.659 72.8195 283.459 72.9005C283.259 72.9816 283.039 73.0028 282.827 72.9615C282.614 72.9202 282.419 72.8182 282.266 72.6685C282.113 72.5187 282.009 72.328 281.967 72.1203C281.925 71.9126 281.946 71.6974 282.029 71.5017C282.112 71.3061 282.252 71.1389 282.432 71.0213C282.612 70.9036 282.824 70.8408 283.04 70.8408C283.33 70.8408 283.609 70.9536 283.814 71.1544C284.019 71.3552 284.135 71.6275 284.135 71.9114Z" fill="white"/>
<path d="M291.085 71.9207C291.085 72.1325 291.021 72.3394 290.901 72.5155C290.781 72.6916 290.61 72.8288 290.41 72.9098C290.21 72.9909 289.99 73.0121 289.777 72.9707C289.565 72.9294 289.37 72.8275 289.217 72.6777C289.064 72.528 288.96 72.3372 288.918 72.1296C288.875 71.9219 288.897 71.7066 288.98 71.511C289.063 71.3154 289.203 71.1482 289.383 71.0305C289.563 70.9129 289.774 70.8501 289.991 70.8501C290.281 70.8501 290.559 70.9629 290.765 71.1637C290.97 71.3644 291.085 71.6368 291.085 71.9207Z" fill="white"/>
<path d="M298.035 71.9207C298.035 72.2046 297.92 72.477 297.715 72.6777C297.51 72.8785 297.231 72.9913 296.941 72.9913C296.651 72.9913 296.372 72.8785 296.167 72.6777C295.962 72.477 295.847 72.2046 295.847 71.9207C295.849 71.6359 295.967 71.3636 296.173 71.1631C296.38 70.9626 296.66 70.8501 296.951 70.8501C297.239 70.8526 297.515 70.9665 297.718 71.167C297.922 71.3675 298.035 71.6384 298.035 71.9207Z" fill="white"/>
<path d="M304.995 71.9301C304.995 72.1427 304.931 72.3504 304.81 72.5269C304.688 72.7033 304.516 72.8405 304.315 72.9209C304.114 73.0014 303.893 73.0215 303.68 72.9786C303.468 72.9358 303.273 72.8319 303.12 72.6803C302.968 72.5287 302.865 72.3362 302.825 72.1273C302.785 71.9184 302.81 71.7025 302.896 71.5073C302.981 71.312 303.125 71.1461 303.307 71.0308C303.49 70.9154 303.703 70.8558 303.92 70.8595C304.206 70.8668 304.478 70.9826 304.679 71.1823C304.88 71.382 304.993 71.6502 304.995 71.9301Z" fill="white"/>
<path d="M277.136 174.953C277.136 175.164 277.072 175.371 276.952 175.547C276.831 175.724 276.66 175.861 276.46 175.942C276.26 176.023 276.04 176.044 275.828 176.003C275.616 175.961 275.421 175.859 275.268 175.71C275.115 175.56 275.011 175.369 274.968 175.162C274.926 174.954 274.948 174.739 275.031 174.543C275.113 174.347 275.254 174.18 275.434 174.063C275.614 173.945 275.825 173.882 276.042 173.882C276.332 173.882 276.61 173.995 276.816 174.196C277.021 174.396 277.136 174.669 277.136 174.953Z" fill="#C7C7C7"/>
<path d="M284.087 174.962C284.087 175.246 283.971 175.519 283.766 175.719C283.561 175.92 283.282 176.033 282.992 176.033C282.849 176.034 282.706 176.007 282.573 175.954C282.44 175.9 282.32 175.821 282.219 175.722C282.118 175.622 282.038 175.503 281.985 175.373C281.931 175.242 281.905 175.103 281.907 174.962C281.907 174.678 282.023 174.406 282.228 174.205C282.433 174.004 282.712 173.892 283.002 173.892C283.145 173.89 283.288 173.917 283.421 173.971C283.554 174.024 283.674 174.103 283.775 174.203C283.876 174.303 283.956 174.421 284.009 174.552C284.063 174.682 284.089 174.822 284.087 174.962Z" fill="#C7C7C7"/>
<path d="M291.047 174.962C291.047 175.174 290.983 175.381 290.862 175.557C290.742 175.733 290.571 175.87 290.371 175.951C290.171 176.032 289.951 176.054 289.739 176.012C289.527 175.971 289.332 175.869 289.178 175.719C289.025 175.57 288.921 175.379 288.879 175.171C288.837 174.963 288.858 174.748 288.941 174.553C289.024 174.357 289.164 174.19 289.344 174.072C289.524 173.954 289.736 173.892 289.952 173.892C290.242 173.894 290.519 174.008 290.723 174.208C290.928 174.408 291.044 174.679 291.047 174.962Z" fill="#C7C7C7"/>
<path d="M297.997 174.971C297.997 175.183 297.933 175.39 297.812 175.566C297.692 175.742 297.521 175.88 297.321 175.961C297.121 176.042 296.901 176.063 296.689 176.022C296.477 175.98 296.282 175.878 296.129 175.729C295.976 175.579 295.871 175.388 295.829 175.18C295.787 174.973 295.809 174.757 295.891 174.562C295.974 174.366 296.115 174.199 296.294 174.081C296.474 173.964 296.686 173.901 296.903 173.901C297.193 173.901 297.471 174.014 297.676 174.214C297.882 174.415 297.997 174.688 297.997 174.971Z" fill="#C7C7C7"/>
<path d="M304.948 174.971C304.948 175.183 304.883 175.39 304.763 175.566C304.643 175.742 304.472 175.88 304.272 175.961C304.072 176.042 303.852 176.063 303.64 176.022C303.427 175.98 303.232 175.878 303.079 175.729C302.926 175.579 302.822 175.388 302.78 175.18C302.738 174.973 302.759 174.757 302.842 174.562C302.925 174.366 303.065 174.199 303.245 174.081C303.425 173.964 303.637 173.901 303.853 173.901C304.143 173.901 304.422 174.014 304.627 174.214C304.832 174.415 304.948 174.688 304.948 174.971Z" fill="#C7C7C7"/>
<path d="M303.162 189.425L276.723 189.406L275.495 179.846L304.41 179.874L303.162 189.425Z" fill="#FF9356"/>
<path opacity="0.1" d="M304.41 179.874L303.795 184.522L275.965 183.508L275.495 179.855L304.41 179.874Z" fill="black"/>
<path d="M333.527 435.918L330.061 436.547L329.284 440.135L328.506 436.547L325.031 435.918L328.487 435.092L329.284 431.711L330.071 435.092L333.527 435.918Z" fill="#FCFCFC"/>
<path d="M299.744 407.19L296.269 407.82L295.492 411.407L294.714 407.82L291.239 407.19L294.704 406.364L295.492 402.983L296.279 406.364L299.744 407.19Z" fill="#FCFCFC"/>
<path d="M249.258 442.746L247.309 443.093L246.877 445.094L246.445 443.093L244.506 442.746L246.435 442.286L246.877 440.389L247.319 442.286L249.258 442.746Z" fill="#FCFCFC"/>
<path d="M353.734 448.719L351.786 449.066L351.354 451.067L350.922 449.066L348.982 448.719L350.912 448.249L351.354 446.362L351.795 448.249L353.734 448.719Z" fill="#FCFCFC"/>
<path d="M222.531 455.734L220.592 456.081L220.16 458.091L219.718 456.081L217.779 455.734L219.709 455.274L220.16 453.377L220.602 455.274L222.531 455.734Z" fill="#FCFCFC"/>
<path d="M306.992 454.072L305.053 454.419L304.621 456.42L304.189 454.419L302.24 454.072L304.179 453.602L304.621 451.715L305.063 453.602L306.992 454.072Z" fill="#FCFCFC"/>
<path d="M292.784 401.743L290.835 402.1L290.403 404.101L289.971 402.1L288.032 401.743L289.962 401.283L290.403 399.396L290.845 401.283L292.784 401.743Z" fill="#FCFCFC"/>
<path d="M358.323 453.048C358.187 453.066 358.062 453.131 357.971 453.232C357.881 453.333 357.831 453.463 357.831 453.597C357.831 453.732 357.881 453.862 357.971 453.963C358.062 454.064 358.187 454.129 358.323 454.147C358.46 454.129 358.585 454.064 358.676 453.963C358.766 453.862 358.816 453.732 358.816 453.597C358.816 453.463 358.766 453.333 358.676 453.232C358.585 453.131 358.46 453.066 358.323 453.048Z" fill="#FCFCFC"/>
<path d="M285.267 394.803C285.131 394.821 285.006 394.886 284.915 394.987C284.824 395.088 284.774 395.218 284.774 395.353C284.774 395.487 284.824 395.617 284.915 395.718C285.006 395.819 285.131 395.885 285.267 395.902C285.404 395.885 285.529 395.819 285.619 395.718C285.71 395.617 285.76 395.487 285.76 395.353C285.76 395.218 285.71 395.088 285.619 394.987C285.529 394.886 285.404 394.821 285.267 394.803Z" fill="#FCFCFC"/>
<path d="M237.238 455.734C237.102 455.751 236.977 455.817 236.886 455.918C236.796 456.019 236.746 456.149 236.746 456.283C236.746 456.418 236.796 456.548 236.886 456.649C236.977 456.75 237.102 456.815 237.238 456.833C237.375 456.815 237.5 456.75 237.591 456.649C237.681 456.548 237.731 456.418 237.731 456.283C237.731 456.149 237.681 456.019 237.591 455.918C237.5 455.817 237.375 455.751 237.238 455.734Z" fill="#FCFCFC"/>
<path d="M272.912 448.165C272.776 448.182 272.651 448.247 272.56 448.348C272.469 448.45 272.419 448.579 272.419 448.714C272.419 448.848 272.469 448.978 272.56 449.079C272.651 449.18 272.776 449.246 272.912 449.263C273.049 449.246 273.174 449.18 273.264 449.079C273.355 448.978 273.405 448.848 273.405 448.714C273.405 448.579 273.355 448.45 273.264 448.348C273.174 448.247 273.049 448.182 272.912 448.165Z" fill="#FCFCFC"/>
<path d="M344.24 443.14C344.145 443.155 344.058 443.202 343.996 443.274C343.933 443.345 343.899 443.436 343.899 443.53C343.899 443.624 343.933 443.715 343.996 443.787C344.058 443.858 344.145 443.905 344.24 443.92C344.335 443.905 344.422 443.858 344.484 443.787C344.547 443.715 344.581 443.624 344.581 443.53C344.581 443.436 344.547 443.345 344.484 443.274C344.422 443.202 344.335 443.155 344.24 443.14Z" fill="#FCFCFC"/>
<path d="M295.021 437.308C294.926 437.323 294.839 437.37 294.777 437.442C294.714 437.513 294.68 437.604 294.68 437.698C294.68 437.792 294.714 437.883 294.777 437.955C294.839 438.026 294.926 438.073 295.021 438.088C295.116 438.073 295.203 438.026 295.265 437.955C295.328 437.883 295.362 437.792 295.362 437.698C295.362 437.604 295.328 437.513 295.265 437.442C295.203 437.37 295.116 437.323 295.021 437.308Z" fill="#FCFCFC"/>
<path d="M259.012 429.692C258.917 429.706 258.83 429.754 258.767 429.825C258.705 429.897 258.67 429.988 258.67 430.082C258.67 430.176 258.705 430.267 258.767 430.338C258.83 430.41 258.917 430.457 259.012 430.471C259.107 430.457 259.193 430.41 259.256 430.338C259.318 430.267 259.353 430.176 259.353 430.082C259.353 429.988 259.318 429.897 259.256 429.825C259.193 429.754 259.107 429.706 259.012 429.692Z" fill="#FCFCFC"/>
<path d="M320.624 431.279C320.356 431.304 320.106 431.426 319.924 431.621C319.742 431.817 319.642 432.071 319.642 432.336C319.642 432.6 319.742 432.854 319.924 433.05C320.106 433.245 320.356 433.367 320.624 433.392C320.893 433.367 321.143 433.245 321.325 433.05C321.507 432.854 321.607 432.6 321.607 432.336C321.607 432.071 321.507 431.817 321.325 431.621C321.143 431.426 320.893 431.304 320.624 431.279Z" fill="#FCFCFC"/>
<path d="M264.109 426.114C263.84 426.139 263.59 426.261 263.408 426.456C263.227 426.651 263.126 426.906 263.126 427.17C263.126 427.434 263.227 427.689 263.408 427.885C263.59 428.08 263.84 428.202 264.109 428.227C264.378 428.202 264.627 428.08 264.809 427.885C264.991 427.689 265.092 427.434 265.092 427.17C265.092 426.906 264.991 426.651 264.809 426.456C264.627 426.261 264.378 426.139 264.109 426.114Z" fill="#FCFCFC"/>
<path d="M384.378 397.508H351.507V460.12H384.378V397.508Z" fill="#FF9356"/>
<path opacity="0.6" d="M384.378 397.508H351.507V460.12H384.378V397.508Z" fill="white"/>
<path d="M339.085 460.11H351.507V397.498H339.085V460.11Z" fill="#FF9356"/>
<path opacity="0.4" d="M339.085 460.11H351.507V397.498H339.085V460.11Z" fill="white"/>
<path d="M448.986 355.632H416.115V460.119H448.986V355.632Z" fill="#FF9356"/>
<path opacity="0.6" d="M448.986 355.632H416.115V460.119H448.986V355.632Z" fill="white"/>
<path d="M403.693 460.11H416.115V355.622H403.693V460.11Z" fill="#FF9356"/>
<path opacity="0.4" d="M403.693 460.11H416.115V355.622H403.693V460.11Z" fill="white"/>
<path d="M513.594 302.984H480.723V460.11H513.594V302.984Z" fill="#FF9356"/>
<path opacity="0.6" d="M513.594 302.984H480.723V460.11H513.594V302.984Z" fill="white"/>
<path d="M468.301 460.12H480.723V302.994H468.301V460.12Z" fill="#FF9356"/>
<path opacity="0.4" d="M468.301 460.12H480.723V302.994H468.301V460.12Z" fill="white"/>
<path d="M578.192 239.621H545.322V460.11H578.192V239.621Z" fill="#FF9356"/>
<path opacity="0.6" d="M578.192 239.621H545.322V460.11H578.192V239.621Z" fill="white"/>
<path d="M532.909 460.12H545.332V239.631H532.909V460.12Z" fill="#FF9356"/>
<path opacity="0.4" d="M532.909 460.12H545.332V239.631H532.909V460.12Z" fill="white"/>
<path d="M203.542 460.148C328.122 459.566 467.878 459.566 592.458 460.148C467.878 460.721 328.122 460.721 203.542 460.148Z" fill="#263238"/>
<path d="M358.342 446.831H296.854V460.12H358.342V446.831Z" fill="#FF9356"/>
<g opacity="0.1">
<path d="M299.389 448.042C300.046 451.557 300.046 455.159 299.389 458.673C298.731 455.159 298.731 451.557 299.389 448.042Z" fill="black"/>
<path d="M303.968 448.042C304.626 451.557 304.626 455.159 303.968 458.673C303.306 455.159 303.306 451.557 303.968 448.042Z" fill="black"/>
<path d="M306.205 448.042C306.867 451.557 306.867 455.159 306.205 458.673C305.547 455.159 305.547 451.557 306.205 448.042Z" fill="black"/>
<path d="M318.483 448.042C319.145 451.557 319.145 455.159 318.483 458.673C317.825 455.159 317.825 451.557 318.483 448.042Z" fill="black"/>
<path d="M321.805 448.042C322.467 451.557 322.467 455.159 321.805 458.673C321.147 455.159 321.147 451.557 321.805 448.042Z" fill="black"/>
<path d="M335.542 448.042C336.205 451.557 336.205 455.159 335.542 458.673C334.885 455.159 334.885 451.557 335.542 448.042Z" fill="black"/>
<path d="M338.72 448.042C339.377 451.557 339.377 455.159 338.72 458.673C338.058 455.159 338.058 451.557 338.72 448.042Z" fill="black"/>
<path d="M344.547 448.042C345.205 451.557 345.205 455.159 344.547 458.673C343.885 455.159 343.885 451.557 344.547 448.042Z" fill="black"/>
<path d="M332.893 448.042C333.55 451.557 333.55 455.159 332.893 458.673C332.23 455.159 332.23 451.557 332.893 448.042Z" fill="black"/>
<path d="M310.265 448.042C310.923 451.557 310.923 455.159 310.265 458.673C309.603 455.159 309.603 451.557 310.265 448.042Z" fill="black"/>
<path d="M326.173 448.042C326.835 451.557 326.835 455.159 326.173 458.673C325.515 455.159 325.515 451.557 326.173 448.042Z" fill="black"/>
<path d="M328.467 448.042C329.125 451.557 329.125 455.159 328.467 458.673C327.805 455.159 327.805 451.557 328.467 448.042Z" fill="black"/>
<path d="M352.141 448.042C352.798 451.557 352.798 455.159 352.141 458.673C351.483 455.159 351.483 451.557 352.141 448.042Z" fill="black"/>
<path d="M355.577 448.042C356.235 451.557 356.235 455.159 355.577 458.673C354.915 455.159 354.915 451.557 355.577 448.042Z" fill="black"/>
<path d="M347.254 448.042C347.912 451.557 347.912 455.159 347.254 458.673C346.592 455.159 346.592 451.557 347.254 448.042Z" fill="black"/>
<path d="M315.833 448.042C316.491 451.557 316.491 455.159 315.833 458.673C315.171 455.159 315.171 451.557 315.833 448.042Z" fill="black"/>
</g>
<path opacity="0.1" d="M358.333 446.831V449.648L296.854 451.545V446.831H358.333Z" fill="black"/>
<path d="M353.216 433.533H291.728V446.822H353.216V433.533Z" fill="#FF9356"/>
<g opacity="0.1">
<path d="M350.442 445.385C349.784 441.87 349.784 438.268 350.442 434.754C351.104 438.268 351.104 441.871 350.442 445.385Z" fill="black"/>
<path d="M345.862 445.385C345.205 441.87 345.205 438.268 345.862 434.754C346.525 438.268 346.525 441.871 345.862 445.385Z" fill="black"/>
<path d="M343.625 445.385C342.968 441.87 342.968 438.268 343.625 434.754C344.288 438.268 344.288 441.871 343.625 445.385Z" fill="black"/>
<path d="M331.347 445.385C330.69 441.87 330.69 438.268 331.347 434.754C332.01 438.268 332.01 441.871 331.347 445.385Z" fill="black"/>
<path d="M328.026 445.385C327.368 441.87 327.368 438.268 328.026 434.754C328.688 438.268 328.688 441.871 328.026 445.385Z" fill="black"/>
<path d="M314.288 445.385C313.631 441.87 313.631 438.268 314.288 434.754C314.95 438.268 314.95 441.871 314.288 445.385Z" fill="black"/>
<path d="M311.12 445.385C310.457 441.871 310.457 438.268 311.12 434.754C311.777 438.268 311.777 441.87 311.12 445.385Z" fill="black"/>
<path d="M305.293 445.385C304.63 441.871 304.63 438.268 305.293 434.754C305.95 438.268 305.95 441.87 305.293 445.385Z" fill="black"/>
<path d="M316.947 445.385C316.285 441.871 316.285 438.268 316.947 434.754C317.605 438.268 317.605 441.87 316.947 445.385Z" fill="black"/>
<path d="M339.565 445.385C338.907 441.87 338.907 438.268 339.565 434.754C340.232 438.267 340.232 441.871 339.565 445.385Z" fill="black"/>
<path d="M323.657 445.385C322.995 441.871 322.995 438.268 323.657 434.754C324.315 438.268 324.315 441.87 323.657 445.385Z" fill="black"/>
<path d="M321.363 445.385C320.706 441.87 320.706 438.268 321.363 434.754C322.026 438.268 322.026 441.871 321.363 445.385Z" fill="black"/>
<path d="M297.689 445.385C297.032 441.87 297.032 438.268 297.689 434.754C298.352 438.268 298.352 441.871 297.689 445.385Z" fill="black"/>
<path d="M294.262 445.385C293.6 441.871 293.6 438.268 294.262 434.754C294.92 438.268 294.92 441.87 294.262 445.385Z" fill="black"/>
<path d="M302.586 445.385C301.923 441.871 301.923 438.268 302.586 434.754C303.243 438.268 303.243 441.87 302.586 445.385Z" fill="black"/>
<path d="M334.007 445.385C333.344 441.871 333.344 438.268 334.007 434.754C334.664 438.268 334.664 441.87 334.007 445.385Z" fill="black"/>
</g>
<path opacity="0.1" d="M353.206 433.542V436.36L291.718 438.257V433.542H353.206Z" fill="black"/>
<path d="M357.948 420.357H296.46V433.646H357.948V420.357Z" fill="#FF9356"/>
<g opacity="0.1">
<path d="M298.995 421.568C299.653 425.086 299.653 428.691 298.995 432.209C298.338 428.691 298.338 425.086 298.995 421.568Z" fill="black"/>
<path d="M303.574 421.568C304.232 425.086 304.232 428.691 303.574 432.209C302.912 428.692 302.912 425.086 303.574 421.568Z" fill="black"/>
<path d="M305.84 421.568C306.497 425.086 306.497 428.691 305.84 432.209C305.182 428.691 305.182 425.086 305.84 421.568Z" fill="black"/>
<path d="M318.089 421.568C318.752 425.086 318.752 428.692 318.089 432.209C317.432 428.691 317.432 425.086 318.089 421.568Z" fill="black"/>
<path d="M321.411 421.568C322.073 425.086 322.073 428.692 321.411 432.209C320.754 428.691 320.754 425.086 321.411 421.568Z" fill="black"/>
<path d="M335.149 421.568C335.811 425.086 335.811 428.692 335.149 432.209C334.491 428.691 334.491 425.086 335.149 421.568Z" fill="black"/>
<path d="M338.326 421.568C338.984 425.086 338.984 428.691 338.326 432.209C337.664 428.692 337.664 425.086 338.326 421.568Z" fill="black"/>
<path d="M344.153 421.568C344.811 425.086 344.811 428.691 344.153 432.209C343.491 428.692 343.491 425.086 344.153 421.568Z" fill="black"/>
<path d="M332.499 421.568C333.157 425.086 333.157 428.691 332.499 432.209C331.837 428.692 331.837 425.086 332.499 421.568Z" fill="black"/>
<path d="M309.872 421.568C310.529 425.086 310.529 428.691 309.872 432.209C309.209 428.692 309.209 425.086 309.872 421.568Z" fill="black"/>
<path d="M325.779 421.568C326.442 425.086 326.442 428.692 325.779 432.209C325.122 428.691 325.122 425.086 325.779 421.568Z" fill="black"/>
<path d="M328.073 421.568C328.731 425.086 328.731 428.691 328.073 432.209C327.411 428.692 327.411 425.086 328.073 421.568Z" fill="black"/>
<path d="M351.747 421.568C352.405 425.086 352.405 428.691 351.747 432.209C351.09 428.691 351.09 425.086 351.747 421.568Z" fill="black"/>
<path d="M355.184 421.568C355.841 425.086 355.841 428.691 355.184 432.209C354.521 428.692 354.521 425.086 355.184 421.568Z" fill="black"/>
<path d="M346.861 421.568C347.519 425.086 347.519 428.691 346.861 432.209C346.199 428.692 346.199 425.086 346.861 421.568Z" fill="black"/>
<path d="M315.44 421.568C316.098 425.086 316.098 428.691 315.44 432.209C314.778 428.692 314.778 425.086 315.44 421.568Z" fill="black"/>
</g>
<path opacity="0.1" d="M357.939 420.357V423.184L296.46 425.081V420.357H357.939Z" fill="black"/>
<path d="M563.437 446.822H501.949V460.11H563.437V446.822Z" fill="#FF9356"/>
<g opacity="0.1">
<path d="M504.483 448.042C505.141 451.557 505.141 455.159 504.483 458.673C503.821 455.159 503.821 451.557 504.483 448.042Z" fill="black"/>
<path d="M509.062 448.042C509.72 451.557 509.72 455.159 509.062 458.673C508.4 455.159 508.4 451.557 509.062 448.042Z" fill="black"/>
<path d="M511.28 448.042C511.938 451.557 511.938 455.159 511.28 458.673C510.618 455.159 510.618 451.557 511.28 448.042Z" fill="black"/>
<path d="M523.577 448.042C524.235 451.557 524.235 455.159 523.577 458.673C522.915 455.159 522.915 451.557 523.577 448.042Z" fill="black"/>
<path d="M526.899 448.042C527.556 451.557 527.556 455.159 526.899 458.673C526.241 455.159 526.241 451.557 526.899 448.042Z" fill="black"/>
<path d="M540.637 448.042C541.294 451.557 541.294 455.159 540.637 458.673C539.975 455.159 539.975 451.557 540.637 448.042Z" fill="black"/>
<path d="M543.814 448.042C544.472 451.557 544.472 455.159 543.814 458.673C543.147 455.16 543.147 451.556 543.814 448.042Z" fill="black"/>
<path d="M549.68 448.042C550.337 451.557 550.337 455.159 549.68 458.673C549.017 455.159 549.017 451.557 549.68 448.042Z" fill="black"/>
<path d="M537.977 448.042C538.64 451.557 538.64 455.159 537.977 458.673C537.32 455.159 537.32 451.557 537.977 448.042Z" fill="black"/>
<path d="M515.36 448.042C516.018 451.557 516.018 455.159 515.36 458.673C514.698 455.159 514.698 451.557 515.36 448.042Z" fill="black"/>
<path d="M531.267 448.042C531.929 451.557 531.929 455.159 531.267 458.673C530.61 455.159 530.61 451.557 531.267 448.042Z" fill="black"/>
<path d="M533.562 448.042C534.219 451.557 534.219 455.159 533.562 458.673C532.899 455.159 532.899 451.557 533.562 448.042Z" fill="black"/>
<path d="M557.235 448.042C557.893 451.557 557.893 455.159 557.235 458.673C556.573 455.159 556.573 451.557 557.235 448.042Z" fill="black"/>
<path d="M560.672 448.042C561.33 451.557 561.33 455.159 560.672 458.673C560.01 455.159 560.01 451.557 560.672 448.042Z" fill="black"/>
<path d="M552.339 448.042C553.002 451.557 553.002 455.159 552.339 458.673C551.682 455.159 551.682 451.557 552.339 448.042Z" fill="black"/>
<path d="M520.928 448.042C521.585 451.557 521.585 455.159 520.928 458.673C520.266 455.159 520.266 451.557 520.928 448.042Z" fill="black"/>
</g>
<path opacity="0.1" d="M563.427 446.831V449.648L501.949 451.545V446.831H563.427Z" fill="black"/>
<path d="M559.232 433.533H497.744V446.822H559.232V433.533Z" fill="#FF9356"/>
<g opacity="0.1">
<path d="M500.278 434.791C500.936 438.306 500.936 441.908 500.278 445.422C499.616 441.908 499.616 438.305 500.278 434.791Z" fill="black"/>
<path d="M504.857 434.791C505.515 438.306 505.515 441.908 504.857 445.422C504.195 441.908 504.195 438.305 504.857 434.791Z" fill="black"/>
<path d="M507.094 434.791C507.751 438.306 507.751 441.908 507.094 445.422C506.432 441.908 506.432 438.305 507.094 434.791Z" fill="black"/>
<path d="M519.372 434.791C520.03 438.306 520.03 441.908 519.372 445.422C518.71 441.908 518.71 438.305 519.372 434.791Z" fill="black"/>
<path d="M522.694 434.791C523.352 438.306 523.352 441.908 522.694 445.422C522.037 441.908 522.037 438.306 522.694 434.791Z" fill="black"/>
<path d="M536.432 434.791C537.089 438.306 537.089 441.908 536.432 445.422C535.769 441.908 535.769 438.305 536.432 434.791Z" fill="black"/>
<path d="M539.6 434.791C540.262 438.305 540.262 441.908 539.6 445.422C538.942 441.908 538.942 438.306 539.6 434.791Z" fill="black"/>
<path d="M545.436 434.791C546.094 438.306 546.094 441.908 545.436 445.422C544.769 441.909 544.769 438.305 545.436 434.791Z" fill="black"/>
<path d="M533.772 434.791C534.435 438.305 534.435 441.908 533.772 445.422C533.115 441.908 533.115 438.306 533.772 434.791Z" fill="black"/>
<path d="M511.155 434.791C511.813 438.306 511.813 441.908 511.155 445.422C510.493 441.908 510.493 438.305 511.155 434.791Z" fill="black"/>
<path d="M527.062 434.791C527.724 438.305 527.724 441.908 527.062 445.422C526.404 441.908 526.404 438.306 527.062 434.791Z" fill="black"/>
<path d="M529.357 434.791C530.014 438.306 530.014 441.908 529.357 445.422C528.694 441.908 528.694 438.305 529.357 434.791Z" fill="black"/>
<path d="M553.03 434.791C553.688 438.306 553.688 441.908 553.03 445.422C552.368 441.908 552.368 438.305 553.03 434.791Z" fill="black"/>
<path d="M556.467 434.791C557.125 438.306 557.125 441.908 556.467 445.422C555.8 441.909 555.8 438.305 556.467 434.791Z" fill="black"/>
<path d="M548.134 434.791C548.797 438.305 548.797 441.908 548.134 445.422C547.477 441.908 547.477 438.306 548.134 434.791Z" fill="black"/>
<path d="M516.723 434.791C517.38 438.306 517.38 441.908 516.723 445.422C516.056 441.909 516.056 438.305 516.723 434.791Z" fill="black"/>
</g>
<path opacity="0.1" d="M559.222 433.542V436.36L497.744 438.257V433.542H559.222Z" fill="black"/>
<path d="M568.726 407.068H507.238V420.357H568.726V407.068Z" fill="#FF9356"/>
<g opacity="0.1">
<path d="M509.773 408.28C510.435 411.797 510.435 415.403 509.773 418.92C509.115 415.402 509.115 411.797 509.773 408.28Z" fill="black"/>
<path d="M514.352 408.28C515.014 411.797 515.014 415.403 514.352 418.92C513.694 415.402 513.694 411.797 514.352 408.28Z" fill="black"/>
<path d="M516.589 408.28C517.251 411.797 517.251 415.403 516.589 418.92C515.931 415.402 515.931 411.797 516.589 408.28Z" fill="black"/>
<path d="M528.867 408.28C529.53 411.797 529.53 415.403 528.867 418.92C528.21 415.402 528.21 411.797 528.867 408.28Z" fill="black"/>
<path d="M532.189 408.28C532.851 411.797 532.851 415.403 532.189 418.92C531.531 415.402 531.531 411.797 532.189 408.28Z" fill="black"/>
<path d="M545.927 408.28C546.589 411.797 546.589 415.403 545.927 418.92C545.269 415.402 545.269 411.797 545.927 408.28Z" fill="black"/>
<path d="M549.104 408.28C549.762 411.797 549.762 415.402 549.104 418.92C548.442 415.403 548.442 411.797 549.104 408.28Z" fill="black"/>
<path d="M554.931 408.28C555.589 411.797 555.589 415.402 554.931 418.92C554.269 415.403 554.269 411.797 554.931 408.28Z" fill="black"/>
<path d="M543.277 408.28C543.935 411.797 543.935 415.402 543.277 418.92C542.615 415.403 542.615 411.797 543.277 408.28Z" fill="black"/>
<path d="M520.65 408.28C521.312 411.797 521.312 415.403 520.65 418.92C519.992 415.402 519.992 411.797 520.65 408.28Z" fill="black"/>
<path d="M536.567 408.28C537.224 411.797 537.224 415.402 536.567 418.92C535.904 415.403 535.904 411.797 536.567 408.28Z" fill="black"/>
<path d="M538.852 408.28C539.514 411.797 539.514 415.403 538.852 418.92C538.194 415.402 538.194 411.797 538.852 408.28Z" fill="black"/>
<path d="M562.525 408.28C563.187 411.797 563.187 415.403 562.525 418.92C561.867 415.402 561.867 411.797 562.525 408.28Z" fill="black"/>
<path d="M566 408.28C566.658 411.797 566.658 415.402 566 418.92C565.338 415.403 565.338 411.797 566 408.28Z" fill="black"/>
<path d="M557.639 408.28C558.296 411.797 558.296 415.402 557.639 418.92C556.977 415.403 556.977 411.797 557.639 408.28Z" fill="black"/>
<path d="M526.218 408.28C526.876 411.797 526.876 415.402 526.218 418.92C525.556 415.403 525.556 411.797 526.218 408.28Z" fill="black"/>
</g>
<path opacity="0.1" d="M568.717 407.068V409.886L507.238 411.783V407.068H568.717Z" fill="black"/>
<path d="M567.181 393.77H505.693V407.059H567.181V393.77Z" fill="#FF9356"/>
<g opacity="0.1">
<path d="M564.407 405.622C563.749 402.107 563.749 398.505 564.407 394.991C565.069 398.505 565.069 402.108 564.407 405.622Z" fill="black"/>
<path d="M559.827 405.622C559.17 402.107 559.17 398.505 559.827 394.991C560.49 398.505 560.49 402.108 559.827 405.622Z" fill="black"/>
<path d="M557.59 405.622C556.933 402.107 556.933 398.505 557.59 394.991C558.253 398.505 558.253 402.108 557.59 405.622Z" fill="black"/>
<path d="M545.312 405.622C544.654 402.107 544.654 398.505 545.312 394.991C545.974 398.505 545.974 402.108 545.312 405.622Z" fill="black"/>
<path d="M542 405.622C541.342 402.107 541.342 398.505 542 394.991C542.662 398.505 542.662 402.108 542 405.622Z" fill="black"/>
<path d="M528.253 405.622C527.595 402.107 527.595 398.505 528.253 394.991C528.915 398.505 528.915 402.108 528.253 405.622Z" fill="black"/>
<path d="M525.085 405.622C524.422 402.108 524.422 398.505 525.085 394.991C525.742 398.505 525.742 402.107 525.085 405.622Z" fill="black"/>
<path d="M519.258 405.622C518.595 402.108 518.595 398.505 519.258 394.991C519.915 398.505 519.915 402.107 519.258 405.622Z" fill="black"/>
<path d="M530.912 405.622C530.249 402.108 530.249 398.505 530.912 394.991C531.569 398.505 531.569 402.107 530.912 405.622Z" fill="black"/>
<path d="M553.52 405.622C552.858 402.108 552.858 398.505 553.52 394.991C554.178 398.505 554.178 402.107 553.52 405.622Z" fill="black"/>
<path d="M537.622 405.622C536.96 402.108 536.96 398.505 537.622 394.991C538.28 398.505 538.28 402.107 537.622 405.622Z" fill="black"/>
<path d="M535.328 405.622C534.671 402.107 534.671 398.505 535.328 394.991C535.991 398.505 535.991 402.108 535.328 405.622Z" fill="black"/>
<path d="M511.654 405.622C510.997 402.107 510.997 398.505 511.654 394.991C512.317 398.505 512.317 402.108 511.654 405.622Z" fill="black"/>
<path d="M508.227 405.622C507.565 402.108 507.565 398.505 508.227 394.991C508.885 398.505 508.885 402.107 508.227 405.622Z" fill="black"/>
<path d="M516.551 405.622C515.888 402.108 515.888 398.505 516.551 394.991C517.208 398.505 517.208 402.107 516.551 405.622Z" fill="black"/>
<path d="M547.971 405.622C547.309 402.108 547.309 398.505 547.971 394.991C548.629 398.505 548.629 402.107 547.971 405.622Z" fill="black"/>
</g>
<path opacity="0.1" d="M567.171 393.77V396.597L505.693 398.494V393.77H567.171Z" fill="black"/>
<path d="M563.437 380.481H501.949V393.77H563.437V380.481Z" fill="#FF9356"/>
<g opacity="0.1">
<path d="M504.483 381.702C505.14 385.217 505.14 388.819 504.483 392.333C503.825 388.819 503.825 385.217 504.483 381.702Z" fill="black"/>
<path d="M509.062 381.702C509.72 385.217 509.72 388.819 509.062 392.333C508.4 388.819 508.4 385.216 509.062 381.702Z" fill="black"/>
<path d="M511.28 381.702C511.937 385.217 511.937 388.819 511.28 392.333C510.622 388.819 510.622 385.217 511.28 381.702Z" fill="black"/>
<path d="M523.577 381.702C524.24 385.216 524.24 388.819 523.577 392.333C522.92 388.819 522.92 385.217 523.577 381.702Z" fill="black"/>
<path d="M526.899 381.702C527.561 385.216 527.561 388.819 526.899 392.333C526.241 388.819 526.241 385.217 526.899 381.702Z" fill="black"/>
<path d="M540.637 381.702C541.294 385.217 541.294 388.819 540.637 392.333C539.979 388.819 539.979 385.217 540.637 381.702Z" fill="black"/>
<path d="M543.814 381.702C544.472 385.217 544.472 388.819 543.814 392.333C543.152 388.819 543.152 385.216 543.814 381.702Z" fill="black"/>
<path d="M549.679 381.702C550.337 385.217 550.337 388.819 549.679 392.333C549.017 388.819 549.017 385.216 549.679 381.702Z" fill="black"/>
<path d="M537.987 381.702C538.645 385.217 538.645 388.819 537.987 392.333C537.325 388.819 537.325 385.216 537.987 381.702Z" fill="black"/>
<path d="M515.36 381.702C516.017 385.217 516.017 388.819 515.36 392.333C514.697 388.819 514.697 385.216 515.36 381.702Z" fill="black"/>
<path d="M531.267 381.702C531.929 385.216 531.929 388.819 531.267 392.333C530.61 388.819 530.61 385.217 531.267 381.702Z" fill="black"/>
<path d="M533.561 381.702C534.219 385.217 534.219 388.819 533.561 392.333C532.899 388.819 532.899 385.216 533.561 381.702Z" fill="black"/>
<path d="M557.235 381.702C557.892 385.217 557.892 388.819 557.235 392.333C556.572 388.819 556.572 385.216 557.235 381.702Z" fill="black"/>
<path d="M560.672 381.702C561.329 385.217 561.329 388.819 560.672 392.333C560.009 388.819 560.009 385.216 560.672 381.702Z" fill="black"/>
<path d="M552.339 381.702C553.001 385.216 553.001 388.819 552.339 392.333C551.676 388.819 551.676 385.216 552.339 381.702Z" fill="black"/>
<path d="M520.927 381.702C521.585 385.217 521.585 388.819 520.927 392.333C520.265 388.819 520.265 385.216 520.927 381.702Z" fill="black"/>
</g>
<path opacity="0.1" d="M563.427 380.481V383.308L501.949 385.205V380.481H563.427Z" fill="black"/>
<path d="M563.437 420.357H501.949V433.646H563.437V420.357Z" fill="#FF9356"/>
<g opacity="0.1">
<path d="M560.672 432.209C560.01 428.692 560.01 425.086 560.672 421.568C561.33 425.086 561.33 428.691 560.672 432.209Z" fill="black"/>
<path d="M556.092 432.209C555.43 428.692 555.43 425.086 556.092 421.568C556.75 425.086 556.75 428.691 556.092 432.209Z" fill="black"/>
<path d="M553.856 432.209C553.193 428.692 553.193 425.086 553.856 421.568C554.513 425.086 554.513 428.691 553.856 432.209Z" fill="black"/>
<path d="M541.577 432.209C540.915 428.692 540.915 425.086 541.577 421.568C542.24 425.086 542.24 428.692 541.577 432.209Z" fill="black"/>
<path d="M538.246 432.209C537.589 428.691 537.589 425.086 538.246 421.568C538.908 425.086 538.908 428.692 538.246 432.209Z" fill="black"/>
<path d="M524.518 432.209C523.856 428.692 523.856 425.086 524.518 421.568C525.176 425.086 525.176 428.691 524.518 432.209Z" fill="black"/>
<path d="M521.34 432.209C520.678 428.692 520.678 425.086 521.34 421.568C521.998 425.086 521.998 428.691 521.34 432.209Z" fill="black"/>
<path d="M515.513 432.209C514.851 428.692 514.851 425.086 515.513 421.568C516.171 425.086 516.171 428.691 515.513 432.209Z" fill="black"/>
<path d="M527.168 432.209C526.51 428.691 526.51 425.086 527.168 421.568C527.826 425.086 527.826 428.691 527.168 432.209Z" fill="black"/>
<path d="M549.795 432.209C549.133 428.692 549.133 425.086 549.795 421.568C550.453 425.086 550.453 428.691 549.795 432.209Z" fill="black"/>
<path d="M533.878 432.209C533.221 428.691 533.221 425.086 533.878 421.568C534.541 425.086 534.541 428.692 533.878 432.209Z" fill="black"/>
<path d="M531.593 432.209C530.931 428.692 530.931 425.086 531.593 421.568C532.251 425.086 532.251 428.691 531.593 432.209Z" fill="black"/>
<path d="M507.92 432.209C507.258 428.692 507.258 425.086 507.92 421.568C508.578 425.086 508.578 428.691 507.92 432.209Z" fill="black"/>
<path d="M504.483 432.209C503.821 428.692 503.821 425.086 504.483 421.568C505.141 425.086 505.141 428.691 504.483 432.209Z" fill="black"/>
<path d="M512.806 432.209C512.149 428.691 512.149 425.086 512.806 421.568C513.468 425.086 513.468 428.692 512.806 432.209Z" fill="black"/>
<path d="M544.227 432.209C543.565 428.692 543.565 425.086 544.227 421.568C544.885 425.086 544.885 428.691 544.227 432.209Z" fill="black"/>
</g>
<path opacity="0.1" d="M563.427 420.357V423.184L501.949 425.081V420.357H563.427Z" fill="black"/>
<path d="M496.823 400.879C537.287 407.979 526.583 466.618 486.061 459.519C445.539 452.419 456.282 393.761 496.823 400.879Z" fill="#FF9356"/>
<path opacity="0.1" d="M496.823 400.879C537.287 407.979 526.583 466.618 486.061 459.519C445.539 452.419 456.282 393.761 496.823 400.879Z" fill="black"/>
<path d="M493.04 400.213C531.613 406.984 520.88 465.632 482.278 458.852C443.677 452.071 454.381 393.47 493.04 400.213Z" fill="#FF9356"/>
<path opacity="0.1" d="M463.174 430.913C463.386 441.365 469.606 451.489 483.181 453.865C515.245 459.5 524.115 410.815 492.109 405.199L491.475 405.096C521.494 410.975 512.893 457.039 482.326 451.677C469.856 449.489 463.837 440.473 463.174 430.913Z" fill="black"/>
<g opacity="0.1">
<path d="M490.976 411.313C491.237 411.38 491.461 411.544 491.6 411.771C491.738 411.997 491.779 412.268 491.715 412.525L491.302 414.13C493.923 414.987 496.223 416.589 497.907 418.732C498.051 418.869 498.158 419.038 498.218 419.225C498.278 419.412 498.29 419.61 498.253 419.803C498.174 420.073 497.99 420.302 497.741 420.441C497.491 420.58 497.196 420.617 496.918 420.545C496.782 420.517 496.652 420.461 496.538 420.382C496.424 420.303 496.328 420.202 496.256 420.085C494.868 418.216 492.953 416.783 490.746 415.962L487.866 427.231C493.789 430.049 495.843 432.979 494.835 436.923C493.75 441.187 489.315 443.319 484.131 442.22L483.334 445.357C483.267 445.612 483.099 445.831 482.867 445.967C482.635 446.102 482.358 446.142 482.096 446.08C481.836 446.015 481.612 445.853 481.473 445.628C481.335 445.402 481.293 445.133 481.357 444.878L482.173 441.703C478.788 440.612 475.877 438.439 473.907 435.533C473.797 435.405 473.718 435.253 473.677 435.091C473.635 434.928 473.632 434.758 473.667 434.594C473.746 434.333 473.921 434.11 474.159 433.969C474.398 433.829 474.681 433.78 474.954 433.833C475.23 433.896 475.471 434.061 475.626 434.294C477.258 436.91 479.759 438.899 482.71 439.928L485.638 428.462C479.802 425.644 477.824 422.827 478.842 418.76C479.859 414.694 484.294 412.487 489.344 413.586L489.728 412.064C489.792 411.803 489.959 411.577 490.193 411.436C490.427 411.295 490.709 411.251 490.976 411.313ZM486.176 426.386L488.979 415.398C484.966 414.506 481.741 416.197 481.002 419.098C480.301 421.794 481.184 423.804 486.166 426.339L486.176 426.386ZM487.366 429.288L484.534 440.389C488.662 441.328 491.936 439.628 492.714 436.576C493.414 433.758 492.406 431.72 487.357 429.25L487.366 429.288Z" fill="black"/>
</g>
<path d="M535.28 274.81L361.971 367.953L293.773 299.312L157.923 358.327L158.077 290.879L306.08 226.229L376.026 295.659L506.461 227.535L535.28 274.81Z" fill="#FF9356"/>
<path d="M536.925 314.874L601.417 205.54V188.542L472.384 188.551V205.549L536.925 314.874Z" fill="#FF9356"/>
<g opacity="0.1">
<path d="M535.28 274.81L361.971 367.953L293.773 299.312L159 357.5V343.5L127.5 299.312L306.08 226.229L376.026 295.659L506.461 227.534L535.28 274.81Z" fill="black"/>
<path d="M536.922 314.874L601.414 205.54V188.542L472.381 188.551V205.549L536.922 314.874Z" fill="black"/>
</g>
<path d="M535.28 257.821L361.971 350.955L293.773 282.314L0.5 410.5L57.5 314.5L306.08 209.24L376.026 278.661L506.461 210.536L535.28 257.821Z" fill="#FF9356"/>
<path d="M536.925 297.875L601.417 188.542L472.384 188.551L536.925 297.875Z" fill="#FF9356"/>
<path d="M407.86 398.484C405.527 397.085 357.94 341.46 357.498 338.22C357.325 336.99 365.178 329.768 374.97 321.241C377.082 319.41 379.271 317.484 381.508 315.606C396.004 303.257 411.68 290.484 411.68 290.484L443.62 327.599L412.573 351.697L405.757 356.994C405.757 356.994 414.244 386.257 414.34 389.863C414.436 393.469 410.183 399.884 407.86 398.484Z" fill="#EB9481"/>
<path d="M407.85 398.475C405.527 397.085 357.93 341.47 357.498 338.23C357.344 337.141 363.45 331.374 371.6 324.19C372.676 328.51 396.858 370.207 407.418 377.101C411.738 379.918 408.378 366.357 408.253 365.784C410.759 374.706 414.263 387.544 414.32 389.863C414.426 393.47 410.183 399.884 407.85 398.475Z" fill="#080403"/>
<path d="M408.608 366.93C408.608 366.93 404.999 360.553 393.45 361.032L408.608 366.93Z" fill="#263238"/>
<path d="M493.827 278.351C487.222 297.133 426.934 343.367 419.984 348.654L418.4 349.866L384.358 311.577L384.944 311.079L418.458 283.385C418.458 283.385 371.418 292.447 355.808 262.724C349.607 250.891 358.899 224.013 358.899 224.013L409.04 224.886C409.04 224.886 408.762 233.263 415.76 233.629C439.818 234.916 458.768 235.63 471.095 238.579C486.963 242.382 499.894 261.052 493.827 278.351Z" fill="#080403"/>
<path d="M417.095 233.695C432.608 234.259 448.132 235.01 463.549 237.029C465.469 237.302 467.389 237.602 469.309 237.968C471.241 238.316 473.141 238.812 474.992 239.452C475.912 239.811 476.802 240.241 477.652 240.739C478.496 241.208 479.332 241.678 480.138 242.26C481.767 243.326 483.311 244.513 484.756 245.81C487.684 248.379 490.159 251.403 492.08 254.76C493.993 258.14 495.209 261.854 495.661 265.691C495.867 267.607 495.887 269.538 495.719 271.458C495.719 271.937 495.623 272.397 495.565 272.885C495.508 273.374 495.431 273.824 495.335 274.322C495.125 275.278 494.849 276.22 494.509 277.139C493.028 280.692 491.093 284.047 488.749 287.122C484.108 293.242 478.972 298.986 473.389 304.299C467.879 309.662 462.148 314.789 456.282 319.767C450.416 324.744 444.378 329.515 438.32 334.248C444.301 329.411 450.224 324.5 456.004 319.438C461.783 314.376 467.524 309.22 472.919 303.82C478.417 298.485 483.494 292.749 488.106 286.662C490.393 283.632 492.28 280.332 493.722 276.839C494.041 275.965 494.301 275.07 494.5 274.162C494.669 273.246 494.791 272.321 494.864 271.392C495.023 269.516 494.997 267.629 494.788 265.757C494.369 262.022 493.198 258.406 491.341 255.117C489.48 251.83 487.08 248.863 484.237 246.336C482.825 245.06 481.316 243.889 479.725 242.833C478.928 242.298 478.112 241.8 477.277 241.33C476.466 240.848 475.615 240.434 474.733 240.091C472.921 239.466 471.063 238.977 469.175 238.626C467.255 238.25 465.335 237.931 463.463 237.687C455.783 236.56 448.103 235.808 440.336 235.235C432.57 234.663 424.88 234.09 417.095 233.695Z" fill="#37474F"/>
<path d="M436.89 266.809C435.273 268.004 433.734 269.296 432.282 270.678C430.688 272.04 429.085 273.383 427.482 274.745H427.434C427.751 274.322 428.067 273.89 428.394 273.468C429.517 272.021 430.496 270.49 431.744 269.148C431.821 269.063 431.696 268.941 431.619 269.025C430.343 270.359 428.931 271.58 427.779 273.017C427.242 273.693 426.714 274.388 426.215 275.092C425.936 275.477 425.658 275.872 425.399 276.266C425.283 276.445 425.149 276.642 425.043 276.839C424.323 277.478 423.613 278.116 422.922 278.774C421.376 280.229 419.946 281.816 418.391 283.253C418.314 283.328 418.439 283.441 418.525 283.366C420.071 282.032 421.751 280.83 423.325 279.516C424.899 278.201 426.455 276.764 427.991 275.346C429.527 273.928 430.947 272.528 432.445 271.167C434.041 269.828 435.551 268.395 436.967 266.875C437.015 266.856 436.957 266.772 436.89 266.809Z" fill="#37474F"/>
<path d="M424.506 341.733C423.642 340.54 422.663 339.394 421.731 338.249C420.8 337.103 419.879 335.985 418.938 334.858C417.018 332.557 415.098 330.285 413.101 328.003C409.175 323.438 405.181 318.921 401.197 314.395C398.96 311.859 396.675 309.37 394.419 306.882C394.419 306.882 394.285 306.882 394.323 306.947C398.048 311.568 401.802 316.17 405.632 320.734C409.463 325.298 413.437 329.909 417.459 334.417C418.573 335.669 419.706 336.921 420.858 338.173C422.01 339.422 423.152 340.709 424.39 341.93C424.448 341.864 424.554 341.817 424.506 341.733Z" fill="#37474F"/>
<path d="M365.235 227.534C363.769 231.641 362.865 235.92 362.547 240.26C362.178 244.582 362.644 248.934 363.92 253.088C365.246 257.223 367.742 260.906 371.12 263.71C374.55 266.426 378.575 268.331 382.88 269.279C387.181 270.299 391.573 270.909 395.994 271.101C400.424 271.315 404.862 271.299 409.29 271.054C418.154 270.59 426.975 269.526 435.69 267.87L436.016 267.814L436.122 268.095C436.501 269.199 436.667 270.361 436.611 271.523C436.572 272.672 436.345 273.807 435.939 274.885C435.538 275.956 434.992 276.97 434.317 277.9C433.6 278.785 432.82 279.619 431.984 280.398C428.701 283.488 425.264 286.352 421.779 289.207C418.295 292.062 414.8 294.842 411.219 297.659C407.639 300.477 404.125 303.172 400.544 305.886C404.064 303.1 407.562 300.283 411.037 297.434C414.512 294.617 417.978 291.743 421.415 288.86C424.851 285.976 428.259 283.056 431.466 279.957C432.264 279.197 433.008 278.384 433.693 277.524C434.316 276.65 434.825 275.704 435.21 274.707C435.967 272.697 436.025 270.498 435.373 268.452L435.805 268.678C427.056 270.379 418.196 271.474 409.29 271.955C404.832 272.19 400.365 272.19 395.907 271.955C391.436 271.752 386.996 271.123 382.65 270.077C378.241 269.099 374.132 267.113 370.659 264.283C367.23 261.346 364.726 257.516 363.44 253.238C362.194 249.021 361.799 244.606 362.279 240.241C362.682 235.896 363.676 231.622 365.235 227.534Z" fill="#37474F"/>
<path d="M386.48 229.676C385.722 231.883 384.829 234.062 383.879 236.203C383.125 238.172 381.994 239.982 380.547 241.537C379.042 242.859 377.245 243.823 375.296 244.354C374.172 244.705 373.028 244.991 371.869 245.209C370.69 245.374 369.525 245.625 368.384 245.96C368.338 245.977 368.298 246.007 368.27 246.046C368.241 246.086 368.226 246.133 368.226 246.181C368.226 246.229 368.241 246.276 368.27 246.316C368.298 246.355 368.338 246.385 368.384 246.402C369.64 246.552 370.91 246.552 372.167 246.402C373.381 246.296 374.585 246.095 375.767 245.801C377.926 245.257 379.909 244.184 381.527 242.683C383.074 241.008 384.225 239.02 384.896 236.86C385.765 234.558 386.408 232.181 386.816 229.76C386.828 229.717 386.821 229.67 386.798 229.632C386.774 229.593 386.736 229.565 386.691 229.554C386.647 229.542 386.6 229.549 386.56 229.572C386.52 229.595 386.492 229.632 386.48 229.676Z" fill="#37474F"/>
<path d="M393.046 154.264C392.419 154.37 391.818 154.597 391.28 154.93C388.832 156.414 387.93 159.288 387.642 161.927C387.344 164.744 387.699 167.825 386.451 170.464C386.002 171.522 385.177 172.386 384.128 172.896C383.529 173.1 382.892 173.178 382.259 173.123C381.627 173.067 381.014 172.881 380.461 172.577C379.251 172.032 377.936 171.121 376.525 171.412C375.961 171.573 375.443 171.862 375.014 172.255C374.586 172.648 374.258 173.135 374.058 173.675C372.867 176.343 374.23 179.385 374.202 182.128C374.173 185.095 373.229 187.986 371.494 190.42C369.858 192.689 367.579 194.439 364.938 195.454C363.657 195.956 362.309 196.273 360.934 196.393C359.398 196.525 357.862 196.337 356.326 196.393C355.59 196.369 354.857 196.494 354.173 196.76C353.489 197.027 352.869 197.43 352.352 197.943C351.622 198.816 351.066 202.958 353.658 207.4C353.84 207.719 353.245 208.019 352.938 207.766C352.338 207.289 351.773 206.771 351.248 206.216C349.057 203.951 347.447 201.209 346.549 198.217C345.651 195.225 345.492 192.067 346.083 189.002C346.759 185.713 348.249 182.637 350.422 180.043C351.702 178.66 352.864 177.177 353.898 175.61C354.695 174.166 355.126 172.556 355.155 170.914C355.28 167.768 354.637 164.641 355.318 161.523C355.963 158.74 357.306 156.159 359.226 154.01C361.201 151.804 363.64 150.041 366.375 148.84C369.11 147.639 372.077 147.029 375.075 147.051C381.037 147.079 393.382 154.207 393.046 154.264Z" fill="#080403"/>
<path d="M392.845 154.301C391.63 154.592 390.498 155.147 389.533 155.926C388.711 156.69 388.098 157.642 387.747 158.696C386.922 161.044 387.142 163.505 387.277 165.937C387.411 168.219 387.421 170.633 386.154 172.652C385.625 173.532 384.853 174.248 383.926 174.718C383.409 174.942 382.853 175.063 382.288 175.076C381.723 175.089 381.161 174.993 380.634 174.793C378.646 174.136 376.352 172.699 374.269 173.938C372.186 175.178 372.282 177.911 372.272 179.921C372.272 184.832 372.973 191.19 368.355 194.524C365.861 196.1 363.016 197.067 360.061 197.342C358.016 197.623 355.424 197.961 354.301 199.849C354.301 199.915 354.378 199.971 354.416 199.849C355.693 197.877 358.342 197.971 360.445 197.774C362.952 197.574 365.396 196.905 367.645 195.801C369.853 194.636 371.507 192.67 372.253 190.326C372.973 187.917 373.262 185.404 373.107 182.898C373.107 181.611 373.03 180.325 373.04 179.038C372.977 177.862 373.187 176.686 373.654 175.601C373.906 175.079 374.32 174.648 374.838 174.371C375.355 174.094 375.949 173.986 376.534 174.061C377.735 174.292 378.903 174.667 380.01 175.178C381.019 175.592 382.128 175.716 383.206 175.535C384.071 175.327 384.867 174.907 385.52 174.314C386.973 172.933 387.846 171.071 387.968 169.093C388.218 166.332 387.526 163.561 387.834 160.8C387.853 159.342 388.367 157.932 389.295 156.791C390.223 155.651 391.512 154.844 392.96 154.498C392.967 154.478 392.97 154.457 392.968 154.435C392.966 154.414 392.959 154.393 392.948 154.374C392.938 154.355 392.923 154.339 392.905 154.327C392.887 154.314 392.866 154.305 392.845 154.301Z" fill="#263238"/>
<path d="M373.04 145.37C366.954 145.257 361.376 148.864 358.371 153.907C356.721 156.743 355.786 159.924 355.645 163.185C355.472 166.219 355.731 169.346 354.887 172.314C353.927 175.591 351.344 177.789 349.127 180.268C347.353 182.279 346.044 184.639 345.287 187.189C343.843 192.159 344.464 197.485 347.015 202.009C347.338 202.579 347.694 203.131 348.08 203.662C348.08 203.728 348.234 203.662 348.186 203.596C346.749 201.452 345.776 199.042 345.327 196.516C344.878 193.99 344.962 191.401 345.575 188.908C346.134 186.455 347.203 184.141 348.714 182.109C350.586 179.611 353.197 177.676 354.733 174.934C356.173 172.351 356.307 169.299 356.336 166.482C356.336 163.345 356.432 160.255 357.546 157.269C358.532 154.49 360.247 152.014 362.52 150.089C364.793 148.163 367.544 146.857 370.496 146.3C377.216 145.192 383.495 148.441 388.842 152.075L390.973 153.54C391.05 153.597 391.155 153.484 391.069 153.428C385.904 149.455 379.952 145.539 373.04 145.37Z" fill="#263238"/>
<path d="M394.266 150.939C393.82 150.706 393.318 150.592 392.813 150.608C392.307 150.625 391.815 150.771 391.386 151.033C390.925 151.54 390.618 156.78 391.559 157.71C392.499 158.64 394.487 157.203 394.487 157.203L394.266 150.939Z" fill="#FFC727"/>
<path d="M403.165 174.06C411.44 169.872 435.604 157.156 436.957 156.057C438.311 154.958 464.183 131.105 467.773 126.944C470.317 124.014 487.684 147.107 485.322 149.54C479.802 155.174 463.127 170.482 454.602 175.892C447.613 180.306 413.543 185.837 403.444 186.363C393.344 186.889 389.562 180.944 403.165 174.06Z" fill="#EB9481"/>
<path d="M496.538 140.411C493.447 145.257 483.165 152.752 479.968 153.616C476.772 154.48 463.188 137.81 463.994 134.579C464.8 131.349 476.474 115.797 482.128 113.918C487.783 112.04 499.764 135.396 496.538 140.411Z" fill="#EB9481"/>
<path d="M474.084 118.558C475.552 121.225 477.712 119.901 477.712 119.901C477.712 119.901 473.028 123.573 474.208 126.709C475.389 129.846 479.728 127.545 480.045 127.395C479.796 127.592 475.581 131.067 477.098 134.1C478.615 137.134 482.685 134.316 482.935 134.1C482.762 134.354 480.535 137.791 482.234 139.829C485.114 143.351 491.095 134.73 494.8 134.194C494.8 134.194 496.452 140.233 496.538 140.393C496.538 140.393 502.375 132.316 501.338 127.47C501.198 126.762 500.816 126.122 500.254 125.656C499.691 125.19 498.983 124.925 498.247 124.906C498.247 124.906 500.426 122.502 499.303 120.079C498.727 118.84 496.173 118.642 496.173 118.642C496.636 118.073 496.93 117.389 497.023 116.667C497.116 115.945 497.005 115.212 496.701 114.548C495.799 112.876 493.38 112.932 493.38 112.932C493.38 112.932 503.757 104.631 501.847 101.719C498.564 96.7043 477.386 115.693 474.804 115.13C473.45 114.858 473.45 117.365 474.084 118.558Z" fill="#EB9481"/>
<path d="M493.044 112.904C493.092 112.904 493.044 112.82 493.044 112.82C487.26 113.614 481.859 116.11 477.559 119.976C477.424 120.098 477.242 120.915 477.405 120.793C481.303 117.487 487.284 114.642 493.044 112.904Z" fill="#263238"/>
<path d="M496.25 118.595C496.307 118.595 496.25 118.483 496.25 118.492C489.882 119.424 484.065 122.556 479.853 127.32C479.709 127.489 479.757 127.78 479.939 127.592C482.915 124.493 491.123 120.126 496.25 118.595Z" fill="#263238"/>
<path d="M482.772 134.57C486.938 129.959 492.189 127.113 498.026 124.944C498.093 124.944 498.026 124.812 497.978 124.822C494.829 125.122 491.258 126.878 488.609 128.475C486.111 129.913 484.042 131.966 482.609 134.429C482.551 134.532 482.685 134.673 482.772 134.57Z" fill="#263238"/>
<path d="M477.607 119.891C477.453 120.042 478.125 120.126 477.971 120.286C476.311 121.995 473.479 125.207 474.592 126.86C475.495 128.174 477.923 127.902 478.816 127.442L481.053 126.287L479.363 128.165C478.603 128.979 477.984 129.908 477.53 130.917C477.293 131.373 477.158 131.874 477.133 132.385C477.108 132.897 477.194 133.408 477.386 133.884C477.565 134.327 477.895 134.696 478.32 134.927C478.746 135.158 479.24 135.238 479.719 135.152C480.782 134.947 481.774 134.478 482.599 133.79L484.97 131.978L483.347 134.438C482.896 135.123 482.538 135.861 482.282 136.636C482.005 137.359 481.951 138.147 482.128 138.899C482.225 139.235 482.416 139.537 482.679 139.773C482.941 140.008 483.266 140.168 483.616 140.233C484.419 140.265 485.215 140.073 485.911 139.679C487.422 138.85 488.867 137.908 490.231 136.861C490.941 136.354 491.651 135.838 492.391 135.359C493.105 134.839 493.922 134.471 494.791 134.279C493.962 134.561 493.197 134.994 492.535 135.556C491.843 136.082 491.181 136.645 490.509 137.209C489.192 138.378 487.765 139.421 486.247 140.327C485.433 140.834 484.485 141.099 483.52 141.088C482.997 141.024 482.503 140.813 482.101 140.479C481.698 140.146 481.404 139.704 481.255 139.209C480.997 138.281 481.034 137.299 481.36 136.392C481.629 135.522 482.016 134.691 482.512 133.922L483.251 134.57C482.286 135.399 481.113 135.963 479.853 136.204C479.147 136.329 478.418 136.202 477.799 135.847C477.205 135.487 476.737 134.96 476.455 134.335C476.211 133.732 476.101 133.085 476.133 132.438C476.164 131.79 476.336 131.156 476.637 130.579C477.146 129.472 477.844 128.459 478.701 127.583L479.248 128.268C478.096 128.822 475.408 129.405 473.757 127.545C471.981 124.728 476.723 120.586 477.607 119.891Z" fill="#263238"/>
<path d="M463.994 134.58C463.994 134.58 464.272 118.783 467.987 114.858C471.702 110.932 483.606 113.12 487.821 114.595C493.629 116.623 491.555 120.502 488.339 121.394C484.624 122.427 478.739 122.098 478.346 122.08C478.346 122.08 482.416 130.438 478.682 136.11C474.947 141.783 463.994 134.58 463.994 134.58Z" fill="#EB9481"/>
<path d="M479.239 112.839C481.687 112.97 484.117 113.329 486.496 113.909C488.253 114.379 490.336 114.933 491.421 116.567C494.426 122.812 482.061 123.141 478.279 122.502L478.711 121.882C479.802 123.938 480.428 126.199 480.544 128.513C480.676 130.794 480.227 133.072 479.239 135.143C479.606 134.083 479.857 132.987 479.987 131.875C480.361 128.264 479.507 124.633 477.559 121.544C480.213 121.911 482.909 121.882 485.555 121.46C486.724 121.318 487.869 121.03 488.963 120.605C491.392 119.582 491.843 117.328 489.578 115.787C486.515 114.013 482.733 113.487 479.239 112.801V112.839Z" fill="#263238"/>
<path d="M482.749 154.714L461.543 130.4C461.543 130.4 437.543 155.353 435.45 156.226C433.357 157.1 404.499 171.835 397.616 176.052C390.733 180.268 389.936 187.791 407.024 186.532C424.112 185.274 444.839 180.334 451.962 178.24C457.703 176.53 482.749 154.714 482.749 154.714Z" fill="#455A64"/>
<path d="M482.739 154.714C482.739 154.714 457.703 176.53 451.962 178.249C442.141 180.96 432.17 183.117 422.096 184.71C417.047 185.518 411.901 186.185 407.024 186.542C389.898 187.791 390.704 180.249 397.626 176.061C398.423 175.573 399.546 174.934 400.842 174.183C410.845 168.548 433.587 156.978 435.402 156.208C437.504 155.334 461.495 130.382 461.495 130.382L482.739 154.714Z" fill="#455A64"/>
<path d="M475.168 158.123C474.323 157.335 467.824 149.399 466.442 147.643C465.059 145.887 459.376 138.759 458.109 136.833C458.061 136.749 458.166 136.655 458.234 136.73C459.846 138.383 465.606 145.549 467.046 147.314C468.486 149.08 474.726 157.062 475.302 158.039C475.35 158.123 475.226 158.17 475.168 158.123Z" fill="#263238"/>
<path opacity="0.1" d="M422.096 184.71C417.047 185.518 411.901 186.185 407.024 186.542C389.898 187.791 390.704 180.249 397.626 176.061C398.423 175.573 399.546 174.934 400.842 174.183L422.096 184.71Z" fill="black"/>
<path d="M355.146 228.483L417.853 232.69L413.917 214.096C415.689 211.861 416.937 209.273 417.573 206.514C418.208 203.755 418.215 200.892 417.594 198.13C416.384 192.655 409.664 184.175 405.565 178.803C395.571 165.721 386 170.914 382.87 173.995C370.928 185.771 355.146 228.483 355.146 228.483Z" fill="#EBEBEB"/>
<path d="M387.901 170.755C387.901 170.755 393.21 187.049 395.418 190.824C397.626 194.599 404.356 201.502 404.356 201.502C404.356 201.502 405.68 192.11 405.143 186.682C404.605 181.254 400.343 173.328 400.343 173.328C401.56 174.038 402.637 174.958 403.52 176.042C408.56 181.611 417.2 192.496 418.247 199.699C418.638 202.195 418.519 204.742 417.896 207.192C417.273 209.642 416.159 211.947 414.618 213.973L420.522 236.419L413.629 238.297L408.464 233.301L407.437 239.076L350.672 229.629L359.84 214.659C359.84 214.659 373.396 184.907 378.493 178.502C384.311 171.177 387.901 170.755 387.901 170.755Z" fill="#455A64"/>
<path d="M397.184 212.123C399.879 212.017 402.577 212.108 405.258 212.396C406.592 212.555 407.907 212.781 409.223 213.025C409.885 213.147 410.538 213.25 411.2 213.354C411.887 213.479 412.586 213.52 413.283 213.476C413.296 213.476 413.308 213.481 413.317 213.49C413.326 213.498 413.331 213.51 413.331 213.523C413.331 213.535 413.326 213.547 413.317 213.556C413.308 213.565 413.296 213.57 413.283 213.57C412.633 213.681 411.975 213.75 411.315 213.776C410.673 213.786 410.032 213.748 409.395 213.664C408.042 213.513 406.698 213.307 405.344 213.138C402.627 212.809 399.901 212.48 397.155 212.339C397.04 212.33 397.04 212.123 397.184 212.123Z" fill="#263238"/>
<path d="M390.896 215.26C393.064 214.756 395.26 214.374 397.472 214.114C398.576 213.992 399.68 213.926 400.794 213.889H402.388C402.973 213.889 403.559 213.964 404.144 213.955C404.202 213.955 404.221 214.049 404.144 214.049C403.597 214.049 403.04 214.189 402.493 214.246L400.842 214.405C399.738 214.518 398.634 214.64 397.53 214.744C395.312 214.95 393.114 215.176 390.906 215.457C390.8 215.448 390.791 215.279 390.896 215.26Z" fill="#263238"/>
<path d="M387.613 171.112C386.759 175.338 385.808 179.564 384.858 183.743L384.647 183.377C387.171 184.165 389.677 185.011 392.183 185.828L392.615 185.959L392.403 186.354C391.559 187.96 390.723 189.565 389.85 191.153L389.773 190.692C392.346 193.125 394.957 195.52 397.453 197.999C399.949 200.478 402.551 202.929 405.037 205.446C402.339 203.145 399.68 200.751 397.04 198.421C394.4 196.092 391.799 193.641 389.178 191.247L388.957 191.059L389.101 190.786C389.936 189.18 390.81 187.603 391.674 186.006L391.895 186.541C389.389 185.677 386.883 184.851 384.397 183.968L384.119 183.865L384.195 183.602C385.328 179.432 386.423 175.263 387.613 171.112Z" fill="#263238"/>
<path d="M401.619 174.342C402.963 175.854 403.894 176.934 405.2 178.484C406.506 180.033 407.811 181.564 409.04 183.18L409.299 183.499L408.934 183.705L406.198 185.18L406.294 184.598C407.331 185.725 408.378 186.833 409.386 187.988L409.53 188.138L409.482 188.326C408.771 191.143 408.118 194.073 407.36 196.928C406.602 199.783 405.882 202.648 405.056 205.484C405.584 202.573 406.179 199.689 406.794 196.797C407.408 193.904 408.07 191.04 408.714 188.157L408.81 188.495C407.763 187.387 406.755 186.232 405.738 185.095L405.411 184.738L405.843 184.522L408.598 183.086L408.493 183.611C407.226 182.034 406.035 180.409 404.806 178.813C403.578 177.216 402.8 175.976 401.619 174.342Z" fill="#263238"/>
<path d="M405.085 205.446C405.392 206.874 405.699 208.264 405.959 209.719C406.218 211.175 406.487 212.537 406.736 214.021V214.096C406.669 217.251 408.656 230.221 408.464 233.376C408.464 230.211 406.093 217.232 406.227 214.077V214.096C405.997 212.659 405.786 211.222 405.603 209.776C405.421 208.329 405.248 206.893 405.085 205.446Z" fill="#263238"/>
<path d="M404.038 209.165C404.024 209.437 403.901 209.691 403.695 209.874C403.489 210.056 403.217 210.151 402.939 210.137C402.662 210.123 402.401 210.002 402.215 209.801C402.028 209.599 401.932 209.333 401.946 209.062C401.954 208.904 401.997 208.749 402.074 208.609C402.15 208.47 402.257 208.348 402.387 208.254C402.552 208.143 402.746 208.08 402.946 208.073C403.146 208.065 403.344 208.113 403.517 208.212C403.69 208.31 403.831 208.455 403.923 208.628C404.016 208.802 404.056 208.998 404.038 209.193V209.165ZM404.038 209.165C404.04 209.06 404.018 208.955 403.973 208.859C403.928 208.763 403.862 208.678 403.779 208.611C403.7 208.555 403.609 208.516 403.513 208.497C403.417 208.477 403.318 208.478 403.222 208.498C403.089 208.539 402.972 208.62 402.887 208.73C402.803 208.839 402.756 208.972 402.752 209.109C402.74 209.245 402.772 209.381 402.845 209.498C402.917 209.614 403.026 209.705 403.155 209.757C403.248 209.787 403.347 209.797 403.445 209.787C403.542 209.778 403.637 209.748 403.722 209.7C403.813 209.641 403.888 209.561 403.943 209.469C403.998 209.376 404.031 209.272 404.038 209.165Z" fill="#263238"/>
<path d="M404.807 218.369C404.788 218.601 404.689 218.82 404.527 218.99C404.365 219.161 404.149 219.273 403.914 219.308C403.766 219.327 403.615 219.316 403.471 219.276C403.327 219.235 403.194 219.166 403.079 219.073C402.957 218.967 402.862 218.836 402.799 218.69C402.737 218.543 402.708 218.385 402.717 218.226C402.725 218.068 402.77 217.913 402.847 217.773C402.925 217.634 403.033 217.513 403.165 217.42C403.289 217.338 403.429 217.282 403.576 217.255C403.722 217.227 403.873 217.229 404.019 217.26C404.265 217.322 404.479 217.468 404.624 217.671C404.768 217.875 404.833 218.122 404.807 218.369ZM404.807 218.369C404.813 218.263 404.793 218.157 404.748 218.06C404.703 217.963 404.634 217.879 404.547 217.815C404.471 217.757 404.382 217.717 404.287 217.697C404.192 217.677 404.094 217.679 404 217.702C403.867 217.742 403.75 217.822 403.665 217.929C403.579 218.037 403.529 218.167 403.522 218.304C403.515 218.44 403.55 218.575 403.624 218.69C403.697 218.806 403.805 218.897 403.933 218.951C404.024 218.983 404.122 218.995 404.218 218.985C404.314 218.975 404.407 218.944 404.49 218.895C404.581 218.837 404.657 218.76 404.712 218.669C404.767 218.577 404.8 218.474 404.807 218.369Z" fill="#263238"/>
<path d="M406.381 226.811C406.369 227.051 406.274 227.279 406.112 227.458C405.949 227.637 405.729 227.757 405.488 227.797C405.339 227.813 405.189 227.799 405.046 227.757C404.902 227.715 404.769 227.646 404.653 227.553C404.532 227.448 404.436 227.317 404.374 227.17C404.311 227.024 404.283 226.865 404.291 226.707C404.299 226.548 404.344 226.393 404.421 226.254C404.499 226.114 404.608 225.993 404.739 225.9C404.863 225.819 405.003 225.762 405.15 225.735C405.297 225.707 405.448 225.709 405.594 225.741C405.832 225.801 406.041 225.942 406.185 226.137C406.328 226.333 406.398 226.571 406.381 226.811ZM406.381 226.811C406.387 226.705 406.367 226.599 406.322 226.503C406.277 226.406 406.208 226.322 406.122 226.257C406.029 226.184 405.917 226.137 405.799 226.124C405.68 226.111 405.56 226.131 405.453 226.183C405.346 226.234 405.256 226.314 405.194 226.414C405.133 226.514 405.101 226.629 405.104 226.746C405.09 226.882 405.122 227.019 405.195 227.136C405.267 227.253 405.377 227.343 405.507 227.394C405.595 227.433 405.69 227.453 405.786 227.453C405.882 227.453 405.977 227.433 406.064 227.394C406.161 227.329 406.241 227.242 406.296 227.141C406.352 227.039 406.381 226.926 406.381 226.811Z" fill="#263238"/>
<path d="M390.483 171.628C390.387 172.764 393.267 181.282 398.288 182.625C399.93 183.067 402.762 174.436 402.762 174.436L403.117 173.844L408.128 165.571L399.651 155.447L398.394 154.057C398.394 154.057 397.184 156.414 395.696 159.354L395.485 159.776C395.398 159.936 395.312 160.086 395.235 160.246C395.005 160.687 394.774 161.129 394.554 161.579C394.333 162.03 394.218 162.255 394.054 162.622C393.891 162.988 393.718 163.335 393.546 163.702C392.347 166.275 391.324 168.923 390.483 171.628Z" fill="#EB9481"/>
<path d="M395.696 159.354C395.785 162.151 396.495 164.896 397.776 167.398C399.058 169.9 400.88 172.1 403.117 173.844L408.128 165.571L399.651 155.447L398.394 154.057C398.394 154.057 397.184 156.414 395.696 159.354Z" fill="#263238"/>
<path d="M422.96 149.53C425.696 166.181 415.808 169.665 412.141 170.238C408.81 170.764 397.395 172.117 392.941 155.832C388.487 139.547 395.514 133.039 403.069 131.415C410.624 129.79 420.243 132.87 422.96 149.53Z" fill="#EB9481"/>
<path d="M420.08 147.032C419.685 147.028 419.291 146.999 418.899 146.948C418.475 146.977 418.053 146.868 417.699 146.638C417.601 146.546 417.538 146.425 417.519 146.294C417.5 146.163 417.526 146.029 417.594 145.915C417.761 145.705 417.983 145.544 418.237 145.448C418.49 145.352 418.766 145.325 419.034 145.37C419.588 145.372 420.122 145.576 420.531 145.943C420.617 146.033 420.675 146.146 420.698 146.267C420.721 146.389 420.708 146.514 420.661 146.628C420.614 146.743 420.534 146.842 420.431 146.913C420.328 146.985 420.206 147.026 420.08 147.032Z" fill="#263238"/>
<path d="M409.098 150.723C409.496 150.715 409.894 150.684 410.288 150.629C410.71 150.654 411.129 150.542 411.479 150.31C411.574 150.216 411.634 150.095 411.652 149.964C411.669 149.833 411.642 149.701 411.575 149.587C411.406 149.379 411.183 149.22 410.93 149.125C410.677 149.031 410.402 149.006 410.135 149.051C409.578 149.063 409.046 149.273 408.637 149.643C408.549 149.733 408.49 149.846 408.467 149.968C408.444 150.09 408.458 150.216 408.506 150.33C408.555 150.445 408.637 150.543 408.742 150.613C408.847 150.683 408.971 150.721 409.098 150.723Z" fill="#263238"/>
<path d="M411.68 152.31C411.68 152.31 411.603 152.385 411.613 152.432C411.834 153.559 411.901 154.884 410.912 155.428C410.912 155.428 410.912 155.503 410.912 155.494C412.179 155.109 412.083 153.343 411.68 152.31Z" fill="#263238"/>
<path d="M410.48 151.296C408.56 151.456 409.05 155.128 410.797 154.987C412.544 154.846 412.036 151.174 410.48 151.296Z" fill="#263238"/>
<path d="M409.731 151.578C409.434 151.822 409.155 152.235 408.771 152.32C408.387 152.404 407.927 152.075 407.581 151.737C407.581 151.737 407.523 151.737 407.523 151.784C407.6 152.498 407.965 153.184 408.752 153.193C409.539 153.202 409.904 152.526 409.991 151.794C410 151.662 409.856 151.474 409.731 151.578Z" fill="#263238"/>
<path d="M418.16 151.296C418.16 151.296 418.256 151.343 418.256 151.39C418.352 152.536 418.66 153.832 419.764 154.095C419.764 154.095 419.764 154.16 419.764 154.151C418.42 154.123 418.036 152.395 418.16 151.296Z" fill="#263238"/>
<path d="M419.034 149.991C420.887 149.643 421.472 153.306 419.744 153.625C418.016 153.944 417.469 150.282 419.034 149.991Z" fill="#263238"/>
<path d="M419.85 150.113C420.176 150.263 420.522 150.573 420.877 150.545C421.232 150.517 421.539 150.066 421.741 149.606C421.741 149.559 421.741 149.606 421.799 149.606C421.933 150.31 421.799 151.071 421.146 151.305C420.493 151.54 419.984 150.995 419.696 150.319C419.648 150.235 419.715 150.056 419.85 150.113Z" fill="#263238"/>
<path d="M416.787 157.006C416.787 157.006 417.104 158.706 417.142 159.513C417.142 159.589 416.95 159.635 416.672 159.664C415.976 159.816 415.25 159.779 414.573 159.558C413.896 159.336 413.294 158.937 412.832 158.405C412.82 158.389 412.814 158.37 412.815 158.35C412.816 158.331 412.824 158.312 412.838 158.297C412.852 158.283 412.87 158.274 412.89 158.271C412.91 158.268 412.93 158.273 412.947 158.283C414.036 158.94 415.312 159.236 416.586 159.128C416.634 158.903 415.933 156.236 416.067 156.217C416.719 156.244 417.365 156.355 417.987 156.546C417.421 152.986 416.278 149.53 415.77 145.981C415.77 145.849 415.942 145.802 415.981 145.915C417.324 149.567 418.289 153.343 418.861 157.184C418.851 157.663 417.123 157.128 416.787 157.006Z" fill="#263238"/>
<path d="M416.528 159.278C416.108 159.971 415.513 160.547 414.8 160.95C414.406 161.153 413.956 161.232 413.514 161.175C412.554 161.044 412.42 160.236 412.506 159.457C412.555 159.062 412.651 158.674 412.794 158.302C413.9 159.009 415.209 159.351 416.528 159.278Z" fill="#263238"/>
<path d="M414.8 160.95C414.406 161.153 413.956 161.232 413.514 161.175C412.554 161.044 412.42 160.236 412.506 159.457C413.004 159.419 413.5 159.546 413.916 159.817C414.332 160.087 414.643 160.486 414.8 160.95Z" fill="#FF9BBC"/>
<path d="M393.546 157.795C394.6 157.159 395.467 156.267 396.063 155.205C396.659 154.143 396.962 152.948 396.944 151.737C399.831 150.154 402.234 147.846 403.904 145.051C403.827 145.408 403.251 148 402.944 149.314C413.696 146.243 416.25 137.716 416.25 137.716C418.54 139.391 420.409 141.556 421.712 144.046C421.712 144.046 421.127 137.472 417.219 133.396C415.945 131.974 414.307 130.91 412.473 130.315C410.638 129.719 408.675 129.612 406.784 130.006C404.015 129.629 401.193 129.989 398.615 131.049C396.037 132.108 393.798 133.827 392.135 136.026C385.751 144.299 393.546 157.795 393.546 157.795Z" fill="#080403"/>
<path d="M411.056 146.732C409.401 147.837 407.59 148.701 405.68 149.296C408.674 148.173 411.29 146.258 413.235 143.764C414.06 142.697 414.744 141.533 415.271 140.299C415.899 138.971 416.252 137.535 416.307 136.073C416.307 136.05 416.316 136.029 416.333 136.013C416.349 135.997 416.371 135.988 416.394 135.988C416.417 135.988 416.439 135.997 416.455 136.013C416.471 136.029 416.48 136.05 416.48 136.073C416.579 137.52 416.43 138.974 416.039 140.374C415.591 141.741 414.887 143.014 413.965 144.13C413.135 145.126 412.166 146.002 411.085 146.732H411.056Z" fill="#263238"/>
<path d="M393.517 161.58C393.78 161.658 394.05 161.708 394.323 161.73C394.594 161.768 394.869 161.768 395.139 161.73C395.484 161.67 395.811 161.538 396.099 161.345C396.325 161.194 396.528 161.014 396.704 160.809C396.957 160.513 397.155 160.176 397.29 159.814L396.003 155.391C396.003 155.391 391.856 150.413 389.523 151.897C387.191 153.381 390.579 160.753 393.517 161.58Z" fill="#EB9481"/>
<path d="M390.551 153.991V154.066C392.615 154.714 393.805 156.461 394.688 158.292C394.557 158.104 394.385 157.947 394.184 157.83C393.984 157.713 393.761 157.64 393.529 157.616C393.297 157.592 393.063 157.617 392.842 157.69C392.621 157.763 392.419 157.882 392.25 158.039C392.202 158.039 392.25 158.152 392.317 158.133C392.662 158 393.04 157.974 393.4 158.058C393.761 158.142 394.086 158.332 394.333 158.602C394.738 159.062 395.092 159.563 395.389 160.096C395.495 160.265 395.812 160.152 395.725 159.955V159.908C395.562 157.363 393.316 153.991 390.551 153.991Z" fill="#263238"/>
<path d="M378.532 175.929C367.232 184.645 337.607 219.683 343.972 227.835C350.336 235.987 393.364 232.747 405.882 229.056C409.607 227.967 399.738 204.817 395.735 203.699C392.404 202.76 373.828 207.954 373.472 206.902C373.117 205.85 377.12 197.971 383.6 183.837C391.108 167.562 383.514 172.079 378.532 175.929Z" fill="#EB9481"/>
<path d="M414.071 199.464C422.711 199.577 424.871 200.901 432.196 197.219C436.996 194.806 440.644 196.778 437.408 201.276C432.128 208.63 420.983 210.762 416.903 210.414L414.071 199.464Z" fill="#EB9481"/>
<path d="M390.416 204.047C390.416 204.047 400.698 200.29 409.894 199.558C416.25 199.032 430.218 199.379 441.248 214.584C443.859 218.19 444.982 225.13 438.522 220.773C433.933 217.674 431.984 214.349 428.979 213.025C428.979 213.025 429.334 222.022 425.542 224.454C422.225 226.567 418.761 228.45 415.174 230.089C414.715 229.516 414.295 228.913 413.917 228.286C413.917 228.286 410.163 230.23 403.894 228.68L390.416 204.047Z" fill="#EB9481"/>
<path d="M416.048 200.009C418.736 201.943 424.391 206.141 427.789 211.137C431.562 216.697 437.303 228.389 433.079 231.075C429.988 233.038 427.396 228.765 427.396 228.765C427.396 228.765 428.72 234.09 425.533 235.273C422.653 236.344 420.82 232.916 420.82 232.916C420.82 232.916 421.06 236.278 418.045 236.785C414.436 237.395 414.522 230.211 410.317 227.769C409.367 227.243 416.048 200.009 416.048 200.009Z" fill="#EB9481"/>
<path d="M421.12 214.096C424.701 218.213 426.912 223.301 427.456 228.68C427.456 228.812 427.37 228.896 427.331 228.774C425.852 223.65 423.741 218.721 421.043 214.096C421.043 214.096 421.101 214.03 421.12 214.096Z" fill="#263238"/>
<path d="M415.501 217.946C417.219 220.059 420.781 226.746 420.935 232.869C420.935 233 420.829 233.075 420.8 232.953C419.605 227.761 417.808 222.72 415.443 217.927C415.443 217.927 415.472 217.918 415.501 217.946Z" fill="#263238"/>
<path d="M428.992 212.95C431.622 214.152 433.197 215.767 435.27 217.645C436.286 218.608 437.353 219.517 438.467 220.369C439.494 221.13 441.011 222.247 442.307 221.524C442.631 221.278 442.882 220.951 443.032 220.577C443.182 220.204 443.227 219.798 443.162 219.402C442.997 218.259 442.647 217.149 442.125 216.115C442.125 216.115 442.173 216.04 442.202 216.115C442.713 217.06 443.121 218.054 443.421 219.082C443.617 219.784 443.59 220.528 443.344 221.214C442.701 222.642 440.886 222.566 439.686 221.975C438.976 221.586 438.304 221.133 437.68 220.622C437.078 220.147 436.493 219.649 435.923 219.129C434.752 218.068 433.638 216.941 432.486 215.87C431.35 214.86 430.151 213.919 428.896 213.053C428.882 213.041 428.874 213.023 428.873 213.005C428.872 212.986 428.878 212.968 428.891 212.954C428.904 212.941 428.922 212.933 428.941 212.932C428.959 212.931 428.978 212.937 428.992 212.95Z" fill="#263238"/>
<path d="M433.274 223.271C432.05 219.762 430.598 216.333 428.925 213.006C428.925 212.959 428.925 212.922 428.993 212.959C430.826 215.269 433.437 221.064 433.975 222.876C434.658 224.776 434.939 226.793 434.8 228.802C434.359 231.62 432.372 231.854 431.642 231.883C430.784 231.907 429.943 231.641 429.261 231.131C428.464 230.478 427.811 229.673 427.341 228.765C427.341 228.718 427.341 228.671 427.409 228.718C428.234 229.976 429.713 231.31 431.306 231.347C431.656 231.364 432.006 231.313 432.335 231.197C432.665 231.081 432.967 230.902 433.226 230.671C433.76 230.063 434.051 229.285 434.042 228.483C434.089 226.716 433.83 224.953 433.274 223.271Z" fill="#263238"/>
<path d="M390.416 204.047L399.431 233.404C399.431 233.404 345.671 237.038 342.541 227.506C339.411 217.974 365.063 186.344 375.738 177.62C388.122 167.505 388.842 171.684 384.896 181.705C380.759 192.195 373.607 207.183 373.607 207.183L390.416 204.047Z" fill="#455A64"/>
<path d="M356.663 212.105C359.334 210.835 362.096 209.758 364.928 208.883C367.729 208.023 370.591 207.367 373.491 206.921C375.143 206.648 376.803 206.461 378.464 206.254C378.464 206.254 378.522 206.32 378.464 206.329C375.549 206.79 372.664 207.417 369.824 208.207C367.002 208.971 364.192 209.779 361.395 210.63C359.811 211.119 358.256 211.673 356.691 212.208C356.634 212.217 356.595 212.133 356.663 212.105Z" fill="#263238"/>
<path d="M390.32 203.953C390.051 203.953 375.104 206.442 374.605 206.582C374.701 206.385 378.445 199.37 378.963 198.337L379.117 198.036C379.453 197.586 379.789 197.097 380.077 196.693C380.49 196.102 380.893 195.51 381.286 194.928L380 196.628C379.798 196.891 379.616 197.163 379.424 197.435C379.798 196.712 380.154 195.98 380.518 195.247C381.094 194.073 381.632 192.89 382.16 191.697H382.102C381.008 193.745 379.846 195.754 378.752 197.792C377.658 199.83 373.482 207.334 373.51 207.334C373.539 207.334 390.013 204.272 390.339 204.197C390.445 204.122 390.426 203.934 390.32 203.953Z" fill="#263238"/>
<path d="M388.458 221.937C387.498 218.669 386.538 215.363 385.405 212.152C384.772 210.273 384.148 208.47 383.485 206.63C383.485 206.564 383.332 206.63 383.351 206.63C384.205 209.954 385.079 213.288 386.087 216.566C387.095 219.843 388.074 223.139 389.12 226.37C389.716 228.248 390.368 230.042 391.04 231.864C391.04 231.864 391.117 231.864 391.108 231.864C390.426 228.53 389.447 225.234 388.458 221.937Z" fill="#263238"/>
<path d="M400.026 233.93C399.642 232.991 399.171 231.695 398.749 230.793C398.634 230.559 398.451 230.577 398.538 230.793C398.816 231.62 399.008 232.521 399.277 233.367L397.021 233.461L394.41 233.601C392.701 233.686 391.002 233.752 389.293 233.808C385.837 233.908 382.384 233.939 378.935 233.902C372 233.857 365.072 233.459 358.179 232.709C356.259 232.493 354.339 232.24 352.419 231.93C350.529 231.65 348.655 231.277 346.803 230.812C346.803 230.812 346.736 230.887 346.803 230.906C348.365 231.48 349.97 231.935 351.603 232.268C353.322 232.606 355.059 232.906 356.797 233.141C360.263 233.62 363.747 233.921 367.232 234.127C374.154 234.541 381.095 234.653 388.026 234.503C389.946 234.459 391.888 234.393 393.853 234.306L396.791 234.155C397.874 234.173 398.956 234.098 400.026 233.93Z" fill="#263238"/>
<defs>
<clipPath id="clip0_633_2063">
<rect width="563" height="489" fill="white" transform="translate(91 63.23) rotate(-6.44845)"/>
</clipPath>
</defs>
</svg>
