<svg width="114" height="48" viewBox="0 0 114 48" fill="none" xmlns="http://www.w3.org/2000/svg">
<path d="M24.5 45.1609L7 34.8199V14.1799L24.5 3.83887L42 14.1799V34.8199L24.5 45.1609ZM9 33.6799L24.5 42.8389L40 33.6799V15.3199L24.5 6.16087L9 15.3199V33.6799Z" fill="#F4F4F4"/>
<path d="M24.5 9C26.433 9 28 7.433 28 5.5C28 3.567 26.433 2 24.5 2C22.567 2 21 3.567 21 5.5C21 7.433 22.567 9 24.5 9Z" fill="#F4F4F4"/>
<path d="M24.5 47C26.433 47 28 45.433 28 43.5C28 41.567 26.433 40 24.5 40C22.567 40 21 41.567 21 43.5C21 45.433 22.567 47 24.5 47Z" fill="#F4F4F4"/>
<path d="M8.5 37C10.433 37 12 35.433 12 33.5C12 31.567 10.433 30 8.5 30C6.567 30 5 31.567 5 33.5C5 35.433 6.567 37 8.5 37Z" fill="#F4F4F4"/>
<path d="M40.5 37C42.433 37 44 35.433 44 33.5C44 31.567 42.433 30 40.5 30C38.567 30 37 31.567 37 33.5C37 35.433 38.567 37 40.5 37Z" fill="#F4F4F4"/>
<path d="M8.5 19C10.433 19 12 17.433 12 15.5C12 13.567 10.433 12 8.5 12C6.567 12 5 13.567 5 15.5C5 17.433 6.567 19 8.5 19Z" fill="#F4F4F4"/>
<path d="M40.5 19C42.433 19 44 17.433 44 15.5C44 13.567 42.433 12 40.5 12C38.567 12 37 13.567 37 15.5C37 17.433 38.567 19 40.5 19Z" fill="#F4F4F4"/>
<path d="M42.7198 35H6.27979L24.4998 2.97803L42.7198 35ZM9.71979 33H39.2798L24.4998 7.02203L9.71979 33Z" fill="#F4F4F4"/>
<path d="M55.3636 21C55.2386 20.6174 55.0739 20.2746 54.8693 19.9716C54.6686 19.6648 54.428 19.4034 54.1477 19.1875C53.8712 18.9716 53.5568 18.8068 53.2045 18.6932C52.8523 18.5795 52.4659 18.5227 52.0455 18.5227C51.3561 18.5227 50.7292 18.7008 50.1648 19.0568C49.6004 19.4129 49.1515 19.9375 48.8182 20.6307C48.4848 21.3239 48.3182 22.1742 48.3182 23.1818C48.3182 24.1894 48.4867 25.0398 48.8239 25.733C49.161 26.4261 49.6174 26.9508 50.1932 27.3068C50.7689 27.6629 51.4167 27.8409 52.1364 27.8409C52.803 27.8409 53.3902 27.6989 53.8977 27.4148C54.4091 27.1269 54.8068 26.7216 55.0909 26.1989C55.3788 25.6723 55.5227 25.053 55.5227 24.3409L55.9545 24.4318H52.4545V23.1818H56.8864V24.4318C56.8864 25.3902 56.6818 26.2235 56.2727 26.9318C55.8674 27.6402 55.3068 28.1894 54.5909 28.5795C53.8788 28.9659 53.0606 29.1591 52.1364 29.1591C51.1061 29.1591 50.2008 28.9167 49.4205 28.4318C48.6439 27.947 48.0379 27.2576 47.6023 26.3636C47.1705 25.4697 46.9545 24.4091 46.9545 23.1818C46.9545 22.2614 47.0777 21.4337 47.3239 20.6989C47.5739 19.9602 47.9261 19.3314 48.3807 18.8125C48.8352 18.2936 49.3731 17.8958 49.9943 17.6193C50.6155 17.3428 51.2992 17.2045 52.0455 17.2045C52.6591 17.2045 53.2311 17.2973 53.7614 17.483C54.2955 17.6648 54.7708 17.9242 55.1875 18.2614C55.608 18.5947 55.9583 18.9943 56.2386 19.4602C56.5189 19.9223 56.7121 20.4356 56.8182 21H55.3636ZM59.1179 29V20.2727H60.4134V21.5909H60.5043C60.6634 21.1591 60.9512 20.8087 61.3679 20.5398C61.7846 20.2708 62.2543 20.1364 62.777 20.1364C62.8755 20.1364 62.9986 20.1383 63.1463 20.142C63.294 20.1458 63.4058 20.1515 63.4815 20.1591V21.5227C63.4361 21.5114 63.3319 21.4943 63.169 21.4716C63.0099 21.4451 62.8414 21.4318 62.6634 21.4318C62.2391 21.4318 61.8603 21.5208 61.527 21.6989C61.1974 21.8731 60.9361 22.1155 60.7429 22.4261C60.5535 22.733 60.4588 23.0833 60.4588 23.4773V29H59.1179ZM67.6392 29.2045C67.0862 29.2045 66.5843 29.1004 66.1335 28.892C65.6828 28.6799 65.3248 28.375 65.0597 27.9773C64.7945 27.5758 64.6619 27.0909 64.6619 26.5227C64.6619 26.0227 64.7604 25.6174 64.9574 25.3068C65.1544 24.9924 65.4176 24.7462 65.7472 24.5682C66.0767 24.3902 66.4403 24.2576 66.8381 24.1705C67.2396 24.0795 67.643 24.0076 68.0483 23.9545C68.5786 23.8864 69.0085 23.8352 69.3381 23.8011C69.6714 23.7633 69.9138 23.7008 70.0653 23.6136C70.2206 23.5265 70.2983 23.375 70.2983 23.1591V23.1136C70.2983 22.553 70.1449 22.1174 69.8381 21.8068C69.535 21.4962 69.0748 21.3409 68.4574 21.3409C67.8172 21.3409 67.3153 21.4811 66.9517 21.7614C66.5881 22.0417 66.3324 22.3409 66.1847 22.6591L64.9119 22.2045C65.1392 21.6742 65.4422 21.2614 65.821 20.9659C66.2036 20.6667 66.6203 20.4583 67.071 20.3409C67.5256 20.2197 67.9725 20.1591 68.4119 20.1591C68.6922 20.1591 69.0142 20.1932 69.3778 20.2614C69.7453 20.3258 70.0994 20.4602 70.4403 20.6648C70.785 20.8693 71.071 21.178 71.2983 21.5909C71.5256 22.0038 71.6392 22.5568 71.6392 23.25V29H70.2983V27.8182H70.2301C70.1392 28.0076 69.9877 28.2102 69.7756 28.4261C69.5634 28.642 69.2813 28.8258 68.929 28.9773C68.5767 29.1288 68.1468 29.2045 67.6392 29.2045ZM67.8438 28C68.3741 28 68.821 27.8958 69.1847 27.6875C69.5521 27.4792 69.8286 27.2102 70.0142 26.8807C70.2036 26.5511 70.2983 26.2045 70.2983 25.8409V24.6136C70.2415 24.6818 70.1165 24.7443 69.9233 24.8011C69.7339 24.8542 69.5142 24.9015 69.2642 24.9432C69.018 24.9811 68.7775 25.0152 68.5426 25.0455C68.3116 25.072 68.1241 25.0947 67.9801 25.1136C67.6316 25.1591 67.3059 25.233 67.0028 25.3352C66.7036 25.4337 66.4612 25.5833 66.2756 25.7841C66.0938 25.9811 66.0028 26.25 66.0028 26.5909C66.0028 27.0568 66.1752 27.4091 66.5199 27.6477C66.8684 27.8826 67.3097 28 67.8438 28ZM74.0866 32.2727V20.2727H75.3821V21.6591H75.5412C75.6397 21.5076 75.776 21.3144 75.9503 21.0795C76.1283 20.8409 76.3821 20.6288 76.7116 20.4432C77.045 20.2538 77.4957 20.1591 78.0639 20.1591C78.7988 20.1591 79.4465 20.3428 80.0071 20.7102C80.5677 21.0777 81.0052 21.5985 81.3196 22.2727C81.634 22.947 81.7912 23.7424 81.7912 24.6591C81.7912 25.5833 81.634 26.3845 81.3196 27.0625C81.0052 27.7367 80.5696 28.2595 80.0128 28.6307C79.456 28.9981 78.8139 29.1818 78.0866 29.1818C77.526 29.1818 77.0772 29.089 76.7401 28.9034C76.4029 28.714 76.1435 28.5 75.9616 28.2614C75.7798 28.0189 75.6397 27.8182 75.5412 27.6591H75.4276V32.2727H74.0866ZM75.4048 24.6364C75.4048 25.2955 75.5014 25.8769 75.6946 26.3807C75.8878 26.8807 76.17 27.2727 76.5412 27.5568C76.9124 27.8371 77.367 27.9773 77.9048 27.9773C78.4654 27.9773 78.9332 27.8295 79.3082 27.5341C79.687 27.2348 79.9711 26.8333 80.1605 26.3295C80.3537 25.822 80.4503 25.2576 80.4503 24.6364C80.4503 24.0227 80.3556 23.4697 80.1662 22.9773C79.9806 22.4811 79.6984 22.089 79.3196 21.8011C78.9446 21.5095 78.473 21.3636 77.9048 21.3636C77.3594 21.3636 76.901 21.5019 76.5298 21.7784C76.1586 22.0511 75.8783 22.4337 75.6889 22.9261C75.4995 23.4148 75.4048 23.9848 75.4048 24.6364ZM85.1776 23.75V29H83.8366V17.3636H85.1776V21.6364H85.2912C85.4957 21.1856 85.8026 20.8277 86.2116 20.5625C86.6245 20.2936 87.1738 20.1591 87.8594 20.1591C88.4541 20.1591 88.9749 20.2784 89.4219 20.517C89.8688 20.7519 90.2154 21.1136 90.4616 21.6023C90.7116 22.0871 90.8366 22.7045 90.8366 23.4545V29H89.4957V23.5455C89.4957 22.8523 89.3158 22.3163 88.956 21.9375C88.5999 21.5549 88.1056 21.3636 87.473 21.3636C87.0336 21.3636 86.6397 21.4564 86.2912 21.642C85.9465 21.8277 85.6738 22.0985 85.473 22.4545C85.276 22.8106 85.1776 23.2424 85.1776 23.75ZM97.6989 25.3636H99.2443L100.54 27.0682L100.881 27.5227L102.812 30.0909H101.267L99.9943 28.3864L99.6761 27.9545L97.6989 25.3636ZM103.29 23.1818C103.29 24.4091 103.068 25.4697 102.625 26.3636C102.182 27.2576 101.574 27.947 100.801 28.4318C100.028 28.9167 99.1458 29.1591 98.1534 29.1591C97.161 29.1591 96.2784 28.9167 95.5057 28.4318C94.733 27.947 94.125 27.2576 93.6818 26.3636C93.2386 25.4697 93.017 24.4091 93.017 23.1818C93.017 21.9545 93.2386 20.8939 93.6818 20C94.125 19.1061 94.733 18.4167 95.5057 17.9318C96.2784 17.447 97.161 17.2045 98.1534 17.2045C99.1458 17.2045 100.028 17.447 100.801 17.9318C101.574 18.4167 102.182 19.1061 102.625 20C103.068 20.8939 103.29 21.9545 103.29 23.1818ZM101.926 23.1818C101.926 22.1742 101.758 21.3239 101.42 20.6307C101.087 19.9375 100.634 19.4129 100.062 19.0568C99.4943 18.7008 98.858 18.5227 98.1534 18.5227C97.4489 18.5227 96.8106 18.7008 96.2386 19.0568C95.6705 19.4129 95.2178 19.9375 94.8807 20.6307C94.5473 21.3239 94.3807 22.1742 94.3807 23.1818C94.3807 24.1894 94.5473 25.0398 94.8807 25.733C95.2178 26.4261 95.6705 26.9508 96.2386 27.3068C96.8106 27.6629 97.4489 27.8409 98.1534 27.8409C98.858 27.8409 99.4943 27.6629 100.062 27.3068C100.634 26.9508 101.087 26.4261 101.42 25.733C101.758 25.0398 101.926 24.1894 101.926 23.1818ZM105.659 29V17.3636H107.068V27.75H112.477V29H105.659Z" fill="#F4F4F4"/>
</svg>
