<svg width="1439" height="154" viewBox="0 0 1439 154" fill="none" xmlns="http://www.w3.org/2000/svg">
<g clip-path="url(#clip0_518_2061)">
<rect width="1440" height="154" transform="matrix(-1 0 0 -1 1439 154)" fill="#F4F4F4"/>
<path d="M1447 33.789L1383.5 64.7156C1313 93.8229 1254 104.738 1159 110.196C1061.5 112.621 963.286 108.383 865 78.0564C769 48.4353 679 39.9968 583 56.5C487 72.439 391 89.1501 295 118.348C199 148.392 103 160.275 7 150.825C-89 140.528 -185 123.285 -281 109.603C-377 96.4846 -473 96.4846 -569 96.4846C-665 96.4846 -761 96.4846 -857 89.8551C-953 83.7898 -1049 69.6845 -1145 53.7455C-1241 37.2423 -1337 17.4949 -1433 20.7391C-1529 24.5475 -1625 49.9371 -1721 73.4929C-1817 96.4846 -1913 116.232 -2009 109.603C-2105 103.537 -2201 69.6845 -2297 56.9897C-2393 44.295 -2489 49.9371 -2585 63.6192C-2681 76.7372 -2777 96.4846 -2873 86.6109C-2969 76.7372 -3065 37.2423 -3161 20.7391C-3257 4.80009 -3353 10.4422 -3449 33.9981C-3545 56.9897 -3641 96.4846 -3737 106.358C-3833 116.232 -3929 96.4846 -4025 79.9814C-4121 64.0424 -4217 49.9371 -4313 43.8718C-4409 37.2423 -4505 37.2423 -4601 50.3602C-4697 64.0424 -4793 89.4319 -4889 96.4846C-4985 103.537 -5081 89.4319 -5177 86.6109C-5273 83.7898 -5369 89.4319 -5417 93.2404L-5465 96.4846V-22H-5417C-5369 -22 -5273 -22 -5177 -22C-5081 -22 -4985 -22 -4889 -22C-4793 -22 -4697 -22 -4601 -22C-4505 -22 -4409 -22 -4313 -22C-4217 -22 -4121 -22 -4025 -22C-3929 -22 -3833 -22 -3737 -22C-3641 -22 -3545 -22 -3449 -22C-3353 -22 -3257 -22 -3161 -22C-3065 -22 -2969 -22 -2873 -22C-2777 -22 -2681 -22 -2585 -22C-2489 -22 -2393 -22 -2297 -22C-2201 -22 -2105 -22 -2009 -22C-1913 -22 -1817 -22 -1721 -22C-1625 -22 -1529 -22 -1433 -22C-1337 -22 -1241 -22 -1145 -22C-1049 -22 -953 -22 -857 -22C-761 -22 -665 -22 -569 -22C-473 -22 -377 -22 -281 -22C-185 -22 -89 -22 7 -22C103 -22 199 -22 295 -22C391 -22 487 -22 583 -22C679 -22 775 -22 871 -22C967 -22 1063 -22 1159 -22C1255 -22 1351 -22 1399 -22H1447V33.789Z" fill="#5A5857"/>
<path d="M1515 32L1451.5 57.5C1381 81.5 1322 90.5 1227 95C1129.5 97 1031.29 93.5052 933 68.5C837 44.0763 747 18.5649 651 32.1723C555 45.3146 459 77.6471 363 101.722C267 126.494 171 136.292 75 128.5C-21 120.01 -117 105.792 -213 94.5108C-309 83.6946 -405 83.6946 -501 83.6946C-597 83.6946 -693 83.6946 -789 78.2284C-885 73.2274 -981 61.597 -1077 48.4548C-1173 34.8473 -1269 18.5649 -1365 21.2398C-1461 24.38 -1557 45.3146 -1653 64.7372C-1749 83.6946 -1845 99.9771 -1941 94.5108C-2037 89.5098 -2133 61.597 -2229 51.1298C-2325 40.6625 -2421 45.3146 -2517 56.596C-2613 67.4122 -2709 83.6946 -2805 75.5534C-2901 67.4122 -2997 34.8473 -3093 21.2398C-3189 8.09759 -3285 12.7497 -3381 32.1723C-3477 51.1297 -3573 83.6946 -3669 91.8359C-3765 99.9771 -3861 83.6947 -3957 70.0872C-4053 56.9449 -4149 45.3146 -4245 40.3136C-4341 34.8473 -4437 34.8473 -4533 45.6635C-4629 56.9449 -4725 77.8795 -4821 83.6946C-4917 89.5098 -5013 77.8795 -5109 75.5534C-5205 73.2274 -5301 77.8795 -5349 81.0197L-5397 83.6946V-14H-5349C-5301 -14 -5205 -14 -5109 -14C-5013 -14 -4917 -14 -4821 -14C-4725 -14 -4629 -14 -4533 -14C-4437 -14 -4341 -14 -4245 -14C-4149 -14 -4053 -14 -3957 -14C-3861 -14 -3765 -14 -3669 -14C-3573 -14 -3477 -14 -3381 -14C-3285 -14 -3189 -14 -3093 -14C-2997 -14 -2901 -14 -2805 -14C-2709 -14 -2613 -14 -2517 -14C-2421 -14 -2325 -14 -2229 -14C-2133 -14 -2037 -14 -1941 -14C-1845 -14 -1749 -14 -1653 -14C-1557 -14 -1461 -14 -1365 -14C-1269 -14 -1173 -14 -1077 -14C-981 -14 -885 -14 -789 -14C-693 -14 -597 -14 -501 -14C-405 -14 -309 -14 -213 -14C-117 -14 -21 -14 75 -14C171 -14 267 -14 363 -14C459 -14 555 -14 651 -14C747 -14 843 -14 939 -14C1035 -14 1131 -14 1227 -14C1323 -14 1419 -14 1467 -14H1515V32Z" fill="#312E2D"/>
<path d="M1439 16L1375.5 41.5C1305 65.5 1246 69 1151 73.5C1053.5 75.5 961.286 68.2762 863 43.271C767 18.8473 671 2.56487 575 16.1723C479 29.3146 383 61.6471 287 85.7218C191 110.494 95 120.292 -1 112.5C-97 104.01 -193 89.7922 -289 78.5108C-385 67.6946 -481 67.6946 -577 67.6946C-673 67.6946 -769 67.6946 -865 62.2284C-961 57.2274 -1057 45.597 -1153 32.4548C-1249 18.8473 -1345 2.56487 -1441 5.23985C-1537 8.38003 -1633 29.3146 -1729 48.7372C-1825 67.6946 -1921 83.9771 -2017 78.5108C-2113 73.5098 -2209 45.597 -2305 35.1298C-2401 24.6625 -2497 29.3146 -2593 40.596C-2689 51.4122 -2785 67.6946 -2881 59.5534C-2977 51.4122 -3073 18.8473 -3169 5.23985C-3265 -7.90241 -3361 -3.2503 -3457 16.1723C-3553 35.1297 -3649 67.6946 -3745 75.8359C-3841 83.9771 -3937 67.6947 -4033 54.0872C-4129 40.9449 -4225 29.3146 -4321 24.3136C-4417 18.8473 -4513 18.8473 -4609 29.6635C-4705 40.9449 -4801 61.8795 -4897 67.6946C-4993 73.5098 -5089 61.8795 -5185 59.5534C-5281 57.2274 -5377 61.8795 -5425 65.0197L-5473 67.6946V-30H-5425C-5377 -30 -5281 -30 -5185 -30C-5089 -30 -4993 -30 -4897 -30C-4801 -30 -4705 -30 -4609 -30C-4513 -30 -4417 -30 -4321 -30C-4225 -30 -4129 -30 -4033 -30C-3937 -30 -3841 -30 -3745 -30C-3649 -30 -3553 -30 -3457 -30C-3361 -30 -3265 -30 -3169 -30C-3073 -30 -2977 -30 -2881 -30C-2785 -30 -2689 -30 -2593 -30C-2497 -30 -2401 -30 -2305 -30C-2209 -30 -2113 -30 -2017 -30C-1921 -30 -1825 -30 -1729 -30C-1633 -30 -1537 -30 -1441 -30C-1345 -30 -1249 -30 -1153 -30C-1057 -30 -961 -30 -865 -30C-769 -30 -673 -30 -577 -30C-481 -30 -385 -30 -289 -30C-193 -30 -97 -30 -1 -30C95 -30 191 -30 287 -30C383 -30 479 -30 575 -30C671 -30 767 -30 863 -30C959 -30 1055 -30 1151 -30C1247 -30 1343 -30 1391 -30H1439V16Z" fill="#080403"/>
</g>
<defs>
<clipPath id="clip0_518_2061">
<rect width="1440" height="154" fill="white" transform="matrix(-1 0 0 -1 1439 154)"/>
</clipPath>
</defs>
</svg>
