<svg xmlns="http://www.w3.org/2000/svg" width="135.178" height="45.441" viewBox="0 0 135.178 45.441">
  <g id="instagram-1" transform="translate(0)">
    <path id="Path_134" data-name="Path 134" d="M12.692.668c-.9.344-2.379,2.194-3.252,4.019a16.545,16.545,0,0,0-1.718,7.376A7.384,7.384,0,0,0,8.436,15.9a11.158,11.158,0,0,0,1.428,2.327,6.117,6.117,0,0,0,3.7,1.745c.714,0,.846.106.846.661a8.262,8.262,0,0,1-.5,1.983A6.823,6.823,0,0,1,7.3,27.37c-2.194,0-3.781-.714-4.362-1.956-.714-1.507-.555-2.432.661-3.913A4.274,4.274,0,0,0,4.84,19.042c.106-1.058.053-1.216-.5-1.4-1.507-.555-3.384.846-3.966,2.908a9.556,9.556,0,0,0-.159,2.67c.4,4.336,3.648,6.557,9.042,6.186,2.961-.212,4.494-.793,6.107-2.432,1.692-1.666,2.406-3.543,2.75-6.98.291-2.908.344-14.039.106-17.026-.185-2.009-.185-2.036-1-2.141A14.326,14.326,0,0,0,12.692.668Zm1.639,3.754a38.158,38.158,0,0,1,.132,6.477c-.106,5.711-.159,6.16-.608,6.292-.872.291-1.93-.449-2.617-1.851-.608-1.19-.661-1.639-.661-4.494,0-3.437.291-4.68,1.375-5.949C12.639,4.052,13.855,3.814,14.331,4.422Zm31.964-3.04a7.694,7.694,0,0,0-.159,1.745c0,.767-.079,2.168-.185,3.146l-.159,1.8H44.576a9.629,9.629,0,0,0-3.384.608.941.941,0,0,0,.159.661c.264.476.82.687,3.675,1.269l.582.106-.053,6.292c-.079,5.5-.026,6.477.423,7.9.846,2.8,2.776,4.494,4.732,4.124.978-.185,2.274-1.586,3.146-3.384.4-.872.74-1.348.74-1.058a7.451,7.451,0,0,0,1.9,3.675,7.227,7.227,0,0,0,2.036.687c2.274.423,3.6-.529,4.944-3.6L63.9,24.33l.238.767a4.538,4.538,0,0,0,2.67,2.644,3.408,3.408,0,0,0,3.12-1.375l.608-.82.555,1.11c.74,1.428,1.533,1.983,3.437,2.327,1.4.238,1.639.238,2.247-.238a6.728,6.728,0,0,0,1.4-1.8l.74-1.3V28.8l-1.956,1.93a16.982,16.982,0,0,0-4.521,7.879c-1.3,5.1.344,7.35,5.393,7.376,2.168.026,2.194.026,2.935-.846,1.243-1.481,1.428-2.591,1.586-9.306l.132-6.213h.846a1.99,1.99,0,0,0,1.19-.344c.291-.291.238-.449-.291-.872a2.558,2.558,0,0,0-1.3-.5h-.661l.132-4.309c.106-3.3.238-4.494.582-5.155l.449-.872-.872-.344-.872-.37V14.468c0-2.274-.053-2.432-.74-3.173A4.967,4.967,0,0,0,79.1,10.212a17.324,17.324,0,0,1-2.353-.872c-1.454-.661-2.221-.529-3.49.582-1.8,1.586-2.7,4.706-3.04,10.443-.212,3.675-.608,4.97-1.613,5.288-.74.238-1.243-.238-1.586-1.428a15.123,15.123,0,0,1,.053-5.763c.291-1.163.264-1.243-.37-1.771-.608-.5-.687-.793-.793-2.75-.159-2.776-.555-3.331-3.014-4.336-4.917-2.009-7.376.212-8.3,7.561a8.951,8.951,0,0,1-.5,2.379,8.648,8.648,0,0,0-.661,2.089c-.529,2.221-1.269,3.754-2.168,4.309-.635.423-.687.423-1.19-.079-.793-.793-1.031-3.278-.872-8.8.185-6.927.079-6.53,1.851-6.768.82-.079,2.247-.185,3.173-.185,1.824-.026,2.089-.264,1.163-1.11-.423-.37-1.137-.529-3.12-.635L49.705,8.2l.053-1.851c.026-1.031.132-2.432.212-3.12.159-1.243.132-1.269-.714-1.613-1.481-.582-2.8-.714-2.961-.238ZM78.047,12.406c.687.608.74.767.714,2.591-.053,3.569-.74,7.588-1.613,9.333-.608,1.216-1.692,2.247-2.379,2.247a1.435,1.435,0,0,1-1.058-.714c-.714-1.058-.687-8.037.026-10.126.687-2.062,1.428-3.173,2.379-3.6C77.2,11.666,77.2,11.666,78.047,12.406Zm-15.308.555a3.962,3.962,0,0,1,.476,3.622,13.627,13.627,0,0,0-.661,3.437c-.4,3.543-.925,5.393-1.877,6.345-1.11,1.084-2.036,1-2.564-.264-1.031-2.406-.608-9.359.74-11.976C59.8,12.247,61.735,11.666,62.739,12.961ZM78.655,39.611c-.476,3.067-1.613,4.653-3.067,4.309-1.375-.344-1.8-2.829-1.031-5.843a19.042,19.042,0,0,1,3.2-6.477l1.031-1.163.079,3.675A43.881,43.881,0,0,1,78.655,39.611Z" transform="translate(-0.182 -0.548)"/>
    <path id="Path_135" data-name="Path 135" d="M155.951,33.163c-1.348,1.4-2.141,3.516-2.538,6.9a32.963,32.963,0,0,1-2.168,8.7c-.449.82-.74,1.084-1.243,1.084-1.058,0-1.4-1.454-1.243-5.42a19.5,19.5,0,0,1,.74-5.261l.608-1.956-.582-.476a5.319,5.319,0,0,0-2.379-.635c-.978-.079-1.956-.185-2.168-.212-.264-.053-.4-.4-.4-1.11-.026-1.507-.291-1.8-1.375-1.639-1.613.264-1.613.317-1.481,4.759a32.749,32.749,0,0,1-.185,6c-.476,2.8-.449,3.014.079,3.12.714.159,1.4-1.745,1.956-5.5l.5-3.3h1.56l-.106,3.437c-.159,6.742,1.243,10.179,4.151,10.179,1.216,0,2.274-.82,3.04-2.379l.661-1.3.423,1.137a5.864,5.864,0,0,0,1.163,1.8,5.679,5.679,0,0,0,4.336,1.031c.872-.317,2.009-1.718,2.723-3.278l.555-1.3.5,1.11c1.269,2.829,4.177,3.04,5.9.449l.714-1.084.159,1.375c.238,1.745.529,2.089,1.983,2.327,2.3.344,2.3.317,2.829-3.648.449-3.569,1.137-6.557,1.533-6.557a20.437,20.437,0,0,1,.291,3.939c.079,3.41.159,4.019.582,4.494,1.031,1.137,3.6.952,3.6-.264a34.535,34.535,0,0,1,1.93-6.98l.846-2.115.132,3.7c.106,3.278.212,3.86.793,5a6.1,6.1,0,0,0,1.375,1.851,3.652,3.652,0,0,0,3.807,0c2.036-1.507,4.151-8.037,2.617-8.037-.476,0-.793.635-1.058,1.983-.608,3.384-2.644,5.314-3.569,3.358-.555-1.137-.634-5.684-.132-7.852.793-3.437.82-3.173-.238-3.966a4.285,4.285,0,0,0-2.247-.872l-1.243-.106L183,37.182c-.4.872-1.269,3.173-1.983,5.129l-1.269,3.569-.079-4.019-.079-4.045-.767-.4c-2.115-1.084-3.225-.106-4.468,3.992-.476,1.586-.9,2.987-.952,3.146-.053.132-.106-2.009-.106-4.812-.026-3.146-.132-5.129-.291-5.235a6.708,6.708,0,0,0-1.692-.317l-1.428-.159-.106,5c-.106,4.2-.212,5.261-.687,6.742-1.031,3.093-2.353,4.045-3.12,2.221a16.716,16.716,0,0,1-.079-6.609c.264-.952.238-1.084-.37-1.586-.555-.449-.661-.846-.82-2.617-.212-2.353-.608-3.358-1.533-3.754-2.776-1.3-3.252-1.428-4.627-1.428-1.428,0-1.56.053-2.591,1.163Zm5.155,2.538c.872.476,1.454,3.463.793,4.124a11.747,11.747,0,0,0-.529,3.014c-.37,3.6-.952,5.631-1.877,6.636-.978,1.031-2.062.978-2.591-.132-.9-1.9-.846-7.27.106-10.575C157.8,36.1,159.467,34.829,161.106,35.7ZM78.779,34.062c-.212.37-.767,12.9-.634,14.382.185,1.745.767,2.327,2.3,2.327a4.209,4.209,0,0,0,1.507-.212,6.935,6.935,0,0,0,.74-2.432,26.588,26.588,0,0,1,1.877-6.081c.344-.608.37-.37.4,2.512,0,3.516.37,4.732,1.586,5.367a3.827,3.827,0,0,0,3.49-.476c.793-.582.793-.582,1.163-.053.846,1.216,4.494,1.93,7.059,1.375,1.93-.4,3.093-1.322,3.093-2.485,0-1.137-.4-1.639-3.146-3.86s-3.2-2.8-3.2-4.1A2.324,2.324,0,0,1,98.739,38.5c.635.582,1.19.449,1.956-.449a2.241,2.241,0,0,0,.608-1.93c-.079-.9-.212-1.137-.872-1.454-1.481-.714-6.319.582-8.037,2.168a4.052,4.052,0,0,0-.82,4.917c.4.82.449,1.058.159,1.163a2.194,2.194,0,0,0-.529,1.269c-.423,2.67-1.824,4.494-2.776,3.569-.344-.37-.423-1.163-.476-4.759-.026-3.3-.132-4.521-.449-5.129a1.719,1.719,0,0,0-2.274-.846c-.661.344-1.718,2.168-2.67,4.574l-.74,1.9-.026-4.283c0-4.151-.026-4.309-.582-4.68C80.391,34.036,78.964,33.771,78.779,34.062ZM96.466,46.62a4.907,4.907,0,0,1,1.269,1.507c.4,1.481-1.771,1.9-3.463.661-.555-.4-1.3-.925-1.718-1.163-.449-.264-.661-.555-.555-.82a18.194,18.194,0,0,0,.449-1.877l.291-1.507,1.322,1.11C94.774,45.113,95.858,46.065,96.466,46.62Z" transform="translate(-57.518 -23.685)"/>
  </g>
</svg>
