<svg width="60" height="60" viewBox="0 0 60 60" fill="none" xmlns="http://www.w3.org/2000/svg">
<path d="M30.0072 5.73877C20.5162 5.73877 17.7405 5.74856 17.2009 5.79332C15.2532 5.95522 14.0412 6.26189 12.7208 6.91929C11.7033 7.42458 10.9007 8.01029 10.1087 8.83134C8.66628 10.3287 7.79208 12.1708 7.47562 14.3605C7.32176 15.4235 7.277 15.6403 7.26791 21.0701C7.26441 22.8801 7.26791 25.2621 7.26791 28.4571C7.26791 37.9404 7.2784 40.7134 7.32386 41.2519C7.48122 43.1472 7.77844 44.3396 8.40787 45.6439C9.61077 48.1406 11.9082 50.0149 14.6147 50.7143C15.5518 50.9555 16.5869 51.0884 17.9157 51.1514C18.4787 51.1758 24.2169 51.1933 29.9586 51.1933C35.7004 51.1933 41.4421 51.1863 41.9911 51.1584C43.5297 51.086 44.4231 50.966 45.411 50.7108C46.753 50.3666 48.0037 49.7337 49.0757 48.8561C50.1478 47.9785 51.0154 46.8775 51.6178 45.6299C52.235 44.3571 52.548 43.1192 52.6896 41.3229C52.7204 40.9313 52.7333 34.687 52.7333 28.4512C52.7333 22.2143 52.7193 15.9816 52.6885 15.59C52.5452 13.7646 52.2322 12.5372 51.5951 11.2399C51.0723 10.178 50.4918 9.38488 49.6491 8.57397C48.1455 7.13749 46.3062 6.26329 44.114 5.94718C43.0521 5.79367 42.8405 5.74821 37.4065 5.73877H30.0072Z" fill="url(#paint0_radial_353_1335)"/>
<path d="M30.0072 5.73877C20.5162 5.73877 17.7405 5.74856 17.2009 5.79332C15.2532 5.95522 14.0412 6.26189 12.7208 6.91929C11.7033 7.42458 10.9007 8.01029 10.1087 8.83134C8.66628 10.3287 7.79208 12.1708 7.47562 14.3605C7.32176 15.4235 7.277 15.6403 7.26791 21.0701C7.26441 22.8801 7.26791 25.2621 7.26791 28.4571C7.26791 37.9404 7.2784 40.7134 7.32386 41.2519C7.48122 43.1472 7.77844 44.3396 8.40787 45.6439C9.61077 48.1406 11.9082 50.0149 14.6147 50.7143C15.5518 50.9555 16.5869 51.0884 17.9157 51.1514C18.4787 51.1758 24.2169 51.1933 29.9586 51.1933C35.7004 51.1933 41.4421 51.1863 41.9911 51.1584C43.5297 51.086 44.4231 50.966 45.411 50.7108C46.753 50.3666 48.0037 49.7337 49.0757 48.8561C50.1478 47.9785 51.0154 46.8775 51.6178 45.6299C52.235 44.3571 52.548 43.1192 52.6896 41.3229C52.7204 40.9313 52.7333 34.687 52.7333 28.4512C52.7333 22.2143 52.7193 15.9816 52.6885 15.59C52.5452 13.7646 52.2322 12.5372 51.5951 11.2399C51.0723 10.178 50.4918 9.38488 49.6491 8.57397C48.1455 7.13749 46.3062 6.26329 44.114 5.94718C43.0521 5.79367 42.8405 5.74821 37.4065 5.73877H30.0072Z" fill="url(#paint1_radial_353_1335)"/>
<path d="M29.9969 11.6831C25.4384 11.6831 24.8664 11.703 23.076 11.7845C21.2891 11.8663 20.0695 12.1492 19.0022 12.5643C17.8983 12.993 16.9618 13.5665 16.0289 14.4998C15.0953 15.4327 14.5218 16.3692 14.0917 17.4728C13.6756 18.5403 13.3923 19.7604 13.3119 21.5465C13.2322 23.3369 13.2112 23.9093 13.2112 28.4677C13.2112 33.0262 13.2315 33.5965 13.3126 35.3869C13.3948 37.1737 13.6777 38.3934 14.0924 39.4606C14.5214 40.5646 15.0949 41.501 16.0282 42.434C16.9608 43.3676 17.8972 43.9425 19.0005 44.3712C20.0684 44.7863 21.2884 45.0691 23.075 45.151C24.8653 45.2324 25.437 45.2524 29.9951 45.2524C34.5539 45.2524 35.1242 45.2324 36.9146 45.151C38.7015 45.0691 39.9225 44.7863 40.9905 44.3712C42.094 43.9425 43.0291 43.3676 43.9617 42.434C44.8953 41.501 45.4688 40.5646 45.8989 39.461C46.3115 38.3934 46.5948 37.1734 46.6787 35.3872C46.7591 33.5968 46.7801 33.0262 46.7801 28.4677C46.7801 23.9093 46.7591 23.3372 46.6787 21.5469C46.5948 19.76 46.3115 18.5403 45.8989 17.4731C45.4688 16.3692 44.8953 15.4327 43.9617 14.4998C43.028 13.5661 42.0944 12.9927 40.9894 12.5643C39.9194 12.1492 38.699 11.8663 36.9121 11.7845C35.1218 11.703 34.5518 11.6831 29.992 11.6831H29.9969ZM28.4911 14.7078C28.938 14.7071 29.4367 14.7078 29.9969 14.7078C34.4784 14.7078 35.0095 14.7239 36.7793 14.8043C38.4158 14.8792 39.3039 15.1526 39.8956 15.3824C40.6789 15.6866 41.2373 16.0503 41.8244 16.6377C42.4119 17.2252 42.7756 17.7847 43.0805 18.568C43.3102 19.1589 43.584 20.0471 43.6585 21.6836C43.7389 23.453 43.7564 23.9845 43.7564 28.4639C43.7564 32.9433 43.7389 33.4748 43.6585 35.2442C43.5837 36.8807 43.3102 37.7689 43.0805 38.3598C42.7763 39.1431 42.4119 39.7009 41.8244 40.288C41.237 40.8754 40.6792 41.2391 39.8956 41.5433C39.3046 41.7741 38.4158 42.0469 36.7793 42.1217C35.0099 42.2021 34.4784 42.2196 29.9969 42.2196C25.515 42.2196 24.9839 42.2021 23.2145 42.1217C21.578 42.0462 20.6898 41.7727 20.0978 41.543C19.3145 41.2388 18.755 40.8751 18.1675 40.2876C17.5801 39.7002 17.2164 39.1421 16.9115 38.3584C16.6818 37.7675 16.408 36.8793 16.3335 35.2428C16.253 33.4734 16.237 32.9419 16.237 28.4597C16.237 23.9775 16.253 23.4488 16.3335 21.6794C16.4083 20.0429 16.6818 19.1547 16.9115 18.5631C17.2157 17.7798 17.5801 17.2203 18.1675 16.6328C18.755 16.0454 19.3145 15.6817 20.0978 15.3768C20.6894 15.146 21.578 14.8732 23.2145 14.7981C24.7629 14.7281 25.3629 14.7071 28.4911 14.7036V14.7078ZM38.9564 17.4948C38.558 17.4948 38.1685 17.6129 37.8373 17.8343C37.506 18.0556 37.2479 18.3702 37.0955 18.7383C36.943 19.1064 36.9032 19.5114 36.981 19.9021C37.0587 20.2929 37.2506 20.6518 37.5324 20.9334C37.8141 21.2151 38.1731 21.4068 38.5639 21.4845C38.9546 21.5621 39.3596 21.5221 39.7276 21.3696C40.0957 21.217 40.4102 20.9588 40.6314 20.6274C40.8526 20.2961 40.9707 19.9066 40.9705 19.5082C40.9705 18.3963 40.0683 17.4941 38.9564 17.4941V17.4948ZM29.9969 19.8481C25.2367 19.8481 21.3773 23.7076 21.3773 28.4677C21.3773 33.2279 25.2367 37.0856 29.9969 37.0856C34.7571 37.0856 38.6154 33.2279 38.6154 28.4677C38.6154 23.7076 34.7571 19.8481 29.9969 19.8481ZM29.9969 22.8729C33.0866 22.8729 35.5917 25.3776 35.5917 28.4677C35.5917 31.5575 33.0866 34.0626 29.9969 34.0626C26.9067 34.0626 24.402 31.5575 24.402 28.4677C24.402 25.3776 26.9067 22.8729 29.9969 22.8729Z" fill="white"/>
<defs>
<radialGradient id="paint0_radial_353_1335" cx="0" cy="0" r="1" gradientUnits="userSpaceOnUse" gradientTransform="translate(19.3436 54.6943) rotate(-90) scale(45.0488 41.9104)">
<stop stop-color="#FFDD55"/>
<stop offset="0.1" stop-color="#FFDD55"/>
<stop offset="0.5" stop-color="#FF543E"/>
<stop offset="1" stop-color="#C837AB"/>
</radialGradient>
<radialGradient id="paint1_radial_353_1335" cx="0" cy="0" r="1" gradientUnits="userSpaceOnUse" gradientTransform="translate(-0.349595 9.01324) rotate(78.6776) scale(20.1372 83.0274)">
<stop stop-color="#3771C8"/>
<stop offset="0.128" stop-color="#3771C8"/>
<stop offset="1" stop-color="#6600FF" stop-opacity="0"/>
</radialGradient>
</defs>
</svg>
