<svg width="143" height="146" viewBox="0 0 143 146" fill="none" xmlns="http://www.w3.org/2000/svg">
<path d="M88.213 0C126.807 0 143 21.7344 143 65.6939C143.012 76.133 141.214 86.4726 137.708 96.1223C134.203 105.772 129.059 114.543 122.57 121.934C116.081 129.325 108.374 135.191 99.8889 139.199C91.4041 143.206 82.3077 145.275 73.119 145.289C34.525 145.289 0 109.652 0 65.6939C0 21.7355 49.619 0 88.213 0Z" fill="#FF9356"/>
<path d="M72.3 36.3222C70.1587 36.3191 68.0379 36.7959 66.059 37.7254C64.0801 38.6549 62.2822 40.0189 60.768 41.7391C59.2539 43.4592 58.0533 45.5019 57.2351 47.7501C56.417 49.9982 55.9972 52.4076 56 54.8403C56.0507 58.2815 56.877 61.6504 58.4 64.6254L69.025 85.5145C69.3638 86.1531 69.8452 86.6785 70.4203 87.0377C70.9954 87.3968 71.6439 87.5768 72.3 87.5595C72.9547 87.5681 73.6003 87.3843 74.1741 87.026C74.7479 86.6677 75.2304 86.1471 75.575 85.5145L86.198 64.6379C87.733 61.6682 88.5601 58.2953 88.598 54.8517C88.6009 52.4186 88.1814 50.0087 87.3635 47.76C86.5457 45.5113 85.3454 43.468 83.8316 41.7469C82.3178 40.0258 80.5201 38.6607 78.5413 37.7299C76.5626 36.7991 74.4417 36.3207 72.3 36.3222ZM72.3 60.3094C71.1232 60.3094 69.9728 59.913 68.9944 59.1702C68.0159 58.4275 67.2533 57.3717 66.8029 56.1366C66.3526 54.9014 66.2348 53.5423 66.4643 52.231C66.6939 50.9198 67.2606 49.7153 68.0927 48.7699C68.9248 47.8246 69.985 47.1808 71.1392 46.92C72.2934 46.6591 73.4898 46.793 74.577 47.3046C75.6642 47.8162 76.5935 48.6827 77.2473 49.7943C77.9011 50.9059 78.25 52.2128 78.25 53.5498C78.2463 55.3412 77.6183 57.0582 76.5032 58.3249C75.3882 59.5917 73.8769 60.3052 72.3 60.3094Z" fill="#080403"/>
</svg>
