<svg width="60" height="60" viewBox="0 0 60 60" fill="none" xmlns="http://www.w3.org/2000/svg">
<path d="M42.5 52.5H17.5C11.9863 52.5 7.5 48.0137 7.5 42.5V17.5C7.5 11.9863 11.9863 7.5 17.5 7.5H42.5C48.0137 7.5 52.5 11.9863 52.5 17.5V42.5C52.5 48.0137 48.0137 52.5 42.5 52.5Z" fill="#1E88E5"/>
<path d="M44.9075 21.86L36.7675 30L44.9062 38.1388C44.9612 37.9338 45 37.7225 45 37.5V22.5C45 22.2775 44.9612 22.0663 44.9075 21.86ZM33.36 29.8738L43.14 20.0925C42.9338 20.0387 42.7225 20 42.5 20H17.5C17.2775 20 17.0662 20.0387 16.86 20.0925L26.64 29.8738C28.4938 31.725 31.5063 31.725 33.36 29.8738ZM30 33.7613C28.2 33.7613 26.4088 33.0837 25.0125 31.755L16.86 39.9075C17.0662 39.9613 17.2775 40 17.5 40H42.5C42.7225 40 42.9338 39.9613 43.14 39.9075L34.9875 31.755C33.5912 33.0837 31.8 33.7613 30 33.7613ZM15.0925 21.86C15.0388 22.0663 15 22.2775 15 22.5V37.5C15 37.7225 15.0388 37.9337 15.0925 38.14L23.2325 30L15.0925 21.86Z" fill="white"/>
</svg>
