<?xml version="1.0" encoding="utf-8"?>
<!-- Generator: Adobe Illustrator 19.2.1, SVG Export Plug-In . SVG Version: 6.00 Build 0)  -->
<svg version="1.1" id="layer" xmlns="http://www.w3.org/2000/svg" xmlns:xlink="http://www.w3.org/1999/xlink" x="0px" y="0px"
	 viewBox="0 0 652 652" style="enable-background:new 0 0 652 652;" xml:space="preserve">
<style type="text/css">
	.st0{fill:#D61F26;}
	.st1{fill:#184A93;}
</style>
<polygon class="st0" points="47.5,266.7 42.5,284.7 42.4,284.7 37.3,266.7 20.1,266.7 20.1,297.7 31.2,297.7 31.2,275.5 31.3,275.5 
	37.8,297.7 47.1,297.7 53.6,275.5 53.7,275.5 53.7,297.7 64.8,297.7 64.8,266.7 "/>
<path class="st0" d="M79.5,266.7h15l13.2,31h-13l-1.3-3.6H80.6l-1.3,3.6h-13L79.5,266.7z M87,276L87,276l-3.7,10.5h7.4L87,276z"/>
<g>
	<path class="st0" d="M149.9,266.7h12.2v18.8c0,4,2.3,5.3,6.3,5.3c4,0,6.3-1.3,6.3-5.3v-18.8h12.2v19.2c0,9.9-5.9,12.9-18.5,12.9
		c-12.6,0-18.5-3-18.5-12.9V266.7z"/>
</g>
<polygon class="st0" points="200.7,274.5 189.4,274.5 189.4,266.7 224.2,266.7 224.2,274.5 212.9,274.5 212.9,297.7 200.7,297.7 "/>
<rect x="226.8" y="266.7" class="st0" width="12.2" height="31"/>
<g>
	<path class="st0" d="M149.2,297.7l-10.4-9.7c8.6-1.4,7.5-9.8,7.5-12.7c0-3.4-1.9-6.4-4.2-7.5c-1.7-0.8-3.8-1.1-7.3-1.1h-25.8v31
		h12.2v-9.6h2.1l10.2,9.6H149.2z M121.2,274.5h8.5c2,0,3.6,0.6,3.6,2.9c0,2-1,2.9-3.4,2.9h-8.7V274.5z"/>
	<path class="st1" d="M284,297.9v-8.7c0-6.8,2.2-10.3,4.9-13.1l9.7-9.7l15.7-15.7v10.5c0,6.2-2.2,9.2-4.9,11.9l-7.3,7.3l-2.2,2.3
		c-0.7,0.7-1.2,1.5-1.2,3v1.7l15.7-15.7v10.5c0,6.2-2.2,9.2-4.9,11.9l-2.1,2.1l-2.3,2.3c-0.7,0.7-1.2,1.5-1.2,3v1.7l10.5-10.5v10.5
		c0,8.1-4.7,10.5-10.5,10.5H284V297.9z"/>
	<path class="st1" d="M281.6,297.9v-8.7c0-6.8-2.2-10.3-4.9-13.1l-9.7-9.7l-15.7-15.7v10.5c0,6.2,2.2,9.2,4.9,11.9l7.3,7.3l2.3,2.3
		c0.7,0.7,1.2,1.5,1.2,3v1.7l-15.7-15.7v10.5c0,6.2,2.2,9.2,4.9,11.9l2,2.1l2.3,2.3c0.7,0.7,1.2,1.5,1.2,3v1.7l-10.5-10.5v10.5
		c0,8.1,4.7,10.5,10.5,10.5h19.8V297.9z"/>
	<path class="st0" d="M357.7,250.7c-9.2,8.2-19.7,14.3-30.9,19.2l39.9,28.7l-2.3,1.1l-16.5-11c-5.4-3.6-18.7-1.1-21.4,3.5l30.7,21.6
		c8.5-8.2,18.9-14.7,31-19.6l-40.4-28.2l2.1-1.7l13.1,9.4c6.5,4.7,11.7,5.9,25.8-1L357.7,250.7z"/>
	<path class="st1" d="M410,284.5c-6-0.9-8.5-4.4-8.5-8.7c0-8,7.8-10.2,17.9-10.2c13.8,0,19.5,3.6,19.9,10.2h-14.2
		c0-1.3-0.7-2-1.9-2.5c-1.1-0.5-2.5-0.7-3.8-0.7c-3.6,0-4.9,0.9-4.9,2.2c0,0.9,0.4,1.4,1.6,1.6l14.6,2.2c6.2,0.9,10,3.8,10,9
		c0,7.6-6.2,11.1-19.9,11.1c-9.4,0-19.7-1.3-19.7-10.4h14.7c0,1,0.4,1.7,1.3,2.2c0.9,0.4,2.3,0.7,4.2,0.7c3.8,0,4.9-1,4.9-2.5
		c0-0.9-0.6-1.8-2.2-2.1L410,284.5z"/>
	<path class="st1" d="M444.2,266.7h12.2v18.8c0,4,2.3,5.3,6.3,5.3c4,0,6.3-1.3,6.3-5.3v-18.8h12.2v19.2c0,9.9-5.9,12.9-18.5,12.9
		c-12.6,0-18.5-3-18.5-12.9V266.7z"/>
</g>
<polygon class="st1" points="484.5,291.1 503.1,274.5 485.8,274.5 485.8,266.7 519.5,266.7 519.5,273.4 501.4,289.9 519.1,289.9 
	519.1,297.7 484.5,297.7 "/>
<g>
	<path class="st1" d="M522.8,266.7h12.2v18.8c0,4,2.3,5.3,6.3,5.3c4,0,6.3-1.3,6.3-5.3v-18.8h12.2v19.2c0,9.9-5.9,12.9-18.5,12.9
		c-12.6,0-18.5-3-18.5-12.9V266.7z"/>
</g>
<rect x="607.9" y="266.7" class="st1" width="12.2" height="31"/>
<polygon class="st1" points="565.2,297.7 577.1,297.7 576.9,286.6 588.8,297.7 604.4,297.7 587.4,281.8 605.3,266.7 590.4,266.7 
	577.1,277.4 577.1,266.7 565.2,266.7 "/>
<g>
	<path d="M247.3,351.4l-4.6,39.3H230c-1.2-6-2.2-12.9-3.1-20.6c-0.4,3.3-1.4,10.2-2.9,20.6h-12.7l-4.6-39.3h9.9l1.1,13.7l1,13.3
		c0.4-6.9,1.3-15.8,2.8-27h10.6c0.1,1.1,0.5,5.5,1.1,13l1.1,15c0.6-9.5,1.5-18.8,2.9-27.9H247.3z"/>
	<path d="M260.9,375.4c-1.6,1.1-2.5,2.1-2.7,2.9c-0.3,0.8-0.4,1.9-0.4,3.3c0,1.7,0.1,2.7,0.3,3.2c0.2,0.5,0.6,0.7,1.3,0.7
		c0.6,0,1-0.2,1.2-0.6c0.2-0.4,0.3-1.4,0.3-3V375.4z M257.8,371h-9.2v-2.2c0-2.5,0.3-4.4,0.9-5.8c0.6-1.3,1.7-2.5,3.5-3.6
		c1.7-1,4-1.6,6.7-1.6c3.3,0,5.8,0.6,7.5,1.8c1.7,1.2,2.7,2.6,3,4.3c0.3,1.7,0.5,5.2,0.5,10.5v16.2h-9.5v-2.9
		c-0.6,1.1-1.4,2-2.3,2.6c-0.9,0.6-2.1,0.9-3.4,0.9c-1.7,0-3.3-0.5-4.7-1.4c-1.4-1-2.1-3.1-2.1-6.3v-2.6c0-2.4,0.4-4.1,1.1-4.9
		c0.8-0.9,2.6-1.9,5.7-3.1c3.2-1.3,4.9-2.1,5.2-2.5c0.2-0.4,0.3-1.3,0.3-2.7c0-1.7-0.1-2.8-0.4-3.3c-0.2-0.5-0.7-0.8-1.2-0.8
		c-0.7,0-1.1,0.2-1.2,0.6c-0.2,0.4-0.2,1.5-0.2,3.3V371z"/>
	<path d="M294.6,358.5l-2.8,23.3c-0.4,3.7-0.8,6.2-1.1,7.5c-0.3,1.3-0.8,2.5-1.5,3.3c-0.7,0.9-1.7,1.5-2.9,1.9
		c-1.2,0.4-3.2,0.6-5.9,0.6h-5.9v-5.1c1.5,0,2.5-0.1,2.9-0.2c0.4-0.2,0.7-0.5,0.7-1c0-0.3-0.2-1.4-0.6-3.4l-5.4-26.9h8.9l3.2,21.8
		l1.6-21.8H294.6z"/>
	<path d="M317.5,367.4c0-1.6-0.1-2.7-0.3-3.1c-0.2-0.4-0.6-0.6-1.1-0.6c-0.6,0-1,0.2-1.2,0.6c-0.2,0.4-0.3,1.5-0.3,3.1v14.5
		c0,1.5,0.1,2.5,0.3,3c0.2,0.5,0.6,0.7,1.1,0.7c0.6,0,1-0.2,1.2-0.6c0.2-0.4,0.3-1.3,0.3-2.7V367.4z M327.3,369.8v7.9
		c0,2.9-0.1,5-0.4,6.4c-0.3,1.3-0.9,2.6-1.9,3.8c-1,1.2-2.2,2-3.7,2.6c-1.5,0.6-3.2,0.8-5.2,0.8c-2.2,0-4-0.2-5.5-0.7
		c-1.5-0.5-2.7-1.2-3.5-2.2c-0.8-1-1.4-2.1-1.8-3.5c-0.4-1.4-0.5-3.4-0.5-6.2v-8.3c0-3,0.3-5.3,1-7c0.6-1.7,1.8-3,3.5-4.1
		c1.7-1,3.8-1.5,6.5-1.5c2.2,0,4.1,0.3,5.7,1c1.6,0.7,2.8,1.5,3.7,2.6c0.9,1,1.4,2.1,1.8,3.3C327.1,365.8,327.3,367.5,327.3,369.8"
		/>
	<path d="M343,351.4v5c-2,0-3.2,0.1-3.6,0.3c-0.4,0.2-0.5,0.7-0.5,1.6v1h4.1v5.1h-2.3v26.3h-9.8v-26.3h-2v-5.1h2
		c0-2.1,0.1-3.5,0.2-4.2c0.1-0.7,0.5-1.3,1.1-1.9c0.6-0.6,1.4-1,2.4-1.3c1-0.3,2.6-0.4,4.8-0.4H343z"/>
</g>
<polygon points="364.2,351.4 364.2,382.8 370.4,382.8 370.4,390.7 354,390.7 354,351.4 "/>
<path d="M382.7,390.7h-10.1v-32.2h10.1V390.7z M382.7,356.5h-10.1v-5.1h10.1V356.5z"/>
<g>
	<path d="M398.7,351.4v5c-2,0-3.2,0.1-3.6,0.3c-0.4,0.2-0.5,0.7-0.5,1.6v1h4.1v5.1h-2.3v26.3h-9.8v-26.3h-2v-5.1h2
		c0-2.1,0.1-3.5,0.2-4.2c0.1-0.7,0.5-1.3,1.1-1.9c0.6-0.6,1.4-1,2.4-1.3c1-0.3,2.6-0.4,4.8-0.4H398.7z"/>
	<path d="M412.9,369.9v-2.4c0-1.7-0.1-2.7-0.3-3.2c-0.2-0.5-0.5-0.7-1.1-0.7c-0.7,0-1.1,0.2-1.3,0.6c-0.2,0.4-0.2,1.5-0.2,3.3v2.4
		H412.9z M422.8,375.2h-12.7v7c0,1.5,0.1,2.4,0.3,2.8c0.2,0.4,0.6,0.6,1.2,0.6c0.7,0,1.2-0.3,1.5-0.8c0.2-0.6,0.4-1.6,0.4-3.2v-4.2
		h9.3v2.4c0,2-0.1,3.5-0.4,4.6c-0.3,1.1-0.8,2.2-1.8,3.4c-0.9,1.2-2.1,2.1-3.5,2.7c-1.4,0.6-3.2,0.9-5.3,0.9c-2.1,0-3.9-0.3-5.5-0.9
		c-1.6-0.6-2.8-1.4-3.7-2.5c-0.9-1-1.5-2.2-1.8-3.4c-0.3-1.3-0.5-3.1-0.5-5.5v-9.4c0-2.8,0.4-5,1.1-6.7c0.8-1.6,2-2.9,3.7-3.7
		c1.7-0.9,3.7-1.3,6-1.3c2.7,0,5,0.5,6.8,1.6c1.8,1,3,2.4,3.8,4.1c0.7,1.7,1.1,4.1,1.1,7.3V375.2z"/>
</g>
<path d="M435.8,390.7h-9.2v-7.9h9.2V390.7z M436.6,351.4L435,381h-7.6l-1.6-29.6H436.6z"/>
</svg>
