<svg xmlns="http://www.w3.org/2000/svg" width="135.178" height="29.817" viewBox="0 0 135.178 29.817">
  <g id="new-youtube-logo" transform="translate(0)">
    <path id="Path_136" data-name="Path 136" d="M22.487,29.8l-8.843-.162A46.142,46.142,0,0,1,5.1,29.11C.832,28.238.53,23.96.213,20.372A61.3,61.3,0,0,1,.769,5.19,5.191,5.191,0,0,1,5.891.526,282.743,282.743,0,0,1,34.574.251,20.687,20.687,0,0,1,37.585.61c4.9.858,5.016,5.706,5.333,9.786A55.475,55.475,0,0,1,42.5,22.757c-.485,3.391-1.414,6.233-5.333,6.508-4.911.359-9.709.647-14.633.556C22.529,29.8,22.5,29.8,22.487,29.8Zm-5.2-8.583c3.7-2.125,7.331-4.214,11.01-6.325-3.708-2.125-7.331-4.214-11.01-6.325Z" transform="translate(0.02 -0.021)" fill="red"/>
    <g id="Group_87" data-name="Group 87" transform="translate(47.426 1.033)">
      <path id="Path_137" data-name="Path 137" d="M740.773,39.591c-.169.689-.317,1.231-.464,1.808h-3.461V14.7h4.038v9.849c.211-.267.317-.38.408-.5a4.385,4.385,0,0,1,2.737-1.808,3.234,3.234,0,0,1,3.961,2.216,12.106,12.106,0,0,1,.619,3.419c.056,2.948.014,5.889-.092,8.836a8.246,8.246,0,0,1-.661,2.666,3.85,3.85,0,0,1-6.669.795C741.076,40.027,740.971,39.865,740.773,39.591Zm.2-7.345v4.882a1.55,1.55,0,0,0,2.948.619,2.548,2.548,0,0,0,.274-.936c.077-2.983.148-5.966.169-8.956a5.752,5.752,0,0,0-.3-1.674,1.258,1.258,0,0,0-2.047-.7,2.181,2.181,0,0,0-1.041,1.878ZM730,22.622h4.228V41.413h-3.3c-.12-.711-.239-1.442-.38-2.3-.225.331-.359.542-.5.753a4.274,4.274,0,0,1-4.488,1.836c-1.569-.253-2.512-1.463-2.723-3.447a16.747,16.747,0,0,1-.091-1.78c-.014-4.4,0-8.808,0-13.205v-.661h4.277v.767c0,4.249-.014,8.492.014,12.741a10.811,10.811,0,0,0,.169,1.836.976.976,0,0,0,1.175.8,1.727,1.727,0,0,0,1.653-1.773V23.452A6.34,6.34,0,0,1,730,22.622Zm-29.112-.014h4.249V23.4c0,4.228-.014,8.449.014,12.664a8.8,8.8,0,0,0,.183,1.822.981.981,0,0,0,1.266.83,1.7,1.7,0,0,0,1.555-1.78v-14.3h4.228V41.413h-3.286c-.12-.7-.239-1.414-.394-2.322-.211.317-.331.5-.45.689a4.29,4.29,0,0,1-4.517,1.914c-1.506-.225-2.427-1.337-2.709-3.159a12.625,12.625,0,0,1-.134-1.7c-.014-4.566-.014-9.153-.014-13.719ZM698.7,32.64c-.014.633-.056,1.266-.091,1.9-.162,1.9-.239,4.594-1.773,5.98a5.35,5.35,0,0,1-3.5,1.231,10.779,10.779,0,0,1-1.717-.063c-2.695-.408-3.947-1.6-4.4-4.559a31.712,31.712,0,0,1,.056-10.314c.633-3.539,2.814-4.791,6.205-4.559,3.166.225,4.58,2.3,4.953,5.255A35.631,35.631,0,0,1,698.7,32.64Zm-4.306-.647c0-1.2.028-2.413-.014-3.616a12.407,12.407,0,0,0-.267-2.089,1.283,1.283,0,0,0-1.309-1.161,1.356,1.356,0,0,0-1.28,1.133,3.153,3.153,0,0,0-.162.83c0,1.885-.014,3.778-.028,5.663a16.391,16.391,0,0,0,.317,5.284,1.153,1.153,0,0,0,1.175.795,1.136,1.136,0,0,0,1.126-.767,3.162,3.162,0,0,0,.3-1.2C694.305,35.243,694.4,33.618,694.4,31.993Zm-13.374-3.539c.373-1.822.725-3.6,1.112-5.389.485-2.272,1.027-4.545,1.506-6.824.12-.556.345-.689.872-.675,1.133.042,2.286.014,3.5.014-.394,1.449-.781,2.828-1.161,4.186q-1.8,6.4-3.6,12.818a3.951,3.951,0,0,0-.134,1.041c-.014,2.336,0,4.664,0,7v.76h-4.13c-.014-.211-.042-.422-.042-.633,0-1.323-.106-2.652.014-3.961.3-3.145-.7-6.036-1.506-8.963-1.069-3.869-2.153-7.753-3.222-11.622-.056-.183-.077-.38-.134-.605h4.214c.886,4.27,1.78,8.541,2.709,12.853Zm80.8,4.9H754.7c.077,1.428.106,2.786.253,4.13a1.322,1.322,0,0,0,1.428,1.344,1.425,1.425,0,0,0,1.534-1.337,7.947,7.947,0,0,0,.134-.915c.028-.274.042-.57.063-.964,1.2.063,2.378.134,3.539.183a4.542,4.542,0,0,1-2.589,5.375,7.4,7.4,0,0,1-4.911.148A3.613,3.613,0,0,1,751.622,39a13.634,13.634,0,0,1-.816-3.433,38.457,38.457,0,0,1,.148-8.625,9.721,9.721,0,0,1,.359-1.4,4.293,4.293,0,0,1,3.869-3.285,12.424,12.424,0,0,1,3.271.12,3.8,3.8,0,0,1,3.053,3.18,12,12,0,0,1,.345,2.336C761.858,29.685,761.823,31.465,761.823,33.358Zm-4.045-2.469c0-1.414.014-2.744-.014-4.08a2.7,2.7,0,0,0-.239-.95,1.265,1.265,0,0,0-1.337-.753,1.07,1.07,0,0,0-1.126.844,17.691,17.691,0,0,0-.289,4.953C755.85,30.888,756.828,30.888,757.778,30.888Z" transform="translate(-674.1 -14.7)" fill="#282828"/>
      <path id="Path_138" data-name="Path 138" d="M1209.286,31.391H1205.1V28h12.495v3.37h-4.158V53.749h-4.144Z" transform="translate(-1167.743 -27.064)" fill="#282828"/>
    </g>
  </g>
</svg>
