<svg width="1286" height="2570" viewBox="0 0 1286 2570" fill="none" xmlns="http://www.w3.org/2000/svg">
<path d="M686.842 193.488C688.273 160.565 690.705 150.235 701.5 119.5C704.498 110.963 710 98.4999 725 82C748 59.9999 760.155 52.8602 771 48.5C858.8 13.1989 943.641 -5.24442 1036.5 4.5C1095 7 1142.5 22.5 1192 47.5C1216.07 59.6589 1222 67.9999 1244.55 94.911C1259.1 120.411 1273.78 146.703 1280.32 175.605C1293.35 233.249 1275.12 289.344 1233.37 330.959C1212.42 351.847 1186.58 365.37 1160.5 378.571C1136.34 390.801 1111.96 403.07 1086.29 411.877C1023.62 433.379 956.854 438.031 893.608 457.03C855.08 468.604 835 480.5 798 505.5C786.791 514.233 771.302 528.254 761.278 538.395C747.71 552.121 735.689 566.763 724.172 582.207C708.107 603.748 693.424 628.963 680 652C664.417 678.742 651.38 708.146 644.595 738.679" stroke="#FF9356" stroke-width="3" stroke-linecap="round" stroke-dasharray="6 6"/>
<path d="M568.148 782.938C568.148 814.85 557.504 837.736 539.983 864.526C512.091 907.175 408.293 962.701 359 981.5C350.611 984.7 257.5 1005.5 222 1002.5C188 1002.5 168.5 963.103 205 932.703C234 917 293.501 903.5 364.001 917C419.501 917 504.577 958.451 532.383 973.609C567.486 992.744 602.818 1009.66 641.019 1021.44C672.447 1031.14 704.293 1040.75 737.361 1042.23C753.481 1042.96 818.808 1041.7 815.501 1021.44C810.339 989.828 734.339 980.987 706.513 993.056C667.531 1009.96 628.763 1053.05 624.813 1096.1C621.976 1127.03 622.248 1158.74 630.736 1188.76C637.139 1211.39 640.117 1209.66 646.501 1232" stroke="#FF9356" stroke-width="3" stroke-linecap="round" stroke-dasharray="6 6"/>
<path d="M654.993 1296.04C644.309 1325.42 626.488 1351.6 613.307 1379.85C601.849 1404.4 593.059 1429.9 579.782 1453.63C559.219 1490.37 536.964 1525.56 499.94 1547.47C487.382 1554.91 466.498 1562.55 459.798 1544.28C446.988 1509.34 488.779 1501.23 512.953 1502.92C542.504 1504.99 567.358 1519.61 595.442 1527.4C623.992 1535.32 660.858 1546.98 691 1542.12C718.701 1537.66 942 1523 939 1470C936 1417 758 1480.5 742.5 1486.5C711.952 1498.32 677.5 1522.5 661 1542.12C634.431 1595.26 655.288 1633.7 617.718 1680.91C606.256 1695.32 592.749 1708.29 581.657 1722.71C576.099 1729.93 568.789 1735.01 563.681 1742.67" stroke="#FF9356" stroke-width="3" stroke-linecap="round" stroke-dasharray="6 6"/>
<path d="M565.667 1816.11C565.667 1862.08 534.67 1900.71 506.888 1935.44C481.99 1966.56 446.34 1991.81 412.82 2012.85C362.5 2032 324.155 2035.42 275 2044C246.447 2048.98 217.5 2050.56 184 2058.18C143 2067.5 117.372 2083.35 90.3625 2107.25C64.4443 2130.19 35.5 2154.5 21.0005 2198C9.00084 2234 5.70274 2277.89 2.50011 2315C-0.203166 2346.32 13.5075 2390.05 21.0001 2421C31.357 2463.78 62.7395 2490.67 95.656 2519.7C128.65 2548.79 170.826 2566.56 213 2567.5C247.055 2568.26 300.909 2560.84 334.5 2555.87C391.085 2547.49 441.5 2534.39 494.647 2508.01C541 2485 582.5 2420.5 582.5 2420.5C594.932 2400.74 627.5 2339.5 638 2318" stroke="#FF9356" stroke-width="3" stroke-linecap="round" stroke-dasharray="6 6"/>
</svg>
