<svg width="112" height="58" viewBox="0 0 112 58" fill="none" xmlns="http://www.w3.org/2000/svg">
<g clip-path="url(#clip0_769_2079)">
<path d="M36.6074 28.5002C36.6074 31.3233 34.3233 33.6074 31.5002 33.6074C28.6771 33.6074 26.3931 31.3233 26.3931 28.5002C26.3931 25.6771 28.6771 23.3931 31.5002 23.3931C34.3233 23.3931 36.6074 25.6771 36.6074 28.5002Z" fill="#F4F4F4"/>
<path d="M31.5 34C28.4679 34 26 31.5329 26 28.5C26 25.4671 28.4679 23 31.5 23C34.5321 23 37 25.4671 37 28.5C37 31.5329 34.5321 34 31.5 34ZM31.5 23.7857C28.9001 23.7857 26.7857 25.9001 26.7857 28.5C26.7857 31.0999 28.9001 33.2143 31.5 33.2143C34.0999 33.2143 36.2143 31.0999 36.2143 28.5C36.2143 25.9001 34.0999 23.7857 31.5 23.7857Z" fill="#DDDDDD"/>
<path d="M19.5791 57.2032C18.2103 57.2032 16.9639 56.8896 15.8735 56.272C14.0495 55.2376 12.7887 53.4552 12.1247 50.976C11.3527 48.0904 11.4447 44.2576 12.3903 39.8736C4.7647 37.2504 0.399902 33.2256 0.399902 28.8008C0.399902 24.3752 4.7639 20.3512 12.3895 17.7288C11.4439 13.344 11.3511 9.51124 12.1231 6.62564C12.7871 4.14564 14.0479 2.36324 15.8711 1.32964C16.9607 0.712037 18.2079 0.398438 19.5767 0.398438C23.0871 0.398438 27.4895 2.58244 32.0015 6.55684C36.5135 2.58644 40.9143 0.404037 44.4207 0.404037C45.7895 0.404037 47.0359 0.717638 48.1263 1.33524C49.9479 2.36804 51.2095 4.14724 51.8735 6.62404C52.6463 9.50884 52.5535 13.3424 51.6071 17.728C59.2343 20.3504 63.5999 24.3752 63.5999 28.8008C63.5999 33.2264 59.2343 37.2512 51.6071 39.8744C52.5527 44.2592 52.6455 48.092 51.8727 50.9768C51.2087 53.4544 49.9487 55.2336 48.1287 56.2664C47.0375 56.884 45.7903 57.1976 44.4223 57.1976C40.9135 57.1976 36.5111 55.0152 32.0007 51.0464C27.4887 55.02 23.0871 57.2032 19.5791 57.2032ZM15.4695 40.8056C14.6767 44.5792 14.5879 47.8032 15.2167 50.1488C15.6503 51.7696 16.4015 52.8936 17.4519 53.4888C18.0543 53.8304 18.7703 54.004 19.5791 54.004C22.2943 54.004 25.8687 52.1784 29.6759 48.8544C27.7679 46.9328 25.9055 44.7576 24.1335 42.3816C21.0687 42.0488 18.1567 41.5192 15.4695 40.8056ZM34.3247 48.8528C38.1311 52.1736 41.7063 53.9976 44.4215 53.9984C45.2303 53.9984 45.9463 53.8248 46.5503 53.4832C47.5975 52.8896 48.3471 51.768 48.7799 50.1496C49.4087 47.8024 49.3207 44.5792 48.5279 40.8064C45.8383 41.52 42.9255 42.0496 39.8615 42.3824C38.0903 44.7584 36.2303 46.9328 34.3247 48.8528ZM28.4527 42.7152C29.6143 44.136 30.8031 45.4616 31.9999 46.6672C33.1935 45.4624 34.3831 44.1368 35.5439 42.7152C34.3511 42.772 33.1631 42.8008 31.9999 42.8008C30.8359 42.8008 29.6471 42.772 28.4527 42.7152ZM25.8791 39.344C27.8751 39.5144 29.9335 39.6008 31.9999 39.6008C34.0679 39.6008 36.1239 39.5144 38.1167 39.3448C39.3055 37.6776 40.4391 35.9304 41.4879 34.1488C42.5023 32.4248 43.4567 30.6256 44.3255 28.8C43.4591 26.9792 42.5055 25.1808 41.4887 23.4528C40.4423 21.6752 39.3087 19.928 38.1167 18.2568C36.1255 18.0872 34.0695 18.0008 31.9999 18.0008C29.9295 18.0008 27.8727 18.0872 25.8823 18.2576C24.6903 19.9264 23.5551 21.6736 22.5071 23.4536C21.4911 25.1808 20.5375 26.9792 19.6703 28.8024C20.5359 30.6216 21.4895 32.42 22.5063 34.1496C23.5495 35.9216 24.6831 37.668 25.8791 39.344ZM45.9927 32.624C45.4279 33.7008 44.8423 34.7568 44.2447 35.7712C43.6423 36.7968 43.0015 37.8256 42.3359 38.84C44.2351 38.5472 46.0519 38.172 47.7527 37.72C47.2807 36.0808 46.6895 34.3712 45.9927 32.624ZM16.2431 37.7192C17.9447 38.1704 19.7607 38.5464 21.6575 38.8392C20.9879 37.8184 20.3471 36.7888 19.7487 35.7712C19.1527 34.7576 18.5663 33.7032 18.0023 32.6264C17.3087 34.3656 16.7183 36.0736 16.2431 37.7192ZM47.8527 28.8008C49.0751 31.5136 50.0711 34.1952 50.8191 36.7824C56.7407 34.6992 60.3999 31.66 60.3999 28.8008C60.3999 25.9416 56.7407 22.9024 50.8191 20.8192C50.0727 23.4064 49.0759 26.088 47.8527 28.8008ZM13.1775 20.8208C7.2583 22.9032 3.5999 25.9424 3.5999 28.8008C3.5999 31.66 7.2583 34.6992 13.1791 36.7816C13.9263 34.1936 14.9223 31.512 16.1431 28.8024C14.9215 26.092 13.9255 23.4104 13.1775 20.8208ZM16.2423 19.8824C16.7175 21.5256 17.3079 23.2344 18.0023 24.9768C18.5655 23.9032 19.1511 22.848 19.7495 21.8312C20.3511 20.808 20.9919 19.7792 21.6599 18.7624C19.7607 19.0544 17.9447 19.4304 16.2423 19.8824ZM42.3375 18.7616C43.0071 19.7832 43.6479 20.812 44.2463 21.8312C44.8431 22.8448 45.4295 23.9 45.9943 24.9768C46.6895 23.2352 47.2799 21.5264 47.7551 19.8816C46.0511 19.4296 44.2351 19.0536 42.3375 18.7616ZM19.5767 3.59844C18.7679 3.59844 18.0527 3.77124 17.4511 4.11364C16.4015 4.70884 15.6495 5.83284 15.2151 7.45364C14.5871 9.80164 14.6751 13.0248 15.4687 16.7968C18.1567 16.0832 21.0703 15.5528 24.1359 15.22C25.9095 12.8432 27.7719 10.6696 29.6775 8.74964C25.8695 5.42404 22.2927 3.59844 19.5767 3.59844ZM39.8623 15.2192C42.9263 15.552 45.8391 16.0816 48.5287 16.7952C49.3223 13.0224 49.4111 9.79844 48.7815 7.45124C48.3479 5.83364 47.5975 4.71204 46.5495 4.11844C45.9463 3.77684 45.2303 3.60324 44.4207 3.60324C41.7063 3.60324 38.1327 5.42804 34.3255 8.74964C36.2295 10.6688 38.0903 12.8432 39.8623 15.2192ZM31.9999 14.8008C33.1631 14.8008 34.3511 14.8296 35.5447 14.8864C34.3847 13.4672 33.1959 12.1424 32.0015 10.936C30.8039 12.144 29.6159 13.4688 28.4559 14.8864C29.6487 14.8296 30.8367 14.8008 31.9999 14.8008Z" fill="#F4F4F4"/>
<path d="M19.5768 0.79813C23.172 0.79813 27.5736 3.12613 32.0024 7.09173C36.4304 3.12933 40.8296 0.80373 44.4216 0.80373C45.72 0.80373 46.9008 1.09973 47.9304 1.68293C49.6552 2.66053 50.852 4.35733 51.4872 6.72773C52.3488 9.86133 52.168 13.7197 51.14 17.9917C58.5176 20.4565 63.2 24.3453 63.2 28.8005C63.2 33.2557 58.5176 37.1445 51.1392 39.6101C52.212 44.2285 52.392 48.1909 51.4864 50.8733C50.8512 53.2429 49.6552 54.9405 47.932 55.9181C46.9008 56.5021 45.964 56.8005 44.6664 56.8005C44.6656 56.8005 44.3336 56.8005 44.3328 56.8005C40.7392 56.8005 36.4272 54.4725 32 50.5117C27.572 54.4765 23.172 56.8029 19.5784 56.8029C18.28 56.8029 17.0992 56.5069 16.0696 55.9237C14.3432 54.9437 13.1456 53.2445 12.5112 50.8725C11.5592 47.8989 11.7512 43.9901 12.8584 39.6093C5.4816 37.1437 0.8 33.2557 0.8 28.8005C0.8 24.3461 5.4816 20.4573 12.8576 17.9917C12.308 15.5445 11.9568 13.2725 11.9448 11.2005C11.9352 9.56373 12.1584 8.04133 12.5104 6.72853C13.1456 4.35573 14.3424 2.65653 16.0688 1.67733C17.0976 1.09333 18.2784 0.79813 19.5768 0.79813ZM15.1664 17.2917C17.948 16.5277 21.0368 15.9501 24.3528 15.5981C26.2584 13.0301 28.2528 10.7213 30.2616 8.73093C26.364 5.25413 22.5688 3.19733 19.5768 3.19733C18.6976 3.19733 17.9168 3.38773 17.2536 3.76453C16.1072 4.41493 15.292 5.62053 14.8288 7.34933C14.1424 9.91093 14.2984 13.3733 15.1664 17.2917ZM48.8312 17.2909C49.6992 13.3725 49.8552 9.90933 49.1688 7.34773C48.7064 5.62213 47.8912 4.41893 46.7472 3.77013C46.0832 3.39333 45.3 3.20293 44.4216 3.20293C41.432 3.20293 37.6392 5.25733 33.7424 8.73093C35.7504 10.7213 37.7424 13.0301 39.6464 15.5973C42.9608 15.9493 46.0496 16.5269 48.8312 17.2909ZM27.5816 15.3333C29.0232 15.2477 30.4688 15.1733 31.972 15.1733C33.4752 15.1733 34.976 15.2485 36.4176 15.3333C34.9712 13.5101 33.4864 11.8445 32.0008 10.3701C30.5152 11.8445 29.0296 13.5101 27.5816 15.3333ZM32 40.0005C34.2088 40.0005 36.3232 39.9037 38.3344 39.7269C39.5496 38.0333 40.7248 36.2349 41.832 34.3517C42.9144 32.5125 43.8936 30.6509 44.768 28.8005C43.8936 26.9501 42.9144 25.0893 41.8328 23.2509C40.7248 21.3669 39.5504 19.5693 38.3344 17.8757C36.324 17.6973 34.2096 17.6005 32 17.6005C29.7904 17.6005 27.6752 17.6973 25.664 17.8749C24.4472 19.5685 23.2712 21.3669 22.1632 23.2501C21.0816 25.0893 20.1024 26.9509 19.228 28.8013C20.1024 30.6517 21.0808 32.5125 22.1624 34.3509C23.2704 36.2341 24.4456 38.0325 25.6616 39.7261C27.6736 39.9037 29.7896 40.0005 32 40.0005ZM46.0368 25.9309C46.9368 23.7637 47.6816 21.6357 48.2496 19.6005C46.2072 19.0389 43.9512 18.5749 41.5072 18.2349C42.3296 19.4565 43.1304 20.7229 43.9008 22.0333C44.664 23.3285 45.3736 24.6309 46.0368 25.9309ZM17.9592 25.9317C18.6216 24.6317 19.332 23.3293 20.0936 22.0333C20.8648 20.7229 21.6664 19.4573 22.4896 18.2357C20.0456 18.5749 17.7896 19.0397 15.7472 19.6013C16.3152 21.6365 17.06 23.7637 17.9592 25.9317ZM50.5504 37.2981C57.0112 35.1093 60.8 31.8933 60.8 28.8005C60.8 25.7077 57.0112 22.4917 50.5504 20.3029C49.788 23.0269 48.7352 25.8893 47.4144 28.7997C48.7352 31.7109 49.788 34.5733 50.5504 37.2981ZM13.448 37.2973C14.2096 34.5741 15.2616 31.7117 16.5824 28.8021C15.2616 25.8917 14.2088 23.0285 13.4472 20.3045C6.9872 22.4933 3.2 25.7085 3.2 28.8005C3.2 31.8933 6.988 35.1085 13.448 37.2973ZM41.5072 39.3661C43.9512 39.0269 46.2072 38.5629 48.2496 38.0005C47.6808 35.9653 46.936 33.8373 46.0368 31.6693C45.3736 32.9693 44.6632 34.2717 43.9008 35.5677C43.1304 36.8781 42.3296 38.1445 41.5072 39.3661ZM22.4872 39.3653C21.6648 38.1437 20.864 36.8781 20.0928 35.5685C19.3312 34.2733 18.6216 32.9717 17.9592 31.6725C17.06 33.8389 16.316 35.9661 15.748 38.0005C17.7896 38.5613 20.0448 39.0253 22.4872 39.3653ZM19.5792 54.4029C22.5704 54.4029 26.364 52.3469 30.2608 48.8717C28.2504 46.8805 26.2568 44.5709 24.3504 42.0021C21.036 41.6509 17.9488 41.0733 15.168 40.3093C14.3008 44.2277 14.1448 47.6901 14.8304 50.2517C15.2928 51.9797 16.1088 53.1853 17.2544 53.8357C17.9168 54.2125 18.7 54.4029 19.5792 54.4029ZM44.4216 54.3981C45.3008 54.3981 46.0824 54.2077 46.7472 53.8309C47.8912 53.1821 48.7048 51.9789 49.1664 50.2525C49.8528 47.6901 49.6968 44.2277 48.8296 40.3101C46.048 41.0741 42.96 41.6517 39.6448 42.0029C37.7408 44.5709 35.748 46.8797 33.74 48.8709C37.6368 52.3429 41.4304 54.3973 44.4216 54.3981ZM32 47.2325C33.4856 45.7573 34.9704 44.0909 36.4176 42.2677C34.9768 42.3533 33.5704 42.5341 32.0664 42.5341C30.5616 42.5341 29.0208 42.3533 27.5792 42.2677C29.0272 44.0917 30.5136 45.7581 32 47.2325ZM19.2928 0.0581299C17.8536 0.0581299 16.8248 0.32853 15.6744 0.98053C13.7552 2.06933 12.4304 3.93333 11.7376 6.52133C10.9696 9.39093 11.036 13.1629 11.9264 17.4661C4.3352 20.1517 0 24.2605 0 28.8005C0 33.3413 4.336 37.4493 11.9272 40.1349C11.0368 44.4381 10.9704 48.2101 11.7392 51.0797C12.4312 53.6661 13.7552 55.5301 15.676 56.6205C16.828 57.2733 18.212 57.5509 19.6504 57.5509C23.24 57.5509 27.4528 55.5229 32.0008 51.5781C36.548 55.5189 40.832 57.5973 44.4208 57.5981C45.86 57.5981 47.1736 57.2677 48.3256 56.6149C50.2432 55.5277 51.5664 53.6661 52.2584 51.0813C53.0272 48.2109 52.9608 44.4389 52.0704 40.1365C59.6632 37.4501 64 33.3413 64 28.8005C64 24.2597 59.664 20.1509 52.0712 17.4653C52.9624 13.1613 53.028 9.38933 52.2592 6.51973C51.5664 3.93493 50.2424 2.07333 48.324 0.98613C47.1728 0.33413 45.8592 0.00292969 44.4208 0.00292969C40.8328 0.00292969 36.5496 2.08213 32.0016 6.02453C27.4528 2.07893 23.1488 0.0557297 19.5584 0.0557297L19.2928 0.0581299ZM15.776 16.3021C15.4064 14.4429 15.1584 12.7005 15.1448 11.1725C15.1328 9.79653 15.3216 8.59893 15.6008 7.55573C16.0064 6.04213 16.6952 5.00053 17.648 4.45973C18.1888 4.15253 18.848 3.94453 19.5864 3.94453C22.1312 3.94453 25.48 5.68693 29.0928 8.77173C27.316 10.5901 25.5792 12.6269 23.92 14.8397C21.052 15.1597 18.3176 15.6501 15.776 16.3021ZM34.9104 8.77333C38.5224 5.69093 41.8792 4.00293 44.4208 4.00293C45.16 4.00293 45.8104 4.15893 46.352 4.46613C47.3032 5.00533 47.9912 6.04453 48.396 7.55493C49.0952 9.80933 49.0048 12.8061 48.2216 16.3013C45.68 15.6501 42.9464 15.1589 40.0792 14.8405C38.4208 12.6285 36.6856 10.5917 34.9104 8.77333ZM29.3384 14.4485C30.2152 13.4085 31.1056 12.4245 32.0008 11.5061C32.896 12.4245 33.7856 13.4085 34.6616 14.4485C33.7664 14.4165 32.876 14.4005 32 14.4005C31.124 14.4005 30.2344 14.4165 29.3384 14.4485ZM26.1 18.6405C28.024 18.4813 30.0064 18.3677 32 18.3677C33.9928 18.3677 35.9752 18.4813 37.8984 18.6405C39.044 20.2557 40.1352 21.9413 41.1432 23.6557C42.1208 25.3181 43.0416 27.0469 43.8816 28.7997C43.0408 30.5533 42.12 32.2829 41.1424 33.9453C40.1336 35.6605 39.0432 37.3453 37.8976 38.9605C35.9752 39.1197 33.9928 39.3333 32 39.3333C30.0056 39.3333 28.0224 39.1189 26.0976 38.9597C24.9512 37.3453 23.86 35.6597 22.8512 33.9445C21.8736 32.2829 20.9536 30.5541 20.1136 28.8005C20.9536 27.0469 21.8744 25.3173 22.852 23.6549C23.8616 21.9405 24.9536 20.2549 26.1 18.6405ZM45.9376 24.0197C45.4984 23.2053 45.048 22.4053 44.5912 21.6277C44.1352 20.8525 43.6576 20.0741 43.1632 19.3005C44.5824 19.5421 45.9512 19.8309 47.2544 20.1645C46.8808 21.4173 46.44 22.7069 45.9376 24.0197ZM16.7424 20.1645C18.0456 19.8309 19.4144 19.5421 20.8336 19.3005C20.3384 20.0741 19.8608 20.8525 19.4048 21.6269C18.948 22.4045 18.4976 23.2045 18.0584 24.0189C17.556 22.7077 17.116 21.4181 16.7424 20.1645ZM48.292 28.7997C49.424 26.2701 50.3616 23.7661 51.084 21.3389C56.6064 23.3541 60 26.1773 60 28.8005C60 31.4237 56.6064 34.2469 51.084 36.2621C50.3608 33.8341 49.424 31.3293 48.292 28.7997ZM12.9136 36.2613C7.3928 34.2461 4 31.4229 4 28.8005C4 26.1781 7.3928 23.3549 12.9128 21.3397C13.6352 23.7677 14.572 26.2717 15.704 28.8013C14.5728 31.3301 13.636 33.8341 12.9136 36.2613ZM43.1624 38.3013C43.6568 37.5269 44.1352 36.7485 44.5904 35.9741C45.048 35.1965 45.4984 34.3957 45.9376 33.5813C46.44 34.8941 46.88 36.1845 47.2544 37.4381C45.9504 37.7701 44.5816 38.0597 43.1624 38.3013ZM16.7432 37.4365C17.1168 36.1837 17.5568 34.8949 18.0584 33.5837C18.4968 34.3973 18.9472 35.1973 19.404 35.9741C19.8592 36.7485 20.3368 37.5261 20.832 38.3005C19.4136 38.0581 18.0456 37.7693 16.7432 37.4365ZM19.5792 53.6029C18.84 53.6029 18.1904 53.4469 17.6488 53.1397C16.6968 52.5989 16.008 51.5581 15.6032 50.0445C14.9384 47.7685 15.0136 44.7709 15.7776 41.2981C18.3184 41.9493 21.0512 42.4405 23.9176 42.7589C25.5776 44.9717 27.3144 47.0093 29.092 48.8293C25.48 51.9149 22.1224 53.6037 19.5792 53.6029ZM40.0784 42.7605C42.9456 42.4413 45.6792 41.9509 48.2208 41.2997C49.1048 45.0917 49.1744 48.1141 48.3944 50.0453C47.9904 51.5565 47.3032 52.5957 46.3528 53.1341C45.8104 53.4413 45.1608 53.5973 44.4224 53.5973C41.8784 53.5973 38.52 51.9093 34.9088 48.8285C36.6848 47.0101 38.42 44.9733 40.0784 42.7605ZM32 46.0965C31.104 45.1781 30.2128 44.1933 29.336 43.1525C30.232 43.1845 31.1232 43.2005 32 43.2005C32.876 43.2005 33.7664 43.1845 34.6616 43.1525C33.7856 44.1933 32.8952 45.1781 32 46.0965Z" fill="#DDDDDD"/>
<path d="M69.1477 34V22.3636H73.5114C74.4053 22.3636 75.1553 22.5189 75.7614 22.8295C76.3712 23.1402 76.8314 23.5758 77.142 24.1364C77.4564 24.6932 77.6136 25.3428 77.6136 26.0852C77.6136 26.8314 77.4545 27.4792 77.1364 28.0284C76.822 28.5739 76.358 28.9962 75.7443 29.2955C75.1307 29.5909 74.3769 29.7386 73.483 29.7386H70.375V27.9886H73.1989C73.7216 27.9886 74.1496 27.9167 74.483 27.7727C74.8163 27.625 75.0625 27.411 75.2216 27.1307C75.3845 26.8466 75.4659 26.4981 75.4659 26.0852C75.4659 25.6723 75.3845 25.3201 75.2216 25.0284C75.0587 24.733 74.8106 24.5095 74.4773 24.358C74.1439 24.2027 73.714 24.125 73.1875 24.125H71.2557V34H69.1477ZM75.1591 28.7273L78.0398 34H75.6875L72.858 28.7273H75.1591ZM83.2017 34.1705C82.3267 34.1705 81.571 33.9886 80.9347 33.625C80.3021 33.2576 79.8153 32.7386 79.4744 32.0682C79.1335 31.3939 78.9631 30.6004 78.9631 29.6875C78.9631 28.7898 79.1335 28.0019 79.4744 27.3239C79.8191 26.642 80.3002 26.1117 80.9176 25.733C81.535 25.3504 82.2604 25.1591 83.0938 25.1591C83.6316 25.1591 84.1392 25.2462 84.6165 25.4205C85.0975 25.5909 85.5218 25.8561 85.8892 26.2159C86.2604 26.5758 86.5521 27.0341 86.7642 27.5909C86.9763 28.1439 87.0824 28.803 87.0824 29.5682V30.1989H79.929V28.8125H85.1108C85.107 28.4186 85.0218 28.0682 84.8551 27.7614C84.6884 27.4508 84.4555 27.2064 84.1562 27.0284C83.8608 26.8504 83.5161 26.7614 83.1222 26.7614C82.7017 26.7614 82.3324 26.8636 82.0142 27.0682C81.696 27.2689 81.4479 27.5341 81.2699 27.8636C81.0956 28.1894 81.0066 28.5473 81.0028 28.9375V30.1477C81.0028 30.6553 81.0956 31.0909 81.2812 31.4545C81.4669 31.8144 81.7263 32.0909 82.0597 32.2841C82.393 32.4735 82.7831 32.5682 83.2301 32.5682C83.5294 32.5682 83.8002 32.5265 84.0426 32.4432C84.285 32.3561 84.4953 32.2292 84.6733 32.0625C84.8513 31.8958 84.9858 31.6894 85.0767 31.4432L86.9972 31.6591C86.8759 32.1667 86.6449 32.6098 86.304 32.9886C85.9669 33.3636 85.535 33.6553 85.0085 33.8636C84.482 34.0682 83.8797 34.1705 83.2017 34.1705ZM91.3338 34.1761C90.7808 34.1761 90.2827 34.0777 89.8395 33.8807C89.4001 33.6799 89.0516 33.3845 88.794 32.9943C88.5402 32.6042 88.4134 32.1231 88.4134 31.5511C88.4134 31.0587 88.5043 30.6515 88.6861 30.3295C88.8679 30.0076 89.116 29.75 89.4304 29.5568C89.7448 29.3636 90.099 29.2178 90.4929 29.1193C90.8906 29.017 91.3016 28.9432 91.7259 28.8977C92.2372 28.8447 92.652 28.7973 92.9702 28.7557C93.2884 28.7102 93.5194 28.642 93.6634 28.5511C93.8111 28.4564 93.8849 28.3106 93.8849 28.1136V28.0795C93.8849 27.6515 93.758 27.3201 93.5043 27.0852C93.2505 26.8504 92.8849 26.733 92.4077 26.733C91.9039 26.733 91.5043 26.8428 91.2088 27.0625C90.9171 27.2822 90.7202 27.5417 90.6179 27.8409L88.6974 27.5682C88.849 27.0379 89.099 26.5947 89.4474 26.2386C89.7959 25.8788 90.2221 25.6098 90.7259 25.4318C91.2296 25.25 91.7865 25.1591 92.3963 25.1591C92.8168 25.1591 93.2353 25.2083 93.652 25.3068C94.0687 25.4053 94.4493 25.5682 94.794 25.7955C95.1387 26.0189 95.4152 26.3239 95.6236 26.7102C95.8357 27.0966 95.9418 27.5795 95.9418 28.1591V34H93.9645V32.8011H93.8963C93.7713 33.0436 93.5952 33.2708 93.3679 33.483C93.1444 33.6913 92.8622 33.8598 92.5213 33.9886C92.1842 34.1136 91.7884 34.1761 91.3338 34.1761ZM91.8679 32.6648C92.2808 32.6648 92.6387 32.5833 92.9418 32.4205C93.2448 32.2538 93.4777 32.0341 93.6406 31.7614C93.8073 31.4886 93.8906 31.1913 93.8906 30.8693V29.8409C93.8262 29.8939 93.7164 29.9432 93.5611 29.9886C93.4096 30.0341 93.2391 30.0739 93.0497 30.108C92.8603 30.142 92.6728 30.1723 92.4872 30.1989C92.3016 30.2254 92.1406 30.2481 92.0043 30.267C91.6974 30.3087 91.4228 30.3769 91.1804 30.4716C90.938 30.5663 90.7467 30.6989 90.6065 30.8693C90.4664 31.036 90.3963 31.2519 90.3963 31.517C90.3963 31.8958 90.5346 32.1818 90.8111 32.375C91.0876 32.5682 91.4399 32.6648 91.8679 32.6648ZM101.817 34.1705C100.946 34.1705 100.197 33.9792 99.5724 33.5966C98.9512 33.214 98.4721 32.6856 98.1349 32.0114C97.8016 31.3333 97.6349 30.553 97.6349 29.6705C97.6349 28.7841 97.8054 28.0019 98.1463 27.3239C98.4872 26.642 98.9683 26.1117 99.5895 25.733C100.214 25.3504 100.953 25.1591 101.805 25.1591C102.514 25.1591 103.141 25.2898 103.686 25.5511C104.235 25.8087 104.673 26.1742 104.999 26.6477C105.324 27.1174 105.51 27.6667 105.555 28.2955H103.589C103.51 27.875 103.321 27.5246 103.021 27.2443C102.726 26.9602 102.33 26.8182 101.834 26.8182C101.413 26.8182 101.044 26.9318 100.726 27.1591C100.408 27.3826 100.16 27.7045 99.9815 28.125C99.8073 28.5455 99.7202 29.0492 99.7202 29.6364C99.7202 30.2311 99.8073 30.7424 99.9815 31.1705C100.156 31.5947 100.4 31.9223 100.714 32.1534C101.033 32.3807 101.406 32.4943 101.834 32.4943C102.137 32.4943 102.408 32.4375 102.646 32.3239C102.889 32.2064 103.091 32.0379 103.254 31.8182C103.417 31.5985 103.529 31.3314 103.589 31.017H105.555C105.506 31.6345 105.324 32.1818 105.01 32.6591C104.696 33.1326 104.268 33.5038 103.726 33.7727C103.184 34.0379 102.548 34.1705 101.817 34.1705ZM111.602 25.2727V26.8636H106.585V25.2727H111.602ZM107.824 23.1818H109.881V31.375C109.881 31.6515 109.922 31.8636 110.006 32.0114C110.093 32.1553 110.206 32.2538 110.347 32.3068C110.487 32.3598 110.642 32.3864 110.812 32.3864C110.941 32.3864 111.059 32.3769 111.165 32.358C111.275 32.339 111.358 32.322 111.415 32.3068L111.761 33.9148C111.652 33.9527 111.494 33.9943 111.29 34.0398C111.089 34.0852 110.843 34.1117 110.551 34.1193C110.036 34.1345 109.572 34.0568 109.159 33.8864C108.746 33.7121 108.419 33.4432 108.176 33.0795C107.938 32.7159 107.82 32.2614 107.824 31.7159V23.1818Z" fill="#F4F4F4"/>
</g>
<defs>
<clipPath id="clip0_769_2079">
<rect width="112" height="58" fill="white"/>
</clipPath>
</defs>
</svg>
