<svg width="134" height="133" viewBox="0 0 134 133" fill="none" xmlns="http://www.w3.org/2000/svg">
<path d="M128.209 108.161C129.677 109.43 130.867 110.988 131.706 112.738C132.544 114.488 133.013 116.392 133.084 118.331C133.154 120.27 132.824 122.203 132.114 124.009C131.404 125.814 130.33 127.455 128.958 128.827C127.586 130.199 125.946 131.274 124.141 131.984C122.335 132.694 120.402 133.025 118.463 132.955C116.524 132.885 114.62 132.417 112.87 131.578C111.12 130.74 109.562 129.55 108.292 128.083L69.7031 83.416L83.5411 69.576L128.209 108.161Z" fill="#FF9356"/>
<path d="M81.6601 57.8521L102.654 78.8461C103 79.1899 103.274 79.5988 103.462 80.0491C103.649 80.4994 103.745 80.9823 103.745 81.4701C103.745 81.9578 103.649 82.4407 103.462 82.891C103.274 83.3413 103 83.7502 102.654 84.0941L84.2271 102.521C83.8826 102.87 83.4728 103.147 83.0211 103.337C82.5694 103.527 82.0846 103.626 81.5946 103.629C81.1045 103.632 80.6187 103.538 80.1649 103.353C79.7112 103.168 79.2984 102.895 78.9501 102.55L57.9561 81.5571L81.6601 57.8521Z" fill="#080403"/>
<path d="M83.9211 14.3857C90.7911 21.251 95.4707 29.9996 97.3679 39.5249C99.2652 49.0501 98.2948 58.9241 94.5796 67.8978C90.8644 76.8715 84.5712 84.5417 76.4961 89.9383C68.4211 95.3349 58.9269 98.2154 49.2145 98.2154C39.5022 98.2154 30.008 95.3349 21.9329 89.9383C13.8579 84.5417 7.5647 76.8715 3.84948 67.8978C0.134264 58.9241 -0.836084 49.0501 1.06116 39.5249C2.9584 29.9996 7.63801 21.251 14.508 14.3857C19.0651 9.82678 24.4757 6.21034 30.4307 3.74296C36.3857 1.27558 42.7686 0.00561523 49.2145 0.00561523C55.6605 0.00561523 62.0433 1.27558 67.9984 3.74296C73.9534 6.21034 79.364 9.82678 83.9211 14.3857Z" fill="#FF9356"/>
<path d="M100.131 91.2596L123.145 111.32" stroke="#11141C" stroke-width="1.99997" stroke-miterlimit="10"/>
<path d="M49.0832 84.6249C68.5907 84.6249 84.4047 68.8109 84.4047 49.3034C84.4047 29.7959 68.5907 13.9819 49.0832 13.9819C29.5757 13.9819 13.7617 29.7959 13.7617 49.3034C13.7617 68.8109 29.5757 84.6249 49.0832 84.6249Z" fill="#FFD8B8"/>
<path d="M53.4848 30.2285C53.0707 30.051 52.6459 29.8997 52.2128 29.7755V24.1755H45.8448V29.7975C43.6517 30.4573 41.7153 31.777 40.2994 33.5769C38.8834 35.3768 38.0568 37.5695 37.9319 39.8562C37.8071 42.143 38.3902 44.4126 39.6018 46.356C40.8134 48.2993 42.5946 49.822 44.7028 50.7165L50.8958 53.2245C51.6908 53.562 52.3795 54.1088 52.8885 54.8066C53.3974 55.5044 53.7076 56.3272 53.786 57.1874C53.8644 58.0476 53.7081 58.9129 53.3337 59.6912C52.9593 60.4696 52.3808 61.1318 51.6599 61.6075C50.9389 62.0831 50.1024 62.3544 49.2395 62.3923C48.3767 62.4302 47.5196 62.2335 46.7597 61.8229C45.9998 61.4124 45.3654 60.8035 44.9241 60.061C44.4828 59.3185 44.2512 58.4703 44.2538 57.6065V54.4225L37.8848 54.4285V57.6125C37.8813 59.7833 38.5127 61.9077 39.7012 63.7243C40.8896 65.5409 42.5833 66.9702 44.5738 67.8365C44.9883 68.0135 45.413 68.1655 45.8458 68.2915V75.1215H52.2148V68.2725C52.5148 68.1805 52.8098 68.0825 53.1028 67.9655C55.1585 67.1521 56.9258 65.7456 58.1798 63.9249C59.4339 62.1041 60.118 59.9515 60.1451 57.7409C60.1722 55.5303 59.5412 53.3615 58.3322 51.5106C57.1232 49.6596 55.3909 48.2101 53.3558 47.3465L47.1628 44.8395C46.577 44.5973 46.0453 44.2409 45.5987 43.7911C45.1521 43.3413 44.7994 42.8071 44.5613 42.2197C44.3232 41.6323 44.2043 41.0033 44.2117 40.3695C44.2191 39.7357 44.3526 39.1096 44.6043 38.5279C44.8561 37.9462 45.2211 37.4203 45.6781 36.9811C46.1351 36.5418 46.6749 36.1979 47.2662 35.9694C47.8574 35.7409 48.4882 35.6323 49.1218 35.65C49.7555 35.6677 50.3792 35.8113 50.9568 36.0725C51.767 36.3993 52.4663 36.9521 52.9714 37.6649C53.4765 38.3778 53.7661 39.2208 53.8058 40.0935V43.2785H60.1738V40.0975C60.144 37.9791 59.4947 35.9158 58.3061 34.1621C57.1175 32.4083 55.4414 31.0409 53.4848 30.2285Z" fill="#080403"/>
</svg>
