<svg width="100" height="125" viewBox="0 0 100 125" fill="none" xmlns="http://www.w3.org/2000/svg">
<path d="M15.7772 85.3699H1.99121C1.43893 85.3699 0.991211 85.8176 0.991211 86.3699V124.002C0.991211 124.554 1.43893 125.002 1.99121 125.002H15.7772C16.3295 125.002 16.7772 124.554 16.7772 124.002V86.3699C16.7772 85.8176 16.3295 85.3699 15.7772 85.3699Z" fill="#FF9356"/>
<path d="M42.3453 72.1562H28.5595C28.0073 72.1562 27.5596 72.604 27.5596 73.1562V124.001C27.5596 124.553 28.0073 125.001 28.5595 125.001H42.3453C42.8975 125.001 43.3452 124.553 43.3452 124.001V73.1562C43.3452 72.604 42.8975 72.1562 42.3453 72.1562Z" fill="#FF9356"/>
<path d="M68.9136 58.9425H55.1279C54.5756 58.9425 54.1279 59.3902 54.1279 59.9425V124C54.1279 124.552 54.5756 125 55.1279 125H68.9136C69.4659 125 69.9136 124.552 69.9136 124V59.9425C69.9136 59.3902 69.4659 58.9425 68.9136 58.9425Z" fill="#FF9356"/>
<path d="M95.483 45.7288H81.6972C81.145 45.7288 80.6973 46.1765 80.6973 46.7287V124C80.6973 124.552 81.145 125 81.6972 125H95.483C96.0352 125 96.4829 124.552 96.4829 124V46.7287C96.4829 46.1765 96.0352 45.7288 95.483 45.7288Z" fill="#FF9356"/>
<path d="M80.7127 1.48352H96.4822C43.9892 46.5556 0.990234 45.7307 0.990234 45.7307" stroke="#080403" stroke-width="1.99996" stroke-miterlimit="10"/>
<path d="M92.6885 18.3866L96.4825 1.48364" stroke="#080403" stroke-width="1.99996" stroke-miterlimit="10"/>
</svg>
