<svg width="119" height="119" viewBox="0 0 119 119" fill="none" xmlns="http://www.w3.org/2000/svg">
<path d="M118.479 16.4977V30.6435H0.390625V16.4927C0.390756 14.327 0.817471 12.1826 1.64641 10.1819C2.47534 8.18123 3.69026 6.36339 5.22178 4.83224C6.7533 3.30109 8.57142 2.08661 10.5723 1.25816C12.5732 0.429712 14.7177 0.00351301 16.8834 0.00390701H101.982C104.148 0.00325021 106.294 0.429404 108.295 1.25802C110.297 2.08664 112.116 3.3015 113.648 4.83318C115.179 6.36486 116.395 8.18335 117.224 10.1848C118.053 12.1862 118.479 14.3314 118.479 16.4977Z" fill="#FF9356"/>
<path d="M118.479 30.6435V101.976C118.479 104.142 118.053 106.287 117.224 108.288C116.396 110.289 115.181 112.107 113.65 113.638C112.119 115.17 110.301 116.385 108.3 117.214C106.299 118.043 104.155 118.47 101.989 118.47H16.8904C14.7242 118.472 12.5789 118.046 10.5772 117.218C8.57547 116.39 6.75651 115.176 5.22425 113.644C3.69199 112.113 2.47645 110.295 1.64708 108.294C0.817704 106.293 0.390756 104.148 0.390625 101.981V30.6435H118.479Z" fill="#080403"/>
<path d="M59.4345 103.045C75.7943 103.045 89.0565 89.7831 89.0565 73.4233C89.0565 57.0635 75.7943 43.8013 59.4345 43.8013C43.0747 43.8013 29.8125 57.0635 29.8125 73.4233C29.8125 89.7831 43.0747 103.045 59.4345 103.045Z" fill="#FF9356"/>
<path d="M63.4922 55.7412C63.1149 55.5797 62.7278 55.442 62.3332 55.3292V50.2292H56.5332V55.3522C54.5361 55.953 52.7728 57.1548 51.4834 58.794C50.194 60.4331 49.4412 62.4298 49.3275 64.5122C49.2138 66.5946 49.7448 68.6614 50.8481 70.4311C51.9514 72.2009 53.5734 73.5875 55.4932 74.4022L61.1322 76.6862C61.8562 76.9935 62.4833 77.4913 62.9468 78.1268C63.4103 78.7622 63.6928 79.5115 63.7642 80.2948C63.8356 81.078 63.6933 81.866 63.3523 82.5748C63.0114 83.2836 62.4846 83.8866 61.8281 84.3198C61.1715 84.7529 60.4098 84.9998 59.6241 85.0344C58.8383 85.0689 58.0579 84.8897 57.3659 84.5158C56.6739 84.142 56.0963 83.5875 55.6945 82.9113C55.2927 82.2352 55.0818 81.4627 55.0842 80.6762V77.7762L49.2842 77.7812V80.6812C49.281 82.658 49.8559 84.5927 50.9381 86.247C52.0203 87.9014 53.5626 89.2032 55.3752 89.9922C55.7526 90.1529 56.1393 90.2908 56.5332 90.4052V96.6262H62.3332V90.3842C62.6042 90.3022 62.8752 90.2122 63.1412 90.1062C65.0134 89.3654 66.6229 88.0844 67.7649 86.4262C68.907 84.768 69.53 82.8076 69.5547 80.7943C69.5793 78.7811 69.0045 76.806 67.9034 75.1203C66.8023 73.4346 65.2247 72.1146 63.3712 71.3282L57.7322 69.0462C57.2019 68.8234 56.721 68.4977 56.3174 68.0879C55.9139 67.6781 55.5956 67.1923 55.3809 66.6587C55.1663 66.125 55.0597 65.5541 55.0672 64.979C55.0747 64.4039 55.1962 63.8359 55.4246 63.308C55.6531 62.7802 55.9839 62.3029 56.398 61.9037C56.8121 61.5045 57.3013 61.1914 57.8372 60.9826C58.3731 60.7737 58.9452 60.6732 59.5202 60.6869C60.0952 60.7005 60.6618 60.8281 61.1872 61.0622C61.9251 61.3597 62.562 61.8631 63.0219 62.5123C63.4818 63.1616 63.7453 63.9293 63.7812 64.7242V67.6242H69.5812V64.7242C69.5535 62.796 68.9622 60.9181 67.8803 59.3219C66.7983 57.7257 65.273 56.481 63.4922 55.7412Z" fill="#D2F6C5"/>
</svg>
