<svg width="121" height="134" viewBox="0 0 121 134" fill="none" xmlns="http://www.w3.org/2000/svg">
<path d="M22.56 25.1219C29.4961 25.1219 35.119 19.4991 35.119 12.5629C35.119 5.62676 29.4961 0.00390625 22.56 0.00390625C15.6238 0.00390625 10.001 5.62676 10.001 12.5629C10.001 19.4991 15.6238 25.1219 22.56 25.1219Z" fill="#FDC6A8"/>
<path d="M16.5241 25.2606H28.5951C29.9558 25.2605 31.3032 25.5284 32.5604 26.049C33.8175 26.5696 34.9599 27.3328 35.9221 28.2949C36.8843 29.2571 37.6476 30.3993 38.1683 31.6564C38.6891 32.9135 38.9571 34.2609 38.9571 35.6216V47.0036H6.16309V35.6216C6.16309 32.8737 7.25469 30.2384 9.19775 28.2953C11.1408 26.3522 13.7762 25.2606 16.5241 25.2606Z" fill="#FFD8B8"/>
<path d="M59.809 25.1219C66.7451 25.1219 72.368 19.4991 72.368 12.5629C72.368 5.62676 66.7451 0.00390625 59.809 0.00390625C52.8729 0.00390625 47.25 5.62676 47.25 12.5629C47.25 19.4991 52.8729 25.1219 59.809 25.1219Z" fill="#FDC6A8"/>
<path d="M53.7731 25.2606H65.8441C67.2048 25.2605 68.5522 25.5284 69.8094 26.049C71.0666 26.5696 72.2089 27.3328 73.1711 28.2949C74.1333 29.2571 74.8966 30.3993 75.4173 31.6564C75.9381 32.9135 76.2061 34.2609 76.2061 35.6216V47.0036H43.4121V35.6216C43.4121 32.8737 44.5037 30.2384 46.4468 28.2953C48.3898 26.3522 51.0252 25.2606 53.7731 25.2606Z" fill="#FF9356"/>
<path d="M97.0092 25.1219C103.945 25.1219 109.568 19.4991 109.568 12.5629C109.568 5.62676 103.945 0.00390625 97.0092 0.00390625C90.0731 0.00390625 84.4502 5.62676 84.4502 12.5629C84.4502 19.4991 90.0731 25.1219 97.0092 25.1219Z" fill="#FDC6A8"/>
<path d="M90.9733 25.2606H103.044C104.405 25.2605 105.752 25.5284 107.01 26.049C108.267 26.5696 109.409 27.3328 110.371 28.2949C111.333 29.2571 112.097 30.3993 112.618 31.6564C113.138 32.9135 113.406 34.2609 113.406 35.6216V47.0036H80.6123V35.6216C80.6123 32.8737 81.7039 30.2384 83.647 28.2953C85.59 26.3522 88.2254 25.2606 90.9733 25.2606Z" fill="#FFD8B8"/>
<path d="M120.278 57.8801C120.279 58.7643 120.106 59.64 119.768 60.4571C119.43 61.2741 118.934 62.0166 118.309 62.642C117.684 63.2671 116.942 63.7627 116.124 64.1006C115.307 64.4384 114.432 64.6119 113.547 64.611H6.84909C5.96506 64.6114 5.08958 64.4375 4.27277 64.0994C3.45596 63.7613 2.71382 63.2655 2.08872 62.6404C1.46362 62.0153 0.967815 61.2732 0.629695 60.4564C0.291575 59.6395 0.117773 58.7641 0.118167 57.8801C0.117324 56.9961 0.290801 56.1205 0.628658 55.3036C0.966515 54.4867 1.46212 53.7443 2.08713 53.1191C2.71234 52.4938 3.45473 51.9979 4.27185 51.6599C5.08898 51.3218 5.9648 51.1483 6.84909 51.1492H113.547C114.432 51.1488 115.307 51.3226 116.124 51.6607C116.941 51.9989 117.683 52.4947 118.308 53.1198C118.933 53.7449 119.429 54.487 119.767 55.3038C120.105 56.1206 120.279 56.9961 120.278 57.8801Z" fill="#080403"/>
<path d="M77.8941 100.51V114.332L42.9941 133.682V100.51H77.8941Z" fill="#080403"/>
<path d="M105.994 64.6112L77.8946 100.511H42.9951L14.8955 64.6112H105.994Z" fill="#FF9356"/>
<path d="M94.5729 68.2809L75.1719 92.7599" stroke="#11141C" stroke-width="1.99997" stroke-miterlimit="10"/>
</svg>
