<svg width="131" height="133" viewBox="0 0 131 133" fill="none" xmlns="http://www.w3.org/2000/svg">
<path d="M110.932 15.4086V28.6203H0.639648V15.4036C0.639648 11.3193 2.26212 7.40227 5.15014 4.51425C8.03816 1.62623 11.9552 0.00378626 16.0394 0.00378626H95.5243C97.5477 0.00273502 99.5515 0.400426 101.421 1.17418C103.291 1.94793 104.99 3.08258 106.421 4.51321C107.851 5.94385 108.986 7.64243 109.76 9.51192C110.535 11.3814 110.933 13.3851 110.932 15.4086Z" fill="#080403"/>
<path d="M110.932 28.6204V95.2434C110.932 99.3277 109.309 103.245 106.421 106.133C103.533 109.021 99.6164 110.643 95.5322 110.643H16.0433C14.021 110.643 12.0185 110.245 10.1501 109.471C8.28171 108.697 6.58404 107.563 5.15404 106.133C3.72404 104.703 2.58971 103.005 1.81579 101.137C1.04188 99.2683 0.643555 97.2657 0.643555 95.2434V28.6204H110.932Z" fill="#FF9356"/>
<path d="M103.285 132.029C118.565 132.029 130.952 119.642 130.952 104.362C130.952 89.0816 118.565 76.6947 103.285 76.6947C88.0051 76.6947 75.6182 89.0816 75.6182 104.362C75.6182 119.642 88.0051 132.029 103.285 132.029Z" fill="#080403"/>
<path d="M107.075 87.8466C106.723 87.6957 106.362 87.5671 105.994 87.4616V82.6946H100.577V87.4796C98.7113 88.0404 97.0642 89.1627 95.8598 90.6935C94.6554 92.2244 93.9522 94.0893 93.8461 96.0342C93.7399 97.9792 94.236 99.9095 95.2666 101.562C96.2973 103.215 97.8124 104.51 99.6057 105.271L104.874 107.405C105.55 107.692 106.135 108.157 106.568 108.751C107.001 109.344 107.264 110.044 107.331 110.775C107.397 111.507 107.264 112.243 106.946 112.905C106.627 113.567 106.135 114.13 105.522 114.534C104.909 114.939 104.197 115.169 103.463 115.201C102.73 115.234 102.001 115.066 101.354 114.717C100.708 114.368 100.169 113.85 99.7935 113.218C99.4183 112.587 99.2214 111.865 99.2237 111.131V108.423L93.8067 108.428V111.136C93.8032 112.983 94.34 114.79 95.351 116.336C96.362 117.882 97.8031 119.098 99.4967 119.836C99.8491 119.985 100.21 120.114 100.578 120.222V126.031H105.995V120.206C106.248 120.129 106.501 120.045 106.751 119.946C108.499 119.253 110.002 118.057 111.068 116.508C112.134 114.96 112.716 113.129 112.739 111.249C112.762 109.369 112.225 107.524 111.197 105.95C110.169 104.376 108.696 103.143 106.966 102.408L101.698 100.276C101.201 100.068 100.751 99.7647 100.372 99.382C99.9941 98.9993 99.6956 98.5453 99.4942 98.0463C99.2928 97.5474 99.1926 97.0134 99.1993 96.4753C99.2059 95.9373 99.3194 95.406 99.5331 94.9121C99.7468 94.4183 100.056 93.9719 100.444 93.5987C100.832 93.2255 101.29 92.9331 101.791 92.7383C102.293 92.5435 102.828 92.4503 103.366 92.4641C103.904 92.4779 104.434 92.5984 104.925 92.8186C105.614 93.0967 106.209 93.567 106.638 94.1735C107.068 94.78 107.314 95.4971 107.348 96.2396V98.9476H112.765V96.2396C112.739 94.4378 112.187 92.6829 111.176 91.1914C110.165 89.6999 108.739 88.5371 107.075 87.8466Z" fill="#FF9356"/>
<path d="M46.0581 40.4011H18.388C17.1567 40.4043 15.9768 40.8955 15.107 41.7672C14.2373 42.6388 13.7486 43.8198 13.748 45.0511V65.6111C13.7488 66.8415 14.238 68.0212 15.1079 68.8912C15.9779 69.7612 17.1577 70.2503 18.388 70.2511H46.0581C47.2884 70.2503 48.4682 69.7612 49.3382 68.8912C50.2081 68.0212 50.6973 66.8415 50.6981 65.6111V45.0511C50.6975 43.8198 50.2088 42.6388 49.3391 41.7672C48.4693 40.8955 47.2894 40.4043 46.0581 40.4011ZM18.388 66.6111C18.3208 66.6144 18.2534 66.6076 18.188 66.5911C17.9622 66.545 17.7592 66.4223 17.6134 66.2437C17.4676 66.0651 17.388 65.8416 17.388 65.6111V61.2951L24.188 55.7951L34.7381 66.6151L18.388 66.6111ZM47.0581 65.6111C47.0581 65.8763 46.9527 66.1307 46.7652 66.3182C46.5776 66.5058 46.3233 66.6111 46.0581 66.6111H39.818L35.688 62.3711L42.0881 55.9811L47.0581 60.9511V65.6111ZM47.0581 55.8011L43.368 52.1211C43.2005 51.9503 43.0005 51.8146 42.7799 51.722C42.5592 51.6293 42.3223 51.5816 42.083 51.5816C41.8437 51.5816 41.6069 51.6293 41.3862 51.722C41.1656 51.8146 40.9656 51.9503 40.798 52.1211L33.148 59.7711L25.638 52.0611C25.3224 51.7343 24.8957 51.5377 24.4422 51.5099C23.9887 51.4821 23.5412 51.6253 23.188 51.9111L17.388 56.6111V45.0511C17.388 44.7859 17.4934 44.5316 17.6809 44.344C17.8685 44.1565 18.1228 44.0511 18.388 44.0511H46.0581C46.3233 44.0511 46.5776 44.1565 46.7652 44.344C46.9527 44.5316 47.0581 44.7859 47.0581 45.0511V55.8011Z" fill="#FFD8B8"/>
<path d="M93.1821 40.4011H65.5121C64.2807 40.4043 63.1008 40.8955 62.2311 41.7672C61.3613 42.6388 60.8726 43.8198 60.8721 45.0511V65.6111C60.8729 66.8415 61.362 68.0212 62.232 68.8912C63.102 69.7612 64.2817 70.2503 65.5121 70.2511H93.1821C94.4124 70.2503 95.5922 69.7612 96.4622 68.8912C97.3322 68.0212 97.8213 66.8415 97.8221 65.6111V45.0511C97.8215 43.8198 97.3328 42.6388 96.4631 41.7672C95.5933 40.8955 94.4134 40.4043 93.1821 40.4011ZM65.5121 66.6111C65.4448 66.6144 65.3774 66.6076 65.3121 66.5911C65.0862 66.545 64.8832 66.4223 64.7374 66.2437C64.5916 66.0651 64.512 65.8416 64.5121 65.6111V61.2951L71.3121 55.7951L81.8621 66.6151L65.5121 66.6111ZM94.1821 65.6111C94.1821 65.8763 94.0767 66.1307 93.8892 66.3182C93.7016 66.5058 93.4473 66.6111 93.1821 66.6111H86.9421L82.8121 62.3711L89.2121 55.9811L94.1821 60.9511V65.6111ZM94.1821 55.8011L90.4921 52.1211C90.3245 51.9503 90.1245 51.8146 89.9039 51.722C89.6833 51.6293 89.4464 51.5816 89.2071 51.5816C88.9678 51.5816 88.7309 51.6293 88.5102 51.722C88.2896 51.8146 88.0896 51.9503 87.9221 52.1211L80.2721 59.7711L72.7621 52.0611C72.4464 51.7343 72.0197 51.5377 71.5662 51.5099C71.1127 51.4821 70.6652 51.6253 70.3121 51.9111L64.5121 56.6111V45.0511C64.5121 44.7859 64.6174 44.5316 64.805 44.344C64.9925 44.1565 65.2469 44.0511 65.5121 44.0511H93.1821C93.4473 44.0511 93.7016 44.1565 93.8892 44.344C94.0767 44.5316 94.1821 44.7859 94.1821 45.0511V55.8011Z" fill="#FFD8B8"/>
</svg>
