<svg width="163" height="110" viewBox="0 0 163 110" fill="none" xmlns="http://www.w3.org/2000/svg">
<path d="M139.71 0.323853L106.322 16.4914C105.664 16.7669 105.135 17.3093 104.853 17.9994C104.57 18.6894 104.557 19.4706 104.816 20.1711C104.838 20.23 104.862 20.2888 104.887 20.3457L125.663 67.2138C125.958 67.8802 126.485 68.3985 127.133 68.6592C127.78 68.9199 128.498 68.9026 129.134 68.611L162.479 52.0033L139.71 0.323853Z" fill="#FF9356"/>
<path d="M55.6357 19.3597L25.2862 0.790894L0.220703 51.8476L30.4389 69.8405C31.0556 70.2096 31.7849 70.303 32.4664 70.1001C33.1479 69.8973 33.7257 69.4147 34.0728 68.7587L34.1094 68.6858L56.6122 23.1092C56.927 22.4689 57.0012 21.7253 56.8197 21.029C56.6382 20.3327 56.2155 19.7359 55.6357 19.3597Z" fill="#080403"/>
<path d="M121.095 75.7876L86.1477 40.6321C84.8951 39.3146 83.3493 38.356 81.6545 37.8457L65.3456 28.9266C64.8597 28.683 60.4753 26.6112 53.8677 28.6691L35.6387 65.5951L80.4612 106.993C81.6892 108.047 83.2535 108.554 84.8253 108.407C86.3971 108.259 87.854 107.47 88.8898 106.203C89.9256 104.937 90.4596 103.292 90.3796 101.616C90.2997 99.9393 89.6119 98.361 88.4609 97.2127L91.1062 99.6438C92.3358 100.711 93.9078 101.226 95.4884 101.079C97.0691 100.933 98.5339 100.137 99.5717 98.86C100.61 97.5831 101.139 95.9262 101.047 94.241C100.955 92.5558 100.249 90.9751 99.0796 89.8345L101.754 92.2926C102.98 93.3624 104.55 93.8818 106.13 93.7406C107.711 93.5994 109.177 92.8086 110.219 91.5362C111.26 90.2637 111.794 88.6096 111.708 86.9249C111.622 85.2401 110.923 83.6573 109.758 82.5122C110.872 83.5381 111.981 84.5551 112.994 85.4862C113.6 86.0432 114.303 86.4677 115.064 86.7353C115.825 87.003 116.627 87.1085 117.426 87.0459C118.225 86.9834 119.005 86.7539 119.72 86.3707C120.436 85.9875 121.073 85.458 121.596 84.8126L121.61 84.7956L121.711 84.6698C122.219 84.0448 122.606 83.3194 122.85 82.5351C123.095 81.7508 123.191 80.9229 123.135 80.0988C123.078 79.2747 122.869 78.4706 122.52 77.7324C122.171 76.9942 121.689 76.3364 121.101 75.7966L121.095 75.7876Z" fill="#E8966D"/>
<path d="M106.799 24.6551L106.782 24.6621L104.177 25.8447C100.758 26.7288 97.1751 26.5938 93.8229 25.4545L85.1179 22.8527C82.9551 22.2072 80.6622 22.2475 78.5206 22.9685L70.1195 25.7928C68.5293 26.3305 67.0675 27.2282 65.8344 28.4242C64.6013 29.6201 63.6263 31.0859 62.9763 32.7209L56.0957 52.7368L56.6473 52.9983C58.3535 53.8246 60.2283 54.1791 62.0977 54.0291C63.9671 53.879 65.7705 53.2293 67.341 52.14C68.6909 51.1934 69.8244 49.9372 70.6582 48.4636C71.4921 46.9899 72.0052 45.3363 72.1597 43.6241C72.1757 43.4604 72.1888 43.2927 72.1982 43.1251C72.2141 42.8676 73.2216 36.687 77.7186 36.671L81.6583 37.8486C83.3532 38.359 84.899 39.3176 86.1516 40.6351L116.815 71.8545L116.872 71.7846C120.125 70.3385 122.795 67.7186 124.412 64.3855L106.799 24.6551Z" fill="#FDC6A8"/>
<path d="M74.0008 95.8534L73.3019 95.3155C72.1992 94.4707 70.8262 94.1265 69.4849 94.3583C68.1436 94.5902 66.9438 95.3793 66.1492 96.552L63.3406 100.698C62.5456 101.872 62.2214 103.334 62.4394 104.762C62.6573 106.19 63.3996 107.468 64.5029 108.314L65.2017 108.848C66.3045 109.692 67.6774 110.037 69.0187 109.805C70.36 109.573 71.5598 108.784 72.3545 107.611L75.5373 102.821C76.1146 101.658 76.277 100.312 75.9946 99.0315C75.7122 97.7512 75.004 96.6227 74.0008 95.8544V95.8534Z" fill="#FDC6A8"/>
<path d="M66.8685 86.1548L66.1734 85.6179C65.0744 84.7754 63.7066 84.43 62.3689 84.6572C61.0312 84.8844 59.8325 85.6658 59.0347 86.8305C59.0253 86.8375 59.0216 86.8484 59.015 86.8554L54.3247 93.7867C53.931 94.368 53.6488 95.0262 53.4943 95.7236C53.3397 96.421 53.3158 97.144 53.4239 97.8512C53.532 98.5584 53.77 99.2361 54.1243 99.8454C54.4786 100.455 54.9423 100.984 55.4889 101.403L56.1858 101.937C56.7319 102.355 57.3501 102.655 58.0052 102.82C58.6603 102.984 59.3395 103.01 60.0039 102.895C60.6683 102.78 61.3049 102.527 61.8774 102.151C62.4499 101.774 62.9471 101.281 63.3405 100.7L68.0308 93.7677C68.4243 93.1869 68.7064 92.5293 68.8609 91.8325C69.0155 91.1357 69.0395 90.4133 68.9316 89.7066C68.8236 88.9999 68.5858 88.3227 68.2319 87.7138C67.8779 87.1049 67.4146 86.5762 66.8685 86.1578V86.1548Z" fill="#FDC6A8"/>
<path d="M59.7409 76.4573L59.042 75.9254C57.95 75.0868 56.5916 74.7392 55.2606 74.958C53.9296 75.1767 52.733 75.944 51.9297 77.0941L45.306 86.8747C44.9125 87.4555 44.6304 88.1131 44.4758 88.8099C44.3213 89.5067 44.2972 90.2291 44.4052 90.9358C44.5131 91.6425 44.7508 92.3197 45.1048 92.9286C45.4588 93.5375 45.9221 94.0662 46.4682 94.4846L47.1633 95.0215C48.267 95.8671 49.6412 96.2117 50.9836 95.9795C52.326 95.7472 53.5268 94.9571 54.3217 93.783L60.9022 84.0652C61.6969 82.892 62.021 81.4309 61.8032 80.0034C61.5854 78.5759 60.8436 77.2989 59.7409 76.4533V76.4573Z" fill="#FDC6A8"/>
<path d="M53.0278 66.1409L52.3298 65.607C51.2262 64.7613 49.852 64.4167 48.5095 64.649C47.1671 64.8813 45.9664 65.6714 45.1715 66.8455L36.2889 79.9675C35.4943 81.1402 35.17 82.6006 35.3872 84.0277C35.6045 85.4547 36.3455 86.7315 37.4474 87.5774L38.1454 88.1143C39.2489 88.9599 40.6228 89.3047 41.9652 89.0728C43.3075 88.8409 44.5084 88.0514 45.3037 86.8778L54.1891 73.7558C54.9836 72.582 55.3077 71.1205 55.0899 69.6926C54.8721 68.2647 54.1304 66.9872 53.0278 66.1409Z" fill="#FDC6A8"/>
</svg>
