<svg width="96" height="104" viewBox="0 0 96 104" fill="none" xmlns="http://www.w3.org/2000/svg">
<path d="M47.9472 82.1337C70.8379 82.1337 89.3945 63.7973 89.3945 41.1782C89.3945 18.5592 70.8379 0.222778 47.9472 0.222778C25.0566 0.222778 6.5 18.5592 6.5 41.1782C6.5 63.7973 25.0566 82.1337 47.9472 82.1337Z" fill="#FF9356"/>
<path d="M14.3696 65.1378L0.108398 89.565L16.7532 88.6922L24.3152 103.373L37.5079 80.7721C28.1903 78.3773 20.0084 72.8489 14.3696 65.1378Z" fill="#080403"/>
<path d="M81.6059 65.0164C75.9946 72.7467 67.833 78.3039 58.5244 80.7325L71.7581 103.373L79.3201 88.6922L95.9649 89.5649L81.6059 65.0164Z" fill="#080403"/>
<path d="M47.9469 70.8643C64.539 70.8643 77.9895 57.5734 77.9895 41.1782C77.9895 24.783 64.539 11.4921 47.9469 11.4921C31.3548 11.4921 17.9043 24.783 17.9043 41.1782C17.9043 57.5734 31.3548 70.8643 47.9469 70.8643Z" fill="#FFC494"/>
<path d="M68.5368 37.9709C68.7447 37.7691 68.8918 37.5142 68.9614 37.2346C69.0309 36.955 69.0204 36.6617 68.9308 36.3877C68.8412 36.1137 68.6762 35.8697 68.4542 35.6832C68.2323 35.4966 67.9621 35.3748 67.674 35.3314L55.8168 33.6254C55.5657 33.5893 55.3274 33.4926 55.1231 33.3439C54.9187 33.1952 54.7545 32.9991 54.645 32.7729L49.34 22.1536C49.211 21.8932 49.0107 21.6739 48.7619 21.5205C48.513 21.3671 48.2256 21.2858 47.9323 21.2858C47.639 21.2858 47.3516 21.3671 47.1027 21.5205C46.8539 21.6739 46.6536 21.8932 46.5246 22.1536L41.2438 32.7729C41.1285 32.9949 40.9627 33.1874 40.7594 33.3353C40.556 33.4832 40.3208 33.5826 40.072 33.6254L28.2195 35.3323C27.9314 35.3757 27.6612 35.4975 27.4392 35.6841C27.2173 35.8706 27.0523 36.1146 26.9627 36.3886C26.8731 36.6626 26.8625 36.9559 26.9321 37.2355C27.0017 37.5151 27.1487 37.7701 27.3567 37.9718L35.9257 46.2359C36.1053 46.4106 36.24 46.6252 36.3187 46.8618C36.3974 47.0984 36.4177 47.3501 36.3781 47.5961L34.364 59.2519C34.3148 59.5372 34.3476 59.8304 34.4586 60.0982C34.5696 60.366 34.7544 60.5976 34.9921 60.7668C35.2297 60.936 35.5106 61.0359 35.8028 61.0552C36.095 61.0745 36.3869 61.0124 36.6452 60.876L47.2487 55.3736C47.4727 55.2536 47.7235 55.1908 47.9784 55.1908C48.2332 55.1908 48.484 55.2536 48.7081 55.3736L59.3116 60.876C59.5702 61.0091 59.8611 61.0686 60.152 61.0478C60.4428 61.027 60.722 60.9269 60.9586 60.7584C61.1952 60.59 61.3797 60.3599 61.4917 60.0939C61.6037 59.8279 61.6387 59.5364 61.5928 59.2519L59.5582 47.5961C59.5154 47.3501 59.5343 47.0975 59.6131 46.8603C59.692 46.6232 59.8284 46.4088 60.0106 46.2359L68.5368 37.9709Z" fill="white"/>
</svg>
