<svg width="561" height="520" viewBox="0 0 561 520" fill="none" xmlns="http://www.w3.org/2000/svg">
<g clip-path="url(#clip0_636_2066)">
<path d="M165.137 446.343C120.122 418.787 83.4606 377.802 65.6462 329.859C48.3579 281.816 50.4427 226.715 68.0652 178.818C85.0583 130.477 118.641 89.14 159.934 68.3363C201.227 47.5325 250.653 46.6173 303.742 50.6471C356.831 54.677 413.16 64.2959 451.739 98.1489C489.792 132.102 510.197 190.833 503.707 242.822C497.32 295.355 463.511 341.247 427.926 383.527C392.239 425.262 354.776 463.387 309.097 475.435C263.418 487.483 210.575 473.255 165.137 446.343Z" fill="url(#paint0_linear_636_2066)"/>
</g>
<g clip-path="url(#clip1_636_2066)">
<path d="M414.013 213.464C414.013 213.464 346.074 310.864 344.465 317.702C341.991 328.209 328.801 409.63 328.801 409.63L272.121 408.558C272.121 408.558 284.931 339.415 295.14 309.272C302.496 287.559 355.55 215.549 355.55 215.549L414.013 213.464Z" fill="#080403"/>
<path d="M399.226 246.098C382.025 233.178 338.887 299.028 338.887 299.028L360.587 230.328L399.226 246.098Z" fill="black"/>
<path d="M340.366 336.444C355.705 370.383 384.923 419.535 384.923 419.535L441.122 405.49C441.122 405.49 384.837 317.901 385.274 310.935C402.364 283.4 454.71 239.02 413.677 199.941L355.548 215.549C355.548 215.549 360.176 225.121 368.68 231.173L341.074 288.06C337.396 295.625 335.432 303.844 335.31 312.18C335.188 320.516 336.91 328.784 340.366 336.444Z" fill="#080403"/>
<path d="M335.234 149.731C332.482 159.146 322.114 193.482 312.279 200.582C296.625 211.884 255.942 211.689 245.789 211.546C241.364 211.484 239.774 176.985 244.497 176.732C247.683 176.562 288.793 178.699 292.038 177.36C295.284 176.021 312.25 154.875 321.714 141.417C330.729 128.599 341.066 129.774 335.234 149.731Z" fill="#FEC5A8"/>
<path d="M231.364 210.338C238.546 212.508 255.056 211.474 258.938 209.765C262.82 208.057 261.908 181.267 258.352 178.818C254.796 176.369 230.021 170.848 222.848 173.482C215.674 176.116 223.924 208.09 231.364 210.338Z" fill="#FEC5A8"/>
<path d="M234.735 171.541C237.367 174.4 232.323 175.717 232.323 175.717C232.323 175.717 240.063 175.488 241.58 179.434C243.029 183.242 236.878 184.628 236.437 184.733C236.846 184.724 243.964 184.688 245.059 188.806C246.193 193.084 239.766 193.465 239.351 193.488C239.74 193.596 244.865 195.099 244.95 198.405C245.093 204.087 231.879 200.587 227.776 203.018C227.776 203.018 231.306 210.111 231.363 210.338C231.363 210.338 218.72 207.254 215.588 201.8C215.119 201.013 214.947 200.098 215.099 199.205C215.251 198.313 215.719 197.496 216.425 196.891C216.425 196.891 212.233 196.326 211.264 193.112C210.771 191.461 213.106 189.241 213.106 189.241C213.106 189.241 209.77 188.654 209.094 185.744C208.548 183.424 210.975 181.559 210.975 181.559C210.975 181.559 208.046 179.58 208.296 177.037C208.791 171.904 229.096 165.425 234.735 171.541Z" fill="#FEC5A8"/>
<path d="M256.267 176.593L263.687 215.24C263.687 215.24 295.882 212.026 313.544 201.691C320.827 197.429 348.499 163.14 352.211 147.826C355.923 132.512 334.943 123.82 319.683 142.56C304.424 161.299 293.877 175.774 292.385 176.531C290.901 177.286 256.267 176.593 256.267 176.593Z" fill="#FF9356"/>
<path d="M354.879 216.717C356.395 217.658 414.162 201.732 414.616 201.305L414.638 201.283C414.672 201.252 414.703 201.218 414.732 201.183L411.138 173.012C403.331 154.281 387.615 133.256 367.97 132.12C366.367 132.023 364.757 132.062 363.16 132.236C358.293 132.763 347.84 135.027 345.703 138.121C344.365 140.061 343.149 151.001 342.559 159.898C341.387 177.704 353.559 215.887 354.879 216.717Z" fill="#FF9356"/>
<path d="M345.792 166.717C345.823 167.052 345.992 167.362 346.262 167.579C346.533 167.795 346.882 167.9 347.234 167.871C347.587 167.842 347.912 167.681 348.139 167.424C348.367 167.166 348.478 166.833 348.447 166.497C348.417 166.162 348.248 165.852 347.977 165.636C347.707 165.419 347.357 165.314 347.005 165.342C346.83 165.357 346.661 165.404 346.505 165.481C346.35 165.557 346.212 165.663 346.099 165.79C345.987 165.918 345.902 166.066 345.849 166.225C345.796 166.383 345.777 166.551 345.792 166.717Z" fill="#FF9356"/>
<path d="M347.512 179.686C347.542 180.022 347.711 180.332 347.982 180.548C348.252 180.765 348.602 180.87 348.954 180.841C349.128 180.827 349.298 180.78 349.453 180.703C349.608 180.626 349.746 180.521 349.859 180.394C349.972 180.266 350.057 180.118 350.109 179.96C350.162 179.801 350.181 179.633 350.166 179.467C350.151 179.301 350.102 179.14 350.021 178.992C349.941 178.844 349.83 178.712 349.696 178.605C349.562 178.498 349.407 178.417 349.241 178.367C349.074 178.316 348.898 178.298 348.724 178.312C348.549 178.327 348.38 178.374 348.225 178.451C348.069 178.527 347.931 178.633 347.819 178.76C347.706 178.888 347.621 179.035 347.569 179.194C347.516 179.353 347.497 179.52 347.512 179.686Z" fill="#FF9356"/>
<path d="M349.232 192.655C349.262 192.991 349.431 193.301 349.702 193.517C349.972 193.734 350.322 193.839 350.674 193.81C351.026 193.781 351.352 193.62 351.579 193.362C351.807 193.105 351.917 192.772 351.887 192.436C351.856 192.101 351.687 191.791 351.417 191.574C351.146 191.358 350.796 191.252 350.444 191.281C350.092 191.31 349.767 191.471 349.539 191.729C349.312 191.987 349.201 192.32 349.232 192.655Z" fill="#FF9356"/>
<path d="M348.596 145.004C352.977 145.539 359.629 138.585 361.973 133.252C362.132 132.886 361.174 129.298 360.226 124.885C359.663 122.204 359.101 119.208 358.795 116.439L341.021 122.481C341.021 122.481 343.451 128.108 343.954 132.94C343.991 133.322 343.991 133.707 343.954 134.089C343.954 134.142 343.944 134.207 343.948 134.28C343.815 136.474 344.362 144.482 348.596 145.004Z" fill="#FEC5A8"/>
<path d="M359.094 95.6787C361.686 101.665 360.049 119.786 355.842 124.174C349.742 130.537 338.869 132.079 332.968 124.903C327.248 117.947 329.822 94.367 334.605 90.2913C341.647 84.2899 355.265 86.8362 359.094 95.6787Z" fill="#FEC5A8"/>
<path d="M342.287 106.19C344.362 106.201 344.188 110.153 342.266 110.142C340.374 110.133 340.548 106.182 342.287 106.19Z" fill="#080403"/>
<path d="M332.516 106.02C330.456 105.788 330.121 109.73 332.029 109.945C333.908 110.157 334.244 106.215 332.516 106.02Z" fill="#080403"/>
<path d="M355.289 110.079C355.289 110.079 359.07 104.007 361.932 105.249C364.794 106.491 362.268 115.082 359.13 116.457C358.741 116.659 358.312 116.785 357.87 116.826C357.428 116.866 356.983 116.822 356.559 116.694C356.136 116.566 355.745 116.359 355.408 116.083C355.071 115.808 354.797 115.47 354.601 115.091L355.289 110.079Z" fill="#FEC5A8"/>
<path d="M358.445 112.453L357.472 112.203C357.69 111.432 358.871 107.585 360.713 107.585V108.544C360.018 108.544 358.979 110.565 358.445 112.453Z" fill="black"/>
<path d="M348.576 103.137C346.238 100.469 343.639 101.267 343.615 101.276L343.292 100.367C343.425 100.323 346.578 99.356 349.35 102.523L348.576 103.137Z" fill="black"/>
<path d="M331.575 101.043L330.901 100.331C331.006 100.242 333.495 98.1575 337.359 100.014L336.906 100.87C333.676 99.3182 331.66 100.972 331.575 101.043Z" fill="black"/>
<path d="M329.722 113.53C329.722 113.53 333.394 115.716 337.412 114.732C339.755 114.135 342.231 114.211 344.529 114.951C344.529 114.951 353.252 116.7 357.385 113.529V127.932C357.385 131.39 355.951 134.708 353.394 137.164C350.837 139.62 347.365 141.015 343.734 141.044C341.925 141.059 340.13 140.733 338.453 140.087C336.776 139.441 335.249 138.486 333.96 137.278C332.67 136.069 331.643 134.63 330.938 133.044C330.233 131.457 329.862 129.753 329.849 128.03L329.722 113.53Z" fill="#080403"/>
<path d="M338.122 118.534C338.858 119.364 339.806 120 340.874 120.381C341.463 120.57 342.099 120.58 342.694 120.409C343.991 120.024 343.968 118.875 343.68 117.905C343.522 117.389 343.3 116.894 343.02 116.428C341.665 117.61 339.949 118.348 338.122 118.534Z" fill="black"/>
<path d="M340.875 120.38C341.464 120.569 342.099 120.579 342.694 120.408C343.991 120.023 343.969 118.875 343.681 117.904C342.281 118.103 340.932 119.073 340.875 120.38Z" fill="#F392B9"/>
<path d="M345.264 79.4872C346.2 79.3661 347.146 79.3213 348.09 79.3536C352.165 79.5174 355.376 81.9405 355.095 86.0015C354.877 89.1596 358.606 91.0545 358.107 94.1227C357.762 96.2425 355.33 97.8627 353.485 98.7656C352.121 99.4645 350.564 99.7444 349.027 99.5671C343.674 98.8213 339.724 92.1761 338.488 87.6974C338.018 85.9903 337.838 84.1662 338.815 82.562C339.941 80.7112 342.724 79.81 345.264 79.4872Z" fill="#080403"/>
<path d="M358.079 87.9605C358.959 87.8465 359.848 87.8045 360.736 87.835C364.566 87.9891 367.586 90.2669 367.322 94.0848C367.117 97.0541 370.624 98.8356 370.154 101.72C369.83 103.713 367.542 105.238 365.806 106.084C364.524 106.741 363.06 107.005 361.615 106.838C356.581 106.137 352.867 99.8925 351.706 95.6788C351.264 94.0759 351.094 92.3586 352.012 90.8506C353.073 89.1115 355.688 88.2642 358.079 87.9605Z" fill="#080403"/>
<path d="M319.962 88.3653C324.575 94.4785 328.741 96.6383 333.283 96.2576C336.368 95.998 339.619 94.5657 343.304 92.3992C344.274 91.8188 345.309 91.3438 346.389 90.9829C348.107 90.4025 349.943 90.2104 351.752 90.4216C353.562 90.6327 355.295 91.2414 356.815 92.1997L356.822 92.197C356.923 92.1931 357.023 92.1804 357.121 92.1588C358.442 91.5025 359.546 91.3693 360.434 91.6334L362.778 88.1996C355.463 65.2471 343.721 77.6212 343.721 77.6212L338.298 72.1447C321.653 57.3596 312.232 78.1168 319.962 88.3653Z" fill="#080403"/>
<path d="M333.539 113.626C330.872 113.626 328.702 111.267 328.702 108.364C328.702 105.462 330.872 103.102 333.539 103.102C336.207 103.102 338.376 105.462 338.376 108.364C338.376 111.266 336.206 113.626 333.539 113.626ZM333.539 104.061C331.428 104.061 329.71 105.992 329.71 108.364C329.71 110.736 331.428 112.667 333.539 112.667C335.651 112.667 337.369 110.737 337.369 108.364C337.369 105.992 335.651 104.061 333.539 104.061Z" fill="black"/>
<path d="M343.583 113.626C340.918 113.626 338.746 111.267 338.746 108.364C338.746 105.462 340.916 103.102 343.583 103.102C346.25 103.102 348.42 105.462 348.42 108.364C348.42 111.266 346.25 113.626 343.583 113.626ZM343.583 104.061C341.472 104.061 339.754 105.992 339.754 108.364C339.754 110.736 341.472 112.667 343.583 112.667C345.694 112.667 347.413 110.737 347.413 108.364C347.413 105.992 345.694 104.061 343.583 104.061Z" fill="black"/>
<path d="M339.192 108.186H337.757V109.145H339.192V108.186Z" fill="black"/>
<path d="M348.145 108.792L347.686 107.939C347.966 107.8 354.646 104.565 359.24 105.24L359.086 106.188C354.83 105.565 348.211 108.76 348.145 108.792Z" fill="black"/>
<path d="M243.009 430.192C242.619 431.938 242.973 433.76 243.991 435.258C244.496 436 245.15 436.639 245.916 437.139C246.682 437.64 247.544 437.991 248.452 438.172L300.46 448.693C300.711 447.575 301.417 446.596 302.425 445.973C303.432 445.35 304.658 445.133 305.833 445.369C307.008 445.608 308.036 446.281 308.69 447.24C309.345 448.2 309.572 449.368 309.324 450.487L319.431 452.531L330.657 402.202L274.796 390.901C274.796 390.901 271.75 421.723 249.696 424.863H249.687C248.452 424.904 247.25 425.251 246.201 425.872C245.152 426.493 244.291 427.364 243.706 428.4C243.381 428.961 243.146 429.565 243.009 430.192Z" fill="#FF9356"/>
<path d="M243.009 430.192C242.619 431.938 242.973 433.76 243.991 435.258C244.496 436 245.15 436.639 245.916 437.139C246.682 437.64 247.544 437.991 248.452 438.172L300.46 448.693C300.711 447.575 301.417 446.596 302.425 445.973C303.432 445.35 304.658 445.133 305.833 445.369C307.008 445.608 308.036 446.281 308.69 447.24C309.345 448.2 309.572 449.368 309.324 450.487L319.432 452.531L321.312 444.098L243.707 428.398C243.381 428.959 243.146 429.564 243.009 430.192Z" fill="#080403"/>
<path d="M270.704 406.258L294.522 411.077" stroke="white" stroke-width="2" stroke-miterlimit="10"/>
<path d="M268.016 410.02L293.603 415.197" stroke="white" stroke-width="2" stroke-miterlimit="10"/>
<path d="M265.326 413.783L292.684 419.317" stroke="white" stroke-width="2" stroke-miterlimit="10"/>
<path d="M279.582 369.442L274.796 390.901L330.657 402.202L335.444 380.742L279.582 369.442Z" fill="#B7CEFF"/>
<path d="M378.66 449.386C379.644 450.905 381.22 451.991 383.043 452.405C383.946 452.61 384.883 452.642 385.799 452.501C386.716 452.36 387.594 452.047 388.383 451.581L433.637 425C433.007 424.026 432.809 422.854 433.086 421.74C433.363 420.627 434.093 419.664 435.115 419.063C436.138 418.463 437.369 418.274 438.538 418.538C439.707 418.802 440.718 419.497 441.35 420.471L450.145 415.306L421.786 371.511L373.179 400.062C373.179 400.062 393.316 424.364 379.635 441.136L379.628 441.14C378.764 441.981 378.146 443.022 377.837 444.161C377.528 445.3 377.537 446.497 377.865 447.631C378.036 448.251 378.305 448.842 378.66 449.386Z" fill="#FF9356"/>
<path d="M378.658 449.385C379.642 450.905 381.218 451.991 383.041 452.405C383.944 452.609 384.881 452.642 385.797 452.5C386.713 452.359 387.591 452.047 388.38 451.581L433.634 425C433.005 424.026 432.807 422.853 433.084 421.74C433.361 420.627 434.091 419.664 435.113 419.062C436.136 418.462 437.368 418.273 438.537 418.537C439.707 418.801 440.719 419.496 441.35 420.47L450.145 415.305L445.394 407.967L377.863 447.629C378.034 448.249 378.302 448.841 378.658 449.385Z" fill="#080403"/>
<path d="M381.35 413.861L402.074 401.689" stroke="white" stroke-width="2" stroke-miterlimit="10"/>
<path d="M382.131 418.351L404.396 405.274" stroke="white" stroke-width="2" stroke-miterlimit="10"/>
<path d="M382.912 422.841L406.717 408.859" stroke="white" stroke-width="2" stroke-miterlimit="10"/>
<path d="M409.694 352.837L361.087 381.387L373.179 400.06L421.786 371.51L409.694 352.837Z" fill="#B7CEFF"/>
<path d="M361.794 131.996L362.039 133.219L414.638 201.283L414.765 201.451L414.733 201.184L411.139 173.013L408.557 152.727C408.196 149.898 407.135 147.192 405.46 144.832C403.785 142.471 401.544 140.524 398.923 139.151L384.711 131.705L361.794 131.996Z" fill="#FF9356"/>
<path d="M398.735 217.436L399.607 225.115C399.703 225.967 400.095 226.764 400.721 227.381C401.346 227.997 402.17 228.397 403.061 228.518L412.648 229.823" stroke="black" stroke-width="2" stroke-miterlimit="10"/>
<path d="M365.842 218.589L367.639 227.694L363.197 226.799L360.702 218.733" stroke="black" stroke-width="2" stroke-miterlimit="10"/>
<path d="M375.068 236.52L359.45 229.537" stroke="black" stroke-width="2" stroke-miterlimit="10"/>
<path d="M365.843 227.519L368.263 233.495" stroke="black" stroke-width="2" stroke-miterlimit="10"/>
<path d="M339.453 292.331C339.453 292.331 329.397 316.959 342.856 340.94" stroke="black" stroke-width="2" stroke-miterlimit="10"/>
<path d="M317.677 292.618L318.887 307.021" stroke="black" stroke-width="2" stroke-miterlimit="10"/>
<path d="M365.162 354.262L376.958 358.871" stroke="black" stroke-width="2" stroke-miterlimit="10"/>
<path d="M261.572 179.115L268.459 209.212" stroke="#11141C" stroke-width="2" stroke-miterlimit="10"/>
<path d="M232.323 175.717L217.383 177.649" stroke="#FF8168" stroke-width="2" stroke-miterlimit="10"/>
<path d="M236.869 184.606L218.342 186.968" stroke="#FF8168" stroke-width="2" stroke-miterlimit="10"/>
<path d="M239.352 193.489L219.862 194.683" stroke="#FF8168" stroke-width="2" stroke-miterlimit="10"/>
<path d="M254.304 177.171C254.304 177.171 230.099 157.287 226.575 170.105C225.528 173.914 226.001 190.747 229.552 190.72C234.138 190.688 235.317 183.626 235.319 179.082C235.319 179.082 242.553 186.949 249.806 183.786C254.355 181.804 254.304 177.171 254.304 177.171Z" fill="#FEC5A8"/>
<path d="M235.319 179.083C235.319 179.083 250.158 192.718 254.304 177.169" stroke="#FF8168" stroke-width="2" stroke-miterlimit="10"/>
<path d="M234.783 184.606C234.783 184.606 228.201 198.963 226.522 185.291" stroke="#FF8168" stroke-width="2" stroke-miterlimit="10"/>
<path d="M242.376 185.677C242.376 185.677 244.888 187.155 245.154 189.039C245.42 190.923 243.816 192.654 241.838 192.908" stroke="#FF8168" stroke-width="2" stroke-miterlimit="10"/>
<path d="M242.907 195.149C242.907 195.149 245.633 196.525 244.777 198.663C243.921 200.802 240.498 202.125 236.114 202.021" stroke="#FF8168" stroke-width="2" stroke-miterlimit="10"/>
<path d="M226.603 183.84C226.603 183.84 224.803 171.198 227.691 167.685" stroke="#FF8168" stroke-width="2" stroke-miterlimit="10"/>
<path d="M406.145 191.223L402.742 198.137" stroke="#11141C" stroke-width="2" stroke-miterlimit="10"/>
<path d="M296.59 190.38L307.924 194.253" stroke="#11141C" stroke-width="2" stroke-miterlimit="10"/>
<path d="M304.93 227.059C303.991 235.268 301.083 243.161 296.432 250.13C290.721 258.707 282.599 265.588 272.988 269.991C263.377 274.394 252.663 276.142 242.061 275.038L190.136 269.584L193.498 240.546L245.424 246C250.921 246.571 256.469 245.479 261.279 242.88C266.089 240.28 269.918 236.305 272.222 231.517C273.388 229.093 274.136 226.507 274.44 223.857C275.196 217.257 273.173 210.641 268.813 205.461C264.454 200.281 258.115 196.959 251.187 196.224L199.261 190.771L202.623 161.733L254.548 167.186C269.559 168.779 283.293 175.977 292.738 187.201C302.183 198.425 306.568 212.76 304.93 227.059Z" fill="#080403"/>
<path d="M172.796 238.37L169.422 267.409L197.175 270.334L200.549 241.295L172.796 238.37Z" fill="#FF9356"/>
<path d="M181.922 159.557L178.548 188.596L206.301 191.521L209.675 162.482L181.922 159.557Z" fill="#FF9356"/>
<path d="M209.15 231.641L200.904 241.324L172.784 238.371L181.026 228.687L209.15 231.641Z" fill="white" stroke="#11141C" stroke-width="2" stroke-miterlimit="10"/>
<path d="M272.221 231.517C269.916 236.305 266.088 240.28 261.278 242.88C256.468 245.479 250.921 246.571 245.423 246L200.904 241.325L209.149 231.641L253.668 236.316C260.268 237.015 266.9 235.3 272.221 231.517Z" fill="white" stroke="#11141C" stroke-width="2" stroke-miterlimit="10"/>
<path d="M218.606 152.862L210.36 162.545L181.91 159.557L190.153 149.873L218.606 152.862Z" fill="white" stroke="#11141C" stroke-width="2" stroke-miterlimit="10"/>
<path d="M296.431 250.13C301.083 243.161 303.99 235.268 304.929 227.059C306.568 212.76 302.183 198.425 292.738 187.201C283.293 175.976 269.559 168.778 254.548 167.186L210.359 162.545L218.605 152.862L262.794 157.503C277.804 159.095 291.537 166.293 300.982 177.518C310.426 188.742 314.81 203.076 313.171 217.375C311.745 229.811 305.828 241.389 296.431 250.13Z" fill="white" stroke="#11141C" stroke-width="2" stroke-miterlimit="10"/>
<path d="M159.589 247.113L136.709 244.273L135.482 258.031L106.107 260.932" stroke="#11141C" stroke-width="2" stroke-miterlimit="10"/>
<path d="M160.681 254.954L135.058 267.973L138.445 280.847L115.081 293.848" stroke="#11141C" stroke-width="2" stroke-miterlimit="10"/>
<path d="M170.319 170.782L147.34 168.806L149.29 155.126L121.286 146.198" stroke="#11141C" stroke-width="2" stroke-miterlimit="10"/>
<path d="M173.177 163.356L151.148 145.332L157.399 133.47L137.571 115.932" stroke="#11141C" stroke-width="2" stroke-miterlimit="10"/>
<path d="M392.413 140.489C384.962 169.633 365.473 195.78 360.59 199.386C348.773 208.113 327.52 222.454 317.291 227.183C313.509 228.932 302.766 199.943 306.745 197.953C319.21 191.722 345.492 176.074 345.927 175.761C348.981 173.559 360.614 160.016 373.463 145.76C386.316 131.497 395.549 128.224 392.413 140.489Z" fill="#FEC5A8"/>
<path d="M406.397 142.575C410.558 148.144 412.226 155.059 411.034 161.799C409.841 168.539 405.887 174.552 400.04 178.515L327.374 227.765L295.994 185.772L368.66 136.521C374.508 132.558 381.768 130.969 388.845 132.105C395.922 133.24 402.236 137.007 406.397 142.575Z" fill="#FF9356"/>
<path d="M302.941 185.143L330.153 221.344" stroke="#11141C" stroke-width="2" stroke-miterlimit="10"/>
<path d="M370.353 173.675L358.207 172.269" stroke="#11141C" stroke-width="2" stroke-miterlimit="10"/>
<path d="M364.164 176.498L355.491 176.156" stroke="#11141C" stroke-width="2" stroke-miterlimit="10"/>
<path d="M381.949 131.596C381.949 131.596 371.969 130.876 343.084 154.065" stroke="#11141C" stroke-width="2" stroke-miterlimit="10"/>
<path d="M265.235 214.876C265.36 218.304 268.954 219.253 268.954 219.253C268.954 219.253 267.444 221.584 268.045 224.151C268.733 227.092 273.878 227.356 273.878 227.356C273.287 229.078 273.255 230.93 273.784 232.67C274.74 235.422 279.892 236.392 279.892 236.392C279.892 236.392 280.385 239.354 282.899 241.114C285.665 243.052 294.769 241.203 299.593 239.406C304.416 237.609 316.329 228.209 318.791 226.636L307.139 200.593L304.568 197.137C304.568 197.137 282.909 199.252 277.552 202.132C273.04 204.558 265.095 211.028 265.235 214.876Z" fill="#FEC5A8"/>
<path d="M268.953 219.253C268.953 219.253 278.771 215.312 283.536 212.936" stroke="#FF8168" stroke-width="2" stroke-miterlimit="10"/>
<path d="M273.878 227.357L288.981 221.253" stroke="#FF8168" stroke-width="2" stroke-miterlimit="10"/>
<path d="M279.892 236.393L294.085 229.463" stroke="#FF8168" stroke-width="2" stroke-miterlimit="10"/>
<path d="M365.539 201.809L399.063 179.095C404.72 175.317 408.802 169.765 410.595 163.41C412.126 157.962 411.676 152.181 409.319 147.007" stroke="#11141C" stroke-width="2" stroke-miterlimit="10"/>
<path d="M340.966 154.353L313.14 175.092" stroke="#11141C" stroke-width="2" stroke-miterlimit="10"/>
<path d="M0 453.452L460 453.538" stroke="#080403" stroke-width="2" stroke-miterlimit="10"/>
<path d="M96.6112 112.17L97.0811 109.937C97.695 107.019 96.026 104.678 94.322 102.186C91.5005 98.0844 90.4937 93.048 91.5207 88.1725C93.6915 77.8561 104.221 71.0677 115.039 73.0103C125.857 74.9528 132.867 84.8908 130.696 95.2072C129.672 100.083 126.696 104.405 122.417 107.231C119.826 108.952 117.767 110.526 117.154 113.444L116.671 115.739L96.6112 112.17Z" fill="#FF9356"/>
<path d="M117.662 91.5243L117.449 91.4862C116.378 91.2951 115.265 91.5224 114.354 92.1182C113.443 92.7141 112.809 93.6298 112.59 94.6645L112.173 96.6442L108.629 96.0078L109.046 94.0281C109.262 92.9929 109.045 91.9242 108.442 91.0565C107.839 90.1887 106.899 89.5927 105.828 89.3993L105.616 89.3611C104.545 89.17 103.432 89.3973 102.52 89.9932C101.609 90.589 100.975 91.5047 100.756 92.5394L100.748 92.5751C100.532 93.6102 100.749 94.6789 101.352 95.5467C101.955 96.4144 102.895 97.0104 103.965 97.2038L106.192 97.6037L103.453 110.62C103.405 110.877 103.463 111.14 103.615 111.353C103.766 111.566 103.999 111.712 104.264 111.759C104.529 111.807 104.805 111.752 105.032 111.607C105.258 111.462 105.419 111.238 105.478 110.983L108.217 97.9673L111.761 98.6037L109.022 111.62C108.974 111.876 109.032 112.14 109.183 112.353C109.335 112.566 109.568 112.712 109.833 112.759C110.098 112.807 110.373 112.752 110.6 112.607C110.827 112.462 110.988 112.238 111.047 111.983L113.786 98.9673L116.012 99.367C117.083 99.5581 118.196 99.3308 119.107 98.735C120.018 98.1392 120.653 97.2234 120.872 96.1887L120.879 96.1531C121.096 95.1179 120.879 94.0493 120.275 93.1815C119.672 92.3137 118.732 91.7178 117.662 91.5243ZM102.773 92.9387L102.781 92.9031C102.89 92.3872 103.206 91.9306 103.661 91.6335C104.115 91.3364 104.67 91.2231 105.204 91.3184L105.416 91.3566C105.95 91.453 106.419 91.7501 106.719 92.1828C107.02 92.6155 107.128 93.1483 107.02 93.6644L106.604 95.6441L104.378 95.2444C103.844 95.148 103.376 94.8512 103.075 94.419C102.775 93.9869 102.666 93.4545 102.773 92.9387ZM118.847 95.8252C118.738 96.3411 118.422 96.7976 117.967 97.0947C117.513 97.3918 116.958 97.5051 116.424 97.4099L114.197 97.01L114.614 95.0303C114.723 94.5144 115.04 94.0578 115.494 93.7608C115.948 93.4637 116.503 93.3504 117.037 93.4456L117.25 93.4838C117.783 93.5802 118.252 93.8774 118.553 94.3101C118.853 94.7427 118.962 95.2755 118.854 95.7917L118.847 95.8252Z" fill="#F4F4F4"/>
<path d="M117.439 112.985L116.537 117.259L116.123 119.227L116.107 119.305C115.991 119.857 115.764 120.382 115.439 120.852C115.114 121.322 114.698 121.728 114.213 122.045C113.729 122.362 113.186 122.586 112.615 122.702C112.045 122.818 111.458 122.825 110.888 122.723L99.4347 120.663C98.2846 120.456 97.2745 119.816 96.6266 118.882C95.9787 117.949 95.746 116.799 95.9796 115.686L95.9962 115.607L96.4059 113.639L97.2959 109.363L117.439 112.985Z" fill="#080403"/>
<path d="M70.8751 297.774L71.8371 295.916C73.094 293.491 72.2238 291.058 71.3614 288.484C69.9254 284.244 70.2988 279.59 72.4004 275.537C76.8417 266.962 87.6726 263.37 96.5908 267.515C105.509 271.659 109.137 281.972 104.695 290.549C102.596 294.602 98.9397 297.729 94.5216 299.248C91.844 300.176 89.6649 301.096 88.4083 303.522L87.4211 305.43L70.8751 297.774Z" fill="#FF9356"/>
<path d="M94.2708 284.351L94.0954 284.27C93.2119 283.861 92.188 283.81 91.2487 284.129C90.3094 284.448 89.5315 285.111 89.0859 285.972L88.2323 287.619L85.3129 286.257L86.1667 284.612C86.6112 283.752 86.6872 282.763 86.378 281.865C86.0688 280.967 85.3995 280.231 84.5172 279.821L84.3427 279.738C83.4596 279.329 82.4361 279.278 81.497 279.596C80.5579 279.915 79.7797 280.576 79.3333 281.436L79.317 281.465C78.8724 282.326 78.7963 283.314 79.1054 284.213C79.4145 285.111 80.0836 285.847 80.9658 286.258L82.8015 287.109L77.1974 297.928C77.0922 298.143 77.0775 298.387 77.1565 298.609C77.2354 298.83 77.4018 299.01 77.62 299.112C77.8382 299.213 78.0908 299.227 78.3238 299.151C78.5567 299.075 78.7516 298.914 78.8665 298.704L84.469 287.885L87.3906 289.243L81.7877 300.062C81.7324 300.169 81.6992 300.284 81.69 300.403C81.6808 300.521 81.6958 300.639 81.7342 300.75C81.7726 300.862 81.8335 300.965 81.9136 301.053C81.9936 301.141 82.0912 301.212 82.2008 301.263C82.3104 301.314 82.4298 301.343 82.5522 301.349C82.6746 301.356 82.7976 301.338 82.9142 301.299C83.0307 301.259 83.1386 301.198 83.2317 301.119C83.3247 301.04 83.4011 300.944 83.4564 300.837L89.0593 290.019L90.8941 290.871C91.7771 291.28 92.8004 291.331 93.7395 291.012C94.6786 290.694 95.4568 290.033 95.9036 289.173L95.9186 289.144C96.3633 288.283 96.4396 287.295 96.1307 286.397C95.8217 285.498 95.1529 284.763 94.2708 284.351ZM80.987 282.241L81.0018 282.212C81.2245 281.784 81.6125 281.454 82.0807 281.295C82.5489 281.136 83.0591 281.162 83.4994 281.366L83.6748 281.447C84.1146 281.652 84.4482 282.019 84.6023 282.467C84.7564 282.915 84.7184 283.407 84.4966 283.836L83.6436 285.484L81.8079 284.632C81.3679 284.427 81.0343 284.06 80.8804 283.612C80.7265 283.163 80.7648 282.671 80.987 282.241ZM94.2341 288.399C94.0115 288.828 93.6234 289.158 93.155 289.316C92.6867 289.475 92.1764 289.449 91.7361 289.245L89.9008 288.394L90.7547 286.747C90.9774 286.318 91.3654 285.988 91.8336 285.83C92.3018 285.671 92.812 285.696 93.2521 285.901L93.4271 285.982C93.867 286.187 94.2005 286.553 94.3546 287.001C94.5087 287.449 94.4707 287.942 94.2489 288.371L94.2341 288.399Z" fill="#F4F4F4"/>
<path d="M88.7296 303.089L86.8864 306.639L86.039 308.273L86.005 308.338C85.768 308.796 85.4408 309.206 85.0422 309.546C84.6435 309.886 84.1812 310.148 83.6815 310.317C83.1819 310.486 82.6548 310.56 82.1303 310.533C81.6058 310.507 81.0942 310.381 80.6247 310.162L71.1842 305.772C70.2361 305.331 69.5169 304.54 69.185 303.575C68.853 302.609 68.9354 301.547 69.4141 300.622L69.4477 300.556L70.2909 298.92L72.1222 295.365L88.7296 303.089Z" fill="#080403"/>
<path d="M113.227 216.774L111.553 214.534C109.366 211.609 105.774 211.073 102.009 210.442C95.8005 209.418 90.268 206.101 86.6157 201.211C78.885 190.867 81.5416 176.432 92.5498 168.97C103.558 161.508 118.749 163.843 126.48 174.187C130.135 179.075 131.615 185.14 130.597 191.062C129.989 194.656 129.701 197.683 131.887 200.608L133.607 202.909L113.227 216.774Z" fill="#FF9356"/>
<path d="M111.967 182.16L111.75 182.307C110.661 183.047 109.925 184.168 109.703 185.424C109.481 186.68 109.791 187.969 110.565 189.008L112.051 190.995L108.443 193.441L106.958 191.453C106.181 190.416 105.004 189.715 103.685 189.503C102.365 189.292 101.012 189.587 99.9212 190.325L99.7053 190.471C98.6159 191.211 97.8791 192.332 97.657 193.589C97.4349 194.845 97.7455 196.134 98.5206 197.173L98.5473 197.208C99.3238 198.246 100.501 198.947 101.82 199.159C103.14 199.37 104.493 199.075 105.584 198.337L107.849 196.8L117.605 209.854C117.701 209.983 117.823 210.092 117.964 210.177C118.104 210.261 118.261 210.318 118.425 210.344C118.589 210.37 118.757 210.365 118.919 210.33C119.081 210.294 119.234 210.228 119.369 210.136C119.505 210.045 119.62 209.929 119.708 209.795C119.797 209.661 119.856 209.511 119.884 209.355C119.912 209.199 119.906 209.039 119.869 208.885C119.832 208.731 119.763 208.585 119.666 208.456L109.911 195.403L113.518 192.958L123.274 206.011C123.468 206.271 123.763 206.447 124.094 206.5C124.425 206.553 124.764 206.479 125.037 206.294C125.311 206.109 125.495 205.828 125.551 205.513C125.607 205.198 125.529 204.874 125.335 204.614L115.579 191.561L117.844 190.025C118.934 189.285 119.67 188.164 119.893 186.908C120.115 185.651 119.804 184.362 119.029 183.323L119.002 183.288C118.226 182.25 117.049 181.549 115.729 181.337C114.41 181.126 113.057 181.421 111.966 182.16L111.967 182.16ZM100.606 195.812L100.58 195.776C100.193 195.258 100.038 194.616 100.149 193.989C100.26 193.363 100.627 192.804 101.17 192.435L101.387 192.288C101.93 191.921 102.605 191.774 103.262 191.88C103.919 191.985 104.506 192.334 104.893 192.851L106.378 194.838L104.112 196.374C103.569 196.741 102.895 196.888 102.238 196.782C101.582 196.677 100.995 196.328 100.608 195.812L100.606 195.812ZM116.969 184.721C117.354 185.239 117.508 185.881 117.397 186.507C117.287 187.133 116.92 187.691 116.378 188.06L114.112 189.596L112.626 187.609C112.241 187.091 112.087 186.449 112.197 185.823C112.308 185.197 112.675 184.639 113.217 184.27L113.433 184.123C113.977 183.755 114.652 183.608 115.31 183.713C115.968 183.819 116.555 184.168 116.942 184.685L116.969 184.721Z" fill="#F4F4F4"/>
<path d="M131.677 200.316L134.86 204.583L136.326 206.547L136.385 206.626C136.796 207.175 137.089 207.797 137.248 208.455C137.407 209.113 137.428 209.794 137.311 210.46C137.193 211.125 136.939 211.762 136.562 212.335C136.186 212.907 135.695 213.403 135.118 213.794L123.506 221.665C122.34 222.456 120.892 222.773 119.48 222.546C118.069 222.32 116.81 221.569 115.979 220.459L115.921 220.38L114.449 218.421L111.254 214.162L131.677 200.316Z" fill="#080403"/>
</g>
<defs>
<linearGradient id="paint0_linear_636_2066" x1="466.309" y1="3.80312" x2="125.101" y2="532.912" gradientUnits="userSpaceOnUse">
<stop stop-color="white"/>
<stop offset="1" stop-color="white"/>
</linearGradient>
<clipPath id="clip0_636_2066">
<rect width="480" height="456.835" fill="white" transform="translate(560.725 433.833) rotate(169.26)"/>
</clipPath>
<clipPath id="clip1_636_2066">
<rect width="460" height="386.983" fill="white" transform="translate(0 67)"/>
</clipPath>
</defs>
</svg>
