<svg xmlns="http://www.w3.org/2000/svg" width="144" height="39.499" viewBox="0 0 144 39.499">
  <g id="snapchat-1" transform="translate(-170.15 -51.75)">
    <path id="Path_4237" data-name="Path 4237" d="M78.8,32.258a8.991,8.991,0,0,1-8.991,8.991H48.141a8.991,8.991,0,0,1-8.991-8.991V10.741A8.991,8.991,0,0,1,48.141,1.75H69.807A8.991,8.991,0,0,1,78.8,10.741V32.258Z" transform="translate(131 50)" fill="#eee312"/>
    <path id="Path_4238" data-name="Path 4238" d="M81.067,60.616A7.515,7.515,0,0,0,85.8,58.621c.178-.149.381-.291.381-.291,1.622-1.065,4.25-.3,4.25-.3.955.226.983-.5.983-.5l.074-.818c.07-.8,1.3-.793,1.3-.793a2.89,2.89,0,0,0,2.587-1.2c.3-.45-.269-.577-.269-.577a10.324,10.324,0,0,1-5.815-4.81c-.885-1.553.328-2.181.328-2.181a14.8,14.8,0,0,1,1.933-.76c1.324-.531.884-1.454.884-1.454-.491-.991-1.638-.33-1.638-.33a1.984,1.984,0,0,1-.95.264c-.905.017-1.014-.177-1.014-.177l.031-4.3c0-3.932-3.468-7.12-7.747-7.12h-.074c-4.279,0-7.747,3.188-7.747,7.12l.031,4.3s-.109.194-1.014.177a1.984,1.984,0,0,1-.95-.264s-1.146-.661-1.638.33c0,0-.44.922.884,1.454a14.789,14.789,0,0,1,1.933.76s1.212.628.328,2.181a10.322,10.322,0,0,1-5.815,4.81s-.571.127-.269.577a2.89,2.89,0,0,0,2.587,1.2s1.232-.009,1.3.793l.074.818s.028.722.983.5c0,0,2.629-.768,4.25.3,0,0,.2.142.381.291A7.515,7.515,0,0,0,81.1,60.616Z" transform="translate(108.802 24.593)" fill="#fff" stroke="#1a1a1a" stroke-linecap="round" stroke-linejoin="round" stroke-width="0.3"/>
    <path id="Path_4239" data-name="Path 4239" d="M.038,259.871a12.893,12.893,0,0,0,4.714,1.23c1.663,0,2.542-.674,2.542-1.7,0-.977-.76-1.534-2.684-2.208C1.949,256.29.215,254.848.215,252.57c0-2.673,2.28-4.719,6.058-4.719a10,10,0,0,1,4.086.79l.029,3.134A11.916,11.916,0,0,0,6.2,250.757c-1.568,0-2.328.7-2.328,1.511,0,1,.9,1.441,2.969,2.208C9.669,255.5,11,256.94,11,259.149c0,2.627-2.067,4.882-6.461,4.882A10.63,10.63,0,0,1,0,263.054Zm42.037-7.283v1.763c.67-1.242,1.638-1.962,3.725-1.962,2.487,0,4.444,1.924,4.444,5.551,0,4.138-2.476,6.09-5.009,6.09a3.531,3.531,0,0,1-2.952-1.3l-.258-.333V268.8H38.7V252.613Zm-.063,6.387a3.627,3.627,0,0,0,.073.772,2.22,2.22,0,0,0,2.148,1.738c1.593,0,2.535-1.327,2.535-3.33,0-1.882-.845-3.306-2.486-3.306a2.3,2.3,0,0,0-2.2,1.859,2.823,2.823,0,0,0-.073.651Zm19.027,4.538a8.54,8.54,0,0,1-3.161.535c-3.673,0-6.021-2.169-6.021-5.749,0-3.324,2.278-5.9,6.509-5.9a8.188,8.188,0,0,1,2.7.442l-.018,2.707a5.059,5.059,0,0,0-2.516-.568,2.953,2.953,0,0,0-3.22,3.185c0,2.092,1.167,3.185,3.29,3.185a6.941,6.941,0,0,0,2.421-.637Zm8.929-11.123c2.816,0,4.006,1.31,3.975,4.736v6.649H70.489v-6.253c0-1.488-.59-2.51-1.916-2.51a2,2,0,0,0-1.853,1.232,2.25,2.25,0,0,0-.116.791v6.741H63.292v-16.5h3.343v6.99a3.773,3.773,0,0,1,3.333-1.87Zm22.851-3.074v3.322h2.534v2.56H92.819v4.177c0,1.485.247,2,1.395,2a4.48,4.48,0,0,0,1.046-.093l.023,2.424a6.822,6.822,0,0,1-2.3.325,3.425,3.425,0,0,1-2.545-1,4.711,4.711,0,0,1-.976-3.371V255.2h-1.72v-2.56h1.72V250.27Zm-72.913,2.836a4.325,4.325,0,0,0-3.354,1.5v-1.291h-3.5v2.9c0,.249-.008.5-.008.767v7.741h.008v.012l.005-.012h3.6V257.22a2.478,2.478,0,0,1,.143-.884,1.922,1.922,0,0,1,1.829-1.325c1.307,0,1.829,1,1.829,2.464v6.3h3.611v-6.741C24.063,253.686,22.647,252.152,19.906,252.152Zm15.988,11.635v-6.73c0-2.673-1.191-4.9-4.98-4.9a9.687,9.687,0,0,0-4.147.861v2.7a8.334,8.334,0,0,1,3.519-1.028c1.744,0,2.116,1.188,2.116,1.792v.163c-4.022-.023-6.718.946-6.718,3.9a3.484,3.484,0,0,0,3.673,3.487,4.1,4.1,0,0,0,3.255-1.395h.07l-.025,1.139h2.631Zm-3.533-4.018a2.445,2.445,0,0,1-.072.6,1.982,1.982,0,0,1-1.89,1.292,1.286,1.286,0,0,1-1.435-1.338c0-1.361,1.483-1.8,3.4-1.776Zm53.665,4.018v-6.73c0-2.673-1.191-4.9-4.98-4.9a9.687,9.687,0,0,0-4.147.861v2.7a8.334,8.334,0,0,1,3.519-1.028c1.744,0,2.116,1.188,2.116,1.792v.163c-4.022-.023-6.718.946-6.718,3.9a3.484,3.484,0,0,0,3.673,3.487,4.1,4.1,0,0,0,3.255-1.395h.07l-.025,1.139h2.631Zm-3.533-4.018a2.445,2.445,0,0,1-.072.6,1.982,1.982,0,0,1-1.89,1.292,1.286,1.286,0,0,1-1.435-1.338c0-1.361,1.483-1.8,3.4-1.776Z" transform="translate(218.797 -184.091)" fill="#1a1a1a"/>
  </g>
</svg>
