<svg width="1774" height="1389" viewBox="0 0 1774 1389" fill="none" xmlns="http://www.w3.org/2000/svg">
<rect width="1774" height="1389" rx="100" fill="black"/>
<path fill-rule="evenodd" clip-rule="evenodd" d="M553.989 867.534C276.705 865.929 152.699 681.648 154.002 476.702C155.205 271.857 281.216 90.4851 558.501 92.1904C731.728 93.0933 845.108 164.819 905.557 268.546C966.507 163.315 1081.49 90.9866 1256.92 91.9898C1534.11 93.6952 1658.11 276.471 1657.01 481.317C1655.81 686.363 1529.6 869.039 1252.41 867.534C1079.19 866.431 965.806 794.103 905.457 689.975C844.406 795.608 729.523 868.538 553.989 867.534ZM557.298 296.936C450.735 296.334 435.798 400.161 435.397 478.307C434.996 556.554 448.529 661.986 555.092 662.689C661.655 663.291 676.592 558.059 677.093 479.712C677.494 401.465 663.861 297.538 557.298 296.936ZM1255.82 296.936C1149.26 296.234 1134.32 400.061 1133.92 478.307C1133.42 556.554 1147.05 661.986 1253.72 662.588C1360.18 663.291 1375.12 557.959 1375.62 479.712C1376.02 401.465 1362.38 297.538 1255.82 296.936ZM259.563 867.534C459.356 956.916 666.668 996.641 892.625 997.945C1130.01 999.35 1310.06 954.509 1537.92 867.534L1536.61 1113.71C1332.61 1214.93 1111.47 1269.6 891.021 1268.3C650.828 1266.89 477.801 1217.54 258.059 1113.71L259.563 867.534Z" fill="white"/>
</svg>
