<svg width="400" height="387" viewBox="0 0 400 387" fill="none" xmlns="http://www.w3.org/2000/svg">
<g clip-path="url(#clip0_244_1004)">
<path d="M69.0339 325.602C34.8152 298.175 9.97144 261.748 2.47144 222.75C-4.55981 183.752 6.22144 142.182 29.1902 108.327C51.6902 74.0429 87.3152 47.4729 126.221 37.6162C165.128 27.7596 207.784 34.1878 252.784 44.9016C297.784 55.6153 344.659 71.0431 372.315 102.327C399.503 133.611 407.471 181.18 393.409 219.75C379.346 258.748 342.784 288.746 305.284 315.745C267.784 342.315 229.346 365.885 188.096 368.457C146.846 371.028 103.721 352.6 69.0339 325.602Z" fill="url(#paint0_linear_244_1004)"/>
<path d="M143.318 12.999H92.1889C90.822 12.999 89.7139 14.1071 89.7139 15.474V66.603C89.7139 67.9699 90.822 69.078 92.1889 69.078H143.318C144.685 69.078 145.793 67.9699 145.793 66.603V15.474C145.793 14.1071 144.685 12.999 143.318 12.999Z" fill="#F0F0F0"/>
<path d="M134.138 26.841H134.075C132.176 26.841 130.637 26.958 130.637 27.111C131.642 27.3615 132.681 27.4527 133.715 27.381C133.544 27.561 133.292 27.822 132.977 28.173L130.277 31.233L121.277 41.565L117.488 39C116.813 38.559 116.147 38.1 115.526 37.695L115.319 37.569L115.166 37.749C111.161 42.429 107.615 46.614 105.086 49.638L102.125 53.238C101.743 53.6565 101.4 54.1083 101.099 54.588C101.519 54.2202 101.913 53.8232 102.278 53.4L105.365 49.926C107.93 47.001 111.467 42.924 115.418 38.325L117.218 39.504L121.205 42.15L121.403 42.285L121.556 42.105L130.556 31.476L133.157 28.317C133.499 27.903 133.733 27.597 133.877 27.417H133.922C133.845 28.4593 133.933 29.5071 134.183 30.522C134.336 30.522 134.453 29.019 134.462 27.147V26.877L134.138 26.841Z" fill="#E0E0E0"/>
<path d="M276.221 50.43H303.653C303.653 55.8292 302.061 61.1084 299.074 65.6063C296.087 70.1042 291.84 73.6208 286.863 75.7154C281.887 77.8101 276.403 78.3897 271.099 77.3816C265.795 76.3735 260.906 73.8225 257.045 70.0483C253.184 66.2741 250.523 61.4445 249.395 56.1646C248.266 50.8846 248.721 45.3891 250.702 40.3665C252.684 35.3439 256.103 31.0176 260.532 27.9296C264.961 24.8416 270.202 23.1292 275.6 23.007L276.221 50.43Z" fill="#F0F0F0"/>
<path d="M283.61 43.743L282.998 16.311C290.326 16.308 297.382 19.0835 302.744 24.078C307.877 29.1888 310.845 36.0793 311.033 43.32L283.61 43.743Z" fill="#EBEBEB"/>
<path d="M292.052 164.803C291.873 170.778 292.21 189 292.21 189L297.477 183.666H327.125C327.623 183.663 328.1 183.46 328.452 183.102C328.803 182.745 329 182.261 329 181.756V164.899C329 164.395 328.803 163.912 328.451 163.556C328.099 163.2 327.622 163 327.125 163H293.938C293.455 162.997 292.989 163.182 292.638 163.518C292.287 163.854 292.077 164.314 292.052 164.803Z" fill="#EBEBEB"/>
<path d="M300.332 170.544C300.33 170.779 300.259 171.007 300.127 171.202C299.996 171.396 299.81 171.547 299.592 171.635C299.375 171.724 299.137 171.746 298.907 171.699C298.677 171.652 298.466 171.538 298.301 171.372C298.136 171.205 298.023 170.994 297.978 170.763C297.933 170.533 297.957 170.295 298.047 170.078C298.138 169.862 298.29 169.677 298.485 169.547C298.68 169.416 298.909 169.347 299.144 169.347C299.301 169.347 299.456 169.378 299.601 169.438C299.745 169.499 299.877 169.587 299.987 169.698C300.098 169.809 300.185 169.941 300.244 170.087C300.303 170.232 300.333 170.387 300.332 170.544Z" fill="#E0E0E0"/>
<path d="M304.346 170.544C304.346 170.781 304.276 171.013 304.144 171.21C304.012 171.407 303.824 171.56 303.605 171.651C303.386 171.741 303.145 171.764 302.912 171.717C302.68 171.67 302.467 171.555 302.3 171.387C302.133 171.219 302.019 171.005 301.974 170.772C301.929 170.539 301.954 170.298 302.046 170.08C302.138 169.861 302.293 169.675 302.491 169.544C302.689 169.414 302.921 169.345 303.158 169.347C303.315 169.347 303.47 169.378 303.615 169.438C303.76 169.499 303.891 169.587 304.001 169.698C304.112 169.809 304.199 169.941 304.258 170.087C304.317 170.232 304.347 170.387 304.346 170.544Z" fill="#E0E0E0"/>
<path d="M308.36 170.544C308.36 170.781 308.29 171.012 308.158 171.209C308.027 171.406 307.84 171.559 307.621 171.65C307.402 171.74 307.161 171.764 306.929 171.718C306.697 171.672 306.484 171.558 306.316 171.39C306.149 171.223 306.035 171.01 305.989 170.778C305.943 170.545 305.966 170.305 306.057 170.086C306.148 169.867 306.301 169.68 306.498 169.549C306.695 169.417 306.926 169.347 307.163 169.347C307.48 169.347 307.785 169.473 308.009 169.698C308.234 169.922 308.36 170.227 308.36 170.544Z" fill="#E0E0E0"/>
<path d="M387.659 376.59C387.659 376.716 303.635 376.824 200.009 376.824C96.3828 376.824 12.3408 376.716 12.3408 376.59C12.3408 376.464 96.3468 376.356 200.009 376.356C303.671 376.356 387.659 376.5 387.659 376.59Z" fill="#263238"/>
<path d="M316.415 150.249C316.597 150.226 316.777 150.19 316.955 150.141C317.206 150.053 317.435 149.911 317.625 149.724C317.815 149.538 317.961 149.311 318.053 149.061C318.162 148.678 318.196 148.278 318.152 147.882C318.152 147.441 318.152 146.982 318.152 146.433C318.152 145.38 318.152 144.174 318.152 142.833C318.152 137.37 318.107 129.486 318.071 119.766C318.071 114.888 318.071 109.56 318.071 103.836C318.071 100.965 318.071 98.004 318.071 94.953C318.071 93.432 318.071 91.884 318.071 90.318C318.071 89.553 318.071 88.707 318.071 87.987C318.012 87.6363 317.835 87.3159 317.57 87.0787C317.305 86.8416 316.968 86.7016 316.613 86.682H274.637C274.229 86.6818 273.837 86.8406 273.545 87.1247C273.252 87.4087 273.082 87.7955 273.071 88.203C273.071 89.103 273.071 90.003 273.071 90.957V107.112C273.071 114.123 273.071 120.882 273.071 127.326C273.071 133.77 273.071 139.926 273.071 145.605V147.738C273.043 148.076 273.043 148.417 273.071 148.755C273.123 149.061 273.267 149.344 273.485 149.565C273.699 149.791 273.974 149.951 274.277 150.024C274.598 150.072 274.924 150.087 275.249 150.069H284.906L307.973 150.15L314.273 150.195H315.902H316.46C316.46 150.195 316.271 150.195 315.902 150.195H314.273L307.973 150.24L284.906 150.312H277.265H275.249C274.894 150.333 274.537 150.315 274.187 150.258C273.814 150.174 273.475 149.98 273.215 149.7C272.944 149.423 272.762 149.072 272.693 148.692C272.666 148.332 272.666 147.972 272.693 147.612V145.479C272.693 139.755 272.693 133.635 272.693 127.2C272.693 120.765 272.693 113.997 272.693 106.986C272.693 103.488 272.693 99.924 272.693 96.294V90.831C272.693 89.931 272.693 89.031 272.693 88.059C272.709 87.5305 272.93 87.0292 273.31 86.6613C273.69 86.2934 274.198 86.0877 274.727 86.088H316.64C317.09 86.1164 317.517 86.2964 317.852 86.5987C318.187 86.9011 318.41 87.3079 318.485 87.753C318.548 88.653 318.485 89.355 318.485 90.156V94.791C318.485 97.842 318.485 100.803 318.485 103.674C318.485 109.398 318.485 114.726 318.485 119.604C318.485 129.324 318.431 137.208 318.413 142.671C318.413 144.03 318.413 145.236 318.413 146.271C318.413 146.793 318.413 147.279 318.413 147.72C318.447 148.126 318.405 148.536 318.287 148.926C318.189 149.188 318.031 149.424 317.827 149.614C317.622 149.805 317.376 149.945 317.108 150.024C316.902 150.161 316.662 150.239 316.415 150.249Z" fill="#263238"/>
<path d="M298.487 99.039C292.367 97.68 285.644 101.001 283.925 107.31C282.269 113.367 286.274 120.441 292.349 122.088C295.346 122.806 298.501 122.401 301.219 120.95C303.937 119.499 306.03 117.102 307.1 114.213C309.278 107.742 305.129 100.767 298.865 98.706C298.145 98.463 297.857 99.606 298.559 99.84C303.896 101.793 307.73 107.553 306.128 113.34C304.616 118.83 298.181 122.502 292.691 121.044C287.408 119.64 283.997 113.97 284.672 108.687C285.491 102.216 292.34 98.346 298.433 99.399C298.658 99.399 298.757 99.102 298.532 99.057L298.487 99.039Z" fill="#263238"/>
<path d="M292.403 121.899C295.505 122.815 298.844 122.48 301.703 120.967C304.562 119.453 306.716 116.88 307.703 113.799C309.611 107.229 305.354 100.119 298.955 98.166C297.479 97.716 296.948 99.894 298.325 100.434C303.725 102.558 307.325 108.435 305.201 114.204C303.293 119.334 297.677 121.809 292.466 121.224C292.052 121.17 291.998 121.818 292.376 121.926L292.403 121.899Z" fill="#FF9356"/>
<path d="M308 132.663C308 132.789 302.438 132.897 295.562 132.897C288.686 132.897 283.124 132.789 283.124 132.663C283.124 132.537 288.695 132.429 295.562 132.429C302.429 132.429 308 132.537 308 132.663Z" fill="#FF9356"/>
<path d="M308 136.434C308 136.569 302.438 136.668 295.562 136.668C288.686 136.668 283.124 136.569 283.124 136.434C283.124 136.299 288.695 136.2 295.562 136.2C302.429 136.2 308 136.308 308 136.434Z" fill="#FF9356"/>
<path d="M138.439 47.28V130.494C138.442 131.381 138.795 132.231 139.423 132.859C140.05 133.486 140.9 133.84 141.787 133.842H252.631C253.519 133.84 254.369 133.486 254.996 132.859C255.624 132.231 255.977 131.381 255.979 130.494V44.4C255.98 43.9527 255.89 43.5098 255.716 43.0976C255.542 42.6855 255.288 42.3123 254.967 42.0002C254.647 41.6881 254.267 41.4434 253.85 41.2806C253.434 41.1177 252.989 41.04 252.541 41.052L141.697 43.932C140.826 43.9577 139.999 44.3215 139.391 44.9463C138.783 45.5712 138.441 46.4081 138.439 47.28Z" fill="#E0E0E0"/>
<path d="M246.079 61.842C246.079 61.932 244.666 61.131 241.984 60.285C238.182 59.0993 234.16 58.7916 230.221 59.385C227.53 59.8109 224.924 60.6614 222.499 61.905C219.731 63.3931 217.169 65.2357 214.876 67.386C212.374 69.6 209.89 72.102 207.028 74.415C204.11 76.9041 200.695 78.7448 197.011 79.815C195.102 80.3079 193.116 80.427 191.161 80.166C189.287 79.8832 187.467 79.3189 185.761 78.492C182.639 76.8627 179.61 75.0599 176.689 73.092C174.072 71.3557 171.186 70.0633 168.148 69.267C165.5 68.6244 162.764 68.4147 160.048 68.646C156.085 68.9759 152.249 70.2073 148.834 72.246C146.431 73.722 145.297 74.82 145.234 74.748C145.476 74.454 145.748 74.1856 146.044 73.947C146.859 73.2148 147.732 72.5496 148.654 71.958C151.538 70.0963 154.766 68.8327 158.147 68.2421C161.528 67.6515 164.993 67.746 168.337 68.52C171.46 69.2996 174.429 70.5987 177.121 72.363C180.025 74.2921 183.029 76.0646 186.121 77.673C189.421 79.3541 193.214 79.7979 196.813 78.924C200.377 77.8745 203.679 76.0868 206.506 73.677C209.332 71.418 211.825 68.925 214.363 66.711C216.721 64.5356 219.354 62.6778 222.193 61.185C224.695 59.9722 227.375 59.1671 230.131 58.8C234.151 58.2379 238.247 58.6358 242.083 59.961C243.12 60.3141 244.129 60.7474 245.098 61.257C245.445 61.4176 245.773 61.6137 246.079 61.842Z" fill="#455A64"/>
<path d="M175.466 81.39H164.621V110.712H175.466V81.39Z" fill="#455A64"/>
<path d="M221.474 81.39H210.629V110.712H221.474V81.39Z" fill="#455A64"/>
<path d="M236.801 64.173H225.956V110.712H236.801V64.173Z" fill="#455A64"/>
<path d="M161.435 101.478H150.59V111.342H161.435V101.478Z" fill="#455A64"/>
<path d="M190.802 94.629H179.957V110.712H190.802V94.629Z" fill="#455A64"/>
<path d="M206.138 90.939H195.293V110.712H206.138V90.939Z" fill="#455A64"/>
<path d="M175.898 114.168C175.898 114.411 173.279 114.6 170.039 114.6C166.799 114.6 164.18 114.411 164.18 114.168C164.18 113.925 166.808 113.736 170.039 113.736C173.27 113.736 175.898 113.925 175.898 114.168Z" fill="#263238"/>
<path d="M162.406 114.168C162.406 114.411 159.778 114.6 156.547 114.6C153.316 114.6 150.688 114.411 150.688 114.168C150.688 113.925 153.316 113.736 156.547 113.736C159.778 113.736 162.406 113.925 162.406 114.168Z" fill="#263238"/>
<path d="M238.942 114.168C238.942 114.411 235.972 114.6 232.318 114.6C228.664 114.6 225.694 114.411 225.694 114.168C225.694 113.925 228.655 113.736 232.318 113.736C235.981 113.736 238.942 113.925 238.942 114.168Z" fill="#263238"/>
<path d="M216.209 114.6C219.867 114.6 222.833 114.407 222.833 114.168C222.833 113.929 219.867 113.736 216.209 113.736C212.551 113.736 209.585 113.929 209.585 114.168C209.585 114.407 212.551 114.6 216.209 114.6Z" fill="#263238"/>
<path d="M206.129 114.168C206.129 114.411 203.51 114.6 200.27 114.6C197.03 114.6 194.42 114.411 194.42 114.168C194.42 113.925 197.039 113.736 200.27 113.736C203.501 113.736 206.129 113.925 206.129 114.168Z" fill="#263238"/>
<path d="M190.289 114.168C190.289 114.411 187.661 114.6 184.43 114.6C181.199 114.6 178.571 114.411 178.571 114.168C178.571 113.925 181.19 113.736 184.43 113.736C187.67 113.736 190.289 113.925 190.289 114.168Z" fill="#263238"/>
<path d="M225.632 150.717H225.812C225.997 150.733 226.177 150.785 226.343 150.87C226.619 151.011 226.846 151.235 226.991 151.509C227.165 151.898 227.23 152.328 227.18 152.751C227.18 154.659 227.18 157.458 227.225 161.049C227.27 164.64 227.225 169.068 227.27 174.189C227.27 176.757 227.27 179.493 227.27 182.397V185.7C227.321 186.109 227.246 186.524 227.054 186.888C226.84 187.264 226.488 187.542 226.073 187.662C225.672 187.734 225.264 187.758 224.858 187.734H222.5L222.662 187.572C222.662 190.164 222.662 192.972 222.662 195.87V196.347L222.347 195.987L214.994 187.698L215.138 187.761H139.34H134.039C133.742 187.761 133.481 187.761 133.139 187.761C132.81 187.72 132.498 187.59 132.239 187.383C131.979 187.167 131.783 186.884 131.672 186.564C131.622 186.4 131.595 186.231 131.591 186.06V166.89C131.591 162.435 131.591 158.052 131.591 153.768V152.148C131.601 151.847 131.69 151.553 131.848 151.296C132.005 151.039 132.227 150.827 132.491 150.681C132.771 150.545 133.08 150.48 133.391 150.492H141.977L185.51 150.546L214.85 150.618L222.833 150.663H214.85L185.51 150.735L141.977 150.789H133.4C133.17 150.773 132.939 150.819 132.734 150.924C132.532 151.028 132.36 151.183 132.237 151.374C132.114 151.566 132.043 151.786 132.032 152.013V166.89C132.032 171.348 132.032 175.881 132.032 180.489V185.7C132.009 185.969 132.03 186.239 132.095 186.501C132.168 186.735 132.309 186.942 132.5 187.095C132.693 187.252 132.927 187.349 133.175 187.374H139.331H215.129H215.219L215.273 187.437L222.608 195.753L222.293 195.87C222.293 192.963 222.293 190.164 222.293 187.572V187.401H224.849C225.224 187.428 225.602 187.413 225.974 187.356C226.307 187.257 226.59 187.035 226.766 186.735C226.946 186.421 227.028 186.061 227 185.7C227 185.322 227 184.944 227 184.575V182.361C227 179.454 227 176.718 227 174.153C227 169.032 227 164.622 227 161.013C227 157.404 227 154.623 227 152.715C227.058 152.307 227.005 151.89 226.847 151.509C226.712 151.244 226.502 151.025 226.244 150.879C226.05 150.791 225.843 150.736 225.632 150.717Z" fill="#263238"/>
<path d="M136.631 181.083C137.387 178.446 138.269 175.755 140.024 173.649C141.779 171.543 144.632 170.13 147.287 170.814C151.49 171.894 153.515 177.492 157.808 178.014C160.184 178.338 162.497 176.916 164.027 175.071C165.557 173.226 166.502 170.985 167.672 168.897C169.472 165.756 171.839 162.849 175.07 161.274C178.301 159.699 182.459 159.69 185.285 161.913C190.127 165.729 189.452 174.153 194.609 177.519C195.863 178.308 197.323 178.706 198.804 178.662C200.285 178.619 201.719 178.137 202.925 177.276C205.22 175.575 206.39 172.641 208.802 171.12C211.592 169.32 215.462 170.049 217.991 172.173C220.52 174.297 221.834 177.573 222.311 180.831" fill="#FF9356"/>
<path d="M220.574 165.945C220.501 165.929 220.431 165.902 220.367 165.864L219.773 165.585C218.997 165.255 218.196 164.984 217.379 164.775C214.342 164.123 211.193 164.216 208.199 165.045C206.134 165.605 204.125 166.352 202.196 167.277C200.099 168.249 197.93 169.437 195.617 170.634C193.206 171.938 190.696 173.052 188.111 173.964C185.316 174.953 182.349 175.367 179.39 175.179C176.446 174.901 173.563 174.172 170.84 173.019C168.185 171.957 165.746 170.706 163.424 169.536C158.798 167.16 154.424 165.261 150.572 164.685C147.517 164.128 144.37 164.357 141.428 165.351C140.362 165.752 139.337 166.255 138.368 166.854C138.422 166.798 138.482 166.75 138.548 166.71L139.088 166.323C139.803 165.865 140.563 165.482 141.356 165.18C144.322 164.104 147.517 163.818 150.626 164.352C154.577 164.901 158.969 166.791 163.613 169.149C165.944 170.31 168.383 171.552 171.011 172.596C173.692 173.726 176.53 174.439 179.426 174.711C182.324 174.896 185.23 174.492 187.967 173.523C190.53 172.63 193.018 171.538 195.41 170.256C197.732 169.059 199.91 167.889 202.034 166.926C203.989 166.004 206.026 165.266 208.118 164.721C211.162 163.904 214.361 163.864 217.424 164.604C218.541 164.873 219.606 165.326 220.574 165.945Z" fill="#263238"/>
<path d="M180.416 160.203C180.425 160.392 180.378 160.579 180.279 160.74C180.181 160.901 180.037 161.029 179.865 161.107C179.693 161.186 179.502 161.211 179.316 161.18C179.13 161.149 178.957 161.063 178.821 160.932C178.684 160.802 178.589 160.634 178.549 160.45C178.509 160.265 178.525 160.073 178.595 159.898C178.665 159.722 178.786 159.572 178.942 159.466C179.098 159.36 179.283 159.303 179.471 159.303C179.714 159.305 179.946 159.399 180.122 159.566C180.297 159.733 180.403 159.961 180.416 160.203Z" fill="#455A64"/>
<path d="M146.504 164.208C146.504 164.395 146.449 164.578 146.345 164.733C146.241 164.888 146.094 165.01 145.921 165.081C145.748 165.153 145.558 165.171 145.375 165.135C145.192 165.098 145.023 165.008 144.891 164.876C144.759 164.744 144.669 164.576 144.632 164.392C144.596 164.209 144.615 164.019 144.686 163.846C144.758 163.674 144.879 163.526 145.034 163.422C145.19 163.318 145.372 163.263 145.559 163.263C145.685 163.257 145.811 163.277 145.928 163.322C146.046 163.367 146.153 163.436 146.242 163.525C146.331 163.614 146.4 163.721 146.446 163.839C146.491 163.956 146.511 164.082 146.504 164.208Z" fill="#455A64"/>
<path d="M213.986 164.217C213.986 164.406 213.93 164.59 213.825 164.747C213.721 164.904 213.572 165.026 213.397 165.098C213.223 165.171 213.031 165.189 212.846 165.153C212.661 165.116 212.491 165.025 212.358 164.892C212.224 164.758 212.133 164.588 212.096 164.403C212.06 164.218 212.079 164.026 212.151 163.852C212.223 163.678 212.345 163.529 212.502 163.424C212.659 163.319 212.843 163.263 213.032 163.263C213.285 163.263 213.528 163.364 213.707 163.542C213.886 163.721 213.986 163.964 213.986 164.217Z" fill="#455A64"/>
<path d="M277.903 297.669H286.336C290.269 297.669 298.702 287.328 252.946 288.507C222.868 289.281 220.888 293.727 222.409 296.319C222.777 296.908 223.3 297.383 223.921 297.693C224.542 298.003 225.237 298.135 225.928 298.074C226.666 298.02 227.638 298.011 228.79 298.02L228.07 301.188L211.33 375.186L214.246 374.934L226.612 334.2L250.201 333.3L251.551 376.608H255.25L256.15 333.075H256.267L258.76 332.985L279.667 332.175L292.06 376.617H295.606L277.903 297.669ZM228.403 328.395L236.656 301.188L237.556 298.11C241.012 298.11 245.053 298.029 249.103 298.029L250.003 327.729L228.403 328.395ZM259.507 327.423H258.607L256.312 327.495L256.924 297.642H270.1L278.2 326.811L259.507 327.423Z" fill="#DDDDDD"/>
<path d="M202.529 371.505V361.938L219.674 361.83L219.809 376.131L218.747 376.212C214.022 376.518 194.69 377.112 191.522 376.122C187.994 375.033 202.529 371.505 202.529 371.505Z" fill="#FF9356"/>
<path d="M191.116 375.249C191.116 375.411 197.524 375.546 205.435 375.546C213.346 375.546 219.754 375.411 219.754 375.249C219.754 375.087 213.346 374.961 205.435 374.961C197.524 374.961 191.116 375.087 191.116 375.249Z" fill="#263238"/>
<path d="M202.232 373.458C202.376 373.386 202.232 372.882 201.881 372.378C201.53 371.874 201.071 371.613 200.981 371.73C200.891 371.847 201.098 372.261 201.44 372.729C201.782 373.197 202.088 373.539 202.232 373.458Z" fill="#263238"/>
<path d="M201.134 374.088C201.287 374.034 201.206 373.467 200.873 372.873C200.54 372.279 200.09 371.91 199.973 371.973C199.856 372.036 200.063 372.567 200.378 373.116C200.693 373.665 200.981 374.151 201.134 374.088Z" fill="#263238"/>
<path d="M214.588 375.186C214.66 375.186 214.912 374.979 215.281 374.556C215.736 374.011 216.239 373.508 216.784 373.053C217.322 372.627 217.961 372.348 218.638 372.243C219.16 372.171 219.538 372.243 219.538 372.171C219.538 372.099 219.25 371.874 218.638 371.829C217.84 371.823 217.064 372.094 216.442 372.594C215.844 373.072 215.34 373.658 214.957 374.322C214.66 374.808 214.525 375.141 214.588 375.186Z" fill="#263238"/>
<path d="M202.178 371.658C202.097 371.793 202.385 372.126 202.88 372.306C203.375 372.486 203.78 372.423 203.834 372.306C203.888 372.189 203.51 371.955 203.078 371.793C202.646 371.631 202.259 371.523 202.178 371.658Z" fill="#263238"/>
<path d="M202.447 370.74C202.447 370.893 202.888 371.037 203.464 371.037C204.04 371.037 204.508 370.92 204.499 370.767C204.49 370.614 204.031 370.47 203.473 370.461C202.915 370.452 202.465 370.578 202.447 370.74Z" fill="#263238"/>
<path d="M238.699 371.505V361.938L255.844 361.83L255.979 376.131L254.917 376.212C250.192 376.518 230.86 377.112 227.692 376.122C224.173 375.033 238.699 371.505 238.699 371.505Z" fill="#FF9356"/>
<path d="M227.297 375.249C227.297 375.411 233.714 375.546 241.616 375.546C249.518 375.546 255.935 375.411 255.935 375.249C255.935 375.087 249.527 374.961 241.616 374.961C233.705 374.961 227.297 375.087 227.297 375.249Z" fill="#263238"/>
<path d="M238.411 373.458C238.555 373.386 238.411 372.882 238.06 372.378C237.709 371.874 237.25 371.613 237.16 371.73C237.07 371.847 237.286 372.261 237.619 372.729C237.952 373.197 238.267 373.539 238.411 373.458Z" fill="#263238"/>
<path d="M237.313 374.088C237.466 374.034 237.385 373.467 237.052 372.873C236.719 372.279 236.269 371.91 236.152 371.973C236.035 372.036 236.242 372.567 236.557 373.116C236.872 373.665 237.169 374.151 237.313 374.088Z" fill="#263238"/>
<path d="M250.768 375.186C250.84 375.186 251.092 374.979 251.461 374.556C251.916 374.011 252.419 373.508 252.964 373.053C253.502 372.627 254.141 372.348 254.818 372.243C255.34 372.171 255.718 372.243 255.718 372.171C255.718 372.099 255.421 371.874 254.818 371.829C254.02 371.823 253.244 372.094 252.622 372.594C252.024 373.072 251.52 373.658 251.137 374.322C250.84 374.808 250.705 375.141 250.768 375.186Z" fill="#263238"/>
<path d="M238.358 371.658C238.277 371.793 238.574 372.126 239.06 372.306C239.546 372.486 239.96 372.423 240.014 372.306C240.068 372.189 239.69 371.955 239.258 371.793C238.826 371.631 238.448 371.523 238.358 371.658Z" fill="#263238"/>
<path d="M238.628 370.74C238.628 370.893 239.069 371.037 239.645 371.037C240.221 371.037 240.689 370.92 240.68 370.767C240.671 370.614 240.212 370.47 239.654 370.461C239.096 370.452 238.646 370.578 238.628 370.74Z" fill="#263238"/>
<path d="M287.821 199.902C287.119 199.74 286.246 199.83 285.823 199.245C285.4 198.66 285.706 197.976 285.931 197.355C286.684 195.363 286.706 193.169 285.994 191.163C285.484 189.84 284.583 188.704 283.411 187.905C283.583 187.74 283.731 187.552 283.852 187.347C284.185 186.747 284.352 186.07 284.338 185.385C284.361 184.775 284.255 184.168 284.027 183.602C283.799 183.036 283.454 182.524 283.015 182.1C282.63 181.75 282.128 181.557 281.607 181.557C281.086 181.557 280.584 181.75 280.198 182.1C280.055 182.235 279.941 182.397 279.863 182.577C279.786 182.758 279.745 182.952 279.745 183.148C279.745 183.345 279.786 183.539 279.863 183.72C279.941 183.9 280.055 184.062 280.198 184.197C280.387 184.351 280.616 184.449 280.858 184.479C281.1 184.51 281.345 184.471 281.566 184.368C281.863 184.215 281.908 184.026 281.908 184.026C281.797 184.132 281.669 184.22 281.53 184.287C281.326 184.359 281.106 184.376 280.893 184.336C280.68 184.297 280.481 184.202 280.315 184.062C280.198 183.94 280.106 183.795 280.048 183.636C279.989 183.477 279.964 183.308 279.974 183.138C279.984 182.969 280.029 182.804 280.107 182.653C280.184 182.502 280.292 182.369 280.423 182.262C280.768 181.975 281.207 181.828 281.655 181.848C282.103 181.868 282.527 182.054 282.844 182.37C283.232 182.769 283.532 183.243 283.727 183.763C283.923 184.284 284.008 184.839 283.978 185.394C283.991 186.009 283.835 186.616 283.528 187.149C283.407 187.349 283.259 187.53 283.087 187.689C282.607 187.399 282.085 187.184 281.539 187.05C280.378 186.771 279.118 186.843 278.056 186.294C277.17 185.788 276.496 184.979 276.157 184.017C276.157 183.918 276.157 183.81 276.157 183.702C276.284 182.137 276.498 180.581 276.796 179.04C276.996 177.543 276.957 176.024 276.679 174.54C276.472 173.274 275.977 172.072 275.233 171.026C274.489 169.981 273.515 169.12 272.386 168.51C271.612 168.128 270.762 167.922 269.899 167.907C269.035 167.891 268.179 168.067 267.391 168.42C266.97 168.613 266.581 168.871 266.239 169.185L266.05 169.383C265.519 169.647 265.049 170.021 264.673 170.481L261.901 195.483L282.232 207.912C283.815 207.859 285.38 207.555 286.867 207.012C287.609 206.729 288.275 206.278 288.812 205.694C289.349 205.11 289.743 204.409 289.963 203.646C290.152 202.866 290.035 202.044 289.637 201.348C289.238 200.652 288.589 200.135 287.821 199.902ZM274.474 173.721C274.119 172.734 273.571 171.828 272.862 171.055C272.153 170.283 271.296 169.659 270.343 169.221C269.017 168.701 267.538 168.727 266.23 169.293C266.594 169.013 266.994 168.783 267.418 168.609C268.184 168.299 269.007 168.158 269.831 168.196C270.656 168.233 271.463 168.448 272.197 168.825C273.262 169.428 274.176 170.264 274.872 171.271C275.567 172.278 276.025 173.43 276.211 174.639C276.463 176.072 276.494 177.535 276.301 178.977C276.184 180.102 275.869 181.236 275.725 182.442C275.614 181.588 275.548 180.729 275.527 179.868C275.523 177.774 275.167 175.697 274.474 173.721Z" fill="#263238"/>
<path d="M268.454 173.685C268.332 173.206 268.053 172.781 267.662 172.479C266.893 172.131 266.019 172.092 265.223 172.371L265.178 166.629L254 157.539L247.979 160.662C246.436 161.464 245.146 162.677 244.25 164.167C243.354 165.657 242.888 167.366 242.903 169.104C242.948 173.73 243.065 180.003 243.371 183.567C243.893 189.687 250.085 190.191 250.085 190.191C250.085 190.191 250.355 192.396 250.535 194.583C250.535 194.583 249.176 212.7 255.548 212.538C260.246 212.421 263.405 202.548 264.737 197.355L265.448 194.502V194.349V194.232L265.313 177.051L265.502 177.249C265.704 177.421 265.953 177.53 266.217 177.562C266.481 177.594 266.749 177.548 266.987 177.429C267.325 177.279 267.629 177.062 267.881 176.791C268.133 176.521 268.328 176.202 268.454 175.854C268.692 175.151 268.692 174.388 268.454 173.685Z" fill="#FFBE9D"/>
<path d="M244.325 173.577C244.326 173.68 244.348 173.782 244.389 173.877C244.43 173.971 244.489 174.057 244.564 174.128C244.639 174.199 244.727 174.255 244.823 174.292C244.92 174.329 245.023 174.346 245.126 174.342C245.333 174.342 245.533 174.259 245.679 174.113C245.826 173.966 245.909 173.767 245.909 173.559C245.909 173.351 245.826 173.152 245.679 173.005C245.533 172.858 245.333 172.776 245.126 172.776C245.02 172.772 244.914 172.79 244.815 172.829C244.716 172.868 244.626 172.927 244.551 173.002C244.476 173.077 244.417 173.167 244.378 173.266C244.339 173.365 244.321 173.471 244.325 173.577Z" fill="#263238"/>
<path d="M243.541 172.749C243.64 172.848 244.207 172.335 245.053 172.272C245.899 172.209 246.538 172.596 246.628 172.479C246.718 172.362 246.556 172.245 246.277 172.065C245.9 171.825 245.454 171.717 245.008 171.759C244.565 171.797 244.145 171.977 243.811 172.272C243.568 172.497 243.487 172.704 243.541 172.749Z" fill="#263238"/>
<path d="M253.415 173.307C253.415 173.515 253.498 173.714 253.644 173.861C253.791 174.008 253.99 174.09 254.198 174.09C254.406 174.09 254.605 174.008 254.752 173.861C254.899 173.714 254.981 173.515 254.981 173.307C254.981 173.099 254.899 172.9 254.752 172.753C254.605 172.607 254.406 172.524 254.198 172.524C253.99 172.524 253.791 172.607 253.644 172.753C253.498 172.9 253.415 173.099 253.415 173.307Z" fill="#263238"/>
<path d="M252.911 172.47C253.01 172.569 253.577 172.065 254.423 171.993C255.269 171.921 255.908 172.317 255.998 172.209C256.088 172.101 255.926 171.966 255.647 171.786C255.266 171.556 254.823 171.452 254.38 171.489C253.937 171.526 253.517 171.703 253.181 171.993C252.938 172.2 252.857 172.425 252.911 172.47Z" fill="#263238"/>
<path d="M250.021 179.724C249.566 179.819 249.1 179.855 248.636 179.832C248.513 179.849 248.389 179.849 248.267 179.832C248.186 179.815 248.111 179.779 248.046 179.728C247.982 179.676 247.931 179.61 247.898 179.535C247.812 179.238 247.831 178.92 247.952 178.635L248.465 176.835C248.856 175.298 249.364 173.794 249.986 172.335C249.712 173.895 249.321 175.433 248.815 176.934L248.276 178.734C248.175 178.944 248.14 179.179 248.177 179.409C248.222 179.562 248.42 179.589 248.636 179.589C249.102 179.568 249.568 179.614 250.021 179.724Z" fill="#263238"/>
<path d="M252.946 180.408C253 180.345 250.507 181.911 248.788 181.956C249.106 182.378 249.558 182.679 250.07 182.812C250.581 182.944 251.122 182.899 251.605 182.685C252.074 182.544 252.473 182.232 252.722 181.809C252.971 181.387 253.051 180.887 252.946 180.408Z" fill="#FAFAFA"/>
<path d="M250.049 190.2C252.957 190.008 255.749 188.987 258.095 187.257C258.095 187.257 256.367 191.802 250.22 191.694L250.049 190.2Z" fill="#EB996E"/>
<path d="M242.011 169.842C244.711 170.211 246.646 169.482 249.256 168.825C251.866 168.168 254.35 166.449 255.259 163.911C255.572 165.589 256.345 167.147 257.491 168.411C257.734 168.681 258.202 168.933 258.391 168.636C258.432 168.549 258.453 168.453 258.453 168.357C258.453 168.261 258.432 168.165 258.391 168.078L257.851 165.936C258.776 167.625 259.977 169.146 261.406 170.436C262.9 171.633 267.445 173.487 266.752 171.705C266.581 171.255 268.102 157.377 254.908 157.17C241.714 156.963 242.011 169.842 242.011 169.842Z" fill="#263238"/>
<path d="M265.393 173.793C265.348 173.793 265.619 173.478 266.186 173.496C266.475 173.519 266.751 173.625 266.98 173.803C267.21 173.98 267.383 174.22 267.478 174.494C267.574 174.768 267.588 175.063 267.518 175.345C267.448 175.626 267.298 175.881 267.086 176.079C266.835 176.298 266.518 176.428 266.186 176.448C265.619 176.448 265.357 176.178 265.393 176.142C265.429 176.106 265.717 176.205 266.149 176.142C266.418 176.094 266.661 175.953 266.836 175.744C267.011 175.536 267.107 175.272 267.107 174.999C267.107 174.726 267.011 174.463 266.836 174.254C266.661 174.045 266.418 173.904 266.149 173.856C265.699 173.73 265.42 173.865 265.393 173.793Z" fill="#EB996E"/>
<path d="M287.299 216.903L289.567 216.444C289.567 216.444 284.626 194.232 267.454 194.232H265.429V194.34V194.493L264.718 197.346C263.386 202.539 260.218 212.412 255.529 212.529C249.58 212.682 250.372 196.941 250.498 194.817C250.349 194.834 250.204 194.874 250.066 194.934C250.066 194.934 231.391 195.969 223.066 212.349L237.466 222.87L240.985 220.746C240.985 220.746 242.137 243.912 240.157 250.221C237.925 257.349 234.469 265.242 234.469 265.242C250.3 264.009 268.309 264.72 287.506 266.493L274.699 219.468C279.003 219.24 283.249 218.375 287.299 216.903Z" fill="#FF9356"/>
<path d="M271.892 228C271.892 228 271.775 228.207 271.487 228.504C271.072 228.913 270.617 229.278 270.128 229.593C268.491 230.66 266.564 231.194 264.611 231.123C262.658 231.052 260.775 230.379 259.22 229.197C258.751 228.85 258.322 228.452 257.942 228.009C257.672 227.694 257.555 227.496 257.582 227.478C257.609 227.46 258.221 228.126 259.382 228.927C260.922 229.987 262.732 230.586 264.6 230.655C266.468 230.724 268.317 230.258 269.93 229.314C271.199 228.612 271.829 228 271.892 228Z" fill="#263238"/>
<path d="M280.208 240.375C280.042 240.017 279.912 239.643 279.821 239.259C279.569 238.449 279.263 237.459 278.921 236.199C278.147 233.616 277.121 230.043 275.843 226.128C274.565 222.213 273.413 218.667 272.549 216.111C272.153 214.905 271.811 213.888 271.541 213.078C271.392 212.717 271.286 212.339 271.226 211.953C271.421 212.294 271.583 212.653 271.712 213.024C272 213.717 272.396 214.734 272.864 216.003C273.809 218.532 275.042 222.051 276.284 225.984C277.526 229.917 278.552 233.499 279.236 236.109C279.578 237.414 279.848 238.476 280.01 239.214C280.12 239.592 280.186 239.982 280.208 240.375Z" fill="#263238"/>
<path d="M274.637 204.852C273.83 204.835 273.039 204.621 272.333 204.231C271.566 203.984 270.866 203.562 270.29 202.998C271.069 203.15 271.819 203.424 272.513 203.808C273.27 204.047 273.986 204.399 274.637 204.852Z" fill="#263238"/>
<path d="M279.064 212.556C279.117 211.651 279.327 210.761 279.685 209.928C279.9 209.044 280.265 208.204 280.765 207.444C280.701 208.349 280.489 209.237 280.135 210.072C279.922 210.955 279.559 211.795 279.064 212.556Z" fill="#263238"/>
<path d="M263.647 218.1C263.845 217.275 264.17 216.485 264.61 215.76C264.913 214.965 265.331 214.219 265.852 213.546C265.511 215.225 264.752 216.791 263.647 218.1Z" fill="#263238"/>
<path d="M260.858 222.978C260.056 222.559 259.355 221.969 258.806 221.25C258.142 220.631 257.626 219.871 257.294 219.027C258.59 220.253 259.794 221.573 260.894 222.978H260.858Z" fill="#263238"/>
<path d="M272 222.24C271.532 223.215 270.877 224.09 270.074 224.814C269.405 225.535 268.66 226.181 267.851 226.74L267.185 227.145L267.707 226.614C267.833 226.488 267.914 226.434 267.941 226.452C267.968 226.47 267.941 226.569 267.869 226.722L267.725 226.596C268.04 226.218 268.841 225.435 269.741 224.49C270.423 223.672 271.179 222.919 272 222.24Z" fill="#263238"/>
<path d="M274.421 238.305C273.529 238.154 272.683 237.804 271.946 237.279C271.127 236.887 270.409 236.311 269.849 235.596C270.672 235.931 271.454 236.36 272.18 236.874C272.984 237.255 273.736 237.736 274.421 238.305Z" fill="#263238"/>
<path d="M263.143 234.633C262.838 235.494 262.384 236.296 261.802 237C261.346 237.792 260.762 238.504 260.074 239.106C260.375 238.243 260.829 237.441 261.415 236.739C261.872 235.947 262.455 235.235 263.143 234.633Z" fill="#263238"/>
<path d="M255.746 235.362C255.044 235.103 254.404 234.702 253.865 234.183C252.902 233.436 252.191 232.743 252.272 232.644C252.353 232.545 253.172 233.067 254.153 233.814C255.134 234.561 255.8 235.254 255.746 235.362Z" fill="#263238"/>
<path d="M251.74 224.4C251.812 224.508 251.11 225.138 250.165 225.813C249.22 226.488 248.365 226.947 248.365 226.839C248.365 226.731 248.986 226.101 249.931 225.426C250.458 224.965 251.074 224.616 251.74 224.4Z" fill="#263238"/>
<path d="M250.211 218.847C250.112 218.928 249.464 218.244 248.762 217.326C248.06 216.408 247.583 215.589 247.682 215.526C247.781 215.463 248.438 216.138 249.131 217.056C249.824 217.974 250.319 218.775 250.211 218.847Z" fill="#263238"/>
<path d="M266.258 204.087C266.408 203.305 266.714 202.561 267.158 201.9C267.467 201.166 267.913 200.497 268.472 199.929C268.319 200.713 268.013 201.459 267.572 202.125C267.265 202.858 266.818 203.524 266.258 204.087Z" fill="#263238"/>
<path d="M246.206 205.023C245.377 204.779 244.597 204.392 243.902 203.88C243.129 203.493 242.431 202.972 241.841 202.341C242.674 202.574 243.456 202.961 244.145 203.484C244.919 203.868 245.618 204.389 246.206 205.023Z" fill="#263238"/>
<path d="M235.703 202.332C235.82 202.395 235.487 203.169 234.965 204.042C234.443 204.915 233.93 205.59 233.813 205.518C233.696 205.446 234.038 204.69 234.56 203.808C235.082 202.926 235.595 202.269 235.703 202.332Z" fill="#263238"/>
<path d="M246.628 263.1C245.099 262.473 243.705 261.556 242.524 260.4C243.317 260.65 244.056 261.047 244.702 261.57C245.429 261.963 246.081 262.481 246.628 263.1Z" fill="#263238"/>
<path d="M276.707 259.878C276.806 259.968 276.149 260.832 275.24 261.822C274.331 262.812 273.53 263.532 273.44 263.442C273.35 263.352 273.998 262.488 274.907 261.498C275.816 260.508 276.617 259.788 276.707 259.878Z" fill="#263238"/>
<path d="M256.267 263.253C256.231 262.053 256.231 260.853 256.267 259.653C256.384 259.653 256.708 260.418 256.708 261.453C256.778 262.086 256.622 262.724 256.267 263.253Z" fill="#263238"/>
<path d="M266.906 263.424C266.114 263.21 265.369 262.85 264.71 262.362C263.972 262.004 263.31 261.509 262.757 260.904C264.288 261.472 265.696 262.327 266.906 263.424Z" fill="#263238"/>
<path d="M287.524 266.502C287.345 266.522 287.164 266.522 286.984 266.502L285.436 266.376L279.766 265.872C274.978 265.458 268.363 264.864 261.037 264.747C253.711 264.63 247.06 264.792 242.263 264.972L236.575 265.215L235.027 265.278C234.848 265.303 234.666 265.303 234.487 265.278L235.018 265.197L236.566 265.053C237.898 264.936 239.842 264.801 242.245 264.657C247.051 264.387 253.693 264.153 261.046 264.297C268.399 264.441 275.014 265.062 279.802 265.557C282.187 265.818 284.122 266.043 285.454 266.214L286.993 266.421C287.173 266.426 287.351 266.453 287.524 266.502Z" fill="#263238"/>
<g opacity="0.2">
<path d="M271.208 211.953L275.708 241.878C275.708 241.878 279.875 241.878 280.64 240.636L271.208 211.953Z" fill="black"/>
<path d="M271.208 211.953L275.708 241.878C275.708 241.878 279.875 241.878 280.64 240.636L271.208 211.953Z" fill="black"/>
</g>
<path d="M245.081 264.684C234.488 265.503 228.701 264.774 217.046 265.872C213.108 266.391 209.485 268.303 206.834 271.261C204.183 274.219 202.678 278.029 202.592 282L200.549 370.029H221.96L225.344 291.108L231.644 291.909C230.834 321.465 233.921 370.029 233.921 370.029L257.699 368.868L256.34 293.07C256.34 293.07 288.317 295.239 287.516 266.529C287.525 266.502 262.343 263.451 245.081 264.684Z" fill="#080403"/>
<path d="M251.48 264.459C250.945 264.579 250.404 264.669 249.86 264.729C248.816 264.891 247.304 265.116 245.45 265.458C243.275 265.762 241.145 266.327 239.105 267.141C237.928 267.662 236.839 268.36 235.874 269.211C234.847 270.128 234.014 271.242 233.426 272.487C232.35 274.948 231.828 277.614 231.896 280.299C231.896 282.783 231.986 285.042 231.968 286.932C231.95 288.822 231.887 290.352 231.815 291.432C231.815 291.963 231.743 292.377 231.707 292.647C231.701 292.79 231.68 292.932 231.644 293.07C231.605 292.525 231.605 291.977 231.644 291.432C231.644 290.37 231.644 288.849 231.644 286.932C231.644 285.015 231.536 282.774 231.473 280.299C231.378 277.544 231.904 274.804 233.012 272.28C233.629 270.982 234.502 269.822 235.577 268.869C236.579 267.991 237.711 267.274 238.934 266.745C241.014 265.936 243.188 265.392 245.405 265.125C247.268 264.828 248.798 264.648 249.851 264.549C250.373 264.504 250.751 264.468 251.066 264.459C251.203 264.437 251.343 264.437 251.48 264.459Z" fill="#455A64"/>
<path d="M223.453 285.6C223.916 286.466 224.304 287.369 224.614 288.3C225.073 289.179 225.323 290.153 225.343 291.144C224.88 290.278 224.492 289.375 224.182 288.444C223.719 287.567 223.469 286.592 223.453 285.6Z" fill="#455A64"/>
<path d="M225.2 283.8C225.604 284.957 225.814 286.174 225.821 287.4C225.961 288.638 225.8 289.891 225.353 291.054C225.209 291.054 225.452 289.416 225.353 287.454C225.254 285.492 225.038 283.8 225.2 283.8Z" fill="#455A64"/>
<path d="M254.729 285.465C255.275 286.648 255.636 287.907 255.8 289.2C256.099 290.46 256.295 291.742 256.385 293.034C255.841 291.849 255.489 290.585 255.341 289.29C255.029 288.035 254.824 286.755 254.729 285.465Z" fill="#455A64"/>
<path d="M256.871 285.447C257.407 287.971 257.264 290.592 256.457 293.043C256.466 291.773 256.547 290.505 256.7 289.245C256.691 287.977 256.748 286.709 256.871 285.447Z" fill="#455A64"/>
<path d="M221.411 364.863C221.411 364.989 216.722 365.097 210.935 365.097C205.148 365.097 200.459 364.989 200.459 364.863C200.459 364.737 205.148 364.629 210.935 364.629C216.722 364.629 221.411 364.728 221.411 364.863Z" fill="#455A64"/>
<path d="M257.41 364.467C257.41 364.593 252.073 364.701 245.494 364.701C238.915 364.701 233.578 364.593 233.578 364.467C233.578 364.341 238.915 364.233 245.494 364.233C252.073 364.233 257.41 364.341 257.41 364.467Z" fill="#455A64"/>
<path d="M284.681 279.678H284.384H283.484H280.064L267.464 279.741H258.779C257.182 279.736 255.59 279.917 254.036 280.281C252.398 280.654 250.931 281.563 249.869 282.864C248.862 284.318 248.324 286.045 248.33 287.814C248.24 289.614 248.438 291.495 248.51 293.412C248.606 297.24 248.711 301.185 248.825 305.247C249.284 321.447 249.662 336.126 249.797 346.755C249.869 352.065 249.887 356.367 249.887 359.355C249.887 360.819 249.887 361.962 249.887 362.784C249.887 363.153 249.887 363.441 249.887 363.684C249.901 363.786 249.901 363.888 249.887 363.99C249.875 363.888 249.875 363.786 249.887 363.684C249.887 363.459 249.887 363.171 249.887 362.784C249.887 361.965 249.887 360.822 249.824 359.355C249.761 356.358 249.68 352.065 249.581 346.755C249.356 336.135 248.933 321.456 248.474 305.247C248.366 301.197 248.267 297.246 248.168 293.421C248.096 291.522 247.907 289.641 248.006 287.778C248.004 285.922 248.576 284.112 249.644 282.594C250.766 281.226 252.316 280.275 254.045 279.894C255.635 279.527 257.263 279.346 258.896 279.354H267.581L280.181 279.444L283.601 279.498H284.501C284.567 279.552 284.627 279.612 284.681 279.678Z" fill="#455A64"/>
<path opacity="0.2" d="M229.115 291.558C229.115 291.558 228.287 280.893 232.292 274.764L231.653 291.864L229.115 291.558Z" fill="black"/>
<path d="M230.842 281.415C230.765 281.427 230.686 281.427 230.608 281.415L229.906 281.289C229.285 281.172 228.385 280.992 227.206 280.857C225.787 280.682 224.347 280.768 222.958 281.109C222.098 281.336 221.287 281.717 220.564 282.234C219.772 282.823 219.138 283.599 218.719 284.493C217.819 286.383 217.711 288.75 217.657 291.234C217.603 293.718 217.531 296.4 217.459 299.208C217.306 304.824 217.144 310.998 216.973 317.478C216.595 330.42 216.244 342.138 215.992 350.67C215.848 354.882 215.722 358.311 215.641 360.723C215.587 361.884 215.551 362.802 215.524 363.423C215.524 363.711 215.524 363.945 215.479 364.134C215.491 364.215 215.491 364.296 215.479 364.377C215.465 364.297 215.465 364.214 215.479 364.134C215.479 363.945 215.479 363.711 215.479 363.423C215.479 362.757 215.479 361.839 215.479 360.723C215.524 358.302 215.596 354.882 215.677 350.661C215.893 342.129 216.199 330.411 216.523 317.46C216.712 310.98 216.883 304.815 217.045 299.199C217.126 296.391 217.207 293.718 217.288 291.225C217.369 288.732 217.459 286.32 218.44 284.349C218.892 283.412 219.569 282.602 220.411 281.991C221.165 281.462 222.01 281.077 222.904 280.857C224.329 280.523 225.804 280.461 227.251 280.677C228.43 280.839 229.33 281.055 229.951 281.19L230.644 281.37C230.77 281.379 230.851 281.406 230.842 281.415Z" fill="#455A64"/>
<path d="M229.186 213.528C229.186 213.528 206.587 236.199 202.276 241.266C198.595 245.595 200.998 253.758 204.076 254.109C207.154 254.46 256.978 253.785 256.978 253.785L256.321 243.597C256.321 243.597 224.047 243.741 223.102 243.147C222.157 242.553 241.768 222.726 241.768 222.726L229.186 213.528Z" fill="#FFBE9D"/>
<path d="M288.947 216.489C288.947 216.489 295.814 237.306 296.642 239.763C297.47 242.22 301.736 252.633 293.636 253.506C285.536 254.379 242.066 253.506 242.066 253.506L238.835 242.985C238.835 242.985 280.847 242.877 280.64 240.636C280.433 238.395 274.259 219.594 274.259 219.594L288.947 216.489Z" fill="#FFBE9D"/>
<path d="M197.21 210L212.825 253.254L284.708 253.227L284.213 251.112L257.24 250.122L243.965 209.334L197.21 210Z" fill="#080403"/>
<path d="M229.25 229.692C229.26 230.179 229.13 230.658 228.875 231.074C228.621 231.489 228.253 231.823 227.814 232.035C227.376 232.248 226.886 232.33 226.402 232.273C225.919 232.215 225.462 232.02 225.086 231.711C224.709 231.401 224.43 230.991 224.28 230.527C224.13 230.064 224.116 229.567 224.24 229.096C224.364 228.625 224.62 228.199 224.978 227.869C225.337 227.54 225.782 227.319 226.262 227.235C226.983 227.17 227.701 227.391 228.26 227.851C228.819 228.31 229.175 228.972 229.25 229.692Z" fill="#FAFAFA"/>
<path d="M321.887 252.309H152.075H150.23H148.394V376.5H152.075V259.626H321.887V376.59H365.294V259.626V252.309H321.887Z" fill="#DDDDDD"/>
<path d="M113.055 371.464V362.167L96.4047 362.059L96.2607 375.964L97.2958 376.036C101.895 376.333 120.696 376.936 123.756 375.955C127.203 374.893 113.055 371.464 113.055 371.464Z" fill="#FF9356"/>
<path d="M124.152 375.109C124.152 375.262 117.924 375.388 110.238 375.388C102.552 375.388 96.3242 375.262 96.3242 375.109C96.3242 374.956 102.552 374.821 110.238 374.821C117.924 374.821 124.152 374.947 124.152 375.109Z" fill="#263238"/>
<path d="M113.352 373.363C113.217 373.291 113.352 372.796 113.685 372.319C114.018 371.842 114.486 371.572 114.585 371.68C114.684 371.788 114.468 372.202 114.135 372.652C113.802 373.102 113.487 373.435 113.352 373.363Z" fill="#263238"/>
<path d="M114.414 373.975C114.27 373.921 114.342 373.372 114.675 372.796C115.008 372.22 115.431 371.896 115.575 371.959C115.719 372.022 115.494 372.526 115.188 373.066C114.882 373.606 114.603 374.029 114.414 373.975Z" fill="#263238"/>
<path d="M101.336 375.046C101.273 375.091 101.021 374.848 100.661 374.434C100.224 373.902 99.736 373.413 99.2035 372.976C98.683 372.559 98.0624 372.286 97.4035 372.184C96.8905 372.112 96.5665 372.184 96.5035 372.112C96.4405 372.04 96.7825 371.824 97.4035 371.788C98.1799 371.771 98.9365 372.033 99.5365 372.526C100.115 372.991 100.603 373.559 100.977 374.2C101.274 374.677 101.399 375.001 101.336 375.046Z" fill="#263238"/>
<path d="M113.397 371.617C113.487 371.752 113.199 372.067 112.722 372.247C112.245 372.427 111.822 372.355 111.822 372.202C111.822 372.049 112.137 371.869 112.551 371.716C112.965 371.563 113.316 371.482 113.397 371.617Z" fill="#263238"/>
<path d="M113.136 370.717C113.136 370.87 112.713 371.005 112.146 371.014C111.579 371.023 111.138 370.897 111.147 370.744C111.156 370.591 111.606 370.456 112.146 370.447C112.686 370.438 113.127 370.564 113.136 370.717Z" fill="#263238"/>
<path d="M161.403 94.1922L161.556 91.3752C161.83 89.8158 161.948 88.233 161.907 86.6502C161.905 85.8639 161.765 85.0841 161.493 84.3462C161.195 83.4111 160.771 82.5209 160.233 81.7002C160.099 81.5648 160.011 81.3901 159.982 81.2013C159.953 81.0126 159.985 80.8197 160.073 80.6504C160.162 80.4811 160.301 80.3442 160.472 80.2595C160.643 80.1748 160.837 80.1467 161.025 80.1792C161.817 80.3862 163.437 82.2672 164.175 85.0752C164.913 87.8832 166.803 83.7252 167.514 82.2222C168.225 80.7192 170.673 76.1742 171.303 76.0302C172.203 75.8142 172.644 76.7772 171.888 78.2622C171.132 79.7472 169.188 84.3552 170.016 84.6972C170.603 84.5413 171.217 84.5136 171.816 84.6162C171.91 84.6371 171.996 84.6861 172.062 84.7568C172.128 84.8275 172.171 84.9166 172.185 85.0122C172.22 85.453 172.308 85.8881 172.446 86.3082C172.446 86.3082 173.562 85.9482 173.841 86.4252C174.048 86.9207 174.172 87.4466 174.21 87.9822C174.21 87.9822 175.056 87.6132 175.506 87.9012C176.469 88.5312 175.425 89.8542 175.425 89.8542C173.13 93.1579 170.626 96.3114 167.928 99.2952L161.385 94.0302" fill="#FFBE9D"/>
<path d="M81.3482 94.0032L81.2402 129.904L96.6032 130.615L97.0442 121.885C97.0442 121.885 102.516 122.974 103.929 117.889C104.829 114.649 104.604 89.5662 104.604 89.5662L81.3482 94.0032Z" fill="#FFBE9D"/>
<path d="M103.803 84.0222C99.1136 85.5342 97.9886 86.0472 95.8826 86.2092C93.7766 86.3712 79.5206 86.3892 78.2156 94.4262C78.0399 94.0484 77.9042 93.6532 77.8106 93.2472C77.7054 92.4594 77.6482 91.6659 77.6396 90.8712C77.4136 91.2394 77.2715 91.6528 77.2233 92.0821C77.1751 92.5114 77.2219 92.9461 77.3606 93.3552C77.3967 93.5303 77.4478 93.702 77.5136 93.8682C77.4146 93.7782 77.3246 93.6792 77.2166 93.5892C76.6992 93.1313 76.0833 92.7987 75.4166 92.6172C74.9036 92.4912 74.5706 92.5182 74.5166 92.6172C75.3547 92.9787 76.1489 93.4346 76.8836 93.9762C77.3607 94.3904 77.7706 94.8762 78.0986 95.4162C78.0986 95.4162 78.0986 95.4882 78.0986 95.5242C78.0986 95.5602 75.0296 94.1742 75.8396 99.7362C76.6496 105.298 80.2766 110.023 80.7266 119.131C80.7266 119.131 93.4436 120.643 95.7116 115.756L97.6106 110.149C97.6106 110.149 94.5506 109.645 94.9106 107.188C95.4056 103.777 98.0066 103.696 99.9506 105.208L102.183 99.2322C102.183 99.2322 107.835 95.5242 108.159 93.1572C108.483 90.7902 108.447 82.5012 103.803 84.0222Z" fill="#263238"/>
<path d="M38.7422 364.516L36.4922 374.56L52.0352 376.486L52.5932 366.532L38.7422 364.516Z" fill="#FF9356"/>
<path d="M45.7623 365.011C45.7534 366.56 45.5845 368.105 45.2583 369.619C45.0823 371.148 44.7536 372.656 44.2773 374.119C44.4654 371.029 44.9629 367.966 45.7623 364.975V365.011Z" fill="#263238"/>
<path d="M52.0983 375.415C51.3414 375.391 50.5883 375.297 49.8483 375.136L44.4483 374.236C42.3333 373.885 40.4343 373.534 39.0483 373.228C38.3002 373.105 37.5671 372.902 36.8613 372.625C37.619 372.639 38.3732 372.733 39.1113 372.904L44.5113 373.804C46.6173 374.155 48.5253 374.506 49.9113 374.812C50.6613 374.927 51.3953 375.13 52.0983 375.415Z" fill="#263238"/>
<path d="M61.8 206.647L33 368.359L57.642 369.754C57.642 369.754 83.814 230.362 87.657 230.02C89.268 229.867 89.916 368.62 91.203 368.359C92.49 368.098 117.834 368.809 117.834 368.809C117.834 368.809 114.405 204.595 114.468 204.595L61.8 206.647Z" fill="#080403"/>
<path d="M98.2045 226.618C98.2045 226.744 93.9565 227.761 88.6645 228.886C83.3725 230.011 79.0525 230.821 79.0255 230.686C78.9985 230.551 83.2735 229.543 88.5655 228.418C93.8575 227.293 98.1775 226.492 98.2045 226.618Z" fill="#455A64"/>
<path d="M59.4686 360.259C59.4686 360.394 53.8976 360.322 47.0306 360.115C40.1636 359.908 34.6016 359.62 34.6016 359.494C34.6016 359.368 40.1726 359.431 47.0396 359.638C53.9066 359.845 59.4686 360.115 59.4686 360.259Z" fill="#455A64"/>
<path d="M117.672 360.277C117.672 360.403 111.651 360.331 104.244 360.106C96.8372 359.881 90.8252 359.602 90.8252 359.476C90.8252 359.35 96.8372 359.422 104.253 359.638C111.669 359.854 117.672 360.115 117.672 360.277Z" fill="#455A64"/>
<path d="M74.1031 231.1C74.2291 231.1 68.1361 259.972 60.4861 295.522C52.8361 331.072 46.5361 359.881 46.4101 359.854C46.2841 359.827 52.3771 330.991 60.0271 295.423C67.6771 259.855 73.9681 231.073 74.1031 231.1Z" fill="#455A64"/>
<path d="M104.352 359.872C104.342 359.761 104.342 359.65 104.352 359.539C104.352 359.296 104.352 358.972 104.298 358.558C104.298 357.658 104.208 356.407 104.136 354.787C104.001 351.52 103.848 346.777 103.677 340.918C103.335 329.218 102.993 313.018 102.912 295.144C102.831 277.27 103.002 261.079 103.236 249.361C103.344 243.502 103.461 238.768 103.569 235.492C103.623 233.872 103.659 232.612 103.695 231.721C103.695 231.307 103.695 230.983 103.695 230.74C103.683 230.63 103.683 230.518 103.695 230.407C103.709 230.518 103.709 230.63 103.695 230.74V231.721C103.695 232.621 103.695 233.872 103.695 235.492C103.65 238.795 103.587 243.529 103.506 249.37C103.362 261.07 103.236 277.27 103.326 295.144C103.416 313.018 103.695 329.2 103.947 340.918C104.082 346.75 104.19 351.484 104.271 354.787C104.271 356.398 104.325 357.667 104.343 358.558C104.343 358.972 104.343 359.296 104.343 359.539C104.36 359.649 104.363 359.761 104.352 359.872Z" fill="#455A64"/>
<path d="M158.82 93.3822C158.82 93.3822 139.74 122.182 138.12 123.775C136.5 125.368 106.62 128.536 106.62 128.536C97.4402 126.466 67.7762 127.15 62.1782 131.236C57.3272 133.936 51.4412 140.236 48.4082 155.113C43.2332 180.565 38.0582 189.943 48.4082 193.498C52.5461 194.909 56.811 195.916 61.1432 196.504L60.8552 208.024L114.495 204.685L111.795 176.083C111.471 168.046 111.318 159.676 111.12 152.26C114.477 150.991 145.671 139.183 147.813 138.877C149.955 138.571 170.502 100.78 170.502 100.78C171.114 96.2892 158.82 93.3822 158.82 93.3822Z" fill="#FF9356"/>
<path d="M62.6187 145.465C62.7447 145.465 62.4567 159.487 61.9797 176.767C61.5027 194.047 60.9987 208.06 60.8637 208.06C60.7287 208.06 61.0257 194.038 61.5117 176.758C61.9977 159.478 62.4927 145.465 62.6187 145.465Z" fill="#263238"/>
<path d="M140.811 130.255C140.095 129.31 139.564 128.238 139.245 127.096C138.785 126.021 138.412 124.91 138.129 123.775C138.839 124.722 139.367 125.794 139.686 126.934C140.139 128.013 140.515 129.123 140.811 130.255Z" fill="#263238"/>
<path d="M142.953 127.807C142.043 127.295 141.186 126.692 140.397 126.007C139.501 125.436 138.729 124.689 138.129 123.811C139.036 124.329 139.892 124.932 140.685 125.611C141.576 126.189 142.346 126.935 142.953 127.807Z" fill="#263238"/>
<path d="M169.431 103.075C168.797 102.772 168.194 102.407 167.631 101.986C166.533 101.293 165.012 100.357 163.266 99.4212C161.52 98.4852 159.9 97.7382 158.712 97.2162C158.048 96.9787 157.409 96.6772 156.804 96.3162C157.503 96.4315 158.186 96.6309 158.838 96.9102C162.04 98.1043 165.067 99.7239 167.838 101.725C168.423 102.107 168.958 102.56 169.431 103.075Z" fill="#263238"/>
<path d="M61.9802 176.902C60.8625 176.969 59.7414 176.857 58.6592 176.569C57.545 176.416 56.4701 176.052 55.4912 175.498C56.5963 175.605 57.6896 175.809 58.7582 176.11C59.8589 176.251 60.9399 176.516 61.9802 176.902Z" fill="#263238"/>
<path d="M111.525 128.131C110.552 128.298 109.59 128.523 108.645 128.806C106.387 129.545 104.426 130.987 103.046 132.92C101.666 134.853 100.941 137.177 100.977 139.552C101.024 140.538 101.123 141.52 101.274 142.495C101.134 142.262 101.036 142.006 100.986 141.739C100.788 141.029 100.673 140.298 100.644 139.561C100.52 137.095 101.234 134.66 102.668 132.651C104.102 130.642 106.174 129.176 108.546 128.491C109.251 128.278 109.979 128.145 110.715 128.095C110.984 128.057 111.259 128.069 111.525 128.131Z" fill="#263238"/>
<path d="M114.504 204.721C114.504 204.856 102.507 205.702 87.7023 206.62C72.8973 207.538 60.8733 208.186 60.8643 208.06C60.8553 207.934 72.8613 207.079 87.6753 206.152C102.489 205.225 114.495 204.595 114.504 204.721Z" fill="#263238"/>
<path d="M93.1383 127.564C93.2156 127.78 93.2699 128.003 93.3003 128.23C93.3003 128.455 93.4083 128.725 93.4443 129.049C93.4803 129.373 93.5073 129.76 93.5523 130.183C93.6592 132.614 93.264 135.04 92.3913 137.311C91.1144 140.718 88.7683 143.62 85.7043 145.582C85.2662 145.86 84.8091 146.107 84.3363 146.32C83.8629 146.55 83.376 146.752 82.8783 146.923C81.8793 147.283 80.8443 147.589 79.8183 147.958C78.7764 148.3 77.7793 148.765 76.8483 149.344C75.9179 149.974 75.0944 150.749 74.4093 151.639C73.126 153.492 71.9423 155.412 70.8633 157.39C69.8277 159.282 68.3091 160.866 66.4623 161.98C64.7145 162.864 62.7486 163.223 60.8013 163.015C59.1214 162.862 57.4851 162.395 55.9773 161.638C53.8103 160.542 51.842 159.091 50.1543 157.345C49.5513 156.742 49.1013 156.256 48.8043 155.932C48.6363 155.774 48.4882 155.595 48.3633 155.401C48.5403 155.544 48.7086 155.697 48.8673 155.86L50.2803 157.219C51.9937 158.892 53.9585 160.286 56.1033 161.35C57.5845 162.061 59.1824 162.497 60.8193 162.637C62.6819 162.81 64.5552 162.448 66.2193 161.593C67.9964 160.513 69.4535 158.978 70.4403 157.147C71.5307 155.149 72.7326 153.214 74.0403 151.351C74.7581 150.421 75.6212 149.613 76.5963 148.957C77.5571 148.354 78.5876 147.871 79.6653 147.517L82.7253 146.5C83.2139 146.335 83.6918 146.139 84.1563 145.915C84.6155 145.717 85.058 145.483 85.4793 145.213C88.4906 143.316 90.8127 140.502 92.1033 137.185C92.993 134.963 93.4305 132.586 93.3903 130.192C93.3903 129.769 93.3903 129.4 93.3363 129.067C93.2823 128.734 93.2553 128.464 93.2283 128.248C93.1782 128.023 93.148 127.794 93.1383 127.564Z" fill="#263238"/>
<path d="M113.451 193.741C113.451 193.741 113.244 193.597 112.848 193.354C112.282 192.989 111.654 192.732 110.994 192.598C109.933 192.439 108.863 192.343 107.79 192.31C106.539 192.211 105.09 192.202 103.515 192.139C101.77 192.11 100.035 191.868 98.3489 191.419C96.4129 190.869 94.5862 189.989 92.9489 188.818C91.1275 187.519 89.6181 185.832 88.5299 183.877C87.3662 181.774 86.7474 179.414 86.7299 177.01C86.6952 174.678 87.3163 172.382 88.5224 170.385C89.7285 168.388 91.4711 166.77 93.5519 165.715C94.4875 165.248 95.4843 164.915 96.5129 164.725C97.4735 164.565 98.446 164.486 99.4199 164.491C101.14 164.544 102.863 164.493 104.577 164.338C105.813 164.259 107.009 163.875 108.06 163.22C109.111 162.565 109.983 161.66 110.598 160.585C110.899 159.982 111.089 159.33 111.156 158.659C111.21 158.2 111.21 157.948 111.228 157.948C111.239 158.008 111.239 158.069 111.228 158.128C111.228 158.254 111.228 158.434 111.228 158.668C111.191 159.36 111.023 160.038 110.733 160.666C110.259 161.661 109.533 162.515 108.627 163.141C107.435 163.977 106.051 164.501 104.604 164.662C102.876 164.843 101.139 164.915 99.4019 164.878C98.4485 164.883 97.4972 164.967 96.5579 165.13C95.5723 165.321 94.6181 165.648 93.7229 166.102C91.7223 167.125 90.0475 168.686 88.8881 170.611C87.7287 172.535 87.1307 174.746 87.1619 176.992C87.184 179.32 87.7839 181.605 88.9079 183.643C89.9587 185.54 91.4154 187.181 93.1739 188.449C94.7655 189.602 96.5434 190.473 98.4299 191.023C100.085 191.483 101.789 191.74 103.506 191.788C105.09 191.869 106.53 191.905 107.79 192.031C108.871 192.08 109.948 192.203 111.012 192.4C111.687 192.573 112.32 192.879 112.875 193.3C113.022 193.404 113.163 193.515 113.298 193.633C113.355 193.66 113.407 193.697 113.451 193.741Z" fill="#263238"/>
<path d="M83.6431 206.917C83.6675 206.273 83.6314 205.628 83.5351 204.991C83.2011 203.263 82.2068 201.733 80.7631 200.725C80.2879 200.411 79.7735 200.159 79.2331 199.978C78.6441 199.813 78.0418 199.698 77.4331 199.636C76.0124 199.604 74.5997 199.414 73.2211 199.069C72.4639 198.816 71.7723 198.398 71.1961 197.845C70.6147 197.261 70.1504 196.57 69.8281 195.811C69.1767 194.219 68.9744 192.479 69.2431 190.78C69.7471 187.315 71.2681 184.336 71.5291 181.402C71.713 180.033 71.5869 178.639 71.1601 177.325C70.7701 176.194 70.041 175.21 69.0721 174.508C67.6515 173.469 65.886 173.014 64.1401 173.239C63.508 173.359 62.8876 173.533 62.2861 173.761C62.8293 173.402 63.443 173.162 64.0861 173.059C65.8934 172.754 67.7481 173.178 69.2431 174.238C70.2834 174.969 71.0724 176.003 71.5021 177.199C71.9671 178.564 72.1148 180.017 71.9341 181.447C71.6731 184.48 70.1341 187.495 69.6841 190.843C69.4256 192.459 69.6123 194.114 70.2241 195.631C70.5252 196.336 70.9522 196.979 71.4841 197.53C72.008 198.037 72.6383 198.422 73.3291 198.655C74.6781 198.999 76.0599 199.199 77.4511 199.249C78.0982 199.316 78.7373 199.445 79.3591 199.636C80.5091 200.034 81.5265 200.742 82.2986 201.682C83.0707 202.623 83.5672 203.759 83.7331 204.964C83.799 205.448 83.799 205.938 83.7331 206.422C83.7186 206.59 83.6885 206.755 83.6431 206.917Z" fill="#263238"/>
<path d="M81.843 157.12C81.843 157.12 82.032 156.922 82.482 156.787C83.1274 156.619 83.81 156.667 84.426 156.922C84.8576 157.1 85.2447 157.37 85.56 157.714C85.9156 158.125 86.1411 158.633 86.208 159.172C86.2895 159.792 86.185 160.423 85.9079 160.984C85.6307 161.544 85.1932 162.01 84.651 162.322C84.086 162.591 83.4533 162.683 82.8352 162.586C82.2172 162.49 81.6425 162.21 81.186 161.782C80.7867 161.408 80.5106 160.922 80.394 160.387C80.3046 159.927 80.3262 159.452 80.457 159.001C80.6353 158.356 81.0331 157.792 81.582 157.408C81.7674 157.252 81.9971 157.157 82.239 157.138C82.239 157.138 82.023 157.273 81.69 157.552C81.2378 157.956 80.9231 158.491 80.79 159.082C80.6743 159.506 80.6787 159.953 80.8026 160.374C80.9266 160.795 81.1653 161.174 81.492 161.467C81.8862 161.823 82.3765 162.054 82.9015 162.133C83.4265 162.211 83.9631 162.133 84.444 161.908C84.9066 161.638 85.2806 161.238 85.5203 160.759C85.76 160.279 85.8551 159.741 85.794 159.208C85.7424 158.773 85.5772 158.36 85.3149 158.009C85.0526 157.658 84.7026 157.383 84.3 157.21C83.7405 156.942 83.1126 156.851 82.5 156.949C82.086 157.039 81.861 157.156 81.843 157.12Z" fill="#263238"/>
<path d="M54.8609 195.487C54.7619 195.487 55.1849 193.903 55.2839 191.329C55.3194 190.631 55.3194 189.931 55.2839 189.232C55.2839 188.476 55.1399 187.675 55.0409 186.829C54.7423 185.01 54.2629 183.225 53.6099 181.501C52.9283 179.791 52.0718 178.157 51.0539 176.623C50.598 175.962 50.1084 175.326 49.5869 174.715C49.1449 174.168 48.6732 173.645 48.1739 173.149C46.3739 171.349 44.9879 170.449 45.0509 170.386C45.393 170.544 45.7161 170.74 46.0139 170.971C46.3871 171.209 46.7449 171.471 47.0849 171.754C47.5473 172.116 47.989 172.504 48.4079 172.915C48.9307 173.401 49.4236 173.918 49.8839 174.463C50.4203 175.082 50.925 175.728 51.3959 176.398C52.448 177.95 53.332 179.609 54.0329 181.348C54.6956 183.093 55.1693 184.903 55.4459 186.748C55.5603 187.56 55.6294 188.377 55.6529 189.196C55.6989 189.906 55.6989 190.619 55.6529 191.329C55.62 191.914 55.5569 192.497 55.4639 193.075C55.4092 193.515 55.325 193.951 55.2119 194.38C55.1412 194.762 55.0233 195.134 54.8609 195.487Z" fill="#263238"/>
<path d="M148.245 138.517C147.784 138.353 147.336 138.154 146.904 137.923C146.049 137.527 144.816 136.96 143.232 136.384C141.393 135.703 139.486 135.223 137.544 134.953C135.173 134.613 132.759 134.732 130.434 135.304C128.088 135.85 125.92 136.984 124.134 138.598C122.692 139.915 121.589 141.56 120.921 143.395C120.481 144.636 120.298 145.952 120.381 147.265C120.453 148.165 120.597 148.705 120.552 148.714C120.507 148.723 120.489 148.597 120.417 148.354C120.321 148.002 120.249 147.645 120.201 147.283C120.042 145.937 120.183 144.572 120.615 143.287C121.253 141.373 122.364 139.652 123.846 138.283C125.658 136.605 127.87 135.421 130.272 134.845C132.658 134.265 135.134 134.155 137.562 134.521C139.529 134.82 141.455 135.343 143.304 136.078C144.537 136.565 145.74 137.127 146.904 137.761C147.318 137.986 147.642 138.166 147.849 138.301C147.993 138.348 148.128 138.421 148.245 138.517Z" fill="#263238"/>
<path d="M155.616 98.2152C155.616 98.2152 155.706 98.2782 155.859 98.4312C156.084 98.6422 156.292 98.871 156.48 99.1152C157.192 100.009 157.754 101.012 158.145 102.085C158.734 103.684 158.976 105.39 158.856 107.089C158.717 109.177 158.045 111.195 156.903 112.948C155.733 114.691 154.121 116.091 152.232 117.007C150.711 117.767 149.051 118.208 147.354 118.303C146.214 118.376 145.069 118.27 143.961 117.988C143.655 117.917 143.354 117.824 143.061 117.709C142.863 117.637 142.764 117.592 142.773 117.574C144.246 117.924 145.762 118.057 147.273 117.97C148.918 117.834 150.521 117.375 151.989 116.62C153.803 115.723 155.354 114.371 156.489 112.696C157.486 111.155 158.122 109.408 158.349 107.586C158.577 105.764 158.39 103.915 157.803 102.175C157.278 100.753 156.54 99.4175 155.616 98.2152Z" fill="#263238"/>
<path d="M96.8549 127.438C94.2563 127.695 91.6445 127.795 89.0339 127.735C86.4258 127.833 83.8142 127.776 81.2129 127.564C83.8115 127.307 86.4233 127.208 89.0339 127.267C91.642 127.17 94.2536 127.227 96.8549 127.438Z" fill="#263238"/>
</g>
<defs>
<linearGradient id="paint0_linear_244_1004" x1="400.235" y1="32.7366" x2="69.3102" y2="426.636" gradientUnits="userSpaceOnUse">
<stop stop-color="white"/>
<stop offset="1" stop-color="white"/>
</linearGradient>
<clipPath id="clip0_244_1004">
<rect width="400" height="386.458" fill="white" transform="matrix(-1 0 0 -1 400 386.458)"/>
</clipPath>
</defs>
</svg>
