<svg width="400" height="387" viewBox="0 0 400 387" fill="none" xmlns="http://www.w3.org/2000/svg">
<g clip-path="url(#clip0_244_1004)">
<path d="M69.0339 325.602C34.8152 298.175 9.97144 261.748 2.47144 222.75C-4.55981 183.752 6.22144 142.182 29.1902 108.327C51.6902 74.0429 87.3152 47.4729 126.221 37.6162C165.128 27.7596 207.784 34.1878 252.784 44.9016C297.784 55.6153 344.659 71.0431 372.315 102.327C399.503 133.611 407.471 181.18 393.409 219.75C379.346 258.748 342.784 288.746 305.284 315.745C267.784 342.315 229.346 365.885 188.096 368.457C146.846 371.028 103.721 352.6 69.0339 325.602Z" fill="url(#paint0_linear_244_1004)"/>
<path d="M73.4002 119.723C71.5968 122.475 70.3308 125.544 69.6692 128.767L64.6152 129.243V139.043L69.6692 139.519C70.3333 142.737 71.5992 145.801 73.4002 148.549L70.1732 152.441L77.0892 159.364L80.9882 156.137C83.7418 157.938 86.81 159.203 90.0322 159.868L90.5082 164.922H100.308L100.784 159.868C103.997 159.2 107.055 157.934 109.8 156.137L113.699 159.364L120.615 152.441L117.388 148.549C119.192 145.794 120.458 142.723 121.119 139.498L126.173 139.022V129.222L121.119 128.746C120.458 125.523 119.192 122.454 117.388 119.702L120.615 115.803L113.699 108.887L109.8 112.135C107.048 110.329 103.98 109.061 100.756 108.397L100.28 103.35H90.4802L90.0042 108.397C86.7807 109.061 83.712 110.329 80.9602 112.135L77.0612 108.908L70.1452 115.824L73.4002 119.723ZM104.767 124.77C106.619 126.622 107.88 128.982 108.391 131.551C108.902 134.12 108.639 136.783 107.637 139.203C106.634 141.623 104.937 143.691 102.759 145.146C100.581 146.601 98.0205 147.378 95.4012 147.378C92.782 147.378 90.2215 146.601 88.0436 145.146C85.8657 143.691 84.1682 141.623 83.1657 139.203C82.1632 136.783 81.9007 134.12 82.4115 131.551C82.9223 128.982 84.1833 126.622 86.0352 124.77C87.2648 123.538 88.7252 122.561 90.3329 121.894C91.9407 121.227 93.6642 120.883 95.4047 120.883C97.1453 120.883 98.8688 121.227 100.477 121.894C102.084 122.561 103.545 123.538 104.774 124.77H104.767Z" fill="#E0E0E0"/>
<path d="M133.866 72.494C132.887 73.9853 132.199 75.6476 131.836 77.394L129.085 77.653V82.98L131.836 83.239C132.199 84.9854 132.887 86.6477 133.866 88.139L132.109 90.239L135.875 94.005L137.975 92.248C139.467 93.2264 141.129 93.9173 142.875 94.285L143.134 97.036H148.461L148.727 94.285C150.473 93.9161 152.134 93.2253 153.627 92.248L155.727 94.005L159.493 90.239L157.736 88.139C158.714 86.6477 159.403 84.9854 159.766 83.239L162.517 82.98V77.681L159.766 77.422C159.403 75.6756 158.714 74.0133 157.736 72.522L159.493 70.422L155.818 66.6L153.718 68.357C152.227 67.3769 150.565 66.6859 148.818 66.32L148.559 63.569H143.225L142.966 66.32C141.219 66.6847 139.557 67.3758 138.066 68.357L135.966 66.6L132.2 70.366L133.866 72.494ZM150.953 75.245C151.962 76.2543 152.65 77.5402 152.928 78.9402C153.207 80.3402 153.064 81.7913 152.518 83.1101C151.971 84.4288 151.046 85.556 149.86 86.3491C148.673 87.1421 147.277 87.5654 145.85 87.5654C144.423 87.5654 143.027 87.1421 141.84 86.3491C140.654 85.556 139.728 84.4288 139.182 83.1101C138.636 81.7913 138.493 80.3402 138.772 78.9402C139.05 77.5402 139.738 76.2543 140.747 75.245C142.1 73.8917 143.936 73.1314 145.85 73.1314C147.764 73.1314 149.6 73.8917 150.953 75.245Z" fill="#F0F0F0"/>
<path d="M231.6 173.497C230.923 174.555 230.448 175.73 230.2 176.962L228.268 177.144V180.889L230.2 181.071C230.445 182.303 230.92 183.479 231.6 184.536L230.368 186.027L233.014 188.673L234.505 187.441C235.573 188.123 236.76 188.598 238.005 188.841L238.187 190.773H241.932L242.114 188.841C243.346 188.594 244.521 188.119 245.579 187.441L247.07 188.673L249.716 186.027L248.484 184.536C249.163 183.479 249.638 182.303 249.884 181.071L251.816 180.889V177.144L249.884 176.962C249.636 175.732 249.162 174.559 248.484 173.504L249.716 172.006L247.07 169.36L245.579 170.599C244.522 169.918 243.346 169.443 242.114 169.199L241.932 167.267H238.187L238.005 169.199C236.76 169.442 235.573 169.917 234.505 170.599L233 169.36L230.354 172.006L231.6 173.497ZM243.612 175.436C244.319 176.145 244.801 177.048 244.996 178.031C245.19 179.014 245.089 180.032 244.705 180.958C244.321 181.883 243.672 182.674 242.839 183.23C242.005 183.787 241.026 184.084 240.024 184.084C239.022 184.084 238.043 183.787 237.21 183.23C236.376 182.674 235.727 181.883 235.343 180.958C234.959 180.032 234.858 179.014 235.053 178.031C235.247 177.048 235.729 176.145 236.437 175.436C237.388 174.485 238.679 173.951 240.024 173.951C241.37 173.951 242.66 174.485 243.612 175.436Z" fill="#E0E0E0"/>
<path d="M221.296 204.682C220.317 206.173 219.628 207.835 219.266 209.582L216.515 209.841V215.175L219.266 215.434C219.628 217.181 220.317 218.843 221.296 220.334L219.539 222.434L223.312 226.2L225.412 224.443C226.903 225.421 228.565 226.11 230.312 226.473L230.571 229.224H235.898L236.157 226.473C237.903 226.109 239.565 225.42 241.057 224.443L243.157 226.2L246.923 222.434L245.166 220.334C246.145 218.843 246.833 217.181 247.196 215.434L249.947 215.175V209.841L247.196 209.582C246.833 207.835 246.145 206.173 245.166 204.682L246.923 202.582L243.157 198.816L241.057 200.573C239.565 199.596 237.903 198.907 236.157 198.543L235.898 195.792H230.62L230.361 198.543C228.614 198.906 226.952 199.595 225.461 200.573L223.361 198.816L219.588 202.582L221.296 204.682ZM238.383 207.426C239.393 208.435 240.081 209.721 240.361 211.121C240.64 212.521 240.498 213.973 239.952 215.292C239.406 216.612 238.481 217.739 237.294 218.533C236.107 219.326 234.711 219.75 233.283 219.75C231.855 219.75 230.46 219.326 229.273 218.533C228.085 217.739 227.16 216.612 226.615 215.292C226.069 213.973 225.926 212.521 226.206 211.121C226.485 209.721 227.173 208.435 228.184 207.426C229.538 206.077 231.371 205.319 233.283 205.319C235.195 205.319 237.029 206.077 238.383 207.426Z" fill="#E0E0E0"/>
<path d="M260.888 194.231C259.499 196.348 258.525 198.709 258.018 201.189L254.126 201.553V209.078L258.018 209.449C258.528 211.928 259.502 214.289 260.888 216.407L258.403 219.403L263.73 224.723L266.726 222.245C268.843 223.634 271.204 224.608 273.684 225.115L274.048 229H281.573L281.944 225.115C284.423 224.605 286.784 223.631 288.902 222.245L291.898 224.723L297.218 219.403L294.74 216.4C296.126 214.282 297.1 211.921 297.61 209.442L301.495 209.071V201.553L297.61 201.189C297.103 198.709 296.129 196.348 294.74 194.231L297.218 191.228L291.898 185.908L288.902 188.4C286.783 187.014 284.423 186.038 281.944 185.523L281.573 181.638H274.048L273.684 185.53C271.204 186.037 268.843 187.011 266.726 188.4L263.73 185.915L258.403 191.235L260.888 194.231ZM285.017 198.116C286.441 199.541 287.411 201.355 287.804 203.331C288.196 205.307 287.994 207.354 287.223 209.215C286.452 211.076 285.147 212.667 283.472 213.786C281.797 214.905 279.828 215.502 277.814 215.502C275.8 215.502 273.831 214.905 272.156 213.786C270.481 212.667 269.176 211.076 268.405 209.215C267.634 207.354 267.432 205.307 267.824 203.331C268.217 201.355 269.187 199.541 270.611 198.116C272.522 196.207 275.113 195.135 277.814 195.135C280.515 195.135 283.106 196.207 285.017 198.116Z" fill="#F0F0F0"/>
<path d="M222.962 79.242C221.814 80.9982 221.007 82.955 220.582 85.01L217.362 85.311V91.548L220.582 91.856C221.007 93.911 221.814 95.8678 222.962 97.624L220.904 100.109L225.314 104.519L227.799 102.461C229.556 103.608 231.513 104.415 233.567 104.841L233.875 108.061H240.112L240.413 104.841C242.468 104.417 244.425 103.609 246.181 102.461L248.666 104.519L253.076 100.109L251.025 97.624C252.174 95.8678 252.981 93.911 253.405 91.856L256.625 91.548V85.311L253.405 85.01C252.982 82.9537 252.172 80.9964 251.018 79.242L253.076 76.757L248.666 72.347L246.181 74.405C244.427 73.2538 242.469 72.4462 240.413 72.025L240.112 68.798H233.875L233.567 72.025C231.512 72.4475 229.555 73.255 227.799 74.405L225.3 72.347L220.89 76.757L222.962 79.242ZM242.961 82.462C244.141 83.6428 244.945 85.147 245.27 86.7845C245.596 88.422 245.428 90.1191 244.789 91.6615C244.15 93.2038 243.068 94.522 241.68 95.4494C240.292 96.3768 238.66 96.8718 236.99 96.8718C235.321 96.8718 233.689 96.3768 232.301 95.4494C230.912 94.522 229.83 93.2038 229.191 91.6615C228.552 90.1191 228.385 88.422 228.71 86.7845C229.036 85.147 229.839 83.6428 231.019 82.462C232.604 80.8796 234.751 79.9907 236.99 79.9907C239.229 79.9907 241.377 80.8796 242.961 82.462Z" fill="#F0F0F0"/>
<path d="M63.6351 213.761C62.5512 215.417 61.7889 217.262 61.3881 219.2L58.3501 219.487V225.381L61.3881 225.661C61.7897 227.599 62.5519 229.444 63.6351 231.1L61.6961 233.445L65.8961 237.61L68.2411 235.671C69.8994 236.755 71.7469 237.517 73.6871 237.918L73.9671 240.956H79.8611L80.1481 237.918C82.0861 237.517 83.9313 236.755 85.5871 235.671L87.9321 237.61L92.1321 233.445L90.1231 231.1C91.2071 229.442 91.9693 227.594 92.3701 225.654L95.4081 225.374V219.48L92.3701 219.2C91.9693 217.262 91.207 215.417 90.1231 213.761L92.0621 211.416L87.8621 207.251L85.5171 209.19C83.8613 208.106 82.0161 207.344 80.0781 206.943L79.7911 203.905H73.9321L73.6521 206.943C71.7119 207.344 69.8644 208.106 68.2061 209.19L65.8611 207.251L61.6611 211.416L63.6351 213.761ZM82.5351 216.799C83.6485 217.913 84.4066 219.333 84.7135 220.878C85.0204 222.423 84.8622 224.024 84.2591 225.48C83.656 226.935 82.635 228.178 81.3251 229.054C80.0153 229.929 78.4754 230.396 76.9001 230.396C75.3248 230.396 73.7849 229.929 72.4751 229.054C71.1652 228.178 70.1442 226.935 69.5411 225.48C68.938 224.024 68.7798 222.423 69.0867 220.878C69.3936 219.333 70.1516 217.913 71.2651 216.799C72.7577 215.314 74.7774 214.481 76.8826 214.481C78.9878 214.481 81.0074 215.314 82.5001 216.799H82.5351Z" fill="#F0F0F0"/>
<path d="M326.744 250.14H200.219C199.132 250.138 198.09 249.705 197.321 248.936C196.552 248.168 196.119 247.125 196.117 246.038V61.742C196.119 60.6547 196.552 59.6124 197.321 58.8435C198.09 58.0746 199.132 57.6419 200.219 57.64H326.744C327.832 57.6419 328.874 58.0746 329.643 58.8435C330.412 59.6124 330.844 60.6547 330.846 61.742V246.038C330.844 247.125 330.412 248.168 329.643 248.936C328.874 249.705 327.832 250.138 326.744 250.14ZM200.219 57.815C199.178 57.8168 198.18 58.2312 197.444 58.9672C196.708 59.7033 196.294 60.7011 196.292 61.742V246.038C196.294 247.079 196.708 248.077 197.444 248.813C198.18 249.549 199.178 249.963 200.219 249.965H326.744C327.786 249.965 328.785 249.551 329.521 248.815C330.257 248.078 330.671 247.079 330.671 246.038V61.742C330.671 60.7005 330.257 59.7016 329.521 58.9652C328.785 58.2287 327.786 57.815 326.744 57.815H200.219Z" fill="#E0E0E0"/>
<path d="M180.843 250.14H54.3248C53.2363 250.14 52.1922 249.708 51.4218 248.939C50.6514 248.17 50.2177 247.127 50.2158 246.038V61.742C50.2177 60.6534 50.6514 59.6101 51.4218 58.841C52.1922 58.0719 53.2363 57.64 54.3248 57.64H180.843C181.931 57.64 182.974 58.0722 183.743 58.8414C184.513 59.6107 184.945 60.6541 184.945 61.742V246.038C184.945 247.126 184.513 248.169 183.743 248.939C182.974 249.708 181.931 250.14 180.843 250.14ZM54.3248 57.815C53.2827 57.815 52.2831 58.2285 51.5455 58.9648C50.808 59.701 50.3927 60.6999 50.3908 61.742V246.038C50.3871 246.557 50.4862 247.072 50.6822 247.552C50.8782 248.033 51.1674 248.47 51.5331 248.838C51.8988 249.206 52.3337 249.498 52.8128 249.698C53.292 249.897 53.8058 250 54.3248 250H180.843C181.359 250 181.869 249.898 182.346 249.701C182.822 249.504 183.255 249.214 183.62 248.85C183.984 248.485 184.274 248.052 184.471 247.576C184.668 247.099 184.77 246.589 184.77 246.073V61.742C184.77 61.2263 184.668 60.7156 184.471 60.2392C184.274 59.7628 183.984 59.3298 183.62 58.9652C183.255 58.6005 182.822 58.3113 182.346 58.1139C181.869 57.9166 181.359 57.815 180.843 57.815H54.3248Z" fill="#E0E0E0"/>
<path d="M366 292.889H16V293.064H366V292.889Z" fill="#E0E0E0"/>
<path d="M63.4109 302.871H52.1689V303.046H63.4109V302.871Z" fill="#E0E0E0"/>
<path d="M172.716 300.974H135.245V301.149H172.716V300.974Z" fill="#E0E0E0"/>
<path d="M89.4858 309.374H64.1108V309.549H89.4858V309.374Z" fill="#E0E0E0"/>
<path d="M311.078 300.883H280.845V301.058H311.078V300.883Z" fill="#E0E0E0"/>
<path d="M321.746 300.883H317.315V301.058H321.746V300.883Z" fill="#E0E0E0"/>
<path d="M275.07 305.244H237.347V305.419H275.07V305.244Z" fill="#E0E0E0"/>
<path d="M337.216 330.311C337.216 332.684 271.752 334.609 191 334.609C110.248 334.609 44.7842 332.684 44.7842 330.311C44.7842 327.938 110.248 326.02 191 326.02C271.752 326.02 337.216 327.945 337.216 330.311Z" fill="#F5F5F5"/>
<path d="M198.385 181.757C198.385 183.535 195.914 184.956 192.911 184.914C189.908 184.872 187.493 183.409 187.514 181.631C187.535 179.853 189.985 178.432 192.981 178.481C195.977 178.53 198.406 180 198.385 181.757Z" fill="#263238"/>
<path d="M200.737 175.898C201.031 175.616 201.208 175.234 201.234 174.827C201.234 173.084 197.566 171.628 192.995 171.579C188.424 171.53 184.7 172.902 184.7 174.638C184.715 175.042 184.882 175.425 185.169 175.709C185.085 175.874 185.037 176.056 185.029 176.241C185.044 176.647 185.217 177.032 185.512 177.312C185.416 177.483 185.363 177.676 185.358 177.872C185.365 178.075 185.413 178.275 185.5 178.459C185.587 178.644 185.71 178.808 185.862 178.943C185.753 179.115 185.693 179.313 185.687 179.517C185.701 179.718 185.756 179.913 185.848 180.091C185.941 180.27 186.07 180.427 186.226 180.553C186.115 180.727 186.052 180.928 186.044 181.134C186.044 182.583 189.089 183.808 192.89 183.836C196.691 183.864 199.785 182.772 199.799 181.295C199.798 181.086 199.738 180.882 199.624 180.707C199.78 180.582 199.909 180.426 200.002 180.249C200.095 180.072 200.15 179.878 200.163 179.678C200.159 179.477 200.106 179.28 200.009 179.104C200.316 178.842 200.507 178.47 200.541 178.068C200.542 177.867 200.492 177.67 200.394 177.494C200.703 177.233 200.897 176.861 200.933 176.458C200.909 176.259 200.842 176.069 200.737 175.898Z" fill="#263238"/>
<path d="M207.59 160.519C207.614 158.051 207.013 155.616 205.844 153.442C204.675 151.268 202.975 149.425 200.902 148.084C198.83 146.743 196.452 145.948 193.99 145.772C191.528 145.596 189.061 146.045 186.819 147.078C184.577 148.111 182.633 149.694 181.166 151.68C179.7 153.665 178.759 155.99 178.432 158.436C178.105 160.883 178.401 163.373 179.294 165.674C180.187 167.976 181.646 170.014 183.538 171.6C183.843 171.853 184.081 172.176 184.231 172.543C184.381 172.909 184.439 173.306 184.399 173.7V173.819C184.399 175.583 188.137 177.06 192.799 177.116C197.461 177.172 201.199 175.779 201.199 174.008V173.896C201.167 173.498 201.234 173.097 201.394 172.731C201.554 172.365 201.802 172.044 202.116 171.796C203.809 170.441 205.178 168.725 206.125 166.775C207.072 164.824 207.572 162.687 207.59 160.519Z" fill="#FF9356"/>
<path d="M181.788 166.091C181.758 166.09 181.73 166.082 181.704 166.067C181.678 166.053 181.657 166.032 181.641 166.007C180.337 163.765 179.835 161.145 180.216 158.579C180.598 156.014 181.841 153.654 183.741 151.888C183.775 151.856 183.821 151.838 183.868 151.839C183.916 151.841 183.96 151.861 183.993 151.895C184.025 151.929 184.043 151.975 184.042 152.022C184.04 152.07 184.02 152.115 183.986 152.147C182.147 153.859 180.945 156.146 180.577 158.631C180.21 161.117 180.698 163.654 181.963 165.825C181.986 165.866 181.993 165.915 181.981 165.96C181.969 166.006 181.94 166.045 181.9 166.07C181.865 166.088 181.826 166.095 181.788 166.091Z" fill="white"/>
<path d="M186.184 180.588C190.461 182.334 195.242 182.391 199.561 180.749C197.446 181.668 195.161 182.13 192.855 182.102C190.549 182.074 188.275 181.558 186.184 180.588Z" fill="#263238"/>
<path d="M186.1 179.02C190.378 180.762 195.157 180.82 199.477 179.181C197.361 180.097 195.076 180.556 192.771 180.528C190.466 180.501 188.192 179.987 186.1 179.02Z" fill="#263238"/>
<path d="M185.988 177.445C190.266 179.191 195.047 179.248 199.365 177.606C197.251 178.525 194.965 178.987 192.66 178.959C190.354 178.931 188.08 178.415 185.988 177.445Z" fill="#263238"/>
<path d="M189.782 174.148H189.733C189.688 174.135 189.651 174.105 189.628 174.064C189.606 174.023 189.601 173.976 189.614 173.931C190.204 171.909 190.538 169.82 190.608 167.715L190.3 167.4C188.669 165.706 187.913 163.613 188.263 161.8C188.389 161.1 188.788 160.477 189.376 160.477C190.118 160.477 190.412 161.457 190.524 162.031C190.872 163.862 191.022 165.726 190.972 167.589C191.512 168.135 192.224 168.478 192.988 168.562C193.423 168.549 193.851 168.448 194.246 168.267C194.642 168.085 194.997 167.826 195.291 167.505C194.927 165.923 194.647 164.313 194.437 162.689C194.342 162.131 194.342 161.56 194.437 161.002C194.481 160.714 194.605 160.445 194.794 160.223C194.983 160.002 195.23 159.838 195.508 159.749C196.39 159.56 197.083 160.498 197.328 161.527C197.56 162.585 197.537 163.682 197.261 164.729C196.984 165.776 196.463 166.742 195.739 167.547L195.683 167.61C196.178 169.751 196.819 171.856 197.601 173.91C197.617 173.954 197.616 174.002 197.597 174.045C197.578 174.087 197.543 174.121 197.499 174.138C197.456 174.154 197.407 174.153 197.364 174.134C197.322 174.115 197.288 174.08 197.272 174.036C196.512 172.028 195.883 169.973 195.389 167.883C195.075 168.205 194.699 168.461 194.284 168.636C193.869 168.81 193.424 168.899 192.974 168.898C192.227 168.827 191.523 168.518 190.965 168.016C190.875 170.056 190.539 172.077 189.964 174.036C189.95 174.072 189.925 174.103 189.892 174.123C189.859 174.143 189.82 174.152 189.782 174.148ZM189.348 160.799C188.956 160.799 188.648 161.338 188.578 161.842C188.249 163.543 188.977 165.524 190.524 167.134L190.622 167.232C190.651 165.501 190.501 163.773 190.174 162.073C190.118 161.779 189.887 160.813 189.362 160.799H189.348ZM195.711 160.043H195.571C195.359 160.12 195.173 160.254 195.031 160.429C194.889 160.604 194.798 160.814 194.766 161.037C194.675 161.553 194.675 162.082 194.766 162.598C194.962 164.133 195.225 165.65 195.557 167.148C196.202 166.383 196.663 165.481 196.906 164.51C197.149 163.54 197.166 162.526 196.957 161.548C196.789 160.799 196.292 160.043 195.711 160.043Z" fill="#263238"/>
<path d="M182.747 141.724C182.747 141.724 184.602 142.557 185.547 141.724C186.492 140.891 184.623 135.578 184.623 135.578C184.623 135.578 186.807 140.429 190.223 139.729C193.639 139.029 194.122 131.385 194.122 131.385C194.122 131.385 194.612 138.91 196.684 140.415C198.756 141.92 201.08 140.415 201.08 140.415C199.323 142.732 201.08 145.448 201.08 145.448C195.977 140.877 186.744 142.816 184.28 145.707L182.747 141.724ZM175.81 150.999C175.81 150.999 176.678 153.169 175.81 153.869C174.942 154.569 170.91 152.392 170.91 152.392C170.91 152.392 174.578 155.598 173.542 157.25C172.506 158.902 167.725 158.468 167.725 158.468C167.725 158.468 173.787 160.568 173.976 162.024C174.165 163.48 172.849 164.894 172.849 164.894C173.622 164.612 174.45 164.512 175.268 164.602C176.086 164.692 176.873 164.969 177.567 165.412C174.214 159.588 177.567 153.078 177.567 153.078L175.81 150.999ZM212.049 166.994C212.049 166.994 210.005 164.768 210.964 163.613C211.923 162.458 216.515 163.613 216.515 163.613C216.515 163.613 211.482 160.596 211.657 158.538C211.832 156.48 215.731 155.689 215.731 155.689C215.731 155.689 210.796 156.34 210.264 155.395C209.732 154.45 210.607 152.966 210.607 152.966L208.283 154.366C210.978 161.499 207.583 166.203 207.583 166.203C209.76 165.356 212.049 166.994 212.049 166.994Z" fill="#E0E0E0"/>
<path d="M264.144 125.96C264.585 126.044 270.724 133.261 270.724 133.261L275.995 125.624L264.144 125.96Z" fill="#FF9356"/>
<path opacity="0.5" d="M264.144 125.96C264.585 126.044 270.724 133.261 270.724 133.261L275.995 125.624L264.144 125.96Z" fill="white"/>
<path d="M303.182 85.528H240.644C239.063 85.528 237.781 86.8098 237.781 88.391V123.181C237.781 124.762 239.063 126.044 240.644 126.044H303.182C304.763 126.044 306.045 124.762 306.045 123.181V88.391C306.045 86.8098 304.763 85.528 303.182 85.528Z" fill="#FF9356"/>
<path opacity="0.5" d="M303.182 85.528H240.644C239.063 85.528 237.781 86.8098 237.781 88.391V123.181C237.781 124.762 239.063 126.044 240.644 126.044H303.182C304.763 126.044 306.045 124.762 306.045 123.181V88.391C306.045 86.8098 304.763 85.528 303.182 85.528Z" fill="white"/>
<path d="M248.163 108.159L247.932 107.9C248.219 107.641 256.129 99.829 256.213 99.752L256.297 99.661L264.172 103.539L271.935 94.439L272.061 94.628L279.845 105.828L287.391 100.928L287.58 101.222L279.754 106.325L271.9 95.02L264.263 104.015L256.367 100.13C255.45 100.998 248.45 107.9 248.163 108.159Z" fill="#263238"/>
<path d="M250.514 111.582H246.818V119.765H250.514V111.582Z" fill="#FF9356"/>
<path d="M258.124 106.171H254.428V119.765H258.124V106.171Z" fill="#FF9356"/>
<path d="M265.872 107.543H262.176V119.772H265.872V107.543Z" fill="#FF9356"/>
<path d="M273.768 99.878H270.072V119.772H273.768V99.878Z" fill="#FF9356"/>
<path d="M281.741 110.427H278.045V119.772H281.741V110.427Z" fill="#FF9356"/>
<path d="M250.655 107.102C250.656 107.495 250.541 107.881 250.323 108.208C250.105 108.536 249.795 108.792 249.432 108.944C249.069 109.095 248.669 109.136 248.283 109.06C247.897 108.984 247.542 108.795 247.263 108.517C246.985 108.239 246.795 107.885 246.717 107.499C246.64 107.114 246.679 106.714 246.829 106.35C246.98 105.986 247.234 105.675 247.561 105.457C247.889 105.238 248.273 105.121 248.667 105.121C249.193 105.121 249.697 105.329 250.07 105.701C250.443 106.072 250.653 106.576 250.655 107.102Z" fill="#FF9356"/>
<path d="M258.263 99.878C258.263 100.271 258.147 100.656 257.928 100.982C257.71 101.309 257.399 101.564 257.036 101.715C256.673 101.865 256.273 101.905 255.887 101.828C255.502 101.751 255.147 101.562 254.869 101.284C254.591 101.006 254.402 100.651 254.325 100.266C254.249 99.8802 254.288 99.4805 254.438 99.1172C254.589 98.754 254.844 98.4435 255.171 98.225C255.498 98.0066 255.882 97.89 256.275 97.89C256.802 97.89 257.308 98.0994 257.681 98.4723C258.054 98.8451 258.263 99.3508 258.263 99.878Z" fill="#FF9356"/>
<path d="M266.202 103.133C266.203 103.526 266.088 103.912 265.87 104.239C265.652 104.567 265.342 104.823 264.979 104.975C264.616 105.126 264.216 105.167 263.83 105.091C263.444 105.015 263.089 104.826 262.81 104.548C262.532 104.27 262.342 103.916 262.264 103.53C262.187 103.145 262.226 102.745 262.376 102.381C262.526 102.017 262.781 101.706 263.108 101.488C263.435 101.269 263.82 101.152 264.214 101.152C264.74 101.152 265.244 101.36 265.617 101.732C265.989 102.103 266.2 102.607 266.202 103.133Z" fill="#FF9356"/>
<path d="M273.901 94.691C273.901 95.0845 273.784 95.4691 273.565 95.7962C273.347 96.1233 273.036 96.3781 272.672 96.5283C272.308 96.6786 271.908 96.7175 271.522 96.6403C271.137 96.563 270.782 96.373 270.505 96.0942C270.227 95.8155 270.038 95.4606 269.962 95.0745C269.886 94.6884 269.927 94.2885 270.078 93.9254C270.23 93.5622 270.486 93.2522 270.813 93.0346C271.141 92.817 271.526 92.7016 271.92 92.703C272.446 92.7049 272.95 92.9151 273.321 93.2877C273.692 93.6604 273.901 94.165 273.901 94.691Z" fill="#FF9356"/>
<path d="M281.784 106.045C281.785 106.438 281.67 106.824 281.452 107.151C281.234 107.479 280.924 107.735 280.561 107.887C280.198 108.038 279.798 108.079 279.412 108.003C279.026 107.927 278.671 107.738 278.392 107.46C278.114 107.182 277.924 106.828 277.846 106.442C277.769 106.057 277.808 105.657 277.958 105.293C278.109 104.929 278.363 104.618 278.69 104.4C279.017 104.181 279.402 104.064 279.796 104.064C280.322 104.064 280.826 104.272 281.199 104.644C281.571 105.015 281.782 105.519 281.784 106.045Z" fill="#FF9356"/>
<path d="M289.637 105.737H285.941V119.765H289.637V105.737Z" fill="#FF9356"/>
<path opacity="0.3" d="M258.124 106.171H254.428V119.765H258.124V106.171Z" fill="black"/>
<path opacity="0.3" d="M273.768 99.878H270.072V119.772H273.768V99.878Z" fill="black"/>
<path opacity="0.3" d="M289.637 105.737H285.941V119.765H289.637V105.737Z" fill="black"/>
<path d="M297.813 110.427H294.117V119.772H297.813V110.427Z" fill="#FF9356"/>
<path d="M295.874 105.891L287.397 101.187L287.565 100.879L296.042 105.583L295.874 105.891Z" fill="#263238"/>
<path d="M289.911 101.033C289.911 101.426 289.794 101.811 289.576 102.137C289.357 102.464 289.047 102.719 288.683 102.87C288.32 103.02 287.92 103.06 287.535 102.983C287.149 102.906 286.795 102.717 286.517 102.439C286.239 102.161 286.049 101.806 285.973 101.421C285.896 101.035 285.935 100.635 286.086 100.272C286.236 99.909 286.491 99.5985 286.818 99.38C287.145 99.1616 287.529 99.045 287.923 99.045C288.45 99.045 288.955 99.2544 289.328 99.6273C289.701 100 289.911 100.506 289.911 101.033Z" fill="#FF9356"/>
<path d="M297.947 105.737C297.948 106.13 297.833 106.516 297.615 106.843C297.397 107.171 297.087 107.427 296.724 107.579C296.361 107.73 295.961 107.771 295.575 107.695C295.189 107.619 294.834 107.43 294.555 107.152C294.277 106.874 294.087 106.52 294.009 106.134C293.932 105.749 293.971 105.349 294.121 104.985C294.272 104.621 294.526 104.31 294.853 104.092C295.181 103.873 295.565 103.756 295.959 103.756C296.485 103.756 296.989 103.964 297.362 104.336C297.735 104.707 297.945 105.211 297.947 105.737Z" fill="#FF9356"/>
<path d="M249.247 288.234V255.663C249.245 255.329 249.337 255.002 249.513 254.718C249.689 254.434 249.942 254.206 250.242 254.06C250.542 253.914 250.877 253.855 251.209 253.891C251.54 253.927 251.855 254.056 252.117 254.263L272.823 270.545C273.036 270.711 273.207 270.924 273.326 271.166C273.444 271.409 273.505 271.675 273.505 271.945C273.505 272.215 273.444 272.481 273.326 272.724C273.207 272.966 273.036 273.179 272.823 273.345L252.117 289.627C251.856 289.834 251.542 289.963 251.21 289.999C250.879 290.035 250.545 289.977 250.245 289.831C249.945 289.686 249.692 289.459 249.516 289.176C249.34 288.894 249.246 288.567 249.247 288.234Z" fill="#FF9356"/>
<path d="M252.599 262.264H154.942V281.626H252.599V262.264Z" fill="#FF9356"/>
<path d="M172.058 281.661H80.4697L90.8997 271.798L80.4697 261.816H172.058C181.481 261.909 190.83 260.134 199.563 256.592C208.296 253.051 216.24 247.813 222.937 241.183C229.634 234.552 234.949 226.66 238.577 217.962C242.205 209.265 244.073 199.934 244.073 190.511C244.073 181.087 242.205 171.756 238.577 163.059C234.949 154.361 229.634 146.469 222.937 139.838C216.24 133.208 208.296 127.97 199.563 124.429C190.83 120.887 181.481 119.112 172.058 119.205V99.353C196.233 99.353 219.419 108.957 236.513 126.051C253.608 143.146 263.212 166.331 263.212 190.507C263.212 214.683 253.608 237.868 236.513 254.963C219.419 272.057 196.233 281.661 172.058 281.661Z" fill="#FF9356"/>
<g opacity="0.4">
<path d="M172.058 281.661H80.4697L90.8997 271.798L80.4697 261.816H172.058C181.481 261.909 190.83 260.134 199.563 256.592C208.296 253.051 216.24 247.813 222.937 241.183C229.634 234.552 234.949 226.66 238.577 217.962C242.205 209.265 244.073 199.934 244.073 190.511C244.073 181.087 242.205 171.756 238.577 163.059C234.949 154.361 229.634 146.469 222.937 139.838C216.24 133.208 208.296 127.97 199.563 124.429C190.83 120.887 181.481 119.112 172.058 119.205V99.353C196.233 99.353 219.419 108.957 236.513 126.051C253.608 143.146 263.212 166.331 263.212 190.507C263.212 214.683 253.608 237.868 236.513 254.963C219.419 272.057 196.233 281.661 172.058 281.661Z" fill="white"/>
</g>
<path d="M104.109 254.2C93.4593 242.38 86.0273 228.02 82.5265 212.5C79.0257 196.98 79.5736 180.821 84.1177 165.573C88.6617 150.326 97.0493 136.503 108.475 125.431C119.901 114.359 133.981 106.411 149.364 102.349L142.525 110.938L154.509 121.9C142.477 125.08 131.464 131.299 122.528 139.961C113.591 148.623 107.031 159.436 103.478 171.363C99.9243 183.29 99.4963 195.931 102.235 208.071C104.974 220.211 110.787 231.444 119.117 240.69L104.109 254.2Z" fill="#FF9356"/>
<path d="M106.103 255.362C106.852 255.173 131.583 255.362 131.583 255.362L119.116 240.662L104.108 254.2L106.103 255.362Z" fill="#FF9356"/>
<path d="M172.45 92.122L174.284 124.637C174.304 124.971 174.23 125.305 174.069 125.599C173.908 125.893 173.667 126.135 173.375 126.298C173.082 126.462 172.749 126.539 172.415 126.521C172.08 126.503 171.757 126.391 171.484 126.198L149.896 111.099C149.672 110.946 149.487 110.743 149.355 110.507C149.222 110.271 149.145 110.007 149.131 109.737C149.116 109.466 149.163 109.196 149.269 108.947C149.375 108.698 149.537 108.476 149.742 108.299L169.489 90.876C169.739 90.6518 170.049 90.5034 170.381 90.448C170.712 90.3926 171.053 90.4324 171.363 90.5629C171.673 90.6934 171.94 90.9091 172.132 91.1851C172.324 91.4611 172.435 91.786 172.45 92.122Z" fill="#FF9356"/>
<path opacity="0.4" d="M172.45 92.122L174.284 124.637C174.304 124.971 174.23 125.305 174.069 125.599C173.908 125.893 173.667 126.135 173.375 126.298C173.082 126.462 172.749 126.539 172.415 126.521C172.08 126.503 171.757 126.391 171.484 126.198L149.896 111.099C149.672 110.946 149.487 110.743 149.355 110.507C149.222 110.271 149.145 110.007 149.131 109.737C149.116 109.466 149.163 109.196 149.269 108.947C149.375 108.698 149.537 108.476 149.742 108.299L169.489 90.876C169.739 90.6518 170.049 90.5034 170.381 90.448C170.712 90.3926 171.053 90.4324 171.363 90.5629C171.673 90.6934 171.94 90.9091 172.132 91.1851C172.324 91.4611 172.435 91.786 172.45 92.122Z" fill="white"/>
<path d="M162.257 161.541C163.753 162.482 164.983 163.789 165.832 165.339C166.681 166.889 167.12 168.629 167.108 170.396C166.639 173.973 165.393 176.507 164.427 179.986L154.942 159.049C157.161 159.483 158.155 159.035 162.257 161.541Z" fill="#263238"/>
<path d="M157.498 159.7C153.781 157.971 150.134 160.015 148.013 161.429C146.861 162.405 145.929 163.613 145.279 164.976C144.629 166.338 144.275 167.823 144.24 169.332C144.24 172.181 144.24 175.632 145.969 177.123C146.448 177.548 147.011 177.869 147.62 178.066C148.23 178.262 148.874 178.33 149.511 178.264L163.616 165.251C162.081 162.911 159.976 161.001 157.498 159.7Z" fill="#263238"/>
<path d="M157.742 198.249C156.657 199.369 155.642 198.991 154.242 198.403C145.632 195.302 148.18 191.144 148.18 191.144C149.818 189.226 149.888 186.944 149.293 183.444C149.283 183.344 149.283 183.243 149.293 183.143C149.299 182.676 149.448 182.221 149.72 181.841C150.068 181.336 150.6 180.99 151.203 180.877C151.805 180.764 152.427 180.894 152.933 181.239L156.79 182.345C156.79 182.394 156.79 182.45 156.825 182.506C156.825 184.424 156.776 185.908 156.79 187.07C156.801 187.212 156.801 187.355 156.79 187.497C156.804 187.641 156.804 187.787 156.79 187.931C156.881 189.527 159.59 191.879 160.689 192.432C161.347 192.81 161.417 194.476 157.742 198.249Z" fill="#B97964"/>
<path opacity="0.2" d="M156.742 182.324C156.746 182.381 156.758 182.438 156.777 182.492C156.777 184.41 156.735 185.894 156.777 187.056C156.766 187.198 156.766 187.341 156.777 187.483C156.777 187.63 156.777 187.784 156.833 187.931C153.905 187.131 151.292 185.456 149.343 183.129C149.345 182.668 149.481 182.218 149.735 181.834C150.076 181.326 150.606 180.973 151.206 180.854C151.807 180.734 152.431 180.858 152.941 181.197L156.742 182.324Z" fill="black"/>
<path d="M146.354 170.158C146.501 176.752 146.417 179.531 149.553 183.115C154.271 188.491 162.153 187.056 163.987 180.588C165.576 174.764 165.1 164.978 158.884 161.947C152.668 158.916 146.2 163.557 146.354 170.158Z" fill="#B97964"/>
<path d="M143.435 175.8C143.726 176.442 144.141 177.02 144.657 177.5C145.172 177.981 145.778 178.354 146.438 178.6C148.153 179.188 149.294 176.444 148.846 174.638C148.631 173.825 148.133 173.114 147.441 172.635C146.75 172.155 145.911 171.937 145.073 172.02C143.4 172.202 142.7 174.176 143.435 175.8Z" fill="#B97964"/>
<path opacity="0.2" d="M147.166 175.94C147.119 175.938 147.074 175.918 147.042 175.884C147.009 175.85 146.991 175.805 146.991 175.758C146.997 175.465 146.944 175.173 146.837 174.9C146.73 174.627 146.57 174.378 146.367 174.167C146.163 173.955 145.92 173.786 145.651 173.669C145.383 173.552 145.093 173.488 144.8 173.483C144.754 173.483 144.709 173.465 144.676 173.432C144.643 173.399 144.625 173.354 144.625 173.308C144.627 173.262 144.646 173.219 144.678 173.186C144.711 173.154 144.754 173.135 144.8 173.133C145.139 173.139 145.474 173.213 145.785 173.348C146.096 173.484 146.377 173.68 146.612 173.924C146.848 174.168 147.032 174.457 147.156 174.773C147.28 175.089 147.34 175.426 147.334 175.765C147.334 175.81 147.317 175.854 147.285 175.886C147.254 175.919 147.211 175.938 147.166 175.94Z" fill="black"/>
<path d="M154.942 173C154.942 173.7 155.25 174.309 155.684 174.358C156.118 174.407 156.489 173.868 156.517 173.168C156.545 172.468 156.209 171.859 155.775 171.81C155.341 171.761 154.97 172.3 154.942 173Z" fill="#263238"/>
<path d="M161.474 173.525C161.474 174.225 161.782 174.799 162.209 174.841C162.636 174.883 163 174.4 163.042 173.7C163.084 173 162.734 172.426 162.3 172.384C161.866 172.342 161.495 172.846 161.474 173.525Z" fill="#263238"/>
<path d="M153.766 170.438C153.809 170.446 153.853 170.446 153.895 170.436C153.937 170.426 153.977 170.408 154.011 170.382C154.32 170.132 154.685 169.964 155.075 169.89C155.465 169.817 155.867 169.842 156.244 169.962C156.283 169.977 156.324 169.985 156.366 169.983C156.407 169.982 156.448 169.972 156.485 169.955C156.523 169.937 156.556 169.912 156.583 169.88C156.611 169.849 156.631 169.813 156.643 169.773C156.667 169.688 156.659 169.598 156.62 169.519C156.581 169.441 156.515 169.379 156.433 169.346C155.962 169.188 155.459 169.15 154.97 169.237C154.481 169.324 154.021 169.532 153.633 169.843C153.568 169.9 153.528 169.98 153.52 170.066C153.512 170.152 153.538 170.237 153.591 170.305C153.634 170.367 153.695 170.414 153.766 170.438Z" fill="#263238"/>
<path d="M163.945 170.389C163.981 170.382 164.015 170.367 164.044 170.346C164.073 170.324 164.097 170.295 164.113 170.263C164.147 170.186 164.152 170.099 164.127 170.018C164.103 169.937 164.051 169.868 163.98 169.822C163.609 169.532 163.169 169.342 162.703 169.271C162.237 169.199 161.761 169.25 161.32 169.416C161.252 169.457 161.202 169.523 161.181 169.6C161.16 169.677 161.17 169.759 161.208 169.829C161.241 169.903 161.3 169.962 161.374 169.994C161.447 170.027 161.531 170.03 161.607 170.004C161.957 169.876 162.334 169.84 162.702 169.9C163.07 169.961 163.416 170.114 163.707 170.347C163.741 170.372 163.78 170.389 163.821 170.397C163.862 170.404 163.905 170.401 163.945 170.389Z" fill="#263238"/>
<path d="M159.724 173.056C160.201 174.515 160.825 175.923 161.586 177.256C161.627 177.323 161.651 177.399 161.658 177.478C161.664 177.557 161.652 177.635 161.623 177.709C161.594 177.782 161.548 177.847 161.49 177.9C161.431 177.953 161.361 177.991 161.285 178.012C160.691 178.143 160.073 178.104 159.5 177.9L159.724 173.056Z" fill="#A24E3F"/>
<path d="M155.523 171.81L157.077 171.579C157.077 171.579 156.146 172.643 155.523 171.81Z" fill="#263238"/>
<path d="M162.146 172.377L163.693 172.146C163.693 172.146 162.769 173.21 162.146 172.377Z" fill="#263238"/>
<path d="M159.073 179.713C158.601 180.297 158.173 180.915 157.792 181.561C157.666 181.519 157.547 181.47 157.421 181.414C155.755 180.714 155.202 179.888 155.097 179.132C155.054 178.763 155.1 178.388 155.23 178.04C155.297 177.841 155.391 177.653 155.51 177.48C156.356 178.353 157.38 179.033 158.513 179.475C158.849 179.629 159.073 179.713 159.073 179.713Z" fill="#263238"/>
<path d="M158.513 179.475L158.1 180C156.525 179.37 155.51 178.712 155.209 178.033C155.276 177.834 155.37 177.646 155.489 177.473C156.341 178.351 157.372 179.034 158.513 179.475Z" fill="white"/>
<path d="M157.4 181.4C155.734 180.7 155.181 179.874 155.076 179.118C155.704 179.386 156.28 179.763 156.777 180.231C157.103 180.545 157.321 180.954 157.4 181.4Z" fill="#DE5753"/>
<path d="M148.636 171.761C148.636 171.761 152.402 167.456 152.521 163.781C152.521 163.781 165.996 160.785 164.757 172.419C164.757 172.419 167.669 162.36 156.658 160.715C145.647 159.07 143.358 173.455 148.363 178.467C148.384 178.418 146.305 174.463 148.636 171.761Z" fill="#263238"/>
<path d="M136.89 163.004C136.981 164.059 137.377 165.064 138.03 165.897C138.682 166.731 139.563 167.356 140.566 167.697C141.568 168.038 142.647 168.08 143.673 167.818C144.699 167.556 145.626 167.001 146.341 166.221C147.057 165.441 147.53 164.469 147.703 163.425C147.875 162.381 147.74 161.309 147.314 160.34C146.888 159.371 146.189 158.547 145.303 157.968C144.416 157.39 143.38 157.082 142.322 157.082C140.819 157.155 139.405 157.817 138.388 158.926C137.371 160.035 136.833 161.5 136.89 163.004Z" fill="#263238"/>
<path d="M161.663 162.157C163.114 163.547 164.082 165.365 164.428 167.344C164.428 168.779 162.475 169.815 162.475 169.815L160.088 166.7V169.451C158.446 169.338 156.87 168.762 155.543 167.79C154.216 166.817 153.192 165.487 152.591 163.956L154.768 160.064C154.768 160.064 160.368 161.037 161.663 162.157Z" fill="#263238"/>
<path d="M143.05 166.147C142.702 167.717 141.8 169.109 140.509 170.067C141.205 170.123 141.901 169.956 142.497 169.591C142.468 170.154 142.343 170.708 142.126 171.229C142.914 170.563 143.544 169.73 143.97 168.791C144.396 167.851 144.608 166.829 144.59 165.797L143.05 166.147Z" fill="#263238"/>
<path d="M220.203 308.1L213.665 308.289C213.665 308.289 201.996 285.826 196.396 273.233C189.781 258.351 191.237 253.556 189.249 253.472C185.581 253.311 148.18 270.51 138.814 260.969C129.448 251.428 143.014 228.447 143.014 228.447C143.014 228.447 163.888 225.22 165.589 230.316C166.009 231.821 166.919 233.375 167.136 234.922C167.353 236.469 167.899 238.709 167.899 238.709C168.389 238.583 182.697 237.197 191.58 237.4C194.199 237.466 196.744 238.281 198.914 239.749C201.084 241.216 202.787 243.275 203.823 245.681C211.838 264.161 220.203 308.1 220.203 308.1Z" fill="#263238"/>
<path d="M154.362 263.237C154.362 263.237 155.888 263.237 179.562 262.166C179.562 262.166 176.314 269.866 175.411 285.651C175.04 292.147 176.111 313.217 175.264 322.534C175.67 323.115 180.024 325.04 182.677 323.094C182.677 323.094 198.035 267.668 197.881 260.15C197.727 252.632 189.012 250.413 189.012 250.413C189.012 250.413 172.212 260.15 154.362 263.237Z" fill="#263238"/>
<path opacity="0.2" d="M176.384 257.035C179.622 255.724 182.803 254.284 185.925 252.716C191.336 249.986 197.986 253.493 198.525 259.534C198.525 259.737 198.525 259.94 198.56 260.15C198.63 263.202 195.907 274.661 192.001 287.114C192.106 286.372 192.246 285.644 192.421 284.923C196.299 269.369 198.238 261.284 196.299 257.525C194.992 255.185 192.921 253.366 190.433 252.373L169.279 262.684C157.624 263.195 155.888 263.216 155.678 263.216C162.775 261.877 169.714 259.805 176.384 257.035Z" fill="black"/>
<path d="M183.783 319.951C183.787 319.87 183.774 319.79 183.746 319.714C183.717 319.638 183.673 319.57 183.616 319.512C183.56 319.454 183.492 319.409 183.417 319.378C183.342 319.348 183.262 319.333 183.181 319.335H181.2C180.696 319.335 180.15 320.224 179.842 320.616C178.519 322.338 177.574 321.652 176.223 319.972C175.341 319.853 175.075 320.861 174.998 321.134L173.192 327.133C173.118 327.373 173.141 327.634 173.258 327.857C173.375 328.08 173.575 328.247 173.815 328.323C173.904 328.351 173.996 328.365 174.088 328.365L181.417 328.54L191.686 328.792C194.486 328.855 195.13 326.048 193.982 325.761C188.83 324.494 185.197 322.877 183.629 321.33C183.405 321.127 183.734 320.567 183.783 319.951Z" fill="#FF9356"/>
<path d="M182.754 323.318C182.718 323.317 182.684 323.305 182.656 323.283C182.637 323.271 182.62 323.255 182.607 323.236C182.594 323.218 182.585 323.197 182.581 323.174C182.576 323.152 182.576 323.129 182.581 323.107C182.585 323.085 182.594 323.064 182.607 323.045C182.834 322.699 183.136 322.408 183.489 322.193C183.843 321.977 184.239 321.843 184.651 321.799C184.691 321.807 184.726 321.828 184.752 321.86C184.777 321.891 184.791 321.93 184.791 321.97C184.791 322.011 184.777 322.05 184.752 322.081C184.726 322.112 184.691 322.134 184.651 322.142C184.292 322.185 183.947 322.304 183.639 322.493C183.331 322.681 183.067 322.934 182.866 323.234C182.854 323.255 182.838 323.273 182.819 323.288C182.799 323.302 182.777 323.312 182.754 323.318Z" fill="white"/>
<path d="M184.195 324.2C184.163 324.21 184.129 324.21 184.097 324.2C184.078 324.188 184.062 324.172 184.049 324.153C184.036 324.135 184.027 324.114 184.022 324.091C184.017 324.069 184.017 324.046 184.022 324.024C184.026 324.002 184.035 323.981 184.048 323.962C184.276 323.616 184.577 323.325 184.931 323.11C185.284 322.894 185.681 322.76 186.092 322.716C186.132 322.724 186.168 322.746 186.193 322.777C186.219 322.808 186.233 322.847 186.233 322.887C186.233 322.928 186.219 322.967 186.193 322.998C186.168 323.029 186.132 323.051 186.092 323.059C185.734 323.102 185.389 323.221 185.08 323.41C184.772 323.598 184.509 323.851 184.307 324.151C184.277 324.18 184.237 324.198 184.195 324.2Z" fill="white"/>
<path d="M185.974 325.124C185.942 325.133 185.908 325.133 185.876 325.124C185.838 325.097 185.811 325.057 185.802 325.011C185.793 324.966 185.802 324.918 185.827 324.879C186.058 324.537 186.361 324.249 186.713 324.034C187.066 323.819 187.46 323.682 187.871 323.633C187.894 323.63 187.918 323.632 187.941 323.639C187.964 323.645 187.985 323.656 188.003 323.671C188.021 323.686 188.036 323.705 188.047 323.726C188.058 323.747 188.065 323.77 188.067 323.794C188.07 323.839 188.057 323.884 188.028 323.92C187.999 323.955 187.958 323.978 187.913 323.983C187.553 324.026 187.207 324.145 186.897 324.334C186.588 324.522 186.323 324.775 186.121 325.075C186.101 325.093 186.078 325.107 186.053 325.116C186.027 325.124 186 325.127 185.974 325.124Z" fill="white"/>
<path d="M219.882 303.69L217.782 304.439C217.55 304.526 217.341 304.666 217.174 304.848C217.006 305.031 216.883 305.25 216.816 305.489C216.2 307.589 215.073 307.274 213.204 306.189C212.336 306.392 212.455 307.428 212.504 307.708L212.987 313.952C212.995 314.077 213.028 314.199 213.083 314.312C213.139 314.424 213.216 314.525 213.31 314.607C213.404 314.69 213.514 314.753 213.633 314.793C213.752 314.833 213.877 314.85 214.002 314.841C214.094 314.834 214.183 314.813 214.268 314.778L221.17 312.293L230.83 308.793C233.462 307.841 233.049 304.992 231.88 305.139C226.609 305.839 222.64 305.629 220.624 304.747C220.246 304.635 220.463 304.348 219.882 303.69Z" fill="#FF9356"/>
<path d="M220.554 307.015H220.519C220.474 307.003 220.435 306.976 220.409 306.937C220.383 306.898 220.372 306.851 220.379 306.805C220.47 306.401 220.647 306.022 220.899 305.694C221.15 305.365 221.469 305.095 221.835 304.901C221.877 304.88 221.925 304.876 221.97 304.89C222.014 304.905 222.052 304.936 222.073 304.978C222.094 305.02 222.098 305.068 222.084 305.113C222.069 305.158 222.038 305.195 221.996 305.216C221.675 305.383 221.395 305.617 221.175 305.904C220.955 306.191 220.8 306.522 220.722 306.875C220.714 306.914 220.693 306.949 220.662 306.974C220.632 307 220.594 307.014 220.554 307.015Z" fill="white"/>
<path d="M222.205 307.246H222.163C222.119 307.236 222.081 307.209 222.056 307.171C222.031 307.133 222.022 307.087 222.03 307.043C222.121 306.639 222.299 306.26 222.55 305.932C222.801 305.603 223.121 305.333 223.486 305.139C223.507 305.128 223.53 305.122 223.553 305.12C223.576 305.118 223.599 305.12 223.622 305.127C223.644 305.135 223.664 305.146 223.682 305.161C223.7 305.177 223.714 305.195 223.724 305.216C223.744 305.257 223.747 305.304 223.733 305.347C223.718 305.39 223.688 305.426 223.647 305.447C223.327 305.616 223.047 305.852 222.827 306.14C222.607 306.428 222.452 306.76 222.373 307.113C222.364 307.151 222.343 307.184 222.312 307.208C222.282 307.232 222.244 307.246 222.205 307.246Z" fill="white"/>
<path d="M224.117 307.484H224.082C224.059 307.479 224.038 307.47 224.019 307.456C224 307.443 223.984 307.426 223.971 307.407C223.959 307.387 223.951 307.365 223.947 307.343C223.943 307.32 223.944 307.297 223.949 307.274C224.038 306.871 224.214 306.492 224.464 306.163C224.714 305.834 225.033 305.564 225.398 305.37C225.418 305.359 225.441 305.353 225.464 305.351C225.487 305.349 225.511 305.352 225.533 305.359C225.555 305.366 225.575 305.378 225.593 305.393C225.611 305.408 225.625 305.426 225.636 305.447C225.646 305.468 225.653 305.49 225.655 305.513C225.656 305.537 225.654 305.56 225.647 305.582C225.639 305.604 225.628 305.625 225.613 305.642C225.598 305.66 225.579 305.674 225.559 305.685C225.241 305.856 224.963 306.092 224.744 306.378C224.524 306.664 224.368 306.993 224.285 307.344C224.277 307.383 224.256 307.418 224.225 307.443C224.195 307.469 224.156 307.483 224.117 307.484Z" fill="white"/>
<path d="M171.631 238.289L168.628 238.576C168.628 238.576 168.376 236.511 168.124 234.985C167.872 233.459 166.206 228.237 165.793 226.732C157.197 227.586 142.609 227.075 142.609 227.075C142.609 227.075 129.449 251.414 138.808 260.927C144.408 266.632 160.984 263.293 173.241 258.281L171.631 238.289Z" fill="#263238"/>
<path opacity="0.3" d="M168.6 237.75L155.419 240.501C155.419 240.501 162.629 236.588 168.096 234.999C168.376 236.56 168.6 237.75 168.6 237.75Z" fill="black"/>
<path d="M187.955 206.768C188.032 205.606 184.595 212.249 184.595 212.249L178.792 208.154L183.412 203.506C183.412 203.506 188.102 206.572 188.025 206.67" fill="#B97964"/>
<path d="M164.68 191.739C166.216 192.494 167.587 193.547 168.713 194.836C169.839 196.126 170.698 197.626 171.239 199.25C172.543 203.48 173.48 207.816 174.039 212.207L181.361 205.683L186.821 209.736C186.821 209.736 179.674 220.6 174.851 224.835C170.84 228.335 166.304 221.531 166.304 221.531L164.33 191.571L164.68 191.739Z" fill="#FF9356"/>
<path opacity="0.2" d="M150.512 230.638L148.937 255.341L134.811 253.654V251.12L150.512 230.638Z" fill="black"/>
<path d="M143.68 231.254C143.127 224.954 140.88 213.502 137.072 201.441C135.826 197.521 140.278 193.188 140.278 193.188C140.278 193.188 143.155 192.957 143.68 192.901C144.205 192.845 144.849 192.775 145.444 192.726C149.472 192.296 153.526 192.158 157.575 192.313C158.583 192.369 159.612 192.453 160.62 192.537C160.949 192.572 163.063 192.607 163.42 192.635C163.42 192.635 169.16 199.355 169.468 204.094C169.636 206.74 170.917 207.881 170.77 214.216C170.77 218.514 167.627 224.779 167.34 230.827L143.68 231.254Z" fill="white"/>
<path d="M151.505 210.198C151.204 200.363 150.042 194.098 149.51 191.732C149.445 191.43 149.268 191.163 149.015 190.984C148.763 190.805 148.452 190.727 148.145 190.766L144.344 191.571C140.62 192.558 138.625 192.026 136.553 194.791C136.154 195.323 135.818 199.446 135.853 200.006C136.267 202.657 136.832 205.281 137.547 207.867C138.191 210.471 138.947 213.383 139.682 216.134C140.613 219.634 141.39 220.551 141.691 221.678L132.059 250.105C131.996 250.282 131.973 250.472 131.994 250.659C132.014 250.846 132.077 251.026 132.178 251.186C132.278 251.345 132.414 251.479 132.574 251.578C132.734 251.677 132.915 251.738 133.102 251.757L146.899 253.206C147.063 253.228 147.229 253.217 147.388 253.174C147.547 253.131 147.696 253.056 147.826 252.956C147.956 252.855 148.065 252.729 148.146 252.586C148.227 252.442 148.28 252.285 148.299 252.121C148.999 246.346 151.848 221.503 151.505 210.198Z" fill="#FF9356"/>
<path d="M169.678 229.462C169.678 229.462 172.583 211.479 171.778 206.978C170.973 202.477 164.302 191.578 164.302 191.578L161.236 191.361L157.617 189.898C157.617 189.898 166.017 199.985 168.033 207.265C169.384 212.06 166.689 227.194 167.004 230.841L168.558 238.401L172.408 238.226L169.678 229.462Z" fill="#FF9356"/>
<path d="M149 189.219C149 189.219 152.766 196.646 151.345 215.329L145.094 201.896L147.355 198.228L144.352 192.229C144.352 192.229 147.565 190.164 148.916 189.072L149 189.219Z" fill="#FF9356"/>
<g opacity="0.2">
<path d="M149 189.219C149 189.219 152.766 196.646 151.345 215.329L145.094 201.896L147.355 198.228L144.352 192.229C144.352 192.229 147.565 190.164 148.916 189.072L149 189.219Z" fill="black"/>
</g>
<path d="M168.257 215.434C169.085 212.877 169.471 210.197 169.398 207.51C169.146 203.709 169.083 200.874 169.083 200.874L164.771 197.682L165.338 193.797C165.338 193.797 163.238 192.523 161.327 191.214C160.004 190.318 157.414 188.967 157.071 189.072C157.071 189.072 168.089 203.009 168.145 208.714C168.201 214.216 168.257 215.434 168.257 215.434Z" fill="#FF9356"/>
<path opacity="0.3" d="M168.257 215.434C169.085 212.877 169.471 210.197 169.398 207.51C169.146 203.709 169.083 200.874 169.083 200.874L164.771 197.682L165.338 193.797C165.338 193.797 163.238 192.523 161.327 191.214C160.004 190.318 157.414 188.967 157.071 189.072C157.071 189.072 168.089 203.009 168.145 208.714C168.201 214.216 168.257 215.434 168.257 215.434Z" fill="black"/>
<path opacity="0.3" d="M170.378 224.996L171.876 211.129L172.436 225.444C171.729 225.42 171.031 225.268 170.378 224.996Z" fill="black"/>
<path d="M159.857 192.789L156.889 188.715L155.489 191.137L149.637 187.637L148.937 189.093L151.037 195.183C151.037 195.183 156.231 197.283 156.504 197.283C156.777 197.283 159.857 192.789 159.857 192.789Z" fill="white"/>
<path opacity="0.3" d="M159.989 192.978L158.778 195.974L155.761 192.978L153.71 196.499L150.651 195.001L153.913 197.584L155.803 193.727L159.261 196.982L159.989 192.978Z" fill="black"/>
<path opacity="0.3" d="M143.848 221.293L142.665 208.049L141.755 222.476L155.447 228.041L143.848 221.293Z" fill="black"/>
<path d="M138.429 192.978C137.108 193.366 135.921 194.117 135.004 195.145C134.087 196.173 133.477 197.438 133.242 198.795C132.409 203.541 131.303 227.278 132.248 228.776C133.193 230.274 159.646 238.8 159.646 238.8L162.446 231.457L142.468 221.79C142.468 221.79 142.629 215.007 142.79 209.722C142.874 206.922 142.965 204.556 143.028 203.821C143.231 201.7 138.429 192.978 138.429 192.978Z" fill="#FF9356"/>
<path d="M162.377 231.898C162.377 231.898 170.7 233.9 172.618 235.559C172.88 235.81 173.089 236.111 173.232 236.444C173.375 236.777 173.45 237.135 173.451 237.498L159.99 238.1L162.377 231.898Z" fill="#B97964"/>
<path opacity="0.3" d="M138.353 231.52L150.057 235.72V237.155L137.8 233.242L138.353 231.52Z" fill="black"/>
<path opacity="0.2" d="M162.033 230.897C161.989 230.895 161.946 230.877 161.914 230.846C161.882 230.815 161.862 230.774 161.858 230.729C161.823 229.525 161.796 228.307 161.768 227.075C161.523 216.05 161.235 203.555 155.649 193.811C155.638 193.791 155.631 193.769 155.629 193.746C155.626 193.723 155.629 193.7 155.635 193.677C155.642 193.655 155.652 193.635 155.667 193.617C155.681 193.599 155.699 193.584 155.72 193.573C155.759 193.55 155.807 193.544 155.851 193.556C155.896 193.567 155.934 193.596 155.957 193.636C161.557 203.436 161.873 216.036 162.118 227.061C162.118 228.3 162.173 229.518 162.208 230.715C162.21 230.738 162.208 230.762 162.2 230.784C162.192 230.806 162.18 230.826 162.165 230.843C162.149 230.86 162.13 230.874 162.108 230.883C162.087 230.892 162.064 230.897 162.041 230.897H162.033Z" fill="black"/>
<path d="M183.719 204.192C183.085 203.143 182.837 201.905 183.019 200.692C183.432 198.984 183.306 197.514 183.719 196.268C184.132 195.022 184.811 196.639 185.007 197.577C185.203 198.515 185.399 199.6 186.099 199.306C186.799 199.012 190.733 194.182 191.699 193.923C192.665 193.664 192.294 194.623 192.294 194.623C192.294 194.623 193.281 193.468 193.848 193.741C193.995 193.804 194.226 194.21 193.848 194.805C193.015 196.149 191.125 198.879 191.125 198.879C191.23 198.725 193.806 195.519 194.254 195.085C194.842 194.525 195.402 194.56 195.717 194.91C196.165 195.407 193.106 199.488 193.099 199.754C193.099 199.754 194.779 197.346 195.64 197.437C196.501 197.528 195.521 199.103 194.401 200.328C193.281 201.553 191.643 203.926 190.488 204.969C189.088 206.25 187.814 206.789 186.169 206.068C185.204 205.665 184.36 205.018 183.719 204.192Z" fill="#B97964"/>
<path opacity="0.3" d="M189.943 197.899C189.911 197.909 189.877 197.909 189.845 197.899C189.807 197.873 189.781 197.834 189.772 197.79C189.763 197.745 189.771 197.699 189.796 197.661C190.496 196.639 191.196 195.645 191.994 194.707C192.009 194.69 192.028 194.677 192.049 194.668C192.071 194.659 192.093 194.654 192.116 194.654C192.139 194.654 192.162 194.659 192.183 194.668C192.204 194.677 192.223 194.69 192.239 194.707C192.271 194.74 192.289 194.784 192.289 194.829C192.289 194.875 192.271 194.919 192.239 194.952C191.483 195.883 190.748 196.87 190.069 197.885C190.03 197.905 189.985 197.91 189.943 197.899Z" fill="black"/>
<path opacity="0.3" d="M192.484 200.916C192.455 200.916 192.427 200.909 192.401 200.895C192.376 200.882 192.354 200.863 192.337 200.839C191.431 199.574 190.176 198.601 188.725 198.039C188.681 198.022 188.645 197.988 188.626 197.945C188.606 197.902 188.604 197.853 188.62 197.808C188.637 197.766 188.67 197.732 188.712 197.713C188.754 197.695 188.801 197.694 188.844 197.71C190.36 198.29 191.674 199.299 192.624 200.615C192.638 200.634 192.647 200.655 192.652 200.678C192.657 200.7 192.658 200.723 192.654 200.746C192.65 200.769 192.642 200.791 192.629 200.81C192.617 200.83 192.601 200.847 192.582 200.86C192.557 200.889 192.522 200.909 192.484 200.916Z" fill="black"/>
<path opacity="0.3" d="M186.435 203.8C186.397 203.799 186.36 203.784 186.33 203.758C186.312 203.744 186.297 203.727 186.285 203.707C186.273 203.687 186.265 203.665 186.262 203.643C186.259 203.62 186.26 203.597 186.266 203.575C186.272 203.552 186.282 203.531 186.295 203.513C186.661 203.028 186.846 202.432 186.82 201.826C186.782 201.216 186.535 200.637 186.12 200.188C186.104 200.172 186.09 200.153 186.081 200.132C186.072 200.111 186.067 200.088 186.067 200.066C186.067 200.043 186.072 200.02 186.081 199.999C186.09 199.978 186.104 199.959 186.12 199.943C186.137 199.926 186.156 199.913 186.178 199.903C186.2 199.894 186.223 199.889 186.246 199.889C186.27 199.889 186.293 199.894 186.315 199.903C186.337 199.913 186.356 199.926 186.372 199.943C186.835 200.456 187.104 201.113 187.135 201.803C187.165 202.492 186.955 203.171 186.54 203.723C186.516 203.761 186.479 203.788 186.435 203.8Z" fill="black"/>
<path d="M196.04 237.729H174.473C174.391 237.741 174.307 237.736 174.227 237.714C174.147 237.693 174.072 237.656 174.007 237.605C173.941 237.554 173.887 237.49 173.847 237.418C173.807 237.345 173.782 237.265 173.773 237.183C173.763 237.127 173.763 237.071 173.773 237.015L183.433 215C183.593 214.666 183.847 214.388 184.165 214.198C184.482 214.009 184.849 213.918 185.218 213.936H206.799C206.957 213.92 207.116 213.967 207.24 214.066C207.364 214.166 207.445 214.31 207.464 214.468C207.463 214.531 207.449 214.593 207.422 214.65L197.825 236.7C197.66 237.026 197.403 237.298 197.086 237.48C196.769 237.663 196.405 237.749 196.04 237.729Z" fill="#263238"/>
<path opacity="0.7" d="M206.798 213.957H185.217C184.848 213.939 184.482 214.03 184.164 214.219C183.847 214.409 183.592 214.687 183.432 215.021L173.835 237.015C173.826 237.071 173.826 237.127 173.835 237.183C173.844 237.265 173.869 237.345 173.909 237.418C173.95 237.49 174.004 237.554 174.069 237.605C174.135 237.656 174.21 237.693 174.29 237.714C174.37 237.736 174.453 237.741 174.535 237.729H196.039C196.409 237.746 196.775 237.655 197.092 237.466C197.409 237.276 197.664 236.998 197.824 236.665L207.421 214.671C207.449 214.614 207.463 214.552 207.463 214.489C207.444 214.331 207.364 214.187 207.239 214.087C207.115 213.988 206.957 213.941 206.798 213.957Z" fill="white"/>
<path d="M193.436 226.333C192.967 227.39 192.036 228.111 191.336 227.964C190.636 227.817 190.447 226.858 190.902 225.801C191.357 224.744 192.302 224.03 193.002 224.177C193.702 224.324 193.905 225.248 193.436 226.333Z" fill="white"/>
<path opacity="0.3" d="M185.343 213.957H185.217C184.848 213.939 184.482 214.03 184.164 214.219C183.847 214.409 183.592 214.687 183.432 215.021L173.835 237.015C173.826 237.071 173.826 237.127 173.835 237.183C173.844 237.265 173.869 237.345 173.909 237.418C173.95 237.49 174.004 237.554 174.069 237.605C174.135 237.656 174.21 237.693 174.29 237.714C174.37 237.736 174.453 237.741 174.535 237.729H175.235L185.343 213.957Z" fill="black"/>
<path d="M156.973 237.925V239.703L174.158 237.953L174.417 235.692L156.973 237.925Z" fill="#263238"/>
<path opacity="0.7" d="M156.973 237.925V239.703L174.158 237.953L174.417 235.692L156.973 237.925Z" fill="white"/>
<path opacity="0.2" d="M254.182 161.919C253.696 162.193 253.29 162.589 253.004 163.068C252.718 163.546 252.562 164.091 252.551 164.649C252.551 166.539 254.931 169.773 254.805 170.844C254.679 171.915 254.56 175.1 255.68 176.5C256.8 177.9 262.498 179.034 262.491 178.999C262.484 178.964 261.861 175.016 261.091 170.823C260.321 166.63 254.196 161.898 254.196 161.898" fill="black"/>
<path d="M86.4197 231.898C76.3607 243.7 73.3997 261.088 79.0697 275.508C85.3697 269.908 89.7517 261.375 90.0317 253.92C90.3117 246.465 88.3587 239.115 86.4197 231.898Z" fill="#FF9356"/>
<path d="M84.6701 276.866C81.2418 282.151 79.6343 288.412 80.0921 294.695C85.5311 292.798 90.3261 286.659 93.2031 281.668C96.0801 276.677 97.6831 271.07 99.1461 265.498C93.2106 267.608 88.1273 271.6 84.6701 276.866Z" fill="#FF9356"/>
<path d="M83.361 252.436C79.3105 266.993 77.2616 282.035 77.271 297.145C77.271 301.429 77.4414 305.706 77.782 309.976C77.782 310.305 78.335 310.312 78.307 309.976C77.1269 294.902 78.0101 279.738 80.932 264.903C81.7534 260.759 82.731 256.65 83.865 252.576C83.8836 252.509 83.8748 252.438 83.8407 252.377C83.8066 252.317 83.7499 252.273 83.683 252.254C83.6162 252.235 83.5447 252.244 83.4843 252.278C83.4239 252.312 83.3796 252.369 83.361 252.436Z" fill="#263238"/>
<path d="M78.0061 299.63C82.1934 289.838 87.5048 280.566 93.8331 272.001C94.0291 271.728 93.5741 271.462 93.3781 271.735C87.0281 280.341 81.6982 289.655 77.4951 299.49C77.3691 299.798 77.8731 299.938 78.0061 299.63Z" fill="#263238"/>
<path d="M72.0979 285C74.954 289.408 76.2912 294.629 75.9059 299.868C71.3769 298.3 67.3729 293.183 64.9999 289.018C62.6269 284.853 61.2619 280.184 60.0439 275.543C64.9839 277.3 69.2159 280.62 72.0979 285Z" fill="#FF9356"/>
<path d="M77.8802 303.305C74.4357 295.296 70.071 287.716 64.8742 280.716C64.6712 280.443 64.2162 280.716 64.4192 280.982C69.5941 287.942 73.9423 295.48 77.3762 303.445C77.5022 303.753 78.0132 303.62 77.8802 303.305Z" fill="#263238"/>
<path d="M78.0267 306.042C84.4247 299.455 90.9627 293.001 97.3607 286.442C97.5987 286.197 97.2277 285.826 96.9897 286.071C90.5917 292.651 84.0537 299.105 77.6557 305.671C77.4177 305.916 77.7887 306.287 78.0267 306.049V306.042Z" fill="#263238"/>
<path d="M97.5642 283.355C92.0066 288.712 86.9546 294.57 82.4722 300.855H83.4872C85.6077 300.754 87.6826 300.205 89.5749 299.242C91.4672 298.28 93.1337 296.927 94.4643 295.273C95.7949 293.619 96.7593 291.701 97.2936 289.647C97.828 287.592 97.9202 285.448 97.5642 283.355Z" fill="#FF9356"/>
<path d="M71.2302 270.615C73.6102 274.512 75.8549 278.49 77.9642 282.55C78.1182 282.851 78.5732 282.585 78.4192 282.284C76.3099 278.229 74.0652 274.25 71.6852 270.349C71.6455 270.298 71.5888 270.264 71.5257 270.252C71.4626 270.24 71.3972 270.251 71.3417 270.284C71.2862 270.316 71.2444 270.367 71.2239 270.428C71.2034 270.489 71.2056 270.556 71.2302 270.615Z" fill="#263238"/>
<path d="M65.5319 250.903C64.4721 255.386 63.8624 259.963 63.7119 264.567C63.7119 268.823 64.9999 272.967 67.4219 275.83C69.8439 278.693 74.7229 279.939 76.6899 278.301L65.5319 250.903Z" fill="#FF9356"/>
<path d="M89.6608 307.897H65.4058V312.391H89.6608V307.897Z" fill="#263238"/>
<path d="M85.7341 328.407H70.6701L67.9331 311.369H87.8901L85.7341 328.407Z" fill="#263238"/>
<path opacity="0.2" d="M68.1147 312.482H87.7497L87.5047 314.407H68.4227L68.1147 312.482Z" fill="black"/>
<path opacity="0.3" d="M110.143 123.853H122.743C123.498 123.853 124.223 123.553 124.757 123.019C125.291 122.484 125.592 121.76 125.592 121.004V112.303C125.592 112.303 114.84 119.198 110.143 123.853Z" fill="black"/>
<path d="M119.355 74.727H71.4678C69.558 74.727 68.0098 76.2752 68.0098 78.185V117.35C68.0098 119.26 69.558 120.808 71.4678 120.808H119.355C121.265 120.808 122.813 119.26 122.813 117.35V78.185C122.813 76.2752 121.265 74.727 119.355 74.727Z" fill="#FF9356"/>
<path opacity="0.5" d="M119.355 74.727H71.4678C69.558 74.727 68.0098 76.2752 68.0098 78.185V117.35C68.0098 119.26 69.558 120.808 71.4678 120.808H119.355C121.265 120.808 122.813 119.26 122.813 117.35V78.185C122.813 76.2752 121.265 74.727 119.355 74.727Z" fill="white"/>
<path d="M71.2438 74.727H119.6C120.444 74.727 121.255 75.0626 121.852 75.6599C122.449 76.2572 122.785 77.0673 122.785 77.912V82.763H68.0098V77.961C68.0116 77.1039 68.3529 76.2824 68.959 75.6763C69.5651 75.0702 70.3866 74.7288 71.2438 74.727Z" fill="#FF9356"/>
<path opacity="0.5" d="M119.712 79.333C119.712 79.6808 119.609 80.0208 119.416 80.3099C119.222 80.5989 118.947 80.8241 118.626 80.9569C118.305 81.0897 117.951 81.1241 117.61 81.0557C117.269 80.9873 116.956 80.8193 116.71 80.5729C116.465 80.3265 116.298 80.0127 116.231 79.6715C116.164 79.3302 116.2 78.9767 116.334 78.6558C116.468 78.3348 116.694 78.0609 116.984 77.8687C117.274 77.6765 117.614 77.5746 117.962 77.576C118.193 77.576 118.421 77.6215 118.634 77.7099C118.846 77.7983 119.04 77.9278 119.202 78.091C119.365 78.2543 119.494 78.448 119.581 78.6611C119.669 78.8743 119.713 79.1026 119.712 79.333Z" fill="white"/>
<path opacity="0.5" d="M114.7 79.333C114.7 79.6808 114.596 80.0208 114.403 80.3099C114.21 80.5989 113.935 80.8241 113.613 80.9569C113.292 81.0897 112.938 81.1241 112.597 81.0557C112.256 80.9873 111.943 80.8193 111.698 80.5729C111.452 80.3265 111.285 80.0127 111.218 79.6715C111.151 79.3302 111.187 78.9767 111.321 78.6558C111.455 78.3348 111.682 78.0609 111.972 77.8687C112.261 77.6765 112.602 77.5746 112.95 77.576C113.18 77.576 113.408 77.6215 113.621 77.7099C113.834 77.7983 114.027 77.9278 114.189 78.091C114.352 78.2543 114.481 78.448 114.568 78.6611C114.656 78.8743 114.7 79.1026 114.7 79.333Z" fill="white"/>
<path opacity="0.5" d="M109.743 79.333C109.743 79.6805 109.64 80.0202 109.447 80.3091C109.254 80.5981 108.98 80.8233 108.659 80.9563C108.338 81.0892 107.985 81.124 107.644 81.0562C107.303 80.9884 106.99 80.8211 106.744 80.5754C106.498 80.3297 106.331 80.0166 106.263 79.6758C106.195 79.3349 106.23 78.9817 106.363 78.6606C106.496 78.3396 106.721 78.0652 107.01 77.8721C107.299 77.679 107.639 77.576 107.986 77.576C108.217 77.5751 108.446 77.6199 108.66 77.7079C108.874 77.7958 109.068 77.9252 109.231 78.0885C109.394 78.2519 109.524 78.4459 109.612 78.6595C109.7 78.8731 109.744 79.102 109.743 79.333Z" fill="white"/>
<path d="M94.5469 101.656L99.2999 88.601C101.072 89.2432 102.695 90.2414 104.067 91.534C105.437 92.8257 106.532 94.3803 107.287 96.105L94.5469 101.656Z" fill="#F5F5F5"/>
<path d="M94.5469 101.656L98.5999 114.956C96.4957 115.598 94.2691 115.731 92.1033 115.345C89.9376 114.958 87.8946 114.063 86.1424 112.732C84.3903 111.402 82.979 109.675 82.0249 107.692C81.0707 105.71 80.6008 103.53 80.654 101.33C80.7071 99.1309 81.2817 96.9757 82.3305 95.0418C83.3792 93.1079 84.8722 91.4506 86.6866 90.2064C88.5009 88.9622 90.5848 88.1666 92.7667 87.8851C94.9486 87.6036 97.1661 87.8441 99.2369 88.587L94.5469 101.656Z" fill="#FF9356"/>
<path d="M94.5469 101.656L107.315 96.168C108.084 97.9591 108.468 99.892 108.442 101.841C108.415 103.79 107.98 105.712 107.162 107.482C106.345 109.252 105.165 110.83 103.698 112.114C102.231 113.398 100.511 114.359 98.6489 114.935L94.5469 101.656Z" fill="#FF9356"/>
<path opacity="0.3" d="M94.5469 101.656L107.315 96.168C108.084 97.9591 108.468 99.892 108.442 101.841C108.415 103.79 107.98 105.712 107.162 107.482C106.345 109.252 105.165 110.83 103.698 112.114C102.231 113.398 100.511 114.359 98.6489 114.935L94.5469 101.656Z" fill="black"/>
<path d="M287.824 147.961C285.472 148.437 284.541 150.32 282.189 155.248C279.214 161.45 274.888 172.643 273.908 172.748C272.508 172.881 254.896 166.007 254.896 166.007L252.159 169.108C252.159 169.108 261.392 181.456 276.008 185.369C278.633 186.069 281.944 183.101 285.108 179.034C285.724 178.243 286.326 177.41 286.935 176.549C290.186 171.729 293.103 166.691 295.664 161.471L287.824 147.975V147.961Z" fill="#FF9356"/>
<path opacity="0.2" d="M287.082 155.836C286.138 159.488 284.958 163.075 283.547 166.574C283.12 167.605 282.982 168.733 283.148 169.836C283.632 172.682 284.37 175.48 285.353 178.194C285.857 179.671 288.153 179.594 288.216 181.127C288.832 180.336 289.441 179.496 290.043 178.642L291.387 173.308L287.082 155.836Z" fill="black"/>
<path d="M276.834 175.149C277.03 175.094 277.213 175.001 277.373 174.875C277.533 174.749 277.666 174.593 277.766 174.416C277.865 174.238 277.929 174.043 277.953 173.841C277.977 173.639 277.96 173.434 277.905 173.238L272.011 148.451C271.842 147.881 271.5 147.377 271.032 147.01C270.564 146.642 269.994 146.429 269.4 146.4L250.5 146.008C250.294 145.98 250.084 145.994 249.884 146.05C249.489 146.164 249.155 146.43 248.956 146.789C248.756 147.149 248.708 147.573 248.82 147.968L254.714 172.748C254.884 173.322 255.229 173.828 255.701 174.195C256.173 174.563 256.748 174.774 257.346 174.799L276.246 175.191C276.443 175.213 276.642 175.199 276.834 175.149Z" fill="#263238"/>
<path opacity="0.2" d="M276.834 175.149C277.03 175.094 277.213 175.001 277.373 174.875C277.533 174.749 277.666 174.593 277.766 174.416C277.865 174.238 277.929 174.043 277.953 173.841C277.977 173.639 277.96 173.434 277.905 173.238L272.011 148.451C271.842 147.881 271.5 147.377 271.032 147.01C270.564 146.642 269.994 146.429 269.4 146.4L250.5 146.008C250.294 145.98 250.084 145.994 249.884 146.05C249.489 146.164 249.155 146.43 248.956 146.789C248.756 147.149 248.708 147.573 248.82 147.968L254.714 172.748C254.884 173.322 255.229 173.828 255.701 174.195C256.173 174.563 256.748 174.774 257.346 174.799L276.246 175.191C276.443 175.213 276.642 175.199 276.834 175.149Z" fill="white"/>
<path d="M274.895 175.1C275.091 175.045 275.275 174.952 275.434 174.826C275.594 174.7 275.728 174.544 275.827 174.367C275.927 174.189 275.99 173.994 276.014 173.792C276.038 173.59 276.022 173.385 275.966 173.189L270.1 148.416C269.93 147.843 269.586 147.338 269.116 146.969C268.645 146.6 268.072 146.387 267.475 146.358L248.575 145.973C248.371 145.947 248.164 145.964 247.966 146.022C247.77 146.077 247.587 146.17 247.427 146.296C247.267 146.422 247.134 146.578 247.034 146.755C246.935 146.933 246.871 147.128 246.848 147.33C246.824 147.532 246.84 147.737 246.895 147.933L252.796 172.72C252.968 173.291 253.313 173.795 253.783 174.163C254.253 174.53 254.825 174.743 255.421 174.771L274.321 175.156C274.515 175.176 274.71 175.157 274.895 175.1Z" fill="#263238"/>
<path opacity="0.3" d="M274.895 175.1C275.091 175.045 275.275 174.952 275.434 174.826C275.594 174.7 275.728 174.544 275.827 174.367C275.927 174.189 275.99 173.994 276.014 173.792C276.038 173.59 276.022 173.385 275.966 173.189L270.1 148.416C269.93 147.843 269.586 147.338 269.116 146.969C268.645 146.6 268.072 146.387 267.475 146.358L248.575 145.973C248.371 145.947 248.164 145.964 247.966 146.022C247.77 146.077 247.587 146.17 247.427 146.296C247.267 146.422 247.134 146.578 247.034 146.755C246.935 146.933 246.871 147.128 246.848 147.33C246.824 147.532 246.84 147.737 246.895 147.933L252.796 172.72C252.968 173.291 253.313 173.795 253.783 174.163C254.253 174.53 254.825 174.743 255.421 174.771L274.321 175.156C274.515 175.176 274.71 175.157 274.895 175.1Z" fill="white"/>
<path opacity="0.2" d="M258.971 158.762C258.985 158.575 259.038 158.393 259.124 158.227C259.21 158.061 259.329 157.914 259.473 157.794C259.618 157.675 259.784 157.586 259.964 157.532C260.143 157.478 260.331 157.461 260.518 157.481C261.058 157.511 261.575 157.709 261.997 158.048C262.419 158.387 262.724 158.85 262.87 159.371C262.921 159.548 262.937 159.734 262.919 159.917C262.902 160.102 262.849 160.283 262.762 160.447C262.674 160.612 262.555 160.757 262.411 160.875C262.267 160.993 262.101 161.081 261.923 161.134C261.744 161.187 261.557 161.204 261.372 161.184C260.832 161.153 260.315 160.954 259.893 160.616C259.471 160.277 259.166 159.815 259.02 159.294C258.968 159.122 258.951 158.941 258.971 158.762Z" fill="white"/>
<path d="M251.459 161.681C251.83 161.681 253.412 162.43 254.154 161.912C254.896 161.394 254.203 160.967 254.203 160.967C252.803 160.638 251.347 158.93 250.514 159.42C249.681 159.91 248.316 160.519 248.519 161.296C248.745 162.014 249.018 162.715 249.338 163.396C249.232 163.565 249.169 163.758 249.156 163.957C249.142 164.156 249.179 164.355 249.261 164.537C249.348 164.747 249.485 164.932 249.659 165.077C249.833 165.222 250.04 165.323 250.262 165.37C250.133 165.498 250.033 165.653 249.969 165.823C249.905 165.993 249.879 166.175 249.891 166.357C249.947 166.945 251.501 167.757 251.501 167.757C251.501 167.757 251.2 168.681 251.55 169.038C251.849 169.283 252.201 169.454 252.577 169.539C252.954 169.624 253.345 169.621 253.72 169.528C254.63 169.311 255.246 169.003 255.183 168.093C255.12 167.183 253.489 167.176 253.489 167.176C253.489 167.176 256.555 166.245 255.904 165.664C255.253 165.083 252.81 165.153 252.81 165.153C252.81 165.153 256.961 164.334 256.31 163.48C255.659 162.626 251.515 162.864 251.515 162.864C251.515 162.864 251.088 161.709 251.459 161.681Z" fill="#E9B376"/>
<path d="M286.753 308.716L288.524 323.752L283.127 324.501L277.45 310.368L286.753 308.716Z" fill="#E9B376"/>
<path d="M278.843 320.819C278.759 319.902 278.843 319.132 279.9 319.083L281.419 318.999C281.954 319.067 282.457 319.294 282.861 319.65C286.361 321.869 287.761 318.999 289.161 318.999C290.897 318.999 289.777 324.095 289.861 324.361L291.758 330.276C291.926 330.773 291.59 331.837 291.016 331.977C290.913 332.002 290.807 332.014 290.701 332.012H270.541C267.342 332.012 267.307 328.421 268.623 328.162C274.552 327.042 276.89 325.264 278.843 323.962C278.918 322.916 278.918 321.865 278.843 320.819Z" fill="#FF9356"/>
<path opacity="0.4" d="M270.541 332.012H290.673C290.779 332.014 290.885 332.002 290.988 331.977C291.38 331.879 291.688 331.361 291.744 330.878V330.43H268C268.2 330.93 268.554 331.353 269.011 331.638C269.468 331.922 270.004 332.053 270.541 332.012Z" fill="white"/>
<path d="M275.701 326.139C275.956 326.349 276.19 326.584 276.401 326.839C276.422 326.871 276.446 326.901 276.471 326.93L276.506 326.979C276.555 327.049 276.604 327.112 276.646 327.182C276.735 327.312 276.817 327.448 276.891 327.588C276.905 327.623 276.927 327.655 276.955 327.681C276.982 327.707 277.015 327.726 277.051 327.738C277.087 327.75 277.126 327.755 277.163 327.751C277.201 327.747 277.238 327.735 277.271 327.716C277.303 327.697 277.332 327.671 277.354 327.64C277.375 327.609 277.391 327.573 277.398 327.536C277.405 327.499 277.404 327.46 277.395 327.423C277.386 327.386 277.369 327.352 277.346 327.322C277.028 326.733 276.6 326.21 276.086 325.782C276.061 325.758 276.032 325.738 276 325.725C275.969 325.712 275.934 325.705 275.9 325.705C275.866 325.705 275.831 325.712 275.8 325.725C275.768 325.738 275.739 325.758 275.715 325.782C275.69 325.806 275.671 325.835 275.658 325.867C275.644 325.899 275.638 325.933 275.638 325.967C275.638 326.002 275.644 326.036 275.658 326.068C275.671 326.1 275.69 326.129 275.715 326.153L275.701 326.139Z" fill="#263238"/>
<path d="M277.555 325.11C277.78 325.305 277.989 325.518 278.178 325.747L278.248 325.831V325.866L278.374 326.041C278.465 326.167 278.542 326.293 278.619 326.419C278.654 326.479 278.711 326.522 278.778 326.54C278.845 326.559 278.916 326.55 278.976 326.517C279.036 326.481 279.08 326.422 279.098 326.355C279.117 326.287 279.108 326.215 279.074 326.153C278.754 325.626 278.353 325.154 277.884 324.753C277.86 324.729 277.831 324.709 277.799 324.696C277.767 324.683 277.733 324.676 277.699 324.676C277.664 324.676 277.63 324.683 277.598 324.696C277.567 324.709 277.538 324.729 277.513 324.753C277.489 324.777 277.47 324.806 277.456 324.838C277.443 324.87 277.437 324.904 277.437 324.939C277.437 324.973 277.443 325.007 277.456 325.039C277.47 325.071 277.489 325.1 277.513 325.124L277.555 325.11Z" fill="#263238"/>
<path d="M278.921 324.249C279.027 324.305 279.13 324.368 279.229 324.438L279.306 324.487L279.348 324.522L279.481 324.641L279.6 324.767L279.656 324.83V324.865C279.727 324.958 279.79 325.056 279.845 325.159C279.88 325.218 279.937 325.261 280.004 325.278C280.071 325.295 280.142 325.285 280.202 325.25C280.261 325.215 280.304 325.157 280.321 325.09C280.338 325.023 280.328 324.952 280.293 324.893C280.047 324.422 279.657 324.042 279.18 323.808C279.12 323.773 279.049 323.762 278.982 323.78C278.915 323.797 278.858 323.84 278.823 323.899C278.787 323.958 278.777 324.029 278.794 324.096C278.811 324.163 278.854 324.221 278.914 324.256L278.921 324.249Z" fill="#263238"/>
<path d="M279.054 322.408C279.191 322.401 279.329 322.401 279.467 322.408L279.803 322.464C280.06 322.513 280.313 322.583 280.559 322.674C280.592 322.684 280.627 322.686 280.661 322.682C280.695 322.678 280.728 322.668 280.758 322.651C280.788 322.634 280.814 322.611 280.835 322.584C280.857 322.556 280.872 322.525 280.881 322.492C280.898 322.425 280.889 322.354 280.855 322.294C280.821 322.234 280.765 322.19 280.699 322.17C280.172 321.974 279.616 321.87 279.054 321.862C278.985 321.864 278.919 321.893 278.87 321.942C278.822 321.992 278.795 322.059 278.795 322.128C278.797 322.196 278.825 322.261 278.873 322.309C278.921 322.357 278.986 322.385 279.054 322.387V322.408Z" fill="#263238"/>
<g opacity="0.3">
<path d="M284.723 322.597C284.714 322.869 284.779 323.138 284.909 323.377C285.04 323.616 285.231 323.815 285.465 323.955C285.801 324.077 286.159 324.122 286.515 324.088L289.721 324.004C289.889 322.604 290.344 319.216 289.021 319.216C287.985 319.216 286.886 321.162 284.709 320.616C284.737 321.302 284.702 322.247 284.723 322.597Z" fill="black"/>
</g>
<path d="M270.1 262.005C271.059 253.304 283.176 207.146 283.176 207.146L298.576 206.775L322.278 206.075C322.278 206.075 323.678 218.444 323.678 234.649C323.678 234.649 322.53 303.83 321.578 320.301L308.558 320.798C307.088 307.89 305.1 267.5 305.1 267.5C304.204 260.185 303.399 238.597 302.762 232.43C302.496 231.063 302.235 229.693 301.978 228.321C299.451 235.006 287.845 263.615 286.949 267.717L291.716 322.121L277.716 321.582C277.716 321.582 269.134 270.699 270.1 262.005Z" fill="#263238"/>
<path d="M291.318 208.938C290.551 211.186 289.243 213.211 287.508 214.834C285.773 216.456 283.665 217.626 281.371 218.241C281.346 218.248 281.323 218.26 281.303 218.277C281.282 218.293 281.266 218.313 281.253 218.336C281.241 218.359 281.233 218.384 281.231 218.409C281.228 218.435 281.23 218.461 281.238 218.486C281.245 218.511 281.257 218.534 281.273 218.554C281.29 218.574 281.31 218.591 281.333 218.603C281.355 218.616 281.38 218.623 281.406 218.626C281.432 218.629 281.458 218.626 281.483 218.619C283.843 217.984 286.011 216.779 287.796 215.109C289.58 213.439 290.927 211.356 291.717 209.043C291.794 208.805 291.395 208.7 291.318 208.938Z" fill="black"/>
<path d="M303.126 209.589C302.855 213.476 302.58 217.364 302.3 221.251C302.3 221.503 301.88 221.503 301.894 221.251L302.314 215.259C301.299 216.001 300.116 215.105 299.787 214.111C299.332 212.434 299.361 210.662 299.871 209.001C299.941 208.756 300.333 208.861 300.27 209.099C299.963 210.22 299.849 211.384 299.934 212.543C299.935 213.165 300.067 213.78 300.319 214.349C300.648 214.944 301.467 215.455 302.125 214.909C302.157 214.888 302.195 214.876 302.234 214.876C302.272 214.876 302.31 214.888 302.342 214.909L302.72 209.617C302.734 209.337 303.14 209.337 303.126 209.589Z" fill="black"/>
<path d="M312.8 208.875C312.744 214.027 316.93 218.339 322.348 218.738C322.607 218.738 322.607 218.381 322.348 218.36C317.147 217.968 313.15 213.803 313.206 208.875C313.206 208.821 313.185 208.77 313.147 208.731C313.109 208.693 313.057 208.672 313.003 208.672C312.95 208.672 312.898 208.693 312.86 208.731C312.822 208.77 312.8 208.821 312.8 208.875Z" fill="black"/>
<path d="M310.819 309.444L313.115 324.879L318.596 325.131L320.374 310.249L310.819 309.444Z" fill="#263238"/>
<path d="M323.3 332.047H311.001C310.818 331.48 310.833 330.868 311.043 330.311C311.093 330.093 311.154 329.878 311.225 329.667V329.632C311.337 329.282 311.47 328.855 311.61 328.393C312.066 326.345 312.382 324.268 312.555 322.177C312.555 322.177 314.872 320.042 317.259 321.043C319.359 321.918 319.03 323.031 319.03 323.031C319.03 323.031 319.065 325.908 320.654 327.231C321.634 328.029 322.614 328.631 323.083 329.653C323.171 329.846 323.239 330.048 323.286 330.255C323.289 330.281 323.289 330.306 323.286 330.332C323.409 330.897 323.413 331.48 323.3 332.047Z" fill="#FF9356"/>
<path opacity="0.4" d="M311.043 330.311C310.833 330.868 310.818 331.48 311.001 332.047H323.3C323.437 331.478 323.454 330.887 323.349 330.311H311.043Z" fill="white"/>
<path d="M318.4 325.061C318.073 324.826 317.675 324.71 317.272 324.733C316.87 324.756 316.487 324.916 316.188 325.187C316.02 325.341 315.761 325.103 315.929 324.956C316.3 324.623 316.774 324.428 317.272 324.405C317.77 324.382 318.26 324.532 318.659 324.83C318.841 324.956 318.582 325.194 318.4 325.061Z" fill="#263238"/>
<path d="M318.73 326.111C318.401 325.876 318.002 325.76 317.598 325.783C317.194 325.806 316.811 325.966 316.511 326.237C316.343 326.391 316.091 326.153 316.252 326.006C316.622 325.673 317.097 325.478 317.594 325.455C318.092 325.432 318.582 325.582 318.982 325.88C319.164 326.013 318.912 326.244 318.73 326.111Z" fill="#263238"/>
<path d="M319.101 327.077C318.773 326.842 318.375 326.726 317.972 326.749C317.57 326.772 317.187 326.932 316.889 327.203C316.721 327.357 316.462 327.119 316.63 326.972C317 326.639 317.474 326.444 317.972 326.421C318.47 326.398 318.96 326.548 319.36 326.846C319.542 326.979 319.283 327.21 319.101 327.077Z" fill="#263238"/>
<path d="M283.274 203.548C281.09 207.132 281.09 210.016 283.169 210.751C283.169 210.751 302.069 213.957 321.445 211.759C326.107 212.018 323.825 207.699 323.825 207.699L323.93 147.961C309.23 144.846 291.429 147.73 287.824 147.961L283.274 203.548Z" fill="#FF9356"/>
<path opacity="0.2" d="M323.867 182.695V162.941C323.867 162.941 326.765 183.192 325.309 188.211L323.867 182.695Z" fill="black"/>
<path d="M297.142 121.536C297.142 121.536 289.995 117.511 294.237 113.199C297.583 109.797 300.537 110.294 305.017 111.099C315.986 113.094 315.349 117.665 315.349 117.665L297.142 121.536Z" fill="#263238"/>
<path d="M311.107 144.552C311.107 144.552 310.519 140.352 312.983 133.051C312.983 133.051 312.605 132.855 312.605 132.848C312.941 131.826 313.305 130.888 313.627 130.048L303.253 135.851C303.386 138.224 302.336 142.746 301.748 144.657C301.748 144.657 300.348 148.087 304.961 148.444C308.356 148.696 311.107 144.552 311.107 144.552Z" fill="#E9B376"/>
<path opacity="0.2" d="M302.945 139.155L308.818 138.098C308.209 139.883 306.515 141.955 302.462 141.955C302.7 141.037 302.861 140.1 302.945 139.155Z" fill="black"/>
<path d="M313.927 125.134C312.968 131.511 312.527 135.123 309.027 138.098C303.714 142.571 296.224 139.022 295.258 132.498C294.39 126.604 296.105 117.168 302.615 115.229C304.054 114.804 305.577 114.749 307.043 115.071C308.508 115.392 309.869 116.079 310.998 117.068C312.127 118.056 312.987 119.314 313.499 120.724C314.011 122.135 314.159 123.652 313.927 125.134Z" fill="#E9B376"/>
<path d="M315.426 117.497C307.6 109.958 299.634 114.193 296.589 118.323L310.239 118.484C310.841 118.484 311.177 119.093 311.051 120.234C311.051 120.234 306.312 128.718 312.843 133.485C315.174 132.589 315.643 128.711 316.56 126.45C317.918 123.09 319.633 118.141 315.426 117.497Z" fill="#263238"/>
<path d="M315.985 130.699C315.676 131.438 315.223 132.107 314.652 132.668C314.081 133.23 313.404 133.672 312.66 133.968C310.665 134.752 310.14 132.568 310.497 130.594C310.819 128.788 311.547 126.625 313.647 126.695C315.747 126.765 316.741 128.9 315.985 130.699Z" fill="#E9B376"/>
<path d="M304.022 126.345C303.966 126.996 303.574 127.493 303.14 127.451C302.706 127.409 302.44 126.849 302.44 126.191C302.44 125.533 302.895 125.036 303.322 125.078C303.749 125.12 304.085 125.687 304.022 126.345Z" fill="#263238"/>
<path d="M297.904 126.037C297.841 126.688 297.449 127.185 297.022 127.143C296.595 127.101 296.322 126.541 296.322 125.883C296.322 125.225 296.77 124.728 297.204 124.77C297.638 124.812 297.96 125.4 297.904 126.037Z" fill="#263238"/>
<path d="M300.27 125.554C300.27 125.554 297.904 128.634 297.127 129.901C297.967 130.804 299.57 130.566 299.57 130.566L300.27 125.554Z" fill="#D58745"/>
<path d="M306.5 123.223C306.448 123.24 306.393 123.242 306.34 123.23C306.287 123.217 306.238 123.191 306.199 123.153C305.926 122.883 305.595 122.68 305.231 122.559C304.867 122.437 304.479 122.401 304.099 122.453C304.019 122.472 303.935 122.46 303.865 122.418C303.794 122.376 303.743 122.308 303.721 122.229C303.712 122.189 303.71 122.148 303.717 122.108C303.724 122.068 303.738 122.03 303.759 121.995C303.781 121.961 303.809 121.931 303.842 121.907C303.875 121.884 303.913 121.867 303.952 121.858C304.435 121.772 304.932 121.802 305.401 121.947C305.87 122.092 306.297 122.347 306.647 122.691C306.676 122.719 306.7 122.753 306.715 122.79C306.731 122.827 306.74 122.867 306.74 122.908C306.74 122.949 306.731 122.989 306.715 123.026C306.7 123.063 306.676 123.097 306.647 123.125C306.61 123.173 306.559 123.208 306.5 123.223Z" fill="#263238"/>
<path d="M301.831 133.1H301.509C301.475 133.097 301.442 133.086 301.412 133.07C301.382 133.054 301.355 133.031 301.334 133.005C301.312 132.978 301.296 132.947 301.287 132.914C301.277 132.882 301.274 132.847 301.278 132.813C301.279 132.778 301.287 132.744 301.302 132.713C301.316 132.681 301.338 132.653 301.364 132.631C301.391 132.608 301.422 132.592 301.455 132.582C301.489 132.572 301.524 132.57 301.558 132.575C302.044 132.594 302.528 132.513 302.982 132.339C303.436 132.164 303.849 131.899 304.197 131.56C304.223 131.537 304.254 131.52 304.287 131.51C304.32 131.499 304.355 131.495 304.39 131.499C304.425 131.502 304.458 131.512 304.489 131.529C304.519 131.545 304.546 131.568 304.568 131.595C304.612 131.649 304.633 131.718 304.626 131.788C304.62 131.857 304.586 131.921 304.533 131.966C303.792 132.647 302.836 133.048 301.831 133.1Z" fill="#263238"/>
<path opacity="0.2" d="M311.583 130.636H311.548C311.525 130.631 311.504 130.622 311.485 130.608C311.466 130.595 311.45 130.578 311.437 130.559C311.425 130.539 311.417 130.517 311.413 130.495C311.409 130.472 311.409 130.449 311.415 130.426C311.535 129.847 311.802 129.31 312.192 128.865C312.514 128.473 312.961 128.204 313.459 128.102C313.727 128.052 314.004 128.084 314.254 128.194C314.503 128.304 314.714 128.487 314.859 128.718C314.881 128.759 314.886 128.807 314.873 128.851C314.86 128.896 314.829 128.934 314.789 128.956C314.748 128.978 314.7 128.983 314.655 128.97C314.61 128.957 314.573 128.927 314.551 128.886C314.443 128.722 314.289 128.594 314.108 128.516C313.928 128.439 313.729 128.417 313.536 128.452C313.118 128.539 312.742 128.766 312.472 129.096C312.12 129.494 311.879 129.976 311.772 130.496C311.762 130.538 311.737 130.575 311.703 130.601C311.668 130.626 311.626 130.639 311.583 130.636Z" fill="black"/>
<path d="M295.552 122.712C295.494 122.696 295.443 122.661 295.405 122.614C295.38 122.583 295.36 122.547 295.348 122.508C295.337 122.469 295.332 122.429 295.336 122.388C295.34 122.348 295.352 122.309 295.371 122.273C295.39 122.237 295.416 122.206 295.447 122.18C295.816 121.862 296.256 121.638 296.73 121.526C297.204 121.414 297.698 121.417 298.17 121.536C298.248 121.563 298.312 121.619 298.35 121.692C298.387 121.765 298.396 121.849 298.373 121.928C298.349 122.006 298.295 122.071 298.223 122.109C298.151 122.147 298.066 122.155 297.988 122.131C297.615 122.035 297.223 122.033 296.848 122.124C296.473 122.216 296.127 122.398 295.839 122.656C295.801 122.69 295.754 122.713 295.704 122.723C295.653 122.733 295.601 122.729 295.552 122.712Z" fill="#263238"/>
<path opacity="0.3" d="M317.525 123.79L309.692 123.979C309.897 123.075 310.178 122.19 310.532 121.333H318.05C317.969 122.169 317.793 122.994 317.525 123.79Z" fill="white"/>
<g opacity="0.2">
<path d="M304.876 130.3C305.158 130.608 305.376 130.969 305.517 131.362C305.658 131.755 305.718 132.172 305.695 132.589C305.917 132.176 305.992 131.699 305.905 131.238C305.737 130.524 304.876 130.3 304.876 130.3Z" fill="black"/>
</g>
<path d="M301.999 142.851L297.96 146.491L304.701 154.667L314.445 146.449L311.561 142.207L305.464 147.289L301.999 142.851Z" fill="#FF9356"/>
<path opacity="0.8" d="M301.999 142.851L297.96 146.491L304.701 154.667L314.445 146.449L311.561 142.207L305.464 147.289L301.999 142.851Z" fill="white"/>
<path opacity="0.2" d="M323.671 191.116V198.116C323.671 198.116 308.138 193.58 298.989 185.397C292.472 179.566 293.487 177.116 293.487 177.116L300.872 177.816L323.671 191.116Z" fill="black"/>
<path opacity="0.2" d="M318.8 164.649L319.801 181.155C322.552 182.912 324.379 180.455 324.799 177.97V173.217L318.8 164.649Z" fill="black"/>
<path d="M318.779 165.713C318.779 165.713 323.77 178.733 322.524 179.524C321.278 180.315 300.978 176.5 300.978 176.5L297.842 181.001C298.542 183.955 332.842 202.596 335.642 187.007C337.098 178.887 331.442 159.707 329.307 153.771C328.712 152.105 325.702 148.542 324.008 148.024C323.445 147.836 322.845 147.783 322.258 147.87C315.783 149.053 318.779 165.713 318.779 165.713Z" fill="#FF9356"/>
<path d="M297.54 181.4C295.188 181.589 295.104 178.047 293.886 177.9C293.162 177.835 292.453 177.656 291.786 177.368C291.786 177.368 292.563 179.503 291.786 179.328C291.009 179.153 288.524 179.034 287.915 177.004C287.306 174.974 289.518 170.641 290.015 170.004C290.512 169.367 293.165 169.584 293.165 169.584C293.165 169.584 290.316 168.849 288.755 168.632C287.194 168.415 286.893 166.623 289.077 167.022C289.973 167.183 297.05 167.239 297.813 167.967C298.576 168.695 301.425 175.849 301.425 175.849C302.51 176.5 299.836 182.499 297.54 181.4Z" fill="#E9B376"/>
<g opacity="0.3">
<path d="M293.201 169.409C293.927 169.357 294.657 169.404 295.371 169.549C295.421 169.564 295.464 169.597 295.49 169.643C295.516 169.689 295.524 169.743 295.511 169.794C295.499 169.84 295.471 169.88 295.433 169.907C295.394 169.934 295.347 169.946 295.301 169.941C294.626 169.807 293.936 169.76 293.25 169.801C293.019 169.801 292.977 169.423 293.201 169.409Z" fill="black"/>
<path d="M289.581 171.551C289.357 171.67 289.126 171.341 289.35 171.229C290.673 170.529 292.066 170.921 293.41 171.369C293.648 171.446 293.48 171.81 293.235 171.733C292.059 171.334 290.757 170.956 289.581 171.551Z" fill="black"/>
<path d="M288.545 173.301C289.107 172.966 289.744 172.776 290.397 172.748C291.051 172.72 291.701 172.854 292.29 173.14C292.313 173.154 292.334 173.172 292.349 173.194C292.365 173.215 292.377 173.24 292.383 173.266C292.388 173.293 292.389 173.32 292.384 173.346C292.379 173.373 292.368 173.398 292.353 173.42C292.33 173.457 292.296 173.485 292.255 173.5C292.215 173.515 292.17 173.517 292.129 173.504C291.602 173.247 291.019 173.125 290.433 173.147C289.847 173.169 289.276 173.335 288.769 173.63C288.552 173.763 288.3 173.434 288.545 173.301Z" fill="black"/>
<path d="M290.442 176.276C290.341 176.065 290.261 175.845 290.204 175.618C290.148 175.373 290.519 175.233 290.582 175.478C290.665 175.854 290.824 176.21 291.049 176.523C291.274 176.836 291.561 177.1 291.891 177.298C292.115 177.424 291.947 177.788 291.73 177.662C291.317 177.425 290.96 177.1 290.687 176.71C290.687 176.71 290.638 176.71 290.61 176.71C290.407 176.639 290.187 176.63 289.978 176.685C289.77 176.74 289.583 176.856 289.441 177.018C289.273 177.214 288.965 176.962 289.14 176.766C289.299 176.582 289.501 176.44 289.728 176.355C289.956 176.269 290.201 176.242 290.442 176.276Z" fill="black"/>
</g>
</g>
<defs>
<linearGradient id="paint0_linear_244_1004" x1="400.235" y1="32.7366" x2="69.3102" y2="426.636" gradientUnits="userSpaceOnUse">
<stop stop-color="white"/>
<stop offset="1" stop-color="white"/>
</linearGradient>
<clipPath id="clip0_244_1004">
<rect width="400" height="386.458" fill="white" transform="matrix(-1 0 0 -1 400 386.458)"/>
</clipPath>
</defs>
</svg>
