<svg xmlns="http://www.w3.org/2000/svg" width="135" height="39.842" viewBox="0 0 135 39.842">
  <g id="tiktok-banner-black-3" transform="translate(-21.192 -19.19)">
    <g id="Group_5418" data-name="Group 5418" transform="translate(26.567 20.793)">
      <path id="Path_4227" data-name="Path 4227" d="M229.906,189.36l.131.369A3.605,3.605,0,0,1,229.906,189.36Zm-6.069-2.624a5.559,5.559,0,0,1,7.2-4.9v-5.172a10.9,10.9,0,0,1,1.908.119v6.654a5.559,5.559,0,0,0-7.2,4.9,6.134,6.134,0,0,0,1.078,3.7q-.331-.177-.674-.4A5.662,5.662,0,0,1,223.838,186.736ZM243.786,167.1a9.12,9.12,0,0,1-2.19-4.493h1.818a8.484,8.484,0,0,0,2.28,6.1l.037.041a10.579,10.579,0,0,1-1.945-1.643Z" transform="translate(-222.674 -162.61)" fill="#ee1d52"/>
      <path id="Path_4228" data-name="Path 4228" d="M239.1,275.61v6.52a22.52,22.52,0,0,1-4.038-.551,15.44,15.44,0,0,1-3.939-1.614s-1.065-.7-1.151-.746v13.47a13.562,13.562,0,0,1-.8,4.184,12.655,12.655,0,0,1-2.214,3.657,12.52,12.52,0,0,1-4.064,3.034,12.048,12.048,0,0,1-5,1.1,12.35,12.35,0,0,1-6.741-2.019,13.428,13.428,0,0,1-1.925-1.614l.016.011a12.352,12.352,0,0,0,6.741,2.019,12.043,12.043,0,0,0,5-1.1,12.213,12.213,0,0,0,6.278-6.693,13.6,13.6,0,0,0,.8-4.184V277.618c.086.049,1.151.747,1.151.747a15.373,15.373,0,0,0,3.939,1.614,22.609,22.609,0,0,0,4.038.551V275.42A6.178,6.178,0,0,0,239.1,275.61Z" transform="translate(-209.23 -266.431)" fill="#ee1d52"/>
    </g>
    <path id="Path_4229" data-name="Path 4229" d="M197.128,171.608v5.108a22.613,22.613,0,0,1-4.037-.551,15.441,15.441,0,0,1-3.939-1.614s-1.065-.7-1.151-.747v13.467a13.553,13.553,0,0,1-.8,4.184,12.651,12.651,0,0,1-2.214,3.658,12.521,12.521,0,0,1-4.064,3.034,12.044,12.044,0,0,1-5,1.1,12.352,12.352,0,0,1-6.741-2.019l-.016-.011a12.669,12.669,0,0,1-.951-1.077,12.959,12.959,0,0,1-1.8-3.267.011.011,0,0,1,0-.006,13.154,13.154,0,0,1-.712-4.354A11.979,11.979,0,0,1,167.16,183a12.977,12.977,0,0,1,2.832-3.458,11.785,11.785,0,0,1,3.364-1.992,11.466,11.466,0,0,1,2.373-.7,11.659,11.659,0,0,1,1.8-.179v5.169a5.545,5.545,0,0,0-4.893,9.8q.343.227.674.4a5.259,5.259,0,0,0,1.234,1.2,5.394,5.394,0,0,0,5.578.532,5.249,5.249,0,0,0,2.885-3.155,7.68,7.68,0,0,0,.3-2.613V162.62h4.781a9.12,9.12,0,0,0,2.19,4.493,10.579,10.579,0,0,0,1.945,1.643,10.22,10.22,0,0,0,2.667,2.039,10.358,10.358,0,0,0,2.238.813Z" transform="translate(-142.597 -141.826)"/>
    <path id="Path_4230" data-name="Path 4230" d="M150.83,522.39v0l.118.335C150.935,522.691,150.891,522.573,150.83,522.39Z" transform="translate(-128.916 -472.929)" fill="#69c9d0"/>
    <path id="Path_4231" data-name="Path 4231" d="M151.339,321.453a11.784,11.784,0,0,0-3.364,1.992,12.976,12.976,0,0,0-2.83,3.465,11.967,11.967,0,0,0-1.458,5.515,13.153,13.153,0,0,0,.712,4.354.011.011,0,0,0,0,.006,13.181,13.181,0,0,0,1.8,3.267,12.676,12.676,0,0,0,.951,1.077,13.278,13.278,0,0,1-2.859-2.681,12.982,12.982,0,0,1-1.8-3.25l0-.01v-.006a13.1,13.1,0,0,1-.712-4.355,11.978,11.978,0,0,1,1.458-5.515,12.964,12.964,0,0,1,2.83-3.465,11.766,11.766,0,0,1,3.364-1.992,11.464,11.464,0,0,1,2.373-.7,11.769,11.769,0,0,1,3.711-.055v1.474a11.66,11.66,0,0,0-1.8.174A11.463,11.463,0,0,0,151.339,321.453Z" transform="translate(-120.58 -285.728)" fill="#69c9d0"/>
    <path id="Path_4232" data-name="Path 4232" d="M276.138,144.094h-4.781v25.388a7.687,7.687,0,0,1-.3,2.613,5.268,5.268,0,0,1-2.879,3.161,5.387,5.387,0,0,1-5.578-.532,5.26,5.26,0,0,1-1.234-1.2,5.511,5.511,0,0,0,7.779-3.037,7.658,7.658,0,0,0,.3-2.612V142.49h6.6A6.205,6.205,0,0,0,276.138,144.094Zm9.041,7.576v1.412a10.359,10.359,0,0,1-2.239-.813,10.22,10.22,0,0,1-2.667-2.039,7.311,7.311,0,0,0,.759.436A8.57,8.57,0,0,0,285.179,151.67Z" transform="translate(-230.648 -123.3)" fill="#69c9d0"/>
    <path id="Path_4233" data-name="Path 4233" d="M1446.879,424.618a3.665,3.665,0,0,1-.159-1.072v-.026A3.957,3.957,0,0,0,1446.879,424.618Zm7.9-1.1v.026a3.7,3.7,0,0,1-.159,1.072,4.051,4.051,0,0,0,.159-1.1Z" transform="translate(-1321.547 -381.937)" fill="none"/>
    <path id="Path_4234" data-name="Path 4234" d="M1384.387,329.591a3.678,3.678,0,0,0,.159,1.072.629.629,0,0,0,.022.073,4.03,4.03,0,0,0,3.85,2.836v4.08a9.131,9.131,0,0,1-5.571-1.21,7.975,7.975,0,0,1-3.858-6.9,8.069,8.069,0,0,1,4.184-7.1,9.89,9.89,0,0,1,5.245-1.008v4.077a4.033,4.033,0,0,0-4.032,4.031Z" transform="translate(-1259.214 -287.982)" fill="#69c9d0"/>
    <path id="Path_4235" data-name="Path 4235" d="M1501.742,329.591a3.644,3.644,0,0,1-.159,1.072.5.5,0,0,1-.022.073,4.029,4.029,0,0,1-3.85,2.836v4.08a9.13,9.13,0,0,0,5.571-1.21,7.976,7.976,0,0,0,3.859-6.9,8.071,8.071,0,0,0-4.184-7.1,9.893,9.893,0,0,0-5.245-1.008v4.077a4.033,4.033,0,0,1,4.033,4.032Z" transform="translate(-1368.474 -287.982)" fill="#ee1d52"/>
    <path id="Path_4236" data-name="Path 4236" d="M714.06,275h14.933l-1.38,4.109h-3.9v15.724H718.9V279.109H714.06Zm39.578,0v4.109h4.838v15.724h4.807V279.109h3.9L768.571,275Zm-21.4,4.683a2.326,2.326,0,1,0-2.326-2.326A2.326,2.326,0,0,0,732.242,279.683Zm-2.33,15.151h4.715V281.327h-4.715Zm21.674-15.267h-5.512l-4.751,4.756v-9.308h-4.683l-.016,19.819h4.73V289.67l1.473-1.333,4.59,6.5h5.056l-6.649-9.5Zm45.223,5.765,5.765-5.765h-5.512l-4.751,4.756v-9.308h-4.684l-.015,19.819h4.73V289.67l1.477-1.333,4.59,6.5h5.051Zm-12.12,1.477a8.22,8.22,0,1,1-8.219-8.11,8.165,8.165,0,0,1,8.219,8.11Zm-4.187,0a4.032,4.032,0,1,0-4.032,4.032,4.032,4.032,0,0,0,4.032-4.032Z" transform="translate(-647.267 -245.251)"/>
  </g>
</svg>
