<svg width="1440" height="138" viewBox="0 0 1440 138" fill="none" xmlns="http://www.w3.org/2000/svg">
<g clip-path="url(#clip0_507_6237)">
<rect width="1440" height="138" fill="#F4F4F4"/>
<path d="M-56 92L7.5 66.5C78 42.5 137 39 232 34.5C329.5 32.5 421.714 39.7238 520 64.729C616 89.1527 712 105.435 808 91.8277C904 78.6854 1000 46.3529 1096 22.2781C1192 -2.49443 1288 2.62325 1384 10.4156C1480 18.9057 1576 18.2077 1672 29.4891C1768 40.3053 1864 40.3053 1960 40.3053C2056 40.3053 2152 40.3053 2248 45.7716C2344 50.7726 2440 62.4029 2536 75.5452C2632 89.1527 2728 105.435 2824 102.76C2920 99.62 3016 78.6854 3112 59.2628C3208 40.3053 3304 24.0229 3400 29.4891C3496 34.4902 3592 62.4029 3688 72.8702C3784 83.3375 3880 78.6854 3976 67.404C4072 56.5878 4168 40.3053 4264 48.4466C4360 56.5878 4456 89.1527 4552 102.76C4648 115.902 4744 111.25 4840 91.8277C4936 72.8702 5032 40.3053 5128 32.1641C5224 24.0229 5320 40.3053 5416 53.9128C5512 67.0551 5608 78.6854 5704 83.6864C5800 89.1527 5896 89.1527 5992 78.3365C6088 67.0551 6184 46.1205 6280 40.3053C6376 34.4902 6472 46.1205 6568 48.4466C6664 50.7726 6760 46.1205 6808 42.9803L6856 40.3053V138H6808C6760 138 6664 138 6568 138C6472 138 6376 138 6280 138C6184 138 6088 138 5992 138C5896 138 5800 138 5704 138C5608 138 5512 138 5416 138C5320 138 5224 138 5128 138C5032 138 4936 138 4840 138C4744 138 4648 138 4552 138C4456 138 4360 138 4264 138C4168 138 4072 138 3976 138C3880 138 3784 138 3688 138C3592 138 3496 138 3400 138C3304 138 3208 138 3112 138C3016 138 2920 138 2824 138C2728 138 2632 138 2536 138C2440 138 2344 138 2248 138C2152 138 2056 138 1960 138C1864 138 1768 138 1672 138C1576 138 1480 138 1384 138C1288 138 1192 138 1096 138C1000 138 904 138 808 138C712 138 616 138 520 138C424 138 328 138 232 138C136 138 40 138 -8 138H-56V92Z" fill="#5A5857"/>
<path d="M-27 100L36.5 74.5C107 50.5 166 47 261 42.5C358.5 40.5 450.714 47.7238 549 72.729C645 97.1527 741 113.435 837 99.8277C933 86.6854 1029 54.3529 1125 30.2781C1221 5.50557 1317 10.6232 1413 18.4156C1509 26.9057 1605 26.2077 1701 37.4891C1797 48.3053 1893 48.3053 1989 48.3053C2085 48.3053 2181 48.3053 2277 53.7716C2373 58.7726 2469 70.4029 2565 83.5452C2661 97.1527 2757 113.435 2853 110.76C2949 107.62 3045 86.6854 3141 67.2628C3237 48.3053 3333 32.0229 3429 37.4891C3525 42.4902 3621 70.4029 3717 80.8702C3813 91.3375 3909 86.6854 4005 75.404C4101 64.5878 4197 48.3053 4293 56.4466C4389 64.5878 4485 97.1527 4581 110.76C4677 123.902 4773 119.25 4869 99.8277C4965 80.8702 5061 48.3053 5157 40.1641C5253 32.0229 5349 48.3053 5445 61.9128C5541 75.0551 5637 86.6854 5733 91.6864C5829 97.1527 5925 97.1527 6021 86.3365C6117 75.0551 6213 54.1205 6309 48.3053C6405 42.4902 6501 54.1205 6597 56.4466C6693 58.7726 6789 54.1205 6837 50.9803L6885 48.3053V146H6837C6789 146 6693 146 6597 146C6501 146 6405 146 6309 146C6213 146 6117 146 6021 146C5925 146 5829 146 5733 146C5637 146 5541 146 5445 146C5349 146 5253 146 5157 146C5061 146 4965 146 4869 146C4773 146 4677 146 4581 146C4485 146 4389 146 4293 146C4197 146 4101 146 4005 146C3909 146 3813 146 3717 146C3621 146 3525 146 3429 146C3333 146 3237 146 3141 146C3045 146 2949 146 2853 146C2757 146 2661 146 2565 146C2469 146 2373 146 2277 146C2181 146 2085 146 1989 146C1893 146 1797 146 1701 146C1605 146 1509 146 1413 146C1317 146 1221 146 1125 146C1029 146 933 146 837 146C741 146 645 146 549 146C453 146 357 146 261 146C165 146 69 146 21 146H-27V100Z" fill="#312E2D"/>
<path d="M0 112L63.5 86.5C134 62.5 193 59 288 54.5C385.5 52.5 477.714 59.7238 576 84.729C672 109.153 768 125.435 864 111.828C960 98.6854 1056 66.3529 1152 42.2781C1248 17.5056 1344 22.6232 1440 30.4156C1536 38.9057 1632 38.2077 1728 49.4891C1824 60.3053 1920 60.3053 2016 60.3053C2112 60.3053 2208 60.3053 2304 65.7716C2400 70.7726 2496 82.4029 2592 95.5452C2688 109.153 2784 125.435 2880 122.76C2976 119.62 3072 98.6854 3168 79.2628C3264 60.3053 3360 44.0229 3456 49.4891C3552 54.4902 3648 82.4029 3744 92.8702C3840 103.338 3936 98.6854 4032 87.404C4128 76.5878 4224 60.3053 4320 68.4466C4416 76.5878 4512 109.153 4608 122.76C4704 135.902 4800 131.25 4896 111.828C4992 92.8702 5088 60.3053 5184 52.1641C5280 44.0229 5376 60.3053 5472 73.9128C5568 87.0551 5664 98.6854 5760 103.686C5856 109.153 5952 109.153 6048 98.3365C6144 87.0551 6240 66.1205 6336 60.3053C6432 54.4902 6528 66.1205 6624 68.4466C6720 70.7726 6816 66.1205 6864 62.9803L6912 60.3053V158H6864C6816 158 6720 158 6624 158C6528 158 6432 158 6336 158C6240 158 6144 158 6048 158C5952 158 5856 158 5760 158C5664 158 5568 158 5472 158C5376 158 5280 158 5184 158C5088 158 4992 158 4896 158C4800 158 4704 158 4608 158C4512 158 4416 158 4320 158C4224 158 4128 158 4032 158C3936 158 3840 158 3744 158C3648 158 3552 158 3456 158C3360 158 3264 158 3168 158C3072 158 2976 158 2880 158C2784 158 2688 158 2592 158C2496 158 2400 158 2304 158C2208 158 2112 158 2016 158C1920 158 1824 158 1728 158C1632 158 1536 158 1440 158C1344 158 1248 158 1152 158C1056 158 960 158 864 158C768 158 672 158 576 158C480 158 384 158 288 158C192 158 96 158 48 158H0L0 112Z" fill="#080403"/>
</g>
<defs>
<clipPath id="clip0_507_6237">
<rect width="1440" height="138" fill="white"/>
</clipPath>
</defs>
</svg>
