<svg width="1440" height="131" viewBox="0 0 1440 131" fill="none" xmlns="http://www.w3.org/2000/svg">
<g clip-path="url(#clip0_545_2605)">
<path d="M-32 54.5L28 39.5C88 29.5645 208 1.32903 328 8C448 14.1032 568 68.4613 688 84.5C808 101.106 928 102.935 1048 93C1168 83.0645 1270.5 45.7493 1394 33C1413.5 30.987 1436.37 35.4607 1457.5 29C1555.36 -0.926138 1669.31 -61.8367 1768 -56C1888 -48.9032 2008 59.1055 2128 39.6603C2248 19.3635 2368 -26.0558 2488 -29.8881C2608 -33.1526 2728 6.58933 2848 23.1958C2968 39.2345 3088 33.5571 3208 23.1958C3328 13.6861 3448 -0.507442 3568 -13.2816C3688 -26.0558 3808 -40.2494 3928 -29.8881C4048 -20.3784 4168 13.6861 4288 23.1958C4408 33.5571 4528 19.3635 4648 13.2603C4768 6.58932 4888 6.58933 5008 16.5248C5128 26.4603 5248 46.3313 5368 56.2668C5488 66.2022 5608 66.2022 5728 49.5958C5848 33.5571 5968 -0.507443 6088 -10.0171C6208 -20.3784 6328 -6.18486 6448 -6.61066C6568 -6.18486 6688 -20.3784 6808 -26.4816C6928 -33.1526 7048 -33.1526 7168 -26.4816C7288 -20.3784 7408 -6.18486 7528 -10.0171C7648 -13.2816 7768 -33.1526 7888 -46.3526C8008 -60.1203 8128 -65.7978 8248 -56.2881C8368 -45.9268 8488 -20.3784 8548 -6.61066L8608 6.58933V105.944H8548C8488 105.944 8368 105.944 8248 105.944C8128 105.944 8008 105.944 7888 105.944C7768 105.944 7648 105.944 7528 105.944C7408 105.944 7288 105.944 7168 105.944C7048 105.944 6928 105.944 6808 105.944C6688 105.944 6568 105.944 6448 105.944C6328 105.944 6208 105.944 6088 105.944C5968 105.944 5848 105.944 5728 105.944C5608 105.944 5488 105.944 5368 105.944C5248 105.944 5128 105.944 5008 105.944C4888 105.944 4768 105.944 4648 105.944C4528 105.944 4408 105.944 4288 105.944C4168 105.944 4048 105.944 3928 105.944C3808 105.944 3688 105.944 3568 105.944C3448 105.944 3328 105.944 3208 105.944C3088 105.944 2968 105.944 2848 105.944C2728 105.944 2608 105.944 2488 105.944C2368 105.944 2248 105.944 2128 105.944C2008 105.944 1888 105.944 1768 105.944C1648 105.944 1528 105.944 1408 105.944C1288 105.944 1168 105.944 1048 105.944C928 105.944 808 105.944 688 105.944C568 105.944 448 105.944 328 105.944C208 105.944 88 105.944 28 105.944H-32V54.5Z" fill="#FDF2E2"/>
<path d="M-58 72.3313L2 57.2507C62 47.3152 182 20.0798 302 26.7507C422 32.854 542 79.428 662 95.4668C782 112.073 902 112.073 1022 102.138C1142 92.2022 1262 56.9217 1382 50.2507C1502 44.1475 1622 65.2345 1742 72.3313C1862 79.428 1982 85.1055 2102 65.6603C2222 45.3635 2342 -0.0558281 2462 -3.88809C2582 -7.1526 2702 32.5893 2822 49.1958C2942 65.2345 3062 59.5571 3182 49.1958C3302 39.6861 3422 25.4926 3542 12.7184C3662 -0.0558281 3782 -14.2494 3902 -3.88809C4022 5.62159 4142 39.6861 4262 49.1958C4382 59.5571 4502 45.3635 4622 39.2603C4742 32.5893 4862 32.5893 4982 42.5248C5102 52.4603 5222 72.3313 5342 82.2668C5462 92.2022 5582 92.2022 5702 75.5958C5822 59.5571 5942 25.4926 6062 15.9829C6182 5.62159 6302 19.8151 6422 19.3893C6542 19.8151 6662 5.62159 6782 -0.481632C6902 -7.1526 7022 -7.1526 7142 -0.481632C7262 5.62159 7382 19.8151 7502 15.9829C7622 12.7184 7742 -7.1526 7862 -20.3526C7982 -34.1203 8102 -39.7978 8222 -30.2881C8342 -19.9268 8462 5.62159 8522 19.3893L8582 32.5893V131.944H8522C8462 131.944 8342 131.944 8222 131.944C8102 131.944 7982 131.944 7862 131.944C7742 131.944 7622 131.944 7502 131.944C7382 131.944 7262 131.944 7142 131.944C7022 131.944 6902 131.944 6782 131.944C6662 131.944 6542 131.944 6422 131.944C6302 131.944 6182 131.944 6062 131.944C5942 131.944 5822 131.944 5702 131.944C5582 131.944 5462 131.944 5342 131.944C5222 131.944 5102 131.944 4982 131.944C4862 131.944 4742 131.944 4622 131.944C4502 131.944 4382 131.944 4262 131.944C4142 131.944 4022 131.944 3902 131.944C3782 131.944 3662 131.944 3542 131.944C3422 131.944 3302 131.944 3182 131.944C3062 131.944 2942 131.944 2822 131.944C2702 131.944 2582 131.944 2462 131.944C2342 131.944 2222 131.944 2102 131.944C1982 131.944 1862 131.944 1742 131.944C1622 131.944 1502 131.944 1382 131.944C1262 131.944 1142 131.944 1022 131.944C902 131.944 782 131.944 662 131.944C542 131.944 422 131.944 302 131.944C182 131.944 62 131.944 2 131.944H-58V72.3313Z" fill="#F8E9D6"/>
<path d="M0 85.5805L60 70.5C120 60.5645 240 33.329 360 40C480 46.1032 600 92.6773 720 108.716C840 125.322 960 125.322 1080 115.387C1200 105.451 1320 70.171 1440 63.5C1560 57.3968 1680 78.4838 1800 85.5805C1920 92.6773 2040 98.3547 2160 78.9096C2280 58.6128 2400 13.1934 2520 9.36118C2640 6.09666 2760 45.8386 2880 62.445C3000 78.4838 3120 72.8063 3240 62.445C3360 52.9354 3480 38.7418 3600 25.9676C3720 13.1934 3840 -1.00011 3960 9.36118C4080 18.8709 4200 52.9354 4320 62.445C4440 72.8063 4560 58.6128 4680 52.5096C4800 45.8386 4920 45.8386 5040 55.7741C5160 65.7096 5280 85.5805 5400 95.516C5520 105.452 5640 105.452 5760 88.8451C5880 72.8063 6000 38.7418 6120 29.2321C6240 18.8709 6360 33.0644 6480 32.6386C6600 33.0644 6720 18.8709 6840 12.7676C6960 6.09667 7080 6.09667 7200 12.7676C7320 18.8709 7440 33.0644 7560 29.2321C7680 25.9676 7800 6.09667 7920 -7.10333C8040 -20.8711 8160 -26.5485 8280 -17.0388C8400 -6.67752 8520 18.8709 8580 32.6386L8640 45.8386V145.193H8580C8520 145.193 8400 145.193 8280 145.193C8160 145.193 8040 145.193 7920 145.193C7800 145.193 7680 145.193 7560 145.193C7440 145.193 7320 145.193 7200 145.193C7080 145.193 6960 145.193 6840 145.193C6720 145.193 6600 145.193 6480 145.193C6360 145.193 6240 145.193 6120 145.193C6000 145.193 5880 145.193 5760 145.193C5640 145.193 5520 145.193 5400 145.193C5280 145.193 5160 145.193 5040 145.193C4920 145.193 4800 145.193 4680 145.193C4560 145.193 4440 145.193 4320 145.193C4200 145.193 4080 145.193 3960 145.193C3840 145.193 3720 145.193 3600 145.193C3480 145.193 3360 145.193 3240 145.193C3120 145.193 3000 145.193 2880 145.193C2760 145.193 2640 145.193 2520 145.193C2400 145.193 2280 145.193 2160 145.193C2040 145.193 1920 145.193 1800 145.193C1680 145.193 1560 145.193 1440 145.193C1320 145.193 1200 145.193 1080 145.193C960 145.193 840 145.193 720 145.193C600 145.193 480 145.193 360 145.193C240 145.193 120 145.193 60 145.193H0L0 85.5805Z" fill="#F4F4F4"/>
</g>
<defs>
<clipPath id="clip0_545_2605">
<rect width="1440" height="131" fill="white"/>
</clipPath>
</defs>
</svg>
