<svg width="60" height="60" viewBox="0 0 60 60" fill="none" xmlns="http://www.w3.org/2000/svg">
<path d="M30 5C16.1925 5 5 16.1925 5 30C5 43.8075 16.1925 55 30 55C43.8075 55 55 43.8075 55 30C55 16.1925 43.8075 5 30 5Z" fill="#03A9F4"/>
<path d="M45 21.4C43.8975 21.8888 42.5012 22.3475 41.25 22.5C42.5225 21.745 44.5413 20.1725 45 18.75C43.8113 19.4488 41.6613 20.195 40.2588 20.465C37.2363 17.26 30 18.4438 30 25V27.5C25 27.5 20.125 23.6912 17.0913 20C14.2738 24.7587 19.4138 28.3612 20 28.75C18.9913 28.7188 17.0812 27.9487 16.25 27.5C16.25 27.52 16.25 27.545 16.25 27.5712C16.25 30.53 18.3263 32.5387 21.14 33.0988C20.6263 33.24 20 33.75 17.59 33.75C18.3725 36.1688 22.3063 37.4475 25 37.5C21.7287 40.0362 16.0925 40.0987 15 39.9712C26.2362 46.5825 43.3362 40.6125 42.4775 24.375C43.6875 23.5225 44.1775 22.63 45 21.4Z" fill="white"/>
</svg>
