<?xml version="1.0" encoding="utf-8"?>
<!-- Generator: Adobe Illustrator 27.0.0, SVG Export Plug-In . SVG Version: 6.00 Build 0)  -->
<svg version="1.1" id="Layer_1" xmlns="http://www.w3.org/2000/svg" xmlns:xlink="http://www.w3.org/1999/xlink" x="0px" y="0px"
	 viewBox="0 0 512 512" style="enable-background:new 0 0 512 512;" xml:space="preserve">
<style type="text/css">
	.st0{fill:url(#SVGID_1_);}
	.st1{fill:#FFC200;}
	.st2{fill:#FFFFFF;}
</style>
<g id="XMLID_1_">
	
		<linearGradient id="SVGID_1_" gradientUnits="userSpaceOnUse" x1="-342.7416" y1="570.7198" x2="-341.3465" y2="570.7198" gradientTransform="matrix(130.791 -226.5367 -226.5367 -130.791 174281.2812 -2584.5115)">
		<stop  offset="0" style="stop-color:#808080"/>
		<stop  offset="0.468" style="stop-color:#CCCCCC"/>
		<stop  offset="1" style="stop-color:#808080"/>
	</linearGradient>
	<path class="st0" d="M465.26,339.01H46.74c-24.55,0-44.64-20.09-44.64-44.64v-76.73c0-24.55,20.09-44.64,44.64-44.64h418.53
		c24.55,0,44.64,20.09,44.64,44.64v76.73C509.91,318.92,489.82,339.01,465.26,339.01z"/>
	<path id="XMLID_2_" class="st1" d="M465.26,339.01v-2.09H46.74c-11.72,0-22.32-4.74-29.99-12.56
		c-7.67-7.67-12.56-18.42-12.56-29.99v-76.73c0-11.72,4.74-22.32,12.56-29.99c7.67-7.67,18.42-12.56,29.99-12.56h418.53
		c11.72,0,22.32,4.74,29.99,12.56c7.67,7.67,12.56,18.42,12.56,29.99v76.73c0,11.72-4.74,22.32-12.56,29.99
		c-7.67,7.67-18.42,12.56-29.99,12.56V339.01v2.09c25.67,0,46.74-21.07,46.74-46.74v-76.73c0-25.67-21.07-46.74-46.74-46.74H46.74
		C21.07,170.9,0,191.97,0,217.63v76.73c0,25.67,21.07,46.74,46.74,46.74h418.53V339.01z"/>
	<path id="XMLID_3_" class="st2" d="M461.08,325.06H50.92c-16.18,0-29.3-13.25-29.3-29.3v-79.52c0-16.18,13.11-29.3,29.3-29.3
		h410.16c16.04,0,29.3,13.11,29.3,29.3v79.52C490.38,311.8,477.12,325.06,461.08,325.06z"/>
	<path id="XMLID_4_" d="M63.06,224.33c-1.53-4.46-3.77-4.46-5.16-6c-1.53-0.7-2.93-2.23-2.93-3.77c0-2.23,1.53-2.23,3.77-2.23
		c4.46,0,23.86,0,29.02,0c2.23,0,2.93,0,2.93,2.23c0,1.53-1.53,3.77-3.77,3.77c-3.77,1.53-3.77,2.23-3.77,5.16
		c0,0.7,1.53,2.93,2.93,7.39l9.63,29.86c0.7,0.7,1.53,2.93,2.23,2.93c0,0,0-2.23,0.7-3.77l11.86-29.02l-2.23-6.7
		c-1.53-4.46-3.77-4.46-6-6c-0.7-0.7-2.23-2.23-2.23-3.77c0-2.23,1.53-2.23,2.93-2.23c5.16,0,28.32-0.7,32.78-0.7
		c2.23,0,3.77,0,3.77,2.23s-2.23,3.77-3.77,4.46c-3.77,0.7-6,2.93-6,4.46c0,2.23,0,6,0.7,8.23l9.63,27.62
		c0.7,1.53,0.7,2.23,1.53,2.23c0.7,0,1.53-2.23,2.23-4.46l8.93-26.09c1.53-3.77-2.93-8.23-5.16-10.46
		c-2.23-1.53-3.77-3.77-3.77-4.46c0-2.23,1.53-2.23,2.93-2.23c4.46,0,23.86,0,28.32,0c1.53,0,2.93,0,2.93,2.23
		c0,1.53-2.93,2.93-5.16,5.16c-3.77,3.77-2.23,3.77-6,11.86l-23.16,61.8c-2.93,6.7-8.23,6.7-9.63,2.23l-14.09-40.18
		c-0.7-2.23-1.53-3.77-1.53-3.77c-0.7,0-1.53,1.53-2.23,3.77l-17.44,38.92c-2.93,6-7.39,6-8.93,0.7L63.06,224.33z"/>
	<path id="XMLID_5_" d="M205.92,213.87c2.23-4.46,9.63-2.93,10.46-1.53l29.86,70.03c2.23,5.16,4.46,10.46,7.39,10.46
		c2.93,0.7,4.46,2.93,4.46,5.16c0,2.23-1.53,2.23-3.77,2.23c-6,0-26.79,0-32.78,0c-4.46,0-5.16-1.53-5.16-2.93
		c0-1.53,0.7-4.46,2.23-4.46c2.93-0.7,6.7-2.23,6-5.16c-0.7-3.77-1.53-7.39-2.23-10.46c-0.7-2.23-2.23-2.93-8.23-2.93l-19.39,0.7
		c-2.93,0-2.23,2.23-7.39,14.09c-0.7,2.23,2.23,1.53,4.46,2.93c2.93,0.7,6,2.23,6,4.46c0,1.53-1.53,3.77-3.77,3.77
		c-3.77,0-22.32,0-26.79,0c-1.53,0-2.23-0.7-2.23-2.93s2.23-3.77,4.46-4.46c2.93,0,2.93-1.53,3.77-3.77L205.92,213.87z
		 M198.38,258.65c-1.53,1.53-1.53,2.93-1.53,3.77c0,0.7,2.23,1.53,5.16,1.53h9.63c4.46,0,6,0,6-0.7s-0.7-2.93-2.23-5.16l-6-17.16
		c-0.7-1.53-1.53-2.93-2.23-2.93c-0.7,0-2.23,2.93-2.23,3.77L198.38,258.65z"/>
	<path id="XMLID_8_" d="M322.83,262.28c2.23,0,2.23,2.93,2.23,4.46v19.39c0,6-1.53,7.39-6.7,7.39c-1.53,0-2.93,1.53-2.93,3.77
		c0,3.77,2.23,2.93,4.46,2.93c5.16,0,27.62,0.7,32.78,0.7c1.53,0,3.77-0.7,3.77-2.93c0-2.23-1.53-2.93-2.93-3.77
		c-5.16-1.53-5.16-5.16-5.16-8.93v-57.2c0-7.39,2.23-9.63,7.39-9.63c1.53,0,2.93-1.53,2.93-2.93c0-2.23-1.53-2.93-5.16-2.93
		c-5.16,0-29.86,0-34.32,0c-3.77,0-3.77,1.53-3.77,4.46c0,2.23,2.23,2.93,3.77,2.93c4.46,1.53,6,2.93,6,7.39v21.62
		c0,2.23-0.7,3.77-4.46,3.77l-19.39-0.7c-2.93,0-4.46-0.7-4.46-3.77V226.7c0-3.77,1.53-5.16,6.7-6.7c0.7-0.7,2.93-1.53,2.93-2.93
		c0-2.93,0-4.46-2.93-4.46c-5.16,0-29.86,0-35.02,0c-2.93,0-4.46,0-4.46,2.23s0.7,2.93,2.23,2.93c6,0.7,7.39,2.23,7.39,10.46v56.64
		c0,4.46,0,8.23-4.46,9.63c-1.53,0-2.93,1.53-2.93,2.93c0,2.23,1.53,2.93,2.93,2.93c5.16,0,27.62,0,32.78,0
		c2.23,0,4.46,0.7,4.46-3.77c0-2.23-1.53-2.93-2.93-3.77c-4.46,0-6-1.53-6-7.39v-18.69c-0.7-1.53,0-4.46,2.23-4.46L322.83,262.28
		L322.83,262.28z"/>
	<path id="XMLID_9_" d="M403.88,285.44c0,3.77,0.7,6,2.23,6.7v0.7h0.7c25.39,0,29.02,0.7,33.48-20.09c0,0-0.7-2.93,2.23-2.93
		c2.23,0,1.53,2.23,1.53,2.23v25.39c0,0-0.7,2.23-0.7,2.93c-0.7,0.7-3.77,0.7-3.77,0.7h-62.64c-1.53,0-4.46-0.7-4.46-2.93
		s2.23-2.93,2.93-3.77c5.16-1.53,5.16-5.16,5.16-8.93V228.1c0-7.39-2.23-9.63-7.39-9.63c-1.53,0-2.23-1.53-2.23-2.93
		c0-2.23,0.7-2.93,4.46-2.93c5.16,0,29.86,0,35.02,0c2.93,0,2.93,1.53,2.93,4.46c0,2.23-2.23,2.93-3.77,2.93
		c-4.46,1.53-6,2.93-6,7.39L403.88,285.44L403.88,285.44z"/>
	<path id="XMLID_10_" d="M441.55,210.94c-8.93,0-15.63,6.7-15.63,15.63s6.7,15.63,15.63,15.63c8.93,0,15.63-6.7,15.63-15.63
		S450.48,210.94,441.55,210.94z M440.85,214.71c6.7,0,11.86,4.46,11.86,11.86c0,6.7-5.16,11.86-11.16,11.86
		c-6.7,0-11.16-5.16-11.16-11.86C430.39,219.87,434.85,214.71,440.85,214.71z M434.85,217.63v17.16h3.77v-6.7h2.23l3.77,6.7h4.46
		l-4.46-7.39c2.93,0,3.77-1.53,3.77-4.46c0-2.93-2.23-5.16-6.7-5.16L434.85,217.63L434.85,217.63z M438.62,225.03v-4.46h3.77
		c1.53,0,2.23,0.7,2.23,2.23c0,1.53-0.7,2.23-2.23,2.23L438.62,225.03L438.62,225.03z"/>
</g>
</svg>
