<svg width="1439" height="146" viewBox="0 0 1439 146" fill="none" xmlns="http://www.w3.org/2000/svg">
<g clip-path="url(#clip0_244_3657)">
<path d="M1439 16L1375.5 41.5C1305 65.5 1246 69 1151 73.5C1053.5 75.5 961.286 68.2762 863 43.271C767 18.8473 671 2.56488 575 16.1723C479 29.3146 383 61.6471 287 85.7219C191 110.494 95 105.377 -1 97.5844C-97 89.0943 -193 89.7923 -289 78.5109C-385 67.6947 -481 67.6947 -577 67.6947C-673 67.6947 -769 67.6947 -865 62.2284C-961 57.2274 -1057 45.5971 -1153 32.4548C-1249 18.8473 -1345 2.56489 -1441 5.23986C-1537 8.38004 -1633 29.3146 -1729 48.7372C-1825 67.6947 -1921 83.9771 -2017 78.5109C-2113 73.5098 -2209 45.5971 -2305 35.1298C-2401 24.6625 -2497 29.3146 -2593 40.596C-2689 51.4122 -2785 67.6947 -2881 59.5534C-2977 51.4122 -3073 18.8473 -3169 5.23986C-3265 -7.9024 -3361 -3.25028 -3457 16.1723C-3553 35.1298 -3649 67.6947 -3745 75.8359C-3841 83.9771 -3937 67.6947 -4033 54.0872C-4129 40.9449 -4225 29.3146 -4321 24.3136C-4417 18.8473 -4513 18.8473 -4609 29.6635C-4705 40.9449 -4801 61.8795 -4897 67.6947C-4993 73.5098 -5089 61.8795 -5185 59.5534C-5281 57.2274 -5377 61.8795 -5425 65.0197L-5473 67.6947V-30H-5425C-5377 -30 -5281 -30 -5185 -30C-5089 -30 -4993 -30 -4897 -30C-4801 -30 -4705 -30 -4609 -30C-4513 -30 -4417 -30 -4321 -30C-4225 -30 -4129 -30 -4033 -30C-3937 -30 -3841 -30 -3745 -30C-3649 -30 -3553 -30 -3457 -30C-3361 -30 -3265 -30 -3169 -30C-3073 -30 -2977 -30 -2881 -30C-2785 -30 -2689 -30 -2593 -30C-2497 -30 -2401 -30 -2305 -30C-2209 -30 -2113 -30 -2017 -30C-1921 -30 -1825 -30 -1729 -30C-1633 -30 -1537 -30 -1441 -30C-1345 -30 -1249 -30 -1153 -30C-1057 -30 -961 -30 -865 -30C-769 -30 -673 -30 -577 -30C-481 -30 -385 -30 -289 -30C-193 -30 -97 -30 -1 -30C95 -30 191 -30 287 -30C383 -30 479 -30 575 -30C671 -30 767 -30 863 -30C959 -30 1055 -30 1151 -30C1247 -30 1343 -30 1391 -30H1439V16Z" fill="white"/>
</g>
<defs>
<clipPath id="clip0_244_3657">
<rect width="1440" height="166" fill="white" transform="matrix(-1 0 0 -1 1439 146)"/>
</clipPath>
</defs>
</svg>
