<svg width="1440" height="65" viewBox="0 0 1440 65" fill="none" xmlns="http://www.w3.org/2000/svg">
<g clip-path="url(#clip0_188_1143)">
<rect width="1442" height="65" transform="translate(-1)" fill="white"/>
<path d="M-1 37.93L61.5903 27.43C124.181 16.93 249.361 -4.06998 374.542 6.43002C499.722 16.93 624.903 58.93 750.083 55.43C875.264 51.93 1000.44 2.93002 1125.62 -0.569984C1250.81 -4.06998 1375.99 37.93 1501.17 44.93C1626.35 51.93 1751.53 23.93 1876.71 -4.06998C2001.89 -32.07 2127.07 -60.07 2252.25 -42.57C2377.43 -25.07 2502.61 37.93 2627.79 44.93C2752.97 51.93 2878.15 2.93002 3003.33 -4.06998C3128.51 -11.07 3253.69 23.93 3378.88 44.93C3504.06 65.93 3629.24 72.93 3754.42 58.93C3879.6 44.93 4004.78 9.93002 4129.96 -7.56998C4255.14 -25.07 4380.32 -25.07 4505.5 -28.57C4630.68 -32.07 4755.86 -39.07 4881.04 -18.07C5006.22 2.93002 5131.4 51.93 5256.58 48.43C5381.76 44.93 5506.94 -11.07 5632.12 -32.07C5757.31 -53.07 5882.49 -39.07 6007.67 -21.57C6132.85 -4.06998 6258.03 16.93 6383.21 16.93C6508.39 16.93 6633.57 -4.06998 6758.75 -11.07C6883.93 -18.07 7009.11 -11.07 7134.29 -18.07C7259.47 -25.07 7384.65 -46.07 7509.83 -39.07C7635.01 -32.07 7760.19 2.93002 7885.38 9.93002C8010.56 16.93 8135.74 -4.06998 8260.92 6.43002C8386.1 16.93 8511.28 58.93 8636.46 76.43C8761.64 93.93 8886.82 86.93 8949.41 83.43L9012 79.93V121.93H8949.41C8886.82 121.93 8761.64 121.93 8636.46 121.93C8511.28 121.93 8386.1 121.93 8260.92 121.93C8135.74 121.93 8010.56 121.93 7885.38 121.93C7760.19 121.93 7635.01 121.93 7509.83 121.93C7384.65 121.93 7259.47 121.93 7134.29 121.93C7009.11 121.93 6883.93 121.93 6758.75 121.93C6633.57 121.93 6508.39 121.93 6383.21 121.93C6258.03 121.93 6132.85 121.93 6007.67 121.93C5882.49 121.93 5757.31 121.93 5632.12 121.93C5506.94 121.93 5381.76 121.93 5256.58 121.93C5131.4 121.93 5006.22 121.93 4881.04 121.93C4755.86 121.93 4630.68 121.93 4505.5 121.93C4380.32 121.93 4255.14 121.93 4129.96 121.93C4004.78 121.93 3879.6 121.93 3754.42 121.93C3629.24 121.93 3504.06 121.93 3378.88 121.93C3253.69 121.93 3128.51 121.93 3003.33 121.93C2878.15 121.93 2752.97 121.93 2627.79 121.93C2502.61 121.93 2377.43 121.93 2252.25 121.93C2127.07 121.93 2001.89 121.93 1876.71 121.93C1751.53 121.93 1626.35 121.93 1501.17 121.93C1375.99 121.93 1250.81 121.93 1125.62 121.93C1000.44 121.93 875.264 121.93 750.083 121.93C624.903 121.93 499.722 121.93 374.542 121.93C249.361 121.93 124.181 121.93 61.5903 121.93H-1L-1 37.93Z" fill="#F8F8F8"/>
</g>
<defs>
<clipPath id="clip0_188_1143">
<rect width="1442" height="65" fill="white" transform="translate(-1)"/>
</clipPath>
</defs>
</svg>
