<svg width="1440" height="166" viewBox="0 0 1440 166" fill="none" xmlns="http://www.w3.org/2000/svg">
<g clip-path="url(#clip0_257_6653)">
<path d="M1440 36L1376.5 61.5C1306 85.5 1247 89 1152 93.5C1054.5 95.5 962.286 88.2762 864 63.271C768 38.8473 672 22.5649 576 36.1723C480 49.3146 384 81.6471 288 105.722C192 130.494 96 125.377 0 117.584C-96 109.094 -192 109.792 -288 98.5109C-384 87.6947 -480 87.6947 -576 87.6947C-672 87.6947 -768 87.6947 -864 82.2284C-960 77.2274 -1056 65.5971 -1152 52.4548C-1248 38.8473 -1344 22.5649 -1440 25.2399C-1536 28.38 -1632 49.3146 -1728 68.7372C-1824 87.6947 -1920 103.977 -2016 98.5109C-2112 93.5098 -2208 65.5971 -2304 55.1298C-2400 44.6625 -2496 49.3146 -2592 60.596C-2688 71.4122 -2784 87.6947 -2880 79.5534C-2976 71.4122 -3072 38.8473 -3168 25.2399C-3264 12.0976 -3360 16.7497 -3456 36.1723C-3552 55.1298 -3648 87.6947 -3744 95.8359C-3840 103.977 -3936 87.6947 -4032 74.0872C-4128 60.9449 -4224 49.3146 -4320 44.3136C-4416 38.8473 -4512 38.8473 -4608 49.6635C-4704 60.9449 -4800 81.8795 -4896 87.6947C-4992 93.5098 -5088 81.8795 -5184 79.5534C-5280 77.2274 -5376 81.8795 -5424 85.0197L-5472 87.6947V-10H-5424C-5376 -10 -5280 -10 -5184 -10C-5088 -10 -4992 -10 -4896 -10C-4800 -10 -4704 -10 -4608 -10C-4512 -10 -4416 -10 -4320 -10C-4224 -10 -4128 -10 -4032 -10C-3936 -10 -3840 -10 -3744 -10C-3648 -10 -3552 -10 -3456 -10C-3360 -10 -3264 -10 -3168 -10C-3072 -10 -2976 -10 -2880 -10C-2784 -10 -2688 -10 -2592 -10C-2496 -10 -2400 -10 -2304 -10C-2208 -10 -2112 -10 -2016 -10C-1920 -10 -1824 -10 -1728 -10C-1632 -10 -1536 -10 -1440 -10C-1344 -10 -1248 -10 -1152 -10C-1056 -10 -960 -10 -864 -10C-768 -10 -672 -10 -576 -10C-480 -10 -384 -10 -288 -10C-192 -10 -96 -10 0 -10C96 -10 192 -10 288 -10C384 -10 480 -10 576 -10C672 -10 768 -10 864 -10C960 -10 1056 -10 1152 -10C1248 -10 1344 -10 1392 -10H1440V36Z" fill="#F8F8F8"/>
</g>
<defs>
<clipPath id="clip0_257_6653">
<rect width="1440" height="166" fill="white" transform="matrix(-1 0 0 -1 1440 166)"/>
</clipPath>
</defs>
</svg>
