<svg width="1440" height="94" viewBox="0 0 1440 94" fill="none" xmlns="http://www.w3.org/2000/svg">
<g clip-path="url(#clip0_257_7000)">
<path d="M0 48.5805L60 33.5C120 23.5645 240 -3.67097 360 3C480 9.10323 600 55.6773 720 71.716C840 88.3225 960 88.3225 1080 78.387C1200 68.4515 1320 33.171 1440 26.5C1560 20.3968 1680 41.4838 1800 48.5805C1920 55.6773 2040 61.3547 2160 41.9096C2280 21.6128 2400 -23.8066 2520 -27.6388C2640 -30.9033 2760 8.83859 2880 25.445C3000 41.4838 3120 35.8063 3240 25.445C3360 15.9354 3480 1.74183 3600 -11.0324C3720 -23.8066 3840 -38.0001 3960 -27.6388C4080 -18.1291 4200 15.9354 4320 25.445C4440 35.8063 4560 21.6128 4680 15.5096C4800 8.83859 4920 8.8386 5040 18.7741C5160 28.7096 5280 48.5805 5400 58.516C5520 68.4515 5640 68.4515 5760 51.8451C5880 35.8063 6000 1.74183 6120 -7.76785C6240 -18.1291 6360 -3.93559 6480 -4.3614C6600 -3.93559 6720 -18.1291 6840 -24.2324C6960 -30.9033 7080 -30.9033 7200 -24.2324C7320 -18.1291 7440 -3.9356 7560 -7.76785C7680 -11.0324 7800 -30.9033 7920 -44.1033C8040 -57.8711 8160 -63.5485 8280 -54.0388C8400 -43.6775 8520 -18.1291 8580 -4.3614L8640 8.8386V108.193H8580C8520 108.193 8400 108.193 8280 108.193C8160 108.193 8040 108.193 7920 108.193C7800 108.193 7680 108.193 7560 108.193C7440 108.193 7320 108.193 7200 108.193C7080 108.193 6960 108.193 6840 108.193C6720 108.193 6600 108.193 6480 108.193C6360 108.193 6240 108.193 6120 108.193C6000 108.193 5880 108.193 5760 108.193C5640 108.193 5520 108.193 5400 108.193C5280 108.193 5160 108.193 5040 108.193C4920 108.193 4800 108.193 4680 108.193C4560 108.193 4440 108.193 4320 108.193C4200 108.193 4080 108.193 3960 108.193C3840 108.193 3720 108.193 3600 108.193C3480 108.193 3360 108.193 3240 108.193C3120 108.193 3000 108.193 2880 108.193C2760 108.193 2640 108.193 2520 108.193C2400 108.193 2280 108.193 2160 108.193C2040 108.193 1920 108.193 1800 108.193C1680 108.193 1560 108.193 1440 108.193C1320 108.193 1200 108.193 1080 108.193C960 108.193 840 108.193 720 108.193C600 108.193 480 108.193 360 108.193C240 108.193 120 108.193 60 108.193H0L0 48.5805Z" 
fill="#F6F6F6"/>
</g>
<defs>
<clipPath id="clip0_257_7000">
<rect width="1440" height="94" fill="white"/>
</clipPath>
</defs>
</svg>
