<svg width="1440" height="65" viewBox="0 0 1440 65" fill="none" xmlns="http://www.w3.org/2000/svg">
<g clip-path="url(#clip0_296_10003)">
<path d="M-1960 58.93L-1897.41 48.43C-1834.82 37.93 -1709.64 16.93 -1584.46 27.43C-1459.28 37.93 -1334.1 79.93 -1208.92 76.43C-1083.74 72.93 -958.556 23.93 -833.375 20.43C-708.194 16.93 -583.014 58.93 -457.833 65.93C-332.653 72.93 -221.181 73.5 -96 45.5C29.1805 17.5 159.319 -9.5 284.5 8C409.681 25.5 543.611 58.93 668.792 65.93C793.972 72.93 919.153 23.93 1044.33 16.93C1169.51 9.93004 1294.69 44.93 1419.88 65.93C1545.06 86.93 1670.24 93.93 1795.42 79.93C1920.6 65.93 2045.78 30.93 2170.96 13.43C2296.14 -4.06996 2421.32 -4.06996 2546.5 -7.56996C2671.68 -11.07 2796.86 -18.07 2922.04 2.93004C3047.22 23.93 3172.4 72.93 3297.58 69.43C3422.76 65.93 3547.94 9.93004 3673.12 -11.07C3798.31 -32.07 3923.49 -18.07 4048.67 -0.56996C4173.85 16.93 4299.03 37.93 4424.21 37.93C4549.39 37.93 4674.57 16.93 4799.75 9.93004C4924.93 2.93004 5050.11 9.93004 5175.29 2.93004C5300.47 -4.06996 5425.65 -25.07 5550.83 -18.07C5676.01 -11.07 5801.19 23.93 5926.38 30.93C6051.56 37.93 6176.74 16.93 6301.92 27.43C6427.1 37.93 6552.28 79.93 6677.46 97.43C6802.64 114.93 6927.82 107.93 6990.41 104.43L7053 100.93V142.93H6990.41C6927.82 142.93 6802.64 142.93 6677.46 142.93C6552.28 142.93 6427.1 142.93 6301.92 142.93C6176.74 142.93 6051.56 142.93 5926.38 142.93C5801.19 142.93 5676.01 142.93 5550.83 142.93C5425.65 142.93 5300.47 142.93 5175.29 142.93C5050.11 142.93 4924.93 142.93 4799.75 142.93C4674.57 142.93 4549.39 142.93 4424.21 142.93C4299.03 142.93 4173.85 142.93 4048.67 142.93C3923.49 142.93 3798.31 142.93 3673.12 142.93C3547.94 142.93 3422.76 142.93 3297.58 142.93C3172.4 142.93 3047.22 142.93 2922.04 142.93C2796.86 142.93 2671.68 142.93 2546.5 142.93C2421.32 142.93 2296.14 142.93 2170.96 142.93C2045.78 142.93 1920.6 142.93 1795.42 142.93C1670.24 142.93 1545.06 142.93 1419.88 142.93C1294.69 142.93 1169.51 142.93 1044.33 142.93C919.153 142.93 793.972 142.93 668.792 142.93C543.611 142.93 418.431 142.93 293.25 142.93C168.069 142.93 42.8889 142.93 -82.2916 142.93C-207.472 142.93 -332.653 142.93 -457.833 142.93C-583.014 142.93 -708.194 142.93 -833.375 142.93C-958.556 142.93 -1083.74 142.93 -1208.92 142.93C-1334.1 142.93 -1459.28 142.93 -1584.46 142.93C-1709.64 142.93 -1834.82 142.93 -1897.41 142.93H-1960V58.93Z" fill="white"/>
</g>
<defs>
<clipPath id="clip0_296_10003">
<rect width="1442" height="65" fill="white"/>
</clipPath>
</defs>
</svg>
