<svg width="1440" height="154" viewBox="0 0 1440 154" fill="none" xmlns="http://www.w3.org/2000/svg">
<g clip-path="url(#clip0_636_2067)">
<rect width="1440" height="154" transform="matrix(-1 0 0 -1 1440 154)" fill="white"/>
<path d="M1448 33.789L1384.5 64.7156C1314 93.8229 1255 104.738 1160 110.196C1062.5 112.621 964.286 108.383 866 78.0564C770 48.4353 680 39.9968 584 56.5C488 72.439 392 89.1501 296 118.348C200 148.392 104 160.275 8 150.825C-88 140.528 -184 123.285 -280 109.603C-376 96.4846 -472 96.4846 -568 96.4846C-664 96.4846 -760 96.4846 -856 89.8551C-952 83.7898 -1048 69.6845 -1144 53.7455C-1240 37.2423 -1336 17.4949 -1432 20.7391C-1528 24.5475 -1624 49.9371 -1720 73.4929C-1816 96.4846 -1912 116.232 -2008 109.603C-2104 103.537 -2200 69.6845 -2296 56.9897C-2392 44.2949 -2488 49.9371 -2584 63.6192C-2680 76.7372 -2776 96.4846 -2872 86.6109C-2968 76.7372 -3064 37.2423 -3160 20.7391C-3256 4.80009 -3352 10.4422 -3448 33.9981C-3544 56.9897 -3640 96.4846 -3736 106.358C-3832 116.232 -3928 96.4846 -4024 79.9814C-4120 64.0424 -4216 49.9371 -4312 43.8718C-4408 37.2423 -4504 37.2423 -4600 50.3602C-4696 64.0424 -4792 89.4319 -4888 96.4846C-4984 103.537 -5080 89.4319 -5176 86.6109C-5272 83.7898 -5368 89.4319 -5416 93.2404L-5464 96.4846V-22H-5416C-5368 -22 -5272 -22 -5176 -22C-5080 -22 -4984 -22 -4888 -22C-4792 -22 -4696 -22 -4600 -22C-4504 -22 -4408 -22 -4312 -22C-4216 -22 -4120 -22 -4024 -22C-3928 -22 -3832 -22 -3736 -22C-3640 -22 -3544 -22 -3448 -22C-3352 -22 -3256 -22 -3160 -22C-3064 -22 -2968 -22 -2872 -22C-2776 -22 -2680 -22 -2584 -22C-2488 -22 -2392 -22 -2296 -22C-2200 -22 -2104 -22 -2008 -22C-1912 -22 -1816 -22 -1720 -22C-1624 -22 -1528 -22 -1432 -22C-1336 -22 -1240 -22 -1144 -22C-1048 -22 -952 -22 -856 -22C-760 -22 -664 -22 -568 -22C-472 -22 -376 -22 -280 -22C-184 -22 -88 -22 8 -22C104 -22 200 -22 296 -22C392 -22 488 -22 584 -22C680 -22 776 -22 872 -22C968 -22 1064 -22 1160 -22C1256 -22 1352 -22 1400 -22H1448V33.789Z" fill="#5A5857"/>
<path d="M1516 32L1452.5 57.5C1382 81.5 1323 90.5 1228 95C1130.5 97 1032.29 93.5052 934 68.5C838 44.0763 748 18.5649 652 32.1723C556 45.3146 460 77.6471 364 101.722C268 126.494 172 136.292 76 128.5C-20 120.01 -116 105.792 -212 94.5108C-308 83.6946 -404 83.6946 -500 83.6946C-596 83.6946 -692 83.6947 -788 78.2284C-884 73.2274 -980 61.597 -1076 48.4548C-1172 34.8473 -1268 18.5649 -1364 21.2398C-1460 24.38 -1556 45.3146 -1652 64.7372C-1748 83.6946 -1844 99.9771 -1940 94.5108C-2036 89.5098 -2132 61.597 -2228 51.1298C-2324 40.6625 -2420 45.3146 -2516 56.596C-2612 67.4122 -2708 83.6947 -2804 75.5534C-2900 67.4122 -2996 34.8473 -3092 21.2398C-3188 8.09759 -3284 12.7497 -3380 32.1723C-3476 51.1297 -3572 83.6946 -3668 91.8359C-3764 99.9771 -3860 83.6947 -3956 70.0872C-4052 56.9449 -4148 45.3146 -4244 40.3136C-4340 34.8473 -4436 34.8473 -4532 45.6635C-4628 56.9449 -4724 77.8795 -4820 83.6946C-4916 89.5098 -5012 77.8795 -5108 75.5534C-5204 73.2274 -5300 77.8795 -5348 81.0197L-5396 83.6946V-14H-5348C-5300 -14 -5204 -14 -5108 -14C-5012 -14 -4916 -14 -4820 -14C-4724 -14 -4628 -14 -4532 -14C-4436 -14 -4340 -14 -4244 -14C-4148 -14 -4052 -14 -3956 -14C-3860 -14 -3764 -14 -3668 -14C-3572 -14 -3476 -14 -3380 -14C-3284 -14 -3188 -14 -3092 -14C-2996 -14 -2900 -14 -2804 -14C-2708 -14 -2612 -14 -2516 -14C-2420 -14 -2324 -14 -2228 -14C-2132 -14 -2036 -14 -1940 -14C-1844 -14 -1748 -14 -1652 -14C-1556 -14 -1460 -14 -1364 -14C-1268 -14 -1172 -14 -1076 -14C-980 -14 -884 -14 -788 -14C-692 -14 -596 -14 -500 -14C-404 -14 -308 -14 -212 -14C-116 -14 -20 -14 76 -14C172 -14 268 -14 364 -14C460 -14 556 -14 652 -14C748 -14 844 -14 940 -14C1036 -14 1132 -14 1228 -14C1324 -14 1420 -14 1468 -14H1516V32Z" fill="#312E2D"/>
<path d="M1440 16L1376.5 41.5C1306 65.5 1247 69 1152 73.5C1054.5 75.5 962.286 68.2762 864 43.271C768 18.8473 672 2.56486 576 16.1723C480 29.3146 384 61.6471 288 85.7218C192 110.494 96 120.292 0 112.5C-96 104.01 -192 89.7922 -288 78.5108C-384 67.6946 -480 67.6946 -576 67.6946C-672 67.6946 -768 67.6947 -864 62.2284C-960 57.2274 -1056 45.597 -1152 32.4548C-1248 18.8473 -1344 2.56487 -1440 5.23985C-1536 8.38003 -1632 29.3146 -1728 48.7372C-1824 67.6946 -1920 83.9771 -2016 78.5108C-2112 73.5098 -2208 45.597 -2304 35.1298C-2400 24.6625 -2496 29.3146 -2592 40.596C-2688 51.4122 -2784 67.6947 -2880 59.5534C-2976 51.4122 -3072 18.8473 -3168 5.23985C-3264 -7.90241 -3360 -3.2503 -3456 16.1723C-3552 35.1297 -3648 67.6946 -3744 75.8359C-3840 83.9771 -3936 67.6947 -4032 54.0872C-4128 40.9449 -4224 29.3146 -4320 24.3136C-4416 18.8473 -4512 18.8473 -4608 29.6635C-4704 40.9449 -4800 61.8795 -4896 67.6946C-4992 73.5098 -5088 61.8795 -5184 59.5534C-5280 57.2274 -5376 61.8795 -5424 65.0197L-5472 67.6946V-30H-5424C-5376 -30 -5280 -30 -5184 -30C-5088 -30 -4992 -30 -4896 -30C-4800 -30 -4704 -30 -4608 -30C-4512 -30 -4416 -30 -4320 -30C-4224 -30 -4128 -30 -4032 -30C-3936 -30 -3840 -30 -3744 -30C-3648 -30 -3552 -30 -3456 -30C-3360 -30 -3264 -30 -3168 -30C-3072 -30 -2976 -30 -2880 -30C-2784 -30 -2688 -30 -2592 -30C-2496 -30 -2400 -30 -2304 -30C-2208 -30 -2112 -30 -2016 -30C-1920 -30 -1824 -30 -1728 -30C-1632 -30 -1536 -30 -1440 -30C-1344 -30 -1248 -30 -1152 -30C-1056 -30 -960 -30 -864 -30C-768 -30 -672 -30 -576 -30C-480 -30 -384 -30 -288 -30C-192 -30 -96 -30 0 -30C96 -30 192 -30 288 -30C384 -30 480 -30 576 -30C672 -30 768 -30 864 -30C960 -30 1056 -30 1152 -30C1248 -30 1344 -30 1392 -30H1440V16Z" fill="#080403"/>
</g>
<defs>
<clipPath id="clip0_636_2067">
<rect width="1440" height="154" fill="white" transform="matrix(-1 0 0 -1 1440 154)"/>
</clipPath>
</defs>
</svg>
