<svg width="1440" height="65" viewBox="0 0 1440 65" fill="none" xmlns="http://www.w3.org/2000/svg">
<g clip-path="url(#clip0_187_9312)">
<path d="M-2 37.93L60.5903 27.43C123.181 16.93 248.361 -4.06998 373.542 6.43002C498.722 16.93 623.903 58.93 749.083 55.43C874.264 51.93 999.444 2.93002 1124.62 -0.569984C1249.81 -4.06998 1374.99 37.93 1500.17 44.93C1625.35 51.93 1750.53 23.93 1875.71 -4.06998C2000.89 -32.07 2126.07 -60.07 2251.25 -42.57C2376.43 -25.07 2501.61 37.93 2626.79 44.93C2751.97 51.93 2877.15 2.93002 3002.33 -4.06998C3127.51 -11.07 3252.69 23.93 3377.88 44.93C3503.06 65.93 3628.24 72.93 3753.42 58.93C3878.6 44.93 4003.78 9.93002 4128.96 -7.56998C4254.14 -25.07 4379.32 -25.07 4504.5 -28.57C4629.68 -32.07 4754.86 -39.07 4880.04 -18.07C5005.22 2.93002 5130.4 51.93 5255.58 48.43C5380.76 44.93 5505.94 -11.07 5631.12 -32.07C5756.31 -53.07 5881.49 -39.07 6006.67 -21.57C6131.85 -4.06998 6257.03 16.93 6382.21 16.93C6507.39 16.93 6632.57 -4.06998 6757.75 -11.07C6882.93 -18.07 7008.11 -11.07 7133.29 -18.07C7258.47 -25.07 7383.65 -46.07 7508.83 -39.07C7634.01 -32.07 7759.19 2.93002 7884.38 9.93002C8009.56 16.93 8134.74 -4.06998 8259.92 6.43002C8385.1 16.93 8510.28 58.93 8635.46 76.43C8760.64 93.93 8885.82 86.93 8948.41 83.43L9011 79.93V121.93H8948.41C8885.82 121.93 8760.64 121.93 8635.46 121.93C8510.28 121.93 8385.1 121.93 8259.92 121.93C8134.74 121.93 8009.56 121.93 7884.38 121.93C7759.19 121.93 7634.01 121.93 7508.83 121.93C7383.65 121.93 7258.47 121.93 7133.29 121.93C7008.11 121.93 6882.93 121.93 6757.75 121.93C6632.57 121.93 6507.39 121.93 6382.21 121.93C6257.03 121.93 6131.85 121.93 6006.67 121.93C5881.49 121.93 5756.31 121.93 5631.12 121.93C5505.94 121.93 5380.76 121.93 5255.58 121.93C5130.4 121.93 5005.22 121.93 4880.04 121.93C4754.86 121.93 4629.68 121.93 4504.5 121.93C4379.32 121.93 4254.14 121.93 4128.96 121.93C4003.78 121.93 3878.6 121.93 3753.42 121.93C3628.24 121.93 3503.06 121.93 3377.88 121.93C3252.69 121.93 3127.51 121.93 3002.33 121.93C2877.15 121.93 2751.97 121.93 2626.79 121.93C2501.61 121.93 2376.43 121.93 2251.25 121.93C2126.07 121.93 2000.89 121.93 1875.71 121.93C1750.53 121.93 1625.35 121.93 1500.17 121.93C1374.99 121.93 1249.81 121.93 1124.62 121.93C999.444 121.93 874.264 121.93 749.083 121.93C623.903 121.93 498.722 121.93 373.542 121.93C248.361 121.93 123.181 121.93 60.5903 121.93H-2L-2 37.93Z" fill="white"/>
</g>
<defs>
<clipPath id="clip0_187_9312">
<rect width="1442" height="65" fill="white" transform="translate(-2)"/>
</clipPath>
</defs>
</svg>
